<?xml version="1.0" encoding="utf-8" ?>
<svg xmlns="http://www.w3.org/2000/svg" xmlns:xlink="http://www.w3.org/1999/xlink" width="1024" height="1024">
	<path fill="#F4F1DE" transform="scale(1.6 1.6)" d="M313.028 85.4494C363.651 81.8801 430.275 105.488 467.817 137.848C522.48 184.965 554.118 246.729 554.045 318.723C553.954 408.144 508.603 482.316 431.854 525.768C398.368 544.727 365.371 551.947 327.772 554.636C267.931 554.917 217.079 538.864 170.121 499.408C83.6654 426.764 61.3827 306.141 115.596 207.141C151.18 142.162 215.507 99.1917 288.702 87.7639C296.739 86.5092 304.928 86.1328 313.028 85.4494Z"/>
	<path fill="#3D405B" transform="scale(1.6 1.6)" d="M245.187 146.366C280.582 143.933 285.766 194.488 250.584 200.666C217.143 204.979 207.698 150.566 245.187 146.366Z"/>
	<path fill="#F4F1DE" transform="scale(1.6 1.6)" d="M246.004 154.756C269.261 153.302 274.703 185.486 249.754 191.836C228.339 195.858 219.59 159.961 246.004 154.756Z"/>
	<path fill="#3D405B" transform="scale(1.6 1.6)" d="M204.802 300.657C202.403 308.728 197.904 323.266 190.78 328.204C183.532 333.228 172.008 331.715 167.108 324.121C163.375 318.338 164.711 311.116 166.155 304.824C173.002 274.99 186.144 239.547 213.417 222.565C250.303 199.598 285.933 217.005 307.03 251.498C314.757 264.132 335.907 306.018 332.302 319.812C330.124 328.148 321.228 331.999 313.288 329.496C301.78 325.869 290.187 302.09 298.929 298.647C304.574 300.76 303.764 318.812 316.962 322.076C321.149 321.039 323.192 319.681 324.666 315.702C322.574 303.569 317.256 293.086 312.261 281.965C303.676 262.856 295.938 242.562 277.984 230.013C242.63 205.303 205.126 231.985 188.597 266.111C183.409 276.822 162.626 318.141 180.824 323.641C189.689 321.214 191.403 314.222 194.653 306.562C197.966 298.753 201.211 290.943 203.39 282.728C204.412 278.876 205.074 262.604 212.69 267.119C216.742 269.522 214.398 280.079 214.095 283.758C212.306 305.475 212.137 326.639 213.851 348.418C214.338 354.592 217.978 366.22 213.206 371.014C210.74 370.876 209.127 369.729 207.261 368.254C205.069 345.993 203.172 322.942 204.802 300.657Z"/>
	<path fill="#3D405B" transform="scale(1.6 1.6)" d="M366.46 337.863C354.798 316.047 379.922 293.134 398.716 307.648C409.211 315.753 410.084 330.381 402.202 340.562C409.37 347.441 414.049 354.224 416.112 364.049C423.76 364.147 431.798 364.47 439.125 366.789C443.003 368.017 456.543 374.119 446.97 377.606C440.819 376.972 434.747 375.027 428.56 374.234C421.978 373.39 415.488 373.806 408.895 373.414C383.348 370.229 351.743 374.075 324.677 372.103C329.622 387.009 334.427 410.608 336.83 426.286C338.22 435.356 338.964 444.779 340.92 453.725C359.88 459.23 414.057 461.961 428.401 453.635C441.689 445.921 452.015 413.029 452.762 396.542C423.312 385.743 381.092 391.843 350.06 391.581C348.207 391.565 342.562 391.817 341.682 390.013C340.839 388.285 340.279 384.11 342.616 383.213C349.158 380.703 401.784 381.694 414.534 381.206C428.038 381.655 435.46 383.646 447.892 385.81C457.738 390.882 462.852 384.675 460.743 401.778C457.801 425.651 447.662 457.245 422.543 465.378C443.056 483.232 409.857 492.478 408.999 474.334C408.85 471.176 410.483 468.757 412.559 466.57C391.447 469.167 374.895 466.674 354.612 464.639C367.478 469.317 359.333 480.82 352.687 483.738C340.448 489.113 333.248 475.118 338.573 463.003C335.742 461.823 333.377 460.585 331.539 458.049C331.786 438.181 326.252 412.052 321.66 392.787C320.059 386.068 316.685 377.43 316.186 370.797C315.522 361.975 333.353 371.014 331.268 365.109C329.605 360.4 322.752 346.183 325.915 341.566C333.273 330.827 336.169 357.99 337.192 364.096C343.109 363.47 349.03 363.651 354.97 363.739C356.076 353.648 359.169 345.132 366.46 337.863Z"/>
	<path fill="#8D9692" transform="scale(1.6 1.6)" d="M345.723 466.777C349.129 466.644 347.733 469.54 345.663 470.416C342.218 469.623 343.822 468.392 345.723 466.777Z"/>
	<path fill="#BC6C25" transform="scale(1.6 1.6)" d="M385.171 311.36C402.939 312.166 405.074 339.272 385.435 338.404C366.614 338.983 366.922 313.267 385.171 311.36Z"/>
	<path fill="#79FF77" transform="scale(1.6 1.6)" d="M380.38 342.898C392.996 342.331 401.332 353.064 406.231 363.417C401.39 363.688 396.551 363.657 391.704 363.646C383.319 363.664 373.895 364.32 365.625 363.407C365.57 352.544 369.143 345.308 380.38 342.898Z"/>
	<path fill="#BC6C25" transform="scale(1.6 1.6)" d="M324.677 372.103C351.743 374.075 383.348 370.229 408.895 373.414L408.528 373.445C405.602 373.675 402.64 373.627 399.705 373.656C406.328 373.794 436.408 373.655 441.093 377.256C441.395 380.02 443.89 383.82 441.333 383.71C426.928 383.089 414.647 378.799 397.922 380.828C403.221 380.677 409.356 380.017 414.534 381.206C401.784 381.694 349.158 380.703 342.616 383.213C340.279 384.11 340.839 388.285 341.682 390.013C342.562 391.817 348.207 391.565 350.06 391.581C381.092 391.843 423.312 385.743 452.762 396.542C452.015 413.029 441.689 445.921 428.401 453.635C414.057 461.961 359.88 459.23 340.92 453.725C338.964 444.779 338.22 435.356 336.83 426.286C334.427 410.608 329.622 387.009 324.677 372.103Z"/>
	<path fill="#BC6C25" transform="scale(1.6 1.6)" d="M180.824 323.641C162.626 318.141 183.409 276.822 188.597 266.111C205.126 231.985 242.63 205.303 277.984 230.013C295.938 242.562 303.676 262.856 312.261 281.965C317.256 293.086 322.574 303.569 324.666 315.702C323.192 319.681 321.149 321.039 316.962 322.076C303.764 318.812 304.574 300.76 298.929 298.647L300.084 296.35C298.653 292.483 297.212 289.338 294.414 286.264C292.774 286.583 291.222 287.077 289.636 287.589C289.207 291.568 289.605 295.569 289.669 299.556C290.285 337.576 284.911 379.677 282.785 418.356C282.013 432.417 282.154 456.256 278.73 469.623C274.63 485.632 252.513 489.799 246.933 480.227C239.97 487.029 228.223 486.957 221.419 479.845C212.641 470.67 212.158 436.956 211.442 423.986C211.015 416.236 208.262 411.307 215.682 407.318C214.505 403.619 214.445 399.511 213.129 395.578C208.782 391.983 207.744 387.789 213.287 384.997C213.742 383.812 212.663 374.457 213.206 371.014C217.978 366.22 214.338 354.592 213.851 348.418C212.137 326.639 212.306 305.475 214.095 283.758C214.398 280.079 216.742 269.522 212.69 267.119C205.074 262.604 204.412 278.876 203.39 282.728C201.211 290.943 197.966 298.753 194.653 306.562C191.403 314.222 189.689 321.214 180.824 323.641Z"/>
	<path fill="#3D405B" transform="scale(1.6 1.6)" d="M213.287 384.997C221.536 387.501 217.781 394.481 213.129 395.578C208.782 391.983 207.744 387.789 213.287 384.997Z"/>
	<path fill="#3D405B" transform="scale(1.6 1.6)" d="M215.682 407.318C225.401 416.12 218.301 456.143 225.246 470.123C228.884 477.445 240.315 479.725 243.116 470.347C244.484 465.768 243.777 449.388 243.774 443.713L243.82 397.363C243.832 393.554 242.876 387.261 244.053 383.75C245.393 379.756 251.613 380.457 252.339 384.512C252.67 386.36 252.158 395.131 252.161 397.781L252.18 446.473C252.178 452.555 250.558 467.485 252.885 472.765C254.664 476.801 260.494 477.574 264.025 475.602C273.461 470.333 272.087 455.735 272.922 446.576C274.962 424.206 275.552 401.856 276.917 379.452C278.738 349.552 282.994 325.733 281.196 294.93C280.793 288.027 277.824 276.374 279.668 270.138C289.386 259.998 289.695 283.548 289.636 287.589C289.207 291.568 289.605 295.569 289.669 299.556C290.285 337.576 284.911 379.677 282.785 418.356C282.013 432.417 282.154 456.256 278.73 469.623C274.63 485.632 252.513 489.799 246.933 480.227C239.97 487.029 228.223 486.957 221.419 479.845C212.641 470.67 212.158 436.956 211.442 423.986C211.015 416.236 208.262 411.307 215.682 407.318Z"/>
</svg>
