<?xml version="1.0" encoding="utf-8" ?>
<svg xmlns="http://www.w3.org/2000/svg" xmlns:xlink="http://www.w3.org/1999/xlink" width="1023" height="1023">
	<path fill="#E07A5F" transform="scale(1.6 1.6)" d="M140.393 290.336C176.8 296.629 166.239 343.744 140.079 343.337L139.31 341.213C127.843 340.623 125.231 335.045 123.366 324.424C118.482 324.566 115.194 325.466 114.993 319.747C114.457 304.516 124.294 290.707 140.393 290.336Z"/>
	<path fill="#3D405B" transform="scale(1.6 1.6)" d="M140.393 290.336C176.8 296.629 166.239 343.744 140.079 343.337L139.31 341.213C138.553 338.024 140.677 337.916 143.093 336.403C174.829 316.529 141.158 283.997 125.794 305.304C121.569 311.163 122.34 317.751 123.366 324.424C118.482 324.566 115.194 325.466 114.993 319.747C114.457 304.516 124.294 290.707 140.393 290.336Z"/>
	<path fill="#3D405B" transform="scale(1.6 1.6)" d="M508.1 480.086C509.698 480.311 511.089 480.975 512.444 481.839C512.621 490.92 512.572 500.007 512.57 509.09C512.567 523.019 514.428 535.75 504.046 546.578C490.903 560.284 459.311 555.824 441.047 555.815L316.701 555.812C307.576 555.821 298.372 556.093 289.254 555.82C285.163 555.697 283.589 555.726 283.454 551.226C284.516 544.324 297.255 547.793 304.523 547.796L460.972 547.798C492.814 547.803 505.168 549.966 505.144 512.58L505.108 492.644C505.095 487.888 503.405 482.787 508.1 480.086Z"/>
	<path fill="#3D405B" transform="scale(1.6 1.6)" d="M136.561 173.029L136.514 143.589C136.5 125.363 135.091 110.576 149.226 96.4479C160.18 85.4985 169.718 83.9961 184.093 84.0013L477.675 84.0214C505.08 84.191 512.73 99.7828 512.582 124.811L512.549 378.752C512.549 402.763 512.943 426.84 512.643 450.843C512.604 453.97 512.115 456.331 509.206 457.769C507.227 457.308 506.41 456.763 505.116 455.217C504.806 445.964 505.115 436.61 505.116 427.344L505.112 142.98C505.113 125.406 510.234 95.2393 485.247 92.3609C477.798 91.5028 466.225 92.1472 458.316 92.1581L278.4 92.1696C255.205 92.17 231.957 92.4913 208.768 92.067C207.657 104.588 208.34 117.507 208.346 130.093L208.353 503.964C208.353 518.612 208.915 533.498 207.896 548.107C213.831 547.838 256.949 546.987 260.006 548.57L260.215 548.833C263.371 557.961 249.822 555.807 244.776 555.804L193.404 555.811C185.671 555.833 177.355 556.488 169.757 554.882C152.123 551.155 138.335 534.56 136.668 516.832C135.098 500.148 137.385 481.078 136.255 463.669C101.657 452.641 110.026 411.549 140.408 409.615C166.036 410.019 176.797 450.694 144.425 462.984C144.6 467.5 144.241 472.066 144.203 476.59L144.174 502.914C144.181 515.384 144.007 525.843 152.677 535.868C166.564 551.928 182.551 546.748 200.914 548.141C200.698 540.603 201.185 532.899 201.187 525.334L201.177 116.581C201.177 108.509 200.906 100.361 201.549 92.3106C193.289 92.1498 179.32 91.416 171.614 92.537C159.351 94.3209 147.718 106.831 145.202 118.861C143.474 127.125 143.368 163.925 144.681 172.987C174.83 183.882 169.242 211.637 145.509 227.505C143.367 231.06 142.614 234.724 140.866 238.36C138.484 232.924 132.275 228.952 127.88 225.125C120.656 218.438 114.49 211.571 114.018 201.241C113.396 187.633 123.462 175.799 136.561 173.029Z"/>
	<path fill="#8867FC" transform="scale(1.6 1.6)" d="M139.555 417.608C161.871 416.06 163.432 453.198 139.628 455.558C115.737 453.495 115.021 420.613 139.555 417.608Z"/>
	<path fill="#8867FC" transform="scale(1.6 1.6)" d="M137.75 180.722C158.166 178.388 167.209 211.134 141.582 219.226C118.232 223.112 114.094 184.879 137.75 180.722Z"/>
	<path fill="#E07A5F" transform="scale(1.6 1.6)" d="M144.681 172.987C143.368 163.925 143.474 127.125 145.202 118.861C147.718 106.831 159.351 94.3209 171.614 92.537C179.32 91.416 193.289 92.1498 201.549 92.3106C200.906 100.361 201.177 108.509 201.177 116.581L201.187 525.334C201.185 532.899 200.698 540.603 200.914 548.141C182.551 546.748 166.564 551.928 152.677 535.868C144.007 525.843 144.181 515.384 144.174 502.914L144.203 476.59C144.241 472.066 144.6 467.5 144.425 462.984C176.797 450.694 166.036 410.019 140.408 409.615C140.096 388.065 139.636 364.88 140.079 343.337C166.239 343.744 176.8 296.629 140.393 290.336C141.11 273.051 140.068 255.694 140.866 238.36C142.614 234.724 143.367 231.06 145.509 227.505C169.242 211.637 174.83 183.882 144.681 172.987Z"/>
	<path fill="#F4F1DE" transform="scale(1.6 1.6)" d="M208.768 92.067C231.957 92.4913 255.205 92.17 278.4 92.1696L458.316 92.1581C466.225 92.1472 477.798 91.5028 485.247 92.3609C510.234 95.2393 505.113 125.406 505.112 142.98L505.116 427.344C505.115 436.61 504.806 445.964 505.116 455.217C506.41 456.763 507.227 457.308 509.206 457.769C507.775 463.336 510.92 475.74 508.045 479.683L508.1 480.086C503.405 482.787 505.095 487.888 505.108 492.644L505.144 512.58C505.168 549.966 492.814 547.803 460.972 547.798L304.523 547.796C297.255 547.793 284.516 544.324 283.454 551.226C280.376 549.939 267.065 550.372 262.869 550.291C261.994 549.639 261.3 549.056 260.215 548.833L260.006 548.57C256.949 546.987 213.831 547.838 207.896 548.107C208.915 533.498 208.353 518.612 208.353 503.964L208.346 130.093C208.34 117.507 207.657 104.588 208.768 92.067Z"/>
	<path fill="#3D405B" transform="scale(1.6 1.6)" d="M257.655 415.343C263.846 415.038 271.796 414.911 277.942 415.451C282.754 415.874 285.458 420.937 280.755 423.403C277.135 423.578 258.746 424.929 256.497 421.999C254.858 419.862 255.644 416.856 257.655 415.343Z"/>
	<path fill="#3D405B" transform="scale(1.6 1.6)" d="M309.683 415.443C336.178 414.813 362.801 415.33 389.309 415.335L426.515 415.324C430.443 415.318 447.395 414.144 450.076 416.107C453.642 418.718 451.622 423.613 445.91 423.579C413.248 423.04 380.507 423.506 347.838 423.506L321.353 423.508C317.009 423.508 312.567 423.733 308.236 423.493C302.098 423.151 299.235 416.167 309.683 415.443Z"/>
	<path fill="#3D405B" transform="scale(1.6 1.6)" d="M258.086 490.975C263.466 490.704 269.094 491.006 274.499 491.003L406.629 490.994C420.876 490.996 435.186 491.335 449.424 491.098C452.427 494.102 452.426 497.087 448.567 498.97C444.257 499.313 439.605 498.839 435.249 498.829L270.651 498.83C267.203 498.848 260.999 499.573 257.82 498.633C253.565 497.375 254.239 492.91 258.086 490.975Z"/>
	<path fill="#3D405B" transform="scale(1.6 1.6)" d="M257.44 452.572C263.751 451.903 271.955 452.483 278.502 452.494L405.613 452.504C419.176 452.504 432.78 452.247 446.339 452.486C452.938 452.602 454.612 457.705 449.415 460.895C444.541 461.155 439.584 460.705 434.696 460.66L316.339 460.628C296.984 460.626 277.585 460.263 258.249 461.121C254.536 458.523 253.917 455.53 257.44 452.572Z"/>
	<path fill="#3D405B" transform="scale(1.6 1.6)" d="M332.542 142.887C347.944 141.749 356.698 159.216 352.009 173.416C385.86 176.957 413.386 181.709 432.225 215.408C442.341 233.504 441.219 247.795 441.149 267.583C454.374 271.468 457.903 284.056 452.249 296.222C448.556 304.167 443.811 306.25 435.954 309.145C433.714 313.191 431.924 317.497 429.685 321.558C412.505 352.726 372.76 367.905 338.647 361.178C315.371 356.741 293.87 343.905 280.535 324.09C275.979 317.32 276.074 310.566 269.444 308.257C251.296 301.935 244.502 272.429 267.344 267.371C263.915 167.896 338.916 187.186 343.955 163.961C345.162 158.394 341.97 151.696 336.013 150.671C332.299 150.033 322.683 154.971 329.052 156.576C334.295 161.137 323.262 169.498 320.29 157.953C318.203 149.845 325.496 144.417 332.542 142.887Z"/>
	<path fill="#F4F1DE" transform="scale(1.6 1.6)" d="M436.868 279.255C440.508 278.246 443.106 276.384 446.165 279.729C449.037 291.027 443.956 299.575 432.202 297.982C433.894 293.134 434.605 282.653 436.868 279.255Z"/>
	<path fill="#F4F1DE" transform="scale(1.6 1.6)" d="M265.663 276.507C266.461 276.967 267.299 277.375 268.117 277.801C269.493 278.716 269.81 278.281 271.308 278.597C272.362 280.571 272.913 282.38 273.456 284.55C273.475 285.381 273.417 286.248 273.71 287.037C273.913 290.448 274.916 295.613 273.281 298.72C263.508 299.548 255.135 281.201 265.663 276.507Z"/>
	<path fill="#FED694" transform="scale(1.6 1.6)" d="M268.117 277.801C269.493 278.716 269.81 278.281 271.308 278.597C272.362 280.571 272.913 282.38 273.456 284.55C273.475 285.381 273.417 286.248 273.71 287.037C269.985 287.606 268.666 285.898 266.676 282.885C267.388 281.198 268.133 279.669 268.117 277.801Z"/>
	<path fill="#E07A5F" transform="scale(1.6 1.6)" d="M330.981 185.652C330.351 207.024 351.221 215.286 362.966 202.178C366.445 198.296 363.375 191.966 358.052 192.692C353.665 193.29 354.578 199.935 350.647 200.768C342.46 202.503 334.756 184.513 351.801 182.986C405.752 178.153 446.202 222.305 430.318 274.139C430.658 275.162 430.974 276.136 431.498 277.081C433.263 278.273 434.707 279.016 436.868 279.255C434.605 282.653 433.894 293.134 432.202 297.982C429.663 301.309 428.676 305.577 427.093 309.388C402.481 368.614 308.821 369.989 282.268 310.391C280.277 305.922 279.548 298.152 273.281 298.72C274.916 295.613 273.913 290.448 273.71 287.037C273.417 286.248 273.475 285.381 273.456 284.55C272.913 282.38 272.362 280.571 271.308 278.597C272.638 278.54 273.758 278.243 275.032 277.87C279.361 274.978 275.433 264.122 275.12 260.165C272.08 221.786 293.728 192.598 330.981 185.652Z"/>
	<path fill="#3D405B" transform="scale(1.6 1.6)" d="M383.875 273.15C393.565 272.134 395.47 284.74 386.948 287.504C377.367 287.815 374.726 276.37 383.875 273.15Z"/>
	<path fill="#3D405B" transform="scale(1.6 1.6)" d="M320.04 272.544C325.31 272.312 326.921 274.214 328.53 279.158C327.588 283.063 326.442 286.598 322.125 287.715C311.528 286.913 311.264 276.162 320.04 272.544Z"/>
	<path fill="#3D405B" transform="scale(1.6 1.6)" d="M364.877 315.018C379.869 314.388 361.949 336.456 339.751 324.026C337.402 322.668 332.768 318.839 336.787 316.398C345.588 311.051 345.397 326.863 364.877 315.018Z"/>
</svg>
