<?xml version="1.0" encoding="utf-8" ?>
<svg xmlns="http://www.w3.org/2000/svg" xmlns:xlink="http://www.w3.org/1999/xlink" width="1062" height="1062">
	<path fill="#F4F1DE" transform="scale(1.6602 1.6602)" d="M460.658 267.61C468.653 257.949 482.549 246.813 492.077 237.153C506.3 222.733 507.145 228.886 511.101 206.222L511.358 207.182L511.794 207.222C521.784 208.243 530.479 229.827 533.78 237.638C547.806 270.823 552.958 307.489 548.534 343.25C545.652 366.547 534.901 416.708 508.986 424.613C504.727 425.913 505.961 423.897 504.573 427.237C498.839 469.273 469.758 495.38 427.099 492.67C425.963 522.827 431.277 528.506 401.917 538.496C343.39 558.41 260.713 555.489 203.277 529.81C199.663 528.194 164.044 509.089 162.05 506.921C161.968 505.895 162.118 504.919 161.502 504.041C164.513 500.062 178.884 488.616 183.116 485.114C191.109 478.499 193.226 476.786 186.029 465.94L186.658 465.23C189.571 464.827 191.765 462.509 194.741 462.258L196.104 462.66L196.368 462.123C198.319 458.084 222.722 439.556 227.3 436.15C253.593 416.591 283.188 402.018 309.71 382.876C341.813 359.706 371.414 333.016 401.463 307.288C405.469 303.858 409.648 299.672 414.126 296.94C416.002 297.584 417.485 298.331 419.108 299.448C429.722 291.831 425.646 285.877 442.308 286.591C442.041 283.435 441.22 280.247 440.822 277.086C444.815 273.421 451.569 269.858 456.797 265.308C457.973 266.224 459.354 266.891 460.658 267.61Z"/>
	<path fill="#3D405B" transform="scale(1.6602 1.6602)" d="M414.126 296.94C416.002 297.584 417.485 298.331 419.108 299.448C419.61 301.196 420.113 302.608 419.097 304.292C413.204 314.066 324.217 383.829 308.457 394.823C279.785 414.822 228.091 440.141 206.464 465.808C203.129 465.185 199.008 464.545 196.104 462.66L196.368 462.123C198.319 458.084 222.722 439.556 227.3 436.15C253.593 416.591 283.188 402.018 309.71 382.876C341.813 359.706 371.414 333.016 401.463 307.288C405.469 303.858 409.648 299.672 414.126 296.94Z"/>
	<path fill="#3D405B" transform="scale(1.6602 1.6602)" d="M427.099 492.67C412.463 489.791 402.829 488.815 390.05 478.635C359.699 454.461 359.544 407.339 383.14 378.454C403.939 352.993 455.21 352.248 479.469 372.395C498.47 388.175 502.558 404.501 504.573 427.237C498.839 469.273 469.758 495.38 427.099 492.67Z"/>
	<path fill="white" transform="scale(1.6602 1.6602)" d="M393.303 380.54C396.274 382.396 399.687 392.373 400.703 395.652C396.572 396.261 393.651 396.501 391.673 400.681C392.013 401.885 392.436 403.054 392.859 404.231C396.429 406.242 399.631 406.373 403.611 406.394C404.069 410.195 404.661 414.023 404.718 417.854C386.824 417.107 392.106 426.458 405.98 429.201C405.945 433.509 405.44 437.818 404.828 442.078C399.34 440.498 394.946 439.592 392.674 445.678C393.135 446.858 393.639 448.025 394.123 449.196C396.022 450.219 399.762 450.851 400.856 452.473L400.53 454.053C399.484 460.409 396.344 464.736 392.473 469.713C367.809 447.302 369.476 402.83 393.303 380.54Z"/>
	<defs>
		<linearGradient id="gradient_0" gradientUnits="userSpaceOnUse" x1="494.24869" y1="421.09042" x2="462.21793" y2="424.56674">
			<stop offset="0" stop-color="#FFBDEC"/>
			<stop offset="1" stop-color="#FCF0F2"/>
		</linearGradient>
	</defs>
	<path fill="url(#gradient_0)" transform="scale(1.6602 1.6602)" d="M473.239 378.656C503.006 402.11 500.731 443.431 474.195 468.81C469.902 463.377 468.068 458.051 466.163 451.487L470.13 450.216C474.094 448.754 485.05 443.26 475.595 439.693C471.679 438.216 467.25 440.951 463.818 442.634C463.051 438.113 463.268 433.265 463.261 428.691C470.569 427.37 476.248 427.316 474.762 418.5C470.685 418.294 466.639 418.74 462.587 419.13C462.74 414.102 463.08 409.296 463.968 404.333C467.643 404.774 482.737 407.985 477.014 397.701C475.588 395.139 468.714 394.946 465.995 394.031C466.951 388.148 469.588 383.281 473.239 378.656Z"/>
	<path fill="#F4F1DE" transform="scale(1.6602 1.6602)" d="M400.055 375.165C416.228 364.835 447.496 363.988 463.111 374.004C461.612 380.811 458.149 387.379 456.104 394.096C444.783 390.242 448.838 401.985 454.519 400.893C453.68 406.089 454.655 415.467 452.555 419.649C443.319 422.955 448.33 426.046 452.205 429.294C454.216 430.98 454.696 441.886 454.939 444.89C442.645 444.145 445.055 455.415 456.935 453.643C458.036 461.982 461.588 468.013 465.972 474.973C445.421 488.43 420.04 485.794 399.045 474.468C405.651 468.614 407.81 461.061 409.842 452.76C417.383 455.83 422.762 450.529 418.148 443.033C416.215 442.941 414.272 443.044 412.339 443.097C413.412 438.535 413.422 432.19 415.838 428.16C417.24 425.823 421.345 426.06 422.352 423.9C419.566 417.407 413.164 430.691 412.274 401.217C424.189 398.35 417.459 386.434 410.616 394.254C407.067 388.568 403.608 381.24 400.055 375.165Z"/>
	<path fill="#F4F1DE" transform="scale(1.6602 1.6602)" d="M142.785 463.237C140.093 462.144 138.158 460.768 136.134 458.686C109.917 431.721 95.6218 385.427 91.5489 348.753C77.2144 219.679 174.782 102.362 303.898 91.8204C342.638 88.6574 389.58 94.2845 422.941 114.99C428.34 118.341 433.297 119.424 433.292 125.062C472.522 122.717 509.105 152.54 511.22 192.339C511.467 196.971 511.462 201.596 511.101 206.222C507.145 228.886 506.3 222.733 492.077 237.153C482.549 246.813 468.653 257.949 460.658 267.61C459.354 266.891 457.973 266.224 456.797 265.308C451.569 269.858 444.815 273.421 440.822 277.086C441.22 280.247 442.041 283.435 442.308 286.591C425.646 285.877 429.722 291.831 419.108 299.448C417.485 298.331 416.002 297.584 414.126 296.94C409.648 299.672 405.469 303.858 401.463 307.288C371.414 333.016 341.813 359.706 309.71 382.876C283.188 402.018 253.593 416.591 227.3 436.15C222.722 439.556 198.319 458.084 196.368 462.123L196.104 462.66L194.741 462.258C191.765 462.509 189.571 464.827 186.658 465.23L186.029 465.94C193.226 476.786 191.109 478.499 183.116 485.114C178.884 488.616 164.513 500.062 161.502 504.041C151.037 512.54 141.102 521.629 130.628 530.116C134.835 534.859 141.484 540.766 142.135 547.343C142.938 555.46 135.482 563.572 127.427 563.907C117.656 564.313 104.782 547.392 98.3777 541.004C92.4794 535.121 81.6519 525.437 77.1897 518.84C69.0059 506.742 86.0461 483.897 104.646 504.629C113.082 493.357 132.513 474.052 142.785 463.237Z"/>
	<path fill="#3D405B" transform="scale(1.6602 1.6602)" d="M299.437 254.873C307.045 260.015 295.904 269.931 292.399 274.346L280.4 289.735C268.205 305.485 256.387 321.675 245.272 338.209C231.463 358.752 221.009 381.322 206.814 401.622C199.55 412.01 192.049 422.252 184.04 432.081C181.421 435.296 175.834 440.367 173.937 443.241L174.088 443.842C173.683 444.332 173.386 444.597 172.824 444.895L172.824 445.188C175.814 447.866 191.772 461.697 194.741 462.258C191.765 462.509 189.571 464.827 186.658 465.23L186.029 465.94C193.226 476.786 191.109 478.499 183.116 485.114C178.884 488.616 164.513 500.062 161.502 504.041C151.037 512.54 141.102 521.629 130.628 530.116C134.835 534.859 141.484 540.766 142.135 547.343C142.938 555.46 135.482 563.572 127.427 563.907C117.656 564.313 104.782 547.392 98.3777 541.004C92.4794 535.121 81.6519 525.437 77.1897 518.84C69.0059 506.742 86.0461 483.897 104.646 504.629C113.082 493.357 132.513 474.052 142.785 463.237C161.923 442.068 181.043 422.737 197.369 399.063C209.459 381.531 219.319 362.75 230.309 344.549C236.909 333.62 289.319 256.55 299.437 254.873Z"/>
	<defs>
		<linearGradient id="gradient_1" gradientUnits="userSpaceOnUse" x1="182.76335" y1="448.57529" x2="178.68301" y2="461.80115">
			<stop offset="0" stop-color="#EF8D6A"/>
			<stop offset="1" stop-color="#F6CCA9"/>
		</linearGradient>
	</defs>
	<path fill="url(#gradient_1)" transform="scale(1.6602 1.6602)" d="M173.937 443.241L174.088 443.842C173.683 444.332 173.386 444.597 172.824 444.895L172.824 445.188C175.814 447.866 191.772 461.697 194.741 462.258C191.765 462.509 189.571 464.827 186.658 465.23L186.029 465.94C180.661 459.415 175.149 453.225 168.129 448.418L173.937 443.241Z"/>
	<path fill="#F9E84E" transform="scale(1.6602 1.6602)" d="M163.494 454.692C168.722 461.118 174.514 466.901 179.437 473.601C177.904 475.793 174.581 483.315 171.474 480.719C165.617 475.379 160.336 470.003 153.602 465.697C157.133 462.335 160.237 458.333 163.494 454.692Z"/>
	<path fill="#F9E84E" transform="scale(1.6602 1.6602)" d="M148.057 472.102C153.68 477.345 159.593 482.19 164.82 487.854C153.293 499.531 140.043 510.338 127.315 520.656C126.169 521.491 125.208 522.491 124.208 523.49C121.124 519.245 116.367 514.936 112.317 511.593C124.753 498.985 135.728 484.879 148.057 472.102Z"/>
	<path fill="#BC6C25" transform="scale(1.6602 1.6602)" d="M433.292 125.062C472.522 122.717 509.105 152.54 511.22 192.339C511.467 196.971 511.462 201.596 511.101 206.222C507.145 228.886 506.3 222.733 492.077 237.153C482.549 246.813 468.653 257.949 460.658 267.61C459.354 266.891 457.973 266.224 456.797 265.308C451.569 269.858 444.815 273.421 440.822 277.086C441.22 280.247 442.041 283.435 442.308 286.591C425.646 285.877 429.722 291.831 419.108 299.448C417.485 298.331 416.002 297.584 414.126 296.94C409.648 299.672 405.469 303.858 401.463 307.288C371.414 333.016 341.813 359.706 309.71 382.876C283.188 402.018 253.593 416.591 227.3 436.15C222.722 439.556 198.319 458.084 196.368 462.123L196.104 462.66L194.741 462.258C191.772 461.697 175.814 447.866 172.824 445.188L172.824 444.895C173.386 444.597 173.683 444.332 174.088 443.842L173.937 443.241C175.834 440.367 181.421 435.296 184.04 432.081C192.049 422.252 199.55 412.01 206.814 401.622C221.009 381.322 231.463 358.752 245.272 338.209C256.387 321.675 268.205 305.485 280.4 289.735L292.399 274.346C295.904 269.931 307.045 260.015 299.437 254.873C303.98 251.814 322.1 227.331 327.086 221.277C330.043 217.686 333.461 214.495 336.404 210.959C334.261 204.269 359.715 180.537 365.093 174.652C385.775 152.024 400.82 129.004 433.292 125.062Z"/>
	<path fill="#3D405B" transform="scale(1.6602 1.6602)" d="M433.292 125.062C472.522 122.717 509.105 152.54 511.22 192.339C511.467 196.971 511.462 201.596 511.101 206.222C507.145 228.886 506.3 222.733 492.077 237.153C482.549 246.813 468.653 257.949 460.658 267.61C459.354 266.891 457.973 266.224 456.797 265.308L456.694 264.769C455.357 257.406 459.559 255.476 464.478 250.719C487.381 228.573 508.236 220.628 501.421 184.73C493.73 144.216 442.564 118.761 407.677 144.144C394.008 154.089 364.577 187.801 353.012 201.708C348.296 207.379 344.724 217.051 336.404 210.959C334.261 204.269 359.715 180.537 365.093 174.652C385.775 152.024 400.82 129.004 433.292 125.062Z"/>
</svg>
