<?xml version="1.0" encoding="utf-8" ?>
<svg xmlns="http://www.w3.org/2000/svg" xmlns:xlink="http://www.w3.org/1999/xlink" width="1024" height="1024">
	<path fill="#F4F1DE" transform="scale(1.6 1.6)" d="M143.485 478.738C138.661 476.503 135.322 471.795 132.085 467.754C74.8954 396.386 64.6376 293.255 107.135 212.017C143.271 142.938 212.067 92.239 289.882 82.6693C336.814 76.8975 387.165 85.2323 428.933 107.263C518.885 154.71 564.961 241.403 558.373 341.217C554.25 403.691 520.754 464.725 472.178 504.032C445.004 526.021 421.655 539.532 387.322 550.068C330.224 567.591 264.342 561.254 211.673 533.16C196.359 524.991 161.525 504.066 154.329 488.65C150.012 486.189 146.393 482.742 143.485 478.738Z"/>
	<path fill="white" transform="scale(1.6 1.6)" d="M487.673 341.537C489.576 339.278 495.468 341.989 497.408 343.106C497.583 345.522 498.355 359.422 496.557 360.288C494.755 358.951 491.868 358.927 489.715 358.682C489.474 355.246 489.357 343.943 487.673 341.537Z"/>
	<path fill="#3D405B" transform="scale(1.6 1.6)" d="M241.225 386.013C250.45 384.817 248.616 397.502 248.817 404.585C250.105 449.843 233.871 425.608 216.566 406.374C216.434 413.248 217.254 420.877 216.12 427.626C215.598 428.412 214.962 429.106 214.346 429.819C203.09 433.612 206.093 412.27 206.113 406.481C206.132 401.234 208.061 394.31 214.551 394.659C224.269 395.181 232.743 409.444 238.97 415.929L239.151 416.113C238.438 408.379 234.517 390.215 241.225 386.013Z"/>
	<path fill="#3D405B" transform="scale(1.6 1.6)" d="M164.398 331.023C168.646 330.523 194.958 329.849 197.608 330.843C200.058 331.763 201.229 334.457 202.199 336.684C201.023 338.648 199.572 339.792 197.786 341.164C188.376 341.37 178.954 340.347 169.536 341.285C150.416 359.531 154.936 431.622 151.905 434.943C150.573 436.402 147.767 436.462 145.938 435.988C142.298 431.837 143.423 425.992 143.424 420.876C143.429 401.691 147.493 342.035 164.398 331.023Z"/>
	<path fill="#3D405B" transform="scale(1.6 1.6)" d="M489.715 358.682C491.868 358.927 494.755 358.951 496.557 360.288C496.464 363.218 497.595 365.953 498.081 368.803C502.011 391.838 503.048 464.284 485.755 482.53C478.058 490.652 438.275 492.79 424.72 491.128C422.635 489.229 421.767 487.077 421.929 484.284C422.843 483.356 423.656 482.307 424.493 481.308C434.022 480.838 470.009 480.495 476.635 476.475C491.497 467.459 490.844 400.055 490.157 384.687C489.845 377.712 488.215 365.522 489.625 359.076L489.715 358.682Z"/>
	<path fill="#3D405B" transform="scale(1.6 1.6)" d="M301.119 396.495C303.85 396.006 305.805 398.533 307.157 400.533C307.921 425.417 307.748 444.189 299.736 467.964C294.092 484.716 291.333 485.41 273.795 487.852C248.092 491.43 225.39 489.705 200.239 490.899C198.019 490.686 196.059 490.231 195.271 487.845C191.792 477.303 204.567 480.057 210.723 480.069C232.488 480.114 263.148 480.758 284.465 475.827C294.352 465.067 297.215 432.005 297.285 418.427C297.327 410.097 293.918 400.981 301.119 396.495Z"/>
	<path fill="#D6CBA9" transform="scale(1.6 1.6)" d="M169.536 341.285C178.954 340.347 188.376 341.37 197.786 341.164C189.594 359.306 188.177 383.205 188.168 403.138L188.213 437.145C188.228 449.692 191.027 472.032 176.041 477.583C162.722 482.516 171.781 479.802 166.702 486.784L165.916 486.863C163.382 488.128 161.031 489.243 158.251 489.87L154.329 488.65C150.012 486.189 146.393 482.742 143.485 478.738C143.869 474.602 146.534 472.393 150.49 471.358C147.74 459.804 146.068 447.873 145.938 435.988C147.767 436.462 150.573 436.402 151.905 434.943C154.936 431.622 150.416 359.531 169.536 341.285Z"/>
	<path fill="#3D405B" transform="scale(1.6 1.6)" d="M150.49 471.358C155.821 472.238 169.595 473.681 167.95 481.896C167.578 483.754 166.413 485.155 165.916 486.863C163.382 488.128 161.031 489.243 158.251 489.87L154.329 488.65C150.012 486.189 146.393 482.742 143.485 478.738C143.869 474.602 146.534 472.393 150.49 471.358Z"/>
	<path fill="#3D405B" transform="scale(1.6 1.6)" d="M241.962 169.765C251.574 169.519 261.226 169.689 270.842 169.688L353.236 169.679C360.6 169.681 368.016 169.482 375.362 170.09C376.884 171.122 377.802 172.182 378.71 173.785C375.585 184.041 352.236 179.857 342.431 179.855L280.001 179.861C268.663 179.859 257.111 179.377 245.808 180.06C241.107 187.088 239.018 196.163 237.312 204.365C228.99 244.366 229.64 292.704 247.782 330.293C259.844 330.862 272.036 330.518 284.113 330.52L369.887 330.503C374.907 330.501 379.995 330.362 384.998 330.825L385.323 330.835C388.467 330.906 391.633 330.573 394.785 330.546L419.314 330.503C422.903 330.504 427.14 330.074 430.65 330.668C433.66 331.177 431.931 335.303 435.2 335.363C439.424 335.44 443.518 332.243 447.639 331.4C453.59 330.181 477.583 329.844 483.609 331.119C487.903 332.028 491.852 338.872 486.317 340.474C481.752 340.373 477.077 340.89 472.481 340.909L431.711 340.909C401.859 340.998 371.986 340.637 342.137 340.955C354.831 386.134 330.106 430.12 355.858 479.82C365.486 480.741 376.824 480.088 386.629 480.062C394.167 480.042 399.54 477.538 401.31 486.73C401.25 488.337 401.401 490.056 399.554 490.455C394.924 491.455 361.125 491.006 355.514 490.446C333.866 488.286 333.115 416.551 333.68 401.543C334.703 374.379 337.481 368.486 332.54 340.942C326.23 340.34 319.807 341.045 313.436 340.559C311.006 347.983 309.154 355.645 307.657 363.305C307.081 366.257 305.691 382.419 300.814 381.526C290.804 379.693 301.022 346.696 302.733 340.484C277.04 339.831 251.283 341.182 225.617 340.325C221.868 340.2 220.036 339.707 217.411 336.889C221.616 329.654 228.251 330.753 235.747 330.707C221.358 288.189 217.368 245.759 227.481 201.273C229.688 191.564 233.191 175.299 241.962 169.765Z"/>
	<path fill="#E07A5F" transform="scale(1.6 1.6)" d="M342.137 340.955C371.986 340.637 401.859 340.998 431.711 340.909L472.481 340.909C477.077 340.89 481.752 340.373 486.317 340.474C486.712 340.824 487.176 341.369 487.673 341.537C489.357 343.943 489.474 355.246 489.715 358.682L489.625 359.076C488.215 365.522 489.845 377.712 490.157 384.687C490.844 400.055 491.497 467.459 476.635 476.475C470.009 480.495 434.022 480.838 424.493 481.308C423.656 482.307 422.843 483.356 421.929 484.284C419.547 483.46 403.961 485.729 401.31 486.73C399.54 477.538 394.167 480.042 386.629 480.062C376.824 480.088 365.486 480.741 355.858 479.82C330.106 430.12 354.831 386.134 342.137 340.955Z"/>
	<path fill="#3D405B" transform="scale(1.6 1.6)" d="M402.085 387.229C410.213 386.572 440.905 405.135 434.166 418.224C430.345 425.645 415.042 433.658 407.497 436.131C401.972 437.383 399.391 431.106 402.283 428.239C407.571 422.993 418.403 419.659 425.359 412.99C418.774 404.457 388.595 395.74 402.085 387.229Z"/>
	<path fill="#E07A5F" transform="scale(1.6 1.6)" d="M378.71 173.785C384.905 172.448 390.392 171.91 396.165 170.715C396.633 181.495 399.907 193.009 398.807 203.756C403.273 206.139 402.258 215.014 402.565 219.502C403.516 233.432 404.162 290.686 395.866 301.973C393.074 306.199 386.722 325.045 384.998 330.825C379.995 330.362 374.907 330.501 369.887 330.503L284.113 330.52C272.036 330.518 259.844 330.862 247.782 330.293C229.64 292.704 228.99 244.366 237.312 204.365C239.018 196.163 241.107 187.088 245.808 180.06C257.111 179.377 268.663 179.859 280.001 179.861L342.431 179.855C352.236 179.857 375.585 184.041 378.71 173.785Z"/>
	<path fill="#3D405B" transform="scale(1.6 1.6)" d="M395.866 301.973C384.47 298.877 389.802 290.493 391.066 279.486C392.893 263.579 393.984 248.785 393.653 232.733C393.496 225.157 387.998 203.153 398.807 203.756C403.273 206.139 402.258 215.014 402.565 219.502C403.516 233.432 404.162 290.686 395.866 301.973Z"/>
	<path fill="#3D405B" transform="scale(1.6 1.6)" d="M297.7 225.343C307.457 224.745 328.515 237.952 333.295 245.41C341.144 257.658 328.8 265.383 319.51 271.209C311.033 276.432 295.907 285.694 290.39 271.841C287.542 264.691 285.578 229.292 297.7 225.343Z"/>
	<path fill="#E07A5F" transform="scale(1.6 1.6)" d="M301.543 236.116C310.237 240.124 319.23 245.538 325.417 252.961C322.688 256.362 318.961 258.769 315.418 261.234C310.57 264.424 305.727 267.527 300.352 269.765C299.379 263.327 298.11 241.5 301.543 236.116Z"/>
</svg>
