<?xml version="1.0" encoding="utf-8" ?>
<svg xmlns="http://www.w3.org/2000/svg" xmlns:xlink="http://www.w3.org/1999/xlink" width="1024" height="1023">
	<path fill="#3D405B" transform="scale(1.6 1.6)" d="M508.753 373.753C518.27 373.414 517.993 390.386 508.62 389.794C504.643 384.725 506.238 379.283 508.753 373.753Z"/>
	<path fill="#3D405B" transform="scale(1.6 1.6)" d="M508.547 421.076C517.346 421.984 514.405 432.448 514.389 440.143L514.372 490.389C514.359 510.77 514.43 527.363 495.304 540.616C482.479 549.504 467.668 547.849 452.892 547.845L189.415 547.846C171.688 547.841 159.881 546.585 148.812 529.944C145.192 524.502 137.337 509.891 149.58 510.251C161.158 541.804 168.788 540.132 200.059 540.138L455.218 540.138C461.676 540.137 468.184 540.309 474.634 540.054C488.271 540.001 501.434 528.05 505.03 515.263C507.527 506.386 506.504 494.585 506.504 485.262L506.49 447.914C506.487 443.086 504.87 424.435 508.547 421.076Z"/>
	<path fill="#F4F1DE" transform="scale(1.6 1.6)" d="M141.584 134.909C141.53 130.389 141.173 125.672 141.704 121.181C145.139 92.0919 174.985 91.7224 196.588 91.7288L456.947 91.7325C481.641 91.7157 507.531 94.4157 513.506 125.119C514.949 132.532 514.373 140.816 514.375 148.372L514.372 182.445C514.372 189.041 515.171 200.9 514.297 207C513.314 207.721 512.418 208.337 511.303 208.834C510.352 213.039 511.561 218.439 511.592 222.794C513.762 223.141 514.659 224.301 514.653 226.525L514.375 324.05C514.37 330.039 514.498 336.119 514.002 342.09C512.791 342.891 511.732 343.529 510.348 344.008L508.578 344.232C508.156 346.935 507.855 371.272 508.753 373.753C506.238 379.283 504.643 384.725 508.62 389.794C507.717 399.284 509.838 413.369 508.547 421.076C504.87 424.435 506.487 443.086 506.49 447.914L506.504 485.262C506.504 494.585 507.527 506.386 505.03 515.263C501.434 528.05 488.271 540.001 474.634 540.054C468.184 540.309 461.676 540.137 455.218 540.138L200.059 540.138C168.788 540.132 161.158 541.804 149.58 510.251C148.51 500.549 147.958 489.598 149.928 480.005L151.466 478.4L151.451 477.998C150.372 477.896 149.325 477.742 148.259 477.552C141.57 477.251 134.245 476.978 128.695 472.745C112.253 460.205 123.047 438.264 144.742 435.785C144.869 418.101 145.044 393.593 143.711 376.131C126.311 373.868 112.213 360.103 124.275 343.5C129.029 336.955 135.802 335.106 143.446 333.901C143.322 324.159 141.95 305.734 143.493 296.529C144.223 292.17 147.501 293.167 150.937 293.947C152.345 291.449 156.795 280.636 156.001 278.2C148.531 276.271 152.329 271.808 142.423 277.488C114.03 276.109 110.458 240.038 142.819 235.097C141.686 217.668 144.912 193.756 138.59 178.059C113.183 170.161 113.561 138.323 141.584 134.909Z"/>
	<path fill="#B4BDD6" transform="scale(1.6 1.6)" d="M372.362 461.179L389.667 461.031C392.206 461.031 401.782 459.917 401.011 464.481C399.716 472.156 379.136 468.105 372.482 468.692C372.574 466.196 372.434 463.677 372.362 461.179Z"/>
	<path fill="#3D405B" transform="scale(1.6 1.6)" d="M320.322 179.617C299.759 159.249 323.178 144.302 327.37 153.32C329.453 157.801 324.032 162.702 322.688 166.854C326.209 178.204 337.773 170.036 342.643 176.712C340.758 188.855 327.444 185.835 320.322 179.617Z"/>
	<path fill="#6887BC" transform="scale(1.6 1.6)" d="M263.994 464.441C266.626 458.551 276.624 461.007 282.916 461.03L313.496 461.052C333.066 461.037 352.81 460.544 372.362 461.179C372.434 463.677 372.574 466.196 372.482 468.692C363.31 469.171 267.936 469.253 266.243 468.374C265.006 467.732 264.457 465.661 263.994 464.441Z"/>
	<path fill="#3D405B" transform="scale(1.6 1.6)" d="M511.592 222.794C513.762 223.141 514.659 224.301 514.653 226.525L514.375 324.05C514.37 330.039 514.498 336.119 514.002 342.09C512.791 342.891 511.732 343.529 510.348 344.008C503.749 343.256 506.481 332.448 506.503 326.605L506.478 252.893C506.475 244.793 506.282 236.637 506.526 228.543C506.662 224.067 507 222.897 511.592 222.794Z"/>
	<path fill="#3D405B" transform="scale(1.6 1.6)" d="M241.79 410.079C250.325 409.754 259.026 410.093 267.577 410.094L397.26 410.113C407.12 410.113 417.056 409.783 426.897 409.934C433.46 410.034 435.765 416.771 429.012 418.011L259.955 418.01C255.068 418.008 245.338 418.611 241.071 417.408C236.054 415.994 238.033 411.425 241.79 410.079Z"/>
	<path fill="#3D405B" transform="scale(1.6 1.6)" d="M374.635 185.977C377.597 180.566 399.86 201.307 403.532 205.591C413.435 217.147 423.291 234.393 424.107 249.906C443.825 254.328 449.697 287.86 424.3 295.64C413.407 343.915 366.62 375.573 317.739 364.526C279.885 355.971 257.179 330.872 247.52 294.748C230.107 292.058 225.794 256.496 249.684 250.625C252.974 225.93 274.528 192.708 299.462 185.237L302.483 186.691C302.556 191.436 302.857 191.562 298.314 193.364C283.037 199.424 265.084 223.455 260.237 238.431C259.337 241.213 256.471 255.021 255.382 256.465C251.611 261.461 240.4 257.639 240.714 272.664C241.043 288.391 250.84 285.315 253.549 290.091C255.678 293.845 256.052 298.978 257.381 303.1C268.231 336.774 303.842 360.071 338.755 359.004C371.646 357.998 406.017 334.832 415.476 302.562C416.566 298.844 416.97 292.787 419.424 289.781C423.54 284.737 434.528 289.642 433.404 272.82C432.374 257.408 422.287 261.2 418.488 255.141C416.883 252.581 416.969 247.961 416.39 244.979C413.075 227.911 400.197 209.741 386.604 199.505C382.411 196.348 377.478 194.166 373.627 190.558L374.635 185.977Z"/>
	<path fill="#3D405B" transform="scale(1.6 1.6)" d="M143.446 333.901C143.322 324.159 141.95 305.734 143.493 296.529C144.223 292.17 147.501 293.167 150.937 293.947C150.341 305.646 150.695 321.851 151.254 333.448C160.247 333.392 169.345 332.298 176.309 339.179C184.478 347.252 183.231 360.11 175.278 367.889C168.728 374.297 159.947 375.712 151.173 376.162C151.689 395.195 151.5 416.33 152.758 435.064C161.696 435.304 170.752 434.781 177.446 441.768C185.514 450.191 182.42 462.55 174.418 469.806C166.693 476.812 158.206 477.515 148.259 477.552C141.57 477.251 134.245 476.978 128.695 472.745C112.253 460.205 123.047 438.264 144.742 435.785C144.869 418.101 145.044 393.593 143.711 376.131C126.311 373.868 112.213 360.103 124.275 343.5C129.029 336.955 135.802 335.106 143.446 333.901Z"/>
	<path fill="#5562DB" transform="scale(1.6 1.6)" d="M152.733 444.519C158.266 444.206 166.48 443.871 170.925 447.548C183.695 458.107 163.507 469.555 150.586 469.939C144.752 469.788 136.76 469.83 132.063 465.804C127.021 461.483 127.417 453.832 131.913 449.289C136.978 444.171 146.101 444.697 152.733 444.519Z"/>
	<path fill="#5562DB" transform="scale(1.6 1.6)" d="M150.559 340.133C156.679 339.816 164.878 339.495 170.028 343.424C175.984 347.97 175.498 355.89 170.968 361.305C166.279 366.91 159.276 367.68 152.508 368.398C146.355 368.493 138.226 368.952 133.122 364.959C127.282 360.389 126.654 352.36 131.445 346.782C135.993 341.485 144.047 340.543 150.559 340.133Z"/>
	<path fill="#3D405B" transform="scale(1.6 1.6)" d="M141.584 134.909C141.53 130.389 141.173 125.672 141.704 121.181C145.139 92.0919 174.985 91.7224 196.588 91.7288L456.947 91.7325C481.641 91.7157 507.531 94.4157 513.506 125.119C514.949 132.532 514.373 140.816 514.375 148.372L514.372 182.445C514.372 189.041 515.171 200.9 514.297 207C513.314 207.721 512.418 208.337 511.303 208.834L507.459 209.242C506.042 200.69 506.489 191.574 506.488 182.92L506.506 147.159C506.515 127.496 505.884 106.281 481.015 101.005C474.676 99.3995 467.764 99.9452 461.26 99.9522L198.694 99.9676C170.143 99.9715 146.912 98.8797 149.131 133.88C158.554 133.701 169.182 133.241 176.533 140.313C189.309 152.604 177.186 175.051 160.36 175.051C154.796 175.051 149.62 174.453 144.021 175.062C144.023 179.549 144.3 183.893 144.895 188.346L149.609 188.905C151.459 204.057 149.931 219.754 150.907 235.032C159.873 234.659 167.913 233.5 175.069 240.109C188.391 252.414 175.824 274.196 159.983 277.53C158.701 277.8 157.226 277.795 156.001 278.2C148.531 276.271 152.329 271.808 142.423 277.488C114.03 276.109 110.458 240.038 142.819 235.097C141.686 217.668 144.912 193.756 138.59 178.059C113.183 170.161 113.561 138.323 141.584 134.909Z"/>
	<path fill="#5562DB" transform="scale(1.6 1.6)" d="M150.216 142.327C156.899 142.099 164.678 141.605 170.107 146.266C182.594 156.985 164.895 168.378 151.628 168.803C145.177 169.127 137.997 169.821 132.715 165.325C127.533 160.915 125.665 153.257 130.611 147.954C135.383 142.837 143.714 142.616 150.216 142.327Z"/>
	<path fill="#5562DB" transform="scale(1.6 1.6)" d="M149.185 242.008C155.473 241.395 164.29 241.156 169.202 245.793C180.114 256.095 165.661 270.121 151.002 270.369C137.945 270.431 117.926 261.519 130.23 248.232C135.321 242.735 142.222 242.378 149.185 242.008Z"/>
	<path fill="#BC6C25" transform="scale(1.6 1.6)" d="M342.643 176.712C350.071 178.258 357.703 179.975 364.898 182.403C367.112 183.15 372.733 186.376 374.635 185.977L373.627 190.558C377.478 194.166 382.411 196.348 386.604 199.505C400.197 209.741 413.075 227.911 416.39 244.979C416.969 247.961 416.883 252.581 418.488 255.141C422.287 261.2 432.374 257.408 433.404 272.82C434.528 289.642 423.54 284.737 419.424 289.781C416.97 292.787 416.566 298.844 415.476 302.562C406.017 334.832 371.646 357.998 338.755 359.004C303.842 360.071 268.231 336.774 257.381 303.1C256.052 298.978 255.678 293.845 253.549 290.091C250.84 285.315 241.043 288.391 240.714 272.664C240.4 257.639 251.611 261.461 255.382 256.465C256.471 255.021 259.337 241.213 260.237 238.431C265.084 223.455 283.037 199.424 298.314 193.364C302.857 191.562 302.556 191.436 302.483 186.691C308.382 185.913 315.264 182.689 320.322 179.617C327.444 185.835 340.758 188.855 342.643 176.712Z"/>
	<path fill="#3D405B" transform="scale(1.6 1.6)" d="M295.636 252.578C305.676 251.962 321.276 262.865 308.082 268.59C305.504 263.901 303.901 262.589 298.302 261.813C289.716 263.014 292.104 265.409 287.116 269.594C284.287 270.1 282.521 266.985 281.637 264.704C283.498 257.91 288.861 254.104 295.636 252.578Z"/>
	<path fill="#3D405B" transform="scale(1.6 1.6)" d="M374.649 252.324C381.783 252.405 391.976 257.104 390.421 265.716C388.851 274.411 380.169 262.675 376.857 261.48C370.754 261.016 367.789 263.785 363.733 267.972C351.62 262.698 365.438 252.863 374.649 252.324Z"/>
	<path fill="#3D405B" transform="scale(1.6 1.6)" d="M315.778 314.028C320.934 313.971 328.587 327.114 346.818 320.533C350.337 319.263 353.699 314.553 357.338 314.501C360.354 314.459 365.057 319.212 359.367 323.396C336.884 338.04 298.526 321.99 315.778 314.028Z"/>
</svg>
