<?xml version="1.0" encoding="utf-8" ?>
<svg xmlns="http://www.w3.org/2000/svg" xmlns:xlink="http://www.w3.org/1999/xlink" width="1024" height="1024">
	<path fill="#F4F1DE" transform="scale(1.6 1.6)" d="M312.599 84.2379C412.685 80.1359 506.795 142.973 541.429 236.722C573.334 323.082 552.013 421.252 487.844 486.71C448.514 526.83 385.003 555.961 328.203 556.557C279.675 557.225 231.87 545.435 191.104 518.303C120.714 471.457 79.3005 391.51 84.4525 306.359C89.5905 221.438 141.363 144.272 217.664 107.211C247.539 92.7004 279.652 85.8646 312.599 84.2379Z"/>
	<path fill="#3D405B" transform="scale(1.6 1.6)" d="M188.684 411.066C201.299 420.734 176.536 448.941 216.705 448.742L265.921 448.706C273.168 448.703 282.718 448.157 289.616 448.828C292.499 449.108 292.452 451.426 292.822 453.842C292.63 458.815 287.014 456.921 283.381 456.88L225.751 456.828C209.979 456.831 187.145 459.64 184.159 437.358C183.353 431.347 180.579 411.837 188.684 411.066Z"/>
	<path fill="#3D405B" transform="scale(1.6 1.6)" d="M219.202 198.688C222.215 186.227 227.547 180.035 240.756 179.779C245.068 179.695 246.045 176.617 249.001 173.832C263.013 160.633 286.833 165.702 299.456 178.908C309.055 182.296 322.773 180.275 324.824 198.069L324.85 198.317C363.134 200.48 357 227.488 357.005 254.885L357.004 423.901C357.003 453.409 353.046 456.162 324.961 456.758C320.831 456.846 311.746 459.513 310.065 454.123C310.486 452.349 310.812 450.582 311.104 448.783C316.998 448.66 322.899 448.75 328.794 448.782C353.271 448.918 347.988 437.652 347.958 417.904L347.966 276.185C347.967 259.392 348.554 242.201 347.796 225.474C347.18 211.864 338.581 209.348 325.911 207.272C331.114 230.5 298.722 237.174 298.359 214.919C280.613 215.196 262.995 214.214 245.26 215.699C245.372 217.673 245.367 219.579 245.255 221.553C237.017 233.284 224.669 227.228 219.186 216.162C218.301 212.623 217.765 209.37 217.66 205.724C189.965 211.242 192.06 217.244 192.056 240.985L192.061 362.423C192.062 368.558 194.52 391.987 190 394.077L189.503 394.31C189.395 394.359 189.286 394.407 189.177 394.455C186.903 393.844 185.643 392.927 183.961 391.304C183.578 387.08 183.728 382.773 183.729 378.534L183.747 246.078C183.69 214.626 181.398 200.691 219.202 198.688Z"/>
	<path fill="#89E3F5" transform="scale(1.6 1.6)" d="M306.911 189.362C317.944 192.584 318.481 208.839 315.827 216.986C303.949 231.436 306.592 200.371 306.584 195.433L304.509 193.647C303.333 192.156 298.894 193.624 300.324 190.124C302.167 189.315 304.892 189.443 306.911 189.362Z"/>
	<path fill="#F4F1DE" transform="scale(1.6 1.6)" d="M231.662 219.75C228.091 218.538 225.826 217.331 225.347 213.173C224.014 201.603 226.735 187.535 240.611 187.163C248.051 187.664 243.214 193.442 240.625 195.993L240.325 196.091C233.02 198.189 235.401 213.178 235.683 218.905L231.662 219.75Z"/>
	<path fill="#4DDFF5" transform="scale(1.6 1.6)" d="M248.527 186.848C250.931 185.145 252.55 182.699 254.782 180.823C264.44 172.707 282.407 175.491 291.065 183.875C293.245 185.985 295.287 188.204 297.774 189.96C300.694 189.319 303.951 188.467 306.911 189.362C304.892 189.443 302.167 189.315 300.324 190.124C298.894 193.624 303.333 192.156 304.509 193.647C303.013 193.63 301.529 193.505 300.038 193.386C299.822 197.839 299.906 202.408 299.454 206.833C286.536 206.103 254.62 205.489 244.063 208.391C244.121 201.171 247.106 196.498 240.325 196.091L240.625 195.993C243.214 193.442 248.051 187.664 240.611 187.163C243.178 186.687 245.921 186.85 248.527 186.848Z"/>
	<path fill="#89E3F5" transform="scale(1.6 1.6)" d="M240.611 187.163C243.178 186.687 245.921 186.85 248.527 186.848C247.1 190.563 245.498 196.121 240.625 195.993C243.214 193.442 248.051 187.664 240.611 187.163Z"/>
	<path fill="#3D405B" transform="scale(1.6 1.6)" d="M399.638 180.757C408.445 180.231 420.342 186.518 423.007 195.545C424.698 201.272 423.736 213.353 423.567 219.528C449.601 225.609 444.73 253.414 444.72 273.789C444.718 277.486 445.919 290.83 443.958 293.538C443.011 294.06 439.647 294.472 438.925 293.26C437.588 291.017 438.363 261.28 438.372 256.405C438.398 242.7 438.653 230.274 422.974 226.194L423.76 385.664C423.76 394.804 423.516 404.012 424.047 413.136C423.89 436.39 420.511 439.359 410.791 460.147C409.124 463.712 403.702 481.063 397.275 476.953C395.82 476.022 393.06 468.85 392.124 466.93C378.563 439.102 375.227 438.378 375.256 407.839L375.264 232.124C375.261 212.496 370.482 182.87 399.638 180.757Z"/>
	<path fill="white" transform="scale(1.6 1.6)" d="M388.307 441.67C395.17 441.606 402.131 441.663 408.984 442.048C407.16 444.677 404.773 446.889 402.506 449.129L396.179 455.644C393.161 451.267 390.225 446.651 388.307 441.67Z"/>
	<path fill="#F4F1DE" transform="scale(1.6 1.6)" d="M393.028 191.846C393.711 194.183 394.054 216.377 393.229 217.928C389.779 217.839 386.313 217.884 382.861 217.868C382.742 207 383.423 198.774 393.028 191.846Z"/>
	<path fill="#E07A5F" transform="scale(1.6 1.6)" d="M393.028 191.846C399.184 187.263 408.309 189.233 412.656 195.315C416.801 201.114 415.269 211.593 414.998 218.454C408.127 218.392 399.985 218.763 393.229 217.928C394.054 216.377 393.711 194.183 393.028 191.846Z"/>
	<path fill="#F5B0C1" transform="scale(1.6 1.6)" d="M383.673 227.588C386.62 227.559 389.579 227.457 392.513 227.771C393.367 241.484 392.791 255.531 392.792 269.274L392.676 406.349C392.693 414.918 393.713 423.648 393.154 432.183C390.827 432.2 388.474 432.143 386.151 432.255C381.863 432.292 383.676 405.969 383.677 401.395L383.673 227.588Z"/>
	<path fill="#E07A5F" transform="scale(1.6 1.6)" d="M392.513 227.771L414.129 227.676C415.324 247.693 414.675 267.925 414.676 287.985L414.665 413.252C414.651 419.449 413.708 425.587 413.736 431.725C406.256 432.253 393.435 433.067 386.151 432.255C388.474 432.143 390.827 432.2 393.154 432.183C393.713 423.648 392.693 414.918 392.676 406.349L392.792 269.274C392.791 255.531 393.367 241.484 392.513 227.771Z"/>
	<path fill="#E07A5F" transform="scale(1.6 1.6)" d="M189.177 394.455C189.286 394.407 189.395 394.359 189.503 394.31L190 394.077C194.52 391.987 192.062 368.558 192.061 362.423L192.056 240.985C192.06 217.244 189.965 211.242 217.66 205.724C217.765 209.37 218.301 212.623 219.186 216.162C224.669 227.228 237.017 233.284 245.255 221.553C245.367 219.579 245.372 217.673 245.26 215.699C262.995 214.214 280.613 215.196 298.359 214.919C298.722 237.174 331.114 230.5 325.911 207.272C338.581 209.348 347.18 211.864 347.796 225.474C348.554 242.201 347.967 259.392 347.966 276.185L347.958 417.904C347.988 437.652 353.271 448.918 328.794 448.782C322.899 448.75 316.998 448.66 311.104 448.783C310.812 450.582 310.486 452.349 310.065 454.123L309.876 453.917C305.135 452.112 297.742 453.198 292.822 453.842C292.452 451.426 292.499 449.108 289.616 448.828C282.718 448.157 273.168 448.703 265.921 448.706L216.705 448.742C176.536 448.941 201.299 420.734 188.684 411.066C188.155 406.09 187.91 399.307 189.177 394.455Z"/>
	<path fill="#3D405B" transform="scale(1.6 1.6)" d="M245.528 252.945C249.571 252.497 262.704 253.713 268.196 253.714L302.943 253.695C306.608 253.687 319.555 252.186 322.176 254.87C326.882 259.687 319.372 261.884 314.855 261.596C296.166 261.461 277.487 261.527 258.81 261.935C254.614 262.027 227.868 264.587 239.279 253.974C241.386 253.426 243.36 253.137 245.528 252.945Z"/>
</svg>
