<?xml version="1.0" encoding="utf-8" ?>
<svg xmlns="http://www.w3.org/2000/svg" xmlns:xlink="http://www.w3.org/1999/xlink" width="1024" height="1024">
	<path fill="#F4F1DE" transform="scale(1.6 1.6)" d="M308.513 81.0694C362.698 79.0315 409.5 91.4552 454.57 122.025C517.514 164.719 555.137 230.977 559.177 307.547C566.209 440.817 463.737 552.565 332.178 559.421C327.455 559.958 322.583 559.692 317.838 559.687C176.323 559.563 67.1265 434.243 82.0117 294.357C90.1364 218.004 138.589 144.603 206.988 108.785C238.725 92.1659 272.851 82.8229 308.513 81.0694Z"/>
	<path fill="#3D405B" transform="scale(1.6 1.6)" d="M366.458 215.918C367.34 213.982 367.77 211.154 369.816 210.161C376.434 209.506 386.807 224.634 375.566 225.009C373.18 222.396 366.586 219.976 366.458 215.918Z"/>
	<path fill="#3D405B" transform="scale(1.6 1.6)" d="M381.675 239.916C398.371 235.517 394.756 268.316 393.92 277.881C393.287 285.109 392.636 292.955 383.404 290.348C386.523 280.115 384.564 249.625 381.675 239.916Z"/>
	<path fill="#3D405B" transform="scale(1.6 1.6)" d="M281.439 179.44C282.929 176.578 284.965 174.166 288.315 173.52C295.876 172.061 325.986 171.267 335.309 172.375C339.267 172.845 346.374 184.369 331.124 184.707C331.031 188.456 330.717 193.396 328.111 196.286C301.14 196.504 283.041 196.667 259.018 212.04C237.734 225.661 222.84 252.774 234.378 277.242C233.497 279.181 232.685 281.226 231.018 282.631C229.949 282.939 228.941 283.219 227.834 283.34C216.212 277.047 220.529 252.123 223.555 242.066C229.803 221.295 246.878 205.615 266.613 197.544C273.137 194.876 280.333 193.542 286.525 190.192C285.185 186.412 282.885 183.16 281.439 179.44Z"/>
	<path fill="#A86D43" transform="scale(1.6 1.6)" d="M293.507 182.848C304.48 183.187 315.488 182.831 326.419 183.895C325.136 184.723 323.951 185.73 322.751 186.674C316.652 190.284 303.593 190.34 296.569 189.67C295.361 187.437 294.421 185.217 293.507 182.848Z"/>
	<path fill="#FDBF30" transform="scale(1.6 1.6)" d="M234.378 277.242C222.84 252.774 237.734 225.661 259.018 212.04C283.041 196.667 301.14 196.504 328.111 196.286C330.548 197.705 333.676 198.061 336.302 199.142C342.237 201.587 352.104 206.651 357.495 210.19C360.813 211.649 363.67 214.785 366.458 215.918C366.586 219.976 373.18 222.396 375.566 225.009C377.358 229.875 379.235 235.359 381.675 239.916C384.564 249.625 386.523 280.115 383.404 290.348C382.475 291.616 382.144 304.195 378.322 310.662C372.901 311.235 367.19 310.923 361.744 310.809L338.271 310.316C310.91 309.856 283.518 310.263 256.201 308.338C250.675 307.948 244.929 307.217 239.4 307.581C237.081 303.68 233.649 300.429 230.597 297.094C231.762 294.824 230.043 293.457 232.405 291.229L231.232 290.767L231.053 290.059C231.312 287.931 232.915 285.034 232.102 283.007L231.018 282.631C232.685 281.226 233.497 279.181 234.378 277.242Z"/>
	<path fill="#3D405B" transform="scale(1.6 1.6)" d="M287.867 291.799C278.676 285.235 283.068 271.873 290.863 279.55C307.143 295.583 331.6 277.406 318.326 265.535C309.085 257.271 295.929 260.267 286.129 247.846C275.218 234.014 286.197 216.82 301.252 213.213C302.853 212.829 308.467 212.484 308.535 210.194L307.849 209.045C308.483 208.461 340.374 218.327 324.325 229.846C317.431 225.824 311.185 221.637 302.872 223.886C296.507 225.608 288.952 230.641 291.255 238.278C293.878 246.972 306.165 248.886 313.472 251.327C326.468 255.669 335.631 268.971 329.109 282.377C325.483 289.828 316.46 293.742 309.144 296.477L310.318 299.201C309.619 300.186 309.401 301.152 309.271 302.322C305.629 307.472 293.679 303.908 298.693 295.14C294.934 294.355 291.449 293.197 287.867 291.799Z"/>
	<path fill="#E07A5F" transform="scale(1.6 1.6)" d="M357.495 210.19C360.813 211.649 363.67 214.785 366.458 215.918C366.586 219.976 373.18 222.396 375.566 225.009C377.358 229.875 379.235 235.359 381.675 239.916C384.564 249.625 386.523 280.115 383.404 290.348C382.475 291.616 382.144 304.195 378.322 310.662C372.901 311.235 367.19 310.923 361.744 310.809L338.271 310.316C310.91 309.856 283.518 310.263 256.201 308.338C250.675 307.948 244.929 307.217 239.4 307.581C237.081 303.68 233.649 300.429 230.597 297.094C231.762 294.824 230.043 293.457 232.405 291.229C235.282 291.915 249.195 291.39 253.592 291.522C258.688 291.675 284.471 294.453 287.867 291.799C291.449 293.197 294.934 294.355 298.693 295.14C293.679 303.908 305.629 307.472 309.271 302.322C309.401 301.152 309.619 300.186 310.318 299.201C350.024 313.599 367.133 271.783 360.135 238.935C358.254 230.107 349.333 216.33 357.495 210.19Z"/>
	<path fill="#3D405B" transform="scale(1.6 1.6)" d="M224.006 300.706C225.21 297.057 226.823 294.371 230.597 297.094C233.649 300.429 237.081 303.68 239.4 307.581C244.929 307.217 250.675 307.948 256.201 308.338C283.518 310.263 310.91 309.856 338.271 310.316L361.744 310.809C367.19 310.923 372.901 311.235 378.322 310.662C404.995 310.994 431.647 311.541 458.326 311.524C468.496 321.464 454.57 321.312 449.858 322.71C412.744 333.726 418.791 381.72 441.629 383.187C448.946 383.657 460.33 383.103 467.963 382.975C472.981 382.891 484.926 380.883 483.48 389.483C482.311 396.438 462.154 398.619 457.293 420.017C454.457 432.503 458.115 448.879 470.241 455.371C475.017 457.928 480.729 456.447 479.199 464.506C478.186 469.841 430.744 467.156 419.644 467.159L316.029 467.158C306.559 467.157 227.179 467.846 224.061 466.599C222.755 466.076 222.577 465.006 222.275 463.786C219.324 461.513 212.596 461.707 208.847 461.308C208.232 473.149 197.451 466.887 189.056 463.501C148.35 447.082 148.856 402.724 188.463 385.881C178.782 381.693 172.359 368.857 171.173 358.94C168.175 333.86 189.742 314.25 213.246 311.188C218.505 310.502 223.84 310.528 229.113 309.929C226.612 307.043 224.95 304.47 224.006 300.706Z"/>
	<path fill="#E07A5F" transform="scale(1.6 1.6)" d="M269.471 318.278C279.034 318.306 288.541 318.891 298.08 319.01L418.032 320.366C423.559 320.413 429.068 320.642 434.584 320.216C410.452 335.199 410.327 359.41 422.881 382.794C399.346 383.414 375.658 382.961 352.109 382.88C318.639 383.259 285.13 382.918 251.656 382.917L223.323 382.953C209.988 382.974 198.675 383.742 188.155 373.902C176.075 362.602 178.617 343.832 189.458 332.575C205.401 316.02 247.073 318.653 269.471 318.278Z"/>
	<path fill="#E07A5F" transform="scale(1.6 1.6)" d="M208.847 461.308C204.697 457.153 197.924 457.139 192.665 455.241C171.094 447.456 158.153 422.491 175.916 404.259C186.39 393.508 201.882 391.472 216.179 391.37L440.957 391.389C449.784 391.398 459.262 392.061 467.999 390.947C443.887 406.569 442.969 436.669 459.294 458.376C445.709 459.276 431.76 458.677 418.134 458.676L240.791 458.673C235.934 458.675 231.025 458.838 226.179 458.556C224.391 460.014 222.991 461.553 222.275 463.786C219.324 461.513 212.596 461.707 208.847 461.308Z"/>
</svg>
