<?xml version="1.0" encoding="utf-8" ?>
<svg xmlns="http://www.w3.org/2000/svg" xmlns:xlink="http://www.w3.org/1999/xlink" width="1024" height="1024">
	<path fill="#BC6C25" transform="scale(1.6 1.6)" d="M409.567 388.932C415.212 387.235 420.686 385.269 426.455 383.986C453.973 377.867 494.999 380.959 513.517 405.729C516.425 409.619 518.135 415.054 523.845 414.612C524.604 416.701 526.085 423.826 527.218 424.985L527.769 425.07C534.053 426.031 534.826 433.305 535.873 438.458C549.14 503.738 517.829 528.694 456.563 528.619C449.39 528.61 441.76 527.983 434.654 528.926C426.075 535.792 414.896 539.425 404.728 543.157C344.84 565.138 272.025 562.476 214.3 534.233C187.619 521.179 147.981 492.927 133.761 466.312C145.277 470.412 185.302 477.628 191.808 474.448C193.074 473.829 193.979 471.874 194.458 470.631C197.35 471.378 205.402 471.597 207.993 470.441C212.725 475.232 216.871 477.85 220.604 470.622C224.32 471.115 228.53 471.673 232.148 470.513C232.201 469.094 232.273 467.751 233.228 466.633C236.098 465.149 302.965 465.868 312.266 465.839C328.62 466.037 345.086 466.166 361.431 465.572C361.479 443.508 363.384 422.208 373.926 402.206C375.499 401.022 376.854 400.427 378.806 400.102C380.914 398.503 383.109 397.001 385.264 395.464C390.005 392.373 400.037 386.616 403.84 383.489C405.376 385.941 406.914 387.63 409.567 388.932Z"/>
	<path fill="#3D405B" transform="scale(1.6 1.6)" d="M378.806 400.102C380.01 400.699 381.207 401.31 382.436 401.854C384.193 404.694 378.173 413.752 377.026 416.892C370.478 434.821 369.793 444.461 370.186 463.242C370.489 477.761 364.283 473.833 353.284 473.87L242.587 473.986C239.241 473.959 235.902 473.673 232.561 473.626C232.427 472.594 232.335 471.536 232.148 470.513C232.201 469.094 232.273 467.751 233.228 466.633C236.098 465.149 302.965 465.868 312.266 465.839C328.62 466.037 345.086 466.166 361.431 465.572C361.479 443.508 363.384 422.208 373.926 402.206C375.499 401.022 376.854 400.427 378.806 400.102Z"/>
	<path fill="#3D405B" transform="scale(1.6 1.6)" d="M525.578 427.975C526.032 426.444 526.104 425.584 527.769 425.07C534.053 426.031 534.826 433.305 535.873 438.458C549.14 503.738 517.829 528.694 456.563 528.619C449.39 528.61 441.76 527.983 434.654 528.926C434.128 528.864 434.321 528.864 433.857 528.883C410.988 529.83 372.904 520.011 362.635 497.126C367.73 489.874 371.044 496.606 375.266 501.05C397.14 524.073 454.355 522.763 482.049 518.325C497.06 515.919 512.636 510.28 521.808 497.421C536.312 477.088 529.318 450.561 525.578 427.975Z"/>
	<path fill="#3D405B" transform="scale(1.6 1.6)" d="M445.086 403.174C465.315 400.999 461.702 426.56 461.983 438.095C470.247 438.296 480.761 437.037 487.281 443.02C493.541 448.763 494.498 457.236 488.282 463.425C481.69 469.988 469.697 468.522 461.13 468.484C461.333 480.786 466.31 499.972 450.291 503.673C428.869 505.629 432.071 483.445 432.677 469.068C423.995 467.94 414.21 471.142 407.238 464.204C400.923 457.921 401.977 448.832 408.414 443.118C414.846 437.409 423.539 438.156 431.551 438.62C431.625 425.608 428.897 406.885 445.086 403.174Z"/>
	<path fill="white" transform="scale(1.6 1.6)" d="M445.841 411.533C459.097 409.997 452.113 437.45 454.872 446.253C464.159 447.749 480.424 442.809 484.953 453.417C479.895 467.277 460.669 455.644 454.798 461.174C449.952 465.739 458.575 487.879 450.399 496.146C435.738 500.597 439.775 474.861 439.842 467.573C439.907 460.547 439.974 460.137 433.498 460.12C428.77 460.108 408.343 462.51 411.211 452.708C413.988 443.219 433.694 449.419 438.753 446.45C443.638 437.637 433.971 418.57 445.841 411.533Z"/>
	<path fill="#F4F1DE" transform="scale(1.6 1.6)" d="M116.799 428.668C117.311 426.009 112.416 423.038 110.85 421.178C93.7908 400.923 84.8874 365.745 82.1116 339.182C71.9983 242.401 121.416 150.527 207.758 105.853C278.655 69.1711 371.375 68.9324 440.601 109.973C478.998 132.737 505.954 158.98 527.588 197.451C557.339 250.358 568.496 321.937 549.198 380.627C546.614 388.486 540.881 407.923 531.329 410.143C529.678 410.527 527.972 410.461 526.325 410.913C525.685 412.314 524.796 413.418 523.845 414.612C518.135 415.054 516.425 409.619 513.517 405.729C494.999 380.959 453.973 377.867 426.455 383.986C420.686 385.269 415.212 387.235 409.567 388.932C406.914 387.63 405.376 385.941 403.84 383.489C400.037 386.616 390.005 392.373 385.264 395.464C383.109 397.001 380.914 398.503 378.806 400.102C376.854 400.427 375.499 401.022 373.926 402.206C363.384 422.208 361.479 443.508 361.431 465.572C345.086 466.166 328.62 466.037 312.266 465.839C302.965 465.868 236.098 465.149 233.228 466.633C232.273 467.751 232.201 469.094 232.148 470.513C228.53 471.673 224.32 471.115 220.604 470.622C216.871 477.85 212.725 475.232 207.993 470.441C205.402 471.597 197.35 471.378 194.458 470.631C193.979 471.874 193.074 473.829 191.808 474.448C185.302 477.628 145.277 470.412 133.761 466.312C121.763 463.001 108.888 440.751 116.799 428.668Z"/>
	<path fill="#3D405B" transform="scale(1.6 1.6)" d="M207.993 470.441C209.659 463.27 216.473 462.015 220.23 470.365L220.604 470.622C216.871 477.85 212.725 475.232 207.993 470.441Z"/>
	<path fill="#3D405B" transform="scale(1.6 1.6)" d="M493.401 346.237C500.253 346.163 503.317 357.638 495.929 359.039C488.766 357.879 486.687 350.205 493.401 346.237Z"/>
	<path fill="#3D405B" transform="scale(1.6 1.6)" d="M186.651 194.19C199.617 192.999 201.875 203.593 190.558 203.085C188.416 202.925 173.291 203.416 179.564 196.476C181.437 194.403 184.077 194.404 186.651 194.19Z"/>
	<path fill="#3D405B" transform="scale(1.6 1.6)" d="M116.799 428.668C128.671 429.793 120.898 439.53 126.266 449.306C133.472 462.431 165.596 465.008 179.728 465.988C186.586 466.463 192.033 463.867 194.458 470.631C193.979 471.874 193.074 473.829 191.808 474.448C185.302 477.628 145.277 470.412 133.761 466.312C121.763 463.001 108.888 440.751 116.799 428.668Z"/>
	<path fill="#3D405B" transform="scale(1.6 1.6)" d="M403.84 383.489C409.311 376.184 424.585 374.642 432.967 373.431C457.806 369.841 486.734 373.448 507.189 388.769C512.92 393.061 524.975 403.676 526.325 410.913C525.685 412.314 524.796 413.418 523.845 414.612C518.135 415.054 516.425 409.619 513.517 405.729C494.999 380.959 453.973 377.867 426.455 383.986C420.686 385.269 415.212 387.235 409.567 388.932C406.914 387.63 405.376 385.941 403.84 383.489Z"/>
	<path fill="#3D405B" transform="scale(1.6 1.6)" d="M141.788 190.76C148.121 190.209 169.133 190.72 159.657 202.044C150.648 198.8 137.458 197.592 129.613 203.696C115.031 215.041 124.113 245.076 127.54 259.664C138.113 304.669 137.022 358.905 131.439 404.762C130.61 411.627 132.71 421.118 122.432 418.261C121.941 412.544 122.79 406.64 123.248 400.941L125.234 375.739C128.002 339.699 128.019 303.286 120.472 267.801C114.826 241.255 100.158 193.571 141.788 190.76Z"/>
	<path fill="#3D405B" transform="scale(1.6 1.6)" d="M308.136 292.607C320.823 292.505 327.869 310.974 329.204 321.09C333.764 320.852 351.657 317.202 354.438 319.151C367.712 328.454 330.845 330.144 328.871 330.252C325.687 339.593 318.733 359.083 305.471 355.657C295.376 352.324 289.506 339.873 287.988 330.17C281.252 329.793 266.584 328.825 260.362 327.418C255.01 326.208 254.478 318.929 260.549 318.614C267.033 318.277 279.86 320.8 287.188 321.335C288.503 309.158 294.087 294.229 308.136 292.607Z"/>
	<path fill="#FB2458" transform="scale(1.6 1.6)" d="M308.686 301.273C329.25 305.144 320.83 349.353 308.331 348.36C291.143 340.164 288.848 307.423 308.686 301.273Z"/>
	<path fill="#3D405B" transform="scale(1.6 1.6)" d="M316.584 153.887C330.408 153.243 359.47 150.633 363.617 168.311C364.777 173.258 363.987 186.88 363.729 192.551C382.273 192.792 402.303 193.321 420.775 192.354C440.304 191.332 487.972 184.336 502.676 196.102C526.371 215.064 510.597 250.19 505.107 273.918C502.708 284.286 501.13 294.771 499.767 305.318C499.182 309.845 500.667 334.35 489.812 324.547C486.824 307.168 498.399 264.159 503.255 247.099C507.489 230.44 511.904 205.665 490.18 199.413C475.986 195.328 433.897 200.963 415.782 201.464C402.866 201.821 389.857 201.513 376.933 201.512L239.013 201.495C233.183 201.511 214.644 205.235 214.43 197.344C214.231 190.044 249.723 192.508 256.045 192.793C255.81 179.918 257.023 167.826 269.884 162.022C281.437 156.807 303.811 154.436 316.584 153.887Z"/>
	<path fill="#F4F1DE" transform="scale(1.6 1.6)" d="M319.227 162.637C329.351 162.126 347.981 159.857 354.926 169.324C355.255 177.002 354.941 184.936 354.448 192.604L301.406 192.555C289.409 192.696 277.298 192.886 265.308 192.526C264.902 186.384 264.283 178.129 268.851 173.349C276.062 165.802 308.333 163.053 319.227 162.637Z"/>
</svg>
