<?xml version="1.0" encoding="utf-8" ?>
<svg xmlns="http://www.w3.org/2000/svg" xmlns:xlink="http://www.w3.org/1999/xlink" width="1024" height="1024">
	<path fill="#F4F1DE" transform="scale(1.6 1.6)" d="M317.931 91.0859L319.688 91.0592C395.558 90.4572 463.843 125.923 505.187 189.026C556.886 267.932 557.978 372.294 506.835 451.732C466.24 514.787 397.419 549.98 322.422 550.396C258.278 550.141 209.075 531.208 162.085 487.43C72.4915 403.96 76.4806 247.662 158.604 159.921C202.082 113.47 255.862 93.0907 317.931 91.0859Z"/>
	<path fill="#DDBBB0" transform="scale(1.6 1.6)" d="M219.733 232.463L221.072 231.573C221.736 233.176 222.928 233.292 223.595 234.532L223.477 235.07C222.25 234.875 221.924 233.427 220.654 232.984C213.351 238.296 224.203 240.132 232.076 236.999L232.616 237.269C229.407 239.209 218.377 242.578 216.337 238.294C216.616 236.334 218.587 234.052 219.733 232.463Z"/>
	<path fill="#3D405B" transform="scale(1.6 1.6)" d="M403.764 188.833C416.745 188.247 418.962 196.727 408.219 200.486C396.81 203.171 392.056 190.805 403.764 188.833Z"/>
	<path fill="#3D405B" transform="scale(1.6 1.6)" d="M283.17 187.888C298.484 187.203 300.409 197.701 291.465 200.102C280.6 200.142 269.211 190.803 283.17 187.888Z"/>
	<path fill="#3D405B" transform="scale(1.6 1.6)" d="M348.541 141.89C357.602 141.023 358.07 160.101 350.242 162.793C347.012 162.907 345.689 162.172 343.833 159.4C343.348 154.985 343.529 150.433 343.822 146.009C345.215 143.879 346.214 142.977 348.541 141.89Z"/>
	<path fill="#3D405B" transform="scale(1.6 1.6)" d="M391.038 152.151C394.928 151.614 398.119 155.679 397.137 159.427C396.475 161.95 386.149 171.735 383.666 172.84C369.56 167.83 384.513 155.854 391.038 152.151Z"/>
	<path fill="#3D405B" transform="scale(1.6 1.6)" d="M304.375 151.317C310.631 150.735 319.255 162.355 320.94 166.655C319.654 169.203 318.204 170.552 315.792 172.003C313.518 172.705 291.53 159.081 304.375 151.317Z"/>
	<path fill="#3D405B" transform="scale(1.6 1.6)" d="M269.089 224.939C268.624 213.698 290.514 217.071 299.225 217.305C304.594 217.448 307.42 218.609 307.574 224.306C307.133 225.335 306.724 226.26 306.063 227.167C300.182 228.838 273.666 230.89 269.089 224.939Z"/>
	<path fill="#3D405B" transform="scale(1.6 1.6)" d="M197.177 259.957C193.794 249.818 189.169 240.116 184.615 230.459C181.621 224.11 173.798 214.377 186.736 213.354C194.601 212.733 235.993 217.012 221.072 231.573L219.733 232.463C214.435 232.463 205.221 224.92 194.315 223.845C199.525 234.799 210.75 253.488 206.547 265.336C205.1 269.415 190.991 288.584 187.558 291.607C180.835 297.528 165.264 301.873 156.85 303.117C154.182 303.512 142.73 303.605 141.775 306.56C139.699 312.977 147.599 345.14 150.29 350.948C159.581 351.22 177.242 349.918 185.528 351.673C192.812 361.045 199.51 369.868 208.524 377.846C212.498 381.363 217.206 384.219 221.041 387.793C223.026 389.643 223.824 392.435 225.903 394.207C239.948 406.181 246.835 403.113 249.588 426.431L249.651 453.624C244.708 454.927 238.331 456.417 233.781 458.622C235.257 461.338 235.031 463.214 233.721 465.839C241.704 467.25 267.583 467.694 270.928 460.439C273.694 454.439 276.668 432.671 277.675 425.118C278.266 420.692 277.76 410.292 284.7 410.704C288.876 410.951 290.191 416.365 289.888 419.706L289.741 420.176C285.804 432.897 285.789 456.705 279.996 467.472C273.403 479.727 259.704 477.106 248.187 477.51C240.973 477.762 227.524 481.049 223.71 472.377C221.481 467.31 226.979 465.06 230.991 464.887L230.76 464.323C230.301 464.071 229.849 463.922 229.346 463.798L229.113 463.266L229.65 462.617C229.733 461.6 227.673 459.358 226.991 458.417L227.22 457.671C224.385 457.175 221.172 454.477 219.181 452.48C217.48 444.195 217.976 432.809 217.377 424.177C216.745 415.072 215.01 406.349 215.313 397.176C199.893 385.28 192.179 378.766 179.657 362.514C171.639 361.915 148.98 363.846 143.684 360.332C135.626 354.985 129.976 313.481 131.052 304.493C132.669 290.976 147.057 293.751 156.871 291.868C176.881 288.029 178.684 285.625 188.943 270.925C191.562 267.174 194.604 263.745 197.177 259.957Z"/>
	<path fill="#3D405B" transform="scale(1.6 1.6)" d="M313.772 222.033C314.247 212.325 316.478 202.464 323.063 195.002C347.611 167.188 389.122 197.666 376.996 209.786C375.397 213.454 377.652 216.852 377.435 220.614C378.503 221.017 379.548 221.435 380.584 221.915C390.58 216.137 394.185 218.325 405.442 221.347C433.015 228.747 457.199 246.173 465.968 274.106C466.664 276.323 467.402 281.566 469.424 282.978C475.888 284.474 483.228 277.925 484.551 271.978C486.416 263.598 475.775 257.663 481.659 253.874C492.88 246.649 505.262 270.843 484.725 289.367C495.85 294.961 504.319 297.183 516.817 296.519C520.906 296.302 528.149 293.31 529.839 299.026C531.22 303.695 524.623 306.126 521.21 306.937C493.896 313.432 485.457 297.409 468.158 293.743L468.08 294.137C466.803 300.887 466.768 307.642 465.147 314.41C461.224 330.79 453.125 346.608 450.128 362.063C448.967 368.052 449.387 382.896 439.478 379.044C426.55 359.471 475.648 308.565 449.842 264.388C434.896 238.801 408.74 233.39 381.945 226.262C377.001 265.601 322.938 260.008 314.577 228.143C314.179 226.311 314.058 224.423 313.871 222.56L313.772 222.033Z"/>
	<path fill="#EA9F01" transform="scale(1.6 1.6)" d="M326.791 227.888C334.492 227.094 366.749 223.977 373.518 224.557C368.366 232.465 364.396 238.832 354.593 240.95C342.12 243.644 331.605 240.08 326.791 227.888Z"/>
	<path fill="#FBBA06" transform="scale(1.6 1.6)" d="M326.791 227.888C314.417 187.452 370.127 189.265 366.42 206.001C369.425 207.987 373.274 210.267 376.996 209.786C375.397 213.454 377.652 216.852 377.435 220.614C375.841 221.651 374.707 223.096 373.518 224.557C366.749 223.977 334.492 227.094 326.791 227.888Z"/>
	<path fill="#E07A5F" transform="scale(1.6 1.6)" d="M313.871 222.56C314.058 224.423 314.179 226.311 314.577 228.143C322.938 260.008 377.001 265.601 381.945 226.262C408.74 233.39 434.896 238.801 449.842 264.388C475.648 308.565 426.55 359.471 439.478 379.044C439.636 384.248 438.861 389.548 439.052 394.549C441.375 395.462 442.584 396.635 444.1 398.581C443.09 412.582 439.816 427.041 436.858 440.751C431.001 467.901 430.252 477.139 400.492 477.39C369.43 477.652 370.93 469 366.618 441.817C365.42 434.264 363.705 426.447 363.302 418.812C350.37 421.667 318.45 427.156 305.045 424.902C304.35 423.449 303.854 422.109 303.425 420.563C300.986 419.184 293.013 419.749 289.888 419.706C290.191 416.365 288.876 410.951 284.7 410.704C277.76 410.292 278.266 420.692 277.675 425.118C276.668 432.671 273.694 454.439 270.928 460.439C267.583 467.694 241.704 467.25 233.721 465.839C235.031 463.214 235.257 461.338 233.781 458.622C238.331 456.417 244.708 454.927 249.651 453.624L249.588 426.431C246.835 403.113 239.948 406.181 225.903 394.207C223.824 392.435 223.026 389.643 221.041 387.793C217.206 384.219 212.498 381.363 208.524 377.846C199.51 369.868 192.812 361.045 185.528 351.673C177.242 349.918 159.581 351.22 150.29 350.948C147.599 345.14 139.699 312.977 141.775 306.56C142.73 303.605 154.182 303.512 156.85 303.117C165.264 301.873 180.835 297.528 187.558 291.607C190.991 288.584 205.1 269.415 206.547 265.336C210.75 253.488 199.525 234.799 194.315 223.845C205.221 224.92 214.435 232.463 219.733 232.463C218.587 234.052 216.616 236.334 216.337 238.294C218.377 242.578 229.407 239.209 232.616 237.269L234.007 236.657C234.997 236.12 235.991 235.641 237.024 235.19L238.153 237.756C239.865 237.233 241.38 236.543 242.917 235.634C252.039 230.793 258.291 224.985 269.089 224.939C273.666 230.89 300.182 228.838 306.063 227.167C307.651 228.737 309.147 228.707 311.164 228.144C312.612 226.527 313.198 224.575 313.871 222.56Z"/>
	<path fill="#3D405B" transform="scale(1.6 1.6)" d="M220.802 284.737C232.839 284.216 236.462 298.998 224.963 303.322C212.835 304.62 209.326 287.764 220.802 284.737Z"/>
	<path fill="#3D405B" transform="scale(1.6 1.6)" d="M331.151 259.224C342.613 258.959 354.108 259.133 365.573 259.133C371.105 259.133 390.023 256.374 390.929 264.806C391.929 274.119 376.665 270.944 370.304 270.911C361.58 270.866 352.832 271.077 344.114 270.717C329.417 271.527 305.618 271.867 290.907 270.879C286.845 270.606 284.861 269.114 284.716 264.662C284.44 256.198 323.731 259.081 331.151 259.224Z"/>
	<path fill="#3D405B" transform="scale(1.6 1.6)" d="M439.052 394.549C441.375 395.462 442.584 396.635 444.1 398.581C443.09 412.582 439.816 427.041 436.858 440.751C431.001 467.901 430.252 477.139 400.492 477.39C369.43 477.652 370.93 469 366.618 441.817C365.42 434.264 363.705 426.447 363.302 418.812C350.37 421.667 318.45 427.156 305.045 424.902C304.35 423.449 303.854 422.109 303.425 420.563C305.026 411.057 313.893 413.974 322.589 413.533C340.161 412.642 357.42 408.814 374.193 403.634C379.049 402.134 384.52 397.616 389.239 401.353C397.439 407.847 406.897 444.407 399.091 453.337C395.441 457.511 387.664 456.642 382.626 456.908L382.659 458.073C382.724 460.127 382.614 463.528 384.482 464.903C387.165 466.879 408.893 465.821 412.834 465.032C422.71 463.057 423.784 452.061 425.491 443.962C428.654 428.955 430.194 413.807 433.336 399.244C434.185 395.307 435.116 394.943 439.052 394.549Z"/>
</svg>
