<?xml version="1.0" encoding="utf-8" ?>
<svg xmlns="http://www.w3.org/2000/svg" xmlns:xlink="http://www.w3.org/1999/xlink" width="1024" height="1024">
	<path fill="#BC6C25" transform="scale(1.6 1.6)" d="M153.105 442.65C147.827 424.408 164.476 407.458 181.59 417.819C184.398 419.518 186.73 421.964 189.593 423.566C247.379 455.909 328.857 462.688 392.326 448.403C411.914 443.994 432.942 438.533 450.497 428.399C455.758 425.361 460.804 421.408 466.78 419.934C482.619 416.026 491.414 429.835 490.345 444.233C496.048 442.439 519.223 443.338 526.583 443.48C523.995 448.359 520.584 453.013 517.497 457.6C482.057 510.265 422.291 546.637 359.983 557.795C262.247 575.297 164.755 526.729 113.4 443.458C121.668 443.17 146.722 444.515 153.105 442.65Z"/>
	<path fill="#3D405B" transform="scale(1.6 1.6)" d="M153.105 442.65C147.827 424.408 164.476 407.458 181.59 417.819C184.398 419.518 186.73 421.964 189.593 423.566C247.379 455.909 328.857 462.688 392.326 448.403C411.914 443.994 432.942 438.533 450.497 428.399C455.758 425.361 460.804 421.408 466.78 419.934C482.619 416.026 491.414 429.835 490.345 444.233C489.016 452.437 484.72 458.097 478.045 462.888C429.994 497.375 362.797 509.075 304.994 505.469C298.642 505.073 264.954 503.589 264.629 497.061C265.555 494.303 266.171 492.046 269.067 490.655C271.354 491.547 274.267 491.582 276.694 491.937C322.169 498.598 368.973 495.84 412.917 482.134C428.351 477.32 474.88 460.487 479.742 444.297C481.77 437.547 478.414 428.138 469.873 430.124C466.164 430.986 458.869 435.646 455.175 437.563C379.697 476.731 264.676 474.375 191.04 435.633C184.299 432.086 177.978 426.383 170.57 424.514C165.66 425.895 162.489 428.92 162.43 434.283C162.234 451.969 204.401 471.717 220.799 476.224C224.606 477.271 242.094 481.408 232.5 489.121C224.313 495.703 171.702 463.831 164.193 456.994C158.487 451.8 157.097 446.963 153.105 442.65Z"/>
	<path fill="#F4F1DE" transform="scale(1.6 1.6)" d="M113.4 443.458C113.732 440.186 108.452 432.453 106.852 429.26C70.9661 357.659 70.5683 282.122 107.208 209.751C138.194 148.549 191.517 105.687 258.301 87.721C351.58 62.6276 455.343 97.9634 513.004 175.436C555.195 232.125 570.769 309.88 553.456 378.307C548.95 396.116 541.601 413.367 533.258 429.676C531.886 432.359 526.547 440.967 526.583 443.48C519.223 443.338 496.048 442.439 490.345 444.233C491.414 429.835 482.619 416.026 466.78 419.934C460.804 421.408 455.758 425.361 450.497 428.399C432.942 438.533 411.914 443.994 392.326 448.403C328.857 462.688 247.379 455.909 189.593 423.566C186.73 421.964 184.398 419.518 181.59 417.819C164.476 407.458 147.827 424.408 153.105 442.65C146.722 444.515 121.668 443.17 113.4 443.458Z"/>
	<path fill="#3D405B" transform="scale(1.6 1.6)" d="M412.854 390.99C420.916 390.951 420.375 397.143 422.745 403.061C425.333 409.521 436.414 426.565 427.012 429.281C420.414 428.758 417.882 417.36 415.658 412.306C413.371 407.11 404.16 393.984 412.854 390.99Z"/>
	<path fill="#3D405B" transform="scale(1.6 1.6)" d="M370.687 285.328C380.448 284.824 377.425 299.78 377.426 306.992C377.426 312.723 379.346 323.894 374.23 327.971C370.849 328.582 368.039 327.031 367.656 323.323C366.932 316.308 364.547 288.954 370.687 285.328Z"/>
	<path fill="#3D405B" transform="scale(1.6 1.6)" d="M245.879 390.66C259.821 389.647 247.736 408.964 245.103 415.704C242.965 421.176 241.665 429.442 237.129 433.497C233.845 433.474 231.745 431.613 230.332 428.685C231.47 423.156 241.373 392.926 245.879 390.66Z"/>
	<path fill="#3D405B" transform="scale(1.6 1.6)" d="M274.08 283.819C276.647 283.568 278.648 283.321 280.589 285.387C281.977 290.002 284.067 324.659 277.699 329.367C267.903 328.34 271.068 314.651 271.074 307.943C271.081 301.501 270.436 292.033 271.37 285.868C272.185 285.079 273.15 284.464 274.08 283.819Z"/>
	<path fill="#3D405B" transform="scale(1.6 1.6)" d="M324.259 285.069C335.658 284.426 331.351 298.112 331.386 308.011C331.409 314.503 333.729 326.491 328.146 331.046C323.519 332.153 321.678 328.732 321.376 324.502C320.93 318.263 318.835 287.528 324.259 285.069Z"/>
	<path fill="#3D405B" transform="scale(1.6 1.6)" d="M409.426 284.713C411.203 284.576 413.525 284.364 414.486 286.246C415.548 288.326 415.426 329.202 413.961 333.289C413.111 334.018 412.108 334.036 411.042 334.184C405.853 333.61 405.782 330.288 405.468 325.832C404.836 316.868 401.743 289.252 409.426 284.713Z"/>
	<path fill="#3D405B" transform="scale(1.6 1.6)" d="M198.106 156.566C205.874 156 206.12 165.448 207.603 171.139L223.108 230.566C225.605 240.374 227.815 250.237 230.523 259.993C236.347 259.803 242.514 260.789 248.329 261.299C306.736 266.422 357.376 269.194 416.718 261.998C422.075 261.348 427.661 260.147 433.039 259.946C437.108 259.794 439.489 265.987 436.907 268.799C434.203 271.742 375.887 275.694 368.516 275.938C327.253 278.892 273.718 274.795 233.173 270.022C235.045 286.369 245.869 308.55 246.239 324.285C246.341 328.608 241.096 332.482 238.376 328.028C235.664 323.588 231.489 303.396 229.832 296.989C220.762 261.903 212.462 226.601 202.97 191.632L198.049 173.581C196.617 168.433 192.046 160.22 198.106 156.566Z"/>
	<path fill="#3D405B" transform="scale(1.6 1.6)" d="M239.639 339.754C253.209 338.988 268.874 350.521 282.326 348.982L282.254 348.688C281.251 348.466 280.552 348.437 280.333 347.358L280.788 346.967C283.932 347.04 287.65 348.344 291.119 348.599C313.708 350.258 336.255 349.252 358.764 347.034C373.939 345.538 418.898 338.893 430.819 343.242C437.814 345.794 439.753 354.638 437.058 361.009C434.228 367.7 424.438 368.603 418.281 371.246C369.151 392.308 319.131 396.483 266.859 382.539C255.324 379.462 230.848 373.463 227.145 360.004C224.74 351.26 231.132 341.896 239.639 339.754Z"/>
	<path fill="#BC6C25" transform="scale(1.6 1.6)" d="M240.589 350.981C247.453 350.556 255.15 353.06 261.904 354.289C301.218 361.441 342.476 359.325 382.009 355.575C389.777 354.838 426.351 350.718 427.04 355.208C425.807 356.862 413.461 360.917 410.423 362.223C368.749 380.046 321.89 385.611 277.575 374.642C272.456 373.374 222.29 361.745 240.589 350.981Z"/>
</svg>
