<?xml version="1.0" encoding="utf-8" ?>
<svg xmlns="http://www.w3.org/2000/svg" xmlns:xlink="http://www.w3.org/1999/xlink" width="1024" height="1024">
	<path fill="#F4F1DE" transform="scale(1.6 1.6)" d="M316.03 82.3472C443.236 78.7268 551.386 182.689 557.684 308.127C560.803 370.222 539.555 431.355 497.718 477.534C450.497 529.657 392.96 554.799 324.14 558.184C283.495 559.94 240.35 547.939 205.052 528.146C70.1319 452.492 38.5661 267.688 150.492 154.671C193.798 110.942 253.981 82.632 316.03 82.3472Z"/>
	<path fill="#D1A59B" transform="scale(1.6 1.6)" d="M366.086 451.987L368.216 454.59C365.659 454.467 363.416 453.925 360.976 453.209C362.748 452.814 364.233 452.215 366.086 451.987Z"/>
	<path fill="#3D405B" transform="scale(1.6 1.6)" d="M401.737 221.881C402.202 217.565 403.529 211.75 409.173 212.605C413.414 213.247 435.272 228.17 421.731 232.584C416.549 230.203 406.243 222.683 401.737 221.881Z"/>
	<path fill="#3D405B" transform="scale(1.6 1.6)" d="M432.241 242.493C437.437 240.071 439.804 243.91 442.82 247.701C453.148 247.833 464.387 246.838 472.148 254.913C482.615 265.802 485.634 282.91 482.206 297.354C481.247 301.394 476.949 313.463 474.117 316.226C470.147 320.098 464.495 317.399 465.049 311.712C465.396 308.152 468.229 304.298 469.578 300.972C476.006 285.124 472.949 256.728 450.28 259.042C459.898 284.182 462.901 320.342 446.78 343.731C443.852 341.412 441.719 338.764 440.006 335.462C441.357 330.295 443.256 325.292 444.457 320.073C448.163 303.961 448.36 269.099 435.563 256.713C430.087 251.413 424.774 254.487 430.602 244.146L432.241 242.493Z"/>
	<path fill="#3D405B" transform="scale(1.6 1.6)" d="M183.016 355.101C189.442 354.164 198.341 362.435 203.552 365.519C217.926 374.024 226.8 376.096 229.47 395.385C231.003 406.463 231.475 417.814 232.177 428.97C233.56 450.973 231.287 450.062 255.849 448.682C264.019 440.219 269.853 412.049 279.55 401.839C283.259 397.936 292.559 396.866 292.514 401.509C310.653 399.651 332.154 399.859 321.932 423.762C322.436 426.768 326.842 447.753 327.639 448.403C331.045 451.179 344.142 448.962 348.506 448.061C351.908 449.926 352.695 452.389 354.258 455.649C352.854 457.716 350.873 459.24 348.912 460.746C336.443 462.229 317.605 463.685 314.366 447.567C312.293 437.257 312.888 426.795 318.598 418.016C317.902 415.775 317.317 414.281 315.625 412.609C309.011 411.557 293.727 413.081 289.832 406.054C278.572 415.417 275.337 453.332 258.029 459.714C252.578 461.724 237.584 461.791 232.329 459.3C220.956 453.905 221.757 440.178 221.3 429.529C220.855 419.172 220.554 400.258 217.956 390.78C215.025 380.086 176.487 369.361 183.016 355.101Z"/>
	<path fill="#3D405B" transform="scale(1.6 1.6)" d="M230.258 201.545C237.881 195.84 248.145 193.232 257.136 190.678C294.448 180.078 336.531 181.224 373 195.028C377.974 196.911 406.927 206.718 388.567 213.949C382.956 213.254 373.244 207.26 366.545 205.036C364.029 204.194 361.514 203.404 358.955 202.699C361.611 204.736 361.498 205.139 358.606 206.267C343.913 204.975 329.24 204.739 314.494 205.054L280.571 204.972C272.124 204.967 263.65 204.686 255.251 205.742C252.776 206.573 250.243 207.103 247.883 208.254C246.147 207.645 244.512 208.288 242.961 207.245C240.497 208.061 238.055 208.599 239.338 211.597C237.79 215.128 232.758 218.267 228.916 216.54C221.044 213.004 216.187 195.898 195.859 197.495C195.995 211.128 200.878 222.74 202.716 235.597C182.06 253.121 181.555 274.402 175.354 280.136C167.272 287.608 152.45 281.446 150.885 300.53C147.794 338.226 168.417 330.29 170.814 344.392C168.464 346.771 165.786 347.938 162.66 348.923C150.122 341.589 141.314 330.391 139.928 315.489C138.009 294.851 143.658 274.44 167.566 272.159C175.091 252.363 176.167 247.041 190.592 231.947C188.838 224.123 181.886 196.407 185.81 189.675C191.331 180.204 213.541 189.619 219.888 193.825C223.399 196.152 226.476 199.093 229.999 201.381L230.258 201.545Z"/>
	<path fill="#F4F1DE" transform="scale(1.6 1.6)" d="M242.961 207.245C246.988 205.428 251.318 204.114 255.577 202.967C254.599 204.161 252.294 203.842 252.367 205.589C253.397 205.773 254.582 205.018 255.251 205.742C252.776 206.573 250.243 207.103 247.883 208.254C246.147 207.645 244.512 208.288 242.961 207.245Z"/>
	<path fill="white" transform="scale(1.6 1.6)" d="M255.577 202.967C285.079 192.67 329.276 190.607 358.955 202.699C361.611 204.736 361.498 205.139 358.606 206.267C343.913 204.975 329.24 204.739 314.494 205.054L280.571 204.972C272.124 204.967 263.65 204.686 255.251 205.742C254.582 205.018 253.397 205.773 252.367 205.589C252.294 203.842 254.599 204.161 255.577 202.967Z"/>
	<path fill="#3D405B" transform="scale(1.6 1.6)" d="M366.086 451.987C322.485 395.955 374.927 329.171 431.32 349.437C436.294 351.224 441.027 354.403 446.096 355.752L446.522 355.861C458.961 364.418 469.041 382.275 471.725 396.656C482.127 452.394 420.539 491.509 371.625 457.036L368.216 454.59L366.086 451.987Z"/>
	<path fill="#F4F1DE" transform="scale(1.6 1.6)" d="M390.271 362.018C406.952 353.91 423.844 354.428 438.386 366.138C431.53 366.89 426.704 364.643 419.315 367.592C412.988 364.601 400.546 364.159 393.355 364.718C392.148 363.916 391.165 363.204 390.271 362.018Z"/>
	<path fill="#FDDC13" transform="scale(1.6 1.6)" d="M375.628 372.737C379.437 368.184 385.118 364.824 390.271 362.018C391.165 363.204 392.148 363.916 393.355 364.718C400.546 364.159 412.988 364.601 419.315 367.592C426.704 364.643 431.53 366.89 438.386 366.138C477.023 391.952 463.587 449.913 418.591 458.098C393.185 462.72 366.097 445.134 361.57 419.407C359.269 406.328 363.535 380.25 375.628 372.737Z"/>
	<path fill="#FFF554" transform="scale(1.6 1.6)" d="M375.628 372.737C379.437 368.184 385.118 364.824 390.271 362.018C391.165 363.204 392.148 363.916 393.355 364.718C400.546 364.159 412.988 364.601 419.315 367.592C417.796 368.438 416.256 369.257 414.789 370.19C409.974 362.2 404.898 370.302 402.196 374.125C400.411 370.858 408.114 366.955 410.322 366.563C400.079 360.589 388.918 370.422 386.101 366.079C385.082 364.508 377.784 371.894 375.628 372.737Z"/>
	<path fill="#3D405B" transform="scale(1.6 1.6)" d="M402.196 374.125C404.898 370.302 409.974 362.2 414.789 370.19C415.126 372.306 414.696 373.979 414.057 375.994C426.133 377.865 440.051 390.314 425.663 397.317C421.545 395.806 420.566 393.137 417.618 390.341C411.676 389.669 405.215 389.357 399.929 392.594C395.079 406.712 422.18 396.845 430.734 411.689C437.501 423.43 428.571 434.807 417.551 439.177C418.203 442.968 416.177 449.085 411.398 445.293C408.917 443.324 407.942 439.467 405.03 438.093C399.155 435.32 386.238 439.605 385.399 429.09C385.104 425.399 386.933 422.783 389.947 420.976C403.76 420.485 408.282 436.529 420.484 423.638C432.036 411.434 390.88 418.21 387.823 399.491C385.79 387.046 393.26 383.698 402.508 378.773C402.437 377.233 402.44 375.647 402.196 374.125Z"/>
	<path fill="#BC6C25" transform="scale(1.6 1.6)" d="M195.859 197.495C216.187 195.898 221.044 213.004 228.916 216.54C232.758 218.267 237.79 215.128 239.338 211.597C238.055 208.599 240.497 208.061 242.961 207.245C244.512 208.288 246.147 207.645 247.883 208.254C250.243 207.103 252.776 206.573 255.251 205.742C263.65 204.686 272.124 204.967 280.571 204.972L314.494 205.054C329.24 204.739 343.913 204.975 358.606 206.267C361.498 205.139 361.611 204.736 358.955 202.699C361.514 203.404 364.029 204.194 366.545 205.036C373.244 207.26 382.956 213.254 388.567 213.949C384.727 216.061 381.995 218.234 379.973 222.246C380.844 223.267 381.773 224.27 382.593 225.331C388.35 225.308 394.096 226.55 399.789 225.215C400.564 224.137 401.168 223.079 401.737 221.881C406.243 222.683 416.549 230.203 421.731 232.584C420.386 236.362 425.858 239.236 427.666 241.613C429.212 242.172 430.605 242.404 432.241 242.493L430.602 244.146C424.774 254.487 430.087 251.413 435.563 256.713C448.36 269.099 448.163 303.961 444.457 320.073C443.256 325.292 441.357 330.295 440.006 335.462C441.719 338.764 443.852 341.412 446.78 343.731L444.362 353.409C445.23 354.191 445.931 354.847 446.522 355.861L446.096 355.752C441.027 354.403 436.294 351.224 431.32 349.437C374.927 329.171 322.485 395.955 366.086 451.987C364.233 452.215 362.748 452.814 360.976 453.209C358.731 453.928 356.347 454.548 354.258 455.649C352.695 452.389 351.908 449.926 348.506 448.061C344.142 448.962 331.045 451.179 327.639 448.403C326.842 447.753 322.436 426.768 321.932 423.762C332.154 399.859 310.653 399.651 292.514 401.509C292.559 396.866 283.259 397.936 279.55 401.839C269.853 412.049 264.019 440.219 255.849 448.682C231.287 450.062 233.56 450.973 232.177 428.97C231.475 417.814 231.003 406.463 229.47 395.385C226.8 376.096 217.926 374.024 203.552 365.519C198.341 362.435 189.442 354.164 183.016 355.101C179.537 355.334 176.351 347.777 170.814 344.392C168.417 330.29 147.794 338.226 150.885 300.53C152.45 281.446 167.272 287.608 175.354 280.136C181.555 274.402 182.06 253.121 202.716 235.597C200.878 222.74 195.995 211.128 195.859 197.495Z"/>
	<path fill="#FBBC86" transform="scale(1.6 1.6)" d="M239.338 211.597C238.055 208.599 240.497 208.061 242.961 207.245C244.512 208.288 246.147 207.645 247.883 208.254C245.205 209.838 242.5 211.312 239.338 211.597Z"/>
	<path fill="#3D405B" transform="scale(1.6 1.6)" d="M208.463 263.78C217 263.225 219.372 272.9 211.941 276.414C203.677 277.254 200.265 267.857 208.463 263.78Z"/>
	<path fill="#FBBC86" transform="scale(1.6 1.6)" d="M358.955 202.699C361.514 203.404 364.029 204.194 366.545 205.036C373.244 207.26 382.956 213.254 388.567 213.949C384.727 216.061 381.995 218.234 379.973 222.246C380.844 223.267 381.773 224.27 382.593 225.331L382.143 225.428L375.396 225.262L373.521 221.949C372.358 209.261 348.971 213.662 339.478 213.703C334.044 212.937 328.28 213.792 322.697 213.256C328.397 212.086 357.606 213.373 365.685 213.437C364.311 211.419 363.746 209.513 362.823 207.292C358.859 205.984 344.366 206.19 339.543 206.017C337.58 205.946 315.118 205.257 314.494 205.054C329.24 204.739 343.913 204.975 358.606 206.267C361.498 205.139 361.611 204.736 358.955 202.699Z"/>
	<path fill="#F4F1DE" transform="scale(1.6 1.6)" d="M358.955 202.699C361.514 203.404 364.029 204.194 366.545 205.036C365.357 207.173 360.559 206.692 358.606 206.267C361.498 205.139 361.611 204.736 358.955 202.699Z"/>
	<path fill="#3D405B" transform="scale(1.6 1.6)" d="M371.969 225.27C369.396 224.817 357.988 225.386 354.761 225.38L268.055 225.376C264.177 225.377 260.164 225.577 256.305 225.217C251.517 224.771 251.525 218.781 254.325 215.859C258.423 211.583 278.485 213.678 284.498 213.687L339.478 213.703C348.971 213.662 372.358 209.261 373.521 221.949C373.012 223.058 372.525 224.184 371.969 225.27Z"/>
</svg>
