<?xml version="1.0" encoding="utf-8" ?>
<svg xmlns="http://www.w3.org/2000/svg" xmlns:xlink="http://www.w3.org/1999/xlink" width="1023" height="1023">
	<path fill="#F4F1DE" transform="scale(1.6 1.6)" d="M310.532 80.1798L311.216 80.1493C444.271 75.5196 555.59 177.592 559.967 311.715C564.286 444.024 462.179 555.746 329.453 560.024C209.529 567.514 106.178 479.669 83.8958 363.547C72.3565 303.411 85.2366 242.047 118.327 190.543C159.369 126.663 233.985 81.9767 310.532 80.1798ZM281.313 197.137C278.002 199.309 270.104 203.554 266.348 205.574C265.772 193.851 255.599 201.428 248.997 204.032C228.447 212.134 208.317 219.307 187.73 227.045C183.583 228.604 179.667 230.798 175.514 232.284C152.369 240.565 146.631 237.336 163.664 264.506C167.151 270.068 168.475 275.985 169.299 282.412L169.04 283.774C167.77 283.986 166.517 284.316 165.452 285.077L164.951 285.061L164.832 285.125C163.928 284.51 163.119 284.006 161.964 284.273C154.827 285.925 162.362 300.023 164.085 303.907C169.688 316.535 169.976 315.049 169.997 329.038L169.977 408.659C169.959 438.483 165.813 437.678 196.345 437.643L367.966 437.642C372.445 437.639 376.97 437.392 381.44 437.522C383.983 439.012 386.509 440.625 389.154 441.924L392.759 442.506C397.441 442.438 402.259 443.721 406.827 444.639C438.835 451.071 470.995 432.482 484.269 403.074C498.939 370.575 484.723 327.808 452.808 311.371C449.09 309.456 445.061 308.557 441.272 306.847L440.855 306.656C429.756 300.527 409.591 303.783 397.876 307.169C358.38 318.585 336.605 355.931 348.55 395.747C352.094 407.557 359.95 422.728 370.556 429.679L280.268 429.55C249.662 429.545 219.119 429.371 188.523 430.036C186.615 367.514 188.637 304.444 187.097 241.726C203.426 240.971 219.974 241.501 236.332 241.499L366.156 242.532C381.345 242.536 396.599 242.826 411.781 242.454C421.345 242.22 439.641 240.276 448.415 241.954C448.783 247.464 448.597 253.031 448.57 258.551L448.526 278.807C448.505 281.19 447.142 294.188 450.214 294.841C454.364 294.542 455.093 293.984 455.316 289.888C455.872 279.677 456.355 250.247 454.659 241.331C452.958 232.388 442.473 234.097 435.766 233.991C426.685 205.929 440.528 200.677 407.34 201.511C404.726 192.492 401.681 183.562 398.639 174.68C396.188 167.523 393.376 152.131 383.517 152.48C372.825 152.859 316.523 178.857 297.734 186.819C293.356 188.675 280.78 191.007 281.313 197.137Z"/>
	<path fill="#C6C6BC" transform="scale(1.6 1.6)" d="M389.154 441.924L392.759 442.506C392.749 444.015 393.184 445.13 393.34 446.587L392.881 447.064C389.474 446.89 390.023 444.654 389.27 442.279L389.154 441.924Z"/>
	<path fill="#3D405B" transform="scale(1.6 1.6)" d="M281.313 197.137C280.78 191.007 293.356 188.675 297.734 186.819C316.523 178.857 372.825 152.859 383.517 152.48C393.376 152.131 396.188 167.523 398.639 174.68C401.681 183.562 404.726 192.492 407.34 201.511C440.528 200.677 426.685 205.929 435.766 233.991C442.473 234.097 452.958 232.388 454.659 241.331C456.355 250.247 455.872 279.677 455.316 289.888C455.093 293.984 454.364 294.542 450.214 294.841C447.142 294.188 448.505 281.19 448.526 278.807L448.57 258.551C448.597 253.031 448.783 247.464 448.415 241.954C439.641 240.276 421.345 242.22 411.781 242.454C396.599 242.826 381.345 242.536 366.156 242.532L236.332 241.499C219.974 241.501 203.426 240.971 187.097 241.726C188.637 304.444 186.615 367.514 188.523 430.036C219.119 429.371 249.662 429.545 280.268 429.55L370.556 429.679C359.95 422.728 352.094 407.557 348.55 395.747C336.605 355.931 358.38 318.585 397.876 307.169C409.591 303.783 429.756 300.527 440.855 306.656L441.272 306.847C445.061 308.557 449.09 309.456 452.808 311.371C484.723 327.808 498.939 370.575 484.269 403.074C470.995 432.482 438.835 451.071 406.827 444.639C402.259 443.721 397.441 442.438 392.759 442.506L389.154 441.924C386.509 440.625 383.983 439.012 381.44 437.522C376.97 437.392 372.445 437.639 367.966 437.642L196.345 437.643C165.813 437.678 169.959 438.483 169.977 408.659L169.997 329.038C169.976 315.049 169.688 316.535 164.085 303.907C162.362 300.023 154.827 285.925 161.964 284.273C163.119 284.006 163.928 284.51 164.832 285.125L164.951 285.061L165.452 285.077C166.517 284.316 167.77 283.986 169.04 283.774L169.299 282.412C168.475 275.985 167.151 270.068 163.664 264.506C146.631 237.336 152.369 240.565 175.514 232.284C179.667 230.798 183.583 228.604 187.73 227.045C208.317 219.307 228.447 212.134 248.997 204.032C255.599 201.428 265.772 193.851 266.348 205.574C270.104 203.554 278.002 199.309 281.313 197.137ZM177.858 429.507C181.388 430.099 184.947 430.46 188.523 430.036C186.615 367.514 188.637 304.444 187.097 241.726C173.449 238.334 177.507 258.665 177.505 267.875L177.496 382.993C177.498 398.478 177.118 414.04 177.858 429.507ZM391.639 432.346L392.343 432.072C392.24 429.357 387.24 425.998 385.409 424.318C357.666 398.861 353.283 362.132 379.373 333.26C383.442 328.757 392.649 323.794 391.296 318.153C360.171 328.577 345.216 365.341 355.537 395.538C359.995 408.579 376.148 431.134 391.639 432.346ZM169.299 282.412L169.04 283.774C167.77 283.986 166.517 284.316 165.452 285.077L164.951 285.061L164.832 285.125C166.384 287.712 168.496 290.16 170.331 292.567C169.9 289.189 169.879 285.773 169.299 282.412Z"/>
	<defs>
		<linearGradient id="gradient_0" gradientUnits="userSpaceOnUse" x1="248.23734" y1="231.72923" x2="257.2034" y2="232.65907">
			<stop offset="0" stop-color="#69B4BC"/>
			<stop offset="1" stop-color="#71CFEE"/>
		</linearGradient>
	</defs>
	<path fill="url(#gradient_0)" transform="scale(1.6 1.6)" d="M239.048 233.826C247.953 232.295 257.427 230.615 266.434 229.948C264.392 231.57 259.882 230.801 257.377 231.955L257.338 232.573C258.842 233.785 263.983 233.121 266.084 233.213L259.683 233.632C254.223 233.982 244.377 234.315 239.048 233.826Z"/>
	<path fill="#3376B4" transform="scale(1.6 1.6)" d="M172.945 239.977L173.173 240.049C174.158 241.592 172.022 263.06 171.696 266.368C170.624 264.437 169.353 262.597 168.151 260.744C159.01 249.624 159.477 244.493 172.945 239.977Z"/>
	<path fill="#E07A5F" transform="scale(1.6 1.6)" d="M408.736 210.431C413.711 210.29 419.005 209.807 423.841 211.129C425.349 214.718 430.959 233.377 425.224 234.434C421.357 234.906 417.383 235.126 413.514 234.612C411.619 231.72 403.205 211.274 408.736 210.431Z"/>
	<path fill="#FEB343" transform="scale(1.6 1.6)" d="M361.35 169.812C366.342 167.636 379.605 161.915 384.718 161.447C387.539 164.179 397.789 197.175 398.97 202.646C388.521 203.582 378.058 204.507 367.626 205.609C367.551 201.872 361.761 170.678 361.35 169.812Z"/>
	<path fill="#35DCFE" transform="scale(1.6 1.6)" d="M266.434 229.948C270.797 228.712 275.669 228.295 280.149 227.569C316.342 221.705 361.358 212.58 397.961 212.184C399.846 219.899 401.724 227.713 404.028 235.313C373.079 235.341 343.405 234.295 312.731 233.856C295.07 233.603 277.327 234.367 259.683 233.632L266.084 233.213C263.983 233.121 258.842 233.785 257.338 232.573L257.377 231.955C259.882 230.801 264.392 231.57 266.434 229.948Z"/>
	<path fill="#FBE148" transform="scale(1.6 1.6)" d="M285.456 201.34C310.569 190.365 336.124 180.495 361.35 169.812C361.761 170.678 367.551 201.872 367.626 205.609C332.94 209.572 294.729 214.934 260.207 220.776C243.481 223.606 227.224 228.973 210.31 230.804C206.369 231.231 202.407 231.356 198.482 231.944C209.412 227.858 259.036 211.651 266.348 205.574C270.104 203.554 278.002 199.309 281.313 197.137C282.538 198.853 283.787 200.078 285.456 201.34Z"/>
	<path fill="#E07A5F" transform="scale(1.6 1.6)" d="M391.296 318.153C401.589 312.131 423.4 309.857 434.875 312.901C489.705 327.442 500.062 401.555 450.652 429.572C434.876 438.518 416.03 440.276 398.659 435.307C396.441 434.672 393.732 432.474 391.639 432.346L392.343 432.072C392.24 429.357 387.24 425.998 385.409 424.318C357.666 398.861 353.283 362.132 379.373 333.26C383.442 328.757 392.649 323.794 391.296 318.153Z"/>
	<path fill="#3D405B" transform="scale(1.6 1.6)" d="M422.34 323.488C428.141 323.913 423.801 331.206 424.815 337.514C428.325 339.864 437.291 344.444 433.648 349.799C430.97 353.735 424.504 345.08 418.31 346.673C415.153 347.485 413.335 351.597 414.217 354.591C415.434 358.724 421.238 360.753 424.687 362.753C441.252 372.36 444.04 393.919 423.318 398.629C425.416 417.174 415.963 414.618 415.032 403.131C414.998 401.024 414.884 398.914 414.804 396.808C408.404 393.529 403.837 391.727 403.507 383.62C403.258 377.49 407.17 370.274 412.29 377.334C409.801 394.301 426.763 393.832 429.766 385.262C434.738 371.071 397.353 368.835 407.35 344.862C409.399 339.949 414.992 339.017 419.453 337.243C419.118 333.363 419.087 329.51 419.061 325.618C420.102 324.321 420.714 323.877 422.34 323.488Z"/>
	<path fill="#E07A5F" transform="scale(1.6 1.6)" d="M187.097 241.726C203.426 240.971 219.974 241.501 236.332 241.499L366.156 242.532C381.345 242.536 396.599 242.826 411.781 242.454C421.345 242.22 439.641 240.276 448.415 241.954C448.783 247.464 448.597 253.031 448.57 258.551L448.526 278.807C448.505 281.19 447.142 294.188 450.214 294.841C448.398 295.126 442.358 304.383 440.855 306.656C429.756 300.527 409.591 303.783 397.876 307.169C358.38 318.585 336.605 355.931 348.55 395.747C352.094 407.557 359.95 422.728 370.556 429.679L280.268 429.55C249.662 429.545 219.119 429.371 188.523 430.036C186.615 367.514 188.637 304.444 187.097 241.726Z"/>
	<path fill="#3D405B" transform="scale(1.6 1.6)" d="M248.793 312.585C263.334 313.029 278.444 312.974 292.844 313.617C296.842 313.796 297.381 315.157 298.428 318.915C297.603 320.835 297.56 321.89 295.39 322.537C289.089 322.535 248.565 321.528 246.22 320.758C243.237 317.661 244.891 313.396 248.793 312.585Z"/>
</svg>
