<?xml version="1.0" encoding="utf-8" ?>
<svg xmlns="http://www.w3.org/2000/svg" xmlns:xlink="http://www.w3.org/1999/xlink" width="1024" height="1024">
	<path fill="#3D405B" transform="scale(1.6 1.6)" d="M488.471 151.433C502.314 147.274 509.717 158.154 501.701 162.21C497.155 162.029 485.441 163.85 485.838 156.583C485.96 154.343 486.893 152.938 488.471 151.433Z"/>
	<path fill="#3D405B" transform="scale(1.6 1.6)" d="M141.186 146.283C152.451 145.819 148.223 163.248 147.326 170.137C146.728 171.024 146.005 171.7 145.231 172.433C142.503 172.705 141.022 172.323 138.9 170.492C137.683 164.663 135.089 150.103 141.186 146.283Z"/>
	<path fill="#3D405B" transform="scale(1.6 1.6)" d="M508.989 173.27C515.906 166.67 517.534 178.586 519.453 182.529C521.521 186.778 528.943 195.461 517.737 196.894C511.878 192.123 503.942 180.323 508.989 173.27Z"/>
	<path fill="#3D405B" transform="scale(1.6 1.6)" d="M143.249 97.891C152.211 99.714 148.311 121.955 147.5 123.134C146.515 124.565 144.773 124.9 143.176 125.192C134.272 124.684 137.434 103.231 138.742 100.686C139.608 99.0016 141.591 98.4759 143.249 97.891Z"/>
	<path fill="#3D405B" transform="scale(1.6 1.6)" d="M156.551 139.256C153.911 133.299 156.949 131.684 162.535 131.552C169.161 131.394 184.713 129.259 184.728 138.223C183.9 139.52 182.639 140.817 181.92 142.103C174.339 143.364 163.099 144.16 156.551 139.256Z"/>
	<path fill="#3D405B" transform="scale(1.6 1.6)" d="M531.273 126.561C545.881 124.585 529.745 151.835 525.269 154.671C510.727 155.702 526.638 129.722 531.273 126.561Z"/>
	<path fill="#3D405B" transform="scale(1.6 1.6)" d="M109.296 131.402C114.801 131.281 126.272 130.763 131.002 132.77C131.424 136.453 131.095 138.836 129.416 142.154C127.995 142.335 126.543 142.364 125.112 142.441C119.305 142.295 109.017 143.549 104.069 140.954C101.686 135.382 103.152 131.999 109.296 131.402Z"/>
	<path fill="#F4F1DE" transform="scale(1.6 1.6)" d="M468.083 482.903C470.65 466.654 480.124 452.981 497.794 451.356C501.218 459.719 478.598 482.546 470.34 484.806C469.923 483.982 469.505 483.173 469.182 482.306L468.762 481.982L468.083 482.903Z"/>
	<path fill="#F4F1DE" transform="scale(1.6 1.6)" d="M184.728 138.223C228.929 99.1043 284.083 83.9415 342.73 87.468C371.974 89.2264 425.765 101.217 446.895 123.301C448.689 125.176 450.33 127.281 452.272 129.004C458.102 127.767 462.156 124.835 467.417 122.395C472.712 126.321 489.09 144.105 488.132 150.965L488.471 151.433C486.893 152.938 485.96 154.343 485.838 156.583C485.441 163.85 497.155 162.029 501.701 162.21L502.182 162.394C504.616 161.218 506.096 165.96 507.199 168.926C507.674 170.202 507.035 171.344 507.714 172.62L508.989 173.27C503.942 180.323 511.878 192.123 517.737 196.894C523.621 205.624 527.769 216.118 531.813 225.822C562.012 298.285 557.133 368.471 513.797 433.13C512.023 435.777 508.75 441.691 506.197 443.309C503.715 444.883 503.78 442.016 502.769 445.771C502.01 448.748 500.799 450.562 497.794 451.356C480.124 452.981 470.65 466.654 468.083 482.903L467.259 486.88C465.338 488.735 463.627 489.836 460.925 490.062C437.19 522.964 391.523 542.475 352.782 548.722C297.7 557.604 239.65 543.81 194.463 511.147C192.287 509.574 182.326 502.964 181.746 500.826C182.057 499.814 182.385 498.926 181.896 497.895C164.677 509.017 137.56 524.862 117.806 510.55C87.5678 488.641 108.896 457.708 125.063 435.759C124.052 435.265 123.363 434.734 122.569 433.939C99.7701 397.88 88.3886 355.618 90.8795 313.061C93.3432 270.968 110.502 219.813 138.602 187.253C147.172 177.322 158.327 165.321 167.501 156.097C172.112 151.461 178.314 147.6 181.92 142.103C182.639 140.817 183.9 139.52 184.728 138.223ZM122.569 433.939C123.363 434.734 124.052 435.265 125.063 435.759L126.545 433.833C125.111 432.285 124.157 432.926 122.569 433.939Z"/>
	<path fill="#3D405B" transform="scale(1.6 1.6)" d="M275.548 391.828C276.594 382.929 277.617 381.62 286.577 383.189C284.775 386.854 287.679 399.847 275.548 391.828Z"/>
	<path fill="#3D405B" transform="scale(1.6 1.6)" d="M333.157 480.008C343.694 479.427 341.734 500.004 336.222 503.301C328.05 504.873 326.068 484.61 333.157 480.008Z"/>
	<path fill="#3D405B" transform="scale(1.6 1.6)" d="M158.179 202.785C166.184 202.133 164.038 213.186 164.017 218.149C163.992 224.429 164.135 230.764 163.695 237.029C162.575 238.34 161.402 239.183 159.902 240.024C156.434 240.239 154.691 238.213 154.253 234.971C153.342 228.231 152.034 207.698 158.179 202.785Z"/>
	<path fill="#3D405B" transform="scale(1.6 1.6)" d="M240.259 438.072C238.85 435.634 252.401 405.56 263.233 403.308L263.419 403.757C266.465 405.83 266.747 407.611 266.531 411.057C262.345 415.945 258.185 420.458 254.891 426.051C250.554 433.417 249.649 445.25 240.259 438.072Z"/>
	<path fill="#3D405B" transform="scale(1.6 1.6)" d="M460.925 490.062C452.417 478.878 455.623 458.661 435.438 451.851C432.703 450.929 423.718 449.86 422.7 446.696C420.835 440.899 431.876 439.28 435.287 437.818C455.16 429.297 454.974 403.651 462.975 402.796C474.831 401.529 463.228 429.659 495.508 439.549C499.69 440.83 502.388 441.025 502.769 445.771C502.01 448.748 500.799 450.562 497.794 451.356C480.124 452.981 470.65 466.654 468.083 482.903L467.259 486.88C465.338 488.735 463.627 489.836 460.925 490.062Z"/>
	<path fill="#FDE73C" transform="scale(1.6 1.6)" d="M462.751 420.92C464.1 422.56 464.973 425.818 465.921 427.809C469.549 435.426 475.506 439.951 482.236 444.64C471.751 453.044 469.473 454.233 462.625 467.257L462.207 467.331C457.966 456.866 451.788 449.931 441.752 444.831C450.944 439.264 458.617 430.845 462.751 420.92Z"/>
	<path fill="#3D405B" transform="scale(1.6 1.6)" d="M126.545 433.833C128.055 432.505 129.437 430.286 130.725 428.676C147.801 407.34 167.23 386.366 190.564 371.71C199.122 366.335 208.288 361.796 217.084 356.815C246.659 340.065 272.423 315.324 275.719 279.773C276.609 270.166 275.622 260.554 275.084 250.962C273.119 215.945 284.406 191.842 311.634 170.907C316.06 167.504 339.657 147.724 340.605 147.664C343.223 147.499 345.811 150.199 345.585 152.81C345.274 156.413 339.667 159.722 337.222 161.871L324.219 173.513C328.972 180.137 334.708 186.356 340.06 192.507C343.898 188.349 359.283 170.178 364.028 174.737C369.156 179.665 360.018 184.777 356.89 187.626C353.075 191.102 349.45 194.78 345.825 198.452C350.223 204.432 356.019 209.641 360.85 215.309C365.183 211.115 375.354 201.001 379.942 198.192C384.559 195.366 390.043 200.712 385.767 204.948C380.916 209.755 371.921 216.623 366.419 221.066C371.282 227.268 377.293 232.562 382.042 238.799C384.86 235.752 399.808 221.026 402.882 219.79C404.896 219.838 408.41 222.3 408.59 224.366C408.778 226.526 390.791 242.411 387.908 245.274C393.039 250.483 397.563 256.45 402.395 261.951C407.818 256.307 420.731 240.062 428.302 243.827C429.416 246.631 430.436 248.607 428.153 251.052C423.74 255.779 413.861 263.613 408.52 268.306C413.08 273.853 417.637 279.306 422.499 284.595C427.884 279.422 439.283 268.384 445.552 265.13C454.679 271.187 445.173 275.767 440.098 280.26C435.975 283.91 432.053 287.771 428.179 291.681C433.478 297.116 438.977 302.442 443.885 308.235C448.74 303.026 461.307 290.732 467.395 288.066C469.513 289.678 470.868 291.09 472.141 293.447C469.458 297.351 454.019 310.68 449.331 314.416C454.249 319.424 458.324 325.116 463.404 330.038C470.426 324.61 478.788 315.599 485.249 311.279C485.339 311.293 485.429 311.306 485.519 311.322L485.968 311.405C488.639 311.873 492.974 313.973 491.679 317.315C490.89 319.349 471.161 336.075 467.326 339.404C450.357 354.135 437.068 369.177 413.45 370.397C376.072 372.327 351.114 352.678 311.935 372.722C305.981 375.768 306.664 379.345 299.168 375.487C297.728 364.787 318.978 359.436 327.267 357.147C363.87 347.04 393.117 367.501 422.858 359.792C413.758 350.536 405.36 340.864 396.779 331.142L377.727 309.775C373.518 305.004 358.103 290.178 358.174 284.893C358.222 281.342 364.102 280.884 366.115 283.165C387.729 307.65 408.775 332.76 431.308 356.409C438.906 351.368 450.906 342.986 457.253 336.313C447.479 325.722 438.469 314.544 428.9 303.786L348.704 213.803C338.551 202.486 327.291 189.637 316.89 178.778C307.756 185.82 300.023 193.751 293.597 203.352C296.883 206.446 342.326 255.347 342.379 256.709C342.491 259.536 339.93 262.268 337.172 262.54C332.114 260.922 295.924 217.93 289.337 210.742C278.829 233.437 286.639 257.262 284.633 280.935C281.13 322.298 250.461 349.452 215.957 368.235C181.531 386.977 166.069 400.127 140.471 431.443C128.444 446.157 106.244 470.562 113.617 490.57C127.902 529.337 182.078 487.193 199.752 472.946C203.451 469.964 206.485 466.104 210.382 463.424C212.109 463.958 213.73 464.307 215.142 465.513C218.506 473.423 213.67 473.626 208.017 478.019C198.89 485.111 191.61 491.151 181.896 497.895C164.677 509.017 137.56 524.862 117.806 510.55C87.5678 488.641 108.896 457.708 125.063 435.759L126.545 433.833Z"/>
	<path fill="#BC6C25" transform="scale(1.6 1.6)" d="M293.597 203.352C300.023 193.751 307.756 185.82 316.89 178.778C327.291 189.637 338.551 202.486 348.704 213.803L428.9 303.786C438.469 314.544 447.479 325.722 457.253 336.313C450.906 342.986 438.906 351.368 431.308 356.409C408.775 332.76 387.729 307.65 366.115 283.165C364.102 280.884 358.222 281.342 358.174 284.893C358.103 290.178 373.518 305.004 377.727 309.775L396.779 331.142C405.36 340.864 413.758 350.536 422.858 359.792C393.117 367.501 363.87 347.04 327.267 357.147C318.978 359.436 297.728 364.787 299.168 375.487C294.618 375.492 289.842 380.402 286.577 383.189C277.617 381.62 276.594 382.929 275.548 391.828C275.498 391.862 263.647 403.495 263.419 403.757L263.233 403.308C252.401 405.56 238.85 435.634 240.259 438.072C238.915 438.634 231.001 445.725 230.918 448.012C232.276 450.896 232.053 456.947 228.205 457.884C222.605 458.323 217.595 460.236 215.142 465.513C213.73 464.307 212.109 463.958 210.382 463.424C206.485 466.104 203.451 469.964 199.752 472.946C182.078 487.193 127.902 529.337 113.617 490.57C106.244 470.562 128.444 446.157 140.471 431.443C166.069 400.127 181.531 386.977 215.957 368.235C250.461 349.452 281.13 322.298 284.633 280.935C286.639 257.262 278.829 233.437 289.337 210.742C295.924 217.93 332.114 260.922 337.172 262.54C339.93 262.268 342.491 259.536 342.379 256.709C342.326 255.347 296.883 206.446 293.597 203.352Z"/>
	<path fill="#3D405B" transform="scale(1.6 1.6)" d="M228.205 457.884C219.439 458.201 219.233 444.937 230.918 448.012C232.276 450.896 232.053 456.947 228.205 457.884Z"/>
	<path fill="#3D405B" transform="scale(1.6 1.6)" d="M140.073 459.122C159.912 457.938 168.058 485.285 144.514 491.98C123.926 495.456 117.119 463.883 140.073 459.122Z"/>
	<path fill="white" transform="scale(1.6 1.6)" d="M140.41 468.212C151.393 467.917 155.051 479.777 144.171 483.592C133.242 484.648 129.749 471.276 140.41 468.212Z"/>
</svg>
