<?xml version="1.0" encoding="utf-8" ?>
<svg xmlns="http://www.w3.org/2000/svg" xmlns:xlink="http://www.w3.org/1999/xlink" width="1024" height="1023">
	<path fill="#F4F1DE" transform="scale(1.6 1.6)" d="M459.25 487.729L459.497 488.433C456.673 501.95 433.013 524.354 422.252 531.47C386.685 554.99 354.983 561.274 312.684 560.408C246.262 559.047 213.133 538.264 164.62 492.021C148.459 476.616 133.428 461.164 120.991 442.513C77.7709 377.7 69.9834 290.853 97.6105 218.313C115.354 171.724 141.522 145.813 182.496 118.502C233.134 84.7494 268.083 75.1968 328.751 80.8959C381.302 85.8327 417.925 94.8267 463.691 124.952C485.397 139.239 497.997 151.643 512.642 173.624C533.093 204.319 554.715 253.397 558.468 290.261C561.39 318.964 554.706 343.877 545.94 370.737C543.25 378.981 538.456 398.778 530.949 403.674L530.564 403.919C539.644 408.625 547.285 424.888 538.696 433.255C535.893 434.157 533.478 434.283 530.667 433.207C529.077 435.144 527.354 437.101 526.982 439.654C527.283 440.999 527.579 442.345 527.901 443.685C526.724 447.598 523.786 450.689 521.154 453.705C505.286 471.885 483.552 485.101 459.25 487.729Z"/>
	<path fill="#3D405B" transform="scale(1.6 1.6)" d="M398.77 319.757C405.311 321.344 411.326 324.732 405.103 331.259C403.1 330.817 401.584 329.936 399.829 328.922C399.382 325.866 399.041 322.833 398.77 319.757Z"/>
	<path fill="white" transform="scale(1.6 1.6)" d="M225.96 149.223C238.417 146.355 263.122 149.187 274.294 157.558C271.913 161.617 269.407 165.728 267.327 169.946C264.513 168.063 260.214 167.669 257.753 165.31C259.06 151.065 240.278 156.707 229.296 155.12C228.094 153.186 226.924 151.288 225.96 149.223Z"/>
	<path fill="#3D405B" transform="scale(1.6 1.6)" d="M339.867 272.576C356.52 278.686 372.935 288.987 386.774 299.848C391.587 303.626 398.509 307.587 392.57 313.937C390.896 314.85 389.437 314.744 387.603 314.692C377.517 304.404 364.878 296.5 352.104 289.966C343.602 285.617 336.606 285.661 334.733 276.139C336.286 274.707 337.954 273.489 339.867 272.576Z"/>
	<path fill="#3D405B" transform="scale(1.6 1.6)" d="M205.222 292.722C210.657 297.297 208.415 318.913 208.776 325.646C209.241 334.317 210.26 343.159 211.732 351.719C213.748 363.442 216.989 362.141 210.999 372.396C203.974 370.261 203.82 364.949 202.55 358.598C199.412 342.916 196.13 312.543 198.909 296.171C200.892 294.357 202.997 294.006 205.222 292.722Z"/>
	<path fill="#3D405B" transform="scale(1.6 1.6)" d="M212.799 447.478C219.066 449.55 218.161 457.087 212.544 459.643C204.724 463.201 195.579 457.638 191.172 468.245C183.319 487.147 222.528 483.191 230.125 479.344C236.544 476.093 243.077 464.546 249.482 464.541C254.687 476.056 237.725 488.675 229.406 491.704C223.647 493.8 216.582 492.761 210.586 492.801C198.194 492.883 187.003 494.266 181.558 479.222C176.216 464.46 187.317 451.481 201.856 449.242C205.518 448.678 209.283 448.802 212.799 447.478Z"/>
	<path fill="#3D405B" transform="scale(1.6 1.6)" d="M190.849 197.459C188.351 194.93 188.449 149.446 189.621 140.583C192.294 120.379 219.795 143.27 225.96 149.223C226.924 151.288 228.094 153.186 229.296 155.12C240.278 156.707 259.06 151.065 257.753 165.31L257.22 165.468L256.031 165.8C239.579 170.301 215.09 165.834 202.989 186.08C200.139 190.847 199.342 195.383 194.553 198.864L190.849 197.459Z"/>
	<path fill="#EB3231" transform="scale(1.6 1.6)" d="M200.897 143.707C208.677 147.57 215.484 153.416 222.178 158.869C219.643 160.286 216.989 161.53 214.393 162.834C209.843 165.074 205.528 167.418 201.323 170.273C201.033 161.433 201.068 152.554 200.897 143.707Z"/>
	<path fill="#3D405B" transform="scale(1.6 1.6)" d="M422.261 360.881C431.574 360.864 431.6 368.072 434.725 376.338C446.016 406.206 446.714 419.774 446.558 450.252C469.825 443.525 481.022 436.17 497.575 419.338C506.588 410.172 516.186 398.497 530.564 403.919C539.644 408.625 547.285 424.888 538.696 433.255C535.893 434.157 533.478 434.283 530.667 433.207C529.077 435.144 527.354 437.101 526.982 439.654C527.283 440.999 527.579 442.345 527.901 443.685C526.724 447.598 523.786 450.689 521.154 453.705C505.286 471.885 483.552 485.101 459.25 487.729C448.947 488.144 438.975 489.447 429.035 485.627C415.523 492.954 408.664 492.82 393.554 492.83L372.51 492.832C366.156 492.831 346.456 496.155 345.333 487.79C346.448 485.848 347.275 483.577 348.27 481.55C364.916 481.617 396.838 484.285 412.393 481.073C449.361 473.437 435.955 405.044 424.569 379.303C422.785 375.27 420.272 371.437 419.383 367.078L419.289 366.606C419.825 364.44 420.572 362.409 422.261 360.881Z"/>
	<path fill="#FCD23F" transform="scale(1.6 1.6)" d="M445.21 460.688C470.708 458.91 488.683 443.452 505.96 426.326C510.754 421.574 521.232 407.428 528.446 416.147C532.25 420.743 531.168 427.722 530.667 433.207C529.077 435.144 527.354 437.101 526.982 439.654C525.182 439.178 523.448 438.49 521.703 437.846C517.08 439.86 513.608 446.213 510.221 449.945C492.228 469.77 463.682 479.966 437.236 477.269C441.066 472.239 443.39 466.684 445.21 460.688Z"/>
	<path fill="#BC6C25" transform="scale(1.6 1.6)" d="M274.294 157.558C280.458 149.009 303.9 122.219 306.071 148.121C306.861 157.547 306.713 187.6 300.351 194.179C300.194 198.63 299.957 207.712 301.801 211.711L302.14 211.905C309.187 213.715 310.179 221.935 312.485 227.906C317.002 239.606 322.199 247.392 326.77 257.557C325.797 259.837 324.721 262.042 323.596 264.251C326.473 268.613 329.807 273.374 334.366 276.132L334.733 276.139C336.606 285.661 343.602 285.617 352.104 289.966C364.878 296.5 377.517 304.404 387.603 314.692C389.437 314.744 390.896 314.85 392.57 313.937C394.699 315.093 396.906 318.096 398.77 319.757C399.041 322.833 399.382 325.866 399.829 328.922C401.584 329.936 403.1 330.817 405.103 331.259C410.307 338.769 420.854 351.7 422.261 360.881C420.572 362.409 419.825 364.44 419.289 366.606L419.383 367.078C420.272 371.437 422.785 375.27 424.569 379.303C435.955 405.044 449.361 473.437 412.393 481.073C396.838 484.285 364.916 481.617 348.27 481.55C347.275 483.577 346.448 485.848 345.333 487.79C344.016 486.448 333.381 486.089 331.309 486.458L331.182 487.623C329.444 491.336 328.477 492.765 324.041 492.893C314.419 493.171 290.132 493.77 282.761 492.001C264.203 487.546 264.841 467.369 277.206 455.182C272.247 450.593 267.311 445.987 262.433 441.311C259.446 448.341 259.401 454.617 250.915 457.292C249.697 459.942 249.045 461.593 249.482 464.541C243.077 464.546 236.544 476.093 230.125 479.344C222.528 483.191 183.319 487.147 191.172 468.245C195.579 457.638 204.724 463.201 212.544 459.643C218.161 457.087 219.066 449.55 212.799 447.478C212.359 443.607 212.799 438.506 213.78 434.773C211.899 433.501 210.142 432.173 208.789 430.32C208.876 421.235 204.972 392.366 206.41 389.407C207.217 387.745 208.757 386.833 210.455 386.297C210.515 386.025 211.003 372.422 210.999 372.396C216.989 362.141 213.748 363.442 211.732 351.719C210.26 343.159 209.241 334.317 208.776 325.646C208.415 318.913 210.657 297.297 205.222 292.722C203.955 290.142 204.672 279.821 204.712 276.336C176.208 271.07 145.823 258.577 142.382 225.562C146.83 215.646 156.013 208.914 163.538 219.825C170.297 217.582 187.995 205.242 189.062 205.37L189.562 205.252C190.202 204.491 190.209 203.779 190.406 202.815C190.74 201.025 191.122 199.294 190.849 197.459L194.553 198.864C199.342 195.383 200.139 190.847 202.989 186.08C215.09 165.834 239.579 170.301 256.031 165.8L257.22 165.468L257.753 165.31C260.214 167.669 264.513 168.063 267.327 169.946C269.407 165.728 271.913 161.617 274.294 157.558Z"/>
	<path fill="#E2B497" transform="scale(1.6 1.6)" d="M190.849 197.459L194.553 198.864C193.443 200.401 192.274 202.18 190.406 202.815C190.74 201.025 191.122 199.294 190.849 197.459Z"/>
	<path fill="#3D405B" transform="scale(1.6 1.6)" d="M223.058 196.617C232.459 197.068 229.338 208.534 220.837 210.411C210.2 209.499 215.183 198.554 223.058 196.617Z"/>
	<path fill="#3D405B" transform="scale(1.6 1.6)" d="M210.455 386.297C211.903 386.656 214.59 387.004 215.516 388.271C217.741 391.312 222.946 430.084 216.961 433.641C215.966 434.232 214.795 434.283 213.78 434.773C211.899 433.501 210.142 432.173 208.789 430.32C208.876 421.235 204.972 392.366 206.41 389.407C207.217 387.745 208.757 386.833 210.455 386.297Z"/>
	<path fill="#3D405B" transform="scale(1.6 1.6)" d="M302.14 211.905C309.187 213.715 310.179 221.935 312.485 227.906C317.002 239.606 322.199 247.392 326.77 257.557C325.797 259.837 324.721 262.042 323.596 264.251C314.145 267.172 298.35 224.606 298.398 216.009C299.506 214.465 300.662 213.11 302.14 211.905Z"/>
	<path fill="#3D405B" transform="scale(1.6 1.6)" d="M274.294 157.558C280.458 149.009 303.9 122.219 306.071 148.121C306.861 157.547 306.713 187.6 300.351 194.179C286.666 197.141 293.823 180.12 294.529 172.668C295.249 165.057 295.058 157.406 295.675 149.795C280.161 164.656 278.776 173.533 270.577 190.422C267.722 196.302 261.862 194.406 260.28 188.997C261.705 182.138 265.452 176.534 267.327 169.946C269.407 165.728 271.913 161.617 274.294 157.558Z"/>
	<path fill="#3D405B" transform="scale(1.6 1.6)" d="M163.538 219.825C170.297 217.582 187.995 205.242 189.062 205.37C199.604 218.576 173.542 229.035 164.096 230.534C160.88 231.045 157.584 231.182 154.4 231.863C164.792 262.317 207.273 269.333 235.472 264.466C240.553 263.589 245.379 261.759 250.291 260.889C272.347 280.27 211.255 276.416 204.712 276.336C176.208 271.07 145.823 258.577 142.382 225.562C146.83 215.646 156.013 208.914 163.538 219.825Z"/>
	<path fill="#3D405B" transform="scale(1.6 1.6)" d="M250.915 457.292C248.658 453.552 248.32 452.38 249.403 448.016C253.723 430.609 258.145 415.536 258.52 397.103C258.594 393.501 257.782 386.787 261.429 384.672C276.818 375.742 266.209 428.097 265.381 431.823C271.731 435.199 282.727 446.696 289.93 452.042C287.067 435.645 287.958 418.758 297.859 404.735C304.408 395.457 336.856 371.939 332.249 394.358C328.895 395.901 325.355 397.007 322.059 398.672C302.925 408.333 296.065 427.841 300.695 448.079C305.506 469.108 301.071 464.15 284.588 465.007C282.076 466.515 279.981 468.186 279.245 471.19C276.585 482.046 289.618 481.126 296.359 481.217L316.753 481.593C320.601 481.701 324.682 481.624 328.469 482.322C330.035 484.016 330.91 485.301 331.182 487.623C329.444 491.336 328.477 492.765 324.041 492.893C314.419 493.171 290.132 493.77 282.761 492.001C264.203 487.546 264.841 467.369 277.206 455.182C272.247 450.593 267.311 445.987 262.433 441.311C259.446 448.341 259.401 454.617 250.915 457.292Z"/>
</svg>
