<?xml version="1.0" encoding="utf-8" ?>
<svg xmlns="http://www.w3.org/2000/svg" xmlns:xlink="http://www.w3.org/1999/xlink" width="1024" height="1023">
	<path fill="#3D405B" transform="scale(1.6 1.6)" d="M125.079 532.691C133.388 531.555 139.79 539.211 130.78 543.415C122.325 544.227 115.826 536.513 125.079 532.691Z"/>
	<path fill="#3D405B" transform="scale(1.6 1.6)" d="M217.369 96.4627C219.472 97.2612 220.842 98.2065 221.784 100.33C221.772 101.819 221.571 103.085 221.241 104.533C217.322 108.921 209.602 113.788 204.05 115.868C202.739 115.44 201.406 115.043 200.122 114.54C190.519 106.445 211.818 98.3086 217.369 96.4627Z"/>
	<path fill="#3D405B" transform="scale(1.6 1.6)" d="M516.14 358.405C518.327 359.513 519.97 360.525 521.603 362.409C520.703 375.063 515.309 401.938 512.315 415.332C510.457 417.282 508.373 418.943 505.818 419.896C505.267 419.095 504.532 418.479 503.83 417.811C503.429 409.644 508.271 361.805 516.14 358.405Z"/>
	<path fill="#3D405B" transform="scale(1.6 1.6)" d="M111.642 437.193L111.878 437.462C123.437 450.838 128.616 460.569 143.519 473.391C145.731 475.294 148.143 477.043 149.71 479.546C149.116 482.111 148.357 484.006 146.778 486.166C138.247 488.842 106.029 449.794 104.835 444.009C104.066 440.286 108.552 437.645 111.642 437.193Z"/>
	<path fill="#3D405B" transform="scale(1.6 1.6)" d="M498.38 250.883C502.267 234.01 519.003 244.694 527.726 248.692C535.264 252.821 559.356 266.35 565.594 272.011C574.081 279.712 565.059 296.135 562.243 304.565C559.872 311.663 557.138 323.994 553.695 330.034C541.7 351.077 525.026 324.192 520.424 312.228C519.709 308.181 517.312 303.946 515.81 300.101C509.802 284.73 503.797 270.642 504.394 253.748C502.171 253.067 500.116 252.528 498.38 250.883Z"/>
	<path fill="#E07A5F" transform="scale(1.6 1.6)" d="M514.184 253.204C521.482 255.459 553.635 275.575 559.136 280.589C558.038 291.24 551.805 305.878 548.589 316.644C547.154 321.01 545.897 324.456 542.856 327.957C526.725 317.369 515.529 273.243 514.184 253.204Z"/>
	<path fill="#F4F1DE" transform="scale(1.6 1.6)" d="M221.784 100.33C227.322 97.5407 235.235 95.8677 241.33 94.0021C278.764 82.5436 313.283 80.2269 351.577 86.3497C418.906 97.1148 486.355 143.936 517.04 204.893C521.997 214.741 532.212 238.034 527.726 248.692C519.003 244.694 502.267 234.01 498.38 250.883C500.116 252.528 502.171 253.067 504.394 253.748C503.797 270.642 509.802 284.73 515.81 300.101C517.312 303.946 519.709 308.181 520.424 312.228C517.768 318.302 520.736 349.511 516.14 358.405C508.271 361.805 503.429 409.644 503.83 417.811C504.532 418.479 505.267 419.095 505.818 419.896C504.594 422.553 504.038 425.364 503.441 428.211C506.206 428.689 507.372 430.127 508.652 432.403C508.508 437.868 506.902 443.534 505.965 448.924C503.734 461.754 502.515 474.757 501.608 487.74C501.345 491.505 502.409 500.085 499.821 502.924C497.997 504.783 498.686 506.808 498.971 509.164L499.743 510.391C505.753 514.932 526.382 534.934 515.438 542.271C511.884 544.653 484.615 543.481 478.952 542.521C473.925 537.781 465.694 498.962 462.176 489.576C458.224 497.906 457.515 506.632 449.589 513.469C463.723 520.687 462.662 540.619 454.197 542.941C449.806 544.145 438.513 543.442 433.514 543.442L171.692 543.436C164.85 543.435 145.872 545.937 144.509 538.716C142.686 529.058 177.059 533.301 184.924 532.552C192.667 531.647 204.815 532.948 213.689 532.391C208.313 527.513 202.708 524.719 196.429 521.283C178.61 511.53 161.734 499.936 146.778 486.166C148.357 484.006 149.116 482.111 149.71 479.546C148.143 477.043 145.731 475.294 143.519 473.391C128.616 460.569 123.437 450.838 111.878 437.462L111.642 437.193C111.924 437.101 111.756 437.187 112.047 436.796C110.212 429.853 105.593 423.237 102.506 416.749C78.6561 366.616 75.3193 305.071 90.2944 252.042C103.859 204.01 130.836 164.924 169.008 132.802C175.813 127.075 183.663 120.384 191.737 116.56C194.369 115.313 197.392 115.537 200.122 114.54C201.406 115.043 202.739 115.44 204.05 115.868C209.602 113.788 217.322 108.921 221.241 104.533C221.571 103.085 221.772 101.819 221.784 100.33ZM498.38 250.883C497.963 252.921 494.216 256.205 491.981 255.973L491.841 255.706C484.591 267.958 438.02 267.596 426.234 257.426C424.741 257.289 424.09 256.505 423.039 255.509C421.447 254.259 417.81 253.205 417.4 251.138C414.593 254.238 415.315 259.164 414.839 263.05C412.639 281.003 404.153 300.328 395.561 315.928C393.958 318.838 388.851 326.51 388.315 329.328C385.592 333.473 381.706 336.741 376.724 337.573C377.094 344.516 378.697 346.502 381.129 352.206C379.712 354.601 368.603 380.491 368.741 382.121C367.643 384.087 366.155 385.058 364.319 386.284C363.476 387.576 362.686 388.655 361.511 389.68C364.682 395.818 356.596 400.093 352.768 403.703C317.055 437.386 297.719 483.789 297.814 532.907C311.271 532.525 324.781 532.762 338.247 532.762L434.088 532.781C439.248 532.777 445.238 533.205 450.274 532.128C449.125 511.865 421.923 520.795 410.933 517.544C407.34 516.482 405.374 512.784 408.128 509.781C410.991 506.659 422.6 507.73 426.698 507.733L431.221 507.738C431.277 494.988 429.037 473.802 415.836 467.298C412.814 465.81 406.749 464.612 406.759 460.337C406.795 445.77 426.772 463.801 430.292 468.379C439.693 480.61 440.307 496.378 441.146 511.19C443.91 511.931 446.927 512.451 449.589 513.469C457.515 506.632 458.224 497.906 462.176 489.576C465.694 498.962 473.925 537.781 478.952 542.521C484.615 543.481 511.884 544.653 515.438 542.271C526.382 534.934 505.753 514.932 499.743 510.391L498.971 509.164C498.686 506.808 497.997 504.783 499.821 502.924C502.409 500.085 501.345 491.505 501.608 487.74C502.515 474.757 503.734 461.754 505.965 448.924C506.902 443.534 508.508 437.868 508.652 432.403C507.372 430.127 506.206 428.689 503.441 428.211C504.038 425.364 504.594 422.553 505.818 419.896C505.267 419.095 504.532 418.479 503.83 417.811C503.429 409.644 508.271 361.805 516.14 358.405C520.736 349.511 517.768 318.302 520.424 312.228C519.709 308.181 517.312 303.946 515.81 300.101C509.802 284.73 503.797 270.642 504.394 253.748C502.171 253.067 500.116 252.528 498.38 250.883Z"/>
	<path fill="#F4BFA8" transform="scale(1.6 1.6)" d="M423.039 255.509C424.506 255.035 425.872 254.347 427.262 253.687C426.844 254.934 426.466 256.127 426.234 257.426C424.741 257.289 424.09 256.505 423.039 255.509Z"/>
	<path fill="#3D405B" transform="scale(1.6 1.6)" d="M430.141 251.519C434.809 251.361 439.414 253.035 443.99 253.82C457.548 256.145 469.797 254.646 482.988 251.084C488.41 249.621 489.541 250.097 491.841 255.706C484.591 267.958 438.02 267.596 426.234 257.426C426.466 256.127 426.844 254.934 427.262 253.687C428.205 252.948 429.135 252.172 430.141 251.519Z"/>
	<path fill="#3D405B" transform="scale(1.6 1.6)" d="M376.724 337.573C361.535 335.495 353.078 300.699 350.357 288.141C348.947 281.636 349.767 275.517 355.105 270.977C364.037 263.379 402.94 240.732 409.677 241.534C414.285 242.083 414.755 248.274 417.4 251.138C414.593 254.238 415.315 259.164 414.839 263.05C412.639 281.003 404.153 300.328 395.561 315.928C393.958 318.838 388.851 326.51 388.315 329.328C385.592 333.473 381.706 336.741 376.724 337.573Z"/>
	<path fill="#E07A5F" transform="scale(1.6 1.6)" d="M406.789 251.873L407.107 252.342C404.432 269.677 391.028 315.214 376.326 326.915C373.478 323.976 371.963 319.746 370.381 316.038C368.215 310.792 358.184 285.728 359.885 281.381C361.686 276.779 400.796 254.576 406.789 251.873Z"/>
	<path fill="#3D405B" transform="scale(1.6 1.6)" d="M245.922 532.882C224.187 511.16 209.156 472.93 202.034 443.495C196.533 420.759 183.289 372.723 216.278 365.332C226.586 363.023 233.809 372.989 218.499 375.463C198.287 378.73 206.336 411.643 208.515 424.78C214.391 460.203 232.251 511.813 262.953 532.994C271.039 532.404 279.349 532.757 287.465 532.759C288.256 476.568 308.323 432.255 348.068 393.803C350.779 391.18 355.542 384.78 359.598 387.847L361.511 389.68C364.682 395.818 356.596 400.093 352.768 403.703C317.055 437.386 297.719 483.789 297.814 532.907C311.271 532.525 324.781 532.762 338.247 532.762L434.088 532.781C439.248 532.777 445.238 533.205 450.274 532.128C449.125 511.865 421.923 520.795 410.933 517.544C407.34 516.482 405.374 512.784 408.128 509.781C410.991 506.659 422.6 507.73 426.698 507.733L431.221 507.738C431.277 494.988 429.037 473.802 415.836 467.298C412.814 465.81 406.749 464.612 406.759 460.337C406.795 445.77 426.772 463.801 430.292 468.379C439.693 480.61 440.307 496.378 441.146 511.19C443.91 511.931 446.927 512.451 449.589 513.469C463.723 520.687 462.662 540.619 454.197 542.941C449.806 544.145 438.513 543.442 433.514 543.442L171.692 543.436C164.85 543.435 145.872 545.937 144.509 538.716C142.686 529.058 177.059 533.301 184.924 532.552C202.17 534.518 227.767 532.539 245.922 532.882Z"/>
	<path fill="#E07A5F" transform="scale(1.6 1.6)" d="M498.38 250.883C500.116 252.528 502.171 253.067 504.394 253.748C503.797 270.642 509.802 284.73 515.81 300.101C517.312 303.946 519.709 308.181 520.424 312.228C517.768 318.302 520.736 349.511 516.14 358.405C508.271 361.805 503.429 409.644 503.83 417.811C504.532 418.479 505.267 419.095 505.818 419.896C504.594 422.553 504.038 425.364 503.441 428.211C506.206 428.689 507.372 430.127 508.652 432.403C508.508 437.868 506.902 443.534 505.965 448.924C503.734 461.754 502.515 474.757 501.608 487.74C501.345 491.505 502.409 500.085 499.821 502.924C497.997 504.783 498.686 506.808 498.971 509.164L499.743 510.391C505.753 514.932 526.382 534.934 515.438 542.271C511.884 544.653 484.615 543.481 478.952 542.521C473.925 537.781 465.694 498.962 462.176 489.576C458.224 497.906 457.515 506.632 449.589 513.469C446.927 512.451 443.91 511.931 441.146 511.19C440.307 496.378 439.693 480.61 430.292 468.379C426.772 463.801 406.795 445.77 406.759 460.337C406.749 464.612 412.814 465.81 415.836 467.298C429.037 473.802 431.277 494.988 431.221 507.738L426.698 507.733C422.6 507.73 410.991 506.659 408.128 509.781C405.374 512.784 407.34 516.482 410.933 517.544C421.923 520.795 449.125 511.865 450.274 532.128C445.238 533.205 439.248 532.777 434.088 532.781L338.247 532.762C324.781 532.762 311.271 532.525 297.814 532.907C297.719 483.789 317.055 437.386 352.768 403.703C356.596 400.093 364.682 395.818 361.511 389.68C362.686 388.655 363.476 387.576 364.319 386.284C366.155 385.058 367.643 384.087 368.741 382.121C368.603 380.491 379.712 354.601 381.129 352.206C378.697 346.502 377.094 344.516 376.724 337.573C381.706 336.741 385.592 333.473 388.315 329.328C388.851 326.51 393.958 318.838 395.561 315.928C404.153 300.328 412.639 281.003 414.839 263.05C415.315 259.164 414.593 254.238 417.4 251.138C417.81 253.205 421.447 254.259 423.039 255.509C424.09 256.505 424.741 257.289 426.234 257.426C438.02 267.596 484.591 267.958 491.841 255.706L491.981 255.973C494.216 256.205 497.963 252.921 498.38 250.883ZM388.315 329.328C385.592 333.473 381.706 336.741 376.724 337.573C377.094 344.516 378.697 346.502 381.129 352.206C384.109 352.346 386.107 352.618 388.462 354.616C391.004 348.191 391.228 335.635 388.315 329.328Z"/>
	<path fill="#F7A891" transform="scale(1.6 1.6)" d="M491.078 501.423C492.774 501.709 494.471 501.991 496.163 502.301L499.821 502.924C497.997 504.783 498.686 506.808 498.971 509.164L499.743 510.391C498.192 511.386 496.61 512.549 494.97 513.374C492.473 511.596 491.399 504.374 491.078 501.423Z"/>
	<path fill="#F4BFA8" transform="scale(1.6 1.6)" d="M496.163 502.301L499.821 502.924C497.997 504.783 498.686 506.808 498.971 509.164C497.609 508.466 496.231 507.805 494.851 507.145C494.921 505.398 494.438 503.322 496.163 502.301Z"/>
	<path fill="#3D405B" transform="scale(1.6 1.6)" d="M381.129 352.206C384.109 352.346 386.107 352.618 388.462 354.616C388.812 360.887 382.854 377.919 378.558 382.744C376.032 385.581 371.542 383.487 368.741 382.121C368.603 380.491 379.712 354.601 381.129 352.206Z"/>
	<path fill="#3D405B" transform="scale(1.6 1.6)" d="M491.76 288.846C506.572 288.201 507.411 308.632 495.221 310.491C479.95 309.878 478.419 291.614 491.76 288.846Z"/>
	<path fill="#3D405B" transform="scale(1.6 1.6)" d="M427.764 288.535C441.881 288.289 443.803 306.908 430.498 309.972C416.183 310.252 413.784 290.733 427.764 288.535Z"/>
	<path fill="#3D405B" transform="scale(1.6 1.6)" d="M503.441 428.211C506.206 428.689 507.372 430.127 508.652 432.403C508.508 437.868 506.902 443.534 505.965 448.924C503.734 461.754 502.515 474.757 501.608 487.74C501.345 491.505 502.409 500.085 499.821 502.924L496.163 502.301C494.471 501.991 492.774 501.709 491.078 501.423C489.672 493.025 494.021 433.221 503.441 428.211Z"/>
	<path fill="#3D405B" transform="scale(1.6 1.6)" d="M462.176 489.576C462.209 484.691 459.498 477.673 463.225 473.64C470.581 465.681 475.855 501.926 476.81 505.546C479.161 514.455 481.977 523.167 484.133 532.149C492.27 532.994 500.354 532.584 508.51 532.808L508.279 532.561C501.966 525.897 496.429 523.309 494.97 513.374C496.61 512.549 498.192 511.386 499.743 510.391C505.753 514.932 526.382 534.934 515.438 542.271C511.884 544.653 484.615 543.481 478.952 542.521C473.925 537.781 465.694 498.962 462.176 489.576Z"/>
	<path fill="#3D405B" transform="scale(1.6 1.6)" d="M455.369 320.444C494.813 316.637 490.604 358.151 462.16 359.343C462.521 365.98 462.655 372.636 462.842 379.28C466.659 378.86 480.882 373.278 481.409 380.536C482.04 389.231 463.528 390.083 457.989 390.355C451.086 391.263 422.052 387.536 433.788 378.412C437.81 375.285 446.52 379.368 451.154 380.082L451.769 380.174C453.093 373.96 452.372 365.532 452.494 359.046C434.235 358.278 423.691 339.99 433.569 328.124C438.626 322.05 448.032 321.057 455.369 320.444Z"/>
</svg>
