<?xml version="1.0" encoding="utf-8" ?>
<svg xmlns="http://www.w3.org/2000/svg" xmlns:xlink="http://www.w3.org/1999/xlink" width="1024" height="1024">
	<path fill="#3D405B" transform="scale(1.6 1.6)" d="M213.324 552.718C215.377 552.391 224.374 551.276 225.744 551.449C229.412 556.358 215.557 564.202 213.324 552.718Z"/>
	<path fill="#3D405B" transform="scale(1.6 1.6)" d="M412.741 551.607C416.775 551.537 420.987 551.508 424.968 552.224C429.359 560.319 409.261 561.309 412.741 551.607Z"/>
	<path fill="#3D405B" transform="scale(1.6 1.6)" d="M135.007 271.69C134.939 267.423 134.436 246.13 143.361 250.825C145.924 257.345 143.678 269.183 140.123 274.835C137.747 274.723 136.499 273.349 135.007 271.69Z"/>
	<path fill="#3D405B" transform="scale(1.6 1.6)" d="M137.003 330.535C142.378 337.298 141.159 345.516 141.408 353.667C142.581 392.127 145.7 434.786 155.523 472.263C157.171 478.548 159.609 485.065 160.511 491.481C169.622 491.617 193.955 487.594 194.77 497.862C191.258 501.54 163.524 499.662 158.312 499.148C153.225 510.327 142.885 527.019 147.517 539.543C152.396 552.732 158.988 547.86 164.553 553.543C159.928 567.354 144.546 551.536 141.057 543.619C132.694 524.642 146.187 508.149 152.699 491.313C151.54 485.667 149.498 480.429 147.995 474.898C138.123 438.555 133.749 386.514 133.725 347.65C133.722 342.717 131.921 333.478 137.003 330.535Z"/>
	<path fill="#E07A5F" transform="scale(1.6 1.6)" d="M292.317 495.598C292.404 496.324 292.319 497.256 292.843 497.773C302.007 497.768 311.45 498.089 320.578 497.547C325.213 501.706 339.542 499.744 345.832 499.742L447.921 499.735C457.187 499.74 474.75 501.15 483.124 499.073C486.298 505.426 493.289 524.541 494.103 531.473C496.182 549.167 479.918 550.148 477.626 554.284C477.486 548.666 459.816 543.609 455.257 543.006C444.369 541.564 433.527 545.593 424.968 552.224C420.987 551.508 416.775 551.537 412.741 551.607C410.36 551.55 404.049 546.645 400.67 545.479C377.025 537.32 369.372 546.709 351.917 554.886L351.491 555.081C329.963 538.92 309.797 539.576 287.793 554.888C270.676 544.214 253.885 537.379 234.004 547.732C231.089 549.25 229.333 551.841 225.744 551.449C224.374 551.276 215.377 552.391 213.324 552.718C205.047 539.064 170.617 538.844 164.553 553.543C158.988 547.86 152.396 552.732 147.517 539.543C142.885 527.019 153.225 510.327 158.312 499.148C163.524 499.662 191.258 501.54 194.77 497.862C198.385 497.408 219.671 497.02 223.164 497.666C226.53 500.678 239.093 499.749 243.363 499.746L279.336 499.768C283.538 499.79 292.16 501.63 292.317 495.598Z"/>
	<path fill="#E07A5F" transform="scale(1.6 1.6)" d="M148.654 224.691C137.953 225.295 141.629 218.955 143.328 211.671C147.436 194.057 152.82 176.735 159.484 159.916C161.509 154.804 166.405 147.567 166.545 142.406C166.888 129.712 161.38 113.623 157.397 101.546C155.311 95.2199 150.788 87.9118 156.226 82.0131C165.137 72.3482 177.456 92.5056 189.193 93.7871C201.962 95.1811 205.828 84.596 216.722 82.9682C231.228 80.8007 239.114 100.827 261.214 94.1267C269.812 91.5199 273.372 83.5191 283.552 83.5256C296.093 83.5337 299.12 96.7409 321.751 96.5975C338.888 96.4889 343.417 84.9788 354.209 83.7993C367.12 82.3882 369.665 93.4718 383.048 95.1033C403.692 97.62 406.76 83.2853 419.958 82.6929C430.47 82.221 432.466 90.6261 440.42 92.6076C458.489 97.1086 468.4 74.8728 480.644 79.7158C491.798 84.1277 484.181 101.951 481.642 109.566C471.217 140.833 473.109 141.156 483.489 169.591C496.259 204.575 502.58 241.517 504.895 278.62C505.191 283.353 508.086 297.709 498.769 293.178C497.235 287.226 497.227 281.508 496.748 275.432C493.505 234.303 485.435 190.945 468.998 152.79C465.453 153.356 432.477 153.018 429.452 152.187C428.631 151.355 428.541 150.275 428.308 149.175C422.412 148.163 409.234 149.453 405.132 147.684C403.361 156.054 393.017 152.77 385.208 152.807L171.328 152.804C157.933 178.042 156.563 200.156 148.654 224.691Z"/>
	<path fill="#3D405B" transform="scale(1.6 1.6)" d="M148.654 224.691C137.953 225.295 141.629 218.955 143.328 211.671C147.436 194.057 152.82 176.735 159.484 159.916C161.509 154.804 166.405 147.567 166.545 142.406C166.888 129.712 161.38 113.623 157.397 101.546C155.311 95.2199 150.788 87.9118 156.226 82.0131C165.137 72.3482 177.456 92.5056 189.193 93.7871C201.962 95.1811 205.828 84.596 216.722 82.9682C231.228 80.8007 239.114 100.827 261.214 94.1267C269.812 91.5199 273.372 83.5191 283.552 83.5256C296.093 83.5337 299.12 96.7409 321.751 96.5975C338.888 96.4889 343.417 84.9788 354.209 83.7993C367.12 82.3882 369.665 93.4718 383.048 95.1033C403.692 97.62 406.76 83.2853 419.958 82.6929C430.47 82.221 432.466 90.6261 440.42 92.6076C458.489 97.1086 468.4 74.8728 480.644 79.7158C491.798 84.1277 484.181 101.951 481.642 109.566C471.217 140.833 473.109 141.156 483.489 169.591C496.259 204.575 502.58 241.517 504.895 278.62C505.191 283.353 508.086 297.709 498.769 293.178C497.235 287.226 497.227 281.508 496.748 275.432C493.505 234.303 485.435 190.945 468.998 152.79C465.453 153.356 432.477 153.018 429.452 152.187C428.631 151.355 428.541 150.275 428.308 149.175L428.887 145.594C437.734 143.711 457.123 144.439 466.842 144.738C467.383 134.251 468.305 124.537 471.477 114.455C473.099 109.3 480.759 92.5827 477.241 87.6459C471.87 85.6845 451.82 110.997 433.09 97.8756C418.444 87.6151 421.334 88.7989 406.825 97.6115C396.234 104.045 379.861 105.865 369.233 98.9214C354.768 89.4706 360.505 87.4089 342.032 98.4257C328.648 106.407 311.941 106.182 298.229 98.8625C294.466 96.8536 291.123 93.9346 287.237 92.1927C277.059 87.6301 261.433 113.943 232.759 98.1071C228.273 95.6296 224.526 92.1831 219.773 90.1263C205.293 93.8282 193.841 112.544 173.194 95.4132C172.854 95.1308 157.477 80.3412 160.195 89.1904C166.931 111.118 174.855 120.092 174.723 144.45C195.078 144.901 215.5 144.59 235.863 144.591L377.373 144.586C382.708 144.585 402.672 142.221 405.132 147.684C403.361 156.054 393.017 152.77 385.208 152.807L171.328 152.804C157.933 178.042 156.563 200.156 148.654 224.691Z"/>
	<path fill="#F4F1DE" transform="scale(1.6 1.6)" d="M405.132 147.684C409.234 149.453 422.412 148.163 428.308 149.175C428.541 150.275 428.631 151.355 429.452 152.187C432.477 153.018 465.453 153.356 468.998 152.79C485.435 190.945 493.505 234.303 496.748 275.432C497.227 281.508 497.235 287.226 498.769 293.178C498.163 296.247 498.609 321.954 499.014 322.707C510.992 319.822 506.76 332.675 506.829 341.272C507.164 382.905 502.65 435.95 492.074 475.737C490.707 480.88 488.69 486.385 488.211 491.661C493.778 505.744 506.269 526.642 499.651 541.768C496.941 547.961 483.071 568.215 477.626 554.284C479.918 550.148 496.182 549.167 494.103 531.473C493.289 524.541 486.298 505.426 483.124 499.073C474.75 501.15 457.187 499.74 447.921 499.735L345.832 499.742C339.542 499.744 325.213 501.706 320.578 497.547C311.45 498.089 302.007 497.768 292.843 497.773C292.319 497.256 292.404 496.324 292.317 495.598C292.16 501.63 283.538 499.79 279.336 499.768L243.363 499.746C239.093 499.749 226.53 500.678 223.164 497.666C219.671 497.02 198.385 497.408 194.77 497.862C193.955 487.594 169.622 491.617 160.511 491.481C159.609 485.065 157.171 478.548 155.523 472.263C145.7 434.786 142.581 392.127 141.408 353.667C141.159 345.516 142.378 337.298 137.003 330.535C138.909 324.839 138.863 293.867 139.163 286.353C139.317 282.51 140.011 278.645 140.123 274.835C143.678 269.183 145.924 257.345 143.361 250.825C143.729 242.06 145.999 233.034 148.654 224.691C156.563 200.156 157.933 178.042 171.328 152.804L385.208 152.807C393.017 152.77 403.361 156.054 405.132 147.684Z"/>
	<path fill="#3D405B" transform="scale(1.6 1.6)" d="M226.556 491.452C246.539 491.959 270.666 490.008 290.058 492.385C291.007 493.407 291.674 494.361 292.317 495.598C292.16 501.63 283.538 499.79 279.336 499.768L243.363 499.746C239.093 499.749 226.53 500.678 223.164 497.666C223.885 495.121 224.817 493.437 226.556 491.452Z"/>
	<path fill="#3D405B" transform="scale(1.6 1.6)" d="M236.255 276.32C256.663 275.536 274.661 319.065 250.246 324.481C223.702 324.429 213.294 280.468 236.255 276.32Z"/>
	<path fill="#E07A5F" transform="scale(1.6 1.6)" d="M236.288 283.712C246.934 283.628 262.01 311.135 249.043 316.573C236.421 316.319 223.831 291.011 236.288 283.712Z"/>
	<path fill="#3D405B" transform="scale(1.6 1.6)" d="M400.288 276.004C425.196 274.772 419.623 319.493 394.483 324.341C368.903 328.065 376.31 281.733 400.288 276.004Z"/>
	<path fill="#E07A5F" transform="scale(1.6 1.6)" d="M401.491 283.723C412.533 284.637 407.889 312.805 393.16 316.207C380.255 314.075 388.107 289.781 401.491 283.723Z"/>
	<path fill="#3D405B" transform="scale(1.6 1.6)" d="M351.629 244.773C373.989 244.056 375.827 299.393 347.135 299.708C320.34 294.131 326.688 248.358 351.629 244.773Z"/>
	<path fill="#E07A5F" transform="scale(1.6 1.6)" d="M349.542 252.523C364.136 251.692 365.236 284.337 349.693 291.55C333.248 292.302 335.107 258.178 349.542 252.523Z"/>
	<path fill="#3D405B" transform="scale(1.6 1.6)" d="M284.609 244.784C307.411 243.227 320.638 290.453 294.423 299.894C269.817 304.701 258.478 250.325 284.609 244.784Z"/>
	<path fill="#E07A5F" transform="scale(1.6 1.6)" d="M285.764 252.538C300.982 256.508 307.653 282.873 292.927 291.182C278.628 293.725 270.496 256.977 285.764 252.538Z"/>
	<path fill="#3D405B" transform="scale(1.6 1.6)" d="M499.014 322.707C510.992 319.822 506.76 332.675 506.829 341.272C507.164 382.905 502.65 435.95 492.074 475.737C490.707 480.88 488.69 486.385 488.211 491.661C493.778 505.744 506.269 526.642 499.651 541.768C496.941 547.961 483.071 568.215 477.626 554.284C479.918 550.148 496.182 549.167 494.103 531.473C493.289 524.541 486.298 505.426 483.124 499.073C474.75 501.15 457.187 499.74 447.921 499.735L345.832 499.742C339.542 499.744 325.213 501.706 320.578 497.547C320.948 495.001 321.594 493.506 323.023 491.433C326.235 491.243 329.558 491.528 332.786 491.533L436.448 491.55C450.929 491.548 465.689 492.127 480.138 491.294C481.871 480.628 485.821 470.129 488.164 459.549C497.073 419.313 498.686 376.975 498.631 335.824C498.625 331.645 498.176 326.788 499.014 322.707Z"/>
	<path fill="#3D405B" transform="scale(1.6 1.6)" d="M317.675 305.133C344.193 303.61 361.166 317.732 378.798 335.831C393.33 350.748 416.456 372.026 414.598 394.058C413.791 403.621 409.624 412.417 402.171 418.558C376.473 439.732 349.999 412.29 323.516 409.849C302.191 408.589 284.52 424.704 263.971 426.084C243.82 427.437 227.291 413.036 226.203 392.684C224.943 369.12 248.361 349.207 263.939 333.241C280.927 315.832 292.106 306.477 317.675 305.133Z"/>
	<path fill="#E07A5F" transform="scale(1.6 1.6)" d="M313.926 313.563C341.135 309.038 357.465 324.277 374.128 341.859C386.108 354.499 409.334 375.416 406.356 394.546C405.182 402.087 400.955 409.455 394.762 413.966C376.565 427.223 348.992 405.432 327.572 401.931C301.86 397.607 285.185 415.398 265.056 417.868C249.49 419.779 236.287 409.511 234.743 393.787C233.623 382.373 238.602 374.051 245.623 365.502C263.304 343.975 284.414 316.444 313.926 313.563Z"/>
</svg>
