<?xml version="1.0" encoding="utf-8" ?>
<svg xmlns="http://www.w3.org/2000/svg" xmlns:xlink="http://www.w3.org/1999/xlink" width="1024" height="1023">
	<path fill="#BC6C25" transform="scale(1.6 1.6)" d="M98.9882 359.199C96.2515 361.363 93.0384 364.82 90.0335 361.087C82.1109 351.244 84.8852 305.785 86.4046 293.993C101.884 173.854 205.543 84.5995 325.961 84.6928C332.078 84.6976 367.737 82.4648 364.773 94.8522C364.068 97.8 358.662 100.114 356.264 101.726C349.287 105.291 337.672 113.347 334.419 120.383C335.107 122.734 335.812 125.038 336.723 127.313C332.834 129.823 328.15 131.786 323.672 132.947C317 125.66 312.179 118.342 301.322 117.836C293.286 117.461 284.213 122.341 284.273 131.264C284.305 136.024 287.912 141.038 290.21 145.042C262.825 157.12 234.342 182.399 214.315 205.194C187.745 235.435 167.354 272.617 156.937 311.606C148.588 342.854 159.457 334.666 134.256 340.791C123.434 343.421 107.335 351.315 98.9882 359.199Z"/>
	<path fill="#BC6C25" transform="scale(1.6 1.6)" d="M548.9 278.82C550.018 279.293 551.132 279.767 552.271 280.187C554.718 285.706 554.894 292.842 555.419 298.835C567.692 438.818 446.903 562.82 305.337 556.17C300.877 555.96 274.021 555.923 279.001 545.446C285.305 532.184 295.102 526.98 298.811 508.058C299.312 505.499 299.155 502.428 299.959 499.997C303.211 499.159 307.813 496.737 311.204 495.468C346.422 482.289 370.843 470.583 400.506 446.709C443.957 411.738 482.392 356.776 498.534 302.666C513.979 300.238 528.984 292.649 541.225 283.043C543.73 281.412 546.051 279.814 548.9 278.82Z"/>
	<path fill="#F4F1DE" transform="scale(1.6 1.6)" d="M356.264 101.726C361.342 101.397 360.753 100.759 367.076 101.39C369.454 103.696 376.116 108.051 371.79 111.738L372.105 112.275C353.728 136.387 354.704 151.732 364.623 176.894C373.8 200.174 359.759 215.244 344.341 230.043C339.511 234.679 333.616 237.47 336.647 244.286C335.895 244.728 321.73 259.211 319.721 261.608C315.868 258.454 313.657 260.124 310.255 263.107C292.139 278.993 270.447 301.379 253.276 318.791L231.541 340.806C216.217 356.126 202.374 371.602 178.294 364.716C151.511 357.056 139.504 352.998 112.893 371.469L112.554 371.204C102.46 377.525 109.285 373.476 103.025 368.535C93.6446 361.13 101.422 365.615 98.9882 359.199C107.335 351.315 123.434 343.421 134.256 340.791C159.457 334.666 148.588 342.854 156.937 311.606C167.354 272.617 187.745 235.435 214.315 205.194C234.342 182.399 262.825 157.12 290.21 145.042C287.912 141.038 284.305 136.024 284.273 131.264C284.213 122.341 293.286 117.461 301.322 117.836C312.179 118.342 317 125.66 323.672 132.947C328.15 131.786 332.834 129.823 336.723 127.313C335.812 125.038 335.107 122.734 334.419 120.383C337.672 113.347 349.287 105.291 356.264 101.726Z"/>
	<path fill="#F4F1DE" transform="scale(1.6 1.6)" d="M372.105 112.275C387.536 97.6882 402.279 87.2627 425.118 87.9175C464.229 89.0387 487.855 116.899 487.122 154.574C492.445 154.257 504.31 153.617 508.256 157.039C511.279 159.66 509.216 165.173 506.644 167.346L506.77 168.045C512.515 171.658 518.936 173.492 524.389 177.712C541.203 158.887 573.569 233.562 526.938 270.159C526.531 272.76 538.939 283.018 541.225 283.043C528.984 292.649 513.979 300.238 498.534 302.666C482.392 356.776 443.957 411.738 400.506 446.709C370.843 470.583 346.422 482.289 311.204 495.468C307.813 496.737 303.211 499.159 299.959 499.997C299.683 498.355 289.388 495.845 286.165 493.02C285.712 492.623 285.386 492.354 284.821 492.103C281.567 512.53 268.004 532.432 250.052 542.532C204.247 568.304 143.086 533.496 157.406 484.624C101.801 498.971 64.1718 421.552 106.645 377.19C108.596 375.152 110.831 373.393 112.893 371.469C139.504 352.998 151.511 357.056 178.294 364.716C202.374 371.602 216.217 356.126 231.541 340.806L253.276 318.791C270.447 301.379 292.139 278.993 310.255 263.107C313.657 260.124 315.868 258.454 319.721 261.608C321.73 259.211 335.895 244.728 336.647 244.286C333.616 237.47 339.511 234.679 344.341 230.043C359.759 215.244 373.8 200.174 364.623 176.894C354.704 151.732 353.728 136.387 372.105 112.275ZM105.458 447.892L106.974 450.838C108.562 448.797 108.252 447.22 107.523 444.792C113.141 433.981 121.368 441.919 114.608 425.743C106.333 405.938 126.273 381.303 144.92 373.616L144.855 373.505C134.684 376.581 127.237 383.532 121.366 392.116C116.937 398.591 114.243 401.99 112.456 391.355C111.873 387.889 117.713 383.894 120.011 382.005C128.184 375.287 136.066 372.017 146.534 370.831L146.466 371.1L146.138 370.516C145.57 370.6 145.104 370.558 144.539 370.5C108.76 376.59 88.013 416.043 105.458 447.892Z"/>
	<path fill="#3D405B" transform="scale(1.6 1.6)" d="M399.988 294.332C403.044 293.78 405.037 297.465 406.017 299.713C404.039 303.513 400.054 308.483 396.133 310.394C383.67 310.154 392.01 297.254 399.988 294.332Z"/>
	<path fill="white" transform="scale(1.6 1.6)" d="M319.721 261.608C321.73 259.211 335.895 244.728 336.647 244.286C339.602 246.508 341.893 248.103 345.268 245.969C346.474 248.404 326.418 267.162 323.238 268.001L322.661 267.724L322.47 267.167C321.686 265.229 321.098 263.22 319.721 261.608Z"/>
	<path fill="#3D405B" transform="scale(1.6 1.6)" d="M524.389 177.712C541.203 158.887 573.569 233.562 526.938 270.159C504.55 286.582 485.817 285.001 462.257 275.57C431.055 263.08 422.066 295.628 412.479 291.286C398.876 285.125 429.644 265.497 434.475 263.522C451.136 256.708 457.205 261.185 471.408 267.098C515.411 285.418 556.388 236.008 533.093 192.751C530.435 187.816 526.67 183.315 524.553 178.12L524.389 177.712Z"/>
	<path fill="#3D405B" transform="scale(1.6 1.6)" d="M372.105 112.275C387.536 97.6882 402.279 87.2627 425.118 87.9175C464.229 89.0387 487.855 116.899 487.122 154.574C492.445 154.257 504.31 153.617 508.256 157.039C511.279 159.66 509.216 165.173 506.644 167.346C492.028 165.691 493.154 165.553 479.889 168.666C469.58 163.731 474.822 159.959 475.858 151.442C481.885 101.856 403.363 76.8488 375.642 128.892C364.822 149.206 369.621 155.698 375.656 173.514C385.854 203.615 371.206 219.813 351.671 239.379C349.799 241.254 346.626 243.738 345.268 245.969C341.893 248.103 339.602 246.508 336.647 244.286C333.616 237.47 339.511 234.679 344.341 230.043C359.759 215.244 373.8 200.174 364.623 176.894C354.704 151.732 353.728 136.387 372.105 112.275Z"/>
	<path fill="#3D405B" transform="scale(1.6 1.6)" d="M112.893 371.469C139.504 352.998 151.511 357.056 178.294 364.716C202.374 371.602 216.217 356.126 231.541 340.806L253.276 318.791C270.447 301.379 292.139 278.993 310.255 263.107C313.657 260.124 315.868 258.454 319.721 261.608C321.098 263.22 321.686 265.229 322.47 267.167C320.348 270.695 313.568 276.223 310.308 279.434L242.724 346.192C222.738 366.329 207.327 384.783 174.681 375.849C163.199 372.706 157.336 368.794 144.539 370.5C108.76 376.59 88.013 416.043 105.458 447.892L106.974 450.838C116.178 466.964 134.07 477.932 152.905 473.795C161.323 471.947 167.098 467.319 171.179 478.118C154.541 524.005 201.316 553.163 239.55 534.902C252.795 528.575 264.296 516.839 269.191 502.885C278.431 476.547 259.223 466.481 262.68 442.322C265.604 421.884 280.42 409.654 294.199 396.003L330.94 359.69C343.416 347.328 355.327 334.423 368.079 322.336C371.295 319.288 382.071 306.61 385.879 315.506C389.155 323.16 376.009 330.982 370.504 336.433L309.434 397.307C300.91 405.846 284.815 419.854 279.262 429.297C267.507 449.289 276.399 456.514 281.39 473.966C283.089 479.904 283.607 486.065 284.821 492.103C281.567 512.53 268.004 532.432 250.052 542.532C204.247 568.304 143.086 533.496 157.406 484.624C101.801 498.971 64.1718 421.552 106.645 377.19C108.596 375.152 110.831 373.393 112.893 371.469Z"/>
</svg>
