<?xml version="1.0" encoding="utf-8" ?>
<svg xmlns="http://www.w3.org/2000/svg" xmlns:xlink="http://www.w3.org/1999/xlink" width="1024" height="1024">
	<path fill="#3D405B" transform="scale(1.6 1.6)" d="M140.651 456.646C132.579 462.515 128.314 442.006 139.77 442.169C142.95 446.16 142.757 452.208 140.651 456.646Z"/>
	<path fill="#3D405B" transform="scale(1.6 1.6)" d="M133.433 419.071C133.194 413.274 133.258 407.45 133.235 401.648L133.274 119.367C133.321 96.6399 140.407 83.4103 165.312 83.3645L351.897 83.3701C399.594 83.3844 389.906 81.1255 423.682 114.82C454.862 145.924 455.024 139.002 454.99 182.37L455.159 316.715C455.119 322.306 452.137 321.735 447.256 321.451C445.138 316.098 446.54 297.985 446.547 291.239L446.546 169.993C446.548 164.494 446.875 158.646 446.115 153.194C444.878 144.313 439.748 145.766 432.564 146.113C395.414 147.907 388.228 136.902 386.662 103.176C386.55 100.763 387.362 94.1982 384.652 92.8661C380.337 90.7452 340.848 91.9659 334.33 91.9661L195.844 91.955C188.132 91.952 159.628 90.5007 153.393 93.4099C137.207 100.963 141.581 119.396 141.591 134.625L141.606 390.679C141.607 397.498 143.33 415.873 140.558 421.538C137.543 422.266 135.782 420.846 133.433 419.071Z"/>
	<path fill="#A78BA3" transform="scale(1.6 1.6)" d="M395.664 98.9234C400.932 102.968 431.93 133.504 433.066 135.948L432.748 136.559C423.944 139.136 410.045 138.249 403.086 132.228C394.165 124.51 396.351 109.623 395.664 98.9234Z"/>
	<path fill="#F4F1DE" transform="scale(1.6 1.6)" d="M140.558 421.538C143.33 415.873 141.607 397.498 141.606 390.679L141.591 134.625C141.581 119.396 137.207 100.963 153.393 93.4099C159.628 90.5007 188.132 91.952 195.844 91.955L334.33 91.9661C340.848 91.9659 380.337 90.7452 384.652 92.8661C387.362 94.1982 386.55 100.763 386.662 103.176C388.228 136.902 395.414 147.907 432.564 146.113C439.748 145.766 444.878 144.313 446.115 153.194C446.875 158.646 446.548 164.494 446.546 169.993L446.547 291.239C446.54 297.985 445.138 316.098 447.256 321.451C446.985 324.997 446.898 328.867 447.07 332.425C449.666 332.64 450.061 333.433 451.181 335.685C451.684 336.138 451.651 336.024 452.297 336.07C466.675 337.103 472.119 345.705 481.604 348.735C485.61 347.206 488.51 347.535 492.104 349.555C493.207 351.568 493.882 353.229 493.738 355.584C498.327 360.796 507.611 370.498 512.786 375.406C514.412 375.222 515.941 375.132 517.582 375.183C519.687 376.512 526.604 390.33 526.516 392.519C526.554 397.86 529.938 403.5 531.564 408.531C544.618 448.908 540.333 504.013 504.681 531.871C501.553 534.315 498.978 533.718 498.918 538.197C494.858 548.127 456.027 548.491 446.37 548.491L179.894 548.492C138.757 548.49 133.305 543.455 133.273 501.367C133.268 493.763 129.832 478.399 139.107 477.709C139.279 477.06 140.979 457.679 140.651 456.646C142.757 452.208 142.95 446.16 139.77 442.169C139.463 435.127 140.159 428.523 140.558 421.538Z"/>
	<path fill="#3D405B" transform="scale(1.6 1.6)" d="M272.195 441.582C276.673 441.313 299.076 440.746 301.759 442.33C305.531 444.556 303.274 449.685 299.494 450.594C293.029 450.912 266.411 452.672 268.584 444.859C269.058 443.155 270.75 442.331 272.195 441.582Z"/>
	<path fill="#3D405B" transform="scale(1.6 1.6)" d="M272.914 344.477C277.449 344.304 300.39 344.001 302.859 345.157C306.58 346.898 304.341 352.74 300.99 353.699C296.462 353.817 273.367 354.562 270.61 352.759C266.739 350.227 269.042 345.246 272.914 344.477Z"/>
	<path fill="#3D405B" transform="scale(1.6 1.6)" d="M273.281 392.62C282.676 392.367 292.195 392.374 301.591 392.573C306.532 396.037 305.398 400.763 299.878 402.15C295.412 402.256 272.793 402.301 270.143 400.658C266.269 398.257 268.769 393.196 273.281 392.62Z"/>
	<path fill="#3D405B" transform="scale(1.6 1.6)" d="M362.96 296.319C368.78 296.027 390.203 295.549 395.164 296.56C400.206 297.587 401.58 302.952 396.767 305.14C393.235 305.553 365.94 305.348 363.272 304.634C358.913 303.468 359.288 298.025 362.96 296.319Z"/>
	<path fill="#3D405B" transform="scale(1.6 1.6)" d="M201.305 344.122C212.154 344.064 224.212 344.39 235.038 344.71C238.584 347.914 239.087 352.925 233.811 353.977C222.743 353.765 211.673 353.929 200.61 353.697C195.608 350.676 195.983 345.99 201.305 344.122Z"/>
	<path fill="#3D405B" transform="scale(1.6 1.6)" d="M201.165 441.314C208.401 440.795 236.679 439.891 238.302 444.659C239.292 447.568 237.189 449.831 234.543 450.58C228.091 451.367 205.401 451.046 199.967 450.056C196.002 446.58 196.809 443.614 201.165 441.314Z"/>
	<path fill="#3D405B" transform="scale(1.6 1.6)" d="M201.84 392.296C211.034 392.504 224.356 391.571 232.939 392.4C238.738 392.961 239.206 401.318 233.445 402.262C227.05 401.978 199.297 404.353 197.667 398.297C196.807 395.105 198.857 392.836 201.84 392.296Z"/>
	<path fill="#3D405B" transform="scale(1.6 1.6)" d="M261.056 140.981C276.182 140.512 281.105 165.36 268.203 168.401C255.807 168.68 247.609 144.773 261.056 140.981Z"/>
	<path fill="#667390" transform="scale(1.6 1.6)" d="M262.294 149.581C268.035 149.717 269.117 154.528 266.4 158.632C262.431 158.995 260.005 152.571 262.294 149.581Z"/>
	<path fill="#3D405B" transform="scale(1.6 1.6)" d="M341.375 165.384C357.774 163.355 351.558 190.767 338.418 194.219C322.408 194.556 327.929 170.555 341.375 165.384Z"/>
	<path fill="#84A4A9" transform="scale(1.6 1.6)" d="M340.213 177.127C344.203 177.106 338.749 185.804 337.478 186.948C333.156 184.329 336.98 178.649 340.213 177.127Z"/>
	<path fill="#3D405B" transform="scale(1.6 1.6)" d="M244.69 164.762C258.309 163.917 267.639 186.673 255.953 194.042C242.184 195.639 231.229 169.973 244.69 164.762Z"/>
	<path fill="white" transform="scale(1.6 1.6)" d="M250.899 177.268C253.842 178.252 255.858 182.92 254.256 185.675C250.74 184.454 249.596 180.504 250.899 177.268Z"/>
	<path fill="#3D405B" transform="scale(1.6 1.6)" d="M324.591 140.38C339.864 139.621 337.008 164.373 322.765 169.825C305.474 170.499 310.757 144.925 324.591 140.38Z"/>
	<path fill="#3D405B" transform="scale(1.6 1.6)" d="M291.891 129.772C306.961 128.777 314.246 159.321 295.206 164.7C276.389 165.636 273.702 132.961 291.891 129.772Z"/>
	<path fill="#667390" transform="scale(1.6 1.6)" d="M288.75 141.496C290.914 140.667 293.801 141.155 296.124 141.161C305.169 158.394 282.744 164.777 288.75 141.496Z"/>
	<path fill="#3D405B" transform="scale(1.6 1.6)" d="M200.185 296.331C225.354 295.822 250.625 296.27 275.804 296.272L307.642 296.263C312.418 296.255 321.491 294.907 325.829 296.882C329.586 298.592 327.975 304.112 324.543 305.26C316.571 305.399 308.524 305.123 300.543 305.12L214.268 305.144C209.611 305.162 204.443 305.622 199.834 305.021C195.476 304.452 196.377 297.629 200.185 296.331Z"/>
	<path fill="#3D405B" transform="scale(1.6 1.6)" d="M290.358 169.162C309.472 166.713 317.435 181.278 326.389 194.496C329.254 198.725 332.76 202.51 334.816 207.25C339.707 218.524 335.312 234.525 323.413 239.447C314.663 243.067 306.425 239.79 298.274 236.403C292.032 234.792 286.243 239.674 280.126 240.733C267.099 242.987 254.751 234.876 252.595 221.614C249.578 203.059 271.781 172.133 290.358 169.162Z"/>
	<path fill="#BC6C25" transform="scale(1.6 1.6)" d="M291.425 178.514C305.289 177.521 310.085 187.432 317.059 197.214C323.8 206.669 337.111 220.395 320.649 230.309C312.725 235.08 305.671 228.712 297.941 226.869C289.994 225.472 285.559 230.665 278.438 232.221C270.455 233.965 262.424 227.945 261.118 220.059C258.779 205.947 278.449 180.583 291.425 178.514Z"/>
	<path fill="#3D405B" transform="scale(1.6 1.6)" d="M139.107 477.709C144.595 483.088 139.847 515.215 142.743 526.427C146.454 540.795 161.109 540.131 172.987 540.058L356.578 540.063C375.508 540.061 376.22 541.687 361.165 530.209C291.143 476.823 316.498 350.899 406.712 332.289C410.912 331.423 428.084 327.978 431.333 329.95C432.735 330.8 432.513 332.727 434.048 333.736C431.995 334.621 432.289 335.682 431.991 337.682C426.81 338.244 421.556 338.537 416.418 339.4C360.035 348.87 323.665 399.13 329.894 455.797C334.318 496.055 363.976 535.202 406.004 539.619C420.882 541.182 456.649 540.982 471.563 539.225C481.075 538.105 487.668 535.109 496.515 532.556C498.515 534.553 498.864 535.371 498.918 538.197C494.858 548.127 456.027 548.491 446.37 548.491L179.894 548.492C138.757 548.49 133.305 543.455 133.273 501.367C133.268 493.763 129.832 478.399 139.107 477.709Z"/>
	<path fill="#BC6C25" transform="scale(1.6 1.6)" d="M447.07 332.425C449.666 332.64 450.061 333.433 451.181 335.685C451.684 336.138 451.651 336.024 452.297 336.07C466.675 337.103 472.119 345.705 481.604 348.735C485.61 347.206 488.51 347.535 492.104 349.555C493.207 351.568 493.882 353.229 493.738 355.584C498.327 360.796 507.611 370.498 512.786 375.406C514.412 375.222 515.941 375.132 517.582 375.183C519.687 376.512 526.604 390.33 526.516 392.519C526.554 397.86 529.938 403.5 531.564 408.531C544.618 448.908 540.333 504.013 504.681 531.871C501.553 534.315 498.978 533.718 498.918 538.197C498.864 535.371 498.515 534.553 496.515 532.556C487.668 535.109 481.075 538.105 471.563 539.225C456.649 540.982 420.882 541.182 406.004 539.619C363.976 535.202 334.318 496.055 329.894 455.797C323.665 399.13 360.035 348.87 416.418 339.4C421.556 338.537 426.81 338.244 431.991 337.682C432.289 335.682 431.995 334.621 434.048 333.736C436.352 333.999 443.889 335.338 445.697 334.478C446.005 333.702 446.562 333.079 447.07 332.425Z"/>
	<path fill="#3D405B" transform="scale(1.6 1.6)" d="M447.07 332.425C449.666 332.64 450.061 333.433 451.181 335.685C448.5 338.296 447.4 337.329 445.697 334.478C446.005 333.702 446.562 333.079 447.07 332.425Z"/>
	<path fill="#3D405B" transform="scale(1.6 1.6)" d="M481.604 348.735C485.61 347.206 488.51 347.535 492.104 349.555C493.207 351.568 493.882 353.229 493.738 355.584C486.761 362.557 480.832 356.89 481.604 348.735Z"/>
	<path fill="#3D405B" transform="scale(1.6 1.6)" d="M512.786 375.406C514.412 375.222 515.941 375.132 517.582 375.183C519.687 376.512 526.604 390.33 526.516 392.519C525.248 393.083 524.03 394.152 522.892 394.96C516.175 389.423 508.432 386.254 512.786 375.406Z"/>
	<path fill="#3D405B" transform="scale(1.6 1.6)" d="M429.468 388.841C446.707 387.606 455.132 402.604 456.891 418.054C462.09 416.174 468.865 413.022 474.388 414.818C494.663 421.41 483.944 461.719 459.91 452.084C472.508 472.088 463.198 496.37 439.14 498.706C406.808 500.72 386.212 483.148 403.235 452.817C372.763 459.378 372.747 400.835 408.434 417.012C409.768 403.369 414.703 391.78 429.468 388.841Z"/>
	<path fill="#BC6C25" transform="scale(1.6 1.6)" d="M396.433 422.559C407.229 421.723 410.756 428.177 413.689 437.675C411.861 441.289 409.477 443.73 405.719 445.311C389.73 450.363 382.204 426.684 396.433 422.559Z"/>
	<path fill="#BC6C25" transform="scale(1.6 1.6)" d="M466.752 422.914C481.404 421.652 478.071 446.175 460.296 446.217C444.728 443.236 449.366 425.363 466.752 422.914Z"/>
	<path fill="#BC6C25" transform="scale(1.6 1.6)" d="M429.656 398.497C450.31 397.486 453.517 425.741 435.344 431.158C413.975 434.874 410.659 403.204 429.656 398.497Z"/>
	<path fill="#BC6C25" transform="scale(1.6 1.6)" d="M431.988 442.627C457.482 443.329 472.186 487.895 431.783 489.052C389.554 488.59 405.522 444.492 431.988 442.627Z"/>
</svg>
