<?xml version="1.0" encoding="utf-8" ?>
<svg xmlns="http://www.w3.org/2000/svg" xmlns:xlink="http://www.w3.org/1999/xlink" width="1024" height="1024">
	<path fill="#F4F1DE" transform="scale(1.6 1.6)" d="M320.994 80.4608L321.566 80.4574C405.289 80.1893 480.379 124.262 524.696 195.326C549.29 234.763 559.674 273.163 559.698 320.305C559.758 437.925 474.157 540.453 356.865 557.535C344.393 559.351 332.006 559.707 319.426 559.708C191.016 559.875 86.0022 458.461 80.3727 329.454C75.1221 209.131 166.996 99.7224 285.872 82.8795C297.47 81.2361 309.302 80.9409 320.994 80.4608Z"/>
	<path fill="#3D405B" transform="scale(1.6 1.6)" d="M206.214 418.17C211.067 421.805 213.662 432.253 205.158 435.335C196.923 433.16 200.199 421.18 206.214 418.17Z"/>
	<path fill="#3D405B" transform="scale(1.6 1.6)" d="M158.242 222.531C155.729 216.711 162.464 214.481 166.269 211.4C183.64 197.336 195.529 187.8 215.805 176.515C222.412 172.837 228.279 167.219 236.099 170.644C236.03 172.765 236.359 174.887 236.114 176.993C235.153 178.087 229.275 180.162 227.694 180.933C200.096 194.405 185.85 207.396 163.665 226.338C161.53 225.326 159.829 224.341 158.242 222.531Z"/>
	<path fill="#3D405B" transform="scale(1.6 1.6)" d="M106.374 262.028C108.723 253.791 115.104 243.911 124.427 250.142C128.284 260.072 121.154 256.379 115.471 260.587C117.684 265.064 120.969 269.018 123.96 273L137.482 290.709C140.786 295.026 150.665 310.814 155.627 312.471C160.468 314.088 163.352 310.22 166.897 307.828C169.52 307.731 172.211 307.507 174.829 307.67C175.823 320.2 159.666 325.595 150.113 320.354C144.678 317.372 141.214 311.616 137.587 306.801L125.232 290.244C118.802 281.591 109.488 272.584 106.374 262.028Z"/>
	<path fill="#3D405B" transform="scale(1.6 1.6)" d="M445.865 467.517C461.582 476.682 429.983 481.116 425.635 482.018C351.538 497.386 285.451 497.687 211.413 480.719C206.673 479.633 195.038 478.385 191.851 474.37C188.09 469.632 194.388 466.274 200.354 467.621L200.776 467.72C207.184 471.529 227.476 475.242 235.639 476.678C300.276 488.05 367.404 487.164 431.175 471.024C434.011 470.306 437.72 469.543 440.189 467.959C442.043 467.334 443.943 467.455 445.865 467.517Z"/>
	<path fill="#3D405B" transform="scale(1.6 1.6)" d="M406.55 168.433C434.982 178.139 463.303 200.52 485.361 220.062C490.357 224.489 531.562 259.655 533.183 263.108C536.802 270.82 531.963 273.73 526.934 278.651C513.444 291.848 494.824 330.697 474.505 321.289C468.617 318.562 452.267 299.87 448.42 293.68C448.392 291.289 448.76 284.603 452.055 284.118C459.354 283.043 469.639 316.756 483.713 313.925C488.922 312.878 494.268 303.987 497.356 300.154L513.822 279.786C517.381 275.473 522.104 271.583 525.206 266.995C519.531 260.795 510.463 254.825 503.853 249.063C478.741 227.171 454.965 203.241 425.593 186.929C418.508 182.994 409.689 179.979 403.675 174.543C403.456 173.663 403.122 172.865 402.773 172.032L402.816 170.669C405.03 171.385 405.412 170.142 406.55 168.433Z"/>
	<path fill="#E07A5F" transform="scale(1.6 1.6)" d="M267.058 152.772C267.881 136.533 280.471 141.785 290.778 144.501C307.217 148.834 325.62 149.317 342.185 145.548C348.058 144.213 361.239 138.617 366.783 142.331L365.403 142.586C365.189 143.327 366.86 145.801 367.123 146.866C367.351 145.693 367.361 144.718 368.169 143.802C381.066 139.139 384.516 150.058 390.629 157.205C391.94 158.738 401.788 170.057 402.816 170.669L402.773 172.032C403.122 172.865 403.456 173.663 403.675 174.543C409.689 179.979 418.508 182.994 425.593 186.929C454.965 203.241 478.741 227.171 503.853 249.063C510.463 254.825 519.531 260.795 525.206 266.995C522.104 271.583 517.381 275.473 513.822 279.786L497.356 300.154C494.268 303.987 488.922 312.878 483.713 313.925C469.639 316.756 459.354 283.043 452.055 284.118C448.76 284.603 448.392 291.289 448.42 293.68C446.006 290.703 443.925 289.089 440.381 287.61C438.257 288.147 434.03 288.649 432.976 290.865C434.012 307.101 434.414 323.39 434.978 339.647L436.594 379.872C436.862 387.039 440.594 436.5 438.009 439.086C436.92 440.902 438.494 464.72 440.189 467.959C437.72 469.543 434.011 470.306 431.175 471.024C367.404 487.164 300.276 488.05 235.639 476.678C227.476 475.242 207.184 471.529 200.776 467.72C202.64 458.734 199.787 442.617 205.158 435.335C213.662 432.253 211.067 421.805 206.214 418.17C206.291 413.894 205.186 409.527 205.526 405.252C205.415 402.61 203.03 401.023 202.942 398.069C202.825 394.111 203.286 389.993 203.429 386.024L204.791 354.106C205.658 332.699 205.774 311.569 206.532 290.313C199.537 291.561 177.899 303.959 174.829 307.67C172.211 307.507 169.52 307.731 166.897 307.828C163.352 310.22 160.468 314.088 155.627 312.471C150.665 310.814 140.786 295.026 137.482 290.709L123.96 273C120.969 269.018 117.684 265.064 115.471 260.587C121.154 256.379 128.284 260.072 124.427 250.142L126.396 250.122L126.333 251.095L126.716 251.175C137.584 241.304 146.676 231.823 158.242 222.531C159.829 224.341 161.53 225.326 163.665 226.338C185.85 207.396 200.096 194.405 227.694 180.933C229.275 180.162 235.153 178.087 236.114 176.993C236.359 174.887 236.03 172.765 236.099 170.644C243.607 169.14 261.691 152.741 267.058 152.772Z"/>
	<path fill="#3D405B" transform="scale(1.6 1.6)" d="M374.585 269.191C390.955 268.078 388.314 279.279 377.504 279.041C360.73 278.717 363.32 270.137 374.585 269.191Z"/>
	<path fill="#3D405B" transform="scale(1.6 1.6)" d="M206.532 290.313C207.742 282.719 204.517 248.024 212.906 249.771C218.385 250.912 216.39 260.666 216.364 264.552C216.292 275.438 215.873 286.121 215.396 296.988L212.717 366.251C212.246 377.369 212.661 388.602 211.502 399.689C209.47 401.223 206.536 402.869 205.526 405.252C205.415 402.61 203.03 401.023 202.942 398.069C202.825 394.111 203.286 389.993 203.429 386.024L204.791 354.106C205.658 332.699 205.774 311.569 206.532 290.313Z"/>
	<path fill="#3D405B" transform="scale(1.6 1.6)" d="M438.009 439.086C426.378 439.218 429.914 433.028 429.633 422.344L426.725 347.32C425.824 326.542 425.634 305.698 424.261 284.944C423.861 278.911 420.324 256.605 423.446 252.148C424.746 250.291 427.8 249.435 429.661 250.938C432.045 252.863 431.894 284.334 432.918 290.533L432.976 290.865C434.012 307.101 434.414 323.39 434.978 339.647L436.594 379.872C436.862 387.039 440.594 436.5 438.009 439.086Z"/>
	<path fill="#3D405B" transform="scale(1.6 1.6)" d="M267.058 152.772C267.881 136.533 280.471 141.785 290.778 144.501C307.217 148.834 325.62 149.317 342.185 145.548C348.058 144.213 361.239 138.617 366.783 142.331L365.403 142.586C365.189 143.327 366.86 145.801 367.123 146.866C367.351 145.693 367.361 144.718 368.169 143.802C381.066 139.139 384.516 150.058 390.629 157.205C391.94 158.738 401.788 170.057 402.816 170.669L402.773 172.032C400.689 174.819 395.623 176.58 392.383 177.859C391.207 177.063 388.041 175.609 387.742 174.268C385.896 190.013 370.901 210.062 358.403 219.86C342.914 232.002 336.406 227.379 325.065 213.843L325.001 270.399C325.003 275.688 325.808 287.177 325.242 291.855C324.579 297.321 316.212 298.309 315.975 290.33C315.32 268.301 316.558 246.214 315.904 224.189C315.802 220.761 315.11 216.761 315.485 213.375C301.442 230.527 296.256 230.522 278.533 215.266C265.639 204.166 258.525 192.816 252.618 177.351C248.824 178.544 240.175 179.024 236.365 177.657L236.114 176.993C236.359 174.887 236.03 172.765 236.099 170.644C243.607 169.14 261.691 152.741 267.058 152.772Z"/>
	<path fill="#5D5DCA" transform="scale(1.6 1.6)" d="M276.473 151.796C282.59 152.524 288.517 154.408 294.561 155.588C309.131 158.433 325.574 159.207 340.307 156.518C343.254 155.98 357.568 151.821 359.354 152.266C362.407 156.936 352.651 167.893 349.643 171.142C340.664 180.449 326.643 191.073 313.007 186.048C298.943 180.865 282.686 165.293 276.473 151.796Z"/>
	<path fill="white" transform="scale(1.6 1.6)" d="M236.099 170.644C243.607 169.14 261.691 152.741 267.058 152.772C272.017 168.567 287.533 182.125 301.365 190.485C305.338 192.886 310.157 194.738 313.778 197.557C319.288 201.847 301.628 215.417 298.459 216.972C269.557 208.141 261.917 171.155 258.622 169.969C255.104 168.703 252.225 173.452 252.618 177.351C248.824 178.544 240.175 179.024 236.365 177.657L236.114 176.993C236.359 174.887 236.03 172.765 236.099 170.644Z"/>
	<path fill="white" transform="scale(1.6 1.6)" d="M367.123 146.866C367.351 145.693 367.361 144.718 368.169 143.802C381.066 139.139 384.516 150.058 390.629 157.205C391.94 158.738 401.788 170.057 402.816 170.669L402.773 172.032C400.689 174.819 395.623 176.58 392.383 177.859C391.207 177.063 388.041 175.609 387.742 174.268C380.743 156.364 377.956 178.452 376.297 182.385C369.847 197.673 358.308 211.917 342.641 218.286C336.548 213.791 327.48 205.433 324.277 198.462C338.459 190.305 356.425 182.095 365.002 167.556C372.865 154.227 371.27 161.499 367.123 146.866Z"/>
</svg>
