<?xml version="1.0" encoding="utf-8" ?>
<svg xmlns="http://www.w3.org/2000/svg" xmlns:xlink="http://www.w3.org/1999/xlink" width="1024" height="1024">
	<path fill="#F4F1DE" transform="scale(1.6 1.6)" d="M313.284 82.3247C328.84 82.2159 344.085 82.7557 359.481 85.212C457.418 100.838 536.148 179.744 554.492 276.709C581.231 418.046 472.04 555.252 328.404 558.452C323.189 558.469 317.932 558.596 312.723 558.36C169.95 551.888 65.928 428.468 84.1962 288.537C99.2718 173.061 197.077 86.6708 313.284 82.3247Z"/>
	<path fill="#F7CDA1" transform="scale(1.6 1.6)" d="M391.288 432.242C392.628 431.11 393.913 429.889 395.22 428.716C394.991 432.91 394.207 436.254 392.488 440.104C391.726 437.614 391.594 434.829 391.288 432.242Z"/>
	<path fill="#3D405B" transform="scale(1.6 1.6)" d="M392.637 440.845C399.248 441.137 400.926 444.24 400.463 450.482C399.653 461.391 398.246 485.602 395.602 495.774C394.483 500.077 384.59 504.136 387.275 484.646C388.734 471.037 390.261 457.345 391.318 443.703C391.694 442.697 392.108 441.78 392.637 440.845Z"/>
	<path fill="#3D405B" transform="scale(1.6 1.6)" d="M246.522 440.061L247.987 440.64C251.573 447.132 251.659 465.446 252.412 473.185L253.996 489.774C254.253 492.438 254.69 495.147 254.768 497.818C252.41 499.094 248.989 499.152 246.852 497.438C244.688 495.703 238.18 446.628 241.032 442.979C242.769 441.725 244.558 440.89 246.522 440.061Z"/>
	<path fill="white" transform="scale(1.6 1.6)" d="M219.702 359.753C220.868 362.448 220.863 365.982 221.428 368.888C221.756 370.808 222.179 372.77 222.33 374.712C229.79 374.018 229.536 382.286 231.971 388.889C235.196 397.634 239.18 405.453 244.141 413.353C246.158 415.438 247.202 418.046 249.027 420.208C246.617 425.501 245.735 427.746 249.256 432.482C250.406 433.606 251.53 434.791 252.741 435.847C251.469 437.619 250.105 439.825 247.987 440.64L246.522 440.061C244.558 440.89 242.769 441.725 241.032 442.979C236.296 439.755 235.179 428.075 230.36 422.893C218.565 410.21 199.42 412.467 198.07 390.091C202.484 385.343 215.234 382.156 216.377 380.915C210.205 380.45 203.639 382.763 197.698 384.255C197.986 375.246 200.446 369.992 206.995 363.787C212.268 364.048 215.338 362.493 219.702 359.753Z"/>
	<path fill="#F4F1DE" transform="scale(1.6 1.6)" d="M249.256 432.482C250.406 433.606 251.53 434.791 252.741 435.847C251.469 437.619 250.105 439.825 247.987 440.64L246.522 440.061C248.92 439.24 249.858 434.565 249.256 432.482Z"/>
	<path fill="#3D405B" transform="scale(1.6 1.6)" d="M222.33 374.712C229.79 374.018 229.536 382.286 231.971 388.889C235.196 397.634 239.18 405.453 244.141 413.353C240.935 414.583 238.293 415.36 234.823 414.918C230.016 408.025 214.371 382.318 222.33 374.712Z"/>
	<path fill="#E07A5F" transform="scale(1.6 1.6)" d="M386.041 436.848C387.752 435.266 389.514 433.753 391.288 432.242C391.594 434.829 391.726 437.614 392.488 440.104L392.637 440.845C392.108 441.78 391.694 442.697 391.318 443.703C390.261 457.345 388.734 471.037 387.275 484.646C369.551 485.493 351.245 494.664 332.803 496.592C313.95 498.564 292.726 497.651 273.638 497.646C269.642 497.645 257.666 496.972 254.768 497.818C254.69 495.147 254.253 492.438 253.996 489.774L252.412 473.185C251.659 465.446 251.573 447.132 247.987 440.64C250.105 439.825 251.469 437.619 252.741 435.847C289.264 467.881 331.447 478.223 373.617 446.815C377.874 443.644 381.781 439.971 386.041 436.848Z"/>
	<path fill="#E07A5F" transform="scale(1.6 1.6)" d="M255.708 191.217C294.47 159.362 335.355 155.214 384.682 155.273L403.505 155.251C407.701 155.237 416.688 153.898 419.813 157.463C428.375 167.229 406.629 173.374 401.008 174.537C424.003 181.398 429.644 186.954 456.009 185.955C481.045 185.007 450.398 212.771 441.002 217.471L440.035 217.945C450.889 220.775 460.69 226.021 472.071 226.931C475.374 227.196 479.499 226.624 481.501 229.848C489.065 242.032 443.379 272.213 429.699 278.202C430.283 286.634 429.996 295.178 430.3 303.636C450.404 293.334 449.266 333.968 444.807 346.301C439.878 359.93 438.067 364.163 425.097 364.711C422.561 389.294 414.437 401.047 401.187 419.532C399.06 422.5 397.418 425.801 395.22 428.716C393.913 429.889 392.628 431.11 391.288 432.242C389.514 433.753 387.752 435.266 386.041 436.848C381.781 439.971 377.874 443.644 373.617 446.815C331.447 478.223 289.264 467.881 252.741 435.847C251.53 434.791 250.406 433.606 249.256 432.482C245.735 427.746 246.617 425.501 249.027 420.208C247.202 418.046 246.158 415.438 244.141 413.353C239.18 405.453 235.196 397.634 231.971 388.889C229.536 382.286 229.79 374.018 222.33 374.712C222.179 372.77 221.756 370.808 221.428 368.888C220.863 365.982 220.868 362.448 219.702 359.753C215.338 362.493 212.268 364.048 206.995 363.787C191.094 351.313 181.868 300.626 209.571 303.742C209.066 292.142 208.276 280.634 207.162 269.074C202.933 225.217 200.283 192.022 255.708 191.217Z"/>
	<path fill="#3D405B" transform="scale(1.6 1.6)" d="M367.182 331.946C376.127 332.697 376.97 340.156 369.661 343.996C366.084 344.331 364.607 343.415 362.606 340.321C362.093 336.308 362.752 332.966 367.182 331.946Z"/>
	<path fill="#3D405B" transform="scale(1.6 1.6)" d="M272.855 332.552C281.952 332.119 284.726 338.913 276.699 344.171C269.281 346.667 265.323 334.881 272.855 332.552Z"/>
	<path fill="#3D405B" transform="scale(1.6 1.6)" d="M317.024 347.795C320.458 347.668 322.863 349.881 323.292 353.356C323.822 357.647 325.187 380.684 321.263 382.531L320.712 382.534C319.049 382.53 316.35 382.442 315.204 381.011C313.659 379.082 311.83 352.447 317.024 347.795Z"/>
	<path fill="#3D405B" transform="scale(1.6 1.6)" d="M262.661 313.24C269.652 312.586 282.307 313.832 289.056 315.743C295.623 317.602 295.819 325.411 288.991 325.264C283.073 324.549 261.053 323.148 258.946 321.689C253.188 317.703 257.45 313.816 262.661 313.24Z"/>
	<path fill="#3D405B" transform="scale(1.6 1.6)" d="M376.282 312.309C377.706 312.087 379.225 312.196 380.666 312.205C395.509 323.311 361.149 325.201 356.321 325.895C353.936 326.035 352.406 325.722 350.226 324.833C349.119 323.077 347.495 319.659 349.071 317.773C350.806 315.695 372.217 312.821 376.282 312.309Z"/>
	<path fill="#3D405B" transform="scale(1.6 1.6)" d="M338.417 400.388C341.794 400.62 344.337 402.867 342.761 406.244C337.347 417.845 314.566 415.727 304.92 410.987C302.358 409.468 298.876 405.427 301.315 402.387C304.758 398.096 312.991 404.393 317.974 405.135C326.303 406.376 330.849 401.938 338.417 400.388Z"/>
	<path fill="#3D405B" transform="scale(1.6 1.6)" d="M255.708 191.217C294.47 159.362 335.355 155.214 384.682 155.273L403.505 155.251C407.701 155.237 416.688 153.898 419.813 157.463C428.375 167.229 406.629 173.374 401.008 174.537C424.003 181.398 429.644 186.954 456.009 185.955C481.045 185.007 450.398 212.771 441.002 217.471L440.035 217.945C450.889 220.775 460.69 226.021 472.071 226.931C475.374 227.196 479.499 226.624 481.501 229.848C489.065 242.032 443.379 272.213 429.699 278.202C430.283 286.634 429.996 295.178 430.3 303.636C450.404 293.334 449.266 333.968 444.807 346.301C439.878 359.93 438.067 364.163 425.097 364.711C422.561 389.294 414.437 401.047 401.187 419.532C399.06 422.5 397.418 425.801 395.22 428.716C393.913 429.889 392.628 431.11 391.288 432.242C389.514 433.753 387.752 435.266 386.041 436.848C381.781 439.971 377.874 443.644 373.617 446.815C331.447 478.223 289.264 467.881 252.741 435.847C251.53 434.791 250.406 433.606 249.256 432.482C245.735 427.746 246.617 425.501 249.027 420.208C253.791 422.947 257.318 427.463 261.486 430.989C302.997 466.114 344.313 464.241 383.661 424.806C401.116 407.312 410.018 391.944 415.289 367.808C416.346 362.972 422.181 333.667 420.561 330.589C420.08 329.677 418.498 328.981 417.879 327.883C411.936 317.347 407.875 305.892 401.283 295.596C398.507 294.965 396.111 294.134 393.551 292.88C393.71 287.591 396.488 279.875 403.176 281.28C409.979 282.709 409.732 291.044 411.75 296.27C414.017 302.14 417.183 307.601 420.576 312.877C420.331 304.616 421.94 279.18 419.443 273.237C423.214 269.927 428.669 268.024 433.041 265.518C446.335 257.9 459.18 248.604 468.942 236.732C457.426 234.245 427.875 226.514 419 220.342C415.848 212.052 425.492 212.012 431.047 209.972C439.089 207.02 446.311 201.75 452.818 196.285C438.628 196.26 423.588 192.766 410.191 188.25C389.106 181.143 363.843 175.418 400.073 164.414C356.353 165.344 308.219 165.085 270.455 190.758C257.868 199.316 264.729 199.428 248.826 200.53C208.219 203.344 212.417 233.552 215.687 264.242C217.309 279.471 218.755 294.6 218.911 309.921C218.954 314.097 218.652 318.713 219.525 322.808C238.012 312.613 228.538 277.823 253.516 267.934C268.206 262.119 265.172 255.144 273.039 251.407C276.738 252.943 279.604 255.885 282.866 258.142C294.723 266.345 338.21 276.313 354.935 279.927C360.442 281.117 378.675 281.248 381.351 287.175C382.273 289.216 381.679 292.047 379.348 292.719C369.223 295.639 291.349 275.096 273.869 264.749C270.879 268.132 267.891 271.563 264.083 274.055C248.809 284.052 249.657 274.841 242.958 296.129C237.828 312.432 233.733 326.784 220.715 338.881C222.608 344.859 224.877 350.795 224.701 357.146L222.095 358.523C221.3 358.9 220.404 359.232 219.702 359.753C215.338 362.493 212.268 364.048 206.995 363.787C191.094 351.313 181.868 300.626 209.571 303.742C209.066 292.142 208.276 280.634 207.162 269.074C202.933 225.217 200.283 192.022 255.708 191.217Z"/>
	<path fill="#E07A5F" transform="scale(1.6 1.6)" d="M434.418 311.41C442.931 318.606 437.279 342.413 432.273 350.03C431.481 351.067 430.547 352.01 429.665 352.971C429.161 344.389 430.136 318.13 434.418 311.41Z"/>
	<path fill="#E07A5F" transform="scale(1.6 1.6)" d="M206.653 312.843L209.426 313.644C211.031 323.751 213.667 344.107 210.632 352.437L208.722 350.695C202.365 342.156 194.681 318.069 206.653 312.843Z"/>
</svg>
