<?xml version="1.0" encoding="utf-8" ?>
<svg xmlns="http://www.w3.org/2000/svg" xmlns:xlink="http://www.w3.org/1999/xlink" width="1023" height="1023">
	<path fill="#F4F1DE" transform="scale(1.6 1.6)" d="M307.924 81.1211L309.171 81.0505C442.071 74.2919 553.163 177.214 559.525 308.374C565.918 440.19 464.058 553.357 332.249 559.672C263.901 560.09 208.774 543.474 156.47 496.048C96.4037 441.584 70.1711 354.554 84.315 275.405C103.61 167.431 199.038 86.2301 307.924 81.1211Z"/>
	<path fill="#3D405B" transform="scale(1.6 1.6)" d="M193.323 222.211C195.114 222.136 196.508 222.05 197.318 223.95C201.322 233.336 169.662 242.693 163.492 245.004C167.103 246.576 194.849 252.667 185.395 260.986C177.807 263.391 158.035 250.357 149.092 248.4L148.621 248.299C153.864 256.739 161.067 263.703 167.918 270.831C169.702 272.588 180.75 281.601 172.323 283.303C164.704 284.842 135.45 247.122 135.093 240.69C134.97 238.467 137.342 234.471 139.91 234.621C142.858 234.794 145.185 239.532 147.234 241.414L150.565 242.025C153.717 240.694 155.305 237.753 158.317 236.308C162.947 234.087 168.326 233.051 173.147 231.146C179.997 228.438 186.482 224.913 193.323 222.211Z"/>
	<path fill="#3D405B" transform="scale(1.6 1.6)" d="M226.119 217.324C255.532 219.831 253.876 260.517 253.863 281.417L253.848 319.451C253.85 324.949 253.542 336.228 254.861 340.978C256.691 341.321 259.702 341.261 261.262 342.016C259.379 342.743 257.446 343.418 255.611 344.257C255.775 350.092 255.805 355.962 256.132 361.788L261.691 362.633C262.734 372.594 261.976 382.711 262.382 392.717C264.493 392.853 266.352 393.102 268.348 393.87C270.842 402.955 267.797 414.887 269.396 420.731C271.917 423.164 271.074 440.196 268.293 442.352C269.961 445.754 269.721 463.286 268.934 467.394C263.588 473.839 260.588 469.667 255.63 465.226C253.468 465.388 250.31 465.194 248.488 466.362C243.348 473.675 230.361 470.597 222.815 470.595L199.573 470.655C191.156 470.674 177.746 472.522 176.37 460.851C175.398 452.601 175.225 395.606 176.912 393.845C178.331 392.363 180.665 392.536 182.561 392.437C182.379 382.424 182.487 372.393 182.532 362.379C184.422 361.822 186.351 361.509 188.289 361.169C188.434 355.213 186.566 339.236 190.702 336.111C189.746 319.931 189.777 272.184 193.304 260.983C196.724 250.123 214.114 219.639 226.119 217.324Z"/>
	<path fill="#FED732" transform="scale(1.6 1.6)" d="M190.979 372.206C196.722 372.215 202.458 372.09 208.196 371.853C204.035 373.63 194.277 370.795 191.791 374.99C191.656 378.238 190.588 389.161 192.812 391.287C194.325 392.733 202.942 391.346 205.688 392.169C200.778 392.358 195.838 392.235 190.925 392.212C190.679 385.551 190.684 378.865 190.979 372.206Z"/>
	<path fill="#FED732" transform="scale(1.6 1.6)" d="M197.517 345.662C202.645 345.339 207.762 345.248 212.898 345.332C211.055 345.712 193.356 344.883 198.736 350.062C201.951 353.156 201.521 358.018 203.706 360.313C205.304 361.992 208.606 359.953 210.195 361.212C205.956 361.378 201.71 361.296 197.469 361.265L197.517 345.662Z"/>
	<path fill="white" transform="scale(1.6 1.6)" d="M269.396 420.731C271.917 423.164 271.074 440.196 268.293 442.352C266.218 440.56 263.959 438.62 261.559 437.3C261.019 433.097 261.621 428.655 262.244 424.496C264.676 423.316 267.04 422.055 269.396 420.731Z"/>
	<path fill="#FEE55A" transform="scale(1.6 1.6)" d="M212.898 345.332C223.235 344.925 237.427 344.523 247.808 344.995C247.948 350.42 248.269 355.846 248.378 361.27C235.667 361.303 222.898 361.562 210.195 361.212C208.606 359.953 205.304 361.992 203.706 360.313C201.521 358.018 201.951 353.156 198.736 350.062C193.356 344.883 211.055 345.712 212.898 345.332Z"/>
	<path fill="#FEE55A" transform="scale(1.6 1.6)" d="M208.196 371.853C222.071 370.64 239.411 370.762 253.7 370.927C253.918 378.195 253.594 385.12 253.016 392.355C237.246 391.964 221.452 392.599 205.688 392.169C202.942 391.346 194.325 392.733 192.812 391.287C190.588 389.161 191.656 378.238 191.791 374.99C194.277 370.795 204.035 373.63 208.196 371.853Z"/>
	<path fill="#F81F2B" transform="scale(1.6 1.6)" d="M227.615 227.53C247.511 225.696 245.011 274.199 244.995 285.094L245.001 334.865C235.671 334.554 226.29 334.728 216.953 334.718C210.909 334.723 204.846 334.633 198.811 334.989C199.265 314.423 196.799 275.647 202.99 258.885C205.839 251.168 219.13 231.382 227.615 227.53Z"/>
	<path fill="#E07A5F" transform="scale(1.6 1.6)" d="M222.301 207.728C226.709 201.5 238.238 195.845 245.077 192.963C266.321 184.01 286.898 194.832 304.977 206.058C309.866 209.094 314.884 212.621 320.421 214.353C326.939 212.219 332.654 208.252 338.49 204.757C382.847 178.196 389.82 189.212 427.106 210.096C450.139 222.997 468.38 230.925 493.171 238.823C495.188 236.836 496.793 235.17 499.465 234.09C502.505 235.47 503.401 236.512 504.6 239.623C497.678 262.285 446.732 303.391 427.113 317.122C387.407 344.911 345.451 358.342 296.23 352.552C288.431 351.634 267.98 351.291 267.238 341.815C264.908 340.047 263.771 341.019 261.262 342.016C259.702 341.261 256.691 341.321 254.861 340.978C253.542 336.228 253.85 324.949 253.848 319.451L253.863 281.417C253.876 260.517 255.532 219.831 226.119 217.324C227.454 216.954 226.732 215.965 226.62 214.933L226.568 214.423C224.755 212.276 223.353 210.373 222.301 207.728Z"/>
	<path fill="#3D405B" transform="scale(1.6 1.6)" d="M222.301 207.728C226.709 201.5 238.238 195.845 245.077 192.963C266.321 184.01 286.898 194.832 304.977 206.058C309.866 209.094 314.884 212.621 320.421 214.353C326.939 212.219 332.654 208.252 338.49 204.757C382.847 178.196 389.82 189.212 427.106 210.096C450.139 222.997 468.38 230.925 493.171 238.823C495.188 236.836 496.793 235.17 499.465 234.09C502.505 235.47 503.401 236.512 504.6 239.623C497.678 262.285 446.732 303.391 427.113 317.122C387.407 344.911 345.451 358.342 296.23 352.552C288.431 351.634 267.98 351.291 267.238 341.815C268.138 336.779 277.623 340.621 281.318 341.342C332.44 351.324 371.632 342.857 414.179 315.193C441.171 297.644 466.934 275.745 488.01 251.259C457.438 264.953 428.877 273.503 395.046 275.556C376.809 276.663 358.522 275.282 340.959 281.222C322.679 287.404 323.934 288.736 305.618 282.122C298.801 279.66 291.597 277.54 284.359 276.803C280.742 276.435 273.179 276.859 271.209 272.937C269.148 268.836 278.761 267.332 280.958 267.415C287.457 267.659 300.975 271.811 307.357 274.051C325.194 280.311 320.887 278.837 338.431 273.428C359.714 266.866 381.969 268.003 403.932 266.42C431.675 264.42 455.457 254.531 480.661 244.14C461.04 238.857 435.937 224.535 418.569 214.319C409.395 208.923 400.301 202.101 389.956 199.205C359.533 190.686 336.256 223.626 320.172 222.48C314.393 222.068 292.071 207.638 285.145 204.069C268.952 195.725 252.766 195.494 237.405 206.547C233.788 209.15 230.51 212.296 226.568 214.423C224.755 212.276 223.353 210.373 222.301 207.728Z"/>
</svg>
