<?xml version="1.0" encoding="utf-8" ?>
<svg xmlns="http://www.w3.org/2000/svg" xmlns:xlink="http://www.w3.org/1999/xlink" width="1024" height="1023">
	<path fill="#F4F1DE" transform="scale(1.6 1.6)" d="M311.826 81.4062C362.99 79.5549 410.922 92.839 453.539 121.354C512.583 160.859 554.977 229.505 558.509 301.182C561.975 371.514 544.37 428.863 496.68 481.343C452.244 530.241 394.482 556.209 328.516 559.396C250.026 564.708 167.348 521.09 123.494 456.564C79.8858 392.399 67.9773 308.039 96.3879 235.184C130.613 147.418 216.594 83.0222 311.826 81.4062Z"/>
	<path fill="#3D405B" transform="scale(1.6 1.6)" d="M401.231 357.517C408.748 357.243 407.824 370.797 402.468 372.827C395.218 372.479 396.319 360.646 401.231 357.517Z"/>
	<path fill="#3D405B" transform="scale(1.6 1.6)" d="M437.306 358.485C444.172 358.872 442.961 372.912 437.256 374.376C430.88 372.44 430.352 360.111 437.306 358.485Z"/>
	<path fill="#3D405B" transform="scale(1.6 1.6)" d="M337.098 224.949C338.243 222.461 342.618 223.384 344.885 223.446C347.426 228.083 351.167 232.754 353.386 237.275C352.048 238.462 350.801 239.362 349.196 240.18C345.551 239.123 342.456 235.46 339.495 233.152C338.594 231.904 337.944 230.545 337.251 229.175C337.107 227.748 337.053 226.382 337.098 224.949Z"/>
	<path fill="#3D405B" transform="scale(1.6 1.6)" d="M345.102 249.89C346.084 249.299 347.049 248.865 348.112 248.441C349.365 253.773 350.285 276.306 349.16 278.506C348.336 280.116 345.743 280.385 344.09 280.583C342.223 273.477 339.94 255.3 345.102 249.89Z"/>
	<path fill="#3D405B" transform="scale(1.6 1.6)" d="M344.081 326.46C347.784 326.488 348.838 327.521 349.194 331.204C350.179 341.369 349.578 363.119 349.021 373.391C348.857 376.41 348.492 378.209 345.445 379.085C339.656 377.312 342.121 358.887 342.161 354.121C342.214 347.932 340.427 331.119 344.081 326.46Z"/>
	<path fill="#3D405B" transform="scale(1.6 1.6)" d="M401.412 309.673C406.844 310.482 405.274 319.403 404.636 323.186C406.203 324.326 421.747 334.493 412.516 337.063C407.812 338.373 403.774 330.729 398.703 332.192C397.677 332.664 383.212 342.949 384.737 333.614C385.412 329.484 394.004 324.852 397.212 322.694C397.136 319.037 396.916 315.342 397.783 311.76C398.96 310.879 400.058 310.247 401.412 309.673Z"/>
	<path fill="#3D405B" transform="scale(1.6 1.6)" d="M382.845 171.577C390.438 171.131 387.686 182.377 387.555 187.236C389.111 187.293 408.578 186.119 401.579 193.714C399.028 196.484 390.771 195.28 387.223 195.154C387.251 199.366 388.673 208.606 384.9 211.626C377.027 211.663 379.341 201.007 379.073 195.687C376.973 195.71 358.656 196.315 365.462 189.173C367.998 186.512 376.043 187.345 379.643 187.27C379.731 182.536 378.172 174.516 382.845 171.577Z"/>
	<path fill="#3D405B" transform="scale(1.6 1.6)" d="M439.645 229.083C446.872 228.725 445.221 233.2 446.486 238.857C451.34 260.57 472.881 246.612 466.836 260.912C446.202 261.634 449.004 274.447 445.015 285.999C438.659 291.974 437.609 280.111 437 277.352C432.651 257.677 400.425 263.089 427.448 250.469C438.285 245.409 434.209 231.605 439.645 229.083Z"/>
	<path fill="#697A9B" transform="scale(1.6 1.6)" d="M441.646 246.324C444.363 250.178 447.745 253.469 451.021 256.84C447.676 260.242 445.063 264.113 441.861 267.557L441.299 267.3C438.202 263.253 434.892 260.1 430.828 257.04C435.575 253.967 438.459 250.958 441.646 246.324Z"/>
	<path fill="#3D405B" transform="scale(1.6 1.6)" d="M235.917 216.315C234.73 198.031 233.176 156.758 255.961 154.907C264.003 154.254 294.706 154.157 300.932 155.406C319.199 159.071 317.614 201.422 318.459 217.558C322.514 218.186 325.934 219.478 328.981 222.305C322.926 223.249 281.178 226.861 276.447 223.709C274.813 223.829 272.982 223.987 271.39 223.572L271.112 222.888L270.789 223.571C267.765 224.543 263.943 224.002 260.772 223.981L243.127 223.936C206.691 223.907 210.039 256.709 210.066 283.52L210.053 439.053C210.048 452.007 206.647 469.373 220.832 476.208C225.276 478.349 245.195 477.195 251.389 477.203L312.558 477.22C318.082 477.205 330.574 475.046 333.532 479.5C333.378 487.356 323.259 484.653 317.974 484.631L249.233 484.618C241.012 484.629 232.366 485.161 224.197 484.351C197.614 481.713 202.798 447.265 202.798 428.941L202.789 272.245C202.801 246.838 206.915 221.694 235.917 216.315Z"/>
	<path fill="#F4F1DE" transform="scale(1.6 1.6)" d="M270.553 217.493C272.323 216.662 275.782 217.008 277.729 217.159C277.288 219.34 276.847 221.52 276.447 223.709C274.813 223.829 272.982 223.987 271.39 223.572L271.112 222.888C271.043 221.067 271.066 219.253 270.553 217.493Z"/>
	<path fill="white" transform="scale(1.6 1.6)" d="M273.626 163.565C277.951 163.283 280.664 162.884 281.559 167.852C282.618 173.728 282.269 181.455 278.8 186.481C270.681 194.015 271.919 168.985 273.626 163.565Z"/>
	<path fill="#6FE1FE" transform="scale(1.6 1.6)" d="M243.764 202.842C253.008 203.4 262.208 203.175 271.441 203.573C272.688 203.691 273.969 203.754 275.206 203.938C271.966 204.392 269.146 209.341 267.654 211.994C268.561 213.349 269.262 214.517 269.752 216.098L269.425 216.924C261.058 215.884 252.138 216.179 243.688 215.875C243.599 211.535 243.714 207.182 243.764 202.842Z"/>
	<path fill="#E07A5F" transform="scale(1.6 1.6)" d="M288.256 162.199C312.197 161.811 309.174 175.592 309.692 197.473C302.11 197.383 294.603 197.307 287.021 197.577L282.543 197.514C290.486 184.795 291.686 177.094 288.256 162.199Z"/>
	<path fill="#E07A5F" transform="scale(1.6 1.6)" d="M257.711 161.66C260.551 161.394 263.574 162.221 266.353 162.769C264.271 176.675 263.155 183.604 270.612 195.904L258.163 195.856C253.478 195.514 248.702 195.327 244.098 194.368C243.149 182.808 242.829 163.718 257.711 161.66Z"/>
	<path fill="#AFF1FD" transform="scale(1.6 1.6)" d="M287.021 197.577C294.603 197.307 302.11 197.383 309.692 197.473C309.881 199.974 310.162 202.532 309.966 205.038C309.926 208.788 309.949 212.55 309.76 216.296C301.511 217.049 286.542 217.37 277.729 217.159C275.782 217.008 272.323 216.662 270.553 217.493L269.425 216.924L269.752 216.098C269.262 214.517 268.561 213.349 267.654 211.994C269.146 209.341 271.966 204.392 275.206 203.938C273.969 203.754 272.688 203.691 271.441 203.573C273.376 202.733 275.341 202.667 277.414 202.485L279.72 201.991C281.007 200.99 281.575 199.298 282.294 197.858C283.873 197.809 285.445 197.69 287.021 197.577Z"/>
	<path fill="#0E5CD9" transform="scale(1.6 1.6)" d="M271.441 203.573C273.376 202.733 275.341 202.667 277.414 202.485C282.296 202.481 304.962 202.244 307.626 204.05L288.217 204.094C283.897 204.116 279.512 204.293 275.206 203.938C273.969 203.754 272.688 203.691 271.441 203.573Z"/>
	<path fill="#244BAB" transform="scale(1.6 1.6)" d="M287.021 197.577C294.603 197.307 302.11 197.383 309.692 197.473C309.881 199.974 310.162 202.532 309.966 205.038C309.498 203.932 308.694 204.123 307.626 204.05C304.962 202.244 282.296 202.481 277.414 202.485L279.72 201.991C281.007 200.99 281.575 199.298 282.294 197.858C283.873 197.809 285.445 197.69 287.021 197.577Z"/>
	<path fill="#E07A5F" transform="scale(1.6 1.6)" d="M276.447 223.709C281.178 226.861 322.926 223.249 328.981 222.305C330.127 223.58 331.866 224.412 333.39 225.166C334.591 225.227 336.014 225.554 337.098 224.949C337.053 226.382 337.107 227.748 337.251 229.175C337.944 230.545 338.594 231.904 339.495 233.152C342.456 235.46 345.551 239.123 349.196 240.18C348.675 241.196 348.093 242.169 347.509 243.149C347.685 244.89 347.764 246.731 348.112 248.441C347.049 248.865 346.084 249.299 345.102 249.89C339.94 255.3 342.223 273.477 344.09 280.583C343.066 282.518 346.779 294.864 346.874 299.549C348.189 303.341 350.985 308.667 345.961 310.674L345.471 310.814C345.014 311.846 344.085 324.648 344.081 326.46C340.427 331.119 342.214 347.932 342.161 354.121C342.121 358.887 339.656 377.312 345.445 379.085C342.835 381.772 344.768 392.721 344.868 396.541L453.349 396.543C456.909 396.511 472.726 394.131 471.735 400.744C470.851 406.65 464.224 404.942 459.677 404.994C459.617 407.084 459.619 409.195 459.36 411.271C461.048 412.155 462.497 412.996 463.834 414.392C462.471 425.995 458.651 437.747 455.433 448.971C443.516 490.537 433.869 484.619 395.33 484.629C380.68 484.633 359.048 488.451 348.965 475.201C346.851 477.75 337.673 478.656 334.224 479.708L333.532 479.5C330.574 475.046 318.082 477.205 312.558 477.22L251.389 477.203C245.195 477.195 225.276 478.349 220.832 476.208C206.647 469.373 210.048 452.007 210.053 439.053L210.066 283.52C210.039 256.709 206.691 223.907 243.127 223.936L260.772 223.981C263.943 224.002 267.765 224.543 270.789 223.571L271.112 222.888L271.39 223.572C272.982 223.987 274.813 223.829 276.447 223.709Z"/>
	<path fill="#C8C9BF" transform="scale(1.6 1.6)" d="M333.39 225.166C334.591 225.227 336.014 225.554 337.098 224.949C337.053 226.382 337.107 227.748 337.251 229.175L333.39 225.166Z"/>
	<path fill="#3D405B" transform="scale(1.6 1.6)" d="M345.961 310.674C340.744 306.565 336.765 301.071 346.874 299.549C348.189 303.341 350.985 308.667 345.961 310.674Z"/>
	<path fill="#C8C9BF" transform="scale(1.6 1.6)" d="M339.495 233.152C342.456 235.46 345.551 239.123 349.196 240.18C348.675 241.196 348.093 242.169 347.509 243.149C347.685 244.89 347.764 246.731 348.112 248.441C347.049 248.865 346.084 249.299 345.102 249.89C341.667 246.618 340.126 237.825 339.495 233.152Z"/>
	<path fill="#3D405B" transform="scale(1.6 1.6)" d="M413.902 447.379C424.477 448.056 415.546 462.628 412.969 467.215C411.686 468.327 402.902 470.514 413.902 447.379Z"/>
	<path fill="#3D405B" transform="scale(1.6 1.6)" d="M344.868 396.541L453.349 396.543C456.909 396.511 472.726 394.131 471.735 400.744C470.851 406.65 464.224 404.942 459.677 404.994C443.525 403.116 420.19 404.096 403.723 404.096L360.737 404.092C345.943 404.073 339.064 404.247 324.747 406.178C322.621 405.112 316.955 400.774 319.939 398.15C322.752 395.678 340.274 396.524 344.868 396.541Z"/>
	<path fill="#3D405B" transform="scale(1.6 1.6)" d="M459.36 411.271C461.048 412.155 462.497 412.996 463.834 414.392C462.471 425.995 458.651 437.747 455.433 448.971C443.516 490.537 433.869 484.619 395.33 484.629C380.68 484.633 359.048 488.451 348.965 475.201C344.327 467.574 327.859 423.632 329.026 414.561C329.361 411.958 332.842 411.417 334.804 412.52C336.865 413.679 341.585 435.845 342.785 439.965C354.556 480.373 354.677 476.567 390.563 476.532C399.178 476.523 424.663 478.075 431.647 475.558C447.386 469.885 451.529 427.519 459.36 411.271Z"/>
	<path fill="#3D405B" transform="scale(1.6 1.6)" d="M276.369 285.746C297.952 284.353 308.111 320.629 309.539 336.941C311.407 358.277 305.788 406.418 276.991 408.771C232.294 408.864 230.439 290.172 276.369 285.746Z"/>
	<path fill="#E4FE62" transform="scale(1.6 1.6)" d="M274.885 293.809C288.926 292.695 295.584 308.906 298.735 320.093C304.401 340.211 303.549 394.628 278.301 401.592C243.656 403.075 239.341 305.301 274.885 293.809Z"/>
</svg>
