<?xml version="1.0" encoding="utf-8" ?>
<svg xmlns="http://www.w3.org/2000/svg" xmlns:xlink="http://www.w3.org/1999/xlink" width="1024" height="1023">
	<path fill="#F4F1DE" transform="scale(1.6 1.6)" d="M304.172 81.7547C436.192 72.4742 554.531 176.696 558.844 310.722C560.882 374.052 539.478 435.18 495.855 481.586C455.952 524.033 394.52 556.675 335.29 558.468C324.267 558.824 313.001 559.138 301.996 558.312C198.506 550.544 112.274 476.312 88.1694 375.613C53.3031 229.957 158.081 93.0638 304.172 81.7547Z"/>
	<path fill="#3D405B" transform="scale(1.6 1.6)" d="M346.618 285.579C353.021 283.469 357.499 278.398 363.865 276.126C373.898 280.015 366.816 285.453 361.629 289.591L358.801 291.812C346.656 300.091 342.552 289.763 346.618 285.579Z"/>
	<path fill="#3D405B" transform="scale(1.6 1.6)" d="M345.37 249.348C348.01 250.487 349.623 251.692 351.139 254.148C347.716 260.902 340.569 265.093 335.687 270.696C337.795 273.174 341.748 276.703 342.151 280.025C336.86 282.284 331.086 277.284 328.78 272.855C329.208 270.314 331.891 264.472 328.866 263.12C334.803 259.055 338.797 252.978 345.37 249.348Z"/>
	<path fill="#3D405B" transform="scale(1.6 1.6)" d="M372.563 295.537C371.883 284.321 397.237 296.716 404.942 298.374C409.661 299.389 425.594 299.197 420.595 308.2C415.8 311.765 409.147 308.115 403.86 306.86C395.807 304.949 376.366 302.735 372.563 295.537Z"/>
	<path fill="#E07A5F" transform="scale(1.6 1.6)" d="M252.311 264.36C253.069 251.484 256.996 227.756 266.032 218.461C282.439 201.585 298.51 224.621 309.503 235.817C313.082 232.682 323.783 225.921 322.818 236.076C322.49 239.537 315.563 244.136 313.023 246.285L310.761 248.022C311.872 249.389 313.222 250.715 314.67 251.726L316.227 251.467C319.943 253.488 327.615 258.195 327.781 262.962L328.104 263.257L328.866 263.12C331.891 264.472 329.208 270.314 328.78 272.855C331.086 277.284 336.86 282.284 342.151 280.025C342.491 281.651 344.982 284.923 346.618 285.579C342.552 289.763 346.656 300.091 358.801 291.812L361.629 289.591C361.901 291.163 362.363 292.366 363.309 293.659C364.493 295.114 365.671 296.568 366.803 298.065C369.293 297.594 370.652 297.319 372.563 295.537C376.366 302.735 395.807 304.949 403.86 306.86C409.147 308.115 415.8 311.765 420.595 308.2C424.174 308.684 427.799 308.764 431.342 309.499C432.329 308.989 433.47 308.932 434.367 308.485C434.385 305.735 435.746 304.256 437.793 302.534C468.847 303.519 508.031 320.051 509.877 355.691L513.478 356.281C520.366 361.235 523.124 377.666 520.826 383.797C516.975 394.073 467.884 400.925 457.606 402.47C388.341 412.883 330.286 414.33 262.424 393.751C257.972 392.401 253.733 390.444 249.313 388.988C248.82 393.712 250.225 404.669 246.922 407.887C242.804 411.899 192.351 410.672 185.246 410.648C156.392 410.55 155.28 412.381 155.272 384.997L155.351 356.758C142.448 337.359 136.688 265.43 153.7 249.198C161.911 241.364 170.922 246.55 179.574 250.189C206.783 261.634 224.105 263.758 252.311 264.36Z"/>
	<path fill="#3D405B" transform="scale(1.6 1.6)" d="M375.493 304.053C381.049 303.58 384.018 310.371 377.636 313.252C370.575 313.122 369.851 307.006 375.493 304.053Z"/>
	<path fill="#3D405B" transform="scale(1.6 1.6)" d="M316.227 251.467C319.943 253.488 327.615 258.195 327.781 262.962C326.126 263.683 324.442 264.345 322.772 265.027C318.887 262.816 309.21 257.518 313.998 252.289L314.67 251.726L316.227 251.467Z"/>
	<path fill="#3D405B" transform="scale(1.6 1.6)" d="M161.849 273.425C166.442 273.493 184.5 281.104 191.727 282.964C195.078 283.826 208.2 285.082 199.115 292.68C191.477 294.322 167.95 286.51 162.104 282.972C158.259 280.644 159.597 276.467 161.849 273.425Z"/>
	<path fill="#3D405B" transform="scale(1.6 1.6)" d="M252.311 264.36C253.069 251.484 256.996 227.756 266.032 218.461C282.439 201.585 298.51 224.621 309.503 235.817C313.082 232.682 323.783 225.921 322.818 236.076C322.49 239.537 315.563 244.136 313.023 246.285L310.761 248.022L309.156 249.184C296.551 257.538 274.808 269.774 259.9 272.628C236.265 277.153 204.877 269.686 182.41 261.044C175.727 258.473 168.798 255.009 161.729 253.821C154.27 260.511 152.055 283.1 151.521 292.56C150.78 305.681 155.179 334.293 161.199 346.914C198.066 352.211 231.101 349.682 269.687 359.32C285.589 363.292 301.572 368.203 317.913 370.101C321.87 370.561 334.493 370.134 333.015 377.217C330.897 387.367 282.135 371.955 274.82 370.165C235.458 360.535 203.357 359.467 164.063 356.841C164.254 370.867 163.578 384.992 163.99 398.992C170.54 398.372 168.125 388.785 188.807 392.164C201.396 392.46 229.614 390.418 238.548 396.685C240.082 375.623 234.487 373.362 258.55 382.114C279.12 389.595 321.031 396.76 342.875 398.633C380.585 401.868 474.794 395.388 511.531 378.376C511.487 357.321 507.602 365.479 486.697 370.291C452.032 378.269 405.459 384.261 369.945 384.355C366.522 384.364 342.107 385.769 344.938 377.431C346.724 372.173 353.956 373.867 358.044 374.109C392.293 376.136 444.608 368.256 478.072 361.064C485.759 359.412 493.732 358.232 500.986 355.07C492.062 327.538 480.729 317.231 450.177 312.905C445.343 312.22 440.406 312.106 435.609 311.177L435.2 311.094C434.993 310.193 434.85 309.286 434.367 308.485C434.385 305.735 435.746 304.256 437.793 302.534C468.847 303.519 508.031 320.051 509.877 355.691L513.478 356.281C520.366 361.235 523.124 377.666 520.826 383.797C516.975 394.073 467.884 400.925 457.606 402.47C388.341 412.883 330.286 414.33 262.424 393.751C257.972 392.401 253.733 390.444 249.313 388.988C248.82 393.712 250.225 404.669 246.922 407.887C242.804 411.899 192.351 410.672 185.246 410.648C156.392 410.55 155.28 412.381 155.272 384.997L155.351 356.758C142.448 337.359 136.688 265.43 153.7 249.198C161.911 241.364 170.922 246.55 179.574 250.189C206.783 261.634 224.105 263.758 252.311 264.36Z"/>
	<path fill="#31A5E5" transform="scale(1.6 1.6)" d="M163.99 398.992C170.54 398.372 168.125 388.785 188.807 392.164C201.396 392.46 229.614 390.418 238.548 396.685L238.415 400.223C219.579 400.48 197.237 401.112 178.63 399.676C173.827 400.206 168.801 399.17 163.99 398.992Z"/>
	<path fill="#829DAF" transform="scale(1.6 1.6)" d="M163.99 398.992C170.54 398.372 168.125 388.785 188.807 392.164C185.277 392.301 175.188 391.817 172.44 393.541L172.989 394.54C173.333 395.17 173.541 395.578 173.554 396.32L173.588 396.014C172.414 404.113 173.375 396.605 178.63 399.676C173.827 400.206 168.801 399.17 163.99 398.992Z"/>
	<path fill="#E07A5F" transform="scale(1.6 1.6)" d="M277.363 220.888C283.487 220.629 297.701 236.738 301.712 241.57C294.464 246.462 286.932 250.784 279.184 254.831C273.691 257.595 267.84 260.035 261.979 261.891C262.799 249.426 265.034 227.612 277.363 220.888Z"/>
</svg>
