<?xml version="1.0" encoding="utf-8" ?>
<svg xmlns="http://www.w3.org/2000/svg" xmlns:xlink="http://www.w3.org/1999/xlink" width="1024" height="1024">
	<path fill="#F4F1DE" transform="scale(1.6 1.6)" d="M317.088 80.7812C399.11 76.6568 481.769 125.051 524.416 194.082C549.179 234.163 559.164 273.377 559.374 320.326C559.963 451.718 455.088 559.348 323.203 559.749C258.576 559.514 201.557 539.513 153.673 494.123C60.1562 405.476 55.6837 249.701 145.114 156.345C191.72 107.695 250.355 82.2194 317.088 80.7812Z"/>
	<path fill="#3D405B" transform="scale(1.6 1.6)" d="M435.763 214.296C450.589 205.402 456.093 221.392 440.547 224.595C438.143 221.579 436.905 217.923 435.763 214.296Z"/>
	<path fill="#3D405B" transform="scale(1.6 1.6)" d="M267.929 105.967C274.937 106.35 279.043 125.054 268.908 127.505C266.652 127.353 265.918 126.862 264.307 125.286C262.464 120.502 262.229 113.107 264.016 108.32C265.174 107.188 266.404 106.484 267.929 105.967Z"/>
	<path fill="#3D405B" transform="scale(1.6 1.6)" d="M315.292 177.839C323.832 179.059 321.469 200.452 314.905 201.5C309.254 200.522 304.425 181.579 315.292 177.839Z"/>
	<path fill="#3D405B" transform="scale(1.6 1.6)" d="M284.066 167.552C295.666 166.856 290.933 189.622 285.955 191.281C275.874 191.247 277.694 170.864 284.066 167.552Z"/>
	<path fill="#3D405B" transform="scale(1.6 1.6)" d="M307.685 131.812C315.118 131.851 318.586 151.972 310.052 156.052C307.94 156.139 305.389 155.916 304.166 153.892C302.355 150.893 300.978 135.274 307.685 131.812Z"/>
	<path fill="#3D405B" transform="scale(1.6 1.6)" d="M157.75 450.314C159.577 449.635 161.42 448.989 163.197 448.186L163.53 448.454C168.093 452.202 170.523 458.82 173.396 463.907C180.494 476.472 195.321 486.839 209.456 489.557C218.524 491.301 240.195 490.651 250.753 490.485C257.832 490.375 265.464 487.385 268.975 495.286C266.313 503.961 256.173 500.491 248 500.478C215.698 500.428 191.396 503.447 168.999 474.6C165.871 470.572 151.887 454.242 157.75 450.314Z"/>
	<path fill="#3D405B" transform="scale(1.6 1.6)" d="M184.156 299.988C183.917 282.231 194.371 266.9 210.417 259.274C223.021 253.283 241.449 252.226 255.387 250.138C291.23 244.767 329.958 231.179 339.014 191.432C340.246 186.022 340.23 176.973 342.424 172.403C345.083 166.867 351.693 168.419 354.562 172.659C364.463 187.286 380.872 222.509 385.107 238.036C396.719 235.63 406.222 230.779 416.199 224.581C419.948 220.732 430.592 216.61 435.763 214.296C436.905 217.923 438.143 221.579 440.547 224.595C438.999 225.445 439.768 256.822 440.043 261.644C440.245 265.167 440.615 267.242 444.604 267.461C447.054 265.766 449.622 264.869 452.629 265.419C463.027 267.322 451.705 292.855 448.129 297.955C476.779 302.101 473.442 323.697 474.959 345.915C500.397 347.662 502.255 371.418 500.622 392.814C497.689 431.24 472.797 499.987 425.146 500.046C421.978 500.599 418.369 500.142 415.162 500.006C393.392 501.189 371.043 500.468 349.194 500.461L313.049 500.468C305.873 500.482 287.319 503.437 284.869 495.918C283.575 495.556 271.52 495.427 268.975 495.286C265.464 487.385 257.832 490.375 250.753 490.485C240.195 490.651 218.524 491.301 209.456 489.557C195.321 486.839 180.494 476.472 173.396 463.907C170.523 458.82 168.093 452.202 163.53 448.454L163.197 448.186C161.42 448.989 159.577 449.635 157.75 450.314C156.243 447.729 154.119 437.189 152.365 432.705L151.907 432.521C143.851 429.239 144.059 422.126 142.093 414.51C136.036 391.05 130.402 352.617 160.662 345.077C162.791 325.622 157.731 302.87 184.156 299.988Z"/>
	<path fill="#617F9A" transform="scale(1.6 1.6)" d="M424.761 494.579C424.417 495.916 424.134 497.317 423.662 498.614C422.571 499.047 421.459 499.454 420.384 499.925C421.965 499.962 423.569 499.95 425.146 500.046C421.978 500.599 418.369 500.142 415.162 500.006C417.9 497.311 421.518 496.435 424.761 494.579Z"/>
	<path fill="#FEC970" transform="scale(1.6 1.6)" d="M416.199 224.581C419.948 220.732 430.592 216.61 435.763 214.296C436.905 217.923 438.143 221.579 440.547 224.595C438.999 225.445 439.768 256.822 440.043 261.644C440.245 265.167 440.615 267.242 444.604 267.461C446.858 281.031 442.005 288.151 434.502 298.952C417.527 299.383 399.155 299.07 382.173 298.819C374.804 298.711 359.201 296.638 352.907 298.651C357.148 279.216 409.575 290.145 417.139 236.335C420.484 231.404 420.617 228.689 416.199 224.581Z"/>
	<defs>
		<linearGradient id="gradient_0" gradientUnits="userSpaceOnUse" x1="311.65207" y1="384.11935" x2="312.05487" y2="354.93823">
			<stop offset="0" stop-color="#F9928F"/>
			<stop offset="1" stop-color="#FFC0BD"/>
		</linearGradient>
	</defs>
	<path fill="url(#gradient_0)" transform="scale(1.6 1.6)" d="M148.319 382.639C148.61 373.68 148.856 356.423 161.056 355.935C176.526 355.316 192.851 356.096 208.401 356.208L407.405 356.89C430.867 356.852 454.445 355.955 477.888 356.955C467.173 362.938 406.567 367.789 392.156 369.249C347.295 373.793 305.098 375.783 260.291 377.733L168.673 381.36C161.88 381.579 155.098 382.56 148.319 382.639Z"/>
	<path fill="#E07A5F" transform="scale(1.6 1.6)" d="M448.971 309.472C467.433 311.659 465.504 331.264 464.789 346.062C445.652 345.702 426.472 345.953 407.331 345.951L220.732 345.954C204.215 345.957 187.648 345.679 171.139 346.181C171.195 342.077 170.726 327.07 172.064 324.091C173.055 324.374 182.798 318.763 189.749 318.838L396.602 318.992C410.831 318.991 430.24 321.56 442.869 313.669C444.022 312.949 448.466 310.41 448.971 309.472Z"/>
	<path fill="#F4F1DE" transform="scale(1.6 1.6)" d="M350.28 185.629C354.358 192.598 373.219 229.589 373.883 235.337C374.357 239.443 372.116 244.9 374.198 248.609C381.675 254.602 410.076 240.943 417.139 236.335C409.575 290.145 357.148 279.216 352.907 298.651C352.338 300.977 350.71 305.278 351.964 307.496C353.927 310.968 374.302 309.665 378.341 309.666L427.626 309.643C434.788 309.631 441.811 308.832 448.971 309.472C448.466 310.41 444.022 312.949 442.869 313.669C430.24 321.56 410.831 318.991 396.602 318.992L189.749 318.838C182.798 318.763 173.055 324.374 172.064 324.091C173.727 303.469 204.125 309.647 220.088 309.643L294.099 309.641C300.653 309.637 328.377 312.174 329.051 305.96C330.039 296.842 319.963 298.802 314.262 298.812L206.671 298.855C202.878 298.878 199.029 299.134 195.247 298.862L194.827 298.829C195.638 269.742 221.923 265.345 245.574 261.874C297.543 254.248 339.991 243.836 350.28 185.629Z"/>
	<path fill="#E07A5F" transform="scale(1.6 1.6)" d="M477.888 356.955C495.383 359.055 491.555 390.414 489.799 402.282C485.913 428.545 469.864 465.251 448.201 481.293C432.66 492.802 411.907 490.288 393.633 490.286L298.466 490.254C295.109 490.232 291.515 489.853 288.19 490.196C287.033 492.072 286.032 494.059 284.869 495.918C283.575 495.556 271.52 495.427 268.975 495.286C265.464 487.385 257.832 490.375 250.753 490.485C240.195 490.651 218.524 491.301 209.456 489.557C195.321 486.839 180.494 476.472 173.396 463.907C170.523 458.82 168.093 452.202 163.53 448.454L163.197 448.186C161.42 448.989 159.577 449.635 157.75 450.314C156.243 447.729 154.119 437.189 152.365 432.705L151.907 432.521C154.224 430.502 155.894 427.863 157.652 425.365C150.009 409.686 147.593 401.224 148.319 382.639C155.098 382.56 161.88 381.579 168.673 381.36L260.291 377.733C305.098 375.783 347.295 373.793 392.156 369.249C406.567 367.789 467.173 362.938 477.888 356.955Z"/>
</svg>
