<?xml version="1.0" encoding="utf-8" ?>
<svg xmlns="http://www.w3.org/2000/svg" xmlns:xlink="http://www.w3.org/1999/xlink" width="1024" height="1024">
	<path fill="#F4F1DE" transform="scale(1.6 1.6)" d="M484.698 496.841C482.999 497.1 481.285 496.748 479.562 496.883C484.64 502.777 444.418 526.466 438.194 529.852C337.21 584.796 213.416 564.653 137.413 476.942C97.7545 431.173 75.9574 362.74 80.327 302.995C90.101 169.355 207.667 70.7268 339.297 80.5754C401.69 85.2438 462.882 116.847 503.667 164.37C552.357 221.104 571.753 306.009 553.622 378.691C545.824 409.953 525.891 454.274 501.101 475.557C500.113 476.449 498.612 477.189 497.911 478.288C496.375 492.892 501.248 497.285 484.698 496.841ZM497.44 476.32C497.599 476.963 497.818 477.634 497.911 478.288C498.612 477.189 500.113 476.449 501.101 475.557C500.01 475.315 498.86 474.799 497.883 475.415L497.44 476.32Z"/>
	<path fill="#907E84" transform="scale(1.6 1.6)" d="M484.002 464.844C484.4 466.375 484.849 467.908 485.173 469.456C483.943 468.826 482.867 468.567 481.505 468.356C482.684 467.585 483.325 466.041 484.002 464.844Z"/>
	<path fill="#3D405B" transform="scale(1.6 1.6)" d="M161.757 445.582L162.135 446.039C166.339 451.171 169.603 457.022 173.774 462.206C206.347 502.697 260.912 477.917 265.325 490.99C264.883 492.425 264.301 493.763 263.692 495.132C241.997 499.863 200.45 493.5 182.755 481.424C173.735 475.268 158.239 460.756 156.165 449.556L158.382 447.484L161.757 445.582Z"/>
	<path fill="#3D405B" transform="scale(1.6 1.6)" d="M255.969 242.051C242.26 226.575 239.747 204.33 254.946 188.724C260.874 182.637 296.605 161.664 294.881 180.682C297.611 181.934 305.794 179.79 308.608 178.709C310.196 172.68 316.519 174.262 321.258 174.185C330.741 174.033 340.23 174.103 349.715 174.105L454.874 174.088C459.657 174.082 468.91 173.39 473.225 174.546C477.803 175.772 477.956 183.186 473.932 185.199C471.031 186.65 466.688 185.371 463.554 185.219C458.07 191.443 455.989 198.743 453.746 206.539C470.961 210.363 462.043 220.032 454.068 217.769L453.24 217.54C454.431 227.079 456.986 233.264 460.432 241.835C465.663 241.951 474.221 241.015 478.19 245.136C480.815 247.861 480.294 253.188 477.524 255.652C470.052 262.298 463.459 243.942 459.376 286.512C457.364 307.487 461.516 311.026 466.881 327.945C466.023 328.801 465.199 329.689 464.206 330.39C451.949 325.8 452.983 313.451 449.049 309.934C447.653 291.154 447.598 268.878 459.632 253.259L459.336 253.267C447.919 253.449 434.878 252.526 422.993 252.526L252.041 252.518C243.765 252.507 234.971 251.871 226.824 253.401C177.164 262.726 178.081 335.781 228.141 345.003C238.023 346.824 248.485 346.23 258.5 346.138L407.5 345.599C425.597 345.566 443.792 344.997 461.876 345.371C464.402 345.345 466.953 345.399 469.452 344.99C475.184 345.551 492.143 344.407 495.882 346.578C505.487 363.031 488.674 369.903 479.822 376.512C480.217 369.569 484.77 364.052 485.018 355.96C482.65 355.75 480.333 355.859 477.962 355.972C470.697 356.354 463.269 356.004 455.984 356.001L243.032 355.99C213.833 355.983 195.711 354.976 174.503 378.565C163.787 390.484 155.244 410.024 158.831 426.238C157.922 428.462 156.949 430.013 155.191 431.692L154.663 432.2C148.134 429.483 148.956 425.382 149.605 419.422C153.579 382.963 173.286 357.26 209.942 347.791C179.186 331.044 171.551 286.892 195.939 261.032C213.659 242.241 231.808 242.798 255.969 242.051Z"/>
	<path fill="#FEBD52" transform="scale(1.6 1.6)" d="M294.881 180.682C297.611 181.934 305.794 179.79 308.608 178.709C309.566 188.2 314.635 184.944 322.113 184.789C354.805 184.115 387.089 185.168 419.931 184.147C431.367 183.792 443.015 184.727 454.405 183.739C441.936 196.957 438.562 231.007 456.206 241.594C449.06 241.341 441.551 241.867 434.469 241.214C398.646 242.049 360.352 241.858 324.511 241.243C310.105 241.799 292.419 241.709 277.972 241.23C249.281 240.279 241.786 195.352 278.196 185.74C283.485 184.344 290.415 184.839 294.578 180.969L294.881 180.682Z"/>
	<path fill="#FFD692" transform="scale(1.6 1.6)" d="M324.511 241.243C325.671 240.225 335.682 240.623 337.945 240.628L378.272 240.606C382.232 240.568 386.333 239.564 390.247 239.829C400.113 240.497 431.188 239.891 434.469 241.214C398.646 242.049 360.352 241.858 324.511 241.243Z"/>
	<defs>
		<linearGradient id="gradient_0" gradientUnits="userSpaceOnUse" x1="342.66644" y1="211.99283" x2="345.95483" y2="198.83429">
			<stop offset="0" stop-color="#FFCE78"/>
			<stop offset="1" stop-color="#FFEFA4"/>
		</linearGradient>
	</defs>
	<path fill="url(#gradient_0)" transform="scale(1.6 1.6)" d="M321.56 206.776C325.145 201.148 343.148 203.554 349.889 203.536C356.81 203.518 364.202 202.974 371.065 203.646C369.578 204.309 367.679 203.004 366.161 204.201C366.55 207.033 372.117 204.452 373.956 205.907C360.847 206.268 334.25 204.416 323.077 207.7C322.395 207.471 322.121 207.216 321.56 206.776Z"/>
	<path fill="#3D405B" transform="scale(1.6 1.6)" d="M373.956 205.907C386.037 206.301 405.254 204.667 416.432 206.591C421.309 207.431 419.333 215.048 418.07 218.071C408.51 218.572 398.958 218.468 389.389 218.473L334.183 218.473C321.256 218.465 323.655 220.974 321.543 212.742C322.444 211.099 322.03 209.026 323.077 207.7C334.25 204.416 360.847 206.268 373.956 205.907Z"/>
	<path fill="#BC6C25" transform="scale(1.6 1.6)" d="M461.876 345.371C443.792 344.997 425.597 345.566 407.5 345.599L258.5 346.138C248.485 346.23 238.023 346.824 228.141 345.003C178.081 335.781 177.164 262.726 226.824 253.401C234.971 251.871 243.765 252.507 252.041 252.518L422.993 252.526C434.878 252.526 447.919 253.449 459.336 253.267L459.632 253.259C447.598 268.878 447.653 291.154 449.049 309.934C452.983 313.451 451.949 325.8 464.206 330.39C463.217 335.047 467.445 341.074 469.452 344.99C466.953 345.399 464.402 345.345 461.876 345.371Z"/>
	<path fill="#907E84" transform="scale(1.6 1.6)" d="M449.049 309.934C452.983 313.451 451.949 325.8 464.206 330.39C463.217 335.047 467.445 341.074 469.452 344.99C466.953 345.399 464.402 345.345 461.876 345.371C454.151 334.298 448.921 323.755 449.049 309.934Z"/>
	<path fill="#3D405B" transform="scale(1.6 1.6)" d="M240.484 295.389C248.14 294.856 256.585 295.689 264.375 295.691L376.437 295.693C386.856 295.693 397.909 294.937 408.216 296.461C413.462 300.233 412.609 305.848 406.323 306.813C400.576 307.152 394.666 306.559 388.891 306.54L280.002 306.536C268.361 306.537 256.67 306.795 245.036 306.51C232.014 306.19 231.529 298.289 240.484 295.389Z"/>
	<path fill="#BC6C25" transform="scale(1.6 1.6)" d="M477.962 355.972C480.333 355.859 482.65 355.75 485.018 355.96C484.77 364.052 480.217 369.569 479.822 376.512C475.033 386.134 472.582 407.489 473.506 418.047C475.433 424.456 475.223 431.476 476.383 438.087C477.978 447.184 481.16 456.075 484.002 464.844C483.325 466.041 482.684 467.585 481.505 468.356C482.867 468.567 483.943 468.826 485.173 469.456L485.449 470.412C486.598 472.702 487.656 473.486 490.123 473.74C491.243 473.271 492.48 473.331 493.676 473.286C495.111 474.21 496.29 475.039 497.44 476.32C497.599 476.963 497.818 477.634 497.911 478.288C496.375 492.892 501.248 497.285 484.698 496.841C472.158 495.017 452.173 496.196 439.208 496.163L303.724 495.843C298.879 495.853 286.412 497.694 283.08 493.727C277.459 491.091 271.398 491.131 265.325 490.99C260.912 477.917 206.347 502.697 173.774 462.206C169.603 457.022 166.339 451.171 162.135 446.039L161.757 445.582L158.382 447.484C157.617 442.732 157.287 436.319 154.663 432.2L155.191 431.692C156.949 430.013 157.922 428.462 158.831 426.238C155.244 410.024 163.787 390.484 174.503 378.565C195.711 354.976 213.833 355.983 243.032 355.99L455.984 356.001C463.269 356.004 470.697 356.354 477.962 355.972Z"/>
	<path fill="#A06F6F" transform="scale(1.6 1.6)" d="M384.571 429.947C388.723 429.7 392.964 429.906 397.125 429.933L453.597 429.943C457.835 429.925 462.074 429.672 466.309 429.705C468.572 437.885 475.422 463.318 481.505 468.356C482.867 468.567 483.943 468.826 485.173 469.456L485.449 470.412C486.598 472.702 487.656 473.486 490.123 473.74C489.502 474.664 489.123 474.998 488.147 475.533C486.308 479.462 487.823 487.272 477.86 487.5C476.625 483.375 473.799 479.375 472.053 475.398C465.705 460.941 461.319 445.892 461.493 429.985L408.023 429.947C400.238 429.948 392.34 430.304 384.571 429.947Z"/>
	<path fill="#9A989B" transform="scale(1.6 1.6)" d="M485.449 470.412C486.598 472.702 487.656 473.486 490.123 473.74C489.502 474.664 489.123 474.998 488.147 475.533C486.035 474.021 485.167 473.141 485.449 470.412Z"/>
	<path fill="#907E84" transform="scale(1.6 1.6)" d="M477.962 355.972C480.333 355.859 482.65 355.75 485.018 355.96C484.77 364.052 480.217 369.569 479.822 376.512C475.033 386.134 472.582 407.489 473.506 418.047C468.674 418.205 463.858 418.701 459.028 418.841C459.555 400.842 468.908 370.63 477.962 355.972Z"/>
	<path fill="#3D405B" transform="scale(1.6 1.6)" d="M459.028 418.841C463.858 418.701 468.674 418.205 473.506 418.047C475.433 424.456 475.223 431.476 476.383 438.087C477.978 447.184 481.16 456.075 484.002 464.844C483.325 466.041 482.684 467.585 481.505 468.356C475.422 463.318 468.572 437.885 466.309 429.705C462.074 429.672 457.835 429.925 453.597 429.943L397.125 429.933C392.964 429.906 388.723 429.7 384.571 429.947C376.214 429.955 334.764 433.475 333.815 425.812C332.839 417.935 345.327 419.932 349.899 419.93L371.264 419.926C399.733 419.926 430.68 420.838 459.028 418.841Z"/>
	<path fill="#3D405B" transform="scale(1.6 1.6)" d="M490.123 473.74C491.243 473.271 492.48 473.331 493.676 473.286C495.111 474.21 496.29 475.039 497.44 476.32C497.599 476.963 497.818 477.634 497.911 478.288C496.375 492.892 501.248 497.285 484.698 496.841C472.158 495.017 452.173 496.196 439.208 496.163L303.724 495.843C298.879 495.853 286.412 497.694 283.08 493.727C283.241 491.527 283.302 489.313 283.402 487.109C327.57 487.609 371.802 487.15 415.976 487.144L453.4 487.142C461.54 487.142 469.739 486.91 477.86 487.5C487.823 487.272 486.308 479.462 488.147 475.533C489.123 474.998 489.502 474.664 490.123 473.74Z"/>
</svg>
