<?xml version="1.0" encoding="utf-8" ?>
<svg xmlns="http://www.w3.org/2000/svg" xmlns:xlink="http://www.w3.org/1999/xlink" width="1062" height="1062">
	<path fill="#3D405B" transform="scale(1.6602 1.6602)" d="M201.526 118.362C186.629 113.561 203.88 106.742 209.105 104.547C225.473 97.6715 238.863 92.9498 256.108 88.5216C262.225 86.9512 268.966 83.5313 273.851 88.906C275.171 94.5286 271.813 97.112 266.787 98.18C253.213 101.065 224.734 107.95 212.705 115.133C208.874 116.283 205.532 117.672 201.526 118.362Z"/>
	<path fill="#3D405B" transform="scale(1.6602 1.6602)" d="M364.533 89.65C365.105 88.1876 366.044 86.385 367.553 85.6919C372.718 83.3194 411.183 97.3105 418.426 100.384C444.525 111.461 468.914 127.091 489.898 146.173C494.516 150.372 504.121 156.286 498.031 162.752C496.823 163.211 495.576 163.571 494.344 163.96C488.82 160.61 481.397 152.861 476.081 148.41C450.766 127.211 421.46 110.899 389.727 101.552C381.691 99.1856 372.38 98.4441 364.863 94.7222C364.682 93.0489 364.638 91.3316 364.533 89.65Z"/>
	<path fill="#3D405B" transform="scale(1.6602 1.6602)" d="M155.557 141.323C160.399 141.008 164.9 144.733 162.021 149.913C160.606 152.458 155.969 155.768 153.804 158.264C123.628 193.054 103.429 228.395 96.2707 275.053C95.4505 280.399 95.752 290.952 90.1056 293.803C87.3934 294.037 86.1279 293.393 84.0366 291.676C80.8675 284.54 87.3619 260.328 89.4022 252.355C98.7256 215.92 116.51 182.677 141.829 154.84C145.846 150.423 150.381 144.386 155.557 141.323Z"/>
	<path fill="#E07A5F" transform="scale(1.6602 1.6602)" d="M325.176 84.3417C325.168 85.3588 325.131 86.3804 325.224 87.3943C338.086 87.584 352.159 89.8488 364.533 89.65C364.638 91.3316 364.682 93.0489 364.863 94.7222C372.38 98.4441 381.691 99.1856 389.727 101.552C421.46 110.899 450.766 127.211 476.081 148.41C481.397 152.861 488.82 160.61 494.344 163.96C495.576 163.571 496.823 163.211 498.031 162.752C503.786 166.066 508.767 173.572 512.649 178.939C540.843 217.917 560.15 267.57 558.55 316.318C537.125 316.881 515.558 317.183 494.127 317.197C493.116 273.37 487.037 231.162 455.65 198.307C457.785 193.179 453.706 189.668 449.192 188.236C447.486 189.332 446.065 190.732 444.867 192.363C413.115 150.291 376.222 123.931 324.099 114.728C324.105 104.574 324.739 94.4866 325.176 84.3417Z"/>
	<path fill="#E07A5F" transform="scale(1.6602 1.6602)" d="M444.799 449.238L468.109 477.66C471.633 481.906 475.007 486.476 478.759 490.508C471.046 498.444 432.634 523.027 430.685 527.574C415.532 542.968 352.309 554.838 331.763 554.999L325.281 554.996C324.072 564.506 313.858 566.567 313.398 555.354C306.694 556.603 294.455 554.306 287.314 553.601C249.393 549.857 209.776 534.806 178.441 513.132C169.522 506.963 161.611 499.636 152.987 493.116C147.546 492.123 145.819 486.358 145.536 481.473C148.157 479.844 150.375 480.059 153.254 481.102C155.374 478.987 163.613 479.393 166.685 479.391C212.078 479.366 271.12 496.859 313.283 490.264C313.262 487.235 313.185 484.195 313.349 481.169C313.555 493.378 313.119 505.601 313.841 517.795C315.072 519.582 316.23 520.842 318.441 521.283C326.468 522.887 324.518 496.726 324.191 489.924C360.611 487.982 414.224 469.334 444.799 449.238Z"/>
	<path fill="#3D405B" transform="scale(1.6602 1.6602)" d="M145.536 481.473C148.157 479.844 150.375 480.059 153.254 481.102C158.786 483.895 161.339 491.873 152.987 493.116C147.546 492.123 145.819 486.358 145.536 481.473Z"/>
	<path fill="#3D405B" transform="scale(1.6602 1.6602)" d="M313.398 555.354C313.792 551.628 313.071 546.454 315.512 543.348C322.893 533.955 325.171 550.32 325.281 554.996C324.072 564.506 313.858 566.567 313.398 555.354Z"/>
	<path fill="#3D405B" transform="scale(1.6602 1.6602)" d="M313.429 85.6126C314.153 76.8468 322.543 77.0363 325.176 84.3417C324.739 94.4866 324.105 104.574 324.099 114.728C376.222 123.931 413.115 150.291 444.867 192.363C446.065 190.732 447.486 189.332 449.192 188.236C453.706 189.668 457.785 193.179 455.65 198.307C487.037 231.162 493.116 273.37 494.127 317.197C515.558 317.183 537.125 316.881 558.55 316.318C563.518 319.434 561.655 323.696 559.138 328.051L559.073 328.433C558.51 331.93 558.449 335.531 558.149 339.061C554.716 379.417 540.69 418.643 518.046 452.223C513.262 459.318 507.905 469.329 500.653 474.087C502.75 476.523 503.3 479.923 501.502 482.674C493.823 494.423 445.377 533.03 436.757 532.267C434.358 532.055 431.874 529.552 430.685 527.574C432.634 523.027 471.046 498.444 478.759 490.508C475.007 486.476 471.633 481.906 468.109 477.66L444.799 449.238C414.224 469.334 360.611 487.982 324.191 489.924C324.518 496.726 326.468 522.887 318.441 521.283C316.23 520.842 315.072 519.582 313.841 517.795C313.119 505.601 313.555 493.378 313.349 481.169C313.185 484.195 313.262 487.235 313.283 490.264C271.12 496.859 212.078 479.366 166.685 479.391C163.613 479.393 155.374 478.987 153.254 481.102C150.375 480.059 148.157 479.844 145.536 481.473C144.728 479.286 134.166 468.56 131.469 465.157C119.85 450.49 104.343 413.143 103.078 393.198C102.947 391.125 104.014 390.062 105.037 388.341C113.958 373.328 109.803 356.979 108.774 340.111C108.538 336.248 108.858 332.174 108.306 328.367L106.999 327.853C102.038 327.803 97.072 327.713 92.1105 327.778C93.3029 341.25 95.7306 354.974 98.826 368.141C99.7656 372.137 105.347 385.779 102.661 389.041C87.9029 406.957 80.7329 331.918 80.4039 325.086C80.2374 321.629 80.4111 317.734 84.4894 317.289C90.7682 316.602 101.016 317.42 107.818 317.291C107.513 279.55 114.813 244.578 132.619 210.967C150.185 177.808 161.252 159.321 189.575 135.448C195.204 130.703 208.612 120.967 212.876 115.612L212.705 115.133C224.734 107.95 253.213 101.065 266.787 98.18C271.813 97.112 275.171 94.5286 273.851 88.906C282.184 86.531 304.928 84.6702 313.429 85.6126Z"/>
	<path fill="#F4F1DE" transform="scale(1.6602 1.6602)" d="M409.667 327.789L469.534 327.813C477.802 327.811 486.103 327.609 494.366 327.815C495.045 337.614 493.877 348.073 492.673 357.815C488.726 389.776 482.021 408.92 462.345 433.515C459.741 436.783 456.964 439.81 453.946 442.702C453.071 441.581 452.378 440.279 451.643 439.062L450.2 436.794C428.387 411.786 412.501 362.146 409.667 327.789Z"/>
	<path fill="#F4F1DE" transform="scale(1.6602 1.6602)" d="M455.65 198.307C487.037 231.162 493.116 273.37 494.127 317.197C467.776 318.564 436.099 317.928 409.646 317.286C409.862 282.6 423.82 246.756 441.656 217.49C445.707 210.843 449.859 203.582 455.65 198.307Z"/>
	<path fill="#E07A5F" transform="scale(1.6602 1.6602)" d="M494.366 327.815L541.782 327.801C547.237 327.795 553.855 328.57 559.138 328.051L559.073 328.433C558.51 331.93 558.449 335.531 558.149 339.061C554.716 379.417 540.69 418.643 518.046 452.223C513.262 459.318 507.905 469.329 500.653 474.087C494.525 472.588 490.259 478.873 486.552 482.752C475.768 469.34 463.465 457.12 453.946 442.702C456.964 439.81 459.741 436.783 462.345 433.515C482.021 408.92 488.726 389.776 492.673 357.815C493.877 348.073 495.045 337.614 494.366 327.815Z"/>
	<path fill="#F4F1DE" transform="scale(1.6602 1.6602)" d="M324.044 327.41C330.559 328.049 337.178 327.821 343.72 327.82L376.42 327.804C383.944 327.801 391.506 327.579 399.009 328.202C403.654 374.7 418.743 411.506 444.799 449.238C414.224 469.334 360.611 487.982 324.191 489.924C323.772 482.422 323.979 474.844 323.982 467.331L324.044 327.41Z"/>
	<path fill="#F4F1DE" transform="scale(1.6602 1.6602)" d="M324.099 114.728C376.222 123.931 413.115 150.291 444.867 192.363C442.915 196.081 440.028 199.585 437.655 203.07C415.111 236.186 400.107 277.417 398.992 317.507C374.005 316.93 348.964 317.981 323.982 317.272L323.981 182.937C323.982 160.22 323.635 137.437 324.099 114.728Z"/>
	<path fill="#F4F1DE" transform="scale(1.6602 1.6602)" d="M106.999 327.853L217.227 327.802C221.739 327.776 226.475 327.368 230.959 327.781C227.335 367.933 212.821 403.967 189.607 436.56C187.332 439.754 184.527 443.085 182.958 446.693C186.343 459.339 193.841 449.153 198.207 443.301C219.439 414.843 233.891 381.35 239.597 346.278C240.594 340.15 240.835 333.797 241.962 327.74L284.933 327.823C294.415 327.822 303.991 328.085 313.461 327.619L313.433 428.995C313.433 446.375 313.679 463.794 313.349 481.169C313.185 484.195 313.262 487.235 313.283 490.264C271.12 496.859 212.078 479.366 166.685 479.391C163.613 479.393 155.374 478.987 153.254 481.102C150.375 480.059 148.157 479.844 145.536 481.473C144.728 479.286 134.166 468.56 131.469 465.157C119.85 450.49 104.343 413.143 103.078 393.198C102.947 391.125 104.014 390.062 105.037 388.341C113.958 373.328 109.803 356.979 108.774 340.111C108.538 336.248 108.858 332.174 108.306 328.367L106.999 327.853Z"/>
	<path fill="#F4F1DE" transform="scale(1.6602 1.6602)" d="M273.851 88.906C282.184 86.531 304.928 84.6702 313.429 85.6126C313.822 94.5134 313.42 103.584 313.418 112.505L313.408 317.456C289.507 317.318 265.528 317.069 241.633 317.472C240.475 284.699 230.562 253.241 215.329 224.359C211.854 217.77 207.678 207.528 200.744 203.921C187.071 208.243 203.119 223.878 207.864 233.104C221.329 259.286 229.925 288.004 231.141 317.522C190.061 316.607 148.892 318.295 107.818 317.291C107.513 279.55 114.813 244.578 132.619 210.967C150.185 177.808 161.252 159.321 189.575 135.448C195.204 130.703 208.612 120.967 212.876 115.612L212.705 115.133C224.734 107.95 253.213 101.065 266.787 98.18C271.813 97.112 275.171 94.5286 273.851 88.906Z"/>
	<path fill="#3D405B" transform="scale(1.6602 1.6602)" d="M184.044 186.287C191.663 185.977 195.232 195.24 187.301 197.634C179.191 197.402 176.302 189.552 184.044 186.287Z"/>
</svg>
