<?xml version="1.0" encoding="utf-8" ?>
<svg xmlns="http://www.w3.org/2000/svg" xmlns:xlink="http://www.w3.org/1999/xlink" width="1024" height="1024">
	<path fill="#3D405B" transform="scale(1.6 1.6)" d="M105.342 393.176C114.317 389.987 110.885 405.752 111.702 410.404C111.431 419.253 96.7535 415.516 91.206 416.174C91.0378 442.721 112.561 465.409 137.302 472.327C140.656 473.265 149.466 473.115 148.113 478.438C147.744 480.078 147.614 481.757 146.148 482.804C142.107 481.106 137.534 480.221 133.308 479.049C105.05 471.214 84.517 445.032 83.2934 415.644C82.8491 404.972 94.9728 408.928 103.688 408.598C103.574 407.499 103.543 406.393 103.494 405.289C103.505 402.321 103.033 397.105 104.525 394.561L105.342 393.176Z"/>
	<path fill="#F4F1DE" transform="scale(1.6 1.6)" d="M148.113 478.438C154.632 478.737 161.112 479.51 167.648 479.457C172.678 479.417 183.977 477.287 188.222 479.579C190.642 480.957 192.35 481.556 193.709 478.753C198.037 477.744 228.847 479.296 230.946 480.682C233.626 482.858 261.857 481.618 266.763 481.617L482.131 481.595C487.072 481.582 492.073 480.909 496.967 480.983C494.821 486.78 492.219 488.145 487.65 492.172C432.13 541.106 366.901 566.525 293.109 558.037C244.251 552.416 198.645 530.652 161.532 498.705C158.216 495.85 146.091 487.224 146.148 482.804C147.614 481.757 147.744 480.078 148.113 478.438Z"/>
	<path fill="#E07A5F" transform="scale(1.6 1.6)" d="M527.175 408.743C527.617 400.215 523.265 387.791 533.408 388.697C534.004 389.372 534.714 390.059 535.163 390.835C535.86 396.713 535.159 402.84 535.437 408.775C556.885 408.684 561.481 404.5 555.272 429.477C548.543 456.549 524.876 478.169 496.967 480.983C492.073 480.909 487.072 481.582 482.131 481.595L266.763 481.617C261.857 481.618 233.626 482.858 230.946 480.682C228.847 479.296 198.037 477.744 193.709 478.753C192.35 481.556 190.642 480.957 188.222 479.579C183.977 477.287 172.678 479.417 167.648 479.457C161.112 479.51 154.632 478.737 148.113 478.438C149.466 473.115 140.656 473.265 137.302 472.327C112.561 465.409 91.0378 442.721 91.206 416.174C96.7535 415.516 111.431 419.253 111.702 410.404C115.545 410.931 119.942 410.331 123.848 410.313L202.754 410.297C212.629 410.301 222.668 410.68 232.519 409.989C244.301 409.467 256.139 409.692 267.932 409.689L363.094 409.684C367.676 409.685 381.143 408.374 384.679 410.196C387.62 410.653 391.072 410.361 394.053 410.344L443.031 409.827C449.525 409.741 456.111 409.929 462.575 409.3C468.576 408.423 474.996 408.759 481.05 408.758L508.788 408.775L527.175 408.743Z"/>
	<path fill="#3D405B" transform="scale(1.6 1.6)" d="M191.223 476.338C177.403 472.293 192.196 461.295 194.576 473.632C194.397 474.695 193.713 475.192 192.968 475.892C192.396 476.05 191.81 476.254 191.223 476.338Z"/>
	<path fill="#3D405B" transform="scale(1.6 1.6)" d="M280.876 430.848C287.075 431.74 283.127 438.281 286.246 441.014C289.169 443.576 338.923 442.562 346.332 442.378C354.405 442.178 355.558 442.553 357.822 434.334C360.567 424.372 364.127 435.93 363.924 442.266C363.7 445.021 363.152 446.929 361.628 449.269C354.725 453.187 341.058 451.212 333.166 451.212L289.199 451.271C274.896 451.215 274.505 436.564 280.876 430.848Z"/>
	<path fill="#3D405B" transform="scale(1.6 1.6)" d="M232.519 409.989C244.301 409.467 256.139 409.692 267.932 409.689L363.094 409.684C367.676 409.685 381.143 408.374 384.679 410.196C384.665 412.237 384.961 414.227 385.231 416.245C377.25 417.904 365.518 417.07 357.078 417.07L261.41 417.063C252.084 417.074 241.996 417.913 232.812 416.289C232.503 414.182 232.51 412.116 232.519 409.989Z"/>
	<path fill="#3D405B" transform="scale(1.6 1.6)" d="M527.175 408.743C527.617 400.215 523.265 387.791 533.408 388.697C534.004 389.372 534.714 390.059 535.163 390.835C535.86 396.713 535.159 402.84 535.437 408.775C556.885 408.684 561.481 404.5 555.272 429.477C548.543 456.549 524.876 478.169 496.967 480.983C492.073 480.909 487.072 481.582 482.131 481.595L266.763 481.617C261.857 481.618 233.626 482.858 230.946 480.682C230.974 478.414 231.096 476.192 231.308 473.934C240.465 473.222 249.741 473.513 258.923 473.518L471.83 473.535C481.354 473.535 491.096 473.999 500.527 472.505C527.77 468.189 547.035 442.669 550.222 416.244C544.536 416.137 539.014 416.778 533.357 417.003C525.75 417.305 465.629 417.864 462.669 415.119C461.732 413.285 462.289 411.249 462.575 409.3C468.576 408.423 474.996 408.759 481.05 408.758L508.788 408.775L527.175 408.743Z"/>
	<path fill="#F4F1DE" transform="scale(1.6 1.6)" d="M143.977 155.317C149.445 149.324 159.166 141.941 165.674 136.748C229.242 86.0308 312.117 66.7884 390.179 91.0401C417.241 99.4474 455.445 118.751 476.361 137.87C479.854 141.063 492.318 150.813 490.551 155.354L513.935 155.301C520.625 155.273 532.226 153.381 534.553 162.222C536.266 168.734 535.472 197.333 534.987 206.993L535.909 206.148C538.781 206.542 541.518 217.631 542.53 220.265C556.733 257.194 573.669 359.964 540.184 392.436C539.261 391.86 536.108 389.447 535.163 390.835C534.714 390.059 534.004 389.372 533.408 388.697C523.265 387.791 527.617 400.215 527.175 408.743L508.788 408.775L481.05 408.758C474.996 408.759 468.576 408.423 462.575 409.3C456.111 409.929 449.525 409.741 443.031 409.827L394.053 410.344C391.072 410.361 387.62 410.653 384.679 410.196C381.143 408.374 367.676 409.685 363.094 409.684L267.932 409.689C256.139 409.692 244.301 409.467 232.519 409.989C222.668 410.68 212.629 410.301 202.754 410.297L123.848 410.313C119.942 410.331 115.545 410.931 111.702 410.404C110.885 405.752 114.317 389.987 105.342 393.176L104.525 394.561C103.033 397.105 103.505 402.321 103.494 405.289C101.257 404.541 98.8981 398.452 97.6708 396.152C72.9636 353.55 78.7803 286.336 91.8808 241.474C94.5252 232.418 97.3884 222.489 102.295 214.369C102.624 213.015 103.291 212.494 104.406 211.786C104.557 208.23 104.621 206.028 108.23 204.487C110.823 202.945 108.009 188.714 109.169 183.16C102.794 182.443 105.227 172.111 105.202 166.661C105.147 155.006 115.356 155.572 124.163 155.477L143.977 155.317Z"/>
	<path fill="#3D405B" transform="scale(1.6 1.6)" d="M530.361 328.425C536.349 328.857 537.216 338.424 531.435 340.331C524.487 339.845 525.658 331.249 530.361 328.425Z"/>
	<path fill="#3D405B" transform="scale(1.6 1.6)" d="M269.467 155.052C274.549 154.724 287.85 152.563 284.669 161.589C284.349 162.499 283.688 162.729 282.909 163.152C279.207 163.692 270.512 164.266 267.93 161.992C266.924 159.439 267.032 156.573 269.467 155.052Z"/>
	<path fill="#3D405B" transform="scale(1.6 1.6)" d="M403.86 155.451C406.681 155.365 415.299 154.528 417.536 156.041C423.068 159.783 416.289 163.323 410.96 163.371C407.275 163.397 399.868 164.152 396.887 162.143C389.138 156.923 400.279 155.542 403.86 155.451Z"/>
	<path fill="#3D405B" transform="scale(1.6 1.6)" d="M316.215 155.334C325.145 154.821 334.392 155.306 343.351 155.312C347.79 155.315 371.496 153.023 373.072 158.332C373.832 160.894 372.208 162.398 370.047 163.072C362.422 164.569 327.601 163.853 319.122 163.354C312.891 162.987 310.652 158.794 316.215 155.334Z"/>
	<path fill="#3D405B" transform="scale(1.6 1.6)" d="M408.017 308.55C409.375 308.517 410.741 308.614 412.098 308.67C412.285 311.872 412.56 315.165 411.842 318.319C431.199 320.568 431.35 346.878 410.235 347.604C383.77 347.765 389.005 323.735 404.024 318.067C404.239 314.101 403.035 309.208 408.017 308.55Z"/>
	<path fill="#E4C830" transform="scale(1.6 1.6)" d="M408.776 324.503C421.524 324.351 423.519 338.46 409.753 340.272C394.465 340.708 396.185 325.656 408.776 324.503Z"/>
	<path fill="#3D405B" transform="scale(1.6 1.6)" d="M143.977 155.317L223.377 155.324C226.705 155.326 237.385 153.814 237.214 159.341C237.035 165.147 226.953 163.397 223.243 163.399L143.337 163.419C133.39 163.417 123.227 162.932 113.31 163.443C112.982 167.971 114.815 179.769 111.593 182.099C110.865 182.625 109.824 182.65 109.169 183.16C102.794 182.443 105.227 172.111 105.202 166.661C105.147 155.006 115.356 155.572 124.163 155.477L143.977 155.317Z"/>
	<path fill="#3D405B" transform="scale(1.6 1.6)" d="M108.23 204.487C115.666 205.428 112.415 220.91 112.402 227.662L112.41 359.906C112.421 363.604 112.847 367.928 112.054 371.525C110.968 376.453 106.341 375.45 104.875 371.521C103.984 369.135 104.498 340.81 104.498 335.373L104.502 259.719C104.502 245.4 104.726 231.041 104.364 216.727C104.444 215.086 104.402 213.429 104.406 211.786C104.557 208.23 104.621 206.028 108.23 204.487Z"/>
	<path fill="#3D405B" transform="scale(1.6 1.6)" d="M490.551 155.354L513.935 155.301C520.625 155.273 532.226 153.381 534.553 162.222C536.266 168.734 535.472 197.333 534.987 206.993C535.317 229.466 535.208 251.938 535.204 274.414L535.224 294.632C535.23 298.751 535.478 303.024 534.947 307.112C532.407 311.113 530.485 311.261 527.628 307.616C526.799 302.902 527.338 297.627 527.348 292.83L527.379 264.257C527.388 230.782 526.799 197.059 527.476 163.615C516.398 162.62 500.704 163.278 489.462 163.531C478.776 163.238 468.038 163.388 457.347 163.394C453.741 163.396 439.28 165.433 438.716 159.884C438.003 152.866 454.019 155.294 457.829 155.297L490.551 155.354Z"/>
	<path fill="#3D405B" transform="scale(1.6 1.6)" d="M248.809 273.312C241.327 268.076 213.622 264 211.898 257.651C209.915 250.348 227.177 247.123 231.832 245.533C242.478 241.897 253.195 238.27 263.781 234.455L299.087 221.365C303.002 219.913 312.878 214.823 316.678 216.119C346.135 226.166 375.4 236.828 404.957 246.584C411.123 248.619 424.393 249.636 421.427 259.081C420.788 261.118 389.902 270.526 385.267 271.934C385.26 292.85 385.932 313.246 386.135 334.002C386.189 339.56 386.977 344.557 382.75 348.782C361.211 370.306 246.012 370.087 240.622 343.859C238.791 334.955 239.743 299.658 240.022 288.689C240.168 282.966 243.014 282.68 248.161 282.445C247.98 279.427 248.478 276.311 248.809 273.312Z"/>
	<path fill="#E07A5F" transform="scale(1.6 1.6)" d="M314.504 224.057C316.078 223.843 397.911 251.261 408.319 255.278C387.533 261.998 365.335 270.384 344.844 277.966C335.382 281.467 325.644 284.33 316.329 288.203C312.296 290.035 264.363 271.264 258.59 268.998C247.876 264.792 233.145 257.501 222.148 255.513C248.443 250.772 287.566 234.181 314.504 224.057Z"/>
	<path fill="#3D405B" transform="scale(1.6 1.6)" d="M319.983 253.576C323.031 253.716 325.855 256.921 323.186 259.474C320.458 262.084 308.705 261.03 304.85 260.823C301.603 259.992 298.918 257.7 301.368 254.309C304.605 253.096 315.744 253.742 319.983 253.576Z"/>
	<path fill="#E07A5F" transform="scale(1.6 1.6)" d="M248.809 273.312C252.25 275.007 256.088 276.152 259.714 277.398L277.943 283.526C290.359 287.619 302.656 292.101 314.845 296.82C335.936 289.463 356.834 281.376 378.074 274.475C378.699 282.129 378.237 289.74 378.349 297.403C378.55 311.212 379.142 325.45 378.392 339.244C378.108 344.454 376.092 345.107 371.497 347.232C344.452 359.737 269.962 362.325 247.859 343.156C246.17 333.617 247.421 307.64 247.602 297.351C247.688 292.399 248.386 287.387 248.161 282.445C247.98 279.427 248.478 276.311 248.809 273.312Z"/>
</svg>
