<?xml version="1.0" encoding="utf-8" ?>
<svg xmlns="http://www.w3.org/2000/svg" xmlns:xlink="http://www.w3.org/1999/xlink" width="1023" height="1023">
	<path fill="#F4F1DE" transform="scale(1.6 1.6)" d="M312.992 80.4839L314.295 80.4075C372.503 77.5536 436.462 101.733 479.154 140.427C564.36 217.653 585.32 343.768 525.924 442.607C482.192 515.38 409.889 555.807 326.328 559.576C145.311 566.678 20.5693 367.226 109.567 205.755C145.847 139.932 212.57 94.0945 286.866 82.7573C295.506 81.4389 304.279 81.0409 312.992 80.4839Z"/>
	<path fill="#D5CEAD" transform="scale(1.6 1.6)" d="M506.597 286.407C511.266 289.589 515.64 290.886 516.766 297.287C517.398 300.878 514.372 311.839 509.238 310.808C508.976 311.954 508.878 313.05 508.802 314.222C508.664 312.051 508.783 309.817 508.802 307.638C518.261 302.977 516.873 293.743 508.204 289.771C506.156 288.706 506.522 289.143 506.597 286.407Z"/>
	<path fill="#3D405B" transform="scale(1.6 1.6)" d="M250.917 174.443C256.855 173.744 267.631 178.354 258.379 183.491C252.68 184.467 242.064 179.125 250.917 174.443Z"/>
	<path fill="#3D405B" transform="scale(1.6 1.6)" d="M376.322 267.239C379.284 267.216 381.965 270.234 380.43 273.178C378.697 276.504 364.244 280.357 360.057 281.785C353.725 282.8 348.965 273.84 376.322 267.239Z"/>
	<path fill="#3D405B" transform="scale(1.6 1.6)" d="M423.302 257.92C432.281 256.845 431.96 265.027 428.789 265.882C424.473 267.045 414.72 267.697 409.37 268.689C406.336 269.171 401.506 269.876 400.725 265.7C399.643 259.917 419.652 258.452 423.302 257.92Z"/>
	<path fill="#3D405B" transform="scale(1.6 1.6)" d="M208.963 330.018C214.083 329.75 234.326 331.417 238.923 332.807C243.369 334.151 243.586 339.312 239.543 341.141C236.929 341.069 193.28 339.463 208.963 330.018Z"/>
	<path fill="#3D405B" transform="scale(1.6 1.6)" d="M424.051 336.682C427.378 336.221 432.526 339.302 430.441 343.086C429.458 344.871 400.285 349.28 396.009 350.232C392.328 351.011 391.233 348.935 389.451 345.951C396.117 338.782 414.74 337.929 424.051 336.682Z"/>
	<path fill="#3D405B" transform="scale(1.6 1.6)" d="M424.296 217.94C431.988 216.336 434.75 225.235 425.487 226.269C403.125 228.767 383.473 233.921 363.05 243.355C359.528 244.453 354.167 240.898 357.195 237.269C364.192 228.885 413.302 219.167 424.296 217.94Z"/>
	<path fill="#3D405B" transform="scale(1.6 1.6)" d="M208.851 295.341C221.329 294.685 280.943 305.154 282.578 308.377C283.846 310.877 281.757 313.38 279.71 314.645C275.523 314.894 271.378 313.051 267.33 312.203C253.122 309.226 238.461 306.992 224.056 305.232C220.615 304.812 196.521 304.027 208.851 295.341Z"/>
	<path fill="#3D405B" transform="scale(1.6 1.6)" d="M209.801 219.126C227.708 218.83 262.559 226.553 279.037 231.565C284.244 233.149 284.084 238.931 279.52 240.962C260.682 236.83 246.736 231.44 225.974 229.004C222.667 228.615 202.558 228.857 206.253 221.421C207.016 219.887 208.269 219.585 209.801 219.126Z"/>
	<path fill="#3D405B" transform="scale(1.6 1.6)" d="M208.462 259.092C220.161 257.902 279.502 268.953 282.254 271.474C284.976 273.968 282.736 276.818 280.647 278.766C275.431 279.153 240.388 270.964 231.749 269.77C228.538 269.326 195.114 269.057 208.462 259.092Z"/>
	<path fill="#3D405B" transform="scale(1.6 1.6)" d="M424.471 296.38C425.925 296.209 427.444 296.296 428.909 296.298C440.275 306.285 413.806 306.364 409.302 307.125C393.082 309.863 376.55 314.416 361.677 321.51C358.279 322.973 353.339 319.108 356.239 315.561C363.065 307.213 413.87 297.343 424.471 296.38Z"/>
	<path fill="#3D405B" transform="scale(1.6 1.6)" d="M444.688 426.527C444.373 423.888 443.764 422.008 446.609 420.655C455.863 416.255 499.571 416.703 501.281 415.111C504.539 412.078 504.005 378.862 504.374 372.771C504.698 367.417 505.24 367.018 510.401 367.388C512.788 369.883 511.331 379.762 511.299 383.203C511.189 395.174 515.113 420.872 500.195 423.628C492.47 425.055 481.185 424.384 472.921 425.009C467.14 425.445 449.132 429.565 444.688 426.527Z"/>
	<path fill="#3D405B" transform="scale(1.6 1.6)" d="M167.651 212.182C168.094 200.592 164.907 175.448 173.035 168.047C180.992 160.802 202.802 165.363 212.844 166.331C216.763 166.709 230.557 166.021 230.372 172.307C230.018 184.346 188.823 165.348 177.978 174.122C173.823 177.484 175.404 216.504 175.404 223.285L175.394 296.428C175.389 302.987 177.777 336.427 172.873 339.07C171.329 338.527 170.137 337.921 168.769 337.037C167.621 330.277 167.793 323.408 167.799 316.578L167.767 220.921C117.261 217.988 147.394 232.521 130.144 237.89C128.167 234.752 128.45 228.579 129.229 225.044C132.889 208.449 155.109 212.076 167.651 212.182Z"/>
	<path fill="#3D405B" transform="scale(1.6 1.6)" d="M129.877 367.359C131.853 367.69 135.202 368.258 136.419 370C140.552 375.918 131.524 412.928 142.166 415.77C147.05 417.073 164.74 416.408 172.511 417.284C209.694 421.477 258.277 431.68 293.001 446.665C300.404 449.86 312.418 458.721 319.989 458.766C329.692 458.824 338.196 450.465 346.845 446.884C355.693 443.221 364.989 440.114 374.257 437.691L377.74 443.161C377.541 447.146 354.696 452.734 350.373 454.484C339.467 458.897 331.566 467.021 318.985 466.403C307.279 465.827 298.074 457.097 287.256 453.208C248.15 439.15 208.124 430.223 166.873 425.302C155.038 423.891 132.08 428.365 129.728 411.468C128.801 404.809 128.308 373.128 129.877 367.359Z"/>
	<path fill="#3D405B" transform="scale(1.6 1.6)" d="M415.344 176.249C395.993 164.866 452.667 164.281 456.411 164.496C477.813 165.724 472.852 196.038 471.485 211.295C492.283 212.728 511.681 207.605 511.15 236.042C511.115 237.92 511.087 239.313 509.688 240.681L509.285 240.457C492.047 230.721 522.481 220.654 471.296 219.659C472.491 228.738 471.913 238.293 471.911 247.445L471.908 377.508C471.993 386.018 473.819 394.203 462.411 395.671C456.222 396.468 449.88 396.044 443.662 396.617C414.361 399.313 386.111 405.181 358.617 415.662L341.094 422.475C310.66 434.55 310.474 426.487 278.884 414.544C251.17 404.066 220.992 398.177 191.406 396.242C181.181 395.573 168.376 397.171 167.312 383.491C166.952 378.849 165.205 363.568 172.118 362.724C178.032 367.284 174.152 379.487 175.385 386.351C181.133 387.918 187.868 387.227 193.828 387.503C229.904 389.169 282.373 404.047 315.963 419.993C315.189 411.034 315.563 401.858 315.567 392.865L315.546 207.874C304.145 196.115 264.665 192.314 281.315 182.488C292.267 186.463 311.07 192.927 319.482 200.699L319.82 200.381C329.092 191.82 382.765 172.901 391.354 173.645C393.856 173.862 395.178 176.987 394.732 179.191C394.035 182.628 388.572 182.99 385.733 183.705C365.711 188.748 341.53 195.171 324.078 206.368C324.349 212.147 324.096 218.046 324.095 223.836L324.077 396.051C324.077 404.034 323.975 411.975 324.553 419.944C327.282 419.117 329.979 417.839 332.642 416.788L347.785 410.839C379.279 398.332 407.499 391.237 441.327 388.137C448.795 387.453 456.48 387.701 463.867 386.444C464.184 382.81 463.969 379.029 463.962 375.379L463.942 191.542C463.942 187.539 465.529 177.026 462.029 174.242C455.185 168.796 424.713 175.549 415.782 176.218L415.344 176.249Z"/>
	<path fill="#E07A5F" transform="scale(1.6 1.6)" d="M471.296 219.659C522.481 220.654 492.047 230.721 509.285 240.457L509.688 240.681C508.578 244.745 508.685 262.046 508.878 267.065C514.519 269.702 510.378 273.512 506.556 275.622C506.372 279.184 506.304 282.847 506.597 286.407C506.522 289.143 506.156 288.706 508.204 289.771C516.873 293.743 518.261 302.977 508.802 307.638C508.783 309.817 508.664 312.051 508.802 314.222C508.868 322.849 508.863 361.06 510.401 367.388C505.24 367.018 504.698 367.417 504.374 372.771C504.005 378.862 504.539 412.078 501.281 415.111C499.571 416.703 455.863 416.255 446.609 420.655C443.764 422.008 444.373 423.888 444.688 426.527C441.581 426.501 438.078 427.573 435.018 428.151C420.464 430.901 391.172 436.627 377.74 443.161L374.257 437.691C364.989 440.114 355.693 443.221 346.845 446.884C338.196 450.465 329.692 458.824 319.989 458.766C312.418 458.721 300.404 449.86 293.001 446.665C258.277 431.68 209.694 421.477 172.511 417.284C164.74 416.408 147.05 417.073 142.166 415.77C131.524 412.928 140.552 375.918 136.419 370C135.202 368.258 131.853 367.69 129.877 367.359C130.753 363.628 130.339 359.188 130.33 355.356L130.283 247.369C130.261 244.233 129.926 241.011 130.144 237.89C147.394 232.521 117.261 217.988 167.767 220.921L167.799 316.578C167.793 323.408 167.621 330.277 168.769 337.037C170.137 337.921 171.329 338.527 172.873 339.07L172.626 339.18L172.547 339.56L172.803 339.334L172.551 339.725L172.785 339.198C171.762 346.943 172.202 354.928 172.118 362.724C165.205 363.568 166.952 378.849 167.312 383.491C168.376 397.171 181.181 395.573 191.406 396.242C220.992 398.177 251.17 404.066 278.884 414.544C310.474 426.487 310.66 434.55 341.094 422.475L358.617 415.662C386.111 405.181 414.361 399.313 443.662 396.617C449.88 396.044 456.222 396.468 462.411 395.671C473.819 394.203 471.993 386.018 471.908 377.508L471.911 247.445C471.913 238.293 472.491 228.738 471.296 219.659Z"/>
</svg>
