<?xml version="1.0" encoding="utf-8" ?>
<svg xmlns="http://www.w3.org/2000/svg" xmlns:xlink="http://www.w3.org/1999/xlink" width="1024" height="1024">
	<path fill="#F4F1DE" transform="scale(1.6 1.6)" d="M521.562 444.507C520.126 449.818 520.456 455.093 519.863 460.493C518.741 470.718 509.412 465.238 508.832 470.475C507.724 480.472 498.029 482.69 491.392 488.279C488.371 490.824 485.655 493.825 482.856 496.611C433.477 545.769 359.264 566.268 290.88 558.606C214.466 550.044 144.795 501.229 108.759 433.653C17.3785 262.294 157.187 59.5498 348.197 81.9128C424.485 90.8444 487.74 132.596 527.639 198.947C559.137 251.326 567.678 322.053 552.808 380.791C548.736 396.877 537.053 432.265 523.663 441.998C522.952 442.826 522.241 443.652 521.562 444.507Z"/>
	<path fill="#E07A5F" transform="scale(1.6 1.6)" d="M514.079 440.374C516.675 440.198 521.795 439.787 523.663 441.998C522.952 442.826 522.241 443.652 521.562 444.507C516.363 446.675 514.702 445.62 514.079 440.374Z"/>
	<path fill="#3D405B" transform="scale(1.6 1.6)" d="M217.854 202.591C218.092 199.748 217.741 198.235 220.628 197.104C230.759 193.133 241.353 190.08 251.613 186.436L282.186 175.522C321.145 161.373 309.87 160.558 348.668 174.429C354.02 176.342 366.587 177.485 362.416 185.863C354.361 191.08 326.419 170.881 313.937 173.713C306.727 175.349 299.492 178.775 292.503 181.243C283.798 184.317 222.619 207.391 217.941 205.387L217.291 204.137C216.523 204.399 216.326 205.126 215.65 205.29C216.067 204.227 217.068 203.399 217.854 202.591Z"/>
	<path fill="#3D405B" transform="scale(1.6 1.6)" d="M181.933 297.276C183.607 297.253 184.965 297.428 186.501 298.126L186.529 382.929C186.533 391.316 185.589 398.698 192.006 405.057C205.237 418.166 248.474 423.7 266.833 426.039C276.334 427.25 284.374 424.623 287.361 433.937C287.22 436.887 285.422 436.753 282.777 436.729C258.857 436.518 199.436 425.38 185.261 410.84C177.361 402.737 177.715 394.353 177.751 383.857L177.85 300.271C179.168 299.067 180.388 298.155 181.933 297.276Z"/>
	<path fill="#3D405B" transform="scale(1.6 1.6)" d="M440.904 276.672C441.665 276.206 442.451 275.577 443.361 275.508C448.746 275.473 449.239 277.37 449.389 282.351C449.662 291.459 449.39 300.651 449.382 309.766L449.378 362.948C449.393 382.686 454.88 403.653 435.819 415.586C404.037 435.485 354.167 434.906 317.267 437.702L317.204 453.791C321.353 453.809 335.83 452.77 338.622 455.632C342.626 459.737 338.426 462.825 317.478 462.383C317.164 467.549 317.94 486.404 316.282 489.628C304.917 497.929 308.422 465.969 308.433 462.529C303.858 462.541 289.25 463.791 286.004 460.587C276.671 451.378 306.246 453.947 307.831 454.032C307.881 448.852 307.872 443.598 308.255 438.433C308.6 433.9 308.007 429.966 313.496 429.617C345.567 427.582 411.126 424.893 433.276 406.335C444.486 396.943 441.064 380.683 441.052 367.767L441.064 303.044C441.071 295.177 440.162 284.601 440.856 277.157L440.904 276.672Z"/>
	<path fill="#E07A5F" transform="scale(1.6 1.6)" d="M215.65 205.29C216.326 205.126 216.523 204.399 217.291 204.137L217.941 205.387C222.619 207.391 283.798 184.317 292.503 181.243C299.492 178.775 306.727 175.349 313.937 173.713C326.419 170.881 354.361 191.08 362.416 185.863C369.888 186.927 376.86 190.973 384.219 191.699C390.198 186.522 396.703 191.516 403.123 193.671L490.351 222.879C495.192 224.462 512.029 228.569 515.217 232.271C525.87 244.645 490.41 249.604 483.338 253.367C481.77 254.078 478.783 255.024 477.684 256.305C480.145 256.229 481.889 256.339 483.696 258.188C484.608 262.373 484.226 267.215 484.218 271.498L484.197 346.05C484.196 357.024 483.957 368.062 484.369 379.028C501.069 381.557 505.564 396.015 496.835 409.957L497.14 410.159C508.57 414.207 509.735 458.718 508.442 468.934C497.888 474.324 477.341 472.164 465.62 472.229C461.108 472.254 456.448 472.914 451.972 472.412C445.45 468.437 452.777 443.53 454.079 436.066C455.655 427.033 455.624 413.553 463.275 407.192C459.072 393.941 461.9 383.788 475.376 378.308C474.698 367.528 475.081 356.592 475.085 345.786L475.102 290.506C475.104 279.646 475.641 268.54 474.522 257.742C463.958 261.02 454.023 263.328 443.219 267.023C443.725 270.136 444.713 272.499 443.361 275.508C442.451 275.577 441.665 276.206 440.904 276.672L440.856 277.157C440.162 284.601 441.071 295.177 441.064 303.044L441.052 367.767C441.064 380.683 444.486 396.943 433.276 406.335C411.126 424.893 345.567 427.582 313.496 429.617C308.007 429.966 308.6 433.9 308.255 438.433L308.203 436.873C305.469 433.157 291.678 436.156 287.361 433.937C284.374 424.623 276.334 427.25 266.833 426.039C248.474 423.7 205.237 418.166 192.006 405.057C185.589 398.698 186.533 391.316 186.529 382.929L186.501 298.126C184.965 297.428 183.607 297.253 181.933 297.276C180.859 287.46 181.44 274.429 182.497 264.604C176.807 261.783 169.96 259.898 163.912 257.879L132.945 247.412C128.393 245.909 118.35 244.675 116.228 239.694C112.556 231.074 130.241 227.159 135.583 225.318C142.001 223.107 186.031 207.029 190.655 208.908C191.505 210.294 193.316 212.673 194.968 210.807C194.952 209.295 193.423 208.511 194.478 206.982C196.434 204.148 201.456 202.063 204.725 201.485C208.082 203.746 210.928 205.134 215.057 205.253L215.65 205.29Z"/>
	<path fill="#3D405B" transform="scale(1.6 1.6)" d="M182.497 264.604C176.807 261.783 169.96 259.898 163.912 257.879L132.945 247.412C128.393 245.909 118.35 244.675 116.228 239.694C112.556 231.074 130.241 227.159 135.583 225.318C142.001 223.107 186.031 207.029 190.655 208.908C191.505 210.294 193.316 212.673 194.968 210.807C194.952 209.295 193.423 208.511 194.478 206.982C196.434 204.148 201.456 202.063 204.725 201.485C208.082 203.746 210.928 205.134 215.057 205.253C212.019 207.138 209.742 210.127 206.467 211.635C202.034 213.675 196.878 214.17 192.264 215.791C171.716 223.011 149.317 231.071 128.347 237.003C137.199 239.086 145.926 242.258 154.511 245.233L193.632 259.215C199.413 261.3 225.801 267.686 223.67 274.009C221.458 280.569 213.817 275.264 209.758 273.924C200.744 270.947 191.231 268.297 182.497 264.604Z"/>
	<path fill="#3D405B" transform="scale(1.6 1.6)" d="M384.219 191.699C390.198 186.522 396.703 191.516 403.123 193.671L490.351 222.879C495.192 224.462 512.029 228.569 515.217 232.271C525.87 244.645 490.41 249.604 483.338 253.367C481.77 254.078 478.783 255.024 477.684 256.305C480.145 256.229 481.889 256.339 483.696 258.188C484.608 262.373 484.226 267.215 484.218 271.498L484.197 346.05C484.196 357.024 483.957 368.062 484.369 379.028C501.069 381.557 505.564 396.015 496.835 409.957L497.14 410.159C508.57 414.207 509.735 458.718 508.442 468.934C497.888 474.324 477.341 472.164 465.62 472.229C461.108 472.254 456.448 472.914 451.972 472.412C445.45 468.437 452.777 443.53 454.079 436.066C455.655 427.033 455.624 413.553 463.275 407.192C459.072 393.941 461.9 383.788 475.376 378.308C474.698 367.528 475.081 356.592 475.085 345.786L475.102 290.506C475.104 279.646 475.641 268.54 474.522 257.742C463.958 261.02 454.023 263.328 443.219 267.023C436.15 269.12 429.44 271.574 422.718 274.603C423.257 305.74 422.384 336.881 422.79 368.016C422.846 372.301 424.879 383.345 419.096 384.721C411.802 386.456 414.38 356.873 414.38 352.949L414.39 306.045C414.393 296.611 414.743 287.04 414.068 277.628C404.276 280.644 394.644 284.189 384.986 287.605L355.94 297.827C346.161 301.37 326.421 308.983 316.346 310.315L315.737 310.392C311.245 310.989 304.922 307.05 300.685 305.623L264.695 293.394C258.175 291.124 229.877 286.983 247.023 277.821C262.126 281.773 283.282 290.466 298.299 295.864C325.469 305.63 316.841 301.434 345.873 291.444C363.82 285.268 381.894 279.637 399.632 272.861C390.866 270.654 382.288 267.169 373.741 264.21C357.709 258.661 341.209 253.749 325.608 247.047C323.042 245.945 320.847 244.542 318.081 243.913C311.487 242.414 302.427 246.104 297.124 240.504C287.269 230.096 320.874 226.355 326.362 233.788C327.473 235.292 327.008 237.057 326.795 238.769C337.734 242.254 411.483 269.509 415.494 268.053C420.407 266.27 425.037 263.903 429.938 262.111C453.684 253.431 478.511 244.9 502.455 236.617C497.44 234.095 491.824 232.42 486.493 230.686L425.742 210.57C414.052 206.778 401.929 203.487 390.535 198.882C386.692 197.329 383.309 196.429 384.219 191.699Z"/>
	<path fill="#E8DB01" transform="scale(1.6 1.6)" d="M479.731 386.969C494.08 385.286 495.827 403.237 482.272 407.51C467.512 407.899 464.785 389.162 479.731 386.969Z"/>
</svg>
