<?xml version="1.0" encoding="utf-8" ?>
<svg xmlns="http://www.w3.org/2000/svg" xmlns:xlink="http://www.w3.org/1999/xlink" width="1024" height="1024">
	<path fill="#403F5F" transform="scale(1.6 1.6)" d="M548.427 410.087C555.263 413.689 551.259 434.295 551.504 442.96C551.597 446.218 553.667 455.778 549.235 456.779C544.069 457.946 530.617 457.225 524.757 457.215L324.828 457.193C299.597 457.193 274.3 456.799 249.076 457.213C245.757 457.267 243.195 458.159 241.882 454.547C242.326 453.036 242.728 451.58 242.95 450.014C251.861 449.622 260.973 450.003 269.905 450.006L471.133 450.015C495.732 450.015 520.43 450.485 545.018 450.014C545.004 442.124 541.945 412.702 548.427 410.087Z"/>
	<defs>
		<linearGradient id="gradient_0" gradientUnits="userSpaceOnUse" x1="80.974815" y1="325.66174" x2="185.52979" y2="318.99493">
			<stop offset="0" stop-color="#3C3857"/>
			<stop offset="1" stop-color="#4C506F"/>
		</linearGradient>
	</defs>
	<path fill="url(#gradient_0)" transform="scale(1.6 1.6)" d="M195.026 453.4C194.295 459.553 179.481 457.209 173.804 457.212L116.173 457.204C108.14 457.2 99.9408 457.353 91.9355 456.597C85.1895 455.961 88.4829 419.632 88.4824 412.447L88.4752 242.645C88.4752 236.953 87.4025 189.931 89.5731 188.261C92.8466 185.743 115.817 187.337 120.853 187.314C129.596 187.274 136.658 183.557 141.527 190.951C140.997 192.175 140.212 192.849 139.244 193.743L139.179 193.804C133.561 194.164 97.8391 194.039 96.016 195.313L95.9483 196.123L95.9483 450.014L146.149 450.019C156.967 450.02 167.833 450.259 178.642 450.036C184.483 449.916 192.841 446.547 195.026 453.4Z"/>
	<path fill="#403F5F" transform="scale(1.6 1.6)" d="M174.221 185.696L456.092 182.527C482.92 182.445 510.844 181.843 537.729 181.444C544.616 181.342 551.643 178.463 551.58 187.784L551.533 372.806C551.501 376.75 553.799 389.022 548.427 389.957C542.297 388.205 544.768 375.304 544.767 368.852L544.76 211.196C544.724 204.919 544.096 198.795 544.762 192.523L544.762 188.975C528.618 187.778 508.536 189.391 492.108 189.577L229.375 192.869C220.482 192.928 173.265 195.626 171.919 190.951C172.475 189.012 173.07 187.379 174.221 185.696Z"/>
	<path fill="#E37B64" transform="scale(1.6 1.6)" d="M171.919 190.951C173.265 195.626 220.482 192.928 229.375 192.869L492.108 189.577C508.536 189.391 528.618 187.778 544.762 188.975L544.762 192.523C544.096 198.795 544.724 204.919 544.76 211.196L544.767 368.852C544.768 375.304 542.297 388.205 548.427 389.957C548.543 392.831 547.799 409.036 548.427 410.087C541.945 412.702 545.004 442.124 545.018 450.014C520.43 450.485 495.732 450.015 471.133 450.015L269.905 450.006C260.973 450.003 251.861 449.622 242.95 450.014C242.728 451.58 242.326 453.036 241.882 454.547C240.145 451.061 225.28 452.139 223.746 453.4C222.714 457.806 218.524 457.689 214.827 457.201C212.646 456.018 211.896 454.953 211.154 452.583C205.768 452.646 200.444 453.376 195.026 453.4C192.841 446.547 184.483 449.916 178.642 450.036C167.833 450.259 156.967 450.02 146.149 450.019L95.9483 450.014L95.9483 196.123L96.016 195.313C97.8391 194.039 133.561 194.164 139.179 193.804L139.244 193.743C140.212 192.849 140.997 192.175 141.527 190.951C142.703 190.486 168.029 190.952 171.919 190.951Z"/>
	<path fill="#403F5F" transform="scale(1.6 1.6)" d="M211.154 452.583C213.636 447.46 221.447 444.351 223.512 451.261C223.726 451.977 223.477 452.682 223.746 453.4C222.714 457.806 218.524 457.689 214.827 457.201C212.646 456.018 211.896 454.953 211.154 452.583Z"/>
	<path fill="#403F5F" transform="scale(1.6 1.6)" d="M123.737 255.575C126.915 253.458 130.504 252.116 133.924 250.443C155.757 239.766 159.092 216.765 163.466 214.754C167.738 212.79 169.274 220.008 168.283 222.876L167.952 223.391C159.603 236.615 159.474 244.167 143.335 254.087C139.345 256.539 134.904 258.072 130.963 260.64L130.963 380.458C143.972 385.765 154.579 396.378 162.118 408.038C164.024 410.986 165.577 415.106 168.283 417.348C167.472 420.332 163.871 425.261 160.45 422.454C159.155 421.391 157.573 415.534 156.719 413.72C147.549 394.226 140.074 393.192 124.148 385.015L123.737 384.801C123.471 379.801 123.711 374.673 123.725 369.66L123.737 255.575Z"/>
	<path fill="#403F5F" transform="scale(1.6 1.6)" d="M473.593 222.876C473.366 221.046 472.637 218.11 473.771 216.536C478.716 209.67 482.63 222.987 483.395 224.848C489.494 239.687 501.538 250.562 516.768 255.575L516.761 353.917C516.76 363.888 517.746 375.331 517.457 384.801C513.808 387.412 509.475 388.785 505.695 391.169C490.307 400.877 487.2 409.385 480.034 423.864C476.466 422.895 471.749 421.943 473.593 417.348C477.743 405.052 497.615 382.011 509.584 380.458C509.806 367.422 509.59 354.34 509.588 341.299L509.584 260.64C488.4 251.488 482.434 242.054 473.593 222.876Z"/>
	<path fill="#F6B3A1" transform="scale(1.6 1.6)" d="M171.919 190.951C173.265 195.626 220.482 192.928 229.375 192.869L492.108 189.577C508.536 189.391 528.618 187.778 544.762 188.975L544.762 192.523C514.057 195.076 480.72 194.797 449.913 195.017L163.852 197.148C154.123 197.195 100.416 200.498 96.3147 197.298L95.9483 196.123L96.016 195.313C97.8391 194.039 133.561 194.164 139.179 193.804L139.244 193.743C140.212 192.849 140.997 192.175 141.527 190.951C142.703 190.486 168.029 190.952 171.919 190.951Z"/>
	<path fill="#F1F2DF" transform="scale(1.6 1.6)" d="M168.283 222.876L473.593 222.876C482.434 242.054 488.4 251.488 509.584 260.64L509.588 341.299C509.59 354.34 509.806 367.422 509.584 380.458C497.615 382.011 477.743 405.052 473.593 417.348C449.706 417.603 425.786 417.349 401.895 417.348L196.815 417.369C187.712 417.382 177.21 416.754 168.283 417.348C165.577 415.106 164.024 410.986 162.118 408.038C154.579 396.378 143.972 385.765 130.963 380.458L130.963 260.64C134.904 258.072 139.345 256.539 143.335 254.087C159.474 244.167 159.603 236.615 167.952 223.391L168.283 222.876Z"/>
	<path fill="#403F5F" transform="scale(1.6 1.6)" d="M458.965 302.319C482.432 300.415 491.65 334.991 463.071 342.015C437.213 345.1 431.234 305.084 458.965 302.319Z"/>
	<path fill="#FE1963" transform="scale(1.6 1.6)" d="M460.047 310.351C466.837 309.788 471.719 314.9 473.593 321.052C472.074 327.493 468.838 332.171 461.982 333.783C444.696 334.339 442.616 314.801 460.047 310.351Z"/>
	<path fill="#403F5F" transform="scale(1.6 1.6)" d="M179.444 302.319C202.804 302.466 211.621 335.689 182.125 342.015C150.127 340.648 154.165 303.637 179.444 302.319Z"/>
	<path fill="#FE1963" transform="scale(1.6 1.6)" d="M179.444 310.351C193.63 307.003 198.094 331.516 182.125 333.783C163.98 334.04 161.81 311.218 179.444 310.351Z"/>
	<path fill="#403F5F" transform="scale(1.6 1.6)" d="M317.694 262.989C319.355 262.84 320.961 262.906 322.621 262.989C323.231 267.072 322.893 271.068 322.621 275.162C335.011 276.07 352.53 291.806 343.482 295.946C341.152 297.012 330.56 285.06 322.621 282.252L322.621 315.602L323.137 315.561C357.009 313.072 365.863 366.943 322.621 368.791C323.156 372.45 323.687 375.426 322.621 379.07C316.016 384.242 315.194 373.766 315.031 369.804C306.982 369.358 296.012 363.221 291.047 356.93C287.881 352.919 291.8 347.015 296.015 349.044C301.511 351.691 299.412 356.597 315.031 361.28C315.232 357.073 315.054 352.826 315.048 348.613L315.031 324.44C277.321 321.507 282.746 273.791 315.031 275.162C315.221 271.781 313.71 264.455 317.694 262.989Z"/>
	<path fill="#F1F2DF" transform="scale(1.6 1.6)" d="M315.031 282.252C315.314 282.743 315.03 312.656 315.031 316.479C310.563 315.519 307.027 314.103 303.253 311.528C288.566 300.155 300.148 286.065 315.031 282.252Z"/>
	<path fill="#F1F2DF" transform="scale(1.6 1.6)" d="M322.621 323.37C340.537 325.861 351.349 341.225 336.746 355.242C332.324 358.685 328.05 360.07 322.621 361.28C323.315 350.27 322.997 334.555 322.621 323.37Z"/>
</svg>
