<svg width="32" height="32" viewBox="0 0 32 32" fill="none" xmlns="http://www.w3.org/2000/svg">
    <path d="M15.6042 2.74242C13.8123 4.03042 12.3452 3.85678 11.3681 3.42282L13.9972 8.72841L17.6676 8.82352L20.2125 3.22645C19.7085 2.67219 17.9364 1.06781 15.6041 2.74211L15.6042 2.74242Z" fill="white"/>
    <path d="M18.9524 9.62689H18.9635C19.0838 9.62689 19.1959 9.57084 19.2688 9.47573C19.3192 9.41128 19.3807 9.3357 19.4508 9.25172C19.5012 9.26285 19.5543 9.26285 19.6076 9.25172C22.343 8.70021 22.9535 9.96007 22.9841 10.0273C23.0456 10.1728 23.1886 10.2624 23.3368 10.2624C23.3845 10.2624 23.4349 10.254 23.4823 10.2345C23.6784 10.1562 23.7735 9.92922 23.6923 9.73336C23.6643 9.66051 23.0007 8.12353 20.3017 8.37546C20.9905 7.74541 21.878 7.13241 22.6759 7.11561C23.1519 7.10448 23.5552 7.30329 23.9135 7.72591C24.0506 7.88821 24.2944 7.90793 24.4567 7.77064C24.6189 7.63354 24.6387 7.38981 24.5014 7.22753C23.9919 6.62563 23.3732 6.32875 22.6591 6.34555C20.9513 6.38754 19.2545 8.28855 18.787 8.85685L18.5069 8.84846L17.6726 8.826L17.4486 9.31873C17.4093 9.40545 17.4038 9.50348 17.429 9.59039L18.4286 9.61559L18.9524 9.62689Z" fill="white"/>
    <path d="M25.2184 22.1644C24.7062 19.1043 22.1835 15.036 17.505 9.72788C17.4687 9.68589 17.4406 9.63824 17.4267 9.58511L14.2992 9.50387C14.2824 9.60464 14.2263 9.69702 14.1369 9.75874C14.1117 9.77827 11.5386 11.5478 9.31012 14.2439C6.3674 17.8054 5.37917 21.2044 6.3758 24.3487C7.44816 27.7365 10.2087 29.083 12.3393 29.6153C16.497 30.6568 21.3826 29.4389 23.169 27.6947C24.496 26.3956 25.6636 24.8305 25.2182 22.1651L25.2184 22.1644ZM17.8635 24.0963C17.4268 24.5219 16.7995 24.7851 15.9792 24.8859V26.1065H14.8901V24.9195C14.3524 24.8916 13.8401 24.7963 13.3558 24.6367C12.8687 24.4772 12.4765 24.2811 12.1799 24.0487L12.779 22.7187C13.0562 22.9231 13.3782 23.0938 13.7477 23.2309C14.1172 23.368 14.498 23.4549 14.89 23.4913V21.6715C14.3748 21.5483 13.9409 21.4112 13.5825 21.2571C13.2269 21.1032 12.9302 20.8819 12.6894 20.588C12.4486 20.294 12.3311 19.9048 12.3311 19.4178C12.3311 18.8159 12.5494 18.298 12.989 17.8667C13.4286 17.4355 14.0614 17.1724 14.89 17.0771V15.8677H15.9792V17.0547C16.8723 17.1275 17.6087 17.3486 18.1909 17.7183L17.6448 19.0594C17.0988 18.7457 16.5445 18.5583 15.979 18.4938V20.3445C16.4885 20.4621 16.917 20.5937 17.2697 20.7421C17.6224 20.8905 17.9165 21.1116 18.1573 21.4057C18.3954 21.6996 18.5157 22.0861 18.5157 22.5648C18.5157 23.1611 18.3001 23.6708 17.8634 24.0964L17.8635 24.0963Z" fill="white"/>
    <path d="M16.5616 22.2514C16.4272 22.1338 16.2341 22.0331 15.9792 21.9462V23.4495C16.2396 23.3908 16.4356 23.2984 16.5673 23.1668C16.6989 23.0351 16.7634 22.8783 16.7634 22.6992C16.7632 22.5147 16.696 22.3662 16.5616 22.2514L16.5616 22.2514Z" fill="white"/>
    <path d="M14.0868 19.3311C14.0868 19.5131 14.1567 19.6616 14.294 19.7791C14.4311 19.8967 14.6299 19.9948 14.8931 20.0731V18.5277C14.616 18.5921 14.4145 18.6956 14.2828 18.8384C14.151 18.9784 14.0868 19.1435 14.0868 19.3311L14.0868 19.3311Z" fill="white"/>
</svg>
