<svg width="28" height="26" viewBox="0 0 28 26" fill="none" xmlns="http://www.w3.org/2000/svg">
    <path d="M27.332 8.66667C27.3321 8.4247 27.2662 8.18727 27.1413 7.98001L23.5293 1.96001C23.2914 1.56646 22.9562 1.24077 22.5559 1.01426C22.1557 0.787754 21.7039 0.668052 21.244 0.666672H6.75335C5.82268 0.666672 4.94668 1.16267 4.46801 1.96134L0.856011 7.98001C0.731144 8.18727 0.665219 8.4247 0.665344 8.66667C0.665344 10.0067 1.18001 11.2187 1.99868 12.1573V24.6667C1.99868 25.0203 2.13915 25.3594 2.3892 25.6095C2.63925 25.8595 2.97839 26 3.33201 26H13.9987C14.3523 26 14.6914 25.8595 14.9415 25.6095C15.1915 25.3594 15.332 25.0203 15.332 24.6667V18H20.6653V24.6667C20.6653 25.0203 20.8058 25.3594 21.0559 25.6095C21.3059 25.8595 21.6451 26 21.9987 26H24.6653C25.019 26 25.3581 25.8595 25.6082 25.6095C25.8582 25.3594 25.9987 25.0203 25.9987 24.6667V12.1573C26.8173 11.2187 27.332 10.0067 27.332 8.66667ZM24.644 9.00134C24.562 9.64522 24.2482 10.2371 23.7613 10.6664C23.2744 11.0956 22.6478 11.3327 21.9987 11.3333C20.528 11.3333 19.332 10.1373 19.332 8.66667C19.332 8.57601 19.2987 8.49601 19.28 8.41067L19.3067 8.40534L18.292 3.33334H21.244L24.644 9.00134ZM11.3413 8.75334L12.424 3.33334H15.572L16.656 8.75334C16.6093 10.184 15.4387 11.3333 13.9987 11.3333C12.5587 11.3333 11.388 10.184 11.3413 8.75334ZM6.75335 3.33334H9.70535L8.69201 8.40534L8.71868 8.41067C8.69868 8.49601 8.66535 8.57601 8.66535 8.66667C8.66535 10.1373 7.46935 11.3333 5.99868 11.3333C5.3496 11.3327 4.72299 11.0956 4.23609 10.6664C3.74919 10.2371 3.43537 9.64522 3.35334 9.00134L6.75335 3.33334ZM11.332 19.3333H5.99868V15.3333H11.332V19.3333Z" fill="#81B2CA"/>
</svg>
