<?xml version="1.0" encoding="utf-8" ?>
<svg xmlns="http://www.w3.org/2000/svg" xmlns:xlink="http://www.w3.org/1999/xlink" width="1024" height="1024">
	<path fill="#2B2D42" transform="scale(1.6 1.6)" d="M222.383 546.645C224.039 545.588 224.453 545.299 226.335 546.189C225.016 548.34 222.441 551.663 222.383 546.645Z"/>
	<path fill="#2B2D42" transform="scale(1.6 1.6)" d="M147.789 202.817C138.693 203.397 140.099 189.659 148.687 193.72C151.315 197.068 150.416 199.805 147.789 202.817Z"/>
	<path fill="#2B2D42" transform="scale(1.6 1.6)" d="M146.08 232.135C152.369 232.993 149.357 252.83 149.356 258.563L149.361 501.129C149.336 516.646 145.935 536.844 164.656 542.974C172.422 545.517 200.813 542.131 203.432 545.152C203.479 547.458 203.349 548.838 202.196 550.882C193.354 551.628 177.955 551.824 168.838 551.324C145.325 550.034 142.375 529.946 142.398 511.97L142.412 257.922C142.412 249.995 142.204 242.004 142.697 234.091C143.766 233.038 144.63 232.547 146.08 232.135Z"/>
	<path fill="#2B2D42" transform="scale(1.6 1.6)" d="M230.912 544.801C232.162 542.815 239.781 543.962 241.893 543.971L447.626 544.001C462.126 544.005 487.569 547.969 493.928 530.671C496.176 524.555 495.219 496.481 495.217 488.555L495.234 439.423C495.225 432.441 492.322 422.063 499.541 419.359C504.591 423.347 502.447 432.042 502.444 438.483L502.436 507.667C502.438 514.312 502.974 521.395 502.079 527.959C498.264 555.951 466.38 551.235 446.254 551.232L287.427 551.216C270.774 551.216 254.064 551.518 237.416 551.242C232.548 551.161 230.993 549.768 230.912 544.801Z"/>
	<path fill="#EDF2F4" transform="scale(1.6 1.6)" d="M145.364 161.789C140.74 160.469 142.419 154.529 142.415 149.764L142.424 116.832C142.425 109.937 141.973 103.094 145.105 96.7157C154.909 76.7468 181.343 81.5685 199.892 81.5687L346.627 81.5697C353.553 81.5685 394.749 80.3272 398.542 82.428C402.213 84.4613 442.553 120.489 447.064 124.863C449.709 127.428 451.433 129.835 449.173 133.362C450.368 137.838 459.305 137.425 458.849 141.385C460.818 141.167 461.255 140.129 462.269 140.164C468.793 140.388 499.287 169.234 502.207 173.732C502.806 188.689 502.431 203.782 502.434 218.751L502.43 235.651C502.428 239.027 502.585 242.513 502.245 245.872L499.174 247.517L497.813 247.688C496.635 249.753 498.363 262.784 497.57 267.752L498.363 268.498C505.527 269.075 502.436 281.365 502.431 287.974L502.435 366.832C502.434 376.462 502.636 386.125 502.132 395.744C501.337 396.877 500.525 397.891 499.565 398.889C498.704 405.962 498.913 412.311 499.541 419.359C492.322 422.063 495.225 432.441 495.234 439.423L495.217 488.555C495.219 496.481 496.176 524.555 493.928 530.671C487.569 547.969 462.126 544.005 447.626 544.001L241.893 543.971C239.781 543.962 232.162 542.815 230.912 544.801C229.694 546.062 227.987 546.033 226.335 546.189C224.453 545.299 224.039 545.588 222.383 546.645C219.017 547.582 206.214 546.99 203.432 545.152C200.813 542.131 172.422 545.517 164.656 542.974C145.935 536.844 149.336 516.646 149.361 501.129L149.356 258.563C149.357 252.83 152.369 232.993 146.08 232.135C146.998 228.213 146.171 216.113 146.385 211.11C146.476 208.991 147.912 203.567 147.789 202.817C150.416 199.805 151.315 197.068 148.687 193.72C148.866 191.288 148.149 188.545 147.917 186.093C147.754 184.373 146.454 162.124 146.42 162.056L145.364 161.789Z"/>
	<path fill="#2B2D42" transform="scale(1.6 1.6)" d="M178.754 142.305C192.644 141.776 247.099 141.691 252.018 143.387C255.143 146.345 253.734 149.497 249.773 149.829C226.487 149.299 203.008 150.438 179.94 149.895C174.325 149.763 173.123 143.291 178.754 142.305Z"/>
	<path fill="#2B2D42" transform="scale(1.6 1.6)" d="M177.241 166.557L223.311 166.743C232.267 166.742 241.689 166.136 250.579 167.128C254.843 167.604 254.163 172.267 251.372 174.166C246.676 174.778 241.914 174.382 237.196 174.381L211.045 174.366C200.993 174.358 188.499 175.206 178.804 174.644C174.245 174.38 175.144 168.982 177.241 166.557Z"/>
	<path fill="#2B2D42" transform="scale(1.6 1.6)" d="M498.363 268.498C505.527 269.075 502.436 281.365 502.431 287.974L502.435 366.832C502.434 376.462 502.636 386.125 502.132 395.744C501.337 396.877 500.525 397.891 499.565 398.889C490.984 397.957 495.199 363.535 495.199 355.116L495.23 285.236C495.245 279.698 492.757 270.143 498.363 268.498Z"/>
	<path fill="#2B2D42" transform="scale(1.6 1.6)" d="M355.387 460.032C355.932 460.704 356.253 461.524 357.022 461.972C361.102 458.084 369.198 455.5 374.302 452.833C397.365 440.781 414.807 420.319 425.574 396.888C427.365 392.991 429.04 382.539 435.153 384.432C438.399 387.613 434.571 394.25 433.168 397.721C421.799 425.864 390.736 461.465 358.821 466.043C357.03 466.3 358.211 467.051 356.915 467.903C355.681 468.714 352.883 468.998 351.381 469.314C308.838 478.254 266.258 467.686 236.433 434.376C233.262 430.834 222.405 419.768 222.849 415.235C223.89 414.714 224.832 413.976 225.782 413.306C228.479 408.947 235.235 421.345 237.835 424.6C249.873 439.673 264.537 450.938 282.721 457.967C303.447 465.98 334.861 469.177 355.387 460.032Z"/>
	<path fill="#2B2D42" transform="scale(1.6 1.6)" d="M215.967 390.858C209.66 391.559 210.42 386.428 209.552 381.8C206.442 365.228 205.624 350.295 208.832 333.598C220.679 271.927 282.604 229.19 344.399 241.192C365.173 245.227 382.266 253.96 398.812 266.941C403.544 270.653 410.784 273.375 406.094 278.522L402.574 280.445C394.106 267.897 375.343 258.393 361.649 253.32C299.118 230.152 228.384 268.888 215.669 335.495C212.586 351.646 212.203 370.753 218.737 386.067C218.284 388.508 217.902 389.317 215.967 390.858Z"/>
	<path fill="#2B2D42" transform="scale(1.6 1.6)" d="M145.364 161.789C140.74 160.469 142.419 154.529 142.415 149.764L142.424 116.832C142.425 109.937 141.973 103.094 145.105 96.7157C154.909 76.7468 181.343 81.5685 199.892 81.5687L346.627 81.5697C353.553 81.5685 394.749 80.3272 398.542 82.428C402.213 84.4613 442.553 120.489 447.064 124.863C449.709 127.428 451.433 129.835 449.173 133.362C450.368 137.838 459.305 137.425 458.849 141.385C460.818 141.167 461.255 140.129 462.269 140.164C468.793 140.388 499.287 169.234 502.207 173.732C502.806 188.689 502.431 203.782 502.434 218.751L502.43 235.651C502.428 239.027 502.585 242.513 502.245 245.872L499.174 247.517C495.861 247.126 495.654 245.43 495.384 242.377C493.617 222.392 495.838 198.672 495.039 177.934C487.188 177.399 479.336 177.523 471.473 177.523L440.566 177.531C421.47 177.537 401.868 179.678 395.707 155.21C392.666 143.132 395.422 104.168 394.586 88.9256C376.202 88.2705 357.691 88.7109 339.287 88.7099L193.063 88.7064C181.005 88.697 164.684 85.5906 155.136 94.9157C146.408 103.439 149.093 136.033 149.357 149.331C149.448 153.957 151.325 160.367 145.364 161.789Z"/>
	<path fill="#8D99AE" transform="scale(1.6 1.6)" d="M402.483 97.4157C407.319 101.769 444.436 134.335 449.173 133.362C450.368 137.838 459.305 137.425 458.849 141.385L458.685 141.563C459.097 142.184 459.693 142.883 459.922 143.587C460.804 146.105 463.129 148.026 464.701 150.132C472.479 155.608 480.178 162.565 486.808 169.383C466.407 167.891 445.708 169.852 425.237 168.876C401.004 167.72 402.166 151.62 402.174 132.491C402.179 120.855 401.772 109.029 402.483 97.4157Z"/>
	<path fill="#2B5755" transform="scale(1.6 1.6)" d="M444.152 155.052C448.926 150.247 454.156 147.047 459.922 143.587C460.804 146.105 463.129 148.026 464.701 150.132C460.188 152.532 449.239 154.761 444.152 155.052Z"/>
	<path fill="#8D99AE" transform="scale(1.6 1.6)" d="M218.737 386.067C212.203 370.753 212.586 351.646 215.669 335.495C228.384 268.888 299.118 230.152 361.649 253.32C375.343 258.393 394.106 267.897 402.574 280.445L406.094 278.522C408.776 280.162 416.478 290.411 417.36 293.441C426.766 291.065 446.091 355.15 437.886 359.283C436.593 364.536 437.641 380.522 435.153 384.432C429.04 382.539 427.365 392.991 425.574 396.888C414.807 420.319 397.365 440.781 374.302 452.833C369.198 455.5 361.102 458.084 357.022 461.972C356.253 461.524 355.932 460.704 355.387 460.032C334.861 469.177 303.447 465.98 282.721 457.967C264.537 450.938 249.873 439.673 237.835 424.6C235.235 421.345 228.479 408.947 225.782 413.306C224.832 413.976 223.89 414.714 222.849 415.235C222.873 413.463 222.784 411.672 222.745 409.899C220.618 403.57 217.385 397.396 215.967 390.858C217.902 389.317 218.284 388.508 218.737 386.067Z"/>
	<path fill="#2B2D42" transform="scale(1.6 1.6)" d="M320.812 416.318C335.083 415.249 339.206 434.971 324.33 437.792C309.49 438.226 305.359 421.521 320.812 416.318Z"/>
	<path fill="#2B2D42" transform="scale(1.6 1.6)" d="M417.36 293.441C426.766 291.065 446.091 355.15 437.886 359.283C435.425 358.867 434.495 358.953 432.665 357.093C429.057 335.978 431.914 327.335 419.063 305.59C416.12 300.612 412.436 298.558 417.36 293.441Z"/>
	<path fill="#2B2D42" transform="scale(1.6 1.6)" d="M317.73 281.064C344.843 277.738 366.513 302.5 362.066 328.542C357.092 357.673 331.863 349.516 326.916 390.156C326.696 391.967 327.301 411.381 321.035 407.138C311.915 400.962 325.367 365.16 330.731 357.649C335.946 350.941 344.303 347.938 349.048 340.685C359.301 325.014 356.893 303.254 340.316 292.928C322.012 281.527 292.867 291.46 290 314.229C289.796 315.855 290.543 328.598 284.224 323.041C278.195 317.739 287.115 299.971 290.865 295.417C297.615 287.22 307.155 282.078 317.73 281.064Z"/>
</svg>
