<?xml version="1.0" encoding="utf-8" ?>
<svg xmlns="http://www.w3.org/2000/svg" xmlns:xlink="http://www.w3.org/1999/xlink" width="1024" height="1023">
	<path fill="#F4F1DE" transform="scale(1.6 1.6)" d="M307.399 82.6366C366.273 79.7516 425.634 98.5655 471.035 136.424C612.973 254.784 574.884 478.792 401.363 543.775C377.971 552.535 359.179 555.859 334.117 558.052C282.76 562.784 225.342 544.19 183.596 514.759C58.9363 426.875 47.8538 244.668 162.948 142.55C202.147 107.769 254.787 84.4699 307.399 82.6366Z"/>
	<path fill="#3D405B" transform="scale(1.6 1.6)" d="M207.487 325.059C214.711 328.464 211.203 339.558 211.208 347.635L211.215 444.148C211.213 449.615 210.541 456.126 212.045 461.403C219.603 487.913 242.785 485.028 263.823 483.851L399.584 475.01C406.967 474.586 416.043 474.737 423.137 473.187C431.836 464.242 429.038 428.685 429.036 416.684L429.046 345.444C429.057 340.438 427.109 333.337 432.454 332.708C440.049 333.026 436.44 355.225 436.442 362.048L436.45 412.77C436.452 426.864 438.019 460.905 431.202 473.217C434.315 470.469 438.06 467.798 440.445 464.351C442.297 461.674 442.89 457.197 445.686 455.327C449.37 452.862 452.138 458.393 450.993 462.103C444.95 481.68 428.565 480.035 412.788 481.27L303.282 488.899C288.72 490.057 245.195 495.216 231.962 491.144C205.9 483.124 203.661 462.312 203.66 439.663L203.665 361.198C203.659 353.402 200.694 328.442 207.487 325.059Z"/>
	<path fill="#3D405B" transform="scale(1.6 1.6)" d="M203.804 310.182C203.15 303.616 203.642 296.581 203.658 289.961L203.66 209.265C203.653 201.518 203.2 193.432 203.939 185.72C205.35 170.994 219.323 170.854 230.818 168.994L321.967 154.708C346.957 150.801 376.196 143.848 400.851 141.638C404.033 141.353 406.608 143.178 406.458 146.73C406.277 151.012 391.642 151.368 388.5 151.852L239.799 175.76C232.192 177.012 218.288 176.947 212.462 181.897C217.743 191.592 230.593 202.283 240.843 205.296C253.595 209.045 267.13 207.304 280.14 206.261C327.511 202.463 375.04 200.88 422.432 197.085C414.552 192.452 402.433 182.936 395.218 176.502C390.996 177.545 386.483 177.932 382.168 178.544L289.229 191.585C280.179 192.797 266.474 196.514 258.095 196.618C256.611 194.745 254.134 190.503 256.737 188.484C258.474 187.137 292.152 182.627 297.578 181.852L375.234 170.89C384.955 169.454 399.148 165.707 408.362 165.877C410.325 169.649 410.397 172.221 406.28 174.232L405.548 174.599C415.131 183.425 426.795 189.692 435.634 197.766C438.235 200.142 436.497 211.639 436.466 214.91L436.438 297.719C436.437 303.077 439.293 316.326 432.833 316.546C426.795 316.28 429.039 305.606 429.035 300.546L429.067 205.182C424.205 205.439 419.327 206.133 414.459 206.47L359.585 210.139C330.234 211.911 301.655 212.747 272.198 214.967C271.501 222.891 271.841 231.027 271.843 238.979L271.815 439.994C271.829 443.758 274.185 462.017 268.396 462.403C261.204 462.882 263.742 437.807 263.742 431.709L263.771 215.707C239.065 216.624 227.444 210.039 211.532 193.458C210.95 199.908 211.22 206.561 211.222 213.032L211.216 282.784C211.218 292.02 211.033 301.238 211.719 310.455L207.277 311.971C206.023 311.467 204.93 310.93 203.804 310.182Z"/>
	<path fill="#BC6C25" transform="scale(1.6 1.6)" d="M211.532 193.458C227.444 210.039 239.065 216.624 263.771 215.707L263.742 431.709C263.742 437.807 261.204 462.882 268.396 462.403C274.185 462.017 271.829 443.758 271.815 439.994L271.843 238.979C271.841 231.027 271.501 222.891 272.198 214.967C301.655 212.747 330.234 211.911 359.585 210.139L414.459 206.47C419.327 206.133 424.205 205.439 429.067 205.182L429.035 300.546C429.039 305.606 426.795 316.28 432.833 316.546C432.833 321.942 432.674 327.317 432.454 332.708C427.109 333.337 429.057 340.438 429.046 345.444L429.036 416.684C429.038 428.685 431.836 464.242 423.137 473.187C416.043 474.737 406.967 474.586 399.584 475.01L263.823 483.851C242.785 485.028 219.603 487.913 212.045 461.403C210.541 456.126 211.213 449.615 211.215 444.148L211.208 347.635C211.203 339.558 214.711 328.464 207.487 325.059C207.53 320.84 207.923 316.131 207.277 311.971L211.719 310.455C211.033 301.238 211.218 292.02 211.216 282.784L211.222 213.032C211.22 206.561 210.95 199.908 211.532 193.458Z"/>
	<path fill="#3D405B" transform="scale(1.6 1.6)" d="M391.231 365.134C395.227 365.243 396.832 369.201 394.316 372.441C392.535 374.734 320.254 378.376 312.762 378.669C310.211 378.512 308.554 377.662 308.211 374.808C307.344 367.59 330.553 368.871 336.063 368.525L391.231 365.134Z"/>
	<path fill="#3D405B" transform="scale(1.6 1.6)" d="M387.908 393.256C397.34 392.529 396.694 401.343 390.894 402.175C384.923 403.031 378.422 402.544 372.358 402.931C354.126 404.094 333.017 405.108 314.925 407.291C312.284 407.551 307.594 408.604 307.119 404.831C305.857 394.818 330.888 397.545 336.854 397.153C353.89 396.033 370.861 394.193 387.908 393.256Z"/>
	<path fill="#3D405B" transform="scale(1.6 1.6)" d="M390.624 336.383C395.824 335.885 396.864 345.286 391.453 345.909C385.038 346.648 375.534 346.189 368.609 346.567L311.64 350.132C306.862 350.24 305.76 342.616 310.296 341.602C331.458 336.873 366.891 339.172 390.624 336.383Z"/>
	<path fill="#3D405B" transform="scale(1.6 1.6)" d="M388.63 238.883C402.633 237.708 408.352 256.8 400.004 266.304C394.728 272.311 384.535 271.161 377.355 271.514C356.386 272.546 335.454 273.69 314.515 275.265C291.19 276.017 298.091 247.779 307.884 245.056C311.638 244.012 315.772 243.852 319.643 243.494C342.593 241.372 365.658 240.795 388.63 238.883Z"/>
	<path fill="white" transform="scale(1.6 1.6)" d="M388.305 247.626C397.274 246.521 394.863 258.741 392.697 260.851C391.186 262.324 320.068 265.919 314.765 266.119C312.747 266.218 310.776 266.182 308.758 266.085C308.025 261.68 308.424 257.751 309.921 253.568L354.042 250.279C365.464 249.478 376.923 248.877 388.305 247.626Z"/>
</svg>
