<?xml version="1.0" encoding="utf-8" ?>
<svg xmlns="http://www.w3.org/2000/svg" xmlns:xlink="http://www.w3.org/1999/xlink" width="1024" height="1024">
	<path fill="#F4F1DE" transform="scale(1.6 1.6)" d="M138.532 479.58C142.605 478.913 147.462 479.305 151.6 479.305L476.233 479.328C484.205 479.325 492.44 478.823 500.375 479.31C499.489 483.413 495.12 486.555 492.171 489.347C397.571 578.922 254.391 581.472 154.593 495.726C147.435 489.575 143.48 488.024 138.97 479.777L138.532 479.58Z"/>
	<path fill="#F4F1DE" transform="scale(1.6 1.6)" d="M102.026 414.41C97.3999 405.011 95.7145 402.83 92.051 391.512C63.8356 304.343 89.6233 211.304 154.237 147.696C222.608 80.3909 331.022 62.1543 418.488 101.144C536.171 153.603 584.968 282.507 545.635 403.19C544.43 406.886 541.943 411.961 541.203 415.402C545.048 415.922 547.016 416.38 548.748 419.916C546.726 424.238 544.982 424.579 540.516 424.785C539.108 432.422 527.793 463.402 524.636 470.597C531.674 471.333 534.23 476.594 529.664 479.055C528.092 479.901 503.638 479.31 500.375 479.31C492.44 478.823 484.205 479.325 476.233 479.328L151.6 479.305C147.462 479.305 142.605 478.913 138.532 479.58C133.334 479.255 113.641 480.048 110.605 478.889C105.757 477.037 109.092 470.608 115.359 468.866C111.338 455.666 103.611 435.637 96.9958 424.325C86.5369 422.788 89.8176 415.023 102.026 414.41Z"/>
	<path fill="#3D405B" transform="scale(1.6 1.6)" d="M271.433 237.364L275.17 239.591C280.196 244.488 248.237 276.228 242.867 281.724C241.156 283.476 240.837 283.466 238.536 283.247C229.1 280.824 238.81 273.567 242.677 269.293L263.361 245.97C265.911 243.033 268.175 239.568 271.433 237.364Z"/>
	<path fill="#BC6C25" transform="scale(1.6 1.6)" d="M281.474 224.467C288.483 214.398 313.261 178.144 315.82 168.889C317.083 164.324 313.722 152.925 318.409 150.192C320.491 148.978 323.692 150.39 324.547 152.528C327.217 159.21 322.475 166.144 327.931 175.835C336.139 190.413 345.677 204.503 354.839 218.505C356.58 221.166 361.736 224.611 359.649 227.869L357.399 230.884C358.511 231.413 359.251 232.175 360.124 233.03C361.446 234.73 362.75 236.436 364.015 238.178L367.115 236.397C372.833 238.762 378.673 248.188 382.804 252.91C413.635 288.15 443.973 316.069 481.558 344.561C485.093 347.24 489.052 349.704 492.34 352.668C492.479 348.761 491.712 336.405 494.588 334.067C503.562 326.771 500.454 355.29 500.262 357.13C504.985 359.767 515.98 364.969 518.903 368.919C517.473 371.315 516.232 372.872 513.916 374.465C509.166 372.533 504.753 369.262 500.159 366.926C500.313 381.169 502.301 399.786 504.039 413.928L511.037 469.683C513.159 469.784 515.226 469.862 517.346 469.7C523.855 455.368 528.06 439.841 532.696 424.826C528.857 424.715 521.766 425.224 519.002 422.136C510.748 412.912 539.606 415.337 541.203 415.402C545.048 415.922 547.016 416.38 548.748 419.916C546.726 424.238 544.982 424.579 540.516 424.785C539.108 432.422 527.793 463.402 524.636 470.597C531.674 471.333 534.23 476.594 529.664 479.055C528.092 479.901 503.638 479.31 500.375 479.31C492.44 478.823 484.205 479.325 476.233 479.328L151.6 479.305C147.462 479.305 142.605 478.913 138.532 479.58C133.334 479.255 113.641 480.048 110.605 478.889C105.757 477.037 109.092 470.608 115.359 468.866C111.338 455.666 103.611 435.637 96.9958 424.325C86.5369 422.788 89.8176 415.023 102.026 414.41C106.595 414.37 123.026 412.316 119.391 421.456L119.38 422.024L118.134 423.211C117.702 430.885 112.835 426.22 110.965 429.391C109.879 431.233 117.071 457.597 122.879 462.037C122.994 462.057 127.239 461.049 127.827 460.82C130.963 455.466 131.596 429.301 133.874 419.843L134.183 420.242C137.76 407.748 138.819 381.224 139.922 367.908C137.958 368.773 122.001 379.711 122.362 370.21C122.527 365.872 135.913 359.705 139.429 356.689L139.75 356.408C139.832 349.575 138.036 326.552 146.526 333.259C149.558 335.655 148.611 347.454 148.742 351.458C161.375 343.013 173.864 333.612 185.715 324.08C191.232 319.643 210.429 300.853 215.111 299.075C217.034 299.554 218.822 300.002 220.617 300.869C224.975 294.442 232.068 287.395 238.536 283.247C240.837 283.466 241.156 283.476 242.867 281.724C248.237 276.228 280.196 244.488 275.17 239.591C278.31 236.641 281.916 233.304 284.636 229.999C283.382 228.224 282.36 226.449 281.474 224.467Z"/>
	<path fill="#3D405B" transform="scale(1.6 1.6)" d="M320.227 263.963C325.239 264.28 326.063 272.02 321.473 274.183C314.649 274.37 315.125 266.777 320.227 263.963Z"/>
	<path fill="#3D405B" transform="scale(1.6 1.6)" d="M281.474 224.467C288.483 214.398 313.261 178.144 315.82 168.889C317.083 164.324 313.722 152.925 318.409 150.192C320.491 148.978 323.692 150.39 324.547 152.528C327.217 159.21 322.475 166.144 327.931 175.835C336.139 190.413 345.677 204.503 354.839 218.505C356.58 221.166 361.736 224.611 359.649 227.869L357.399 230.884C352.381 231.979 329.497 194.405 325.363 188.263C324.536 201.489 324.615 214.774 324.625 228.019C324.628 233.051 327.201 246.941 321.164 247.641C313.767 248.499 316.025 229.376 316.024 225.267C316.019 212.651 316.415 199.889 315.801 187.292L315.596 187.76C315.242 187.646 312.883 192.134 312.463 192.854C307.486 201.361 292.509 227.412 284.636 229.999C283.382 228.224 282.36 226.449 281.474 224.467Z"/>
	<path fill="#3D405B" transform="scale(1.6 1.6)" d="M367.115 236.397C372.833 238.762 378.673 248.188 382.804 252.91C413.635 288.15 443.973 316.069 481.558 344.561C485.093 347.24 489.052 349.704 492.34 352.668C492.479 348.761 491.712 336.405 494.588 334.067C503.562 326.771 500.454 355.29 500.262 357.13C504.985 359.767 515.98 364.969 518.903 368.919C517.473 371.315 516.232 372.872 513.916 374.465C509.166 372.533 504.753 369.262 500.159 366.926C500.313 381.169 502.301 399.786 504.039 413.928L511.037 469.683C513.159 469.784 515.226 469.862 517.346 469.7C523.855 455.368 528.06 439.841 532.696 424.826C528.857 424.715 521.766 425.224 519.002 422.136C510.748 412.912 539.606 415.337 541.203 415.402C545.048 415.922 547.016 416.38 548.748 419.916C546.726 424.238 544.982 424.579 540.516 424.785C539.108 432.422 527.793 463.402 524.636 470.597C531.674 471.333 534.23 476.594 529.664 479.055C528.092 479.901 503.638 479.31 500.375 479.31C492.44 478.823 484.205 479.325 476.233 479.328L151.6 479.305C147.462 479.305 142.605 478.913 138.532 479.58C133.334 479.255 113.641 480.048 110.605 478.889C105.757 477.037 109.092 470.608 115.359 468.866C111.338 455.666 103.611 435.637 96.9958 424.325C86.5369 422.788 89.8176 415.023 102.026 414.41C106.595 414.37 123.026 412.316 119.391 421.456L119.38 422.024L118.134 423.211C117.702 430.885 112.835 426.22 110.965 429.391C109.879 431.233 117.071 457.597 122.879 462.037C122.994 462.057 127.239 461.049 127.827 460.82C130.963 455.466 131.596 429.301 133.874 419.843L134.183 420.242C137.76 407.748 138.819 381.224 139.922 367.908C137.958 368.773 122.001 379.711 122.362 370.21C122.527 365.872 135.913 359.705 139.429 356.689L139.75 356.408C139.832 349.575 138.036 326.552 146.526 333.259C149.558 335.655 148.611 347.454 148.742 351.458C161.375 343.013 173.864 333.612 185.715 324.08C191.232 319.643 210.429 300.853 215.111 299.075C217.034 299.554 218.822 300.002 220.617 300.869C218.918 313.415 165.064 351.331 147.984 361.884C146.807 369.103 146.468 376.62 145.641 383.905L139.021 445.761C138.179 453.432 137.913 462.681 136.429 470.08C156.486 470.771 176.657 470.132 196.731 470.324C199.373 455.878 201.456 447.059 212.47 436.436C214.885 434.106 231.731 420.894 230.099 431.678C229.169 437.833 208.102 444.659 205.282 470.002C225.401 470.754 245.796 470.451 265.931 470.186C267.751 456.745 268.255 442.765 269.029 429.226C271.046 393.929 268.777 398.85 289.366 372.311C306.162 350.662 314.424 324.134 316.427 297.11C317.307 295.707 318.305 294.741 320.049 294.565C325.957 293.97 325.319 305.972 325.726 309.536C327.903 328.611 335.385 349.209 345.906 365.079C368.556 399.245 370.051 388.123 371.307 430.982C371.688 443.95 371.995 457.059 372.745 470.007C386.524 470.905 421.395 471.751 435.074 470.069C433.816 455.583 424.698 442.035 412.066 434.904C408.912 433.124 410.91 416.25 429.146 437.084C437.863 447.043 442.01 457.265 443.834 470.275L502.792 470.326C502.344 461.281 501.178 452.23 500.242 443.223L496.008 400.868C494.657 388.29 492.969 375.63 492.33 362.994C487.48 359.064 482.263 355.519 477.281 351.75C442.862 325.712 410.876 296.77 382.24 264.447C378.312 260.014 361.823 244.446 364.015 238.178L367.115 236.397Z"/>
	<path fill="white" transform="scale(1.6 1.6)" d="M119.391 421.456L119.38 422.024L118.134 423.211C117.702 430.885 112.835 426.22 110.965 429.391C109.879 431.233 117.071 457.597 122.879 462.037C122.994 462.057 127.239 461.049 127.827 460.82C130.963 455.466 131.596 429.301 133.874 419.843L134.183 420.242C132.555 436.734 130.01 453.195 128.196 469.685C126.369 469.832 124.532 470.032 122.697 470.02C114.197 455.427 111.143 438.398 103.911 423.265C109.301 423.464 114.641 424.683 119.391 421.456Z"/>
	<path fill="#FDFE53" transform="scale(1.6 1.6)" d="M324.178 340.888C325.304 342.159 325.672 346.162 326.405 347.927C331.501 360.188 338.597 371.938 347.313 381.966C353.563 389.157 359.507 393.841 361.117 403.668C363.964 421.052 364.056 452.39 364.048 470.405C350.952 470.022 337.805 470.251 324.703 470.252C324.003 427.132 324.921 384.014 324.178 340.888Z"/>
	<path fill="#E6A817" transform="scale(1.6 1.6)" d="M316.725 343.667C317.396 348.965 316.013 368.858 316.012 375.642L316.013 430.325C316.015 443.653 316.171 456.967 315.578 470.285C302.202 470.255 288.702 470.631 275.341 470.065L274.993 469.547C274.688 464.174 275.485 458.6 275.939 453.25C277.161 438.862 276.68 412.117 280.138 400.72C282.531 392.83 289.972 386.309 295.218 380.199C304.532 369.35 310.431 356.381 316.725 343.667Z"/>
</svg>
