<?xml version="1.0" encoding="utf-8" ?>
<svg xmlns="http://www.w3.org/2000/svg" xmlns:xlink="http://www.w3.org/1999/xlink" width="1026" height="1026">
	<path fill="#F4F1DE" transform="matrix(1.6 -0.00377365 0.00377365 1.6 0 2.41602)" d="M308.737 79.8375C320.76 79.642 332.926 79.3858 344.904 80.5645C461.582 92.0461 556.711 190.6 560.228 308.141C562.242 375.468 541.348 436.877 495.076 485.961C453.178 530.407 392.188 558.632 330.988 560.375C282.007 566.357 221.382 544.574 181.453 517.015C110.497 468.041 72.1719 381.885 80.371 296.492C91.6994 178.507 191.641 85.756 308.737 79.8375Z"/>
	<path fill="#3D405B" transform="matrix(1.6 -0.00377365 0.00377365 1.6 0 2.41602)" d="M218.745 189.189C233.357 188.81 235.687 197.017 224.453 197.405C207.557 197.83 210.037 189.893 218.745 189.189Z"/>
	<path fill="#3D405B" transform="matrix(1.6 -0.00377365 0.00377365 1.6 0 2.41602)" d="M176.425 189.191C178.643 189.011 206.54 187.675 197.294 196.24C191.888 201.247 173.68 192.74 164.425 202.331C158.794 208.167 159.842 216.863 159.914 224.297C159.93 225.821 160.513 244.445 153.977 239.039C150.377 236.061 151.551 227.577 151.537 223.484C151.471 204.152 154.653 191.146 176.425 189.191Z"/>
	<path fill="#3D405B" transform="matrix(1.6 -0.00377365 0.00377365 1.6 0 2.41602)" d="M479.957 341.987C486.646 342.928 485.682 358.051 486.482 363.857C489.076 382.676 495.597 409.092 486.492 427.095C485.908 425.541 485.426 424.505 484.434 423.093C480.612 426.937 476.846 434.043 470.809 434.255C467.048 433.721 469.166 429.789 469.903 427.448C492.221 420.696 479.118 370.551 477.455 354.975C476.868 349.475 474.651 345.482 479.957 341.987Z"/>
	<path fill="#3D405B" transform="matrix(1.6 -0.00377365 0.00377365 1.6 0 2.41602)" d="M460.053 433.036C462.998 433.337 466.699 435.26 469.302 434.817C470.526 438.395 472.353 437.655 475.551 438.612C469.116 438.759 464.757 442.1 458.594 442.706C443.876 444.152 428.541 443.382 413.748 443.38C407.152 443.38 378.514 445.491 375.551 440.745C375.971 431.23 385.295 434.674 393.185 434.691C403.199 434.713 455.08 435.774 460.053 433.036Z"/>
	<path fill="#3D405B" transform="matrix(1.6 -0.00377365 0.00377365 1.6 0 2.41602)" d="M269.483 226.582C276.22 226.377 274.66 234.803 274.669 239.409C279.266 239.863 298.311 244.773 297.26 251.449C296.077 258.967 290.225 252.925 287.811 251.232C283.867 248.467 279.324 247.17 274.687 246.152C274.146 256.514 274.417 266.996 274.507 277.373C316.016 276.743 312.437 311.5 274.998 319.885C275.118 332.607 268.055 330.801 267.527 325.702C267.469 323.862 267.3 322.022 267.165 320.185C229.51 310.95 236.99 299.671 244.416 302.098C246.619 302.818 249.275 305.967 251.635 307.282C256.343 309.905 262.136 311.072 267.321 312.469C268.134 303.396 267.318 294.088 267.723 284.963C259.372 284.228 250.077 282.517 243.547 276.879C235.453 269.891 234.926 256.754 241.972 248.833C248.619 241.36 257.527 240.016 266.987 239.526C266.834 235.466 264.929 228.603 269.483 226.582Z"/>
	<path fill="#F4F1DE" transform="matrix(1.6 -0.00377365 0.00377365 1.6 0 2.41602)" d="M274.426 283.711C287.584 285.383 307.323 289.845 289.406 305.043C284.835 308.466 279.867 310.567 274.642 312.762C274.215 309.012 274.423 305.122 274.435 301.349L274.426 283.711Z"/>
	<path fill="#F4F1DE" transform="matrix(1.6 -0.00377365 0.00377365 1.6 0 2.41602)" d="M265.801 246.687L266.722 246.577L267.119 246.907C268.42 255.394 267.617 268.901 267.504 277.688C261.887 277.085 256.368 275.513 251.341 272.945C244.572 269.25 242.111 261.27 247.042 254.967C251.501 249.267 259.027 247.585 265.801 246.687Z"/>
	<path fill="#3D405B" transform="matrix(1.6 -0.00377365 0.00377365 1.6 0 2.41602)" d="M348.096 197.445C324.741 197.128 301.307 197.539 277.946 197.545L259.571 197.556C256.919 197.565 253.947 197.886 251.334 197.538C248.002 197.094 246.445 192.914 249.182 190.617C252.706 187.658 274.405 189.108 279.578 189.109L353.202 189.094C391.718 189.045 391.87 199.744 391.873 233.63L391.865 279.061L463.441 279.321C467.513 279.335 472.455 278.39 476.151 280.583C478.203 284.17 480.487 315.276 479.862 317.592C479.548 318.755 478.556 318.816 477.545 319.03C468.708 319.117 470.982 295.075 469.987 287.398C453.041 288.052 436.063 287.796 419.106 287.797L331.939 287.623C329.991 310.974 327.723 334.282 325.24 357.585L322.462 383.362C321.597 391.808 320.446 400.764 321.445 409.238C322.655 419.508 333.169 432.364 343.827 433.203C348.438 433.566 351.511 433.959 352.828 438.882C351.719 446.437 336.263 443.348 329.411 443.35L262.751 443.371C248.34 443.376 225.531 445.237 216.612 430.96C208.306 417.664 229.638 417.18 233.114 402.37C228.086 401.94 222.736 402.354 217.669 402.354L186.025 402.365C151.862 402.503 151.513 394.175 151.53 365.387L151.548 290.573C151.539 285.986 149.175 264.808 155.759 263.634C161.308 265.203 160.054 272.674 160.049 277.023L160.056 291.383C160.07 310.895 159.461 330.589 160.232 350.077C171.816 350.188 183.322 352.967 194.824 352.833C200.331 352.769 205.307 349.863 210.821 349.714C221.254 349.432 233.094 350.432 243.956 350.433L288.395 350.417C298.159 350.415 307.941 350.281 317.699 350.623C318.624 332.168 321.904 313.813 323.495 295.38C324.979 278.178 324.159 279.082 340.241 279.086L359.053 279.098C367.247 279.117 375.444 279.189 383.636 278.996C383.382 257.31 384.203 235.535 383.573 213.868C383.033 195.279 362.25 196.635 348.096 197.445Z"/>
	<path fill="#E07A5F" transform="matrix(1.6 -0.00377365 0.00377365 1.6 0 2.41602)" d="M204.116 358.583C240.351 359.628 280.946 359.572 317.145 358.434C314.784 369.922 314.279 382.202 313.031 393.852C299.995 392.805 287.047 392.798 273.982 392.813C261.509 392.712 248.307 393.802 235.378 393.803L198.69 393.796C189.283 393.791 170.782 396.019 164.365 389.83C157.599 383.306 160.503 367.488 160.307 358.724C174.906 358.642 189.52 358.923 204.116 358.583Z"/>
	<path fill="#3D405B" transform="matrix(1.6 -0.00377365 0.00377365 1.6 0 2.41602)" d="M266.718 366.925C281.147 365.488 286.304 383.598 272.577 385.282C265.439 385.791 260.237 384.497 257.876 377.107C258.775 371.74 261.103 368.063 266.718 366.925Z"/>
	<path fill="#7B939D" transform="matrix(1.6 -0.00377365 0.00377365 1.6 0 2.41602)" d="M268.939 373.059C274.558 372.77 277.898 378.766 270.815 380.241C264.781 380.084 263.792 375.655 268.939 373.059Z"/>
	<path fill="#E07A5F" transform="matrix(1.6 -0.00377365 0.00377365 1.6 0 2.41602)" d="M331.939 287.623L419.106 287.797C436.063 287.796 453.041 288.052 469.987 287.398C470.982 295.075 468.708 319.117 477.545 319.03C478.772 326.145 479.768 334.726 479.957 341.987C474.651 345.482 476.868 349.475 477.455 354.975C479.118 370.551 492.221 420.696 469.903 427.448C469.166 429.789 467.048 433.721 470.809 434.255C470.168 434.386 469.827 434.407 469.302 434.817C466.699 435.26 462.998 433.337 460.053 433.036C455.08 435.774 403.199 434.713 393.185 434.691C385.295 434.674 375.971 431.23 375.551 440.745C368.088 438.449 360.279 440.774 352.828 438.882C351.511 433.959 348.438 433.566 343.827 433.203C333.169 432.364 322.655 419.508 321.445 409.238C320.446 400.764 321.597 391.808 322.462 383.362L325.24 357.585C327.723 334.282 329.991 310.974 331.939 287.623Z"/>
	<path fill="#3D405B" transform="matrix(1.6 -0.00377365 0.00377365 1.6 0 2.41602)" d="M397.039 304.194C404.318 303.444 417.522 302.549 423.226 307.902C427.417 311.836 428.512 319.934 424.134 324.158C420.343 327.816 411.472 326.608 406.56 326.571C400.033 326.554 383.583 327.889 378.966 324.145C374.544 320.559 374.965 313.793 378.478 309.737C382.925 304.604 390.83 304.665 397.039 304.194Z"/>
	<path fill="white" transform="matrix(1.6 -0.00377365 0.00377365 1.6 0 2.41602)" d="M390.37 312.897C392.214 312.806 423.862 309.712 416.606 318.167C415.733 319.185 413.771 318.998 412.544 319.03C407.795 319.06 387.079 320.985 384.46 317.074C384.363 314.006 388.011 313.312 390.37 312.897Z"/>
	<path fill="#3D405B" transform="matrix(1.6 -0.00377365 0.00377365 1.6 0 2.41602)" d="M397.117 345.101C430.838 341.181 435.602 387.782 404.016 392.979C404.514 398.219 404.766 403.35 404.676 408.616C403.175 410.412 398.994 410.956 397.105 409.748C395.757 406.873 396.346 396.351 396.305 392.64C372.549 389.614 369.928 349.729 397.117 345.101Z"/>
	<path fill="#E07A5F" transform="matrix(1.6 -0.00377365 0.00377365 1.6 0 2.41602)" d="M399.098 352.594C419.567 350.156 424.28 380.267 403.263 384.992C382.432 386.092 377.368 356.076 399.098 352.594Z"/>
</svg>
