<?xml version="1.0" encoding="utf-8" ?>
<svg xmlns="http://www.w3.org/2000/svg" xmlns:xlink="http://www.w3.org/1999/xlink" width="1024" height="1024">
	<path fill="#F4F1DE" transform="scale(1.6 1.6)" d="M164.454 157.642L165.186 157.274C166.7 150.968 162.896 155.07 171.184 147.499C226.478 96.9951 303.065 76.8445 376.353 94.474C461.401 114.932 524.517 181.604 536.13 269.327C536.836 274.656 538.101 281.103 537.349 286.424C545.074 284.347 563.239 275.929 565.109 286.13C566.043 291.228 565.284 299.831 565.286 305.258C565.296 335.033 563.676 373.444 554.527 402.228C552.416 403.234 551.099 403.596 548.741 403.392C546.704 409.788 543.685 415.915 541.808 422.334C543.128 425.185 543.739 427.149 543.749 430.297C542.227 431.231 540.729 432.204 539.107 432.958C535.622 438.653 532.52 444.064 530.263 450.384C531.099 451.53 531.895 452.669 532.636 453.88C529.825 460.31 525.245 466.454 521.234 472.178C494.705 510.039 445.754 556.611 395.706 534.492C391.827 532.778 388.066 530.789 384.309 528.826C381.352 533.808 378.324 534.564 373.115 536.719C319.255 559.001 243.817 543.465 195.218 513.318C125.795 470.254 88.937 396.911 89.6774 316.351C89.7336 310.233 89.4287 300.341 91.7636 294.701C76.4823 253.966 74.4641 208.664 74.6659 165.499C74.6969 158.886 73.1826 151.073 75.1429 144.697C79.8125 140.143 85.2084 143.351 90.644 144.857C111.475 150.631 142.561 156.078 164.454 157.642ZM164.454 157.642C142.561 156.078 111.475 150.631 90.644 144.857C85.2084 143.351 79.8125 140.143 75.1429 144.697C73.1826 151.073 74.6969 158.886 74.6659 165.499C74.4641 208.664 76.4823 253.966 91.7636 294.701C93.1416 297.154 94.0499 300.128 95.1115 302.743C115.254 352.359 172.609 428.151 233.136 424.439C238.309 424.122 263.236 422.156 250.361 412.737L249.989 412.469C245.807 412.812 241.631 414.226 237.439 414.777C177.419 422.674 117.432 340.015 99.2169 288.151L99.7517 287.542C100.533 285.223 98.7078 278.171 98.284 275.445C97.5547 270.753 99.9715 266.274 99.9636 261.56C99.9237 237.76 96.5062 171.42 106.284 158.014C113.017 158.918 119.738 160.809 126.468 161.92C209.932 175.695 296.346 172.522 378.469 152.068C378.292 165.215 378.931 178.485 378.366 191.609C378.226 194.869 376.691 207.547 377.571 209.856C377.992 210.96 380.638 212.382 381.837 214.224L382.26 214.207C383.27 212.102 384.948 212.145 386.117 210.403C388.197 207.303 387.471 151.565 386.238 145.292C381.301 138.888 372.472 143.881 365.529 145.458C308.139 158.494 224.058 166.831 164.454 157.642Z"/>
	<path fill="#3D405B" transform="scale(1.6 1.6)" d="M302.046 212.604C304.837 212.213 307.359 213.456 308.52 216.171C311.053 222.099 296.535 223.439 293.473 224.157C285.703 225.98 278.017 227.987 270.347 230.195C263.519 231.054 260.722 224.329 267.417 221.465C274.029 218.637 295.225 213.57 302.046 212.604Z"/>
	<path fill="#3D405B" transform="scale(1.6 1.6)" d="M153.705 212.54C162.958 212.101 173.361 216.372 182.206 218.648C186.949 219.868 196.741 219.999 193.769 227.383C193.126 228.979 191.925 229.794 190.395 230.438C182.497 229.464 172.207 224.908 162.656 223.521C158.939 222.981 147.183 222.875 149.751 216.176C150.52 214.17 151.833 213.409 153.705 212.54Z"/>
	<path fill="#3D405B" transform="scale(1.6 1.6)" d="M368.402 278.053C370.094 269.672 372.023 261.466 373.269 252.984C373.933 248.466 374.103 240.554 375.223 236.71C377.036 230.488 384.478 231.444 384.477 238.015C384.476 245.336 381.308 277.038 374.688 281.215L373.981 281.379C371.933 280.468 370.08 279.583 368.402 278.053Z"/>
	<path fill="#3D405B" transform="scale(1.6 1.6)" d="M172.751 309.026C177.456 310.036 180.846 315.17 184.56 317.99C203.343 332.25 229.97 336.888 252.617 330.844C257.648 329.502 262.209 326.952 267.176 325.448L267.661 325.304C270.622 326.97 271.881 328.871 273.293 331.865C271.87 333.265 270.288 334.183 268.554 335.129C216.883 359.24 152.833 317.53 172.751 309.026Z"/>
	<path fill="#3D405B" transform="scale(1.6 1.6)" d="M164.454 157.642C224.058 166.831 308.139 158.494 365.529 145.458C372.472 143.881 381.301 138.888 386.238 145.292C387.471 151.565 388.197 207.303 386.117 210.403C384.948 212.145 383.27 212.102 382.26 214.207L381.837 214.224C380.638 212.382 377.992 210.96 377.571 209.856C376.691 207.547 378.226 194.869 378.366 191.609C378.931 178.485 378.292 165.215 378.469 152.068C296.346 172.522 209.932 175.695 126.468 161.92C119.738 160.809 113.017 158.918 106.284 158.014C96.5062 171.42 99.9237 237.76 99.9636 261.56C99.9715 266.274 97.5547 270.753 98.284 275.445C98.7078 278.171 100.533 285.223 99.7517 287.542L99.2169 288.151C117.432 340.015 177.419 422.674 237.439 414.777C241.631 414.226 245.807 412.812 249.989 412.469L250.361 412.737C263.236 422.156 238.309 424.122 233.136 424.439C172.609 428.151 115.254 352.359 95.1115 302.743C94.0499 300.128 93.1416 297.154 91.7636 294.701C76.4823 253.966 74.4641 208.664 74.6659 165.499C74.6969 158.886 73.1826 151.073 75.1429 144.697C79.8125 140.143 85.2084 143.351 90.644 144.857C111.475 150.631 142.561 156.078 164.454 157.642ZM82.9614 151.683C82.8155 158.08 83.3473 164.494 83.417 170.893C83.8121 207.167 85.6638 254.181 99.2169 288.151L99.7517 287.542C100.533 285.223 98.7078 278.171 98.284 275.445C97.5547 270.753 99.9715 266.274 99.9636 261.56C99.9237 237.76 96.5062 171.42 106.284 158.014C98.4853 155.973 90.7046 153.926 82.9614 151.683Z"/>
	<path fill="#BC6C25" transform="scale(1.6 1.6)" d="M537.349 286.424C545.074 284.347 563.239 275.929 565.109 286.13C566.043 291.228 565.284 299.831 565.286 305.258C565.296 335.033 563.676 373.444 554.527 402.228C552.416 403.234 551.099 403.596 548.741 403.392C546.704 409.788 543.685 415.915 541.808 422.334C543.128 425.185 543.739 427.149 543.749 430.297C542.227 431.231 540.729 432.204 539.107 432.958C535.622 438.653 532.52 444.064 530.263 450.384C531.099 451.53 531.895 452.669 532.636 453.88C529.825 460.31 525.245 466.454 521.234 472.178C494.705 510.039 445.754 556.611 395.706 534.492C391.827 532.778 388.066 530.789 384.309 528.826C370.473 520.413 348.556 504.562 339.504 490.785C337.53 487.782 338.288 485.088 340.74 482.605C337.765 477.131 331.656 473.022 327.995 467.893C323.105 468.614 318.905 458.683 316.901 455.253C308.803 441.392 279.793 371.122 289.679 358.512C290.031 346.146 285.665 329.966 287.898 318.308C281.704 315.385 283.653 308.547 283.683 302.937C283.797 281.555 281.104 278.816 300.068 284.41C323.639 291.363 348.552 295.845 372.91 298.597L374.629 298.763C429.153 303.694 484.235 300.042 537.349 286.424Z"/>
	<path fill="#3D405B" transform="scale(1.6 1.6)" d="M353.994 347.542C367.589 347.014 378.758 355.377 390.615 355.363C395.321 359.137 397.625 363.313 391.81 367.148C380.204 364.185 368.863 359.909 356.59 356.896C349.48 355.151 347.343 350.954 353.994 347.542Z"/>
	<path fill="#3D405B" transform="scale(1.6 1.6)" d="M487.4 347.572C492.869 347.098 497.462 354.256 491.571 356.497C483.729 359.481 464.527 364.411 455.844 366.512C453.286 366.692 450.157 366.6 449.276 363.606C446.83 355.29 481.41 348.815 487.4 347.572Z"/>
	<path fill="#3D405B" transform="scale(1.6 1.6)" d="M289.679 358.512C299.289 357.927 297.719 368.405 298.906 376.224C303.514 406.56 314.766 436.734 331.99 462.113L331.683 462.586C330.438 464.539 329.694 466.138 327.995 467.893C323.105 468.614 318.905 458.683 316.901 455.253C308.803 441.392 279.793 371.122 289.679 358.512Z"/>
	<path fill="#3D405B" transform="scale(1.6 1.6)" d="M340.74 482.605C349.472 483.824 354.086 492.741 359.918 498.46C372.655 510.949 393.147 525.667 410.5 529.854C452.477 539.983 496.684 491.81 518.254 459.409C522.516 453.008 522.171 448.445 529.691 450.25L530.263 450.384C531.099 451.53 531.895 452.669 532.636 453.88C529.825 460.31 525.245 466.454 521.234 472.178C494.705 510.039 445.754 556.611 395.706 534.492C391.827 532.778 388.066 530.789 384.309 528.826C370.473 520.413 348.556 504.562 339.504 490.785C337.53 487.782 338.288 485.088 340.74 482.605Z"/>
	<path fill="#3D405B" transform="scale(1.6 1.6)" d="M378.301 418.239C385.638 418.038 391.516 422.546 398.203 424.855C414.423 430.455 434.284 430.869 450.34 424.61C456.576 422.178 476.564 411.416 475.703 428.196C475.297 436.117 469.087 444.267 463.419 449.297C443.49 468.137 413.084 469.037 390.26 454.686C381.81 449.373 373.772 441.171 371.571 431.103C370.365 425.588 372.089 419.222 378.301 418.239Z"/>
	<path fill="#3D405B" transform="scale(1.6 1.6)" d="M537.349 286.424C545.074 284.347 563.239 275.929 565.109 286.13C566.043 291.228 565.284 299.831 565.286 305.258C565.296 335.033 563.676 373.444 554.527 402.228C552.416 403.234 551.099 403.596 548.741 403.392C543.763 397.677 548.254 390.585 549.979 383.177C556.965 353.173 556.308 321.734 556.206 291.142C543.982 295.694 523.079 299.966 510.29 302.314C437.935 315.6 363.555 312.333 292.8 291.936C292.687 302.535 297.786 315.186 287.898 318.308C281.704 315.385 283.653 308.547 283.683 302.937C283.797 281.555 281.104 278.816 300.068 284.41C323.639 291.363 348.552 295.845 372.91 298.597L374.629 298.763C429.153 303.694 484.235 300.042 537.349 286.424Z"/>
</svg>
