<?xml version="1.0" encoding="utf-8" ?>
<svg xmlns="http://www.w3.org/2000/svg" xmlns:xlink="http://www.w3.org/1999/xlink" width="1024" height="1023">
	<path fill="#F4F1DE" transform="scale(1.6 1.6)" d="M99.8778 373.668L99.6261 373.374C96.235 373.511 92.5028 372.18 90.1059 369.736C78.1288 357.528 82.9859 293.546 87.02 273.523C116.589 126.753 275.365 43.3395 412.289 99.2548C427.202 105.345 447.525 114.875 458.414 126.16C459.553 126.96 460.458 127.81 461.399 128.834L459.868 130.368C452.644 138.57 451.835 148.908 452.907 159.285C449.11 162.338 445.232 165.348 441.6 168.596L418.866 188.988C399.864 206.183 381.405 223.938 362.165 240.885L349.074 252.552C345.091 256.172 341.185 260.202 336.559 262.986L335.503 263.634C334.283 263.948 332.631 263.618 331.369 263.524C329.549 262.267 328.4 261.483 329.067 259.141C327.872 258.371 326.978 257.327 326.014 256.296C321.803 255.613 318.217 253.232 314.141 252.147C288.889 245.421 266.112 253.447 251.322 274.654C237.518 294.447 225.391 309.342 202.168 320.209C176.497 332.223 145.403 315.728 122.596 346.35C115.764 355.521 119.224 355.173 110.366 349.981C107.722 358.14 102.562 365.358 99.8778 373.668Z"/>
	<path fill="#3D405B" transform="scale(1.6 1.6)" d="M110.366 349.981C112.823 343.592 118.89 338.209 123.764 333.65C151.95 307.287 177.267 325.613 201.224 311.329C224.416 297.502 231.138 289.683 245.527 268.98C262.904 243.979 287.819 236.819 316.179 244.823C320.894 246.154 331.241 249.412 326.014 256.296C321.803 255.613 318.217 253.232 314.141 252.147C288.889 245.421 266.112 253.447 251.322 274.654C237.518 294.447 225.391 309.342 202.168 320.209C176.497 332.223 145.403 315.728 122.596 346.35C115.764 355.521 119.224 355.173 110.366 349.981Z"/>
	<path fill="#F4F1DE" transform="scale(1.6 1.6)" d="M483.923 111.248C488.087 107.576 492.44 102.589 498.465 102.853C514.88 103.571 515.503 112.746 521.862 120.473C527.787 127.671 535.521 126.425 534.196 141.456C533.466 149.735 524.655 154.116 518.8 158.735C524.066 163.677 525.717 168.749 518.296 172.56C515.304 170.565 513.562 168.412 511.929 165.214C509.858 166.94 507.538 168.512 505.596 170.362C508.07 173.068 515.106 179.156 511.996 183.154C512.373 183.627 512.734 183.705 513.297 183.884C519.502 185.858 530.183 205.933 533.306 212.307C580.453 308.509 559.588 416.38 485.067 491.073C422.007 554.279 324.798 573.722 240.743 544.726C229.718 540.923 202.195 530.828 200.382 517.371C147.825 507.13 100.822 457.331 92.7611 404.623C91.8467 398.645 90.4962 392.525 97.245 389.888C98.1593 388.963 99.36 375.884 99.8778 373.668C102.562 365.358 107.722 358.14 110.366 349.981C119.224 355.173 115.764 355.521 122.596 346.35C145.403 315.728 176.497 332.223 202.168 320.209C225.391 309.342 237.518 294.447 251.322 274.654C266.112 253.447 288.889 245.421 314.141 252.147C318.217 253.232 321.803 255.613 326.014 256.296C326.978 257.327 327.872 258.371 329.067 259.141C328.4 261.483 329.549 262.267 331.369 263.524C332.631 263.618 334.283 263.948 335.503 263.634L336.559 262.986C341.185 260.202 345.091 256.172 349.074 252.552L362.165 240.885C381.405 223.938 399.864 206.183 418.866 188.988L441.6 168.596C445.232 165.348 449.11 162.338 452.907 159.285C451.835 148.908 452.644 138.57 459.868 130.368L461.399 128.834C465.533 125.411 472.14 120.865 474.82 116.37C467.718 107.87 478.755 105.614 483.923 111.248Z"/>
	<path fill="#3D405B" transform="scale(1.6 1.6)" d="M442.973 178.164C443.865 180.01 445.632 181.182 447.101 182.56C448.789 185.111 450.821 186.593 453.463 188.006C467.397 191.795 450.172 202.52 446.018 206.478C429.622 222.102 409.822 243.379 392.104 257.018C388.11 260.092 383.425 261.156 379.209 263.605C379.632 261.377 378.447 261.302 376.554 261.153C380.684 255.156 389.047 248.959 394.463 243.938C399.787 239.002 437.32 204.441 438.229 199.721C436.001 196.442 432.983 194.337 429.983 191.866C427.522 188.612 440.026 180.813 442.973 178.164Z"/>
	<path fill="#F4BF91" transform="scale(1.6 1.6)" d="M442.973 178.164C443.865 180.01 445.632 181.182 447.101 182.56C448.789 185.111 450.821 186.593 453.463 188.006C449.401 191.754 442.046 203.184 438.229 199.721C436.001 196.442 432.983 194.337 429.983 191.866C427.522 188.612 440.026 180.813 442.973 178.164Z"/>
	<path fill="#3D405B" transform="scale(1.6 1.6)" d="M457.543 416.064C459.817 418.942 461.136 422.086 462.145 425.597C469.927 452.656 455.896 486.141 427.646 493.961C411.026 498.561 389.359 497.754 374.242 489.053C348.164 474.042 341.151 439.362 355.987 413.872C368.776 391.9 399.895 373.828 423.968 388.133C427.507 386.937 441.25 394.612 445.53 396.955C456.545 394.142 452.191 406.328 457.543 416.064Z"/>
	<path fill="white" transform="scale(1.6 1.6)" d="M405.475 447.429C406.455 447.42 422.13 456.886 424.762 458.042C424.631 467.02 425.539 475.886 426.236 484.828C420.408 486.963 414.366 487.479 408.203 487.514C401.089 487.528 394.376 486.541 387.59 484.436C388.02 475.665 387.955 466.759 387.287 458C393.156 454.02 399.071 450.49 405.475 447.429Z"/>
	<path fill="white" transform="scale(1.6 1.6)" d="M378.762 402.193C386.003 407.966 391.934 415.781 400.853 419.263C400.864 425.791 401.21 432.282 401.629 438.796L389.133 446.198C387.445 447.189 383.706 450.415 381.749 449.602C373.47 445.599 365.305 441.093 357.31 436.547C359.433 421.649 366.282 410.654 378.762 402.193Z"/>
	<path fill="white" transform="scale(1.6 1.6)" d="M423.968 388.133C427.507 386.937 441.25 394.612 445.53 396.955C456.545 394.142 452.191 406.328 457.543 416.064C448.621 417.553 452.589 422.976 453.876 429.075C454.623 432.615 454.981 436.24 455.381 439.832C447.939 440.447 435.546 446.819 428.69 449.983C422.881 446.32 415.404 441.876 409.492 438.562C410.464 432.857 410.068 424.804 410.274 418.854C417.495 415.778 425.327 412.96 431.514 408.044C423.393 397.7 424.657 402.872 423.968 388.133Z"/>
	<path fill="#E07A5F" transform="scale(1.6 1.6)" d="M483.923 111.248C488.087 107.576 492.44 102.589 498.465 102.853C514.88 103.571 515.503 112.746 521.862 120.473C527.787 127.671 535.521 126.425 534.196 141.456C533.466 149.735 524.655 154.116 518.8 158.735C524.066 163.677 525.717 168.749 518.296 172.56C515.304 170.565 513.562 168.412 511.929 165.214C509.858 166.94 507.538 168.512 505.596 170.362C508.07 173.068 515.106 179.156 511.996 183.154C505.609 186.368 502.363 179.447 498.592 175.314C481.658 187.444 470.67 181.709 456.585 168.86C453.554 170.19 450.148 171.814 447.778 174.167C446.111 175.435 444.538 176.772 442.973 178.164C440.026 180.813 427.522 188.612 429.983 191.866C432.983 194.337 436.001 196.442 438.229 199.721C437.32 204.441 399.787 239.002 394.463 243.938C389.047 248.959 380.684 255.156 376.554 261.153C378.447 261.302 379.632 261.377 379.209 263.605C377.652 263.925 376.327 264.013 375.107 265.142C378.43 267.217 379.578 271.477 377.632 274.894L376.646 275.441C377.41 277.095 380.099 284.209 381.34 284.678C390.562 284.579 390.781 290.968 390.791 298.843C390.837 335.159 367.729 336.852 350.316 356.877C340.903 367.702 337.919 382.009 330.942 394.232C327.21 400.768 321.955 405.811 317.443 411.726C302.138 431.792 305.922 445.076 299.56 465.826C286.28 509.145 241.664 525.693 200.382 517.371C147.825 507.13 100.822 457.331 92.7611 404.623C91.8467 398.645 90.4962 392.525 97.245 389.888C98.1593 388.963 99.36 375.884 99.8778 373.668C102.562 365.358 107.722 358.14 110.366 349.981C119.224 355.173 115.764 355.521 122.596 346.35C145.403 315.728 176.497 332.223 202.168 320.209C225.391 309.342 237.518 294.447 251.322 274.654C266.112 253.447 288.889 245.421 314.141 252.147C318.217 253.232 321.803 255.613 326.014 256.296C326.978 257.327 327.872 258.371 329.067 259.141C328.4 261.483 329.549 262.267 331.369 263.524C332.631 263.618 334.283 263.948 335.503 263.634L336.559 262.986C341.185 260.202 345.091 256.172 349.074 252.552L362.165 240.885C381.405 223.938 399.864 206.183 418.866 188.988L441.6 168.596C445.232 165.348 449.11 162.338 452.907 159.285C451.835 148.908 452.644 138.57 459.868 130.368L461.399 128.834C465.533 125.411 472.14 120.865 474.82 116.37C467.718 107.87 478.755 105.614 483.923 111.248Z"/>
	<path fill="#868493" transform="scale(1.6 1.6)" d="M372.599 264.087C374.575 263.985 375.402 262.556 376.554 261.153C378.447 261.302 379.632 261.377 379.209 263.605C377.652 263.925 376.327 264.013 375.107 265.142C374.367 264.71 373.4 264.414 372.599 264.087Z"/>
	<path fill="#3D405B" transform="scale(1.6 1.6)" d="M170.156 381.282C173.839 381.448 175.211 383.892 177.389 386.547C185.53 396.471 202.216 411.812 211.721 420.945C216.29 425.335 228.527 431.891 218.84 437.951C215.406 437.119 190.855 411.034 187.317 407.49C182.206 402.372 159.629 386.805 170.156 381.282Z"/>
	<path fill="#3D405B" transform="scale(1.6 1.6)" d="M372.599 264.087C373.4 264.414 374.367 264.71 375.107 265.142C378.43 267.217 379.578 271.477 377.632 274.894L376.646 275.441C365.647 278.798 349.656 297.886 341.201 306.105C334.099 313.009 288.357 358.619 282.251 361.663C279.527 360.878 277.89 359.922 275.836 357.974C279.104 352.788 286.217 346.992 290.677 342.563C307.289 326.068 324.466 310.195 341.313 293.952C348.597 286.93 364.32 267.604 372.599 264.087Z"/>
	<path fill="#3D405B" transform="scale(1.6 1.6)" d="M381.34 284.678C390.562 284.579 390.781 290.968 390.791 298.843C390.837 335.159 367.729 336.852 350.316 356.877C340.903 367.702 337.919 382.009 330.942 394.232C327.21 400.768 321.955 405.811 317.443 411.726C302.138 431.792 305.922 445.076 299.56 465.826C286.28 509.145 241.664 525.693 200.382 517.371C147.825 507.13 100.822 457.331 92.7611 404.623C91.8467 398.645 90.4962 392.525 97.245 389.888C97.1017 390.991 98.3713 390.817 99.0507 391.4C101.059 393.123 100.499 399.985 100.741 402.553C106.304 461.576 177.013 521.446 237.052 510.568C255.181 507.284 274.668 494.228 284.857 478.872C296.019 462.048 294.625 441.012 302.348 422.89C308.032 409.555 318.325 400.786 325.301 388.577C334.857 371.854 334.64 357.573 352.74 343.227C375.564 325.136 387.621 318.96 381.34 284.678Z"/>
	<path fill="#3D405B" transform="scale(1.6 1.6)" d="M483.923 111.248C488.087 107.576 492.44 102.589 498.465 102.853C514.88 103.571 515.503 112.746 521.862 120.473C527.787 127.671 535.521 126.425 534.196 141.456C533.466 149.735 524.655 154.116 518.8 158.735C524.066 163.677 525.717 168.749 518.296 172.56C515.304 170.565 513.562 168.412 511.929 165.214C509.858 166.94 507.538 168.512 505.596 170.362C508.07 173.068 515.106 179.156 511.996 183.154C505.609 186.368 502.363 179.447 498.592 175.314C481.658 187.444 470.67 181.709 456.585 168.86C453.554 170.19 450.148 171.814 447.778 174.167C446.111 175.435 444.538 176.772 442.973 178.164C440.026 180.813 427.522 188.612 429.983 191.866L271.345 335.981C265.113 341.685 259.167 348.662 251.986 353.131C257.625 358.658 263.055 365.316 263.157 373.637C263.637 412.483 206.928 412.841 207.615 375.138C208.002 353.923 230.235 340.943 249.133 350.903C253.039 338.371 287.18 309.228 298.067 299.239C305.621 292.309 318.221 281.485 324.146 273.654C327.314 269.467 327.831 262.951 331.369 263.524C332.631 263.618 334.283 263.948 335.503 263.634L336.559 262.986C341.185 260.202 345.091 256.172 349.074 252.552L362.165 240.885C381.405 223.938 399.864 206.183 418.866 188.988L441.6 168.596C445.232 165.348 449.11 162.338 452.907 159.285C451.835 148.908 452.644 138.57 459.868 130.368L461.399 128.834C465.533 125.411 472.14 120.865 474.82 116.37C467.718 107.87 478.755 105.614 483.923 111.248Z"/>
	<path fill="#00CBFE" transform="scale(1.6 1.6)" d="M232.23 356.306C255.87 353.612 265.664 385.181 239.379 394.177C215.321 399.627 205.624 362.363 232.23 356.306Z"/>
	<path fill="#E07A5F" transform="scale(1.6 1.6)" d="M495.418 111.628C513.169 109.992 509.391 119.079 517.788 128.619C523.134 134.694 528.143 131.829 527.517 141.986C524.524 145.22 520.547 147.835 517.133 150.627C506.788 159.087 489.997 177.206 475.226 172.982C465.304 169.492 460.264 160.063 460.442 149.797C460.667 136.882 473.814 129.027 482.737 120.328C484.218 122.031 498.367 136.626 498.458 126.593C498.491 122.926 491.17 117.733 488.517 115.446C490.681 113.705 492.83 112.612 495.418 111.628Z"/>
</svg>
