<?xml version="1.0" encoding="utf-8" ?>
<svg xmlns="http://www.w3.org/2000/svg" xmlns:xlink="http://www.w3.org/1999/xlink" width="1024" height="1024">
	<path fill="#BC6C25" transform="scale(1.6 1.6)" d="M97.8522 208.766L97.4775 208.767C95.9363 208.761 94.9963 208.752 93.8441 207.599C91.681 202.842 97.9278 165.915 100.586 160.46C105.835 149.688 116.253 150.016 126.716 149.238L151.13 147.362C250.579 139.88 356.505 138.355 456.096 145.932C465.175 146.623 474.484 146.742 483.488 148.067C483.942 149.96 484.433 151.642 485.262 153.408C491.495 152.888 499.686 153.324 506.034 153.507C507.291 146.626 522.407 149.794 527.187 151.049C541.636 154.842 542.32 171.55 544.391 183.699C550.73 220.899 552.471 252.712 552.47 289.886C552.469 295.836 553.026 302.287 552.26 308.15C550.999 308.797 549.999 309.286 548.584 309.464C543.951 306.322 545.852 302.045 545.894 297.036C546.171 264.487 545.916 223.064 538.946 191.015C532.79 190.228 526.514 189.84 520.311 189.693C428.403 181.598 336.322 176.804 244.057 180.284C214.026 181.416 182.153 184.228 152.226 186.759C135.836 188.145 117.982 190.532 101.638 190.23C100.707 196.186 100.989 203.493 97.8522 208.766Z"/>
	<path fill="#3D405B" transform="scale(1.6 1.6)" d="M97.8522 208.766L97.4775 208.767C95.9363 208.761 94.9963 208.752 93.8441 207.599C91.681 202.842 97.9278 165.915 100.586 160.46C105.835 149.688 116.253 150.016 126.716 149.238L151.13 147.362C250.579 139.88 356.505 138.355 456.096 145.932C465.175 146.623 474.484 146.742 483.488 148.067C483.942 149.96 484.433 151.642 485.262 153.408C480.179 155.503 399.506 148.969 388.437 148.803L359.537 148.417C336.231 148.298 314.125 148.164 290.78 148.576C274.625 148.86 258.406 148.11 242.263 148.624C210.677 149.629 178.916 152.048 147.427 154.662L127.952 156.086C103.206 157.666 106.222 160.267 102.965 183.139C111.084 183.114 119.23 182.389 127.318 181.751L193.735 176.868C288.223 170.436 382.471 171.566 476.915 178.993L516.738 182.107C523.63 182.598 530.722 182.494 537.549 183.537C532.828 137.943 511.193 166.197 506.034 153.507C507.291 146.626 522.407 149.794 527.187 151.049C541.636 154.842 542.32 171.55 544.391 183.699C550.73 220.899 552.471 252.712 552.47 289.886C552.469 295.836 553.026 302.287 552.26 308.15C550.999 308.797 549.999 309.286 548.584 309.464C543.951 306.322 545.852 302.045 545.894 297.036C546.171 264.487 545.916 223.064 538.946 191.015C532.79 190.228 526.514 189.84 520.311 189.693C428.403 181.598 336.322 176.804 244.057 180.284C214.026 181.416 182.153 184.228 152.226 186.759C135.836 188.145 117.982 190.532 101.638 190.23C100.707 196.186 100.989 203.493 97.8522 208.766Z"/>
	<path fill="#F4F1DE" transform="scale(1.6 1.6)" d="M101.638 190.23C117.982 190.532 135.836 188.145 152.226 186.759C182.153 184.228 214.026 181.416 244.057 180.284C336.322 176.804 428.403 181.598 520.311 189.693C526.514 189.84 532.79 190.228 538.946 191.015C545.916 223.064 546.171 264.487 545.894 297.036C545.852 302.045 543.951 306.322 548.584 309.464C548.377 311.928 548.243 321.85 548.722 323.841L549.75 324.917C553.758 327.499 551.282 336.45 551.02 340.502C549.463 364.5 547.125 388.235 543.593 412.025C550.83 425.666 558.599 439.03 565.546 452.822C571.963 465.561 581.929 482.979 564.374 492.261C560.658 494.226 539.288 496.898 537.314 494.9C532.894 493.963 525.117 495.213 520.224 495.231L112.262 495.8C106.635 495.792 96.484 495.669 91.0886 494.317C88.0863 498.51 83.0324 495.88 79.3382 493.936C55.0689 481.167 71.2171 459.945 80.0841 442.996C85.5083 432.628 90.7796 422.088 96.6193 411.95C96.0547 404.559 94.8071 397.178 93.9015 389.818C89.1434 351.15 86.9625 312.281 87.7345 273.313C87.8879 265.572 88.4977 233.597 90.5651 229.635C91.178 228.46 92.753 227.855 93.9337 227.475C95.4607 225.335 95.238 222.467 95.544 219.944C96.0833 216.155 96.799 212.448 97.8522 208.766C100.989 203.493 100.707 196.186 101.638 190.23Z"/>
	<path fill="white" transform="scale(1.6 1.6)" d="M95.544 219.944C95.6154 222.346 98.0233 226.718 96.226 228.628C95.4776 228.21 94.706 227.846 93.9337 227.475C95.4607 225.335 95.238 222.467 95.544 219.944Z"/>
	<path fill="#3D405B" transform="scale(1.6 1.6)" d="M296.416 254.771C303.141 254.468 308.199 259.028 313.539 262.479C322.929 268.548 361.199 289.394 365.953 296.563C376.57 312.572 343.562 325.88 333.507 332.37C327.536 336.216 305.283 350.985 299.915 352.036C292.182 353.549 283.528 346.552 282.121 339.116C281.196 334.23 281.487 329.045 281.499 324.09L281.486 283.71C281.474 271.184 280.858 257.072 296.416 254.771Z"/>
	<path fill="#BC6C25" transform="scale(1.6 1.6)" d="M296.613 261.938C301.888 261.415 310.805 268.837 315.135 271.544C328.615 279.972 343.788 288.788 356.854 297.606C370.884 307.074 340.874 319.072 333.278 324.115C325.614 328.939 304.146 343.072 296.771 345.188C286.603 341.362 288.689 335.135 288.67 325.967L288.668 282.045C288.674 273.965 286.414 264.264 296.613 261.938Z"/>
	<path fill="#3D405B" transform="scale(1.6 1.6)" d="M93.9337 227.475C94.706 227.846 95.4776 228.21 96.226 228.628C99.0331 232.273 96.6695 238.121 96.358 242.375C92.6809 292.588 94.7555 344.025 101.162 393.88C101.868 399.375 102.838 405.007 102.848 410.551C145.6 416.157 188.331 419.584 231.407 421.81L258.685 423.031C323.927 426.2 393.778 422.839 458.696 418.194L493.146 415.666C501.643 414.986 510.215 414.129 518.724 413.708C524.964 413.044 531.281 412.545 537.467 411.492C538.358 388.933 543.34 364.531 544.49 340.61C544.746 335.274 542.368 325.238 549.75 324.917C553.758 327.499 551.282 336.45 551.02 340.502C549.463 364.5 547.125 388.235 543.593 412.025C550.83 425.666 558.599 439.03 565.546 452.822C571.963 465.561 581.929 482.979 564.374 492.261C560.658 494.226 539.288 496.898 537.314 494.9C533.391 482.743 575.087 496.53 566.706 471.637C562.504 459.159 546.151 428.202 538.898 417.813C531.684 419.656 523.209 419.757 515.779 420.276C499.839 421.391 483.999 423.477 468.076 424.653C371.22 431.803 277.072 433.389 179.932 425.39C153.758 423.235 127.526 421.241 101.547 417.301C95.2585 427.75 75.9899 463.012 73.8198 472.641C70.614 486.867 86.4054 485.684 91.0886 494.317C88.0863 498.51 83.0324 495.88 79.3382 493.936C55.0689 481.167 71.2171 459.945 80.0841 442.996C85.5083 432.628 90.7796 422.088 96.6193 411.95C96.0547 404.559 94.8071 397.178 93.9015 389.818C89.1434 351.15 86.9625 312.281 87.7345 273.313C87.8879 265.572 88.4977 233.597 90.5651 229.635C91.178 228.46 92.753 227.855 93.9337 227.475Z"/>
	<path fill="#BC6C25" transform="scale(1.6 1.6)" d="M101.547 417.301C127.526 421.241 153.758 423.235 179.932 425.39C277.072 433.389 371.22 431.803 468.076 424.653C483.999 423.477 499.839 421.391 515.779 420.276C523.209 419.757 531.684 419.656 538.898 417.813C546.151 428.202 562.504 459.159 566.706 471.637C575.087 496.53 533.391 482.743 537.314 494.9C532.894 493.963 525.117 495.213 520.224 495.231L112.262 495.8C106.635 495.792 96.484 495.669 91.0886 494.317C86.4054 485.684 70.614 486.867 73.8198 472.641C75.9899 463.012 95.2585 427.75 101.547 417.301Z"/>
	<path fill="#3D405B" transform="scale(1.6 1.6)" d="M382.419 447.781C389.256 448.917 389.829 466.59 385.475 469.706C377.007 471.308 380.642 449.661 382.419 447.781Z"/>
	<path fill="#3D405B" transform="scale(1.6 1.6)" d="M438.49 443.22C455.471 441.697 457.774 467.395 444.061 473.359C426.487 476.055 424.254 445.246 438.49 443.22Z"/>
	<path fill="#00C5CB" transform="scale(1.6 1.6)" d="M438.761 448.796C448.166 447.931 448.341 463.994 441.496 467.029C432.213 468.966 433.075 453.015 438.761 448.796Z"/>
	<path fill="#3D405B" transform="scale(1.6 1.6)" d="M505.285 442.592C524.636 442.026 527.891 469.349 508.2 472.717C489.394 474.269 485.196 445.482 505.285 442.592Z"/>
	<path fill="#A9EAFD" transform="scale(1.6 1.6)" d="M505.187 449.441C516.992 448.359 518.238 462.955 507.565 465.578C501.795 465.701 499.19 462.703 497.684 457.334C498.829 453.334 500.996 450.604 505.187 449.441Z"/>
</svg>
