<?xml version="1.0" encoding="utf-8" ?>
<svg xmlns="http://www.w3.org/2000/svg" xmlns:xlink="http://www.w3.org/1999/xlink" width="1024" height="1024">
	<path fill="#F4F1DE" transform="scale(1.6 1.6)" d="M311.428 82.9457C312.772 82.8607 314.118 82.8585 315.464 82.8424C446.932 81.2709 556.134 186.047 557.133 319.615C558.039 440.666 465.584 541.865 346.918 555.736C340.868 556.443 334.68 557.241 328.59 557.272C318.599 558.195 307.986 557.301 298.011 556.382C124.489 540.401 24.8433 342.556 119.853 193.849C155.141 138.616 211.712 99.7719 276.23 87.289C287.848 85.0412 299.658 84.0133 311.428 82.9457Z"/>
	<path fill="white" transform="scale(1.6 1.6)" d="M405.992 193.594C410.235 194.988 421.752 201.353 423.832 205.092C421.816 207.17 420.074 209.725 418.444 212.117C414.609 213.016 410.847 211.955 407.026 212.355C406.657 204.641 404.58 203.784 405.992 193.594Z"/>
	<path fill="#3D405B" transform="scale(1.6 1.6)" d="M423.832 205.092C434.792 199.155 460.126 240.28 456.187 252.118C455.573 253.963 453.418 255.042 451.825 255.922C443.023 250.499 448.715 257.814 444.188 244.04C442.192 237.969 430.189 215.259 422.535 215.314C420.146 215.331 422.497 213.118 420.138 211.086C419.59 211.551 419.14 211.919 418.444 212.117C420.074 209.725 421.816 207.17 423.832 205.092Z"/>
	<path fill="#3D405B" transform="scale(1.6 1.6)" d="M181.489 395.45C172.482 390.349 177.922 367.75 178.451 357.332L181.053 301.097C182.025 282.142 181.174 251.865 186.813 235.418C189.612 227.254 210.321 191.991 218.392 210.591C199.063 228.343 194.577 239.993 193.484 265.823L191.454 311.957C190.768 329.432 190.252 346.906 189.163 364.363C188.581 373.705 192.229 393.592 181.489 395.45Z"/>
	<path fill="#3D405B" transform="scale(1.6 1.6)" d="M184.668 419.584L185.032 419.756C189.761 422.028 190.029 430.316 191.622 434.83C197.916 452.669 214.376 470.321 234.777 463.223C265.324 452.594 279.288 400.907 316.884 398.722C360.151 396.209 371.335 453.476 406.395 463.879C435.264 472.445 445.175 435.374 451.79 434.28C469.02 439.96 436.557 485.823 401.443 474.126C371.659 464.204 362.451 432.418 338.112 416.191C294.131 386.869 275.736 466.827 232.986 475.172C204.396 480.753 182.824 453.779 178.175 428.069C177.22 422.792 179.559 420.395 184.668 419.584Z"/>
	<path fill="#3D405B" transform="scale(1.6 1.6)" d="M310.238 187.888C310.499 181.362 309.71 158.861 313.484 155.734C317.214 152.642 320.127 154.974 322.409 158.457C323.225 168.509 322.064 178.881 322.526 189.006C341.775 192.97 339.237 183.354 349.916 206.723C354.898 200.269 356.429 193.13 364.25 188.257C370.082 184.623 399.908 183.609 405.992 193.594C404.58 203.784 406.657 204.641 407.026 212.355C401.801 215.417 384.291 213.912 377.805 213.956L248.449 213.992C242.25 213.985 228.011 217.171 227.593 210.619C227.427 191.243 241.783 186.053 257.626 185.982C289.031 185.839 280.605 199.749 287.249 204.058C292.557 202.131 287.018 191.252 310.238 187.888Z"/>
	<path fill="#1871AE" transform="scale(1.6 1.6)" d="M325.44 197.229C328.922 197.13 333.321 196.175 336.086 198.821C332.45 198.885 328.99 197.939 325.44 197.229Z"/>
	<path fill="#1871AE" transform="scale(1.6 1.6)" d="M243.665 203.213C240.98 205.253 235.63 202.027 242.798 199.427L242.676 199.728C242.267 200.717 241.8 201.591 241.229 202.495L241.424 202.999C242.229 203.217 242.842 203.23 243.665 203.213Z"/>
	<path fill="#28A2DC" transform="scale(1.6 1.6)" d="M242.798 199.427C249.818 194.9 263.438 195.407 271.293 197.738C272.727 199.219 273.567 200.504 274.116 202.496C264.047 202.845 253.66 202.158 243.665 203.213C242.842 203.23 242.229 203.217 241.424 202.999L241.229 202.495C241.8 201.591 242.267 200.717 242.676 199.728L242.798 199.427Z"/>
	<path fill="#28A2DC" transform="scale(1.6 1.6)" d="M373.732 196.69C380.262 195.971 391.359 196.04 397.03 199.196C397.777 200.363 398.307 201.523 398.822 202.807C395.6 202.898 392.364 202.818 389.141 202.802C380.51 202.682 371.866 203.635 363.282 203.401C365.633 198.321 368.123 197.209 373.732 196.69Z"/>
	<path fill="#28A2DC" transform="scale(1.6 1.6)" d="M337.94 203.252L331.448 203.752C328.606 203.944 283.477 207.801 303.721 198.082C307.088 196.466 321.091 197.129 325.44 197.229C328.99 197.939 332.45 198.885 336.086 198.821C336.83 200.273 337.394 201.718 337.94 203.252Z"/>
	<path fill="#E07A5F" transform="scale(1.6 1.6)" d="M218.392 210.591C220.167 212.095 227.406 216 227.593 210.619C228.011 217.171 242.25 213.985 248.449 213.992L377.805 213.956C384.291 213.912 401.801 215.417 407.026 212.355C410.847 211.955 414.609 213.016 418.444 212.117C419.14 211.919 419.59 211.551 420.138 211.086C422.497 213.118 420.146 215.331 422.535 215.314C430.189 215.259 442.192 237.969 444.188 244.04C448.715 257.814 443.023 250.499 451.825 255.922C450.943 259.762 452.831 269.511 452.836 274.161C456.438 275.149 457.488 275.209 457.713 279.036C459.552 310.352 460.009 341.743 461.764 373.066C462.385 384.155 467.524 403.331 457.481 408.566C457.194 409.043 452.402 430.33 451.79 434.28C445.175 435.374 435.264 472.445 406.395 463.879C371.335 453.476 360.151 396.209 316.884 398.722C279.288 400.907 265.324 452.594 234.777 463.223C214.376 470.321 197.916 452.669 191.622 434.83C190.029 430.316 189.761 422.028 185.032 419.756L184.668 419.584C184.654 412.736 181.931 403.12 181.489 395.45C192.229 393.592 188.581 373.705 189.163 364.363C190.252 346.906 190.768 329.432 191.454 311.957L193.484 265.823C194.577 239.993 199.063 228.343 218.392 210.591Z"/>
	<path fill="#3D405B" transform="scale(1.6 1.6)" d="M416.351 305.289C432.988 304.662 418.353 339.663 399.184 323.978C396.5 321.534 392.497 314.496 396.477 311.454C399.779 310.638 403.315 316.326 407.644 317.504L408.064 317.614C414.628 315.713 410.593 309.111 416.351 305.289Z"/>
	<path fill="#3D405B" transform="scale(1.6 1.6)" d="M346.396 304.724C363.107 303.381 357.931 328.266 343.844 328.82C329.453 328.036 328.352 311.781 346.396 304.724Z"/>
	<path fill="#28A2DC" transform="scale(1.6 1.6)" d="M345.51 310.778C349.862 310.903 345.747 316.264 344.44 317.642C340.099 316.651 343.842 312.433 345.51 310.778Z"/>
	<path fill="#3D405B" transform="scale(1.6 1.6)" d="M375.29 273.829C390.54 272.74 393.739 294.261 376.517 298.451C360.037 298.369 359.39 276.734 375.29 273.829Z"/>
	<path fill="#28A2DC" transform="scale(1.6 1.6)" d="M373.761 280.907C379.372 280.638 379.496 285.545 375.14 288.212C370.281 289.12 369.892 283.472 373.761 280.907Z"/>
	<path fill="#3D405B" transform="scale(1.6 1.6)" d="M374.902 333.51C390.216 332.405 393.81 356.655 376.845 359.082C359.43 359.541 358.445 337.885 374.902 333.51Z"/>
	<path fill="#40CDD2" transform="scale(1.6 1.6)" d="M374.792 342.345C378.708 343.32 376.701 346.631 374.86 348.547C373.704 347.743 372.959 346.756 372.098 345.665C372.909 344.367 373.642 343.38 374.792 342.345Z"/>
	<path fill="#3D405B" transform="scale(1.6 1.6)" d="M452.836 274.161C456.438 275.149 457.488 275.209 457.713 279.036C459.552 310.352 460.009 341.743 461.764 373.066C462.385 384.155 467.524 403.331 457.481 408.566C448.068 404.804 451.675 389.83 451.436 380.677C450.621 349.411 447.772 318.185 447.289 286.919C447.227 282.934 447.042 278.861 447.577 274.903C449.318 274.574 451.059 274.186 452.836 274.161Z"/>
	<path fill="#3D405B" transform="scale(1.6 1.6)" d="M254.446 281.276C263.671 280.9 262.524 288.483 262.466 294.933L262.269 310.905C267.629 310.693 283.255 309.874 288.139 310.815C292.571 311.668 295.488 317.806 291.921 321.234C288.393 324.624 282.182 323.629 277.768 323.577L262.494 323.469C262.246 332.967 266.226 349.724 256.938 353.194C254.242 353.976 251.872 351.899 250.435 349.818C249.241 343.101 249.764 331.141 249.331 323.518C246.983 323.527 206.848 325.216 220.448 312.76C224.355 309.182 244.363 310.795 249.92 311.159C249.983 302.488 246.812 287.287 254.446 281.276Z"/>
</svg>
