<?xml version="1.0" encoding="utf-8" ?>
<svg xmlns="http://www.w3.org/2000/svg" xmlns:xlink="http://www.w3.org/1999/xlink" width="1024" height="1024">
	<path fill="#F4F1DE" transform="scale(1.6 1.6)" d="M508.345 133.493C515.892 132.966 516.311 140.213 510.735 143.413C503.639 143.906 502.741 136.727 508.345 133.493Z"/>
	<path fill="#F4F1DE" transform="scale(1.6 1.6)" d="M93.9626 483.483C101.71 482.882 101.88 490.229 96.8396 493.939C89.6134 494.428 88.1306 486.733 93.9626 483.483Z"/>
	<path fill="#F4F1DE" transform="scale(1.6 1.6)" d="M539.62 483.506C547.781 482.631 548.056 490.11 542.729 494.031C535.305 494.553 534.77 487.434 539.62 483.506Z"/>
	<path fill="#F4F1DE" transform="scale(1.6 1.6)" d="M525.293 155.376C532.191 154.971 565.31 177.707 551.379 185.303C546.929 184.214 542.964 177.873 539.464 175.013C535.296 171.607 512.834 161.501 525.293 155.376Z"/>
	<path fill="#F4F1DE" transform="scale(1.6 1.6)" d="M102.574 402.832C97.6389 400.642 97.8379 381.958 96.9363 376.838C88.5776 329.37 87.4951 297.754 107.279 251C129.377 198.777 157.92 162.698 203.073 130.077C212.513 123.257 215.013 122.671 222.58 113.436C239.537 92.7399 291.05 89.6409 318.09 89.6252C351.14 89.6061 373.307 90.6877 405.28 104.25C470.598 131.955 523.655 206.494 541.436 274.657C549.702 306.344 552.46 351.969 539.291 382.528C536.291 389.489 536.978 387.81 532.225 391.935C524.777 386.205 522.823 370.457 511.313 381.847C508.278 380.228 499.243 373.09 497.181 370.465C489.472 369.71 482.175 361.329 476.291 356.952C440.477 330.306 403.608 303.779 368.227 276.808C361.723 271.849 354.683 267.08 348.661 261.559C347.97 250.789 340.246 167.474 314.618 184.575C293.97 198.354 295.536 241.263 290.791 263.832C290.009 265.08 289.642 265.098 288.276 265.26C284.506 265.707 270.157 278.313 266.185 281.366L171.62 352.338C155.776 364.023 121.79 385.256 113.909 403.028C107.853 415.128 110.285 429.242 108.068 442.082C104.464 443.396 100.982 442.005 98.8812 438.887C97.5327 430.495 99.6334 410.633 102.574 402.832ZM282.157 256.178C275.682 260.586 269.608 265.872 263.385 270.641L225.773 298.971C221.51 302.123 217.402 305.506 213.07 308.558L212.858 307.695C211.397 306.853 209.894 306.895 208.264 307.031L207.995 306.673L207.425 307.041L207.588 306.65C207.624 307.618 207.835 308.749 207.312 309.604C206.786 271.144 171.909 276.954 166.485 296.917C164.034 305.936 165.183 333.581 165.394 344.264L165.056 344.556C144.241 362.366 112.647 376.182 102.574 402.832C99.6334 410.633 97.5327 430.495 98.8812 438.887C100.982 442.005 104.464 443.396 108.068 442.082C110.285 429.242 107.853 415.128 113.909 403.028C121.79 385.256 155.776 364.023 171.62 352.338L266.185 281.366C270.157 278.313 284.506 265.707 288.276 265.26C289.642 265.098 290.009 265.08 290.791 263.832C295.536 241.263 293.97 198.354 314.618 184.575C340.246 167.474 347.97 250.789 348.661 261.559C354.683 267.08 361.723 271.849 368.227 276.808C403.608 303.779 440.477 330.306 476.291 356.952C482.175 361.329 489.472 369.71 497.181 370.465C504.869 362.766 492.229 357.425 486.919 353.53C482.777 350.491 478.816 347.213 474.692 344.147C475.269 336.343 475.537 303.711 473.911 297.323C470.005 281.977 449.948 276.914 438.985 287.944C432.193 294.777 432.557 304.291 432.586 313.246C409.732 293.15 381.414 276.345 357.531 256.148C357.143 234.866 350.571 196.797 336.189 180.556C327.159 170.359 314.792 170.422 304.925 179.574C288.999 194.347 282.848 235.152 282.157 256.178Z"/>
	<path fill="#3D405B" transform="scale(1.6 1.6)" d="M317.162 103.481C321.706 103.051 323.958 105.101 324.508 109.423C325.4 116.435 327.36 133.073 320.985 137.604C317.767 138.404 314.679 136.785 314.051 133.277C313.155 128.278 312.081 107.486 317.162 103.481Z"/>
	<path fill="#3D405B" transform="scale(1.6 1.6)" d="M282.157 256.178C282.848 235.152 288.999 194.347 304.925 179.574C314.792 170.422 327.159 170.359 336.189 180.556C350.571 196.797 357.143 234.866 357.531 256.148C381.414 276.345 409.732 293.15 432.586 313.246C432.557 304.291 432.193 294.777 438.985 287.944C449.948 276.914 470.005 281.977 473.911 297.323C475.537 303.711 475.269 336.343 474.692 344.147C478.816 347.213 482.777 350.491 486.919 353.53C492.229 357.425 504.869 362.766 497.181 370.465C489.472 369.71 482.175 361.329 476.291 356.952C440.477 330.306 403.608 303.779 368.227 276.808C361.723 271.849 354.683 267.08 348.661 261.559C347.97 250.789 340.246 167.474 314.618 184.575C293.97 198.354 295.536 241.263 290.791 263.832C290.009 265.08 289.642 265.098 288.276 265.26C284.506 265.707 270.157 278.313 266.185 281.366L171.62 352.338C155.776 364.023 121.79 385.256 113.909 403.028C107.853 415.128 110.285 429.242 108.068 442.082C104.464 443.396 100.982 442.005 98.8812 438.887C97.5327 430.495 99.6334 410.633 102.574 402.832C112.647 376.182 144.241 362.366 165.056 344.556L165.394 344.264C165.183 333.581 164.034 305.936 166.485 296.917C171.909 276.954 206.786 271.144 207.312 309.604C207.835 308.749 207.624 307.618 207.588 306.65L207.425 307.041L207.995 306.673L208.264 307.031C209.894 306.895 211.397 306.853 212.858 307.695L213.07 308.558C217.402 305.506 221.51 302.123 225.773 298.971L263.385 270.641C269.608 265.872 275.682 260.586 282.157 256.178ZM207.312 309.604C207.271 311.01 207.074 312.361 206.86 313.747L213.07 308.558L212.858 307.695C211.397 306.853 209.894 306.895 208.264 307.031L207.995 306.673L207.425 307.041L207.588 306.65C207.624 307.618 207.835 308.749 207.312 309.604Z"/>
	<path fill="white" transform="scale(1.6 1.6)" d="M453.66 291.362C464.954 291.834 464.74 301.556 464.718 310.227C464.696 318.992 464.279 327.736 464.221 336.493C462.321 334.975 460.366 333.516 458.438 332.031C453.255 328.149 448.018 324.347 442.763 320.562C443.815 309.602 438.456 293.576 453.66 291.362Z"/>
	<path fill="white" transform="scale(1.6 1.6)" d="M185.36 291.608C200.294 289.826 197.088 310.908 197.371 320.1C192.971 324.221 187.673 327.812 182.873 331.49C180.383 333.307 177.986 335.163 175.626 337.148C175.423 330.189 174.184 301.947 176.654 297.161C178.414 293.751 181.958 292.64 185.36 291.608Z"/>
	<path fill="#E07A5F" transform="scale(1.6 1.6)" d="M290.791 263.832C295.536 241.263 293.97 198.354 314.618 184.575C340.246 167.474 347.97 250.789 348.661 261.559C354.683 267.08 361.723 271.849 368.227 276.808C403.608 303.779 440.477 330.306 476.291 356.952C482.175 361.329 489.472 369.71 497.181 370.465C499.243 373.09 508.278 380.228 511.313 381.847C522.823 370.457 524.777 386.205 532.225 391.935C540.551 405.331 543.287 439.377 539.647 453.227C536.573 464.92 515.372 452.164 508.489 449.69C508.744 457.224 494.622 470.486 489.158 476.334C473.925 492.638 450.631 510.352 431.24 521.706C372.634 556.018 295.166 559.034 232.821 533.59C212.038 525.107 194.155 513.838 176.567 500.16C165.545 491.588 129.226 464.085 130.085 450.39C123.673 452.826 117.298 455.548 110.728 457.524C105.098 454.667 103.681 449.008 109.239 445.419C109.053 444.282 108.908 442.924 108.068 442.082C110.285 429.242 107.853 415.128 113.909 403.028C121.79 385.256 155.776 364.023 171.62 352.338L266.185 281.366C270.157 278.313 284.506 265.707 288.276 265.26C289.642 265.098 290.009 265.08 290.791 263.832ZM290.791 263.832C290.009 265.08 289.642 265.098 288.276 265.26C284.506 265.707 270.157 278.313 266.185 281.366L171.62 352.338C155.776 364.023 121.79 385.256 113.909 403.028C134.149 393.483 165.311 368.851 184.714 354.488L257.791 299.734C264.897 294.311 271.815 288.635 278.83 283.095C287.816 275.999 292.847 276.422 290.791 263.832Z"/>
	<path fill="#3D405B" transform="scale(1.6 1.6)" d="M191.347 426.775C190.382 417.502 193.906 411.222 202.457 419.485C203.904 426.584 196.99 429.693 191.347 426.775Z"/>
	<path fill="#3D405B" transform="scale(1.6 1.6)" d="M215.298 413.272C219.53 410.687 251.716 400.72 258.849 398.808C263.869 397.462 264.78 398.156 266.779 402.971C266.49 404.668 266.218 406.105 264.752 407.174C260.74 410.098 229.135 420.056 219.569 422.903C218.369 422.303 216.909 421.667 216.107 420.537C215.587 418.061 215.301 415.802 215.298 413.272Z"/>
	<path fill="#3D405B" transform="scale(1.6 1.6)" d="M109.239 445.419C127.335 443.561 147.575 430.989 165.479 427.487C167.449 429.446 169.097 431.44 169.941 434.136C165.494 441.179 161.456 440.208 153.968 442.453C145.974 444.85 137.912 447.495 130.085 450.39C123.673 452.826 117.298 455.548 110.728 457.524C105.098 454.667 103.681 449.008 109.239 445.419Z"/>
	<path fill="#3D405B" transform="scale(1.6 1.6)" d="M343.259 444.043C343.549 436.547 344.313 429.095 344.702 421.606L347.263 367.748C347.426 363.556 346.264 348.746 351.952 347.579C359.025 346.126 357.031 359.925 356.847 363.435C356.341 373.083 354.212 390.713 354.757 399.149C359.764 398.989 364.158 395.956 369.221 396.505C383.044 398.004 405.667 406.95 419.368 411.263L467.011 426.08C488.473 432.701 509.506 439.38 530.194 448.21C530.859 427.734 535.188 397.911 513.904 386.933C512.67 385.347 511.41 383.945 511.313 381.847C522.823 370.457 524.777 386.205 532.225 391.935C540.551 405.331 543.287 439.377 539.647 453.227C536.573 464.92 515.372 452.164 508.489 449.69C501.7 447.306 494.644 445.414 487.771 443.251L433.379 426.353C410.66 419.227 386.257 409.091 362.618 405.955C361.674 421.771 360.564 437.566 361.293 453.413C360.169 454.31 358.846 455.188 357.848 456.213L356.248 456.328C353.291 455.171 351.376 451.976 349.633 449.472C347.185 447.938 345.27 446.092 343.259 444.043Z"/>
	<path fill="white" transform="scale(1.6 1.6)" d="M355.555 406.054C357.927 405.881 360.241 405.879 362.618 405.955C361.674 421.771 360.564 437.566 361.293 453.413C360.169 454.31 358.846 455.188 357.848 456.213L356.248 456.328C353.291 455.171 351.376 451.976 349.633 449.472C354.504 442.682 353.108 416.536 355.555 406.054Z"/>
	<path fill="#3D405B" transform="scale(1.6 1.6)" d="M284.954 400.465C284.681 393.806 280.036 347.194 287.297 347.201C294.661 347.208 292.871 360.05 293.125 364.601C294.481 388.91 295.321 413.323 296.314 437.657C296.504 442.297 296.883 447.105 296.55 451.736C288.578 456.387 259.489 476.598 255.452 481.364C255.354 484.782 255.279 488.198 255.251 491.618C273.683 487.12 296.351 482.76 314.984 479.894C314.773 474.48 312.262 447.063 324.831 459.919C326.618 466.189 325.241 473.716 325.223 480.21C341.34 482.112 369.073 488.466 384.917 493.1L384.656 479.547C377.278 474.903 362.055 465.952 356.514 460.244L357.848 456.213C358.846 455.188 360.169 454.31 361.293 453.413C372.696 460.353 384.306 467.506 394.674 475.952C394.686 480.431 394.735 484.903 394.858 489.38C395.525 513.558 389.162 505.378 372.538 501.227C356.816 497.301 340.728 493.302 324.713 490.82C324.699 492.43 326.632 521.125 316.461 511.801C313.298 508.902 314.639 496.053 314.482 491.027C306.944 492.55 255.186 505.333 251.151 505.255C243.01 505.097 244.64 498.307 244.679 492.612C244.7 489.458 243.463 477.716 245.225 475.517C246.16 474.35 281.444 448.165 286.562 444.379L284.954 400.465Z"/>
	<path fill="#F4F1DE" transform="scale(1.6 1.6)" d="M266.779 402.971C272.439 401.032 279.013 400.954 284.954 400.465L286.562 444.379C281.444 448.165 246.16 474.35 245.225 475.517C243.463 477.716 244.7 489.458 244.679 492.612C244.64 498.307 243.01 505.097 251.151 505.255C255.186 505.333 306.944 492.55 314.482 491.027C314.639 496.053 313.298 508.902 316.461 511.801C326.632 521.125 324.699 492.43 324.713 490.82C340.728 493.302 356.816 497.301 372.538 501.227C389.162 505.378 395.525 513.558 394.858 489.38C394.735 484.903 394.686 480.431 394.674 475.952C384.306 467.506 372.696 460.353 361.293 453.413C360.564 437.566 361.674 421.771 362.618 405.955C386.257 409.091 410.66 419.227 433.379 426.353L487.771 443.251C494.644 445.414 501.7 447.306 508.489 449.69C508.744 457.224 494.622 470.486 489.158 476.334C473.925 492.638 450.631 510.352 431.24 521.706C372.634 556.018 295.166 559.034 232.821 533.59C212.038 525.107 194.155 513.838 176.567 500.16C165.545 491.588 129.226 464.085 130.085 450.39C137.912 447.495 145.974 444.85 153.968 442.453C161.456 440.208 165.494 441.179 169.941 434.136C175.409 430.324 184.805 427.596 191.347 426.775C196.99 429.693 203.904 426.584 202.457 419.485C207.138 419.411 211.496 419.579 216.107 420.537C216.909 421.667 218.369 422.303 219.569 422.903C229.135 420.056 260.74 410.098 264.752 407.174C266.218 406.105 266.49 404.668 266.779 402.971Z"/>
</svg>
