<?xml version="1.0" encoding="utf-8" ?>
<svg xmlns="http://www.w3.org/2000/svg" xmlns:xlink="http://www.w3.org/1999/xlink" width="1024" height="1024">
	<path fill="#F4F1DE" transform="scale(1.6 1.6)" d="M150.364 464.808C151.14 464.579 150.692 464.6 151.508 464.842C155.571 466.043 174.706 465.413 175.966 466.285L176.018 466.758C176.048 469.471 176.517 470.487 179.108 471.296C182.149 471.17 185.139 470.625 187.977 469.509C187.648 469.092 187.469 468.787 187.31 468.28L187.663 467.942C192.163 466.983 204.641 465.618 208.985 466.156C217.426 466.562 225.999 466.275 234.452 466.269L476.72 466.261C486.918 466.261 497.149 466.09 507.34 466.471C505.879 472.253 498.096 476.856 493.887 480.775C475.022 498.344 453.174 515.597 430.067 527.269C336.045 574.763 219.96 556.402 147.272 479.291C145.326 477.226 137.737 471.244 140.077 468.023C141.191 467.836 142.198 467.807 142.712 466.652C144.132 466.81 145.605 466.898 146.992 467.247C148.736 466.824 149.412 466.345 150.364 464.808Z"/>
	<path fill="white" transform="scale(1.6 1.6)" d="M187.977 469.509C187.648 469.092 187.469 468.787 187.31 468.28L187.663 467.942C192.163 466.983 204.641 465.618 208.985 466.156C209.335 475.957 194.998 470.08 187.977 469.509Z"/>
	<path fill="white" transform="scale(1.6 1.6)" d="M150.364 464.808C151.14 464.579 150.692 464.6 151.508 464.842C155.571 466.043 174.706 465.413 175.966 466.285L176.018 466.758C176.048 469.471 176.517 470.487 179.108 471.296C174.293 476.562 147.079 477.786 146.992 467.247C148.736 466.824 149.412 466.345 150.364 464.808Z"/>
	<path fill="#F4F1DE" transform="scale(1.6 1.6)" d="M138.918 172.541C137.884 159.901 191.985 123.074 205.895 115.576C289.184 70.677 400.504 79.4168 473.114 141.287C477.731 145.222 503.986 168.759 501.493 172.601C534.869 172.652 551.175 177.104 551.413 214.385L551.451 304.111C551.434 309.357 549.548 308.83 544.825 308.328L544.609 271.741L315.281 271.763C303.282 271.769 291.175 272.181 279.211 271.237C277.967 271.233 276.716 271.297 275.471 271.332C268.78 272.165 240.373 275.53 239.606 266.813C232.671 268.105 224.217 270.072 217.384 267.592C214.662 262.15 201.275 264.633 195.285 264.685L174.563 264.702C173.607 266.504 172.452 267.956 170.998 269.385C168.136 268.275 165.482 266.441 162.911 264.787C157.556 265.268 151.921 264.735 146.53 264.714L116.507 264.682C109.45 264.683 102.37 264.509 95.3283 265.052C95.2595 258.81 97.0468 234.79 93.3803 231.049C92.656 228.516 93.2542 225.022 93.4375 222.403C93.5629 219.841 93.6385 217.279 94.0929 214.749C94.4066 213.625 94.4396 212.336 94.5712 211.173C86.6616 201.868 90.9523 190.951 98.8842 182.878C110.409 171.149 123.844 172.67 138.918 172.541Z"/>
	<path fill="#3D405B" transform="scale(1.6 1.6)" d="M138.918 172.541C143.963 172.634 170.872 170.484 170.294 176.346C169.836 180.99 161.288 179.75 158.252 179.72L133.907 179.646C117.504 179.602 102.532 179.127 97.1944 199.555C96.1969 203.373 96.078 207.51 94.5712 211.173C86.6616 201.868 90.9523 190.951 98.8842 182.878C110.409 171.149 123.844 172.67 138.918 172.541Z"/>
	<path fill="#3D405B" transform="scale(1.6 1.6)" d="M501.493 172.601C534.869 172.652 551.175 177.104 551.413 214.385L551.451 304.111C551.434 309.357 549.548 308.83 544.825 308.328L544.609 271.741L315.281 271.763C303.282 271.769 291.175 272.181 279.211 271.237C279.447 269.66 279.997 268.141 280.471 266.622C283.919 262.828 305.425 264.693 310.938 264.694L520.014 264.687C528.215 264.686 536.485 264.429 544.667 265.024C545.203 252.812 545.462 234.065 544.753 221.82C534.473 222.769 523.779 222.214 513.453 222.209L109.08 222.202C103.94 222.204 98.5235 222.975 93.4375 222.403C93.5629 219.841 93.6385 217.279 94.0929 214.749C111.805 214.533 129.54 214.704 147.254 214.704L544.42 214.698C544.533 178.564 530.061 179.656 498.051 179.659L219.006 179.593C214.644 179.596 199.695 182.778 204.243 173.73C207.348 171.311 233.631 172.658 239.043 172.658L501.493 172.601Z"/>
	<path fill="#BC6C25" transform="scale(1.6 1.6)" d="M93.4375 222.403C98.5235 222.975 103.94 222.204 109.08 222.202L513.453 222.209C523.779 222.214 534.473 222.769 544.753 221.82C545.462 234.065 545.203 252.812 544.667 265.024C536.485 264.429 528.215 264.686 520.014 264.687L310.938 264.694C305.425 264.693 283.919 262.828 280.471 266.622C279.997 268.141 279.447 269.66 279.211 271.237C277.967 271.233 276.716 271.297 275.471 271.332C268.78 272.165 240.373 275.53 239.606 266.813C232.671 268.105 224.217 270.072 217.384 267.592C214.662 262.15 201.275 264.633 195.285 264.685L174.563 264.702C173.607 266.504 172.452 267.956 170.998 269.385C168.136 268.275 165.482 266.441 162.911 264.787C157.556 265.268 151.921 264.735 146.53 264.714L116.507 264.682C109.45 264.683 102.37 264.509 95.3283 265.052C95.2595 258.81 97.0468 234.79 93.3803 231.049C92.656 228.516 93.2542 225.022 93.4375 222.403Z"/>
	<path fill="#3D405B" transform="scale(1.6 1.6)" d="M239.606 266.813C243.377 262.493 249.673 264.623 254.837 264.672C259.924 264.72 272.688 262.726 275.287 266.974C275.341 268.426 275.374 269.882 275.471 271.332C268.78 272.165 240.373 275.53 239.606 266.813Z"/>
	<path fill="#F4F1DE" transform="scale(1.6 1.6)" d="M93.3803 231.049C97.0468 234.79 95.2595 258.81 95.3283 265.052C102.37 264.509 109.45 264.683 116.507 264.682L146.53 264.714C151.921 264.735 157.556 265.268 162.911 264.787C165.482 266.441 168.136 268.275 170.998 269.385C172.452 267.956 173.607 266.504 174.563 264.702L195.285 264.685C201.275 264.633 214.662 262.15 217.384 267.592C224.217 270.072 232.671 268.105 239.606 266.813C240.373 275.53 268.78 272.165 275.471 271.332C276.716 271.297 277.967 271.233 279.211 271.237C291.175 272.181 303.282 271.769 315.281 271.763L544.609 271.741L544.825 308.328C543.776 314.414 546.219 320.765 545.36 326.938C554.634 324.836 551.327 337.054 551.365 342.696L551.415 416.298C551.428 424.132 552.123 432.754 550.721 440.457C546.498 463.65 525.435 465.578 507.34 466.471C497.149 466.09 486.918 466.261 476.72 466.261L234.452 466.269C225.999 466.275 217.426 466.562 208.985 466.156C204.641 465.618 192.163 466.983 187.663 467.942L187.31 468.28C187.469 468.787 187.648 469.092 187.977 469.509C185.139 470.625 182.149 471.17 179.108 471.296C176.517 470.487 176.048 469.471 176.018 466.758L175.966 466.285C174.706 465.413 155.571 466.043 151.508 464.842C150.692 464.6 151.14 464.579 150.364 464.808C149.412 466.345 148.736 466.824 146.992 467.247C145.605 466.898 144.132 466.81 142.712 466.652C132.583 465.935 120.886 467.557 111.138 464.859C85.1101 457.655 88.4986 429.59 88.4982 409.094L88.5057 284.416C88.5029 277.644 87.3895 237.87 89.2066 233.608C89.8263 232.155 92.0282 231.526 93.3803 231.049Z"/>
	<path fill="#3D405B" transform="scale(1.6 1.6)" d="M234.849 364.718C239.265 364.559 260.215 363.455 262.258 365.957C264.288 368.441 263.393 370.474 260.979 372.033C256.912 372.433 239.625 371.954 235.46 371.431C230.827 370.849 232.539 366.849 234.849 364.718Z"/>
	<path fill="#3D405B" transform="scale(1.6 1.6)" d="M141.307 364.407C154.711 363.865 172.984 364.15 186.226 364.745C192.948 365.047 192.239 370.956 187.512 371.804C177.375 371.494 167.209 371.65 157.068 371.662C154.545 371.664 134.749 374.067 137.997 367.039C138.68 365.561 139.842 364.937 141.307 364.407Z"/>
	<path fill="#3D405B" transform="scale(1.6 1.6)" d="M140.774 406.595C156.895 406.288 174.353 405.999 190.485 406.392C195.507 406.514 197.413 413.033 192.13 413.826C180.966 414.301 151.021 415.138 140.434 413.49C135.353 412.698 136.903 408.351 140.774 406.595Z"/>
	<path fill="#3D405B" transform="scale(1.6 1.6)" d="M93.3803 231.049C97.0468 234.79 95.2595 258.81 95.3283 265.052C102.37 264.509 109.45 264.683 116.507 264.682L146.53 264.714C151.921 264.735 157.556 265.268 162.911 264.787C165.482 266.441 168.136 268.275 170.998 269.385C172.452 267.956 173.607 266.504 174.563 264.702L195.285 264.685C201.275 264.633 214.662 262.15 217.384 267.592C217.245 268.447 217.049 270.421 216.264 270.953C214.394 272.218 177.684 271.793 171.447 272.407C164.711 273.456 157.991 271.851 151.237 271.763C132.613 271.518 113.956 271.745 95.3288 271.752L95.2856 416.146C95.2824 428.731 93.5274 442.267 103.089 452.011C115.445 464.604 132.569 457.617 147.868 460.545C149.176 461.913 149.842 463.001 150.364 464.808C149.412 466.345 148.736 466.824 146.992 467.247C145.605 466.898 144.132 466.81 142.712 466.652C132.583 465.935 120.886 467.557 111.138 464.859C85.1101 457.655 88.4986 429.59 88.4982 409.094L88.5057 284.416C88.5029 277.644 87.3895 237.87 89.2066 233.608C89.8263 232.155 92.0282 231.526 93.3803 231.049Z"/>
	<path fill="#3D405B" transform="scale(1.6 1.6)" d="M545.36 326.938C554.634 324.836 551.327 337.054 551.365 342.696L551.415 416.298C551.428 424.132 552.123 432.754 550.721 440.457C546.498 463.65 525.435 465.578 507.34 466.471C497.149 466.09 486.918 466.261 476.72 466.261L234.452 466.269C225.999 466.275 217.426 466.562 208.985 466.156C204.641 465.618 192.163 466.983 187.663 467.942L187.31 468.28C187.469 468.787 187.648 469.092 187.977 469.509C185.139 470.625 182.149 471.17 179.108 471.296C176.517 470.487 176.048 469.471 176.018 466.758C178.122 462.885 192.313 464.461 196.486 464.059C201.242 463.602 204.632 459.514 209.201 459.253C217.375 458.785 225.82 459.29 234.025 459.291L498.203 459.269C513.882 459.265 535.645 462.343 542.858 443.164C546.366 433.835 544.652 412.644 544.652 402.519L544.673 347.886C544.657 341.663 543.09 332.747 545.36 326.938Z"/>
	<path fill="#3D405B" transform="scale(1.6 1.6)" d="M470.966 343.254C491.551 340.329 511.37 359.604 514.306 379.008C517.714 401.531 501.658 424.286 478.856 427.52C462.59 429.827 454.282 424.044 441.983 414.781C436.125 420.261 428.655 424.074 420.702 425.191C410.563 426.902 398.724 423.447 390.732 417.148C350.349 385.321 397.23 316.598 444.193 355.513C450.126 347.614 461.497 344.079 470.966 343.254Z"/>
	<path fill="#BC6C25" transform="scale(1.6 1.6)" d="M470.235 350.735C477.899 349.726 486.137 352.526 492.542 356.641C518.135 373.081 509.654 413.036 478.16 419.567C466.278 420.829 455.673 417.246 447.026 408.789C456.901 392.548 456.94 379.622 448.618 362.054C455.188 355.887 461.161 352.021 470.235 350.735Z"/>
	<path fill="#FFD438" transform="scale(1.6 1.6)" d="M415.722 352.01C457.872 352.882 457.578 413.326 415.755 418.109C375.468 419.398 370.668 353.977 415.722 352.01Z"/>
</svg>
