<?xml version="1.0" encoding="utf-8" ?>
<svg xmlns="http://www.w3.org/2000/svg" xmlns:xlink="http://www.w3.org/1999/xlink" width="1024" height="1024">
	<path fill="#F4F1DE" transform="scale(1.6 1.6)" d="M308.356 80.4464L308.68 80.4275C393.559 76.2212 472.172 116.179 519.039 186.228C559.776 247.115 571.933 325.279 548.247 394.969C516.084 489.6 432.701 555.222 331.64 560.169C202.825 567.814 92.7228 468.616 81.0971 340.875C73.2246 254.373 114.963 168.79 186.751 120.254C225.204 94.2547 263.402 84.5307 308.356 80.4464ZM191.614 202.086C184.373 204.898 152.39 222.213 145.835 227.955C129.589 242.188 147.477 272.435 167.599 263.472C174.099 260.577 180.031 255.664 186.155 251.98C201.573 242.704 212.703 243.466 213.075 223.109L213.753 222.971C217.011 224.771 220.111 224.116 223.686 223.765C227.384 223.792 231.254 222.35 234.729 221.197C239.206 223.567 248.567 214.559 251.814 211.991C253.887 214.853 255.863 217.749 257.78 220.718C255.784 226.226 254.415 232.248 262.039 226.038C268.006 231.398 279.613 242.815 287.645 244.788C294.718 246.525 279.393 255.624 278.022 256.677C245.43 281.718 224.894 320.472 224.124 361.8C223.968 370.168 223.182 405.807 238.74 398.999C241.909 398.093 245.368 396.836 248.167 395.089C237.12 336.705 266.189 278.49 322.357 256.063C326.118 254.561 330.086 253.35 333.697 251.517L334.085 251.317C341.88 248.199 348.342 246.573 348.428 236.877C349.888 237.12 351.521 236.947 353.003 236.919C353.54 236.022 354.14 235.158 354.718 234.287C361.638 218.239 352.59 215.632 341.011 205.673C330.486 196.62 330.563 195.462 314.993 196.827C315.157 180.967 309.451 164.638 290.112 164.956C282.571 165.079 265.105 171.79 257.511 174.692C246.43 153.348 230.953 161.676 216.07 170.286C199.95 179.611 189.416 180.643 191.614 202.086Z"/>
	<path fill="#88919E" transform="scale(1.6 1.6)" d="M241.781 434.595C234.274 431.988 238.483 425.855 242.285 434.3L241.781 434.595Z"/>
	<path fill="#3D405B" transform="scale(1.6 1.6)" d="M344.91 492.828C359.17 492.387 371.23 495.189 386.835 493.53C388.645 495.313 389.837 496.954 390.52 499.464C386.87 508.095 352.209 505.205 344.932 503.686C341.837 503.04 340.183 500.404 340.949 497.33C342.067 495.546 343.157 494.059 344.91 492.828Z"/>
	<path fill="#3D405B" transform="scale(1.6 1.6)" d="M489.278 332.914C500.097 335.019 497.694 379.743 495.702 387.694C494.847 391.105 492.553 392.537 489.171 392.989C481.18 390.956 486.185 380.73 486.218 373.17C486.271 360.989 484.931 348.298 484.833 336.015C486.378 335.038 487.853 334.065 489.278 332.914Z"/>
	<path fill="#3D405B" transform="scale(1.6 1.6)" d="M247.474 431.75C253.696 430.631 259.593 444.397 262.944 448.568C275.018 463.59 292.539 477.309 310.413 484.269C321.228 488.48 324.012 484.663 326.478 495.655C324.252 503.523 317.893 499.062 312.881 496.907C284.141 484.549 265.576 471.289 247.372 445.357C245.091 442.109 242.222 438.675 241.781 434.595L242.285 434.3C244.117 433.693 245.785 432.673 247.474 431.75Z"/>
	<path fill="#3D405B" transform="scale(1.6 1.6)" d="M375.951 229.921C402.635 230.577 439.664 252.047 457.25 270.529C465.949 279.671 480.11 298.647 483.321 310.643C482.66 312.018 482.049 313.345 481.089 314.546C474.055 317.448 470.063 304.938 467.363 300.701C449.938 273.367 424.452 252.514 392.854 243.764C383.508 241.176 372.714 243.41 373.462 232.793C374.235 231.749 375.02 230.827 375.951 229.921Z"/>
	<path fill="#3D405B" transform="scale(1.6 1.6)" d="M191.614 202.086C189.416 180.643 199.95 179.611 216.07 170.286C230.953 161.676 246.43 153.348 257.511 174.692C265.105 171.79 282.571 165.079 290.112 164.956C309.451 164.638 315.157 180.967 314.993 196.827C330.563 195.462 330.486 196.62 341.011 205.673C352.59 215.632 361.638 218.239 354.718 234.287C354.14 235.158 353.54 236.022 353.003 236.919C351.521 236.947 349.888 237.12 348.428 236.877C348.342 246.573 341.88 248.199 334.085 251.317L333.697 251.517C330.086 253.35 326.118 254.561 322.357 256.063C266.189 278.49 237.12 336.705 248.167 395.089C245.368 396.836 241.909 398.093 238.74 398.999C223.182 405.807 223.968 370.168 224.124 361.8C224.894 320.472 245.43 281.718 278.022 256.677C279.393 255.624 294.718 246.525 287.645 244.788C279.613 242.815 268.006 231.398 262.039 226.038C254.415 232.248 255.784 226.226 257.78 220.718C255.863 217.749 253.887 214.853 251.814 211.991C248.567 214.559 239.206 223.567 234.729 221.197C231.254 222.35 227.384 223.792 223.686 223.765C220.111 224.116 217.011 224.771 213.753 222.971L213.075 223.109C212.703 243.466 201.573 242.704 186.155 251.98C180.031 255.664 174.099 260.577 167.599 263.472C147.477 272.435 129.589 242.188 145.835 227.955C152.39 222.213 184.373 204.898 191.614 202.086ZM301.394 244.279C302.439 246.698 303.47 249.124 304.572 251.518C306.987 250.293 309.162 249.556 311.837 249.06C312.729 249.67 313.616 250.25 314.405 250.992C321.084 251.888 331.272 250.655 334.085 251.317C341.88 248.199 348.342 246.573 348.428 236.877C335.952 233.859 313.426 239.92 301.394 244.279ZM283.335 198.306C283.252 198.313 283.17 198.319 283.088 198.327L282.679 198.371C276.76 198.94 270.782 201.678 266.396 205.644C276.878 210.955 280.231 216.142 293.794 220.509C295.64 220.107 297.469 219.669 299.297 219.19C300.235 218.565 301.084 217.808 301.948 217.086C302.902 214.354 303.285 211.731 303.452 208.851C294.67 207.709 286.247 208.597 283.335 198.306Z"/>
	<path fill="#88919E" transform="scale(1.6 1.6)" d="M223.686 223.765L224.561 223.154C228.489 223.008 231.299 218.255 234.729 221.197C231.254 222.35 227.384 223.792 223.686 223.765Z"/>
	<path fill="#BDC8CD" transform="scale(1.6 1.6)" d="M215.722 218.562C218.677 216.436 222.953 214.899 226.355 216.645C223.125 217.924 220.86 217.895 217.617 219.835C217 219.416 216.374 218.917 215.722 218.562Z"/>
	<path fill="#BC6C25" transform="scale(1.6 1.6)" d="M263.193 207.835C264.298 207.172 265.341 206.385 266.396 205.644C276.878 210.955 280.231 216.142 293.794 220.509C295.64 220.107 297.469 219.669 299.297 219.19C306.048 222.79 312.41 210.691 315.616 207.924C322.401 202.067 342.895 219.135 347.028 224.055C325.984 224.383 305.96 231.049 285.097 232.635C283.25 230.938 281.303 229.285 279.551 227.492C272.866 222.052 266.793 215.761 263.193 207.835Z"/>
	<path fill="#F4F1DE" transform="scale(1.6 1.6)" d="M190.866 210.879C192 211.85 204.763 229.101 205.008 229.666C201.061 237.256 191.06 240.301 184.013 244.375C177.017 248.418 168.636 255.158 161.009 257.232C150.003 256.81 142.374 242.468 151.247 234.311C158.925 227.254 180.632 217.697 190.866 210.879Z"/>
	<path fill="white" transform="scale(1.6 1.6)" d="M238.355 170.157C243.955 171.88 245.935 175.539 248.24 180.737C237.826 185.749 215.349 192.245 209.107 202.145C210.418 204.746 212.501 207.368 215.103 208.779C216.674 208.337 218.036 207.569 219.464 206.794C219.308 205.768 219.074 205.322 219.695 204.391C221.932 201.043 279.54 176.372 290.026 175.317C298.844 174.429 304.944 185.386 305.193 192.892C305.455 200.84 295.907 201.914 290.476 198.761C293.056 195.427 296.097 192.281 298.371 188.74C297.997 187.733 297.622 186.73 297.293 185.707C292.987 182.5 283.528 182.147 278.065 181.424C279.37 184.55 280.696 187.667 281.881 190.841C276.548 194.388 270.63 195.536 264.574 197.352C250.713 201.51 239.375 210.702 226.355 216.645C222.953 214.899 218.677 216.436 215.722 218.562C210.038 213.747 203.377 207.548 201.001 200.252C196.98 187.903 206.074 185.998 214.87 181.299C222.559 177.191 229.92 172.575 238.355 170.157Z"/>
	<path fill="#6C727E" transform="scale(1.6 1.6)" d="M215.103 208.779C216.674 208.337 218.036 207.569 219.464 206.794C219.632 208.767 219.867 210.638 220.307 212.569C218.317 211.498 216.744 210.354 215.103 208.779Z"/>
	<path fill="#FDAFA4" transform="scale(1.6 1.6)" d="M311.837 249.06C312.729 249.67 313.616 250.25 314.405 250.992C321.084 251.888 331.272 250.655 334.085 251.317L333.697 251.517C330.086 253.35 326.118 254.561 322.357 256.063C266.189 278.49 237.12 336.705 248.167 395.089C245.368 396.836 241.909 398.093 238.74 398.999C241.943 396.012 239.293 392.146 238.147 388.689C235.12 379.553 234.662 369.294 235.036 359.719C236.726 316.432 260.767 279.683 297.03 257.371C299.078 256.11 304.154 254.137 305.186 252.066L304.572 251.518C306.987 250.293 309.162 249.556 311.837 249.06Z"/>
	<path fill="#BC6C25" transform="scale(1.6 1.6)" d="M373.462 232.793C372.714 243.41 383.508 241.176 392.854 243.764C424.452 252.514 449.938 273.367 467.363 300.701C470.063 304.938 474.055 317.448 481.089 314.546C481.742 317.779 486.445 331.866 489.278 332.914C487.853 334.065 486.378 335.038 484.833 336.015C484.931 348.298 486.271 360.989 486.218 373.17C486.185 380.73 481.18 390.956 489.171 392.989C486.518 396.247 484.832 406.362 483.048 411.018C482.314 412.933 480.234 414.694 480.08 416.615C484.277 421.113 479.704 426.157 475.555 428.6C472.379 430.704 468.003 441.326 465.966 445.35C466.459 446.298 466.876 447.195 467.213 448.21C463.91 462.888 428.354 489.091 415.447 492.176L412.352 491.084C406.828 492.448 394.656 495.44 390.726 498.943L390.52 499.464C389.837 496.954 388.645 495.313 386.835 493.53C371.23 495.189 359.17 492.387 344.91 492.828C343.157 494.059 342.067 495.546 340.949 497.33C338.677 497.656 329.831 495.819 327.13 495.232L326.68 495.132L326.478 495.655C324.012 484.663 321.228 488.48 310.413 484.269C292.539 477.309 275.018 463.59 262.944 448.568C259.593 444.397 253.696 430.631 247.474 431.75C248.306 428.892 250.408 407.069 250.25 404.746C250.028 401.495 248.861 398.271 248.167 395.089C237.12 336.705 266.189 278.49 322.357 256.063C326.118 254.561 330.086 253.35 333.697 251.517L334.085 251.317C341.88 248.199 348.342 246.573 348.428 236.877C349.888 237.12 351.521 236.947 353.003 236.919C353.54 236.022 354.14 235.158 354.718 234.287C360.393 235.495 368.371 236.086 373.462 232.793Z"/>
	<path fill="#3D405B" transform="scale(1.6 1.6)" d="M475.555 428.6C464.386 423.001 472.764 409.932 480.08 416.615C484.277 421.113 479.704 426.157 475.555 428.6Z"/>
	<path fill="#3D405B" transform="scale(1.6 1.6)" d="M410.034 484.32C413.357 481.192 418.638 479.686 422.564 477.288C433.642 470.52 445.159 461.431 453.325 451.158C457.288 446.174 458.777 440.824 465.966 445.35C466.459 446.298 466.876 447.195 467.213 448.21C463.91 462.888 428.354 489.091 415.447 492.176L412.352 491.084C411.214 488.961 410.672 486.628 410.034 484.32Z"/>
	<path fill="#3D405B" transform="scale(1.6 1.6)" d="M408.53 324.661C412.275 324.485 415.671 328.06 414.334 331.899C412.684 336.635 375.519 371.269 369.14 377.617L337.068 409.161C331.856 414.275 325.069 423.087 318.429 426.105C312.632 426.937 311.18 420.124 315.655 415.225C329.029 400.582 344.052 387.338 358.109 373.356L385.442 346.334C391.524 340.254 401.67 328.826 408.53 324.661Z"/>
</svg>
