<?xml version="1.0" encoding="utf-8" ?>
<svg xmlns="http://www.w3.org/2000/svg" xmlns:xlink="http://www.w3.org/1999/xlink" width="1024" height="1024">
	<path fill="#3D405B" transform="scale(1.6 1.6)" d="M342.375 166.09C342.934 161.326 370.613 160.52 376.895 159.725L441.167 151.529C451.938 150.087 492.552 142.946 501.269 145.923C517.439 151.447 514.93 172.784 518.188 185.927C538.155 186.142 533.281 189.408 535.308 202.334C535.981 206.622 537.837 210.542 538.731 214.753C540.155 221.462 541.025 234.07 541.206 241.062C542.281 282.653 536.017 323.904 544.365 365.118C546.722 376.755 555.74 398.272 545.088 407.212C542.246 409.598 538.817 413.084 535.466 409.719C535.303 405.212 541.711 402.609 543.283 398.146C545.352 392.271 541.718 383.194 540.566 377.388C537.862 363.748 535.003 349.953 533.849 336.081C530.869 300.233 541.931 226.21 528.162 195.917C524.878 193.565 521.249 192.568 517.3 191.922C516.505 192.346 515.025 192.894 514.533 193.63L514.823 193.25L514.311 193.535L514.145 193.432C514.481 188.5 511.991 184.286 511.024 179.558C509.247 170.871 509.62 155.296 499.201 152.145C493.741 150.495 473.065 154.142 466.286 154.958L390.665 164.458C385.795 165.108 345.592 171.039 344.296 170.763C342.976 170.482 342.6 167.158 342.375 166.09Z"/>
	<path fill="#F4F1DE" transform="scale(1.6 1.6)" d="M342.375 166.09C342.6 167.158 342.976 170.482 344.296 170.763C345.592 171.039 385.795 165.108 390.665 164.458L466.286 154.958C473.065 154.142 493.741 150.495 499.201 152.145C509.62 155.296 509.247 170.871 511.024 179.558C511.991 184.286 514.481 188.5 514.145 193.432L514.311 193.535L514.823 193.25L514.533 193.63C515.025 192.894 516.505 192.346 517.3 191.922C521.249 192.568 524.878 193.565 528.162 195.917C541.931 226.21 530.869 300.233 533.849 336.081C535.003 349.953 537.862 363.748 540.566 377.388C541.718 383.194 545.352 392.271 543.283 398.146C541.711 402.609 535.303 405.212 535.466 409.719L532.527 407.597C530.805 407.68 527.414 407.815 526.025 408.808C524.159 413.397 522.596 421.127 516.088 418.738C515.951 419.304 515.824 419.824 515.769 420.405C516.76 430.47 516.152 441.007 516.158 451.125C516.165 462.62 519.134 476.942 504.7 481.293C497.795 483.374 481.362 482.437 473.313 482.439L213.49 481.42C210.947 481.43 208.564 482.465 206.033 482.493C175.316 482.828 140.291 483.799 109.756 482.404C86.543 481.343 91.4215 453.19 91.43 437.623L91.423 268.351C91.418 251.317 88.8477 238.902 109.718 233.89C108.836 223.475 105.004 207.321 111.358 198.699C119.173 188.093 154.596 187.669 168.514 185.768L298.747 168.685C306.538 167.714 314.388 166.886 322.141 165.662L323.564 168.641C328.618 167.482 337.214 166.447 342.375 166.09Z"/>
	<path fill="#3D405B" transform="scale(1.6 1.6)" d="M138.325 430.147C147.524 429.986 151.253 438.981 133.46 438.205C122.347 437.549 121.471 430.326 138.325 430.147Z"/>
	<path fill="#3D405B" transform="scale(1.6 1.6)" d="M206.458 430.149C208.776 430.243 229.689 427.919 221.951 437.091C218.025 438.392 183.783 437.715 177.266 437.725C172.264 437.64 159.754 440.471 159.218 434.321C158.679 428.145 172.271 430.279 175.653 430.283C185.916 430.295 196.199 430.429 206.458 430.149Z"/>
	<path fill="#3D405B" transform="scale(1.6 1.6)" d="M456.497 325.734C484.584 321.506 495.877 368.341 461.323 374.033C426.529 375.306 426.546 330.343 456.497 325.734Z"/>
	<path fill="white" transform="scale(1.6 1.6)" d="M442.978 356.061C436.888 339.032 456.496 328.942 469.411 336.791C457.535 339.929 448.655 344.135 442.978 356.061Z"/>
	<path fill="#BC6C25" transform="scale(1.6 1.6)" d="M469.411 336.791C489.376 349.678 465.295 375.64 448.741 363.531C446.308 361.752 443.683 359.053 442.978 356.061C448.655 344.135 457.535 339.929 469.411 336.791Z"/>
	<path fill="#3D405B" transform="scale(1.6 1.6)" d="M148.006 326.352C181.335 324.4 185.357 368.407 155.016 374.631C120.334 378.111 116.004 330.767 148.006 326.352Z"/>
	<path fill="white" transform="scale(1.6 1.6)" d="M134.113 356.385C127.007 339.25 150.048 327.761 162.961 338.702L162.631 338.755C146.865 341.184 143.053 340.367 134.113 356.385Z"/>
	<path fill="#F8E012" transform="scale(1.6 1.6)" d="M134.113 356.385C143.053 340.367 146.865 341.184 162.631 338.755L162.961 338.702C182.484 358.234 144.341 382.68 134.113 356.385Z"/>
	<path fill="#3D405B" transform="scale(1.6 1.6)" d="M302.796 285.963C311.557 285.283 308.734 297.944 308.538 303.399C318.126 303.657 332.155 308.41 337.525 316.373C332.179 327.582 325.867 317.604 318.895 314.283C315.59 312.71 312.034 312.051 308.47 311.355C308.244 324.998 308.344 338.623 308.008 352.262C348.753 355.944 351.002 405.741 307.231 411.308C307.578 434.182 300.8 425.935 300.176 424.931C299.568 420.499 299.713 416.045 299.775 411.585C288.795 410.974 269.965 406.006 266.385 393.828C266.813 392.641 267.4 391.547 267.978 390.43C269.021 389.837 270.119 389.338 271.197 388.813C281.225 393.004 279.125 400.723 299.713 402.717L299.736 360.165C292.143 357.773 283.476 354.614 277.411 349.344C258.457 332.878 272.185 305.498 300.073 303.966C299.703 298.73 297.572 289.29 302.796 285.963Z"/>
	<path fill="#F4F1DE" transform="scale(1.6 1.6)" d="M298.64 311.628C299.224 311.531 299.482 311.535 300.03 311.766C300.223 312.209 300.389 342.815 299.988 349.462C296.002 347.491 292.013 345.558 288.323 343.058C272.539 331.413 280.294 315.397 298.64 311.628Z"/>
	<path fill="#F4F1DE" transform="scale(1.6 1.6)" d="M307.546 362.263C323.599 367.875 335.186 380.664 321.535 395.56C317.428 399.737 313.085 400.931 307.467 401.7L307.546 362.263Z"/>
	<path fill="#3D405B" transform="scale(1.6 1.6)" d="M109.718 233.89C108.836 223.475 105.004 207.321 111.358 198.699C119.173 188.093 154.596 187.669 168.514 185.768L298.747 168.685C306.538 167.714 314.388 166.886 322.141 165.662L323.564 168.641C323.544 170.124 322.772 171.407 322.177 172.735C285.721 178.019 248.428 181.662 211.647 186.739L172.45 191.853C162.555 193.185 152.656 194.402 142.733 195.499C133.362 196.536 116.299 195.325 114.706 207.941C114.088 212.84 116.159 228.959 116.903 234.622C125.994 235.203 135.14 234.977 144.246 234.977L358.737 234.964C367.207 234.963 376.072 234.55 384.497 235.496L385.037 238.536C384.388 244.52 377.681 241.847 371.572 241.839L131.216 241.832C122.981 241.825 114 241.111 105.848 242.276C94.9262 243.837 97.8439 257.819 97.8558 265.568L97.8569 444.059C97.8592 456.617 93.4671 475.102 111.568 475.596C121.571 475.869 131.639 475.624 141.652 475.613L418.71 475.604C424.231 475.598 429.798 475.765 435.29 475.124C437.315 472.7 441.794 470.838 444.468 469.054C471.622 450.939 497.276 426.764 508.45 395.393C508.91 386.307 508.643 377.123 508.643 368.023L508.636 272.09C508.639 264.986 509.049 257.733 508.765 250.652C508.239 237.578 486.524 241.816 477.041 241.82L432.128 241.794C427.464 241.797 416.604 244.198 413.959 239.35C416.042 231.943 419.581 234.883 427.501 234.958L491.805 234.946C520.959 234.661 514.944 252.267 514.944 274.587L514.958 370.665C514.952 382.594 513.282 397.212 514.694 408.409C514.855 412.411 515.297 416.429 515.769 420.405C516.76 430.47 516.152 441.007 516.158 451.125C516.165 462.62 519.134 476.942 504.7 481.293C497.795 483.374 481.362 482.437 473.313 482.439L213.49 481.42C210.947 481.43 208.564 482.465 206.033 482.493C175.316 482.828 140.291 483.799 109.756 482.404C86.543 481.343 91.4215 453.19 91.43 437.623L91.423 268.351C91.418 251.317 88.8477 238.902 109.718 233.89Z"/>
	<path fill="#DCD3A6" transform="scale(1.6 1.6)" d="M435.29 475.124C437.315 472.7 441.794 470.838 444.468 469.054C471.622 450.939 497.276 426.764 508.45 395.393C509.019 416.172 507.641 437.704 508.712 458.15C509.473 472.675 508.164 475.339 492.019 475.597C472.878 475.903 454.292 475.332 435.29 475.124Z"/>
	<path fill="#BC6C25" transform="scale(1.6 1.6)" d="M342.375 166.09C342.6 167.158 342.976 170.482 344.296 170.763C345.592 171.039 385.795 165.108 390.665 164.458L466.286 154.958C473.065 154.142 493.741 150.495 499.201 152.145C509.62 155.296 509.247 170.871 511.024 179.558C511.991 184.286 514.481 188.5 514.145 193.432L514.311 193.535L514.823 193.25L514.533 193.63C515.025 192.894 516.505 192.346 517.3 191.922C521.249 192.568 524.878 193.565 528.162 195.917C541.931 226.21 530.869 300.233 533.849 336.081C535.003 349.953 537.862 363.748 540.566 377.388C541.718 383.194 545.352 392.271 543.283 398.146C541.711 402.609 535.303 405.212 535.466 409.719L532.527 407.597C530.805 407.68 527.414 407.815 526.025 408.808C524.159 413.397 522.596 421.127 516.088 418.738C515.951 419.304 515.824 419.824 515.769 420.405C515.297 416.429 514.855 412.411 514.694 408.409C513.282 397.212 514.952 382.594 514.958 370.665L514.944 274.587C514.944 252.267 520.959 234.661 491.805 234.946L427.501 234.958C419.581 234.883 416.042 231.943 413.959 239.35C410.253 238.423 389.894 238.597 385.037 238.536L384.497 235.496C376.072 234.55 367.207 234.963 358.737 234.964L144.246 234.977C135.14 234.977 125.994 235.203 116.903 234.622C116.159 228.959 114.088 212.84 114.706 207.941C116.299 195.325 133.362 196.536 142.733 195.499C152.656 194.402 162.555 193.185 172.45 191.853L211.647 186.739C248.428 181.662 285.721 178.019 322.177 172.735C322.772 171.407 323.544 170.124 323.564 168.641C328.618 167.482 337.214 166.447 342.375 166.09Z"/>
	<path fill="#7F3E54" transform="scale(1.6 1.6)" d="M516.906 408.41C519.659 408.273 523.509 407.52 526.025 408.808C524.159 413.397 522.596 421.127 516.088 418.738C516.756 415.338 516.084 411.874 516.906 408.41Z"/>
</svg>
