<?xml version="1.0" encoding="utf-8" ?>
<svg xmlns="http://www.w3.org/2000/svg" xmlns:xlink="http://www.w3.org/1999/xlink" width="1024" height="1024">
	<path fill="#F4F1DE" transform="matrix(1.6 -0.000990015 0.000990015 1.6 0 0.633301)" d="M313.412 80.5028C387.738 75.4964 466.204 116.193 510.971 174.5C584.136 269.794 573.235 406.663 488.666 491.493C447.261 533.027 384.116 559.677 325.879 559.716C262.479 561.476 208.279 540.73 159.825 498.939C99.984 447.328 70.7766 360.858 83.2721 283.076C100.023 178.802 181.269 99.2318 285.624 82.9328C294.808 81.4982 304.151 81.1659 313.412 80.5028Z"/>
	<path fill="#3D405B" transform="matrix(1.6 -0.000990015 0.000990015 1.6 0 0.633301)" d="M428 181.859C442.405 182.452 420.793 200.009 419.438 201.371C424.859 201.222 466.56 200.597 468.392 201.573C470.142 202.506 470.541 204.531 471.085 206.271C468.839 212.854 462.968 210.265 456.355 210.254L429.645 210.142C426.267 210.226 422.943 210.142 419.569 209.972C424.328 215.074 430.39 219.835 433.894 225.919C432.598 228.062 431.105 230.491 428.194 229.855C424.629 229.077 404.626 210.256 406.701 203.99C408.437 198.745 422.99 184.512 428 181.859Z"/>
	<path fill="#3D405B" transform="matrix(1.6 -0.000990015 0.000990015 1.6 0 0.633301)" d="M224.171 276.215C262.122 310.108 280.228 315.367 317.283 281.782C325.986 273.894 324.835 276.515 334.78 279.89C349.978 285.048 365.591 288.529 378.406 298.933C377.766 300.986 377.473 303.193 377.087 305.308C376.207 311.129 368.656 303.154 366.676 301.677C352.029 290.751 338.95 292.406 325.492 286.47C292.847 315.082 271.043 323.355 232.312 294.911C216.564 296.119 201.07 300.255 187.621 308.85C182.448 312.157 174.068 321.779 172.927 321.186C171.931 325.976 173.417 345.716 171.889 347.567L168.892 348.317C157.444 348.976 162.516 327.32 164.319 320.079C171.569 290.968 198.851 283.808 224.171 276.215Z"/>
	<path fill="#ECABA2" transform="matrix(1.6 -0.000990015 0.000990015 1.6 0 0.633301)" d="M223.427 285.79C226.474 288.719 229.314 291.918 232.312 294.911C216.564 296.119 201.07 300.255 187.621 308.85C182.448 312.157 174.068 321.779 172.927 321.186C179.098 297.139 202.613 292.257 223.427 285.79Z"/>
	<path fill="#3D405B" transform="matrix(1.6 -0.000990015 0.000990015 1.6 0 0.633301)" d="M380.264 320.407C384.986 320.043 389.844 320.93 394.582 321.007C410.235 321.259 441.068 316.645 433.023 344.687C448.242 343.78 462.074 343.688 474.162 354.403C480.145 359.705 495.191 377.608 483.626 384.145C479.671 382.242 479.161 378.505 477.549 374.724C466.859 349.652 448.706 353.259 425.583 353.397L333.268 353.41C326.234 353.406 299.299 352.513 294.025 354.34C284.42 357.667 288.005 387.439 288.005 396.532L288.011 446.241C288.012 456.142 288.171 466.072 287.875 475.967C299.371 476.628 311.038 476.229 322.56 476.229L423.598 476.234C433.465 476.236 444.893 476.671 454.661 475.043C477.161 471.295 476.358 448.542 485.03 448.751C486.949 450.962 487.788 452.945 488.681 455.708C476.888 484.656 459.29 485.66 433.056 485.659L346.459 485.656C326.375 485.654 308.897 485.693 288.919 484.119C286.121 489.61 283.586 489.484 279.238 485.772C270.405 483.884 260.69 483.945 251.693 482.958C232.757 480.879 167.654 473.832 162.635 449.075C161.781 444.865 162.187 440.105 162.186 435.806L162.188 391.006C162.172 386.389 161.906 381.748 162.254 377.142C163.72 375.036 165.605 373.247 168.351 373.728C169.038 375.01 170.659 376.224 171.524 377.55C171.678 382.1 171.212 386.734 171.182 391.299L171.15 426.922C171.154 434.727 169.222 446.621 174.892 452.979C189.618 469.491 252.84 474.099 279.171 475.99C279.738 450.465 279.797 425.553 279.785 399.998L279.763 376.979C279.759 368.504 278.325 357.309 284.481 350.488C293.155 340.878 315.021 344.44 327.512 343.776C327.395 338.701 326.842 332.937 329.654 328.438C337.857 315.313 368.205 323.647 380.264 320.407Z"/>
	<path fill="#FEE55E" transform="matrix(1.6 -0.000990015 0.000990015 1.6 0 0.633301)" d="M392.871 329.509C399.044 328.726 419.277 327.511 423.96 332.874C424.54 336.447 424.269 339.763 423.932 343.339C405.496 343.661 387.035 343.251 368.594 343.462C358.95 343.256 345.589 344.43 336.374 343.008C336.05 338.97 336.377 335.96 338.706 332.533C344.505 329.217 380.825 330.168 392.871 329.509Z"/>
	<path fill="#3D405B" transform="matrix(1.6 -0.000990015 0.000990015 1.6 0 0.633301)" d="M273.229 142.941C300.342 139.25 333.634 158.992 338.658 186.471C340.187 194.828 340.809 220.655 331.229 225.12L330.885 225.277L330.907 225.687L330.567 225.437C324.188 252.912 306.722 278.067 276.473 280.286C262.837 280.448 252.695 277.73 241.939 268.941C223.056 253.511 197.03 193.143 215.525 170.675C221.693 163.183 226.833 163.599 234.412 159.568C250.532 150.995 249.381 145.209 273.229 142.941Z"/>
	<path fill="#E07A5F" transform="matrix(1.6 -0.000990015 0.000990015 1.6 0 0.633301)" d="M217.489 192.311C216.868 170.508 230.108 172.66 241.444 166.601C246.09 164.117 248.64 158.95 253.336 156.528C270.591 147.627 302.094 151.65 316.02 165.765C322.785 171.147 328.389 180.391 330.132 188.851C332.408 194.641 330.814 201.925 329.937 207.835C329.189 198.271 326.754 197.3 324.854 190.619C319.625 183.427 308.582 170.581 299.23 169.178C295.715 168.651 290.585 172.678 294.266 175.914C306.895 187.022 320.076 190.501 322.02 212.173C325.467 250.597 282.221 291.308 247.43 261.655C231.165 247.792 217.563 213.599 217.489 192.311Z"/>
	<path fill="#ECABA2" transform="matrix(1.6 -0.000990015 0.000990015 1.6 0 0.633301)" d="M217.489 192.311C216.868 170.508 230.108 172.66 241.444 166.601C246.09 164.117 248.64 158.95 253.336 156.528C270.591 147.627 302.094 151.65 316.02 165.765L315.871 166.308C304.509 156.005 291.485 151.797 276.254 152.579C240.817 154.4 258.721 166.329 247.914 168.756C244.543 169.513 246.99 165.299 236.783 168.837C231.313 170.733 216.003 175.661 222.898 183.518C222.121 188.735 228.289 182.987 230.13 181.647C234.44 178.508 239.835 176.95 244.368 174.218C251.975 169.634 255.364 166.366 264.635 163.586C275.353 160.372 300.033 161.656 310.829 165.839L310.827 166L310.525 165.894L310.279 166.518L310.197 165.929C275.557 160.732 272.791 157.36 242.992 175.364C231.372 182.385 228.094 182.837 217.489 192.311Z"/>
	<path fill="#E07A5F" transform="matrix(1.6 -0.000990015 0.000990015 1.6 0 0.633301)" d="M325.492 286.47C338.95 292.406 352.029 290.751 366.676 301.677C368.656 303.154 376.207 311.129 377.087 305.308C377.115 307.982 379.419 316.87 380.264 320.407C368.205 323.647 337.857 315.313 329.654 328.438C326.842 332.937 327.395 338.701 327.512 343.776C315.021 344.44 293.155 340.878 284.481 350.488C278.325 357.309 279.759 368.504 279.763 376.979L279.785 399.998C279.797 425.553 279.738 450.465 279.171 475.99C252.84 474.099 189.618 469.491 174.892 452.979C169.222 446.621 171.154 434.727 171.15 426.922L171.182 391.299C171.212 386.734 171.678 382.1 171.524 377.55C170.659 376.224 169.038 375.01 168.351 373.728C168.735 373.079 168.692 372.43 168.712 371.701C168.825 368.673 168.879 365.679 168.785 362.648C167.998 361.368 166.954 360.208 166.013 359.038C163.055 355.544 165.83 353.946 168.99 352.349L169.497 351.999C169.602 351.962 169.709 351.926 169.814 351.887L170.333 351.691C172.538 350.872 174.025 349.537 171.889 347.567C173.417 345.716 171.931 325.976 172.927 321.186C174.068 321.779 182.448 312.157 187.621 308.85C201.07 300.255 216.564 296.119 232.312 294.911C271.043 323.355 292.847 315.082 325.492 286.47Z"/>
	<path fill="#ECABA2" transform="matrix(1.6 -0.000990015 0.000990015 1.6 0 0.633301)" d="M168.785 362.648C171.657 365.841 172.65 368.885 168.712 371.701C168.825 368.673 168.879 365.679 168.785 362.648Z"/>
	<path fill="#E07A5F" transform="matrix(1.6 -0.000990015 0.000990015 1.6 0 0.633301)" d="M287.875 475.967C288.171 466.072 288.012 456.142 288.011 446.241L288.005 396.532C288.005 387.439 284.42 357.667 294.025 354.34C299.299 352.513 326.234 353.406 333.268 353.41L425.583 353.397C448.706 353.259 466.859 349.652 477.549 374.724C479.161 378.505 479.671 382.242 483.626 384.145C485.698 392.348 483.699 401.431 485.031 409.726C490.975 411.943 490.778 420.431 485.008 422.932C484.67 427.993 483.956 444.573 485.03 448.751C476.358 448.542 477.161 471.295 454.661 475.043C444.893 476.671 433.465 476.236 423.598 476.234L322.56 476.229C311.038 476.229 299.371 476.628 287.875 475.967Z"/>
	<path fill="#3D405B" transform="matrix(1.6 -0.000990015 0.000990015 1.6 0 0.633301)" d="M485.031 409.726C490.975 411.943 490.778 420.431 485.008 422.932C475.48 421.894 474.9 409.541 485.031 409.726Z"/>
	<path fill="#3D405B" transform="matrix(1.6 -0.000990015 0.000990015 1.6 0 0.633301)" d="M377.527 381.612C384.704 380.782 383.193 388.255 383.378 393.304C388.335 394.035 400.819 395.952 396.441 403.977C394.069 408.323 373.231 397.116 368.925 405.514C369.01 410.922 389.105 414.436 394.484 420.443C400.558 427.228 395.743 437.982 388.331 441.415C378.814 445.825 388.014 444.936 380.298 449.42C369.172 453.209 374.839 447.152 372.735 443.978C370.805 441.065 363.947 442.905 361.356 438.009C360.19 435.806 361.49 432.09 363.719 431.024C368.94 428.528 374.159 432.751 378.834 434.452L379.248 434.599C401.605 427.452 363.142 421.976 359.907 409.132C357.247 398.569 366.173 394.2 374.932 392.357C373.939 387.736 372.8 384.272 377.527 381.612Z"/>
</svg>
