<?xml version="1.0" encoding="utf-8" ?>
<svg xmlns="http://www.w3.org/2000/svg" xmlns:xlink="http://www.w3.org/1999/xlink" width="1023" height="1023">
	<path fill="#F4F1DE" transform="scale(1.6 1.6)" d="M140.215 194.202C125.67 176.655 124.054 161.974 141.774 147.342C175.792 119.253 205.79 102.11 247.776 90.0681C328.174 67.009 415.514 82.3651 481.934 133.937C490.624 140.685 500.741 148.154 507.688 156.657C516.335 167.24 512.683 177.465 516.882 189.233C519.055 195.32 523.41 200.055 525.864 205.895C527.395 207.111 527.25 207.686 525.616 208.736L522.435 207.304C518.317 205.824 508.52 203.858 504.814 206.033C498.79 196.535 480.361 193.091 470.402 189.335C462.285 186.274 453.661 181.28 445.098 180.006C443.727 180.819 442.696 181.585 441.605 182.761C436.914 183.123 430.211 180.003 425.398 178.849C428.621 170.772 416.19 168.735 410.804 166.673L389.741 158.571C369.131 150.663 348.46 142.145 327.495 135.273C318.311 132.262 311.148 135.915 302.502 139.087L174.137 186.929C164.142 190.567 154.006 193.829 144.119 197.753L142.792 198.382C141.862 197.021 140.924 195.696 140.215 194.202ZM140.215 194.202C140.924 195.696 141.862 197.021 142.792 198.382L144.119 197.753C144.985 194.768 142.565 195.01 140.215 194.202Z"/>
	<path fill="#ABAAB0" transform="scale(1.6 1.6)" d="M525.864 205.895C527.395 207.111 527.25 207.686 525.616 208.736L522.435 207.304L522.775 206.273C523.553 205.704 524.915 205.891 525.864 205.895Z"/>
	<path fill="#F4F1DE" transform="scale(1.6 1.6)" d="M144.119 197.753C154.006 193.829 164.142 190.567 174.137 186.929L302.502 139.087C311.148 135.915 318.311 132.262 327.495 135.273C348.46 142.145 369.131 150.663 389.741 158.571L410.804 166.673C416.19 168.735 428.621 170.772 425.398 178.849C430.211 180.003 436.914 183.123 441.605 182.761C442.696 181.585 443.727 180.819 445.098 180.006C453.661 181.28 462.285 186.274 470.402 189.335C480.361 193.091 498.79 196.535 504.814 206.033C508.52 203.858 518.317 205.824 522.435 207.304L525.616 208.736L536.231 213.214C559.009 222.797 562.211 236.336 538.609 249.458C541.646 251.598 556.977 275.417 556.696 276.341C555.232 281.155 561.219 299.449 562.374 305.609C565.131 320.31 565.007 335.257 564.095 350.131C557.371 459.805 457.98 545.853 352.313 558.404C258.116 569.592 159.596 528.985 111.289 444.852C87.6253 403.64 73.0778 336.226 85.5379 291.236C88.0444 282.186 100.98 254.296 110.448 250.649C103.012 247.972 92.8335 245.017 89.279 237.189C81.397 219.832 104.91 213.113 116.135 208.852C125.058 205.465 133.963 202.004 142.792 198.382L144.119 197.753Z"/>
	<path fill="#3D405B" transform="scale(1.6 1.6)" d="M178.298 342.652L178.114 342.665C175.686 342.86 173.049 342.721 172.508 339.807C171.404 333.862 171.549 308.113 171.989 300.519C172.173 297.356 173.514 296.234 176.615 295.669C178.323 296.32 180.421 297.163 181.152 299.001C181.797 300.62 181.673 337.222 181.052 340.603C180.169 341.393 179.382 342.152 178.298 342.652Z"/>
	<path fill="#3D405B" transform="scale(1.6 1.6)" d="M176.988 355.406C178.39 356.131 180.521 357.141 181.106 358.744C181.927 360.992 181.512 431.741 181.266 439.883C186.985 445.144 194.6 447.745 201.91 449.973C263.511 467.099 393.377 467.836 452.883 447.204C457.829 445.489 462.635 443.388 467.558 441.602C468.623 443.439 470.096 447.28 468.92 449.21C462.325 460.04 396.276 467.818 384.049 468.923C333.735 473.468 218.433 474.178 181.314 451.321C170.257 444.513 172.149 438.911 172.14 427.513L172.117 371.505C172.09 365.962 169.387 356.69 176.988 355.406Z"/>
	<path fill="#BC6C25" transform="scale(1.6 1.6)" d="M475.029 272.622C475.341 282.582 475.185 292.579 475.185 302.544L475.19 398.768C475.189 404.027 476.157 434.334 473.34 437.769C471.993 439.411 469.287 440.342 467.558 441.602C462.635 443.388 457.829 445.489 452.883 447.204C393.377 467.836 263.511 467.099 201.91 449.973C194.6 447.745 186.985 445.144 181.266 439.883C181.512 431.741 181.927 360.992 181.106 358.744C180.521 357.141 178.39 356.131 176.988 355.406C178.022 351.7 178.641 346.47 178.298 342.652C179.382 342.152 180.169 341.393 181.052 340.603C181.673 337.222 181.797 300.62 181.152 299.001C180.421 297.163 178.323 296.32 176.615 295.669C178.352 290.802 173.054 281.171 175.296 275.072L191.191 281.25C194.511 282.527 198.161 283.698 201.275 285.408C213.235 289.093 224.913 294.216 236.582 298.727L283.316 316.461C293.036 320.227 316.44 331.019 325.825 328.504C339.465 324.85 352.884 319.276 366.061 314.234L455.137 280.382C461.221 278.153 469.679 275.877 475.029 272.622Z"/>
	<path fill="white" transform="scale(1.6 1.6)" d="M175.296 275.072L191.191 281.25C194.511 282.527 198.161 283.698 201.275 285.408C200.893 302.492 201.286 319.683 201.287 336.778L201.295 432.152C201.305 436.242 203.122 446.846 201.91 449.973C194.6 447.745 186.985 445.144 181.266 439.883C181.512 431.741 181.927 360.992 181.106 358.744C180.521 357.141 178.39 356.131 176.988 355.406C178.022 351.7 178.641 346.47 178.298 342.652C179.382 342.152 180.169 341.393 181.052 340.603C181.673 337.222 181.797 300.62 181.152 299.001C180.421 297.163 178.323 296.32 176.615 295.669C178.352 290.802 173.054 281.171 175.296 275.072Z"/>
	<path fill="#BC6C25" transform="scale(1.6 1.6)" d="M144.119 197.753C154.006 193.829 164.142 190.567 174.137 186.929L302.502 139.087C311.148 135.915 318.311 132.262 327.495 135.273C348.46 142.145 369.131 150.663 389.741 158.571L410.804 166.673C416.19 168.735 428.621 170.772 425.398 178.849C430.211 180.003 436.914 183.123 441.605 182.761C442.696 181.585 443.727 180.819 445.098 180.006C453.661 181.28 462.285 186.274 470.402 189.335C480.361 193.091 498.79 196.535 504.814 206.033C508.52 203.858 518.317 205.824 522.435 207.304L525.616 208.736L536.231 213.214C559.009 222.797 562.211 236.336 538.609 249.458C532.074 252.704 525.484 254.274 518.647 256.577C523.123 276.133 540.839 297.235 522.728 315.476C537.138 327.299 537.666 340.048 541.724 356.748C542.708 360.799 546.699 367.825 545.024 371.966C534.411 383.103 498.02 387.587 490.506 373.111L490.301 372.726C490.939 370.355 491.497 369.072 493.295 367.297C495.956 346.532 492.99 329.781 510.503 314.436C495.274 288.122 507.538 281.813 509.128 260.117C503.842 261.907 477.933 270.194 475.029 272.622C469.679 275.877 461.221 278.153 455.137 280.382L366.061 314.234C352.884 319.276 339.465 324.85 325.825 328.504C316.44 331.019 293.036 320.227 283.316 316.461L236.582 298.727C224.913 294.216 213.235 289.093 201.275 285.408C198.161 283.698 194.511 282.527 191.191 281.25L175.296 275.072C171.18 273.367 166.876 272.003 162.679 270.503L140.986 262.588C130.74 258.76 120.787 254.236 110.448 250.649C103.012 247.972 92.8335 245.017 89.279 237.189C81.397 219.832 104.91 213.113 116.135 208.852C125.058 205.465 133.963 202.004 142.792 198.382L144.119 197.753Z"/>
	<path fill="#3D405B" transform="scale(1.6 1.6)" d="M323.594 207.941C334.306 206.755 349.974 209.503 358.173 216.899C364.635 222.729 365.244 231.305 359.142 237.576C351.351 245.584 337.912 247.379 327.304 247.592C316.452 247.576 302.63 246.287 293.635 239.626C286.962 234.685 284.465 226.469 290.013 219.579C296.975 210.932 313.27 208.875 323.594 207.941Z"/>
	<path fill="white" transform="scale(1.6 1.6)" d="M295.103 228.118C300.017 221.714 307.555 220.229 315.031 218.617C316.404 225.144 315.649 232.306 314.815 238.879C307.584 238.112 298.278 235.287 295.103 228.118Z"/>
	<path fill="#00F7FD" transform="scale(1.6 1.6)" d="M315.031 218.617C321.345 217.635 363.793 216.512 352.578 230.774C346.241 238.832 324.744 240.335 314.815 238.879C315.649 232.306 316.404 225.144 315.031 218.617Z"/>
	<path fill="#3D405B" transform="scale(1.6 1.6)" d="M144.119 197.753C154.006 193.829 164.142 190.567 174.137 186.929L302.502 139.087C311.148 135.915 318.311 132.262 327.495 135.273C348.46 142.145 369.131 150.663 389.741 158.571L410.804 166.673C416.19 168.735 428.621 170.772 425.398 178.849L425.209 179.185C422.331 184.201 400.419 172.266 394.597 169.995L349.245 152.711C342.756 150.202 327.203 143.492 321.194 143.053C315.09 142.608 282.577 156.265 275.105 159.087L145.335 207.069C136.709 210.271 102.811 222.076 97.5822 228.217C89.9619 237.166 112.243 242.234 118.111 244.525C134.452 250.907 150.962 256.775 167.388 262.926L274.825 303.517C281.229 305.909 287.693 308.21 294.024 310.783C326.219 323.866 316.489 322.301 349.991 310.009C360.769 306.054 371.698 302.512 382.431 298.436L478.295 261.038C490.592 256.38 503.077 252.086 515.448 247.613C525.216 244.081 540.809 241.287 546.298 231.325C539.913 218.234 509.005 217.528 504.543 206.392C502.96 205.497 499.349 208.004 497.81 208.707C490.509 206.586 443.348 189.099 441.224 185.66C441.034 184.627 441.341 183.751 441.605 182.761C442.696 181.585 443.727 180.819 445.098 180.006C453.661 181.28 462.285 186.274 470.402 189.335C480.361 193.091 498.79 196.535 504.814 206.033C508.52 203.858 518.317 205.824 522.435 207.304L525.616 208.736L536.231 213.214C559.009 222.797 562.211 236.336 538.609 249.458C532.074 252.704 525.484 254.274 518.647 256.577C523.123 276.133 540.839 297.235 522.728 315.476C537.138 327.299 537.666 340.048 541.724 356.748C542.708 360.799 546.699 367.825 545.024 371.966C534.411 383.103 498.02 387.587 490.506 373.111L490.301 372.726C490.939 370.355 491.497 369.072 493.295 367.297C495.956 346.532 492.99 329.781 510.503 314.436C495.274 288.122 507.538 281.813 509.128 260.117C503.842 261.907 477.933 270.194 475.029 272.622C469.679 275.877 461.221 278.153 455.137 280.382L366.061 314.234C352.884 319.276 339.465 324.85 325.825 328.504C316.44 331.019 293.036 320.227 283.316 316.461L236.582 298.727C224.913 294.216 213.235 289.093 201.275 285.408C198.161 283.698 194.511 282.527 191.191 281.25L175.296 275.072C171.18 273.367 166.876 272.003 162.679 270.503L140.986 262.588C130.74 258.76 120.787 254.236 110.448 250.649C103.012 247.972 92.8335 245.017 89.279 237.189C81.397 219.832 104.91 213.113 116.135 208.852C125.058 205.465 133.963 202.004 142.792 198.382L144.119 197.753Z"/>
	<path fill="#FEA605" transform="scale(1.6 1.6)" d="M515.139 275.234C520.327 280.281 521.282 299.049 517.322 306.14L516.988 306.488C510.933 303.604 513.352 280.989 515.139 275.234Z"/>
	<defs>
		<linearGradient id="gradient_0" gradientUnits="userSpaceOnUse" x1="519.95129" y1="357.24301" x2="501.66986" y2="337.4614">
			<stop offset="0" stop-color="#FFF5DD"/>
			<stop offset="1" stop-color="white"/>
		</linearGradient>
	</defs>
	<path fill="url(#gradient_0)" transform="scale(1.6 1.6)" d="M502.397 370.058L502.633 369.502C507.821 357.572 500.572 333.182 514.14 325.757C518.435 323.407 523.083 330.639 524.405 333.818C520.856 333.375 515.687 332.705 512.755 335.193C510.271 337.301 508.929 363.375 508.805 370.429L502.397 370.058Z"/>
	<path fill="#FE1400" transform="scale(1.6 1.6)" d="M508.805 370.429C508.929 363.375 510.271 337.301 512.755 335.193C515.687 332.705 520.856 333.375 524.405 333.818C527.952 343.99 528.963 356.874 532.561 368.284C526.697 369.386 514.505 371.813 508.805 370.429Z"/>
</svg>
