<?xml version="1.0" encoding="utf-8" ?>
<svg xmlns="http://www.w3.org/2000/svg" xmlns:xlink="http://www.w3.org/1999/xlink" width="1024" height="1024">
	<path fill="#BC6C25" transform="scale(1.6 1.6)" d="M456.922 132.531C461.233 132.26 465.468 135.739 461.572 139.838C456.679 141.129 453.648 136.692 456.922 132.531Z"/>
	<path fill="#3D405B" transform="scale(1.6 1.6)" d="M113.057 452.816C120.257 452.049 120.31 460.045 122.129 465.001C126.178 476.034 138.343 473.554 142.185 483.742C139.938 489.197 134.283 487.348 130.042 489.971C116.201 498.532 121.567 508.237 115.962 513.618C106.751 518.872 107.129 504.488 104.629 499.476C99.0674 488.328 89.5349 489.172 88.0835 485.706C84.3806 476.863 99.6365 474.164 104.453 468.054C108.685 462.687 105.605 456.124 113.057 452.816Z"/>
	<path fill="#F6EC3F" transform="scale(1.6 1.6)" d="M114.199 470.544C117.738 475.096 116.685 476.47 122.28 481.314C120.291 483.176 114 490.556 113.162 491.151C110.805 487.306 107.823 484.729 104.055 482.316C109.249 479.63 111.965 475.807 114.199 470.544Z"/>
	<path fill="#3D405B" transform="scale(1.6 1.6)" d="M519.016 101.543C529.007 100.537 526.194 112.084 528.135 118.483C535.004 141.132 564.407 141.749 560.17 151.369C558.071 156.134 530.066 157.277 526.345 180.357C525.382 186.33 527.454 190.606 520.78 193.445C509.272 195.1 521.065 165.414 491.279 156.581C487.593 155.488 483.772 155.221 480.37 153.274C475.698 144.974 484.244 144.71 489.876 142.451C521.251 129.87 511.712 106.32 519.016 101.543Z"/>
	<path fill="#F6EC3F" transform="scale(1.6 1.6)" d="M521.459 129.766C528.543 136.304 528.642 141.482 540.62 147.051C531.967 152.774 525.94 157.963 520.167 166.645L519.845 166.653C515.273 158.019 508.44 152.475 499.709 148.397C509.074 144.747 515.527 137.567 521.459 129.766Z"/>
	<path fill="#BC6C25" transform="scale(1.6 1.6)" d="M232.094 529.945C225.12 527.426 218.569 523.276 211.983 519.858C177.599 502.012 146.671 476.441 125.889 443.445C85.2711 378.957 82.5132 289.883 114.178 221.534C120.276 208.371 128.083 192.8 135.679 180.681C168.418 128.449 227.557 100.18 287.517 93.9579C320.532 90.5318 360.717 92.164 391.646 103.41C399.501 106.266 435.55 121.38 438.447 127.125C439.703 129.616 439.657 133.132 439.808 135.872C445.813 144.515 455.148 150.817 462.057 158.823C470.262 168.329 476.856 178.962 484.59 188.812C494.314 201.194 506.391 213.007 518.603 222.998C536.856 237.932 536.422 233.397 542.23 258.584C566.956 365.815 522.853 476.014 422.13 523.214C410.966 528.446 409.108 525.528 401.981 527.964C404.207 524.619 407.194 521.91 409.241 518.362C418.409 502.47 435.27 458.325 435.322 438.754C433.716 436.21 431.983 434.952 429.495 433.38C430.205 431.634 430.711 416.367 431.413 412.741C440.153 408.703 437.011 395.237 436.999 387.197C436.943 351.332 437.601 327.805 455.565 294.618C460.906 284.75 466.768 274.91 470.117 264.136C468.298 262.908 466.543 261.416 464.351 260.995C467.305 257.131 468.579 249.597 470.977 244.952C467.191 240.451 472.212 221.247 471.2 212.418C470.359 205.082 468.103 202.241 473.228 195.555C474.297 192.834 470.084 187.374 468.776 185.012C458.066 165.667 446.204 153.947 427.323 143.451C426.715 144.501 426.104 145.527 425.417 146.528C423.677 147.917 401.7 145.023 397.007 145.26C392.888 145.469 388.835 146.379 384.695 146.289C382.916 144.786 382.004 143.52 381.13 141.359C376.339 138.851 363.206 144.26 357.833 145.603C342.739 143.266 326.151 157.174 313.362 163.861C286.491 145.941 252.495 130.191 219.46 136.784C177.032 145.253 153.318 180.24 156.201 222.436C157.826 246.217 165.006 268.119 176.264 289.149C181.257 298.476 186.842 307.564 190.794 317.404C194.962 327.781 195.393 338.616 198.226 349.25L201.562 351.412C201.675 357.106 203.11 364.755 202.344 370.162C194.033 373.138 197.376 380.106 197.538 387.462C198.41 426.965 206.296 482.354 228.627 516.484C230.42 519.225 232.587 521.719 234.413 524.446C233.416 526.447 232.545 527.57 232.094 529.945Z"/>
	<path fill="#3D405B" transform="scale(1.6 1.6)" d="M473.228 195.555C483.715 199.533 481.012 240.027 479.217 243.497C478 245.851 473.045 245.381 470.977 244.952C467.191 240.451 472.212 221.247 471.2 212.418C470.359 205.082 468.103 202.241 473.228 195.555Z"/>
	<path fill="#3D405B" transform="scale(1.6 1.6)" d="M381.13 141.359C381.311 139.749 381.269 137.987 382.514 136.792C383.727 135.628 425.256 129.024 427.323 143.451C426.715 144.501 426.104 145.527 425.417 146.528C423.677 147.917 401.7 145.023 397.007 145.26C392.888 145.469 388.835 146.379 384.695 146.289C382.916 144.786 382.004 143.52 381.13 141.359Z"/>
	<path fill="#F4F1DE" transform="scale(1.6 1.6)" d="M198.226 349.25C195.393 338.616 194.962 327.781 190.794 317.404C186.842 307.564 181.257 298.476 176.264 289.149C165.006 268.119 157.826 246.217 156.201 222.436C153.318 180.24 177.032 145.253 219.46 136.784C252.495 130.191 286.491 145.941 313.362 163.861C326.151 157.174 342.739 143.266 357.833 145.603C363.206 144.26 376.339 138.851 381.13 141.359C382.004 143.52 382.916 144.786 384.695 146.289C388.835 146.379 392.888 145.469 397.007 145.26C401.7 145.023 423.677 147.917 425.417 146.528C426.104 145.527 426.715 144.501 427.323 143.451C446.204 153.947 458.066 165.667 468.776 185.012C470.084 187.374 474.297 192.834 473.228 195.555C468.103 202.241 470.359 205.082 471.2 212.418C472.212 221.247 467.191 240.451 470.977 244.952C468.579 249.597 467.305 257.131 464.351 260.995C466.543 261.416 468.298 262.908 470.117 264.136C466.768 274.91 460.906 284.75 455.565 294.618C437.601 327.805 436.943 351.332 436.999 387.197C437.011 395.237 440.153 408.703 431.413 412.741C430.711 416.367 430.205 431.634 429.495 433.38C431.983 434.952 433.716 436.21 435.322 438.754C435.27 458.325 418.409 502.47 409.241 518.362C407.194 521.91 404.207 524.619 401.981 527.964C392.638 535.72 380.642 539.72 369.034 534.792C367.951 541.304 361.799 540.353 355.569 541.408C338.908 544.228 282.351 545.83 267.593 535.87C254.539 539.808 243.467 534.121 234.413 524.446C232.587 521.719 230.42 519.225 228.627 516.484C206.296 482.354 198.41 426.965 197.538 387.462C197.376 380.106 194.033 373.138 202.344 370.162C203.11 364.755 201.675 357.106 201.562 351.412L198.226 349.25Z"/>
	<path fill="white" transform="scale(1.6 1.6)" d="M427.323 143.451C446.204 153.947 458.066 165.667 468.776 185.012C470.084 187.374 474.297 192.834 473.228 195.555C468.103 202.241 470.359 205.082 471.2 212.418C472.212 221.247 467.191 240.451 470.977 244.952C468.579 249.597 467.305 257.131 464.351 260.995L464.063 261.001C462.432 261.017 461.427 260.102 460.268 261.529C459.537 259.928 458.274 258.784 457.053 257.556C457.017 251.939 460.253 228.905 461.682 222.043C462.669 220.916 463.502 219.478 463.028 217.95L462.636 217.772C461.967 218.142 461.355 218.478 460.598 218.615C469.012 210.758 459.11 208.646 453.991 205.196C445.86 199.714 437.915 190.159 435.212 180.808C433.822 175.997 433.67 169.101 427.597 168.319L428.66 168.019C428.945 165.134 424.988 165.287 430.147 163.75C435.339 168.184 435.657 177.767 438.659 183.055C440.079 185.559 443.778 188.101 444.124 191.013C444.329 192.738 460.547 205.242 463.132 206.303C467.904 208.26 465.292 203.261 465.736 201.13C466.01 199.815 468.416 197.426 468.975 195.696C469.653 193.596 468.146 192.303 468.404 190.408L469.099 190.17C469.513 187.707 462.078 178.891 460.485 176.437L460.467 175.821C459.776 175.21 459.157 174.537 458.526 173.865L458.707 173.624C458.705 172.257 454.704 172.024 453.643 171.534C446.405 168.197 448.176 160.028 445.611 156.783C444.362 155.204 437.664 149.463 435.813 149.26C434.76 149.995 437.048 150.467 434.309 150.792L433.765 150.854C431.923 151.076 429.68 149.518 428.387 149.878C425.966 154.341 427.673 159.106 426.767 162.227C425.384 159.343 427.383 151.935 426.867 148.466C426.012 147.82 425.606 147.597 425.417 146.528C426.104 145.527 426.715 144.501 427.323 143.451Z"/>
	<path fill="#3D405B" transform="scale(1.6 1.6)" d="M460.268 261.529C461.427 260.102 462.432 261.017 464.063 261.001L464.351 260.995C466.543 261.416 468.298 262.908 470.117 264.136C466.768 274.91 460.906 284.75 455.565 294.618C437.601 327.805 436.943 351.332 436.999 387.197C437.011 395.237 440.153 408.703 431.413 412.741C423.749 408.143 426.297 401.482 426.619 393.917C427.988 361.709 425.482 337.811 438.637 306.174C443.191 295.222 454.321 271.191 460.268 261.529Z"/>
	<path fill="#3D405B" transform="scale(1.6 1.6)" d="M427.597 168.319C433.67 169.101 433.822 175.997 435.212 180.808C437.915 190.159 445.86 199.714 453.991 205.196C459.11 208.646 469.012 210.758 460.598 218.615C450.414 220.775 435.865 232.737 433.663 243.1C432.892 246.726 433.153 258.639 424.807 255.065C418.525 252.375 423.471 231.651 402.118 222.96C398.54 221.504 392.445 221.261 390.878 217.053C387.932 209.14 416.775 201.328 420.978 180.292C421.989 175.232 421.873 170.043 427.597 168.319Z"/>
	<path fill="#F6EC3F" transform="scale(1.6 1.6)" d="M428.057 192.707C435.635 201.709 435.905 203.905 446.89 212.172C438.927 219.04 432.149 222.147 426.705 232.444C422.786 223.93 415.718 217.867 407.631 213.494C415.91 208.941 424.138 201.429 428.057 192.707Z"/>
	<path fill="#3D405B" transform="scale(1.6 1.6)" d="M198.226 349.25C195.393 338.616 194.962 327.781 190.794 317.404C186.842 307.564 181.257 298.476 176.264 289.149C165.006 268.119 157.826 246.217 156.201 222.436C153.318 180.24 177.032 145.253 219.46 136.784C252.495 130.191 286.491 145.941 313.362 163.861C326.151 157.174 342.739 143.266 357.833 145.603C365.488 153.588 348.348 156.826 345.493 158.095C337.666 161.575 330.237 165.929 322.996 170.485C326.68 172.469 337.219 177.103 338.431 181.018C342.441 193.977 313.326 178.118 312.324 177.794C305.816 181.412 277.467 196.191 271.663 185.826C268.161 179.574 276.617 178.608 280.463 178.359C291.007 177.676 294.954 176.53 303.73 170.503C263.408 142.048 208.337 130.838 176.341 176.731C158.158 202.811 166.301 243.411 178.332 270.996C189.241 296.009 203.927 308.437 206.241 339.081C206.674 344.811 208.266 349.706 201.562 351.412L198.226 349.25Z"/>
	<path fill="#3D405B" transform="scale(1.6 1.6)" d="M234.413 524.446C232.587 521.719 230.42 519.225 228.627 516.484C206.296 482.354 198.41 426.965 197.538 387.462C197.376 380.106 194.033 373.138 202.344 370.162L202.742 370.388C208.225 373.546 206.724 380.553 206.998 386.035C208.826 422.674 218.08 503.924 251.158 525.098C275.907 540.94 275.25 498.778 278.1 487.602C279.28 482.977 282.44 478.852 282.937 474.103C283.403 469.65 281.475 465.435 281.837 460.912C282.901 447.661 295.75 353.621 325.921 373.635C343.663 385.405 353.939 450.609 357.816 475.519C360.286 491.389 360.146 531.85 384.033 527.435C402.235 524.07 417.919 470.608 421.723 455.644C423.297 449.455 424.002 437.439 429.495 433.38C431.983 434.952 433.716 436.21 435.322 438.754C435.27 458.325 418.409 502.47 409.241 518.362C407.194 521.91 404.207 524.619 401.981 527.964C392.638 535.72 380.642 539.72 369.034 534.792C353.566 523.388 353.639 516.781 350.612 497.032C347.584 477.278 337.295 390.438 318.452 381.486C292.241 391.517 292.501 501.939 279.756 526.105C277.066 531.205 272.733 533.749 267.593 535.87C254.539 539.808 243.467 534.121 234.413 524.446Z"/>
	<path fill="#BC6C25" transform="scale(1.6 1.6)" d="M267.593 535.87C272.733 533.749 277.066 531.205 279.756 526.105C292.501 501.939 292.241 391.517 318.452 381.486C337.295 390.438 347.584 477.278 350.612 497.032C353.639 516.781 353.566 523.388 369.034 534.792C367.951 541.304 361.799 540.353 355.569 541.408C338.908 544.228 282.351 545.83 267.593 535.87Z"/>
</svg>
