<?xml version="1.0" encoding="utf-8" ?>
<svg xmlns="http://www.w3.org/2000/svg" xmlns:xlink="http://www.w3.org/1999/xlink" width="1024" height="1023">
	<path fill="#F4F1DE" transform="scale(1.6 1.6)" d="M307.92 81.4207C376.618 78.2544 439.86 102.227 489.624 149.763C533.409 191.588 558.188 257.24 559.52 316.836C562.352 443.557 458.811 556.413 331.346 559.156C298.144 562.428 253.366 552.925 223.088 539.359C73.8395 472.489 31.4571 277.793 145.788 156.502C187.519 112.231 246.647 83.2541 307.92 81.4207Z"/>
	<path fill="#3D405B" transform="scale(1.6 1.6)" d="M210.323 433.109C216.455 437.449 234.369 456.122 240.216 462.017C252.629 474.532 274.069 506.284 294.037 492.114C301.835 486.58 324.022 455.805 328.713 455.687C329.955 456.981 331.403 458.045 332.816 459.143C333.257 467.535 328.34 468.866 323.748 474.192C313.197 486.431 301.536 503.886 283.981 504.637C265.304 505.437 249.195 482.934 236.411 470.922C226.456 479.157 219.075 484.119 205.728 482.964C200.394 482.502 197.607 477.188 201.641 472.858C201.107 470.034 189.927 463.851 187.147 462.038C185.354 460.587 183.309 459.5 181.533 457.991C185.407 458.566 191.825 467.869 194.767 462.608C195.852 460.667 196.926 452.706 196.32 450.662C193.099 450.187 192.51 453.208 189.937 454.379C190.445 452.833 203.693 442.181 206.848 439.337L206.963 438.539C207.954 436.637 209.128 434.887 210.323 433.109Z"/>
	<path fill="#27E3FD" transform="scale(1.6 1.6)" d="M206.848 439.337C209.359 444.392 224.451 458.578 229.492 462.984C222.687 468.899 211.204 476.703 201.641 472.858C201.107 470.034 189.927 463.851 187.147 462.038C185.354 460.587 183.309 459.5 181.533 457.991C185.407 458.566 191.825 467.869 194.767 462.608C195.852 460.667 196.926 452.706 196.32 450.662C193.099 450.187 192.51 453.208 189.937 454.379C190.445 452.833 203.693 442.181 206.848 439.337Z"/>
	<path fill="#3D405B" transform="scale(1.6 1.6)" d="M347.681 253.769C332.902 240.005 300.281 213.804 300.305 193.754C300.324 177.671 312.355 169.427 322.917 159.167C333.966 148.434 344.395 134.408 361.435 134.693C378.194 134.973 395.59 155.855 407.211 168.014C444.185 144.07 460.126 168.792 482.213 195.367C485.238 199.007 498.534 210.679 487.696 213.563C484.493 216.156 474.979 229.898 473.938 233.71C486.67 246.499 508.728 261.849 508.798 281.573C508.85 296.481 495.316 305.518 485.58 314.717C472.811 326.783 455.633 348.916 435.33 337.959C421.258 330.365 399.095 304.975 386.214 293.602L342.527 337.244C335.736 343.969 325.478 354.959 318.027 360.614C316.961 360.362 315.846 360.161 314.838 359.73C308.315 352.279 323.458 342.866 329.167 337.243C345.029 321.623 365.818 302.92 380.159 286.613C371.023 278.316 362.31 269.435 353.618 260.673C341.77 270.515 331.73 282.211 320.848 293.054L264.04 348.973C277.535 362.858 291.16 376.62 305.018 390.144C313.503 398.425 355.576 435.303 344.356 449.908L343.96 450.073L344.152 449.143C341.43 450.492 341.322 450.826 338.072 451.483C335.628 452.108 334.069 454.054 332.403 455.825C332.544 456.924 332.736 458.039 332.816 459.143C331.403 458.045 329.955 456.981 328.713 455.687C324.022 455.805 301.835 486.58 294.037 492.114C274.069 506.284 252.629 474.532 240.216 462.017C234.369 456.122 216.455 437.449 210.323 433.109C209.128 434.887 207.954 436.637 206.963 438.539L206.848 439.337C203.693 442.181 190.445 452.833 189.937 454.379C192.51 453.208 193.099 450.187 196.32 450.662C196.926 452.706 195.852 460.667 194.767 462.608C191.825 467.869 185.407 458.566 181.533 457.991C183.309 459.5 185.354 460.587 187.147 462.038C185.523 465.068 182.742 467.086 179.768 468.665C174.423 465.656 169.82 460.896 165.659 456.424C149.594 439.163 146.58 418.337 165.095 401.47L164.439 400.868C153.513 390.955 134.649 371.783 133.614 357.831C132.413 341.623 142.622 335.035 153.006 325.172L166.773 311.895C178.381 300.713 191.928 290.062 209.283 298.514C220.896 304.169 246.181 332.338 257.485 342.325L314.799 285.92C325.637 275.172 336.32 263.953 347.681 253.769Z"/>
	<path fill="#7FF1FC" transform="scale(1.6 1.6)" d="M171.72 408.332C176.922 413.432 189.336 424.936 195.707 427.406C196.749 431.357 203.303 436.774 206.963 438.539L206.848 439.337C203.693 442.181 190.445 452.833 189.937 454.379C192.51 453.208 193.099 450.187 196.32 450.662C196.926 452.706 195.852 460.667 194.767 462.608C191.825 467.869 185.407 458.566 181.533 457.991C160.391 445.603 154.786 426.758 171.72 408.332Z"/>
	<path fill="#7FF1FC" transform="scale(1.6 1.6)" d="M418.655 172.317C442.805 159.784 456.209 176.081 470.219 195.009C474.586 200.39 481.965 210.148 487.696 213.563C484.493 216.156 474.979 229.898 473.938 233.71C460.684 220.441 446.093 206.202 433.35 192.5C426.92 186.276 420.412 180.48 413.483 174.817C415.183 173.942 416.871 173.011 418.655 172.317Z"/>
	<path fill="#F4F1DE" transform="scale(1.6 1.6)" d="M413.483 174.817C415.183 173.942 416.871 173.011 418.655 172.317C420.201 173.815 423.523 172.672 425.533 172.795C428.676 176.171 434.313 184.812 437.689 189.359C431.966 187.139 428.24 171.188 421.8 173.158C419.925 173.732 418.255 176.382 418.649 178.343L419.046 178.614C421.503 180.328 432.531 190.027 433.548 192.049L433.35 192.5C426.92 186.276 420.412 180.48 413.483 174.817Z"/>
	<path fill="white" transform="scale(1.6 1.6)" d="M418.655 172.317C442.805 159.784 456.209 176.081 470.219 195.009C469.317 199.32 461.874 200.381 458.165 200.237C449.408 199.897 443.368 195.526 437.689 189.359C434.313 184.812 428.676 176.171 425.533 172.795C423.523 172.672 420.201 173.815 418.655 172.317Z"/>
	<path fill="#E07A5F" transform="scale(1.6 1.6)" d="M439.829 330.202C425.471 323.035 401.048 294.56 388.476 282.435L322.821 217.508C302.738 197.075 304.076 190.576 323.68 171.135C349.33 145.7 355.943 129.983 387.508 160.463C395.432 168.114 403.297 175.641 410.589 183.921C412.579 186.179 414.777 190.656 416.839 192.285C419.608 194.472 421.493 184.853 435.816 206.328C442.529 216.394 456.253 228.662 465.244 237.356C477.287 249.002 499.341 265.909 499.132 283.3C497.372 294.241 486.141 300.471 478.669 307.541C468.527 317.138 456.02 336.044 439.829 330.202Z"/>
	<path fill="#E07A5F" transform="scale(1.6 1.6)" d="M197.895 422.211L197.726 421.789C196.987 419.979 175.635 398.819 172.115 395.427C159.591 383.361 131.73 361.209 147.497 343.205C151.932 338.14 157.32 333.808 162.131 329.102C173.594 317.891 187.266 298.669 205.814 306.566C215.472 310.679 238.193 335.797 246.296 343.943L310.941 408.004C325.006 422.031 334.273 429.462 337.012 450.243C337.358 450.734 337.578 451.142 338.072 451.483C335.628 452.108 334.069 454.054 332.403 455.825C332.544 456.924 332.736 458.039 332.816 459.143C331.403 458.045 329.955 456.981 328.713 455.687C324.022 455.805 301.835 486.58 294.037 492.114C274.069 506.284 252.629 474.532 240.216 462.017C234.369 456.122 216.455 437.449 210.323 433.109C209.128 434.887 207.954 436.637 206.963 438.539C203.303 436.774 196.749 431.357 195.707 427.406L196.636 426.539L197.895 422.211Z"/>
	<path fill="#F4F1DE" transform="scale(1.6 1.6)" d="M196.636 426.539C197.826 426.123 198.75 425.638 199.782 424.915C203.339 427.584 206.959 430.198 210.323 433.109C209.128 434.887 207.954 436.637 206.963 438.539C203.303 436.774 196.749 431.357 195.707 427.406L196.636 426.539Z"/>
</svg>
