<?xml version="1.0" encoding="utf-8" ?>
<svg xmlns="http://www.w3.org/2000/svg" xmlns:xlink="http://www.w3.org/1999/xlink" width="1023" height="1024">
	<path fill="#D0C7A6" transform="scale(1.6 1.6)" d="M462.07 483.722C463.138 473.769 468.518 475.249 476.111 480.042C477.623 489.519 466.155 488.763 462.07 483.722Z"/>
	<path fill="#F4F1DE" transform="scale(1.6 1.6)" d="M165.842 168.46C172.852 155.495 203.635 136.456 217.16 130.386C221.723 128.339 229.921 126.83 233.574 124.444C236.375 122.614 237.077 118.858 238.985 116.286C248.572 103.365 279.194 95.4176 295.039 97.2665C297.74 97.5816 300.411 98.9176 303.102 98.9645C307.973 99.0493 313.013 97.3177 318.19 97.298C326.337 97.2669 334.333 98.1947 342.416 99.1091C363.416 101.485 400.557 103.922 406.938 128.5C420.162 130.233 433.378 127.745 445.801 134.053C457.283 139.883 449.158 142.865 466.528 144.259C500.298 146.969 529.596 184.753 540.988 214.687C555.031 251.588 561.385 323.607 556.022 363.032C555.131 369.582 553.399 375.985 552.756 382.58C551.971 390.627 552.556 398.567 551.052 406.572C549.501 405.289 548.233 404.022 547.017 402.405C531.808 434.118 509.294 465.861 476.111 480.042C468.518 475.249 463.138 473.769 462.07 483.722L461.859 484.078C453.995 497.469 452.169 491.348 441.019 498.472C434.18 502.842 427.792 508.092 421.102 512.711C392.03 532.785 351.924 543.71 316.74 538.842C313.153 538.346 308.141 538.235 305.76 535.083C293.695 545.623 290.161 550.878 278.681 535.823C275.633 538.944 266.932 537.684 262.876 537.74C239.507 538.064 222.143 533.408 201.826 522.086C142.764 489.176 99.4347 427.761 88.1234 361.051C81.9889 324.872 86.2398 287.493 95.1577 252.052C100.621 230.339 122.83 175.044 146.619 168.362C151.468 169.567 159.229 179.088 163.456 173.299C164.11 171.613 164.989 170.05 165.842 168.46Z"/>
	<path fill="#3D405B" transform="scale(1.6 1.6)" d="M242.423 461.549C249.258 462.823 249.905 470.256 243.758 472.702C235.981 471.308 235.4 464.152 242.423 461.549Z"/>
	<path fill="#D0C7A6" transform="scale(1.6 1.6)" d="M165.842 168.46C171.097 168.261 179.017 170.785 179.053 177.248C179.108 187.039 164.441 181.062 163.456 173.299C164.11 171.613 164.989 170.05 165.842 168.46Z"/>
	<path fill="#3D405B" transform="scale(1.6 1.6)" d="M398.82 463.136C401.791 463.417 403.058 464.634 404.947 466.779C405.474 472.998 407.503 486.86 400.596 490.134C398.54 489.947 396.036 489.455 394.926 487.495C392.991 484.077 391.046 466.394 398.82 463.136Z"/>
	<path fill="#3D405B" transform="scale(1.6 1.6)" d="M315.703 165.324C325.575 164.213 323.287 187.849 321.897 191.085C321.279 192.522 319.86 193.246 318.503 193.827C308.499 193.901 310.708 177.088 311.826 170.443C312.279 167.749 313.577 166.8 315.703 165.324Z"/>
	<path fill="#3D405B" transform="scale(1.6 1.6)" d="M240.73 145.329C242.78 145.745 244.342 146.403 245.421 148.356C247.026 151.262 249.469 174.209 242.208 177.954C240.026 177.783 237.817 177.475 236.705 175.266C235.005 171.886 232.664 149.002 240.73 145.329Z"/>
	<path fill="#3D405B" transform="scale(1.6 1.6)" d="M172.779 399.718C175.377 399.564 177.975 400.772 178.547 403.533C179.96 410.353 158.651 417.746 153.207 418.695C146.863 418.238 144.651 412.003 150.668 408.801C155.154 406.413 168.063 401.038 172.779 399.718Z"/>
	<path fill="#3D405B" transform="scale(1.6 1.6)" d="M398.224 145.538C400.546 145.485 403.007 146.747 404.056 148.859C405.502 151.77 407.965 174.603 400.626 178.025C398.187 177.829 395.967 177.482 394.514 175.214C392.845 172.609 390.712 150.169 398.224 145.538Z"/>
	<path fill="#3D405B" transform="scale(1.6 1.6)" d="M465.367 399.761C471.391 399.539 505.549 412.678 488.826 418.863C480.516 418.627 448.97 404.873 465.367 399.761Z"/>
	<path fill="#3D405B" transform="scale(1.6 1.6)" d="M207.579 426.256C227.463 425.587 188.626 463.489 185.881 464.868C165.132 463.919 205.174 427.554 207.579 426.256Z"/>
	<path fill="#3D405B" transform="scale(1.6 1.6)" d="M429.671 426.258C436.544 425.539 446.377 441.198 450.758 446.378C454.63 450.957 459.954 455.244 462.399 460.804C461.433 463.277 460.468 464.718 458.335 466.326C452.174 468.568 433.269 442.276 428.94 436.546C425.741 432.314 424.715 429.42 429.671 426.258Z"/>
	<path fill="#D0C7A6" transform="scale(1.6 1.6)" d="M278.681 535.823C274.753 531.122 265.062 528.918 262.823 523.489C261.194 519.536 265.619 514.986 269.647 516.512C273.835 518.099 285.191 527.118 291.186 530.431C296.894 527.369 310.905 516.408 314.686 516.278C317.681 516.176 320.532 519.28 320.355 522.228C320.046 527.399 309.929 531.582 305.76 535.083C293.695 545.623 290.161 550.878 278.681 535.823Z"/>
	<path fill="#3D405B" transform="scale(1.6 1.6)" d="M361.944 427.695C370.263 423.591 389.78 405.768 397.302 399.171C402.285 394.801 410.903 384.083 417.586 385.434C419.811 387.831 420.647 391.058 418.775 393.91C413.203 402.399 371.267 436.323 364.859 438.551C362.643 437.61 360.737 436.789 359.184 434.859C359.692 432.127 360.588 430.079 361.944 427.695Z"/>
	<path fill="#E07A5F" transform="scale(1.6 1.6)" d="M320.573 247.644C343.136 206.251 391.58 189.353 435.705 206.533C442.171 209.05 452.617 212.871 444.478 220.679C447.202 221.862 457.869 229.449 459.429 229.271C461.132 227.599 462.888 225.991 464.65 224.381C475.541 231.717 481.452 248.233 483.834 260.507C488.057 282.272 481.463 311.395 470.216 330.861L487.431 330.948C508.2 330.875 501.229 341.471 495.774 341.924C488.086 342.561 471.993 341.782 463.97 341.572C461.581 347.491 444.941 369.576 439.916 372.49C437.401 371.784 435.015 371.189 432.847 369.667C429.622 377.013 424.477 381.831 417.586 385.434C410.903 384.083 402.285 394.801 397.302 399.171C389.78 405.768 370.263 423.591 361.944 427.695C360.588 430.079 359.692 432.127 359.184 434.859C356.878 435.633 353.253 437.132 351.818 439.137C351.023 441.238 350.246 443.349 349.415 445.436C348.201 446.897 348.622 449.727 347.311 451.673C343.692 457.043 326.284 468.099 318.523 469.781C310.671 467.209 300.924 459.309 293.994 454.329C256.183 427.153 218.931 395.46 189.727 359.1C185.423 353.742 180.113 348.022 176.906 341.946C170.72 341.442 138.781 343.797 138.89 337.222C139.043 328.004 163.84 330.863 170.812 331.155C159.599 307.975 153.142 282.692 159.242 257.097C169.827 212.683 219.668 191.771 261.511 202.177C285.474 208.136 307.866 226.529 320.573 247.644Z"/>
	<path fill="#DDBEAF" transform="scale(1.6 1.6)" d="M351.818 439.137C351.023 441.238 350.246 443.349 349.415 445.436L348.65 445.361C348.153 443.903 348.135 442.456 348.054 440.933C349.277 440.232 350.523 439.683 351.818 439.137Z"/>
	<path fill="#3D405B" transform="scale(1.6 1.6)" d="M191.605 241.229C195.653 241.029 197.048 243.828 198.596 247.194C190.844 262.605 186.36 277.504 191.024 295.265C192.631 301.386 196.42 306.505 190.124 311.056C175.275 313.503 174.961 252.41 191.605 241.229Z"/>
	<path fill="#3D405B" transform="scale(1.6 1.6)" d="M464.65 224.381C475.541 231.717 481.452 248.233 483.834 260.507C488.057 282.272 481.463 311.395 470.216 330.861L487.431 330.948C508.2 330.875 501.229 341.471 495.774 341.924C488.086 342.561 471.993 341.782 463.97 341.572C461.581 347.491 444.941 369.576 439.916 372.49C437.401 371.784 435.015 371.189 432.847 369.667C431.528 365.116 447.597 348.033 451.909 341.289C444.854 341.744 437.738 341.57 430.672 341.573L358.539 341.571C324.16 341.571 330.167 347.834 322.835 316.08C321.729 321.123 316.087 350.49 311.535 352.549C309.42 353.506 305.112 352.156 304.353 349.771C302.791 344.864 311.625 318.692 313.223 312.896C314.469 308.378 317.214 285.255 326.81 291.641C330.806 294.3 330.917 302.75 331.761 306.943L336.75 330.902C363.875 331.255 391.049 330.938 418.179 330.948L442.374 330.963C447.698 330.967 453.356 331.307 458.608 330.41C474.966 302.596 484.403 261.838 461.658 235.093C460.696 233.836 459.748 232.642 459.073 231.198C459.268 230.565 459.335 229.925 459.429 229.271C461.132 227.599 462.888 225.991 464.65 224.381Z"/>
	<path fill="#3D405B" transform="scale(1.6 1.6)" d="M320.573 247.644C343.136 206.251 391.58 189.353 435.705 206.533C442.171 209.05 452.617 212.871 444.478 220.679C439.318 221.778 429.551 214.856 424.012 213.134C390.601 202.748 354.374 217.44 334.583 245.956C331.255 250.751 328.94 257.044 324.917 261.195C321.648 261.247 318.78 261.136 315.67 260.024C297.667 235.039 287.318 216.479 252.084 210.693C216.23 204.805 174.985 226.288 168.961 264.239C165.153 288.229 171.505 310.044 182.975 330.923L224.465 330.941C232.859 330.94 241.381 330.653 249.758 331.243L249.94 330.854C251.267 327.983 252.132 324.878 253.141 321.885L258.35 306.507C259.602 302.779 260.902 295.959 265.038 294.301C273.283 290.998 273.463 301.778 274.769 307.007C276.532 314.07 278.52 321.098 280.462 328.115L286.908 351.311C287.659 354.024 291.66 364.983 290.228 367.317C288.98 369.351 284.152 371.073 282.151 369.269C279.354 366.746 268.285 323.818 266.47 316.932C264.05 323.342 261.267 337.888 255.272 341.45C238.944 342.171 203.997 343.528 189.331 341.741C215.403 377.168 244.154 401.337 277.559 428.318C290.92 439.109 304.423 450.45 319.292 459.122C324.192 455.693 339.727 443.981 344.929 443.025C346.059 443.993 347.13 445.109 348.65 445.361L349.415 445.436C348.201 446.897 348.622 449.727 347.311 451.673C343.692 457.043 326.284 468.099 318.523 469.781C310.671 467.209 300.924 459.309 293.994 454.329C256.183 427.153 218.931 395.46 189.727 359.1C185.423 353.742 180.113 348.022 176.906 341.946C170.72 341.442 138.781 343.797 138.89 337.222C139.043 328.004 163.84 330.863 170.812 331.155C159.599 307.975 153.142 282.692 159.242 257.097C169.827 212.683 219.668 191.771 261.511 202.177C285.474 208.136 307.866 226.529 320.573 247.644Z"/>
</svg>
