<?xml version="1.0" encoding="utf-8" ?>
<svg xmlns="http://www.w3.org/2000/svg" xmlns:xlink="http://www.w3.org/1999/xlink" width="1024" height="1023">
	<path fill="#F4F1DE" transform="scale(1.6 1.6)" d="M309.286 79.817C320.802 79.4771 332.639 79.231 344.105 80.3692C459.254 91.799 556.497 191.498 560.234 307.854C562.951 392.49 523.755 475.464 451.635 521.361C415.323 544.47 374.166 559.073 330.861 560.404L330.558 560.425C268.819 564.518 206.379 540.202 160.255 499.737C123.173 467.205 99.2312 424.852 87.2055 377.479C65.5044 291.992 92.6464 204.424 157.514 144.063C199.915 104.608 251.698 83.3822 309.286 79.817Z"/>
	<path fill="#3D405B" transform="scale(1.6 1.6)" d="M470.306 355.005C477.688 355.461 480.509 372.524 472.797 372.496C469.055 367.959 463.942 360.011 470.306 355.005Z"/>
	<path fill="#3D405B" transform="scale(1.6 1.6)" d="M409.763 245.893C423.779 245.872 395.426 276.677 393.478 278.062C378.841 276.517 405.93 248.245 409.763 245.893Z"/>
	<path fill="#3D405B" transform="scale(1.6 1.6)" d="M198.358 351.026C209.311 339.366 222.777 319.706 233.014 306.547L324.062 190.209C328.959 183.946 333.77 177.436 339.644 172.045C391.469 124.477 475.444 179.819 433.024 258.477C428.496 266.873 419.087 287.91 409.211 280.384C411.213 272.272 424.152 258.5 428.612 248.221C416.736 236.24 401.626 228 387.75 218.585C371.973 207.88 355.055 194.683 337.745 186.779C332.831 191.785 328.653 197.823 324.355 203.364L304.038 229.299C299.398 235.293 294.917 241.68 289.855 247.309C297.899 253.172 305.977 258.9 314.216 264.486L328.07 273.82C333.567 277.466 348.524 283.359 337.512 289.807C324.174 285 300.068 262.941 284.636 254.291C282.657 257.228 280.119 259.918 277.877 262.664C261.755 282.409 246.978 303.194 230.917 322.98C237.221 327.038 243.264 331.602 249.467 335.827L296.12 367.352C297.738 361.195 299.032 355.01 301.204 349.006C314.469 312.342 354.457 287.24 393.007 290.1C419.18 292.041 442.682 307.459 459.418 326.91C463.628 331.803 467.39 336.195 461.205 341.052L461.382 341.367C463.673 345.513 464.939 353.939 470.306 355.005C463.942 360.011 469.055 367.959 472.797 372.496C472.551 376.747 472.437 382.803 473.518 386.88C480.434 389.103 476.642 397.906 475.4 403.129C455.488 486.858 349.633 496.312 306.676 425.631C295.808 436.704 282.976 453.727 270.555 462.265C248.267 477.584 216.084 476.197 194.56 460.269C166.931 439.823 161.164 398.371 181.984 370.833C184.302 367.767 187.02 364.283 190.607 367.546C193.621 363.261 197.917 359.473 201.425 355.53C200.239 354.138 199.319 352.576 198.358 351.026Z"/>
	<path fill="#BC6C25" transform="scale(1.6 1.6)" d="M379.809 162.93C387.47 161.604 397.23 163.866 404.268 166.836C434.536 179.611 444.488 210.398 431.962 239.781C426.851 234.882 420.563 230.892 414.756 226.891C391.129 210.366 367.631 195.278 343.572 179.655C354.107 170.117 365.717 164.651 379.809 162.93Z"/>
	<path fill="#BC6C25" transform="scale(1.6 1.6)" d="M226.676 329.068C231.668 333.835 240.185 339.231 246.043 343.184L274.523 362.38C280.13 366.171 288.959 373.188 294.692 375.769C294.66 389.845 296.844 403.653 302.096 416.772C285.416 437.319 267.722 461.938 239.375 464.756C192.832 469.382 161.949 418.322 186.136 379.576C188.696 375.475 193.2 372.676 190.607 367.546C193.621 363.261 197.917 359.473 201.425 355.53C206.556 356.576 222.644 333.914 226.676 329.068Z"/>
	<path fill="#BC6C25" transform="scale(1.6 1.6)" d="M473.518 386.88C468.96 390.397 468.764 396.884 467.535 402.035C460.515 431.479 438.813 452.753 409.772 461.416C356.87 477.196 299.215 431.4 302.933 376.09C305.222 342.033 332.509 310.313 365.064 301.529C396.133 293.147 426.678 303.667 448.619 326.546C452.449 330.54 457.104 338.73 460.799 340.826L461.205 341.052L461.382 341.367C463.673 345.513 464.939 353.939 470.306 355.005C463.942 360.011 469.055 367.959 472.797 372.496C472.551 376.747 472.437 382.803 473.518 386.88Z"/>
	<path fill="#3D405B" transform="scale(1.6 1.6)" d="M326.529 344.363C330.834 345.374 333.789 349.712 336.748 352.704L350.407 366.507C371.023 387.307 393.869 410.365 415.499 429.578C419.557 433.183 431.939 439.953 423.084 445.69C414.477 443.712 384.363 410.91 376.579 403.383C360.106 387.453 342.882 372.171 327.207 355.435C323.341 351.307 321.403 348.445 326.529 344.363Z"/>
	<path fill="#3D405B" transform="scale(1.6 1.6)" d="M351.083 320.917C358.153 320.782 375.961 341.77 381.43 347.123L438.868 403.95C442.549 407.533 453.096 415.003 444.901 419.459C440.331 420.154 428.595 405.952 425.451 402.815L387.854 365.201L364.727 342.835C359.425 337.771 343.343 327.408 351.083 320.917Z"/>
</svg>
