<?xml version="1.0" encoding="utf-8" ?>
<svg xmlns="http://www.w3.org/2000/svg" xmlns:xlink="http://www.w3.org/1999/xlink" width="1024" height="1024">
	<path fill="#3D405B" transform="scale(1.6 1.6)" d="M145.53 206.356C149.223 207.154 149.121 208.883 149.082 212.322C148.85 232.58 147.377 252.927 146.59 273.175L145.4 306.393C145.166 311.81 146.817 321.733 141.758 325.419C139.477 325.234 138.671 324.661 137.228 322.807C137.074 319.349 137.356 315.877 137.456 312.42L140.099 246.042C140.54 234.394 140.624 222.638 141.449 211.017C141.67 207.894 142.599 207.382 145.53 206.356Z"/>
	<path fill="#3D405B" transform="scale(1.6 1.6)" d="M135.039 397.823C136.492 397.11 137.832 396.564 139.461 396.518C143.048 400.72 141.573 403.816 141.358 409.168L138.442 485.34C137.757 504.643 131.146 539.199 160.457 541.54C183.74 543.4 208.953 542.558 232.851 543.386L277.06 544.787C283.414 545.012 302.833 542.871 307.391 546.341C307.484 547.499 308.179 551.547 306.739 552.163C300.917 554.65 253.106 551.651 240.126 551.263L193.284 550.21C180.846 549.885 164.169 552.038 152.369 548.061C129.352 540.303 128.624 519.219 129.702 499.714L133.305 419.058C133.629 412.23 132.833 404.378 135.039 397.823Z"/>
	<path fill="#3D405B" transform="scale(1.6 1.6)" d="M328.27 547.115C330.619 543.628 352.293 545.318 357.003 545.264L456.679 544.636C484.621 544.354 489.754 540.708 491.779 510.296C494.506 469.357 496.297 426.335 497.529 385.405C497.658 381.128 497.611 375.317 503.377 375.5C507.836 379.571 504.436 405.283 504.093 412.504L501.586 468.282C500.682 485.463 501.181 511.901 498.19 527.753C493.468 552.783 471.087 552.021 452.071 552.329L346.594 553.254C341.187 553.267 335.464 553.538 330.132 552.58C329.181 550.804 328.644 549.095 328.27 547.115Z"/>
	<path fill="#3D405B" transform="scale(1.6 1.6)" d="M146.119 177.5C145.214 177.13 144.27 176.848 143.8 175.914C142.859 174.041 144.481 118.278 145.009 112.653C146.334 98.5211 156.442 85.2341 171.623 84.6759C176.879 84.4827 182.189 84.6625 187.45 84.6768L381.548 84.686C394.957 84.686 408.617 84.1559 421.996 84.8594C450.793 117.217 477.965 151.476 507.117 183.055C509.209 185.32 511.54 187.424 513.461 189.831C513.331 193.681 512.906 197.508 512.726 201.356L508.674 290.45C508.475 295.242 509.477 311.849 506.278 315.144C501.581 314.838 500.777 312.931 500.653 308.546C500.296 295.91 501.762 283.032 502.313 270.406L505.631 193.866C487.489 192.401 469.424 189.69 451.228 188.852C399.543 183.959 414.537 129.316 415.982 92.5503L197.251 92.6049C156.289 92.5799 153.439 92.0534 152.291 130.695C151.855 145.381 151.662 161.88 150.469 176.359C149.077 176.918 147.58 177.177 146.119 177.5Z"/>
	<path fill="#BC6C25" transform="scale(1.6 1.6)" d="M424.163 100.127C426.533 101.369 487.693 170.942 499.041 184.644L495.018 184.44C482.794 184.169 470.513 182.614 458.356 181.371C415.843 177.025 418.699 156.726 422.37 119.931L424.163 100.127Z"/>
	<path fill="#BC6C25" transform="scale(1.6 1.6)" d="M451.228 188.852C469.424 189.69 487.489 192.401 505.631 193.866L502.313 270.406C501.762 283.032 500.296 295.91 500.653 308.546C500.777 312.931 501.581 314.838 506.278 315.144C504.921 319.246 505.202 324.875 504.995 329.237L503.798 359.596C503.64 364.856 503.93 370.267 503.377 375.5C497.611 375.317 497.658 381.128 497.529 385.405C496.297 426.335 494.506 469.357 491.779 510.296C489.754 540.708 484.621 544.354 456.679 544.636L357.003 545.264C352.293 545.318 330.619 543.628 328.27 547.115C327.661 547.283 327.136 547.319 326.506 547.375C326.725 539.014 328.79 530.357 329.56 521.967C330.252 514.418 329.733 506.482 330.995 499.037C329.875 496.622 330.687 493.208 333.479 492.329C337.262 491.138 372.256 493.78 377.367 494.141C397.495 495.561 422.506 500.506 430.659 475.109C432.591 469.091 432.38 462.494 432.726 456.252L434.067 429.608C435.712 399.638 437.19 369.606 439.222 339.663C439.607 333.98 438.544 313.056 443.372 310.268C443.773 304.678 443.754 299.015 443.962 293.409C445.273 257.972 448.325 223.984 451.228 188.852Z"/>
	<path fill="#3D405B" transform="scale(1.6 1.6)" d="M443.372 310.268C445.046 310.945 447.257 311.562 447.972 313.404C449.006 316.074 441.954 418.146 441.544 426.409C440.312 451.259 445.931 493.26 414.265 501.745C404.581 504.34 391.85 502.136 381.978 501.557C366.874 500.67 344.703 501.536 330.995 499.037C329.875 496.622 330.687 493.208 333.479 492.329C337.262 491.138 372.256 493.78 377.367 494.141C397.495 495.561 422.506 500.506 430.659 475.109C432.591 469.091 432.38 462.494 432.726 456.252L434.067 429.608C435.712 399.638 437.19 369.606 439.222 339.663C439.607 333.98 438.544 313.056 443.372 310.268Z"/>
	<path fill="#F4F1DE" transform="scale(1.6 1.6)" d="M150.469 176.359C151.662 161.88 151.855 145.381 152.291 130.695C153.439 92.0534 156.289 92.5799 197.251 92.6049L415.982 92.5503C414.537 129.316 399.543 183.959 451.228 188.852C448.325 223.984 445.273 257.972 443.962 293.409C443.754 299.015 443.773 304.678 443.372 310.268C438.544 313.056 439.607 333.98 439.222 339.663C437.19 369.606 435.712 399.638 434.067 429.608L432.726 456.252C432.38 462.494 432.591 469.091 430.659 475.109C422.506 500.506 397.495 495.561 377.367 494.141C372.256 493.78 337.262 491.138 333.479 492.329C330.687 493.208 329.875 496.622 330.995 499.037C329.733 506.482 330.252 514.418 329.56 521.967C328.79 530.357 326.725 539.014 326.506 547.375C320.006 547.428 313.745 547.914 307.391 546.341C302.833 542.871 283.414 545.012 277.06 544.787L232.851 543.386C208.953 542.558 183.74 543.4 160.457 541.54C131.146 539.199 137.757 504.643 138.442 485.34L141.358 409.168C141.573 403.816 143.048 400.72 139.461 396.518C141.287 393.937 140.302 338.229 141.758 325.419C146.817 321.733 145.166 311.81 145.4 306.393L146.59 273.175C147.377 252.927 148.85 232.58 149.082 212.322C149.121 208.883 149.223 207.154 145.53 206.356C146.163 206.117 145.917 206.315 146.284 205.783C144.193 196.245 147.867 185.55 146.119 177.5C147.58 177.177 149.077 176.918 150.469 176.359Z"/>
	<path fill="#3D405B" transform="scale(1.6 1.6)" d="M381.836 459.721C385.143 459.918 395.2 459.645 397.458 460.809C400.771 462.518 399.111 466.987 395.991 467.77C391.517 467.986 386.124 468.88 381.777 467.674C376.683 466.261 377.878 461.501 381.836 459.721Z"/>
	<path fill="#3D405B" transform="scale(1.6 1.6)" d="M383.739 417.891C387.104 417.76 404.965 416.13 398.999 424.557C398.123 425.794 396.946 426.043 395.533 426.336C391.242 426.402 384.628 427.162 380.722 425.309C374.744 422.472 379.791 418.678 383.739 417.891Z"/>
	<path fill="#3D405B" transform="scale(1.6 1.6)" d="M382.566 371.027C386.008 370.788 395.177 370.133 398.063 371.788C402.086 374.094 399.365 378.771 395.508 379.351C392.11 379.353 383.933 380.395 381.162 379.033C376.391 376.688 378.403 372.174 382.566 371.027Z"/>
	<path fill="#3D405B" transform="scale(1.6 1.6)" d="M381.22 323.869C386.79 323.753 392.448 323.753 398.014 323.977C402.585 326.69 401.391 330.397 397.006 331.962C376.193 335.987 372.877 325.413 381.22 323.869Z"/>
	<path fill="#3D405B" transform="scale(1.6 1.6)" d="M193.255 322.945C202.908 323.226 241.623 321.756 248.574 323.814C252.563 327.529 250.128 331.189 244.766 331.503L208.948 331.491C203.245 331.498 197.091 331.969 191.437 331.409C185.306 330.802 185.315 323.574 193.255 322.945Z"/>
	<path fill="#3D405B" transform="scale(1.6 1.6)" d="M191.572 468.559C196.499 468.461 246.438 468.064 247.955 469.291C251.118 471.852 249.031 477.162 245.078 477.299C232.804 476.912 220.46 477.136 208.177 477.139C205.575 477.14 181.545 479.254 186.874 471.312C188.035 469.581 189.583 468.931 191.572 468.559Z"/>
	<path fill="#3D405B" transform="scale(1.6 1.6)" d="M190.581 371.007C197.75 370.722 255.041 369.596 260.43 371.043C264.623 372.169 263.106 377.588 259.972 379.05C255.722 379.316 251.346 379.118 247.084 379.117L202.422 379.115C199.058 379.119 184.905 381.041 187.455 373.996C188.052 372.346 189.071 371.764 190.581 371.007Z"/>
	<path fill="#3D405B" transform="scale(1.6 1.6)" d="M193.573 420.773C213.02 421.462 232.631 420.93 252.098 420.916C257.204 420.913 281.136 418.424 281.825 424.611C282.382 429.613 278.592 429.452 274.86 429.32C263.208 428.665 192.609 430.615 189.065 428.758C187.64 428.011 187.11 426.396 186.477 425.016C188.261 421.353 189.418 420.885 193.573 420.773Z"/>
	<path fill="#3D405B" transform="scale(1.6 1.6)" d="M293.155 123.547C297.995 122.946 303.616 123.157 308.456 123.625C334.132 126.105 328.925 156.204 326.728 175.302C366.139 168.27 388.923 160.759 383.804 211.89C381.389 236.008 342.825 227.756 326.019 225.803C326.64 234.106 327.488 242.383 328.055 250.695C329.209 267.606 329.798 277.568 310.612 280.538C298.419 282.28 278.036 282.424 275.466 266.697C274.033 257.924 276.16 234.644 277.629 225.439C265.725 228.025 231.4 233.26 223.321 220.012C217.188 209.955 215.397 173.417 234.958 171.05C244.978 169.838 267.728 173.08 277.472 175.775C277.142 159.222 268.75 126.71 293.155 123.547Z"/>
	<path fill="#BC6C25" transform="scale(1.6 1.6)" d="M294.544 131.364C325.327 129.384 322.896 141.292 319.458 168.783C317.121 187.48 318.895 184.911 334.668 182.36C340.004 181.498 368.679 176.797 372.428 179.545C379.197 184.505 378.559 211.727 374.699 216.336C369.896 222.07 345 220.311 337.924 219.411C318.741 216.973 317.308 212.368 319.298 236.082C319.864 242.826 320.155 249.579 320.332 256.344C320.552 264.781 322.172 269.981 311.869 271.797C277.605 277.027 281.59 265.46 284.326 236.635C285.997 219.035 288.897 216.115 268.99 218.317C256.173 219.735 230.014 225.689 227.851 208.31C226.981 201.32 225.673 180.96 235.17 178.879C244.945 176.737 283.23 187.28 285.595 182.191C289.728 173.294 273.124 133.891 294.544 131.364Z"/>
</svg>
