<?xml version="1.0" encoding="utf-8" ?>
<svg xmlns="http://www.w3.org/2000/svg" xmlns:xlink="http://www.w3.org/1999/xlink" width="1023" height="1023">
	<path fill="#3D405B" transform="scale(1.6 1.6)" d="M525.736 109.174C537.34 109.605 537.494 125.08 526.642 126.803C521.121 127.1 518.975 122.471 517.728 117.828C518.953 113.013 520.656 110.59 525.736 109.174Z"/>
	<path fill="#3D405B" transform="scale(1.6 1.6)" d="M471.38 141.85C472.005 138.628 472.611 134.672 475.61 132.73C483.55 127.588 484.751 142.003 485.515 145.912C487.008 153.545 491.861 161.254 497.719 166.369C501.848 169.973 506.361 170.297 503.102 177.416C497.624 184.254 480.157 162.6 478.305 155.518C475.377 161.501 470.36 165.771 466.881 171.351C465.662 171.98 464.851 172.422 463.459 171.982C455.611 168.238 460.016 163.86 463.84 159.477C467.953 154.764 470.787 148.064 471.38 141.85Z"/>
	<path fill="#F4F1DE" transform="scale(1.6 1.6)" d="M518.666 189.205C517.699 189.904 517.536 190.562 518.206 191.557C553.2 243.563 564.359 309.079 551.424 370.282C532.25 460.997 456.041 534.086 365.328 551.839C254.524 573.525 139.742 512.31 100.122 405.077C70.6183 325.223 81.2103 242.716 134.609 174.666C164.756 136.247 207.532 107.64 254.296 93.644C313.553 75.9087 377.925 83.9687 432.355 112.603C453.2 123.569 455.451 125.889 471.38 141.85C470.787 148.064 467.953 154.764 463.84 159.477C460.016 163.86 455.611 168.238 463.459 171.982C464.851 172.422 465.662 171.98 466.881 171.351C470.36 165.771 475.377 161.501 478.305 155.518C480.157 162.6 497.624 184.254 503.102 177.416L503.834 178.203C523.746 173.174 527.553 186.287 518.666 189.205Z"/>
	<path fill="#3D405B" transform="scale(1.6 1.6)" d="M485.058 365.07C496.851 364.327 499.161 378.002 488.958 382.098C478.664 382.999 474.462 368.376 485.058 365.07Z"/>
	<path fill="#3D405B" transform="scale(1.6 1.6)" d="M218.338 467.293C230.88 466.777 230.791 480.787 220.286 483.752C208.993 484.058 207.224 469.258 218.338 467.293Z"/>
	<path fill="#3D405B" transform="scale(1.6 1.6)" d="M491.637 264.762C504.229 263.928 505.782 276.975 495.962 281.219C484.918 282.182 480.305 268.752 491.637 264.762Z"/>
	<path fill="#3D405B" transform="scale(1.6 1.6)" d="M124.597 257.86C136.138 257.28 138.188 272.163 127.152 274.98C115.191 275.368 113.664 261.428 124.597 257.86Z"/>
	<path fill="#3D405B" transform="scale(1.6 1.6)" d="M176.624 393.156C188.469 392.549 190.186 406.935 179.418 410.151C168.248 410.493 164.71 396.126 176.624 393.156Z"/>
	<path fill="#3D405B" transform="scale(1.6 1.6)" d="M157.476 306.251C163.251 306.335 163.336 312.173 162.336 316.596C160.65 324.049 156.499 327.427 150.372 331.339C156.438 335.042 165.672 348.682 161.936 356.288C158.788 362.697 153.498 355.503 152.314 350.702C145.99 331.393 131.24 339.88 128.05 334.181C123.234 325.576 142.366 324.384 146.385 321.952C152.498 318.252 151.055 309.437 157.476 306.251Z"/>
	<path fill="#3D405B" transform="scale(1.6 1.6)" d="M450.457 405.534C459.426 405.373 457.385 417.591 459.404 423.314C465.417 440.357 481.809 434.124 483.365 440.497C485.651 449.858 473.546 445.988 465.602 452.557C452.237 463.608 461.538 477.579 450.247 479.336C443.692 477.957 445.184 470.925 444.025 465.794C439.279 444.787 420.962 449.211 417.347 444.458C411.655 436.975 431.295 435.29 434.287 433.444C447.099 425.537 443.571 409.885 450.457 405.534Z"/>
	<path fill="#F2D550" transform="scale(1.6 1.6)" d="M451.423 428.065C455.976 433.722 454.083 435.791 462.43 441.912C456.635 445.485 452.994 449.645 450.855 456.157L450.653 456.398C446.928 451.423 450.079 449.079 440.413 442.027C445.626 438.477 448.768 433.683 451.423 428.065Z"/>
	<path fill="#3D405B" transform="scale(1.6 1.6)" d="M215.901 143.489C228.523 143.397 217.959 165.554 239.473 173.706C244.289 175.531 254.564 174.723 250.58 182.941C247.315 189.673 230.007 181.02 223.395 205.307C221.825 211.076 222.151 216.385 215.554 218.445C204.675 215.417 214.077 192.064 192.483 186.946C189.245 186.179 177.088 184.847 182.659 178.093C185.165 175.056 189.77 174.558 193.425 174.137C198.235 176.965 208.04 160.958 209.266 157.104C210.738 152.476 210.887 145.795 215.901 143.489Z"/>
	<path fill="#F2D550" transform="scale(1.6 1.6)" d="M217.033 165.852C221.8 170.721 222.848 173.89 229.506 178.918C223.469 183.314 219.149 187.767 215.965 194.575L215.874 194.95C215.488 194.961 213.988 190.723 213.504 189.916C211.228 186.122 208.106 182.901 204.577 180.281C210.005 176.098 213.496 171.701 217.033 165.852Z"/>
	<path fill="#3D405B" transform="scale(1.6 1.6)" d="M478.305 155.518C480.157 162.6 497.624 184.254 503.102 177.416L503.834 178.203C523.746 173.174 527.553 186.287 518.666 189.205C501.095 187.584 487.903 201.362 483.294 217.364C482.231 221.053 481.727 235.152 473.692 230.771C468.64 228.015 470.717 200.862 449.473 191.975C445.982 190.514 442.296 190.514 438.91 188.609C434.868 179.142 443.583 178.118 450.733 180.23C454.005 179.909 461.146 174.382 463.459 171.982C464.851 172.422 465.662 171.98 466.881 171.351C470.36 165.771 475.377 161.501 478.305 155.518Z"/>
	<path fill="#F2D550" transform="scale(1.6 1.6)" d="M478.305 155.518C480.157 162.6 497.624 184.254 503.102 177.416L503.834 178.203C491.28 186.963 482.263 192.663 476.576 207.877C473.006 199.055 466.182 189.565 457.658 184.976C454.799 183.757 452.97 182.367 450.733 180.23C454.005 179.909 461.146 174.382 463.459 171.982C464.851 172.422 465.662 171.98 466.881 171.351C470.36 165.771 475.377 161.501 478.305 155.518Z"/>
	<path fill="#F8E69C" transform="scale(1.6 1.6)" d="M466.881 171.351C467.441 174.705 460.897 182.383 458.285 184.472L457.896 184.79C457.817 184.853 457.737 184.914 457.658 184.976C454.799 183.757 452.97 182.367 450.733 180.23C454.005 179.909 461.146 174.382 463.459 171.982C464.851 172.422 465.662 171.98 466.881 171.351Z"/>
	<path fill="#3D405B" transform="scale(1.6 1.6)" d="M216.759 383.868C221 383.193 231.575 396.136 234.338 398.913C255.811 420.498 280.405 438.591 302.945 458.979C308.372 463.888 312.14 470.898 317.589 475.336C323.426 480.091 334.763 462.954 339.48 458.62C359.676 440.061 383.145 424.861 403.571 405.586C408.778 400.673 436.391 369.023 441.1 369.607C442.826 371.442 443.38 372.606 443.876 375.062C436.905 395.797 365.517 449.388 344.261 467.799C339.523 471.903 332.248 482.241 327.665 484.55C313.25 491.813 304.322 473.781 295.608 465.911C280.036 451.846 218.742 401.889 214.848 392.284C213.786 389.666 215.228 387.039 216.349 384.707L216.759 383.868Z"/>
	<path fill="#BC6C25" transform="scale(1.6 1.6)" d="M320.935 258.244C330.167 249.779 332.27 244.178 344.673 235.914C410.284 192.194 485.816 244.5 470.309 319.061C468.696 326.817 466.995 343.845 456.224 340.919C453.811 340.906 453.776 343.923 453.634 345.806C453.798 349.317 453.804 352.739 453.386 356.233C452.14 356.223 450.857 356.278 449.615 356.194C448.567 357.102 443.125 366.642 441.1 369.607C436.391 369.023 408.778 400.673 403.571 405.586C383.145 424.861 359.676 440.061 339.48 458.62C334.763 462.954 323.426 480.091 317.589 475.336C312.14 470.898 308.372 463.888 302.945 458.979C280.405 438.591 255.811 420.498 234.338 398.913C231.575 396.136 221 383.193 216.759 383.868C207.672 379.718 204.362 372.846 201.997 363.689C199.931 363.713 197.905 363.683 195.845 363.522C191.046 363.298 188.023 356.483 185.997 352.906C164.895 315.64 162.68 269.107 197.035 238.819C228.421 211.149 276.654 215.902 306.858 243.055C311.976 247.656 316.404 253.076 320.935 258.244Z"/>
	<path fill="white" transform="scale(1.6 1.6)" d="M241.325 247.909C244.108 247.478 246.704 249.858 247.289 252.429C249.075 260.279 239.63 260.443 234.632 262.399C210.263 271.94 210.797 294.761 201.699 296.507C182.743 297.197 208.944 253.294 241.325 247.909Z"/>
	<path fill="#3D405B" transform="scale(1.6 1.6)" d="M320.935 258.244C330.167 249.779 332.27 244.178 344.673 235.914C410.284 192.194 485.816 244.5 470.309 319.061C468.696 326.817 466.995 343.845 456.224 340.919L455.446 340.39C455.254 337.423 457.307 333.692 458.072 330.778C465.777 301.419 465.254 268.449 440.811 246.891C410.306 219.987 359.946 227.873 334.405 257.068C325.97 266.71 322.183 274.432 311.487 261.792C294.015 241.146 270.963 228.465 242.908 230.433C202.157 233.292 178.039 268.015 180.994 307.343C181.932 319.825 189.143 343.204 197.221 352.997C200.363 353.284 203.42 352.909 206.558 352.853L259.007 352.678C266.572 352.683 274.633 352.313 282.072 353.857C286.973 343.099 291.868 332.379 297.047 321.752C298.922 317.904 303.463 304.243 309.761 306.554C314.594 310.978 324.519 362.747 326.215 371.271C327.16 376.023 327.663 380.956 328.967 385.617L337.015 364.443C340.084 356.314 343.083 347.04 347.964 339.81C356.649 326.945 363.981 342.622 372.535 345.409C379.204 347.582 444.049 346.071 453.634 345.806C453.798 349.317 453.804 352.739 453.386 356.233C452.14 356.223 450.857 356.278 449.615 356.194C443.12 355.422 436.254 355.831 429.712 355.834L395.091 355.867C380.696 355.878 367.454 356.533 356.246 346.207C348.252 358.646 338.047 391.448 332.95 395.976C329.615 396.732 327.341 396.231 324.167 395.109C317.199 386.113 311.544 340.918 306.62 324.192C301.985 331.962 298.497 341.31 294.989 349.638C287.142 368.268 289.455 362.862 268.717 362.597C244.153 362.283 220.1 363.527 195.845 363.522C191.046 363.298 188.023 356.483 185.997 352.906C164.895 315.64 162.68 269.107 197.035 238.819C228.421 211.149 276.654 215.902 306.858 243.055C311.976 247.656 316.404 253.076 320.935 258.244Z"/>
	<path fill="#BC6C25" transform="scale(1.6 1.6)" d="M195.845 363.522C220.1 363.527 244.153 362.283 268.717 362.597C289.455 362.862 287.142 368.268 294.989 349.638C298.497 341.31 301.985 331.962 306.62 324.192C311.544 340.918 317.199 386.113 324.167 395.109C327.341 396.231 329.615 396.732 332.95 395.976C338.047 391.448 348.252 358.646 356.246 346.207C367.454 356.533 380.696 355.878 395.091 355.867L429.712 355.834C436.254 355.831 443.12 355.422 449.615 356.194C448.567 357.102 443.125 366.642 441.1 369.607C436.391 369.023 408.778 400.673 403.571 405.586C383.145 424.861 359.676 440.061 339.48 458.62C334.763 462.954 323.426 480.091 317.589 475.336C312.14 470.898 308.372 463.888 302.945 458.979C280.405 438.591 255.811 420.498 234.338 398.913C231.575 396.136 221 383.193 216.759 383.868C207.672 379.718 204.362 372.846 201.997 363.689C199.931 363.713 197.905 363.683 195.845 363.522Z"/>
</svg>
