<?xml version="1.0" encoding="utf-8" ?>
<svg xmlns="http://www.w3.org/2000/svg" xmlns:xlink="http://www.w3.org/1999/xlink" width="1024" height="1024">
	<path fill="#F4F1DE" transform="scale(1.6 1.6)" d="M91.0969 271.328C91.2305 268.376 89.275 269.919 89.1159 267.882C88.7975 263.808 91.7345 254.379 92.9522 250.27C142.487 83.1402 353.295 26.7136 482.42 145.793C512.162 173.221 547.936 225.102 549.625 267.23C548.636 267.896 547.678 268.593 546.726 269.309C502.975 242.193 377.493 239.514 338.391 283.647C326.047 282.405 313.738 282.047 301.409 283.715C283.603 265.881 267.103 258.334 241.22 255.95C237.586 255.616 232.794 253.526 230.362 257.16C226.063 258.241 220.445 257.405 216.265 256.066C215.707 246.896 200.305 249.904 193.467 249.912C163.487 249.948 112.717 251.451 91.0969 271.328Z"/>
	<path fill="#F4F1DE" transform="scale(1.6 1.6)" d="M91.0969 271.328C112.717 251.451 163.487 249.948 193.467 249.912C200.305 249.904 215.707 246.896 216.265 256.066C220.445 257.405 226.063 258.241 230.362 257.16C232.794 253.526 237.586 255.616 241.22 255.95C267.103 258.334 283.603 265.881 301.409 283.715C313.738 282.047 326.047 282.405 338.391 283.647C377.493 239.514 502.975 242.193 546.726 269.309C555.438 274.99 556.057 285.396 555.112 294.977C551.506 298.291 547.081 299.334 542.353 300.04C543.053 316.974 551.586 331.463 553.348 347.919C555.128 364.545 550.773 383.507 545.433 399.345C524.4 461.72 473.881 512.83 414.085 539.219C328.359 577.05 225.937 557.926 157.517 494.213C122.629 461.725 72.9731 385.256 88.9923 333.888C92.2247 323.522 99.2623 311.223 99.0635 300.194C93.0874 299.043 84.1417 297.421 84.081 289.817C84.0277 283.142 86.4702 276.158 91.0969 271.328Z"/>
	<path fill="white" transform="scale(1.6 1.6)" d="M389.049 391.354C396.091 394.842 401.119 397.183 409.083 395.116L409.521 395.252C409.236 398.01 409.256 400.599 410.552 403.142C409.693 403.106 385.68 396.974 385.434 396.847C386.888 395.214 387.935 393.227 389.049 391.354Z"/>
	<path fill="#3D405B" transform="scale(1.6 1.6)" d="M91.0969 271.328C112.717 251.451 163.487 249.948 193.467 249.912C200.305 249.904 215.707 246.896 216.265 256.066C215.172 257.662 214.441 259.43 213.198 260.926L212.653 260.934C208.096 260.982 203.556 260.395 199.006 260.216C173.846 259.224 114.723 263.865 99.557 279.104C94.9479 283.735 93.5122 287.842 100.931 288.019C119.544 288.463 116.357 301.473 118.226 315.494C122.417 346.935 131.896 378.71 165.185 390.13C181.736 395.808 218.161 395.642 235.78 392.157C263.318 386.71 282.574 368.302 291.651 341.575C296.566 327.101 300.469 305.252 293.405 291.24C283.97 272.524 249.585 268.529 231.426 263.613C230.693 261.438 230.292 259.478 230.362 257.16C232.794 253.526 237.586 255.616 241.22 255.95C267.103 258.334 283.603 265.881 301.409 283.715C313.738 282.047 326.047 282.405 338.391 283.647C377.493 239.514 502.975 242.193 546.726 269.309C555.438 274.99 556.057 285.396 555.112 294.977C551.506 298.291 547.081 299.334 542.353 300.04C539.404 300.318 536.538 300.707 533.623 301.228L533.514 301.654C531.952 307.895 532.15 317.383 531.431 324.134C524.524 389.055 491.105 404.968 431.983 405.021C424.825 405.027 417.345 405.882 410.552 403.142C409.256 400.599 409.236 398.01 409.521 395.252L410.086 394.478C414.268 392.531 423.487 394.202 428.126 394.317C498.404 396.049 524.266 368.377 521.189 297.833C517.196 297.657 514.151 298.79 514.963 293.743C515.472 292.403 516.193 291.406 517.257 290.458C518.378 290.178 519.491 290.113 520.641 290.028C521.905 290.668 523.075 291.305 524.235 292.127C527.234 291.351 530.232 290.486 533.305 290.063C535.526 289.847 537.772 289.402 539.981 289.067C542.046 288.971 544.091 288.45 546.058 287.849C546.311 285.035 546.202 281.999 544.172 279.822C536.368 270.056 491.686 263.091 479.491 261.738C442.685 257.652 382.888 260.668 352.166 285.358C346.032 290.287 343.879 295.71 343.051 303.396C339.913 332.551 353.63 365.137 377.544 382.476C381.442 385.303 385.79 387.775 389.049 391.354C387.935 393.227 386.888 395.214 385.434 396.847C379.449 398.911 368.116 389.37 363.888 385.615C344.71 368.585 332.966 339.865 331.414 314.233C323.771 313.936 316.149 314.162 308.526 314.712C303.153 358.819 280.693 396.51 233.444 403.256C204.416 407.4 164.244 406.715 140.557 388.74C112.091 367.139 110.603 333.223 106.164 300.952C103.78 300.541 101.481 300.288 99.0635 300.194C93.0874 299.043 84.1417 297.421 84.081 289.817C84.0277 283.142 86.4702 276.158 91.0969 271.328Z"/>
	<path fill="#E07A5F" transform="scale(1.6 1.6)" d="M216.265 256.066C220.445 257.405 226.063 258.241 230.362 257.16C230.292 259.478 230.693 261.438 231.426 263.613C249.585 268.529 283.97 272.524 293.405 291.24C300.469 305.252 296.566 327.101 291.651 341.575C282.574 368.302 263.318 386.71 235.78 392.157C218.161 395.642 181.736 395.808 165.185 390.13C131.896 378.71 122.417 346.935 118.226 315.494C116.357 301.473 119.544 288.463 100.931 288.019C93.5122 287.842 94.9479 283.735 99.557 279.104C114.723 263.865 173.846 259.224 199.006 260.216C203.556 260.395 208.096 260.982 212.653 260.934L213.198 260.926C214.441 259.43 215.172 257.662 216.265 256.066Z"/>
	<path fill="#3D405B" transform="scale(1.6 1.6)" d="M266.62 312.239C269.752 312.177 275.028 313.565 273.87 317.762C272.411 323.049 254.142 349.805 248.212 353.545C245.434 354.164 242.406 353.14 241.407 350.244C239.151 343.702 251.479 331.277 254.942 326.398C258.219 321.781 260.842 314.143 266.62 312.239Z"/>
	<path fill="#3D405B" transform="scale(1.6 1.6)" d="M237.993 303.703C242.49 304.079 246.542 306.903 245.161 311.719C244.633 313.559 204.764 370.878 199.115 373.867C194.81 374.652 193.071 371.913 191.239 368.388C192.969 364.624 195.75 361.406 198.17 358.073L207.492 345.147C217.546 331.244 227.066 316.945 237.993 303.703Z"/>
	<path fill="#E07A5F" transform="scale(1.6 1.6)" d="M389.049 391.354C385.79 387.775 381.442 385.303 377.544 382.476C353.63 365.137 339.913 332.551 343.051 303.396C343.879 295.71 346.032 290.287 352.166 285.358C382.888 260.668 442.685 257.652 479.491 261.738C491.686 263.091 536.368 270.056 544.172 279.822C546.202 281.999 546.311 285.035 546.058 287.849C544.091 288.45 542.046 288.971 539.981 289.067C537.772 289.402 535.526 289.847 533.305 290.063C530.232 290.486 527.234 291.351 524.235 292.127C523.075 291.305 521.905 290.668 520.641 290.028C519.491 290.113 518.378 290.178 517.257 290.458C516.193 291.406 515.472 292.403 514.963 293.743C514.151 298.79 517.196 297.657 521.189 297.833C524.266 368.377 498.404 396.049 428.126 394.317C423.487 394.202 414.268 392.531 410.086 394.478L409.521 395.252L409.083 395.116C401.119 397.183 396.091 394.842 389.049 391.354Z"/>
	<path fill="#F4F1DE" transform="scale(1.6 1.6)" d="M531.547 285.799C533.98 285.914 536.251 285.664 538.616 285.106C539.462 286.371 539.87 287.543 539.981 289.067C537.772 289.402 535.526 289.847 533.305 290.063C532.987 288.395 532.53 287.189 531.547 285.799Z"/>
	<path fill="#CFB9BE" transform="scale(1.6 1.6)" d="M538.616 285.106C544.151 283.681 546.924 285.093 544.01 280.367L544.172 279.822C546.202 281.999 546.311 285.035 546.058 287.849C544.091 288.45 542.046 288.971 539.981 289.067C539.87 287.543 539.462 286.371 538.616 285.106Z"/>
	<defs>
		<linearGradient id="gradient_0" gradientUnits="userSpaceOnUse" x1="518.74957" y1="283.00095" x2="529.86914" y2="292.46579">
			<stop offset="0" stop-color="#E5C1BF"/>
			<stop offset="1" stop-color="#F2F1F6"/>
		</linearGradient>
	</defs>
	<path fill="url(#gradient_0)" transform="scale(1.6 1.6)" d="M518.5 283.035C522.948 283.644 527.196 284.71 531.547 285.799C532.53 287.189 532.987 288.395 533.305 290.063C530.232 290.486 527.234 291.351 524.235 292.127C523.075 291.305 521.905 290.668 520.641 290.028C519.491 290.113 518.378 290.178 517.257 290.458C514.092 287.756 514.018 283.641 518.5 283.035Z"/>
	<path fill="#3D405B" transform="scale(1.6 1.6)" d="M498.541 308.794C503.856 308.806 505.829 315.092 503.149 319.289C500.849 322.89 497.68 325.922 495.208 329.418C490.847 335.586 482.556 352.39 474.893 353.972C459.368 352.081 482.046 329.344 485.957 323.746C489.764 318.298 491.775 311.178 498.541 308.794Z"/>
	<path fill="#3D405B" transform="scale(1.6 1.6)" d="M470.474 301.562C487.307 302.094 461.263 331.279 458.726 334.821L441.772 358.352C438.351 363.085 433.029 373.047 427.201 374.937C423.979 374.802 420.265 371.785 421.2 368.261C421.347 367.706 463.293 305.547 470.474 301.562Z"/>
</svg>
