<?xml version="1.0" encoding="utf-8" ?>
<svg xmlns="http://www.w3.org/2000/svg" xmlns:xlink="http://www.w3.org/1999/xlink" width="1024" height="1024">
	<path fill="#F4F1DE" transform="scale(1.6 1.6)" d="M314.736 81.0835C411.056 79.2903 494.064 132.276 535.96 218.38C572.447 293.368 565.181 386.785 517.421 455.262C472.826 519.199 402.392 556.944 324.922 558.842C237.62 561.774 154.471 512.515 111.837 437.052C65.7745 355.521 72.6122 251.437 129.321 176.744C173.522 118.525 242.109 83.8814 314.736 81.0835Z"/>
	<path fill="#3D405B" transform="scale(1.6 1.6)" d="M458.179 349.444C473.247 353.007 468.089 388.435 465.594 398.962C460.327 421.19 446.688 440.415 427.139 452.306C422.713 454.999 412.794 462.593 408.726 456.467C407.407 452.176 406.571 451.406 411.087 449.428C444.497 434.795 461.016 402.141 457.643 366.286C456.969 359.119 453.016 355.816 458.179 349.444Z"/>
	<path fill="#E07A5F" transform="scale(1.6 1.6)" d="M299.901 411.226C277.57 360.529 309.153 299.205 364.557 291.289C395.112 286.924 415.304 294.167 439.545 312.232C448.245 320.455 455.794 323.25 451.97 334.848C450.857 338.657 454.566 347.192 458.179 349.444C453.016 355.816 456.969 359.119 457.643 366.286C461.016 402.141 444.497 434.795 411.087 449.428C406.571 451.406 407.407 452.176 408.726 456.467C404.866 455.729 396.602 459.253 392.238 459.837C392.486 470.769 367.74 465.073 361.406 463.726C332.519 457.581 311.29 437.677 299.901 411.226Z"/>
	<path fill="#3D405B" transform="scale(1.6 1.6)" d="M379.164 334.036C380.842 334.02 382.912 334.442 383.636 336.178C384.341 337.868 384.506 414.608 383.599 416.312C382.956 417.522 381.502 417.67 380.302 417.929C371.78 417.004 374.778 406.979 374.777 399.31L374.778 372.997C374.78 363.999 371.431 338.486 379.164 334.036Z"/>
	<path fill="#3D405B" transform="scale(1.6 1.6)" d="M299.901 411.226C277.57 360.529 309.153 299.205 364.557 291.289C395.112 286.924 415.304 294.167 439.545 312.232C448.245 320.455 455.794 323.25 451.97 334.848L451.621 334.987C444.947 337.585 441.712 327.337 436.497 322.105C381.85 267.29 279.762 318.619 306.881 401.361C319.041 438.46 350.052 457.691 388.218 456.061C389.704 457.197 390.979 458.465 392.238 459.837C392.486 470.769 367.74 465.073 361.406 463.726C332.519 457.581 311.29 437.677 299.901 411.226Z"/>
	<path fill="#E07A5F" transform="scale(1.6 1.6)" d="M249.051 227.391C251.463 212.223 249.349 201.414 261.87 188.366C282.302 167.076 325.259 167.532 346.149 187.826C357.745 199.093 360.137 211.082 360.333 226.654C388.709 225.344 409.688 214.615 433.997 242.047C443.036 252.247 445.536 266.204 447.536 279.249C448.653 286.532 451.401 294.902 440.158 293.215C438.511 295.426 439.236 309.299 439.545 312.232C415.304 294.167 395.112 286.924 364.557 291.289C309.153 299.205 277.57 360.529 299.901 411.226C295.44 411.738 289.781 412.039 285.41 411.123C285.365 413.373 285.644 416.542 283.668 418.078C281.389 419.849 188.199 417.941 177.778 403.823C161.611 381.921 165.652 317.418 168.17 288.551C170.052 266.985 169.944 247.211 189.625 233.151C208.329 219.789 228.177 224.015 249.051 227.391Z"/>
	<path fill="#3D405B" transform="scale(1.6 1.6)" d="M259.918 300.211C268.062 300.885 281.202 300.129 288.044 301.479C292.443 302.346 294.294 308.071 290.25 310.805C287.647 312.565 260.94 310.719 257.17 308.199L257.755 306.291L259.918 300.211Z"/>
	<path fill="#3D405B" transform="scale(1.6 1.6)" d="M249.051 227.391C251.463 212.223 249.349 201.414 261.87 188.366C282.302 167.076 325.259 167.532 346.149 187.826C357.745 199.093 360.137 211.082 360.333 226.654C388.709 225.344 409.688 214.615 433.997 242.047C443.036 252.247 445.536 266.204 447.536 279.249C448.653 286.532 451.401 294.902 440.158 293.215C439.562 279.103 434.267 254.796 424.192 245.509C402.044 225.094 378.689 235.029 352.697 238.32C319.266 242.554 284.267 241.671 250.839 237.648C230.238 235.169 205.434 227.639 188.849 246.134C180.533 255.408 178.969 271.375 178.377 283.4C193.07 290.189 207.975 294.377 224.006 296.591C242.483 299.143 222.756 293.587 222.64 280.748C222.464 261.177 253.175 262.693 252.594 280.866C252.365 288.058 246.371 291.439 241.349 295.316C241.574 298.008 242.143 300.734 242.265 303.412C242.296 304.386 242.22 305.512 242.399 306.465C242.371 316.297 232.993 323.616 232.343 307.206C210.624 308.083 196.01 298.787 177.008 294.356C174.579 315.966 172.383 380.741 185.62 397.691C191.625 405.381 245.604 408.487 258.904 408.869C263.302 408.996 282.821 407.533 285.41 411.123C285.365 413.373 285.644 416.542 283.668 418.078C281.389 419.849 188.199 417.941 177.778 403.823C161.611 381.921 165.652 317.418 168.17 288.551C170.052 266.985 169.944 247.211 189.625 233.151C208.329 219.789 228.177 224.015 249.051 227.391Z"/>
	<path fill="#FFE700" transform="scale(1.6 1.6)" d="M236.856 274.366C245.2 274.232 243.99 283.798 237.519 286.543C228.773 286.677 229.464 276.791 236.856 274.366Z"/>
	<path fill="white" transform="scale(1.6 1.6)" d="M304.099 182.647L304.42 182.643C335.941 182.428 351.272 197.5 351.122 228.452C336.23 230.479 321.197 230.803 306.195 231.114C290.256 230.555 274.662 230.277 258.743 228.485C258.804 197.106 272.852 183.593 304.099 182.647Z"/>
	<path fill="#3D405B" transform="scale(1.6 1.6)" d="M297.283 199.213C300.898 199.274 338.235 196.294 326.61 208.84C325.231 210.329 315.621 209.519 313.036 209.543C308.07 209.471 284.548 210.465 281.858 208.141C280.07 206.596 280.714 202.39 282.28 200.923C285.17 198.216 293.42 199.221 297.283 199.213Z"/>
</svg>
