<?xml version="1.0" encoding="utf-8" ?>
<svg xmlns="http://www.w3.org/2000/svg" xmlns:xlink="http://www.w3.org/1999/xlink" width="1024" height="1024">
	<path fill="#F4F1DE" transform="scale(1.6 1.6)" d="M309.554 80.4442C443.729 72.9362 558.181 182.437 559.641 316.86C560.371 384.115 536.705 442.25 489.555 490.224C450.3 530.165 387.693 559.245 331.361 559.695C318.019 559.792 304.769 559.906 291.483 558.478C230.59 551.93 170.981 518.815 133.064 470.583C64.0517 382.795 61.6184 254.763 135.077 167.911C174.089 121.786 224.284 92.1278 284.553 82.7663C292.82 81.4822 301.225 81.1475 309.554 80.4442Z"/>
	<path fill="#3D405B" transform="scale(1.6 1.6)" d="M208.425 264.776C216.408 253.118 243.544 246.537 256.871 246.579C258.181 248.256 259.223 249.992 260.074 251.939C252.975 256.78 236.088 257.888 226.846 261.833C221.205 264.242 216.678 270.635 210.371 271.268C209.585 269.072 208.823 267.091 208.425 264.776Z"/>
	<path fill="#3D405B" transform="scale(1.6 1.6)" d="M294.756 121.689C377.564 115.577 349.932 244.095 302.111 253.947C259.471 260.641 233.464 172.108 259.552 140.202C268.665 129.057 280.593 123.181 294.756 121.689Z"/>
	<path fill="#E07A5F" transform="scale(1.6 1.6)" d="M294.59 130.122C312.141 127.434 331.813 136.45 337.07 154.185C344.478 179.173 331.608 236.541 301.896 245.153C259.326 252.627 230.742 137.129 294.59 130.122Z"/>
	<path fill="#3D405B" transform="scale(1.6 1.6)" d="M336.576 250.835C337.002 248.923 337.309 247.418 338.669 245.959C342.043 244.23 362.698 249.489 367.273 250.95C379.609 254.89 389.216 262.487 395.214 274.126C398.462 280.427 407.902 302.892 398.886 307.265C399.551 309.695 399.75 312.011 399.748 314.525C400.071 315.792 400.013 317.016 399.997 318.312C414.778 321.426 422.456 334.084 422.152 348.432L444.503 348.408C452.075 348.407 465.282 346.715 467.118 357.117C469.004 367.796 467.795 400.201 467.626 412.092C467.575 415.684 465.195 416.079 461.941 416.729C461.119 418.59 461.377 426.795 461.363 429.219C463.377 429.246 466.385 429.544 467.134 431.819C467.86 434.023 467.776 472.916 467.35 477.495C466.093 490.983 454.613 489.039 444.848 489.007L348.209 488.997C336.68 488.999 325.039 489.363 313.522 488.987C300.707 488.568 299.849 480.75 299.82 469.686C273.565 469.429 250.974 468.026 224.624 464.573L222.044 466.069C210.786 459.647 189.253 462.006 180.251 453.192C172.949 446.043 176.62 433.669 177.58 424.688L187.004 332.419C187.784 325.234 190.02 291.952 194.949 287.314C196.436 285.914 198.171 285.941 200.091 286.072C203.604 282.793 204.648 275.365 210.371 271.268C216.678 270.635 221.205 264.242 226.846 261.833C236.088 257.888 252.975 256.78 260.074 251.939C265.144 255.795 280.752 266.829 286.745 266.536C289.869 266.025 293.34 266.422 296.497 266.572L301.851 266.559C306.375 266.407 310.68 266.094 315.024 264.749C318.059 263.017 334.095 252.991 336.576 250.835Z"/>
	<path fill="#877C44" transform="scale(1.6 1.6)" d="M296.538 270.242C298.176 270.38 299.438 271.161 301.004 271.502C302.003 274.465 296.129 273.752 296.538 270.242Z"/>
	<path fill="#F8F501" transform="scale(1.6 1.6)" d="M295.817 277.219L302.328 277.181C301.304 303.279 305.585 326.901 305.347 352.034C303.467 353.45 301.604 354.872 299.789 356.37C298.04 356.887 291.825 359.288 290.466 358.836C291.349 352.989 290.98 346.932 291.515 341.027C293.445 319.717 295.013 298.626 295.817 277.219Z"/>
	<path fill="#F4F1DE" transform="scale(1.6 1.6)" d="M357.07 348.562C359.076 328.5 375.881 326.743 393.111 327.773C405.793 328.473 414.451 334.102 413.146 347.763C411.866 347.738 410.508 347.808 409.241 347.657C391.503 347.798 374.8 347.958 357.07 348.562Z"/>
	<path fill="#E07A5F" transform="scale(1.6 1.6)" d="M315.024 264.749C318.059 263.017 334.095 252.991 336.576 250.835C347.397 260.662 377.153 252.053 388.435 278.585C391.552 285.915 392.155 293.996 395.26 301.23C398.44 308.638 397.88 307.424 399.33 314.424C399.443 315.769 399.298 317.101 399.197 318.442C374.063 319.346 350.923 317.202 348.701 348.454C337.38 348.371 326.083 348.541 314.766 348.664C313.157 325.675 309.624 302.368 310.341 279.347C311.464 278.169 312.732 277.135 313.962 276.072C314.833 272.589 316.054 268.3 315.024 264.749Z"/>
	<path fill="#E07A5F" transform="scale(1.6 1.6)" d="M308.768 357.521C319.861 355.835 331.592 356.559 342.797 356.559L434.716 356.551C442.534 356.55 451.249 355.764 458.899 357.362C460.357 374.002 461.195 382.393 448.657 394.612C430.662 412.149 410.112 409.954 387.249 409.605C387.9 392.485 378.467 390.062 378.756 408.671C368.054 408.571 369.51 416.28 376.446 417.634C376.748 419.115 377.047 420.559 377.536 421.993C380.619 425.04 386.57 423.386 387.601 417.636C415.143 418.089 439.872 420.988 458.718 396.11C459.061 401.49 458.696 412.43 461.941 416.729C461.119 418.59 461.377 426.795 461.363 429.219C458.074 432.686 459.084 439.947 459.096 444.264L459.187 464.696C459.271 471.815 462.042 480.521 453.304 480.786C448.117 480.943 442.824 480.363 437.611 480.359L335.602 480.361C328.435 480.365 315.158 481.181 308.931 479.664C306.943 474.365 307.816 451.506 307.816 444.709L307.951 393.274C315.236 402.808 324.804 409.69 335.924 414.123C346.447 418.318 348.952 420.205 351.567 410.092C336.083 404.681 326.514 403.873 314.316 389.34C306.874 380.475 307.776 368.43 308.768 357.521Z"/>
	<path fill="#E07A5F" transform="scale(1.6 1.6)" d="M260.074 251.939C265.144 255.795 280.752 266.829 286.745 266.536C285.785 275.511 286.768 286.647 286.571 295.92C286.259 310.608 284.704 330.78 282.882 345.433C282.165 351.199 278.974 357.748 284.36 361.178C287.089 361.448 289.55 361.947 290.466 358.836C291.825 359.288 298.04 356.887 299.789 356.37C299.571 362.313 299.698 368.272 299.65 374.218L299.667 429.916C299.667 440.477 299.803 451.036 299.321 461.588C280.176 460.75 247.6 461.172 229.364 456.358C236.815 423.901 237.81 394.975 237.798 361.923C237.797 359.215 239.927 338.989 232.58 343.621C228.035 346.486 229.787 353.366 229.795 357.943C229.853 392.206 229.043 422.237 220.801 456.186C213.1 454.25 191.712 451.112 186.597 447.335C182.715 444.47 185.586 430.088 185.973 425.96L188.553 399.409C191.373 370.042 193.936 340.69 197.747 311.426C198.508 305.583 204.208 288.864 200.091 286.072C203.604 282.793 204.648 275.365 210.371 271.268C216.678 270.635 221.205 264.242 226.846 261.833C236.088 257.888 252.975 256.78 260.074 251.939Z"/>
</svg>
