<?xml version="1.0" encoding="utf-8" ?>
<svg xmlns="http://www.w3.org/2000/svg" xmlns:xlink="http://www.w3.org/1999/xlink" width="1023" height="1023">
	<path fill="#F4F1DE" transform="scale(1.6 1.6)" d="M317.447 80.4452C447.604 78.8732 557.293 182.168 560.168 313.435C561.657 381.388 537.878 439.288 491.621 487.611C445.349 535.948 388.013 558.444 322.422 559.905C262.523 560.783 203.67 538.626 159.026 498.68C73.6724 422.311 55.5078 292.992 115.628 195.192C152.69 134.904 215.085 92.6995 285.484 82.8112C296.058 81.326 306.795 81.015 317.447 80.4452Z"/>
	<path fill="#3D405B" transform="scale(1.6 1.6)" d="M314.644 267.982C317.023 262.808 318.818 254.445 320.788 248.577C330.329 220.168 352.016 173.408 388.298 176.317C409.042 177.98 419.411 198.503 417.841 217.502C416.03 239.422 402.945 251.757 387.449 264.799C414.739 263.688 441.919 265.375 469.91 263.607C473.832 263.359 484.87 260.924 486.807 265.81C488.11 269.097 485.77 271.178 482.9 271.986C483.203 278.979 484.366 296.249 485.364 302.608C492.856 304.685 488.885 318.157 486.688 322.7C484.835 326.53 478.989 327.664 475.407 329.342C474.156 345.987 467.074 461.409 458.434 468.957C452.188 474.413 430.866 472.782 422.37 472.782L224.143 472.77C211.514 472.775 175.258 477.808 171.234 462.002C169.828 456.48 165.632 425.627 171.557 422.338C171.652 418.887 171.575 415.459 170.907 412.063C165.352 409.512 166.332 394.354 165.714 388.281C163.911 370.577 162.179 352.869 161.007 335.112L160.82 334.918C149.32 322.99 152.322 304.712 152.648 288.861C153.368 253.951 170.42 262.186 196.896 264.122C211.498 265.19 226.166 265.928 240.792 266.606C219.928 254.086 204.2 223.744 215.887 200.25C224.756 182.42 245.375 174.87 263.26 184.069C291.332 198.507 305.488 239.097 314.644 267.982Z"/>
	<path fill="#DDB280" transform="scale(1.6 1.6)" d="M296.417 277.636C298.562 277.61 310.882 276.773 312.188 278.071C312.57 281.897 310.003 281.028 307.007 280.893C304.254 280.698 292.508 281.457 291.312 278.973C292.407 277.423 294.744 277.687 296.417 277.636Z"/>
	<path fill="#F4F1DE" transform="scale(1.6 1.6)" d="M244.672 187.909C272.939 184.072 295.457 234.415 304.88 257.446C302.57 254.357 279.124 219.953 276.116 232.171C274.981 236.779 283.965 243.119 286.677 245.918C293.275 252.728 300.017 260.643 305.037 268.686C303.274 268.557 301.517 268.363 299.758 268.18C284.476 265.37 273.14 248.907 269.037 249.256C266.768 249.449 264.879 252.045 265.404 254.257C266.457 258.697 278.604 265.281 282.585 267.863C265.454 267.387 257.232 268.352 243.168 258.766C216.389 240.514 207.069 194.813 244.672 187.909Z"/>
	<path fill="#F4F1DE" transform="scale(1.6 1.6)" d="M382.651 184.149C394.662 182.897 405.101 190.516 408.777 201.879C416.029 224.292 400.249 245.778 382.666 258.121C376.271 262.611 371.548 260.159 377.566 268.811C362.042 267.888 345.521 264.161 330.134 268.109C340.573 258.612 348.894 247.187 358.872 237.25C361.339 234.903 365.32 229.808 368.823 229.477L369.418 229.418C373.666 229.035 371.633 220.519 366.619 221.164C359.151 222.123 330.072 257.665 324.137 264.657C326.171 259.18 327.524 253.408 329.378 247.858C337.366 223.955 355.206 188.869 382.651 184.149Z"/>
	<path fill="#E07A5F" transform="scale(1.6 1.6)" d="M237.935 331.593C232.518 330.059 226.713 331.18 221.188 331.3C209.087 331.564 166.995 333.38 162.529 325.584C158.414 318.4 159.749 282.222 161.764 275.187C164.386 266.032 190.71 271.711 198.329 272.284C213.436 273.42 228.687 274.162 243.827 274.681C257.146 275.137 271.154 273.513 284.294 275.854C283.135 277.802 282.307 279.503 281.853 281.752C284.03 292.037 304.507 288.915 312.308 289.125C312.013 303.246 312.351 317.357 311.909 331.478C298.105 330.842 274.054 330.1 260.304 331.312L259.84 331.77L259.615 334.518L259.187 336.909C256.795 337.984 242.972 337.69 239.962 337.402C240.015 334.983 239.367 333.498 237.935 331.593Z"/>
	<path fill="#FCB89E" transform="scale(1.6 1.6)" d="M237.935 331.593C240.192 331.064 257.474 330.797 259.587 331.317L259.84 331.77L259.615 334.518L259.187 336.909C256.795 337.984 242.972 337.69 239.962 337.402C240.015 334.983 239.367 333.498 237.935 331.593Z"/>
	<path fill="#E07A5F" transform="scale(1.6 1.6)" d="M239.962 337.402C242.972 337.69 256.795 337.984 259.187 336.909L259.615 334.518C259.341 343.655 272.382 339.819 281.565 339.808L311.941 339.743C311.047 360.237 311.668 380.832 311.518 401.344C311.363 422.524 310.483 443.782 310.906 464.951L231.919 464.997C223.59 464.996 184.601 467.256 179.668 461.873C176.68 458.613 176.832 430.755 175.826 424.474C174.427 423.474 173.205 422.819 171.557 422.338C171.652 418.887 171.575 415.459 170.907 412.063L175.331 411.092C175.703 389.001 170.682 361.374 169.481 338.395C187.079 339.756 203.867 339.77 221.469 339.802C228.172 339.814 234.387 341.705 239.962 337.402Z"/>
	<path fill="#E07A5F" transform="scale(1.6 1.6)" d="M320.32 289.99C322.046 290.038 355.986 292.056 349.088 281.994C346.114 277.656 326.517 282.941 322.228 281.122C320.493 280.385 321.618 278.118 322.861 277.472C328.709 274.433 378.018 274.978 389.506 274.666L424.39 273.556C432.01 273.249 479.171 270.634 482.9 271.986C483.203 278.979 484.366 296.249 485.364 302.608C480.258 303.232 481.7 311.492 480.537 316.263C476.361 333.394 431.454 325.996 418.022 330.225C417.333 332.927 416.516 335.049 417.256 337.823C432.203 336.909 452.273 338.922 466.508 335.368C465.941 351.303 459.429 451.174 452.511 463.762C446.831 464.677 440.514 464.175 434.748 464.173L342.226 464.155C334.493 464.155 326.689 464.627 318.976 464.395C318.58 427.358 318.105 388.601 319.267 351.556C319.395 347.499 319.037 343.729 319.721 339.68C335.254 339.451 351.354 338.69 366.655 338.7L392.612 338.716C400.115 338.719 407.628 338.938 415.068 337.793C415.126 335.286 414.88 332.828 414.635 330.338C410.304 329.804 405.738 330.292 401.37 330.304C388.065 330.341 376.101 330.795 362.961 331.249C348.686 331.743 334.347 331.014 320.057 331.408C320.599 317.627 320.074 303.784 320.32 289.99Z"/>
</svg>
