<?xml version="1.0" encoding="utf-8" ?>
<svg xmlns="http://www.w3.org/2000/svg" xmlns:xlink="http://www.w3.org/1999/xlink" width="1024" height="1024">
	<path fill="#F4F1DE" transform="scale(1.6 1.6)" d="M124.51 433.716C123.483 432.021 123.162 429.943 121.949 428.37C115.705 420.272 104.733 417.045 100.166 409.283C95.6566 401.619 92.5368 390.474 90.2701 381.793C79.8981 342.07 79.3646 297.878 90.0785 258.151C114.198 168.714 191.709 98.8148 283.323 84.622C380.526 69.5636 478.058 115.792 527.168 201.732C572.765 281.523 567.764 376.93 517.709 452.687C474.162 518.591 398.988 558.522 320.114 558.507C259.559 558.495 202.992 534.8 157.449 495.794C150.526 493.198 144.574 487.578 139.445 482.367C125.053 467.742 124.387 452.802 124.51 433.716Z"/>
	<path fill="#3D405B" transform="scale(1.6 1.6)" d="M218.634 338.533C218.797 331.301 220.316 283.9 234.469 290.309C234.927 292.346 228.494 322.467 227.801 328.322C226.956 335.46 230.681 339.041 223.89 343.592C221.747 342.117 220.052 340.782 218.634 338.533Z"/>
	<path fill="#3D405B" transform="scale(1.6 1.6)" d="M407.579 289.254C410.363 288.835 412.014 288.933 414.46 290.378C422.276 302.937 429.117 355.202 414.889 365.926C412.371 365.969 410.13 363.735 408.459 362.091C417.442 338.747 418.249 327.789 410.299 302.182C409.007 298.02 406.831 293.683 407.579 289.254Z"/>
	<path fill="#3D405B" transform="scale(1.6 1.6)" d="M243.971 480.01C251.023 471.678 255.597 480.099 264.515 484.608C283.853 494.383 295.775 494.704 316.01 493.875C317.268 494.974 318.235 496.085 319.244 497.406C320.585 505.413 311.185 503.462 305.802 503.462C293.459 503.461 246.671 492.293 243.971 480.01Z"/>
	<path fill="#3D405B" transform="scale(1.6 1.6)" d="M265.9 158.077C253.528 161.309 253.434 140.686 267.341 138.863C274.751 137.892 283.104 140.139 291.125 138.31C301.88 135.857 307.553 122.128 326.783 126.324C336.593 128.465 344.175 137.464 352.312 138.739C359.861 139.922 371.674 136.727 377.782 141.426C383.449 145.785 385.87 157.308 375.555 158.617L374.967 158.322C370.652 145.672 380.153 148.171 359.821 147.744C342.155 147.374 339.004 138.333 325.797 135.256C311.26 131.87 306.814 142.277 295.062 145.689C285.338 148.512 275.079 146.146 265.229 147.401C265.618 150.848 266.307 154.631 265.9 158.077Z"/>
	<path fill="#3D405B" transform="scale(1.6 1.6)" d="M268.865 162.423C276.493 162.78 277.611 173.838 281.034 180.892C285.029 189.124 289.376 197.203 293.602 205.318L330.235 205.329C336.011 205.316 341.999 204.776 347.736 205.283C349.631 200.145 365.715 164.423 368.133 162.964C369.356 163.421 370.613 163.84 371.784 164.42C372.913 165.933 373.878 167.08 373.537 169.094C372.567 174.822 360.44 197.799 356.559 205.462C363.315 205.324 370.572 205.238 377.263 206.168C377.506 208.433 377.918 210.914 377.284 213.134C375.138 215.429 359.042 214.106 356.027 213.77C365.223 228.321 377.661 240.592 388.944 253.518C392.377 257.451 403.978 266.359 397.387 272.057C390.862 272.219 382.175 258.715 378.353 254.335C367.418 241.806 355.25 229.523 347.471 214.663C337.668 214.827 327.821 214.26 318.003 214.259L303.286 214.301C300.284 214.318 297.129 214.536 294.155 214.142C290.949 225.383 256.523 264.598 244.727 271.425C243.092 269.645 242.358 267.991 241.58 265.748C244.018 261.392 248.06 258.023 251.357 254.325C261.694 242.729 277.715 226.52 285.03 213.947C284.585 213.939 255.014 216.216 263.702 207.053C266.468 204.135 279.673 205.307 284.179 205.337C279.761 194.917 260.072 170.248 268.865 162.423Z"/>
	<path fill="#BC6C25" transform="scale(1.6 1.6)" d="M265.229 147.401C275.079 146.146 285.338 148.512 295.062 145.689C306.814 142.277 311.26 131.87 325.797 135.256C339.004 138.333 342.155 147.374 359.821 147.744C380.153 148.171 370.652 145.672 374.967 158.322L375.555 158.617L374.239 158.796C372.122 158.901 368.676 159.932 367.896 162.191L368.133 162.964C365.715 164.423 349.631 200.145 347.736 205.283C341.999 204.776 336.011 205.316 330.235 205.329L293.602 205.318C289.376 197.203 285.029 189.124 281.034 180.892C277.611 173.838 276.493 162.78 268.865 162.423C269.048 160.164 267.607 159.269 265.9 158.077C266.307 154.631 265.618 150.848 265.229 147.401Z"/>
	<path fill="#BC6C25" transform="scale(1.6 1.6)" d="M294.155 214.142C297.129 214.536 300.284 214.318 303.286 214.301L318.003 214.259C327.821 214.26 337.668 214.827 347.471 214.663C355.25 229.523 367.418 241.806 378.353 254.335C382.175 258.715 390.862 272.219 397.387 272.057L397.564 272.332C401.184 277.877 406.338 282.448 407.579 289.254C406.831 293.683 409.007 298.02 410.299 302.182C418.249 327.789 417.442 338.747 408.459 362.091C410.13 363.735 412.371 365.969 414.889 365.926L415.749 365.973C417.043 367.664 417.26 379.835 417.31 382.582C417.947 386.657 417.519 390.866 418.183 394.958C434.601 390.067 448.209 379.294 462.243 369.89C471.358 363.782 499.147 344.783 509.055 342.27C520.801 339.291 535.925 351.333 528.336 363.187C522.703 371.985 486.807 401.372 476.444 410.614C462.927 422.671 449.421 435.05 434.891 445.878C413.18 462.057 374.71 486.041 349.29 496.132C347.371 495.013 346.071 494.016 344.875 492.089C344.067 491.838 324.387 495.917 319.244 497.406C318.235 496.085 317.268 494.974 316.01 493.875C295.775 494.704 283.853 494.383 264.515 484.608C255.597 480.099 251.023 471.678 243.971 480.01C243.187 477.497 233.763 478.047 231.245 477.495C225.02 476.132 217.695 470.683 211.638 470.995C207.484 471.209 200.997 474.88 194.708 475.744C194.94 489.472 195.044 488.983 181.487 488.996C173.918 489.004 166.073 488.603 158.554 489.443C158.426 491.639 158.26 493.717 157.449 495.794C150.526 493.198 144.574 487.578 139.445 482.367C125.053 467.742 124.387 452.802 124.51 433.716C128.086 421.22 121.571 382.961 125.673 371.686C128.213 364.703 190.631 368.384 192.469 369.231C195.157 372.44 194.727 379.544 194.677 383.51C202.643 380.27 219.914 374.235 228.099 373.345C223.115 363.625 221.353 354.4 223.89 343.592C230.681 339.041 226.956 335.46 227.801 328.322C228.494 322.467 234.927 292.346 234.469 290.309C237.072 283.657 240.2 276.994 244.727 271.425C256.523 264.598 290.949 225.383 294.155 214.142Z"/>
	<path fill="#856E71" transform="scale(1.6 1.6)" d="M415.749 365.973C417.043 367.664 417.26 379.835 417.31 382.582L417.129 383.009C415.937 381.133 414.787 367.928 415.749 365.973Z"/>
	<path fill="#3D405B" transform="scale(1.6 1.6)" d="M321.65 248.967C327.989 250.873 327.647 256.032 327.19 261.808C354.937 268.824 347.047 291.923 338.773 278.926C326.96 260.372 299.974 276.034 306.266 292.818C310.622 304.438 325.892 302.14 335.221 306.684C357.834 317.696 352.341 347.518 326.32 356.065C327.062 361.142 327.271 365.846 321.884 368.044C318.21 367.513 317.49 365.502 316.456 362.136C316.912 360.315 317.495 358.582 318.129 356.818C311.167 354.95 287.809 343.001 300.408 335.201C304.429 335.614 310.678 353.2 326.998 347.695C337.372 344.196 343.489 333.165 339.526 322.616C334.709 309.795 321.324 313.508 311.622 309.046C290.466 299.318 294.138 270.507 318.414 262.018C317.852 257.378 317.977 252.371 321.65 248.967Z"/>
	<path fill="#3D405B" transform="scale(1.6 1.6)" d="M418.183 394.958C434.601 390.067 448.209 379.294 462.243 369.89C471.358 363.782 499.147 344.783 509.055 342.27C520.801 339.291 535.925 351.333 528.336 363.187C522.703 371.985 486.807 401.372 476.444 410.614C462.927 422.671 449.421 435.05 434.891 445.878C413.18 462.057 374.71 486.041 349.29 496.132C347.371 495.013 346.071 494.016 344.875 492.089C345.286 487.046 359.414 481.843 364.147 479.219C390.839 464.422 417.378 449.424 440.987 429.944C462.892 411.87 484.889 392.115 505.89 372.916C509.624 369.502 523.831 359.601 520.851 354.412C518.493 350.309 513.726 349.209 509.597 350.921C497.286 356.026 472.446 373.507 460.377 381.532C417.496 410.044 417.408 405.765 368.503 411.783C352.907 413.702 337.438 416.604 321.838 418.474C311.619 419.698 312.202 411.946 317.332 410.567C330.438 407.045 359.178 404.286 373.034 402.7C389.126 400.857 402.718 400.403 418.183 394.958Z"/>
	<path fill="#3D405B" transform="scale(1.6 1.6)" d="M124.51 433.716C128.086 421.22 121.571 382.961 125.673 371.686C128.213 364.703 190.631 368.384 192.469 369.231C195.157 372.44 194.727 379.544 194.677 383.51C202.643 380.27 219.914 374.235 228.099 373.345C245.478 372.047 258.055 372.043 275.149 377.088C301.049 384.733 290.998 384.887 318.909 379.341C334.782 376.187 382.767 368.53 393.27 370.035C404.921 371.704 408.046 387.303 402.159 391.539C397.23 395.085 396.245 380.085 395.201 379.126C390.556 374.866 355.428 382.485 347.906 383.626L315.254 388.608C298.149 391.307 298.657 393.565 282.608 387.884C251.973 377.04 224.158 380.481 194.147 392.724C194.834 398.29 197.411 427.486 191.806 429.307C190.486 432.885 190.759 437.111 190.794 440.876C192.736 441.715 193.721 443.112 194.863 444.838C194.529 455.114 194.594 465.463 194.708 475.744C194.94 489.472 195.044 488.983 181.487 488.996C173.918 489.004 166.073 488.603 158.554 489.443C158.426 491.639 158.26 493.717 157.449 495.794C150.526 493.198 144.574 487.578 139.445 482.367C125.053 467.742 124.387 452.802 124.51 433.716Z"/>
</svg>
