<?xml version="1.0" encoding="utf-8" ?>
<svg xmlns="http://www.w3.org/2000/svg" xmlns:xlink="http://www.w3.org/1999/xlink" width="1024" height="1024">
	<path fill="#F4F1DE" transform="scale(1.6 1.6)" d="M312.407 83.9213L317.014 83.7799C377.76 82.35 437.726 105.592 481.667 147.595C567.494 229.638 581.557 354.243 516.163 452.731C475.022 514.693 402.401 555.052 327.944 556.55C262.06 556.694 205.379 537.348 156.766 491.005C98.3619 435.329 72.6589 354.948 87.9371 275.325C108.58 167.744 203.08 86.4343 312.407 83.9213Z"/>
	<path fill="#3D405B" transform="scale(1.6 1.6)" d="M142.272 454.04C148.05 453.776 150.024 462.174 144.108 462.988C137.272 462.18 136.6 456.976 142.272 454.04Z"/>
	<path fill="#3D405B" transform="scale(1.6 1.6)" d="M185.281 384.018C184.684 381.926 185.312 380.198 187.364 379.278C189.771 378.2 243.391 373.622 246.567 381.533C243.307 389.425 226.525 385.41 218.47 385.42C209.624 385.43 191.095 389.403 185.281 384.018Z"/>
	<path fill="#3D405B" transform="scale(1.6 1.6)" d="M444.993 155.327C449.313 155.24 454.286 170.337 456.044 173.804C457.885 177.437 469.259 196.926 468.901 199.773C467.774 201.496 465.666 201.893 463.813 202.499C459.259 198.997 448.463 174.543 444.41 167.89C419.289 208.696 395.361 236.468 355.821 265.192C310.568 298.066 251.891 326.937 194.932 330.025C192.142 329.87 187.343 328.071 189.795 324.306C192.492 320.164 207.486 321.275 212.022 320.775C261.209 315.343 329.079 277.913 365.815 247.997C386.961 230.777 421.693 194.966 434.684 169.785C425.935 174.903 413.257 183.303 404.714 187.355C401.563 188.85 398.035 185.267 398.83 182.081C399.863 180.607 437.704 157.573 444.993 155.327Z"/>
	<path fill="#3D405B" transform="scale(1.6 1.6)" d="M372.382 335.356C370.789 333.142 370.124 305.178 374.078 302.628C384.013 296.222 480.97 294.446 486.44 304.448C487.962 307.231 487.169 329.365 487.201 333.721C497.718 333.681 496.282 340.999 487.119 343.938C486.997 354.172 487.191 364.425 487.18 374.662C497.925 374.599 499.441 381.796 487.645 383.889C486.606 393.761 486.89 404.757 487.45 414.679C497.031 414.689 496.292 420.611 487.787 423.879C488.453 433.747 488.389 445.318 488.567 455.31C493.302 454.936 499.859 453.299 502.262 458.715C501.509 464.455 486.817 463.889 482.582 464.485C453.448 468.586 435.271 473.183 404.104 468.672C397.35 467.694 379.771 465.27 374.267 462.154C349.534 471.425 316.936 471.938 290.937 468.023C284.001 466.979 277.264 464.848 270.362 463.805C267.003 468.329 264.076 466.415 261.245 462.393C257.077 462.535 252.597 463.157 248.463 462.83C251.139 471.58 217.907 470.569 212.832 470.708C201.277 471.024 165.2 468.942 157.371 461.107C153.621 457.355 155.321 428.875 155.234 422.298C146.768 421.615 146.844 413.683 155.166 413.652C155.331 408.321 154.029 383.949 157.854 382.152C160.209 381.046 163.12 383.759 163.767 385.842C167.498 386.42 180.07 384.192 185.281 384.018C191.095 389.403 209.624 385.43 218.47 385.42C226.525 385.41 243.307 389.425 246.567 381.533C250.113 381.083 253.602 382.158 256.861 380.087C258.35 378.599 259.875 377.152 261.405 375.706C261.163 368.783 260.699 353.872 261.628 347.244C262.252 342.791 266.282 341.731 270.18 340.937C280.682 338.796 344.606 334.59 346.011 342.264C348.553 342.909 358.418 342.244 359.532 343.113C360.939 342.54 362.17 341.838 363.456 341.046C366.388 338.281 368.351 336.279 372.431 335.554L372.382 335.356Z"/>
	<path fill="#BC6C25" transform="scale(1.6 1.6)" d="M269.97 425.58C300.318 434.752 341.863 432.456 372.107 426.055C371.017 435.664 372.682 445.876 371.405 455.081C353.904 463.31 316.192 463.57 297.027 460.907C287.935 459.643 279.139 456.885 270.087 455.46C269.773 445.535 269.849 435.51 269.97 425.58Z"/>
	<path fill="#BC6C25" transform="scale(1.6 1.6)" d="M480.133 425.037L480.294 425.074C481.619 426.444 480.749 452.433 480.943 456.082C442.832 462.954 421.487 465.752 381.325 456.626C378.588 455.954 379.981 430.048 379.991 425.271C405.494 433.299 455.799 431.799 480.133 425.037Z"/>
	<path fill="#BC6C25" transform="scale(1.6 1.6)" d="M480.586 384.778L480.634 384.809L480.719 384.703C481.469 386.271 481.075 411.547 481.215 415.455C446.552 425.038 415.889 423.98 381.316 416.482C380.827 416.431 380.332 416.283 379.852 416.175C379.119 408.817 379.802 393.286 380.167 385.838C389.586 386.657 398.989 388.75 408.43 389.77C432.626 392.386 456.892 390.169 480.586 384.778Z"/>
	<path fill="#BC6C25" transform="scale(1.6 1.6)" d="M269.977 384.079C303.883 394.72 337.289 392.807 371.816 386.345C370.973 394.094 373.118 411.827 372.155 416.24L371.475 416.586C334.834 429.831 305.212 422.024 270.007 417.051C269.725 407.247 269.322 393.766 269.977 384.079Z"/>
	<path fill="#BC6C25" transform="scale(1.6 1.6)" d="M162.499 424.576C189.2 432.551 235.12 431.34 261.242 425.307C261.501 432.341 262.496 456.099 261.245 462.393C257.077 462.535 252.597 463.157 248.463 462.83C242.743 457.655 233.76 461.667 225.951 462.223C205.219 463.7 182.473 462.985 162.854 455.657C162.3 445.325 162.533 434.922 162.499 424.576Z"/>
	<path fill="#BC6C25" transform="scale(1.6 1.6)" d="M256.861 380.087C258.527 380.657 259.883 381.917 261.256 382.99C261.609 394.094 261.572 405.028 262.303 416.126C229.144 421.22 209.611 425.145 174.204 418.848C170.542 418.197 166.865 417.361 163.157 417.044C163.329 411.936 162.77 388.52 163.767 385.842C167.498 386.42 180.07 384.192 185.281 384.018C191.095 389.403 209.624 385.43 218.47 385.42C226.525 385.41 243.307 389.425 246.567 381.533C250.113 381.083 253.602 382.158 256.861 380.087Z"/>
	<path fill="#BC6C25" transform="scale(1.6 1.6)" d="M346.011 342.264C348.553 342.909 358.418 342.244 359.532 343.113C360.156 344.135 360.57 344.801 361.772 345.197L362.285 345.216C365.35 345.578 368.443 345.866 371.493 346.335C371.62 356.538 371.686 366.77 371.508 376.971C334.925 385.033 306.294 386.952 269.072 376.051L269.051 348.861C286.065 345.854 311.656 346.429 329.055 346.507C334.199 346.531 339.874 347.775 344.922 347.098C345.162 345.484 345.262 343.73 346.011 342.264Z"/>
	<path fill="#BC6C25" transform="scale(1.6 1.6)" d="M379.194 334.527L379.245 334.088C379.784 329.247 380.106 321.534 379.962 316.635C379.629 305.347 377.566 308.144 391.243 307.001C420.52 304.555 450.818 304.43 479.947 308.62C479.455 317.649 479.7 326.784 479.744 335.827C476.134 336.313 472.23 336.986 469.115 338.968L468.722 339.213C468.644 339.262 468.568 339.314 468.491 339.365C468.453 341.267 468.443 343.155 468.502 345.056C472.316 345.737 475.764 345.514 479.597 345.224C479.796 355.351 479.171 365.733 480.076 375.808C474.854 376.732 469.784 378.364 464.564 379.315C439.858 383.819 415.762 383.778 391.187 379.217C387.605 378.552 383.861 377.598 380.232 377.373C379.606 366.864 379.97 356.179 379.98 345.651C389.296 346.85 440.984 352.989 448.401 348.444C448.858 347.507 449.35 346.572 449.733 345.602C445.59 337.337 430.69 341.525 421.013 341.028C408.18 340.369 384.946 338.63 372.431 335.554L372.382 335.356C374.789 335.488 376.861 335.062 379.194 334.527Z"/>
</svg>
