<?xml version="1.0" encoding="utf-8" ?>
<svg xmlns="http://www.w3.org/2000/svg" xmlns:xlink="http://www.w3.org/1999/xlink" width="1023" height="1023">
	<path fill="#F4F1DE" transform="scale(1.6 1.6)" d="M308.971 81.6988C443.572 75.1007 558.796 183.953 558.731 320.044C558.676 434.982 476.689 533.705 364.138 554.869C353.278 556.911 341.937 558.529 330.859 558.504C196.93 563.003 91.8287 465.985 81.7292 332.77C77.0194 270.646 101.454 208.963 141.644 162.206C184.374 112.492 244.678 86.5275 308.971 81.6988Z"/>
	<path fill="#3D405B" transform="scale(1.6 1.6)" d="M246.296 241.045C246.186 239.991 245.842 239.249 245.311 238.326C246.821 234.489 256.135 234.813 259.277 235.428C261.307 237.657 261.059 239.44 261.63 242.146C256.171 245.362 251.716 243.983 246.296 241.045Z"/>
	<path fill="#3D405B" transform="scale(1.6 1.6)" d="M212.177 409.851C219.012 409.207 251.015 408.592 253.781 410.67C252.928 412.785 251.837 416.092 249.736 417.273C249.034 417.668 214.129 421.764 212.592 414.096C212.57 412.687 212.334 411.252 212.177 409.851Z"/>
	<path fill="#3D405B" transform="scale(1.6 1.6)" d="M162.24 334.58L165.216 334.78C170.732 337.692 167.784 382.059 167.752 391.285C167.685 410.824 170.503 409.843 188.604 410.071C188.688 411.81 188.799 413.551 188.792 415.293C188.712 420.589 182.834 418.801 178.239 418.407C159.566 416.809 159.858 401.951 159.862 388.465L159.911 360.92C159.927 355.492 157.592 338.147 162.24 334.58Z"/>
	<path fill="#3D405B" transform="scale(1.6 1.6)" d="M162.774 327.978C158.125 323.809 159.817 313.385 159.853 307.773L159.869 261.744C159.8 249.371 159.092 236.239 176.803 235.359C191.218 234.643 215.408 234.27 229.922 235.279C234.267 235.581 234.123 237.926 234.138 241.741C229.844 245.145 220.758 243.497 215.696 243.479L188.966 243.437C181.838 243.412 169.825 240.747 168.085 250.283C166.28 260.176 169.462 324.869 166.735 327.455L165.859 327.791L162.774 327.978Z"/>
	<path fill="#3D405B" transform="scale(1.6 1.6)" d="M271.541 241.832C272.06 239.894 271.068 237.207 273.063 235.968C276.022 234.129 312.106 235.299 318.125 235.298L442.353 235.301C453.693 235.302 469.399 232.157 477.005 241.364C482.538 248.062 480.719 256.362 480.774 264.368C480.796 267.639 482.746 277.388 478.819 278.798L475.355 278.644C467.283 275.346 480.077 247.973 466.723 244.022C462.197 242.683 435.47 243.472 428.932 243.475L298.969 243.48C294.012 243.482 275.405 244.744 271.541 241.832Z"/>
	<path fill="#3D405B" transform="scale(1.6 1.6)" d="M474.4 287.231C475.884 287.364 477.299 287.387 478.788 287.314C480.585 289.109 481.199 290.156 481.19 292.74L480.753 392.188C480.77 395.933 481.242 399.884 480.717 403.592C478.106 422.029 456.812 418.041 443.511 418.039L313.464 418.02C305.667 418.019 265.489 419.841 260.307 416.27C259.295 414.62 259.409 412.766 259.86 410.969C263.823 407.955 316.361 409.634 323.89 409.637L425.154 409.638C432.747 409.638 462.551 410.46 467.3 408.805C475.721 405.868 472.458 388.751 472.499 381.392L472.907 326.907C472.938 320.734 471.828 290.844 474.4 287.231Z"/>
	<path fill="#BC6C25" transform="scale(1.6 1.6)" d="M234.138 241.741C238.178 241.406 242.247 241.261 246.296 241.045C251.716 243.983 256.171 245.362 261.63 242.146C264.941 242.259 268.237 242.022 271.541 241.832C275.405 244.744 294.012 243.482 298.969 243.48L428.932 243.475C435.47 243.472 462.197 242.683 466.723 244.022C480.077 247.973 467.283 275.346 475.355 278.644L478.819 278.798L478.53 278.909L478.463 285.767L478.788 287.314C477.299 287.387 475.884 287.364 474.4 287.231C471.828 290.844 472.938 320.734 472.907 326.907L472.499 381.392C472.458 388.751 475.721 405.868 467.3 408.805C462.551 410.46 432.747 409.638 425.154 409.638L323.89 409.637C316.361 409.634 263.823 407.955 259.86 410.969C258.412 410.144 255.624 411.021 253.781 410.67C251.015 408.592 219.012 409.207 212.177 409.851C212.334 411.252 212.57 412.687 212.592 414.096C204.885 415.524 196.596 415.305 188.792 415.293C188.799 413.551 188.688 411.81 188.604 410.071C170.503 409.843 167.685 410.824 167.752 391.285C167.784 382.059 170.732 337.692 165.216 334.78L162.24 334.58C163.007 332.376 162.901 330.265 162.774 327.978L165.859 327.791L166.735 327.455C169.462 324.869 166.28 260.176 168.085 250.283C169.825 240.747 181.838 243.412 188.966 243.437L215.696 243.479C220.758 243.497 229.844 245.145 234.138 241.741Z"/>
	<path fill="#DEBBAC" transform="scale(1.6 1.6)" d="M478.463 285.767C476.681 283.468 474.912 280.182 478.53 278.909L478.463 285.767Z"/>
	<path fill="#3D405B" transform="scale(1.6 1.6)" d="M179.74 286.939C188.525 285.683 186.125 291.822 182.135 296.063C177.916 297.729 173.809 289.533 179.74 286.939Z"/>
	<path fill="#3D405B" transform="scale(1.6 1.6)" d="M350.358 294.765C355.145 296.29 363.406 304.904 355.778 306.465C353.043 305.229 350.788 302.961 348.716 300.85C348.602 299.614 348.541 298.392 348.519 297.151C349.267 296.54 349.811 295.563 350.358 294.765Z"/>
	<path fill="#3D405B" transform="scale(1.6 1.6)" d="M206.269 262.413C203.636 267.028 201.584 276.066 195.662 277.385C187.744 279.148 200.207 260.221 201.646 258.66C210.001 249.596 223.776 252.055 234.907 252.056L411.768 252.036C418.225 252.088 429.704 250.284 435.571 252.811C441.328 261.887 441.61 271.179 452.55 276.076C455.223 277.273 462.165 278.688 463.576 281.277C464.074 282.191 463.579 305.176 463.579 307.756L463.595 358.067C463.598 360.696 464.538 377.362 463.003 378.173C461.253 379.098 457.711 378.889 455.693 379.238C440.409 381.878 440.541 394.285 433.26 401.6C426.858 402.403 420.43 402.242 413.992 402.24L220.7 402.238C214.514 402.241 208.321 402.489 202.214 401.331C196.501 384.211 190.284 383.692 177.638 375.329C176.742 369.671 176.38 325.398 177.683 321.725C179.712 320.394 183.316 320.801 184.615 323.004C185.983 325.324 185.201 363.514 185.319 369.64C190.557 372.67 195.189 375.917 199.329 380.391C201.043 382.244 208.177 392.7 209.084 393.01C212.498 394.179 245.836 393.507 252.778 393.506L406.863 393.499C414.557 393.5 422.315 393.277 429.997 393.729C434.388 383.867 437.87 379.413 446.915 373.353C449.362 372.301 451.763 371.466 454.397 371.034C455.197 370.374 456.077 331.979 456.094 327.937C456.153 314.152 455.542 300.188 456.188 286.43C442.976 283.227 434.053 273.261 430.021 260.689C418.985 259.675 407.726 260.25 396.645 260.253L258.75 260.25C249.926 260.248 212.51 258.278 206.269 262.413Z"/>
	<path fill="#3D405B" transform="scale(1.6 1.6)" d="M357.59 315.909C375.218 321.157 353.027 384.613 309.873 372.382C270.246 361.151 262.575 303.347 299.045 284.033C311.347 277.519 337.943 274.465 345.836 289.513C345.527 290.509 345.161 291.487 344.807 292.468C346.714 292.72 349.223 293.02 350.358 294.765C349.811 295.563 349.267 296.54 348.519 297.151C348.541 298.392 348.602 299.614 348.716 300.85C350.788 302.961 353.043 305.229 355.778 306.465C359.507 307.131 359.168 313.309 357.59 315.909Z"/>
	<path fill="#EBFC02" transform="scale(1.6 1.6)" d="M311.467 337.59C314.843 340.123 317.774 342.154 314.124 345.987C312.56 345.509 311.001 344.992 309.405 344.632C309.278 342.377 310.429 339.565 311.467 337.59Z"/>
	<path fill="#752138" transform="scale(1.6 1.6)" d="M332.767 308.958C335.174 310.129 336.028 311.329 339.054 311.476C337.798 313.884 336.119 315.271 334.061 316.946C331.673 316.448 329.463 317.17 327.476 315.177C329.275 311.902 333.102 314.8 332.767 308.958Z"/>
	<path fill="#EBFC02" transform="scale(1.6 1.6)" d="M309.13 355.478C311.029 356.606 315.805 357.975 316.38 360.031C318.372 367.151 309.235 363.362 306.069 361.742C307.821 360.543 307.87 361.942 309.13 362.506C309.964 361.47 311.663 358.575 310.805 357.296L309.218 357.235C308.853 356.585 308.996 356.154 309.13 355.478Z"/>
	<path fill="#F5D822" transform="scale(1.6 1.6)" d="M309.325 311.325C315.507 303.997 324.677 304.68 332.767 308.958C333.102 314.8 329.275 311.902 327.476 315.177C321.566 311.546 316.048 311.388 309.325 311.325Z"/>
	<path fill="#F5D822" transform="scale(1.6 1.6)" d="M311.217 317.784C313.646 317.747 327.352 332.723 328.212 334.638C330.558 339.863 328.841 348.006 323.241 350.48C318.983 349.659 323 345.279 324.039 342.978C328.648 332.771 311.968 329.601 307.996 319.079L311.217 317.784Z"/>
	<path fill="#ADFE00" transform="scale(1.6 1.6)" d="M306.069 361.742C287.658 355.695 281.25 327.841 287.401 311.038C292.539 297.001 301.769 292.429 314.563 286.439C315.337 289.589 316.426 292.694 317.744 295.656C294.169 298.512 293.751 323.673 311.467 337.59C310.429 339.565 309.278 342.377 309.405 344.632C301.516 343.177 305.877 352.383 309.13 355.478C308.996 356.154 308.853 356.585 309.218 357.235L310.805 357.296C311.663 358.575 309.964 361.47 309.13 362.506C307.87 361.942 307.821 360.543 306.069 361.742Z"/>
	<path fill="#EBFC02" transform="scale(1.6 1.6)" d="M339.054 311.476C343.243 299.514 315.601 291.301 323.636 286.105C330.052 285.898 335.757 292.971 341.881 294.65L344.807 292.468C346.714 292.72 349.223 293.02 350.358 294.765C349.811 295.563 349.267 296.54 348.519 297.151C348.541 298.392 348.602 299.614 348.716 300.85C350.788 302.961 353.043 305.229 355.778 306.465C359.507 307.131 359.168 313.309 357.59 315.909C356.392 316.262 355.265 316.511 354.023 316.652C353.7 339.413 348.317 359.85 322.771 364.345C323.203 361.911 323.422 359.568 323.457 357.097C334.716 354.092 343.451 344.64 340.044 332.341C338.497 326.761 334.304 324.485 330.93 320.265C331.97 319.155 333.005 318.04 334.061 316.946C336.119 315.271 337.798 313.884 339.054 311.476Z"/>
	<path fill="#F5D822" transform="scale(1.6 1.6)" d="M344.807 292.468C346.714 292.72 349.223 293.02 350.358 294.765C349.811 295.563 349.267 296.54 348.519 297.151C347.502 295.931 343.567 295.83 341.881 294.65L344.807 292.468Z"/>
</svg>
