<?xml version="1.0" encoding="utf-8" ?>
<svg xmlns="http://www.w3.org/2000/svg" xmlns:xlink="http://www.w3.org/1999/xlink" width="1023" height="1023">
	<path fill="#3D405B" transform="scale(1.6 1.6)" d="M136.61 279.604C138.778 276.989 140.566 275.785 144.055 276.854C145.734 280.595 145.143 295.552 143.715 299.593C133.22 302.298 136.188 285.465 136.61 279.604Z"/>
	<path fill="#3D405B" transform="scale(1.6 1.6)" d="M142.876 362.455C140.546 362.525 138.368 362.401 137.071 360.128C136.989 359.984 130.863 328.813 143.336 332.784C145.154 338.874 146.441 359.12 142.876 362.455Z"/>
	<path fill="#3D405B" transform="scale(1.6 1.6)" d="M494.915 346.339C500.226 346.082 501.028 347.703 501.19 352.696C501.399 359.137 503.619 372.203 496.941 374.942C488.276 373.302 490.747 349.041 494.915 346.339Z"/>
	<path fill="#3D405B" transform="scale(1.6 1.6)" d="M494.681 283.868C496.495 283.678 500.747 284.04 500.929 286.576C501.128 289.345 501.737 320.948 501.422 321.947C500.77 324.012 498.152 324.557 496.282 324.439C494.689 323.173 493.468 322.039 492.298 320.373C491.642 309.879 490.075 292.874 494.681 283.868Z"/>
	<path fill="#3D405B" transform="scale(1.6 1.6)" d="M435.742 100.96C432.742 100.674 421.601 98.7411 427.641 93.696C431.86 90.1727 484.861 91.788 492.381 91.8886C497.586 91.9582 521.478 90.0044 524.213 93.9942C529.216 101.293 514.391 100.316 511.954 100.317C511.792 105.578 512.714 133.061 510.112 135.281C508.96 135.41 507.803 135.499 506.648 135.602C505.648 134.92 504.746 134.088 503.828 133.301C502.864 123.129 503.522 111.102 503.541 100.74C501.452 100.849 499.238 100.421 497.128 100.371C479.467 99.9486 461.766 100.864 444.12 100.045C444.555 111.28 444.575 123.155 443.897 134.368C441.36 134.479 438.86 134.195 436.338 133.95C434.871 129.361 436.191 107.802 435.742 100.96Z"/>
	<path fill="#3D405B" transform="scale(1.6 1.6)" d="M163.426 542.738L163.434 543.134C163.518 550.965 157.157 549.24 151.507 549.227C148.305 549.219 137.369 550.553 135.207 547.587C132.825 544.322 134.001 523.083 134.218 518.562C135.636 489.042 135.081 460.383 135.083 430.846L135.089 411.557C135.095 404.926 132.702 392.376 143.188 394.749C144.238 399.582 143.6 404.376 143.536 409.278L143.41 429.107C143.233 466.21 142.074 503.325 142.241 540.427C150.909 541.356 156.35 538.142 163.426 542.738Z"/>
	<path fill="#3D405B" transform="scale(1.6 1.6)" d="M493.719 411.157C494.811 410.01 495.928 409.268 497.397 408.689C503.306 412.252 501.292 420.411 501.273 426.525L501.266 527.031C501.433 554.376 508.447 549.412 473.73 549.403L204.057 549.413C198.624 549.416 182.445 552.85 184.347 543.033C187.938 538.442 195.116 540.807 200.232 540.863L438.214 540.917C456.566 540.917 475.151 540.329 493.475 541.17L493.448 445.546C493.447 440.587 492.591 414.525 493.719 411.157Z"/>
	<path fill="#BC6C25" transform="scale(1.6 1.6)" d="M444.12 100.045C461.766 100.864 479.467 99.9486 497.128 100.371C499.238 100.421 501.452 100.849 503.541 100.74C503.522 111.102 502.864 123.129 503.828 133.301C504.746 134.088 505.648 134.92 506.648 135.602C507.803 135.499 508.96 135.41 510.112 135.281C509.251 146.835 511.108 165.08 508.921 175.421C508.238 178.653 504.406 178.358 502.116 179.804C499.486 179.014 496.166 176.591 493.697 175.222L445.676 148.239C441.814 146.052 437.416 143.977 433.925 141.236C432.991 137.25 435.632 137.377 436.338 133.95C438.86 134.195 441.36 134.479 443.897 134.368C444.575 123.155 444.555 111.28 444.12 100.045Z"/>
	<path fill="#BC6C25" transform="scale(1.6 1.6)" d="M146.773 211.632C135.065 217.569 100.356 239.708 87.1969 233.574C74.8099 227.8 75.9505 210.097 87.0086 203.379C96.1686 197.814 107.654 193.093 117.549 187.344L294.134 86.0894C300.165 82.557 309.41 76.1665 315.994 74.4036C318.907 73.6237 362.78 101.103 367.237 103.708C389.273 116.589 411.821 128.517 433.925 141.236C437.416 143.977 441.814 146.052 445.676 148.239L493.697 175.222C496.166 176.591 499.486 179.014 502.116 179.804C513.541 186.077 543.985 199.86 552.233 206.504C561.778 214.191 558.856 231.387 546.472 234.392C534.019 237.415 506.665 223.256 495.422 217.57C486.308 212.503 476.383 208.781 467.383 203.586L469.835 200.638C469.064 193.73 453.188 194.524 447.18 193.442L446.907 193.391L443.669 193.878C439.433 190.246 436.772 185.369 437.919 179.619C436.719 177.513 421.11 177.821 416.359 175.479C411.105 173.179 406.494 169.379 401.766 166.168C395.297 161.775 366.993 146.556 366.143 145.615C365.566 143.969 365.85 142.356 366.312 140.712C358.347 134.978 332.064 125.154 331.291 117.421C325.431 111.668 297.156 122.432 289.324 120.965C286.171 128.851 292.216 131.195 281.677 136.678C276.774 141.861 267.045 144.831 260.759 148.087C252.205 152.518 241.127 162.925 233.271 158.725C230.517 158.563 212.891 171.616 203.77 174.128C204.442 176.634 204.559 179.237 204.629 181.817C191.899 189.38 152.965 205.191 146.773 211.632Z"/>
	<path fill="#3D405B" transform="scale(1.6 1.6)" d="M437.919 179.619C440.721 176.239 445.674 171.543 448.468 177.539C448.287 181.685 448.689 189.945 446.907 193.391L443.669 193.878C439.433 190.246 436.772 185.369 437.919 179.619Z"/>
	<path fill="#F5C788" transform="scale(1.6 1.6)" d="M278.331 125.847C278.384 123.818 276.578 108.876 281.927 111.85C284.368 113.207 288.517 118.343 289.324 120.965C286.171 128.851 292.216 131.195 281.677 136.678C281.211 132.857 279.629 129.433 278.331 125.847Z"/>
	<path fill="#3D405B" transform="scale(1.6 1.6)" d="M231.534 154.377C239.112 148.945 253.067 143.957 262.167 138.698C268.19 135.218 272.383 130.036 277.951 126.111L278.331 125.847C279.629 129.433 281.211 132.857 281.677 136.678C276.774 141.861 267.045 144.831 260.759 148.087C252.205 152.518 241.127 162.925 233.271 158.725L231.534 154.377Z"/>
	<path fill="#3D405B" transform="scale(1.6 1.6)" d="M366.312 140.712L368.19 139.31C375.372 140.931 413.744 161.881 415.823 164.87C417.258 166.932 417.533 173.119 416.359 175.479C411.105 173.179 406.494 169.379 401.766 166.168C395.297 161.775 366.993 146.556 366.143 145.615C365.566 143.969 365.85 142.356 366.312 140.712Z"/>
	<path fill="#3D405B" transform="scale(1.6 1.6)" d="M146.773 211.632C135.065 217.569 100.356 239.708 87.1969 233.574C74.8099 227.8 75.9505 210.097 87.0086 203.379C96.1686 197.814 107.654 193.093 117.549 187.344L294.134 86.0894C300.165 82.557 309.41 76.1665 315.994 74.4036C318.907 73.6237 362.78 101.103 367.237 103.708C389.273 116.589 411.821 128.517 433.925 141.236C437.416 143.977 441.814 146.052 445.676 148.239L493.697 175.222C496.166 176.591 499.486 179.014 502.116 179.804C513.541 186.077 543.985 199.86 552.233 206.504C561.778 214.191 558.856 231.387 546.472 234.392C534.019 237.415 506.665 223.256 495.422 217.57C486.308 212.503 476.383 208.781 467.383 203.586L469.835 200.638C472.834 198.422 475.293 196.265 478.697 194.607C479.864 196.59 480.119 198.38 480.395 200.62C485.513 205.587 536.902 231.217 546.015 226.529C548.964 225.012 550.2 222.029 551.136 219.048L550.972 218.551C547.769 209.067 537.413 207.252 529.21 203.454C512.563 195.745 496.915 186.49 480.948 177.511L409.48 136.868C388.27 124.662 366.568 113.36 345.798 100.383C336.176 94.3713 326.73 87.9355 316.528 82.9311C308.794 86.6156 293.996 95.3927 286.886 100.455C284.841 101.911 279.947 107.586 277.956 107.891C266.716 109.613 255.57 117.538 245.723 122.887C199.903 147.781 155.907 175.755 110.348 201.118C102.577 205.444 82.7657 210.417 86.5551 221.706C90.9531 234.807 111.7 220.248 118.297 216.975C139.025 206.688 170.771 191.767 189.662 179.012C194.964 175.432 197.515 170.162 203.77 174.128C204.442 176.634 204.559 179.237 204.629 181.817C191.899 189.38 152.965 205.191 146.773 211.632Z"/>
	<path fill="#F4F1DE" transform="scale(1.6 1.6)" d="M289.324 120.965C297.156 122.432 325.431 111.668 331.291 117.421C332.064 125.154 358.347 134.978 366.312 140.712C365.85 142.356 365.566 143.969 366.143 145.615C366.993 146.556 395.297 161.775 401.766 166.168C406.494 169.379 411.105 173.179 416.359 175.479C421.11 177.821 436.719 177.513 437.919 179.619C436.772 185.369 439.433 190.246 443.669 193.878L446.907 193.391L447.18 193.442C453.188 194.524 469.064 193.73 469.835 200.638L467.383 203.586C476.383 208.781 486.308 212.503 495.422 217.57C495.837 235.95 494.978 255.277 495.202 273.949C495.24 277.184 494.45 280.714 494.681 283.868C490.075 292.874 491.642 309.879 492.298 320.373C493.468 322.039 494.689 323.173 496.282 324.439C495.288 325.946 495.699 338.386 495.509 340.984C495.398 342.504 494.396 344.919 494.915 346.339C490.747 349.041 488.276 373.302 496.941 374.942L496.473 375.285C496.387 386.527 498.079 397.195 496.09 408.53L497.397 408.689C495.928 409.268 494.811 410.01 493.719 411.157C492.591 414.525 493.447 440.587 493.448 445.546L493.475 541.17C475.151 540.329 456.566 540.917 438.214 540.917L200.232 540.863C195.116 540.807 187.938 538.442 184.347 543.033C179.073 543.866 168.237 544.962 163.426 542.738C156.35 538.142 150.909 541.356 142.241 540.427C142.074 503.325 143.233 466.21 143.41 429.107L143.536 409.278C143.6 404.376 144.238 399.582 143.188 394.749C143.484 393.741 142.274 367.792 142.876 362.455C146.441 359.12 145.154 338.874 143.336 332.784C144.85 323.576 142.098 311.52 143.715 299.593C145.143 295.552 145.734 280.595 144.055 276.854C143.576 266.403 142.817 223.566 145.088 216.161C145.553 214.648 146.859 213.202 146.773 211.632C152.965 205.191 191.899 189.38 204.629 181.817C204.559 179.237 204.442 176.634 203.77 174.128C212.891 171.616 230.517 158.563 233.271 158.725C241.127 162.925 252.205 152.518 260.759 148.087C267.045 144.831 276.774 141.861 281.677 136.678C292.216 131.195 286.171 128.851 289.324 120.965Z"/>
	<path fill="#C0C3C2" transform="scale(1.6 1.6)" d="M332.24 486.735C332.786 490.2 334.496 493.879 330.716 496.088L330.031 494.501C332.284 492.657 332.105 489.396 332.24 486.735Z"/>
	<path fill="#B9BFA0" transform="scale(1.6 1.6)" d="M387.2 289.661C387.934 288.812 388.334 288.166 388.72 287.11C389.061 290.584 389.456 293.928 390.449 297.291L389.573 297.206C388.585 294.747 387.64 292.282 387.2 289.661Z"/>
	<path fill="#3D405B" transform="scale(1.6 1.6)" d="M302.782 237.351C301.452 221.245 333.205 213.084 334.653 232.177C335.129 238.461 334.072 244.939 334.718 251.185C349.795 256.31 387.539 266.804 388.72 287.11C388.334 288.166 387.934 288.812 387.2 289.661C384.598 287.691 382.595 284.947 380.275 282.662C369.953 272.498 356.272 265.317 342.216 261.928C338.552 261.045 330.883 260.569 328.131 257.708C323.22 252.603 333.043 230.073 323.862 229.003C315.507 228.03 310.392 236.614 302.782 237.351Z"/>
	<path fill="#3D405B" transform="scale(1.6 1.6)" d="M279.793 368.571C266.163 370.669 254.955 350.112 250.276 339.501C235.884 306.861 249.553 272.826 281.441 257.546C288.321 254.249 295.611 251.791 302.606 248.74C303.488 251.992 305.061 254.93 305.684 258.275C255.683 266.457 232.539 318.523 270.284 356.035C271.402 357.146 283.851 366.852 279.793 368.571Z"/>
	<path fill="#3D405B" transform="scale(1.6 1.6)" d="M385.828 419.141C382.164 417.13 382.807 410.043 381.901 406.387C368.776 353.434 269.243 345.327 285.381 299.572C290.527 284.983 302.426 280.703 316.771 280.951C347.166 281.479 344.111 304.499 360.75 310.435C370.167 313.794 386.366 306.949 389.573 297.206L390.449 297.291C399.507 309.87 374.752 321.219 362.494 318.8C340.057 314.372 343.143 288.018 315.313 288.632C296.3 289.052 284.024 304.271 295.617 321.35C300.261 328.192 308.842 333.07 315.802 337.305C341.506 352.945 375.845 368.687 387.456 398.047C390.016 404.519 395.842 417.234 385.828 419.141Z"/>
	<path fill="#3D405B" transform="scale(1.6 1.6)" d="M296.888 374.498C309.384 378.27 339.296 399.779 344.86 410.206C358.308 435.408 321.845 461.942 290.282 434.547C278.458 424.284 273.688 415.779 257.015 423.779C249.622 427.327 245.237 433.916 249.298 441.777C255.733 454.233 286.094 464.048 300.913 466.491C305.726 471.44 304.302 486.628 305.327 493.675C314.603 495.049 322.3 493.659 330.031 494.501L330.716 496.088C328.565 499.99 327.223 502.428 322.358 502.977C291.009 506.512 298.295 495.562 297.096 474.137C279.226 469.359 238.255 459.179 240.725 434.277C241.887 422.56 253.115 414.673 264.1 413.255C288.584 410.096 307.071 454.633 333.405 432.693C361.981 408.886 297.196 388.12 291.179 379.563C292.978 377.732 294.706 375.883 296.888 374.498Z"/>
	<path fill="#BC6C25" transform="scale(1.6 1.6)" d="M302.782 237.351C310.392 236.614 315.507 228.03 323.862 229.003C333.043 230.073 323.22 252.603 328.131 257.708C330.883 260.569 338.552 261.045 342.216 261.928C356.272 265.317 369.953 272.498 380.275 282.662C382.595 284.947 384.598 287.691 387.2 289.661C387.64 292.282 388.585 294.747 389.573 297.206C386.366 306.949 370.167 313.794 360.75 310.435C344.111 304.499 347.166 281.479 316.771 280.951C302.426 280.703 290.527 284.983 285.381 299.572C269.243 345.327 368.776 353.434 381.901 406.387C382.807 410.043 382.164 417.13 385.828 419.141C388.451 429.839 382.406 437.351 375.354 443.435C385.056 458.777 339.622 473.576 331.06 477.261C331.263 480.443 332.154 483.544 332.24 486.735C332.105 489.396 332.284 492.657 330.031 494.501C322.3 493.659 314.603 495.049 305.327 493.675C304.302 486.628 305.726 471.44 300.913 466.491C286.094 464.048 255.733 454.233 249.298 441.777C245.237 433.916 249.622 427.327 257.015 423.779C273.688 415.779 278.458 424.284 290.282 434.547C321.845 461.942 358.308 435.408 344.86 410.206C339.296 399.779 309.384 378.27 296.888 374.498C294.706 375.883 292.978 377.732 291.179 379.563C288.021 376.277 283.563 370.732 279.793 368.571C283.851 366.852 271.402 357.146 270.284 356.035C232.539 318.523 255.683 266.457 305.684 258.275C305.061 254.93 303.488 251.992 302.606 248.74C303.367 246.813 302.732 239.795 302.782 237.351Z"/>
	<path fill="#3D405B" transform="scale(1.6 1.6)" d="M331.06 477.261C326.686 477.028 327.481 468.793 330.559 467.708C342.28 463.576 349.498 464.003 361.005 455.06C365.466 451.594 369.708 444.719 375.354 443.435C385.056 458.777 339.622 473.576 331.06 477.261Z"/>
</svg>
