<?xml version="1.0" encoding="utf-8" ?>
<svg xmlns="http://www.w3.org/2000/svg" xmlns:xlink="http://www.w3.org/1999/xlink" width="1024" height="1023">
	<path fill="#3D405B" transform="scale(1.6 1.6)" d="M144.76 200.673C144.87 194.839 146.882 195.576 152.023 194.649L461.556 137.181C479.524 133.783 501.668 124.62 516.76 139.645C524.665 147.516 525.01 156.885 526.726 167.256C527.33 170.909 530.379 173.927 525.949 175.276C520.634 174.486 521.035 172.309 520.39 167.336C516.433 136.848 507.072 135.446 481.111 140.202L159.746 200.579C153.67 201.715 150.536 203.437 144.76 200.673Z"/>
	<path fill="#F4F1DE" transform="scale(1.6 1.6)" d="M144.76 200.673C150.536 203.437 153.67 201.715 159.746 200.579L481.111 140.202C507.072 135.446 516.433 136.848 520.39 167.336C521.035 172.309 520.634 174.486 525.949 175.276C526.24 177.625 527.037 191.214 527.978 192.24L528.693 192.327C529.727 192.285 532.018 192.007 532.787 192.798C534.169 194.222 543.308 243.582 544.447 249.843C561.039 253.88 558.446 268.78 558.422 282.284L558.381 302.474C558.35 305.474 556.956 309.366 558.765 312.026C556.43 314.374 556.451 317.982 557.657 321.556C559.656 327.478 558.408 346.416 558.408 353.44L558.41 444.086C558.419 464.059 561.187 487.176 536.921 495.246C527.601 498.346 483.984 498.214 477.905 496.388C477.216 495.552 477.219 494.47 477.084 493.434C472.013 495.526 460.37 491.987 456.405 493.656L454.248 497.139C448.294 497.724 441.801 497.186 435.789 497.182L122.125 497.187C115.436 497.192 108.144 497.755 101.584 496.4C79.0942 491.752 76.6434 471.955 76.6421 453.527L76.6428 293.475C76.6424 284.771 74.5633 256.575 81.901 251.787C80.1481 239.894 74.4316 229.058 81.6277 217.436C90.8242 202.583 110.358 203.55 125.415 200.09C126.117 201.324 127.005 202.442 127.849 203.581C132.934 201.376 139.31 201.232 144.76 200.673Z"/>
	<path fill="#3D405B" transform="scale(1.6 1.6)" d="M106.657 431.582C123.937 430.152 151.25 455.531 157.547 469.372C156.732 470.052 155.846 470.654 154.984 471.273C150.871 472.268 147.485 465.968 145.16 463.316C137.152 454.184 128.321 446.066 117.002 441.277C112.684 439.45 99.8411 438.447 106.657 431.582Z"/>
	<path fill="#3D405B" transform="scale(1.6 1.6)" d="M140.797 374.214C156.337 374.651 171.946 374.277 187.496 374.328C191.102 374.34 206.531 372.239 207.478 377.17C208.777 383.933 184.395 381.25 179.095 381.28C164.329 381.113 149.546 381.216 134.779 381.235C130.17 381.241 111.866 383.847 111.496 377.806C111.162 372.348 135.983 374.282 140.797 374.214Z"/>
	<path fill="#3D405B" transform="scale(1.6 1.6)" d="M166.889 332.029C186.293 332.828 209.946 330.44 228.29 332.237C231.19 332.52 233.987 335.734 231.438 338.349C228.069 340.029 184.519 339.219 177.109 339.215L134.606 339.217C132.479 339.216 105.514 341.886 112.272 333.693C114.654 330.805 160.725 332.278 166.889 332.029Z"/>
	<path fill="#3D405B" transform="scale(1.6 1.6)" d="M315.55 296.58C317.694 296.475 319.826 296.578 321.969 296.662C322.311 301.669 321.469 306.382 322.106 311.495C331.407 311.452 362.096 316.65 343.686 328.314C335.583 325.786 330.367 323.405 321.527 321.279C321.515 334.074 321.165 346.971 321.668 359.753C328.948 361.164 336.764 364.01 342.512 368.821C363.896 386.719 351.146 416.866 321.365 419.108C321.479 422.87 323.993 438.108 316.705 436.206C315.798 435.969 315.444 435.349 314.958 434.617C314.242 429.809 314.622 424.536 314.649 419.668C276.141 420.265 279.679 398 288.557 399.89C296.245 401.527 299.993 407.426 314.949 408.873C315.649 396.484 315.269 383.94 315.267 371.531C306.93 369.662 297.677 366.989 291.155 361.215C272.116 344.358 284.998 312.515 314.942 311.197C315.347 306.31 314.811 301.437 315.55 296.58Z"/>
	<path fill="#F4F1DE" transform="scale(1.6 1.6)" d="M321.251 373.23C335.741 376.428 345.883 391.584 333.795 403.248C329.948 406.178 325.879 407.524 321.261 408.797C321.061 396.936 321.962 385.132 321.251 373.23Z"/>
	<path fill="#F4F1DE" transform="scale(1.6 1.6)" d="M314.659 321.643L315.626 321.619C316.544 323.063 315.943 355.015 315.727 358.933C311.259 357.239 306.959 355.636 302.841 353.173C287.179 341.87 298.004 325.146 314.659 321.643Z"/>
	<path fill="#3D405B" transform="scale(1.6 1.6)" d="M528.693 192.327C529.727 192.285 532.018 192.007 532.787 192.798C534.169 194.222 543.308 243.582 544.447 249.843C561.039 253.88 558.446 268.78 558.422 282.284L558.381 302.474C558.35 305.474 556.956 309.366 558.765 312.026C556.43 314.374 556.451 317.982 557.657 321.556C559.656 327.478 558.408 346.416 558.408 353.44L558.41 444.086C558.419 464.059 561.187 487.176 536.921 495.246C527.601 498.346 483.984 498.214 477.905 496.388C477.216 495.552 477.219 494.47 477.084 493.434C478.393 488.281 483.229 490.302 487.4 490.312L513.392 490.299C545.21 490.29 551.49 486.433 551.486 451.225C551.484 439.353 551.176 427.399 551.652 415.542C546 415.161 540.247 415.366 534.584 415.367L504.823 415.354C490.452 415.394 475.326 415.898 464.288 404.507C447.189 418.146 422.458 416.851 406.44 402.083C377.24 375.162 395.634 324.357 435.904 323.445C446.785 323.198 458.963 326.549 466.974 334.23C471.998 328.329 480.145 323.681 487.855 322.479C493.195 321.645 531.82 320.723 534.479 321.956C535.882 322.606 536.393 323.766 537.053 325.09C541.824 324.724 546.562 324.161 551.344 323.873C551.695 310.738 551.496 297.555 551.496 284.414C551.497 275.707 554.184 263.529 547.395 257.62C543.303 256.722 538.463 257.203 534.265 257.21L95.6313 257.265C92.3821 257.283 87.8247 256.808 84.7626 257.771C81.8833 261.666 83.3594 306.351 83.361 313.317L83.3616 444.736C83.352 461.718 80.6312 488.107 105.268 490.33C114.149 491.132 123.691 490.292 132.642 490.296L434.861 490.304C441.334 490.301 453.175 487.695 456.405 493.656L454.248 497.139C448.294 497.724 441.801 497.186 435.789 497.182L122.125 497.187C115.436 497.192 108.144 497.755 101.584 496.4C79.0942 491.752 76.6434 471.955 76.6421 453.527L76.6428 293.475C76.6424 284.771 74.5633 256.575 81.901 251.787C80.1481 239.894 74.4316 229.058 81.6277 217.436C90.8242 202.583 110.358 203.55 125.415 200.09C126.117 201.324 127.005 202.442 127.849 203.581C124.253 213.878 95.5122 204.724 86.3187 221.65C81.7679 230.028 86.4394 241.605 88.993 249.992C97.6589 250.672 106.537 250.307 115.226 250.306L508.224 250.305C518.107 250.305 528.131 250.66 537.989 250.023C537.263 244.813 535.843 239.594 534.786 234.433L529.995 210.132C529.295 206.735 525.839 195.68 527.495 192.582L528.693 192.327Z"/>
	<path fill="#BC6C25" transform="scale(1.6 1.6)" d="M433.063 330.122C453.936 327.699 472.927 343.676 475.409 364.128C477.913 384.752 462.662 404.282 441.953 406.538C388.335 410.599 384.67 335.724 433.063 330.122Z"/>
	<path fill="#BC6C25" transform="scale(1.6 1.6)" d="M551.344 323.873C552.172 352.122 551.18 380.491 551.522 408.758L508.985 408.677C494.75 408.692 480.97 410.206 469.478 399.787C484.92 381.121 487.253 358.11 471.062 339.063C492.143 322.413 509.795 329.086 535.929 328.376C536.32 327.304 536.81 326.203 537.053 325.09C541.824 324.724 546.562 324.161 551.344 323.873Z"/>
	<path fill="#BC6C25" transform="scale(1.6 1.6)" d="M144.76 200.673C150.536 203.437 153.67 201.715 159.746 200.579L481.111 140.202C507.072 135.446 516.433 136.848 520.39 167.336C521.035 172.309 520.634 174.486 525.949 175.276C526.24 177.625 527.037 191.214 527.978 192.24L528.693 192.327L527.495 192.582C525.839 195.68 529.295 206.735 529.995 210.132L534.786 234.433C535.843 239.594 537.263 244.813 537.989 250.023C528.131 250.66 518.107 250.305 508.224 250.305L115.226 250.306C106.537 250.307 97.6589 250.672 88.993 249.992C86.4394 241.605 81.7679 230.028 86.3187 221.65C95.5122 204.724 124.253 213.878 127.849 203.581C132.934 201.376 139.31 201.232 144.76 200.673Z"/>
</svg>
