<?xml version="1.0" encoding="utf-8" ?>
<svg xmlns="http://www.w3.org/2000/svg" xmlns:xlink="http://www.w3.org/1999/xlink" width="1024" height="1024">
	<path fill="#E07A5F" transform="scale(1.6 1.6)" d="M119.215 362.849C161.7 351.62 183.138 308.379 237.081 299.874C278.108 293.405 321.576 301.901 358.625 320.16C383.547 332.442 395.647 344.897 424.501 350.143C424.715 351.667 424.98 353.078 424.706 354.612C430.408 356.727 455.856 370.309 459.85 367.646C460.862 366.142 461.967 364.525 463.575 363.624C474.652 362.461 498.063 375.166 509.983 379.099C514.364 383.066 521.122 386.467 526.433 391.239C545.399 408.274 551.204 434.043 551.275 458.506C551.308 470.064 546.274 492.558 530.532 481.767C527.412 479.817 523.138 480.308 519.771 481.387C518.966 482.824 518.054 483.589 516.695 484.473C508.958 485.181 501.092 484.503 493.331 484.928C492.72 487.808 492.345 490.73 491.635 493.589C484.572 522.021 459.857 525.129 434.914 523.303C434.459 523.398 434.065 523.502 433.627 523.644C431.546 530.599 422.387 532.921 416.397 535.363C355.397 560.239 298.423 563.59 235.467 539.362C230.293 537.371 207.35 529.655 206.775 523.244C206.718 522.61 206.704 522.721 206.296 522.272C198.372 524.056 174.684 526.44 171.805 515.519C170.592 512.108 161.025 516.74 153.056 500.335C150.949 500.68 148.899 500.743 146.793 500.38C139.279 499.681 139.7 489.225 139.687 483.677C130.031 481.402 122.202 480.469 113.284 475.309C80.0841 456.097 85.2379 409.708 96.8536 379.245C104.532 359.109 101.804 366.699 119.215 362.849Z"/>
	<path fill="#3D405B" transform="scale(1.6 1.6)" d="M300.648 382.641C305.698 382.549 308.649 386.531 305.742 389.581C302.805 392.661 294.42 391.161 290.391 390.998C287.33 391.021 279.053 390.266 283.689 385.28C286.472 382.287 296.75 382.827 300.648 382.641Z"/>
	<path fill="#3D405B" transform="scale(1.6 1.6)" d="M232.105 353.082L355.367 352.566C363.891 352.574 372.958 353.12 381.34 351.427C381.839 354.386 382.275 357.241 382.274 360.246C371.954 360.664 361.587 360.471 351.259 360.469L242.882 360.475C232.195 360.483 226.561 364.983 227.303 353.598C228.897 353.413 230.504 353.169 232.105 353.082Z"/>
	<path fill="#3D405B" transform="scale(1.6 1.6)" d="M459.85 367.646C460.862 366.142 461.967 364.525 463.575 363.624C474.652 362.461 498.063 375.166 509.983 379.099C514.364 383.066 521.122 386.467 526.433 391.239C545.399 408.274 551.204 434.043 551.275 458.506C551.308 470.064 546.274 492.558 530.532 481.767C532.579 479.045 540.257 474.004 543.429 472.978C544.561 456.464 544.026 427.097 534.416 414.315C523.879 415.721 501.243 414.186 497.393 401.729C496.62 399.227 497.753 394.6 500.758 394.006C505.699 393.03 508.97 408.575 528.388 404.937C517.747 387.415 486.375 376.918 467.992 372.266C464.016 371.259 460.487 372.555 459.85 367.646Z"/>
	<path fill="#F4F1DE" transform="scale(1.6 1.6)" d="M242.816 307.004C291.075 300.407 343.344 317.181 383.119 343.777C382.381 346.266 381.471 348.821 381.34 351.427C372.958 353.12 363.891 352.574 355.367 352.566L232.105 353.082C233.289 338.593 240.299 321.942 242.816 307.004Z"/>
	<path fill="#3D405B" transform="scale(1.6 1.6)" d="M119.215 362.849C161.7 351.62 183.138 308.379 237.081 299.874C278.108 293.405 321.576 301.901 358.625 320.16C383.547 332.442 395.647 344.897 424.501 350.143C424.715 351.667 424.98 353.078 424.706 354.612C424.209 355.53 423.839 356.539 423.432 357.501C411.38 357.345 393.616 349.786 383.119 343.777C343.344 317.181 291.075 300.407 242.816 307.004C231.599 308.892 219.824 311.57 209.531 316.545C174.937 333.267 148.437 370.056 107.857 372.405C90.8658 412.103 83.3663 470.679 141.316 474.785C144.72 462.368 148.999 452.688 160.688 445.987C188.972 429.773 226.638 443.723 233.529 477.273C243.404 476.625 253.442 476.979 263.342 476.978L368.784 476.982C379.468 476.98 390.29 476.632 400.957 477.213C409.463 424.249 491.396 430.374 492.878 477.368C499.454 476.782 516.658 474.382 519.771 481.387C518.966 482.824 518.054 483.589 516.695 484.473C508.958 485.181 501.092 484.503 493.331 484.928C492.72 487.808 492.345 490.73 491.635 493.589C484.572 522.021 459.857 525.129 434.914 523.303C434.459 523.398 434.065 523.502 433.627 523.644C431.546 530.599 422.387 532.921 416.397 535.363C355.397 560.239 298.423 563.59 235.467 539.362C230.293 537.371 207.35 529.655 206.775 523.244C206.718 522.61 206.704 522.721 206.296 522.272C198.372 524.056 174.684 526.44 171.805 515.519C170.592 512.108 161.025 516.74 153.056 500.335C150.949 500.68 148.899 500.743 146.793 500.38C139.279 499.681 139.7 489.225 139.687 483.677C130.031 481.402 122.202 480.469 113.284 475.309C80.0841 456.097 85.2379 409.708 96.8536 379.245C104.532 359.109 101.804 366.699 119.215 362.849Z"/>
	<path fill="#F4F1DE" transform="scale(1.6 1.6)" d="M233.854 485.015C249.332 484.337 265.001 484.817 280.499 484.818L357.434 484.822C372.047 484.821 386.698 485.039 401.306 484.711C401.661 505.636 414.414 520.485 434.914 523.303C434.459 523.398 434.065 523.502 433.627 523.644C431.546 530.599 422.387 532.921 416.397 535.363C355.397 560.239 298.423 563.59 235.467 539.362C230.293 537.371 207.35 529.655 206.775 523.244C206.718 522.61 206.704 522.721 206.296 522.272C223.92 516.615 232.73 503.017 233.854 485.015Z"/>
	<path fill="#F4F1DE" transform="scale(1.6 1.6)" d="M317.752 71.9862C320.605 69.8255 323.894 68.9666 325.365 73.0184C325.912 74.5926 358.64 86.6424 362.1 87.8613C378.737 93.7223 396.508 98.0214 412.338 105.945C417.142 108.349 424.012 113.496 428.912 114.562C433.59 110.835 440.98 117.855 444.782 120.394C493.488 152.92 527.546 197.958 535.287 257.252C535.771 260.961 538.711 272.153 535.333 274.771C534.414 276.735 535.455 279.712 535.639 281.808C537.834 306.911 532.151 331.445 526.557 355.689C524.507 364.576 523.935 372.387 516.719 378.613C515.164 377.668 511.516 374.921 509.846 375.064C511.33 376.249 518.683 378.713 512.48 380.1L511.979 379.8C511.436 379.479 510.893 379.22 510.318 378.964L509.983 379.099C498.063 375.166 474.652 362.461 463.575 363.624C461.967 364.525 460.862 366.142 459.85 367.646C455.856 370.309 430.408 356.727 424.706 354.612C424.98 353.078 424.715 351.667 424.501 350.143C395.647 344.897 383.547 332.442 358.625 320.16C321.576 301.901 278.108 293.405 237.081 299.874C183.138 308.379 161.7 351.62 119.215 362.849C120.467 361.006 121.237 360.624 119.206 359.091L118.843 359.118L118.495 358.628L118.305 358.646C111.065 340.277 107.322 318.322 106.355 298.806C105.953 290.7 106.749 282.193 105.388 274.208C102.464 270.412 104.242 264.753 104.732 260.397C109.52 217.854 129.019 182.047 157.621 150.931C160.369 147.942 166.033 139.647 170.879 142.235C173.515 141.635 176.608 139.987 177.78 137.459C177.354 136.437 176.812 134.782 177.379 133.729C179.205 130.338 204.203 110.93 210.455 114.085C213.977 113.914 217.776 110.835 220.883 109.332C239.879 100.14 255.335 97.0669 275.088 90.802C282.772 88.3646 312.05 73.9218 317.207 75.9971C317.346 74.6565 317.562 73.3208 317.752 71.9862Z"/>
	<path fill="#3D405B" transform="scale(1.6 1.6)" d="M177.78 137.459C177.354 136.437 176.812 134.782 177.379 133.729C179.205 130.338 204.203 110.93 210.455 114.085C211.151 115.377 212.122 116.994 211.756 118.526C211.396 120.035 182.138 137.619 179.58 138.737C179.029 138.254 178.505 137.583 177.78 137.459Z"/>
	<path fill="#3D405B" transform="scale(1.6 1.6)" d="M271.81 118.449C275.008 118.198 275.509 121.361 276.339 123.842C262.379 136.388 255.014 138.35 243.537 157.54C241.388 161.133 239.765 165.491 236.315 168.051C220.67 166.21 256.189 123.974 271.81 118.449Z"/>
	<path fill="#3D405B" transform="scale(1.6 1.6)" d="M367.055 117.468C377.712 119.982 419.57 162.008 405.684 168.515C401.571 166.444 399.835 161.622 397.537 157.898C390.178 145.972 379.91 134.178 368.071 126.681C362.815 123.353 362.742 122.041 367.055 117.468Z"/>
	<path fill="#3D405B" transform="scale(1.6 1.6)" d="M419.864 221.899C421.438 221.774 423.311 221.687 424.547 222.86C427.735 225.884 431.844 274.371 423.912 273.386C418.233 272.681 412.013 246.73 380.075 242.873C376.704 242.505 369.787 243.227 367.437 240.84C358.245 231.503 386.779 235.667 390.303 236.645C402.122 239.923 414.852 247.563 421.05 258.445C420.385 252.427 416.915 223.818 419.864 221.899Z"/>
	<path fill="#3D405B" transform="scale(1.6 1.6)" d="M217.788 221.514C226.122 220.916 222.036 232.242 221.419 237.127C220.567 243.881 220.017 250.578 219.866 257.382C227.299 247.51 238.139 239.712 250.148 236.532C255.062 235.231 273.607 230.113 273.722 239.012C273.781 243.571 265.565 242.491 262.738 242.578C248.527 243.864 234.902 250.93 226.121 262.248C224.266 264.639 218.407 277.874 213.849 272.31C209.609 267.133 211.648 226.701 217.788 221.514Z"/>
	<path fill="#3D405B" transform="scale(1.6 1.6)" d="M105.388 274.208C102.464 270.412 104.242 264.753 104.732 260.397C109.52 217.854 129.019 182.047 157.621 150.931C160.369 147.942 166.033 139.647 170.879 142.235C172.976 144.576 172.125 148.087 170.958 150.754L170.243 150.417C143.545 170.767 117.031 219.707 113.321 254.33C115.461 252.978 144.88 235.763 140.874 249.597C139.712 253.611 123.77 253.41 115.451 264.562C112.401 268.651 111.54 274.657 105.388 274.208Z"/>
	<path fill="#3D405B" transform="scale(1.6 1.6)" d="M317.752 71.9862C320.605 69.8255 323.894 68.9666 325.365 73.0184C324.625 80.2561 324.992 87.7221 324.992 94.9968L325.008 277.037C325.01 279.741 326.142 293.241 324.308 294.773C322.876 295.97 319.146 295.489 318.049 293.987C315.816 290.932 317.323 279.009 317.324 275.095L317.342 93.4035C317.348 87.6282 317.565 81.7597 317.207 75.9971C317.346 74.6565 317.562 73.3208 317.752 71.9862Z"/>
	<path fill="#3D405B" transform="scale(1.6 1.6)" d="M428.912 114.562C433.59 110.835 440.98 117.855 444.782 120.394C493.488 152.92 527.546 197.958 535.287 257.252C535.771 260.961 538.711 272.153 535.333 274.771C528.859 274.727 528.653 269.421 525.16 265.138C516.912 255.023 510.935 256.357 502.346 251.799C497.02 248.974 499.309 237.451 522.521 251.394C523.826 249.487 525.519 250.511 526.276 248.02C516.179 199.562 487.134 158.509 446.451 131.01C440.053 126.685 424.849 121.94 428.912 114.562Z"/>
	<path fill="white" transform="scale(1.6 1.6)" d="M522.521 251.394C523.826 249.487 525.519 250.511 526.276 248.02C526.62 250.544 527.052 253.009 527.61 255.494C526 253.948 524.339 252.683 522.521 251.394Z"/>
</svg>
