<?xml version="1.0" encoding="utf-8" ?>
<svg xmlns="http://www.w3.org/2000/svg" xmlns:xlink="http://www.w3.org/1999/xlink" width="1024" height="1024">
	<path fill="#3D405B" transform="scale(1.6 1.6)" d="M103.717 156.658C104.605 152.771 106.135 144.928 110.661 143.593C114.092 142.58 117.06 145.038 117.704 148.315C116.057 156.439 114.954 155.025 110.389 160.606C107.039 161.098 105.565 159.263 103.717 156.658Z"/>
	<path fill="#3D405B" transform="scale(1.6 1.6)" d="M521.241 150.142C521.293 148.811 521.287 147.707 522.312 146.716C530.323 138.981 539.486 158.161 532.402 163.47C525.319 163.801 522.263 155.97 521.241 150.142Z"/>
	<path fill="#3D405B" transform="scale(1.6 1.6)" d="M314.438 87.1246C307.031 74.058 336.55 70.8824 332.61 88.8276C328.771 95.8041 319.128 89.9179 314.438 87.1246Z"/>
	<path fill="#3D405B" transform="scale(1.6 1.6)" d="M414.869 527.14C408.114 517.97 435.198 507.192 438.607 507.091C453.988 511.126 426.678 526.301 423.703 527.834C420.312 529.58 417.94 529.084 414.869 527.14Z"/>
	<path fill="#3D405B" transform="scale(1.6 1.6)" d="M347.666 89.7203C353.965 89.4295 372.709 96.4355 376.447 99.9289C378.709 102.043 376.861 105.941 375.79 108.134C371.217 109.387 343.84 100.287 343.824 93.7692C344.917 92.0185 345.884 90.827 347.666 89.7203Z"/>
	<path fill="#3D405B" transform="scale(1.6 1.6)" d="M401.274 109.116C409.79 110.471 434.059 111.777 431.569 122.392L431.02 124.648C426.029 128.645 399.717 119.098 397.807 116.686C397.19 115.906 397.435 114.78 397.514 113.849C398.545 112.016 399.682 110.512 401.274 109.116Z"/>
	<path fill="#3D405B" transform="scale(1.6 1.6)" d="M207.745 125.298C206.362 123.379 204.412 118.639 207.02 116.842C210.087 114.73 237.14 104.965 241.4 111.506C241.758 116.105 241.379 117.425 236.931 119.034C232.427 120.665 211.116 127.766 207.745 125.298Z"/>
	<path fill="#3D405B" transform="scale(1.6 1.6)" d="M544.319 326.37C548.103 326.072 551.092 327.022 551.241 331.309C551.403 335.935 549.659 368.676 538.823 362.53C537.277 360.717 536.571 359.613 536.766 357.17C537.324 350.17 538.984 330.841 544.319 326.37Z"/>
	<path fill="#3D405B" transform="scale(1.6 1.6)" d="M92.9047 325.863C96.8654 326.143 98.3954 327.446 99.238 331.262C99.6972 333.342 104.164 359.502 104.092 359.901C103.765 361.712 102.296 362.214 101.527 363.627C89.6161 367.499 88.5954 335.48 88.9429 329.28C90.0872 327.458 90.9156 326.691 92.9047 325.863Z"/>
	<path fill="#3D405B" transform="scale(1.6 1.6)" d="M262.535 106.498C250.759 95.6016 287.657 85.6921 293.092 84.7586C296.163 84.2311 297.845 86.5512 298.933 89.0967C298.372 97.2786 286.485 98.3316 280.375 100.901C274.829 103.233 268.831 107.631 262.535 106.498Z"/>
	<path fill="#3D405B" transform="scale(1.6 1.6)" d="M256.363 544.745C260.307 537.051 272.986 544.861 278.572 546.699C285.139 548.861 294.679 548.755 296.243 555.578C294.88 558.185 293.461 560.438 291.434 562.584C282.722 560.266 257.978 554.584 256.363 544.745Z"/>
	<path fill="#3D405B" transform="scale(1.6 1.6)" d="M466.756 481.182C469.313 477.018 474.92 472.449 478.408 468.593C482.257 464.337 489.193 452.874 495.048 452.468C499.416 455.246 500.323 458.266 497.377 462.534C493.38 468.324 475.842 492.463 467.762 486.029C467.321 484.438 467.056 482.805 466.756 481.182Z"/>
	<path fill="#3D405B" transform="scale(1.6 1.6)" d="M528.045 392.568C531.479 392.343 532.97 393.386 535.027 395.902C534.719 403 520.007 432.019 516.124 435.428C514.228 437.092 512.122 436.236 510.222 435.154C505.005 429.716 512.529 422.837 515.081 418.144C519.451 410.11 521.095 398.712 528.045 392.568Z"/>
	<path fill="#3D405B" transform="scale(1.6 1.6)" d="M141.806 142.429C139.065 137.282 140.779 134.672 146.309 132.579C150.981 130.811 179.531 123.904 184.018 123.802C185.346 124.719 186.401 125.547 187.434 126.818C187.181 131.792 185.768 133.55 181.227 134.803C170.842 137.668 160.731 139.655 150.114 142.759C146.922 143.693 144.703 144.536 141.806 142.429Z"/>
	<path fill="#3D405B" transform="scale(1.6 1.6)" d="M109.24 392.176C118.698 392.212 121.262 409.337 125.748 417.886C128.453 423.039 135.476 428.98 131.134 435.097C119.674 442.686 105.807 399.525 106.242 396.513C106.516 394.611 107.776 393.297 109.24 392.176Z"/>
	<path fill="#3D405B" transform="scale(1.6 1.6)" d="M544.003 259.749C549.752 259.121 551.025 261.764 551.618 267.095C552.427 274.373 555.804 304.701 548.895 307.638C547.01 307.566 544.401 307.501 542.891 306.215C540.307 304.015 541.592 279.683 541.52 275.632C541.39 268.371 538.93 265.544 544.003 259.749Z"/>
	<path fill="#3D405B" transform="scale(1.6 1.6)" d="M450.71 128.197C450.498 125.006 452.726 122.711 455.977 122.582C458.847 122.468 487.298 129.995 491.678 131.45C497.484 133.378 502.796 136.804 495.999 142.117C491.706 143.433 480.502 139.306 475.93 138.201C467.83 136.242 454.295 135.751 450.71 128.197Z"/>
	<path fill="#3D405B" transform="scale(1.6 1.6)" d="M97.2393 227.029C91.6688 223.544 97.7378 200.797 98.8047 193.898C99.8111 187.39 99.9188 177.474 109.115 179.551C114.861 184.636 108.845 199.082 107.496 206.19C105.726 215.52 107.954 228.889 97.2393 227.029Z"/>
	<path fill="#3D405B" transform="scale(1.6 1.6)" d="M89.8006 253.686C92.4441 254.322 95.2986 254.425 97.8141 255.493C101.998 261.701 99.0115 276.259 98.7547 283.791C98.4272 293.4 102.558 305.832 91.7124 306.675C85.8898 304.495 87.6614 296.692 87.7183 291.821C87.8659 279.16 88.4234 266.272 89.8006 253.686Z"/>
	<path fill="#3D405B" transform="scale(1.6 1.6)" d="M321.97 558.019C339.006 551.435 356.879 548.867 375.661 540.557C380.556 538.391 384.058 535.657 388.894 539.095C389.442 541.112 389.207 542.917 388.875 544.95C384.688 549.702 353.673 561.842 350.471 561.953C340.595 562.296 340.654 553.927 329.821 565.913C324.029 572.322 298.607 570.402 321.97 558.019Z"/>
	<path fill="#F4F1DE" transform="scale(1.6 1.6)" d="M298.933 89.0967L299.31 90.7517C301.761 88.5187 305.751 85.3345 309.238 86.38L309.042 86.3444C310.562 87.2292 312.319 87.8465 313.902 88.638L314.094 88.955L314.275 88.662C314.761 88.7796 315.25 88.8464 315.744 88.9225C315.061 88.2708 314.668 88.056 314.438 87.1246C319.128 89.9179 328.771 95.8041 332.61 88.8276C336.851 90.1898 339.441 87.5755 343.824 93.7692C343.84 100.287 371.217 109.387 375.79 108.134C384.237 110.212 387.441 107.842 397.514 113.849C397.435 114.78 397.19 115.906 397.807 116.686C399.717 119.098 426.029 128.645 431.02 124.648L431.354 124.704C436.243 125.482 441.607 125.133 446.36 126.555C447.336 126.847 449.905 128.522 450.71 128.197C454.295 135.751 467.83 136.242 475.93 138.201C480.502 139.306 491.706 143.433 495.999 142.117C499.656 146.622 517.151 143.568 521.091 149.895L521.241 150.142C522.263 155.97 525.319 163.801 532.402 163.47C532.825 166.72 532.711 178.855 533.462 179.75C540.564 180.048 541.134 191.85 542.09 197.078C543.703 205.899 545.705 218.824 548.653 226.912C547.619 228.844 546.91 229.777 544.935 230.743C545.419 236.663 547.437 251.259 545.298 256.095C544.843 257.122 543.923 258.629 544.003 259.749C538.93 265.544 541.39 268.371 541.52 275.632C541.592 279.683 540.307 304.015 542.891 306.215C544.401 307.501 547.01 307.566 548.895 307.638C544.733 308.501 546.774 316.93 545.657 322.297C545.438 323.349 543.961 325.526 544.319 326.37C538.984 330.841 537.324 350.17 536.766 357.17C536.571 359.613 537.277 360.717 538.823 362.53C538.176 371.513 534.445 379.207 530.859 387.39C530.086 389.154 528.571 390.753 528.045 392.568C521.095 398.712 519.451 410.11 515.081 418.144C512.529 422.837 505.005 429.716 510.222 435.154C508.009 437.062 498.734 448.589 495.048 452.468C489.193 452.874 482.257 464.337 478.408 468.593C474.92 472.449 469.313 477.018 466.756 481.182C467.056 482.805 467.321 484.438 467.762 486.029C458.109 495.039 448.333 499.716 438.607 507.091C435.198 507.192 408.114 517.97 414.869 527.14C410.287 530.587 394.354 540.434 388.894 539.095C384.058 535.657 380.556 538.391 375.661 540.557C356.879 548.867 339.006 551.435 321.97 558.019C320.866 557.332 313.806 561.388 311.216 561.338C305.097 561.22 296.457 551.306 296.243 555.578C294.679 548.755 285.139 548.861 278.572 546.699C272.986 544.861 260.307 537.051 256.363 544.745C255.291 543.997 230.739 532.432 230.056 532.223C226.261 534.659 194.59 523.079 198.108 510.036C196.32 507.882 190.124 504.286 187.5 502.334C183.252 499.174 172.649 488.652 169.725 487.125C168.255 487.896 166.638 488.911 164.94 488.257C160.821 486.67 137.884 464.355 141.37 455.629C141.349 455.164 132.374 436.952 131.134 435.097C135.476 428.98 128.453 423.039 125.748 417.886C121.262 409.337 118.698 392.212 109.24 392.176C110.076 388.901 100.867 371.341 101.527 363.627C102.296 362.214 103.765 361.712 104.092 359.901C104.164 359.502 99.6972 333.342 99.238 331.262C98.3954 327.446 96.8654 326.143 92.9047 325.863C94.6033 323.686 93.1722 307.972 91.7124 306.675C102.558 305.832 98.4272 293.4 98.7547 283.791C99.0115 276.259 101.998 261.701 97.8141 255.493C98.0895 254.582 97.3106 250.455 97.277 249.108C97.0938 241.763 97.236 234.378 97.2393 227.029C107.954 228.889 105.726 215.52 107.496 206.19C108.845 199.082 114.861 184.636 109.115 179.551C110.196 178.481 108.586 174.818 108.339 173.399C107.336 167.643 110.575 162.273 110.389 160.606C114.954 155.025 116.057 156.439 117.704 148.315C120.932 144.351 133.961 140.486 138.01 141.942C139.347 142.423 140.398 142.826 141.806 142.429C144.703 144.536 146.922 143.693 150.114 142.759C160.731 139.655 170.842 137.668 181.227 134.803C185.768 133.55 187.181 131.792 187.434 126.818C192.047 125.478 197.624 124.181 202.413 124.962C204.332 125.275 206.033 126.668 207.745 125.298C211.116 127.766 232.427 120.665 236.931 119.034C241.379 117.425 241.758 116.105 241.4 111.506C250.995 106.836 256.907 108.486 262.535 106.498C268.831 107.631 274.829 103.233 280.375 100.901C286.485 98.3316 298.372 97.2786 298.933 89.0967Z"/>
	<path fill="#3D405B" transform="scale(1.6 1.6)" d="M458.607 237.219C469.386 230.126 470.066 241.662 471.895 250.623C473.441 258.195 476.64 264.27 467.477 266.784C461.292 260.413 463.685 244.121 458.607 237.219Z"/>
	<path fill="#3D405B" transform="scale(1.6 1.6)" d="M198.108 510.036C206.693 507.682 212.141 514.394 220.093 518.921C225.393 521.938 235.682 524.118 230.056 532.223C226.261 534.659 194.59 523.079 198.108 510.036Z"/>
	<path fill="#3D405B" transform="scale(1.6 1.6)" d="M141.37 455.629C149.309 450.881 156.141 464.763 160.933 470.279C163.832 473.617 167.315 476.49 170.148 479.809C170.604 482.348 170.755 484.671 169.725 487.125C168.255 487.896 166.638 488.911 164.94 488.257C160.821 486.67 137.884 464.355 141.37 455.629Z"/>
	<path fill="#3D405B" transform="scale(1.6 1.6)" d="M533.462 179.75C540.564 180.048 541.134 191.85 542.09 197.078C543.703 205.899 545.705 218.824 548.653 226.912C547.619 228.844 546.91 229.777 544.935 230.743C534.929 233.097 533.188 206.488 531.507 199.008C530.137 192.913 524.584 182.391 533.462 179.75Z"/>
	<path fill="#3D405B" transform="scale(1.6 1.6)" d="M320.627 225.246C348.915 190.448 399.729 180.091 437.342 206.474C447.128 213.339 458.909 217.508 449.446 228.016L449.027 227.751C443.211 224.041 438.48 218.83 432.8 214.907C403.481 194.659 361.876 198.746 335.962 222.754C332.441 226.016 323.327 239.625 319.301 236.928C314.411 233.652 308.748 225.799 303.9 221.351C263.919 184.678 190.974 202.01 178.807 257.229C176.799 256.904 174.979 257.336 173.014 257.168C159.141 249.531 197.484 187.73 256.818 191.84C282.72 193.634 303.853 205.984 320.627 225.246Z"/>
	<path fill="#3D405B" transform="scale(1.6 1.6)" d="M320.266 464.972C325.391 459.388 336.561 453.389 343.119 448.536C388.438 414.992 434.76 360.612 454.661 308.537C456.089 304.8 457.649 294.795 462.169 293.49C472.61 295.278 468.609 312.264 463.35 310.769C438.102 372.257 406.488 412.318 353.516 452.918C345.877 458.773 328.176 472.018 319.614 475.76C313.563 473.571 307.75 468.672 302.45 465.011C269.556 442.287 240.168 414.451 215.588 382.938C209.079 374.592 202.142 370.992 209.21 361.971C213.548 361.728 218.701 370.931 220.946 373.802C252.363 413.96 279.096 437.277 320.266 464.972Z"/>
	<path fill="#E07A5F" transform="scale(1.6 1.6)" d="M178.807 257.229C190.974 202.01 263.919 184.678 303.9 221.351C308.748 225.799 314.411 233.652 319.301 236.928C323.327 239.625 332.441 226.016 335.962 222.754C361.876 198.746 403.481 194.659 432.8 214.907C438.48 218.83 443.211 224.041 449.027 227.751L449.446 228.016C451.9 231.014 454.999 235.6 458.607 237.219C463.685 244.121 461.292 260.413 467.477 266.784C467.702 275.41 465.795 284.528 462.962 292.663L462.386 292.629C462.27 292.937 462.152 293.156 462.169 293.49C457.649 294.795 456.089 304.8 454.661 308.537C434.76 360.612 388.438 414.992 343.119 448.536C336.561 453.389 325.391 459.388 320.266 464.972C279.096 437.277 252.363 413.96 220.946 373.802C218.701 370.931 213.548 361.728 209.21 361.971C203.457 358.443 192.824 340.181 192.114 333.706C190.505 332.296 188.31 332.197 186.755 330.398C184.052 327.271 172.28 304.569 172.659 301.392C172.967 298.818 175.258 296.85 177.178 295.357C173.156 279.325 169.987 276.769 173.014 257.168C174.979 257.336 176.799 256.904 178.807 257.229Z"/>
	<path fill="#3D405B" transform="scale(1.6 1.6)" d="M308.432 361.985C316.823 347.092 325.193 328.319 332.187 312.667C334.981 306.415 339.731 285.231 349.046 291.189C351.698 292.885 365.086 324.513 368.346 330.963C369.872 328.674 372.461 323.496 375.24 322.859C377.91 322.247 381.911 324.376 381.912 327.395C381.912 329.213 372.097 343.178 370.28 344.529C365.015 348.443 360.101 335.531 358.377 332.337C353.959 324.154 349.819 315.819 345.295 307.695C334.007 328.379 325.004 355.057 312.996 374.084C310.915 377.381 308.259 376.769 305.107 375.057C297.429 361.569 289.534 343.966 282.642 329.863C279.576 323.588 276.872 317.009 273.473 310.917C266.739 317.876 259.95 324.258 254.375 332.247C246.181 331.928 194.436 330.286 192.114 333.706C190.505 332.296 188.31 332.197 186.755 330.398C184.052 327.271 172.28 304.569 172.659 301.392C172.967 298.818 175.258 296.85 177.178 295.357C178.319 295.818 179.51 295.952 180.718 296.135C183.765 299.59 189.129 315.169 192.064 321.219C205.358 322.157 240.951 319.459 251.054 322.398C282.647 277.876 276.64 298.443 293.763 331.36C298.933 341.296 304.969 351.32 308.432 361.985Z"/>
</svg>
