<?xml version="1.0" encoding="utf-8" ?>
<svg xmlns="http://www.w3.org/2000/svg" xmlns:xlink="http://www.w3.org/1999/xlink" width="1024" height="1023">
	<path fill="#3D405B" transform="scale(1.6 1.6)" d="M168.278 515.725C172.869 512.565 175.32 516.231 177.609 519.454C176.031 527.148 165.534 524.301 168.278 515.725Z"/>
	<path fill="#3D405B" transform="scale(1.6 1.6)" d="M520.552 249.312C529.962 248.314 531.973 263.445 532.714 270.068C531.937 272.142 528.362 272.608 526.748 274.067C523.655 270.988 519.802 253.633 520.552 249.312Z"/>
	<path fill="#3D405B" transform="scale(1.6 1.6)" d="M110.255 263.488C115.671 236.021 132.445 206.179 149.943 184.55C154.339 179.116 174.441 156.401 179.82 156.338C182.032 156.312 184.322 158.605 185.639 160.153C182.833 165.217 178.288 168.133 174.05 171.888C151.385 191.974 134.157 220.651 123.882 248.968C122.227 253.528 119.441 264.181 116.514 267.517C115.858 267.689 115.012 268.032 114.343 268.013C112.135 266.833 111.24 265.777 110.255 263.488Z"/>
	<path fill="#3D405B" transform="scale(1.6 1.6)" d="M318.978 77.486C327.979 81.3429 323.499 96.3351 323.734 106.128C379.659 107.464 426.301 123.864 469.026 159.389C475.046 164.394 481.101 166.94 474.877 174.74C473.61 174.296 449.615 155.32 446.194 152.866C381.791 106.676 288.394 102.801 218.724 139.88C215.191 141.76 211.995 144.409 208.286 145.937L207.885 146.098C206.423 145.436 204.995 144.885 203.473 144.385C198.643 135.978 216.208 130.466 222.703 127.338C250.409 113.992 283.65 105.997 314.638 106.232C315.711 97.2205 314.07 87.4823 315.115 79.5911C316.382 78.817 317.618 78.0916 318.978 77.486Z"/>
	<path fill="#BC6C25" transform="scale(1.6 1.6)" d="M207.885 146.098L208.286 145.937C211.995 144.409 215.191 141.76 218.724 139.88C288.394 102.801 381.791 106.676 446.194 152.866C449.615 155.32 473.61 174.296 474.877 174.74C476.749 178.259 479.928 181.372 482.387 184.517C491.926 196.72 503.458 208.979 510.263 223.037C510.795 223.864 511.356 224.684 511.835 225.542C513.64 227.27 515.878 228.167 518.122 229.186C519.09 233.729 519.666 239.079 519.732 243.722C520.039 245.579 520.388 247.435 520.552 249.312C519.802 253.633 523.655 270.988 526.748 274.067C528.622 279.042 529.209 288.278 529.056 293.679C523.387 292.535 518.458 290.524 513.016 288.68C490.16 280.933 474.825 284.085 452.505 292.797C432.817 300.481 428.541 301.438 408.984 293.351C387.057 284.285 368.885 283.668 346.933 291.877C319.595 302.099 320.774 304.523 293.424 292.896C274.444 284.828 256.785 284.058 237.282 290.521C205.623 301.012 211.037 304.002 180.842 291.585C159.428 282.779 132.706 282.666 111.221 291.682C113.179 287.708 115.468 272.873 116.514 267.517C119.441 264.181 122.227 253.528 123.882 248.968C134.157 220.651 151.385 191.974 174.05 171.888C178.288 168.133 182.833 165.217 185.639 160.153C190.663 154.264 197.303 149.039 203.473 144.385C204.995 144.885 206.423 145.436 207.885 146.098Z"/>
	<path fill="#7F394B" transform="scale(1.6 1.6)" d="M507.579 229.775C498.284 232.129 501.638 223.96 505.262 222.194C506.864 221.414 508.709 222.552 510.263 223.037C510.795 223.864 511.356 224.684 511.835 225.542C511.13 227.671 509.602 228.957 507.579 229.775Z"/>
	<path fill="#F8B089" transform="scale(1.6 1.6)" d="M511.835 225.542C513.64 227.27 515.878 228.167 518.122 229.186C519.09 233.729 519.666 239.079 519.732 243.722C517.729 242.122 507.649 231.42 507.579 229.775C509.602 228.957 511.13 227.671 511.835 225.542Z"/>
	<path fill="#3D405B" transform="scale(1.6 1.6)" d="M244.068 162.841C256.297 164.767 246.08 184.552 243.029 185.263C231.393 184.869 239.336 164.465 244.068 162.841Z"/>
	<path fill="#3D405B" transform="scale(1.6 1.6)" d="M397.429 162.703C398.233 163.075 399.118 163.559 399.795 164.132C401.367 165.466 423.034 225.646 423.921 237.013C422.569 238.194 421.266 238.898 419.662 239.665L418.299 239.707C414.395 237.689 393.129 169.516 393.484 166.773C393.712 165.011 396.1 163.667 397.429 162.703Z"/>
	<path fill="#F4F1DE" transform="scale(1.6 1.6)" d="M116.514 267.517C115.468 272.873 113.179 287.708 111.221 291.682C132.706 282.666 159.428 282.779 180.842 291.585C211.037 304.002 205.623 301.012 237.282 290.521C256.785 284.058 274.444 284.828 293.424 292.896C320.774 304.523 319.595 302.099 346.933 291.877C368.885 283.668 387.057 284.285 408.984 293.351C428.541 301.438 432.817 300.481 452.505 292.797C474.825 284.085 490.16 280.933 513.016 288.68C518.458 290.524 523.387 292.535 529.056 293.679C529.209 288.278 528.622 279.042 526.748 274.067C528.362 272.608 531.937 272.142 532.714 270.068C533.485 273.716 536.261 276.951 537.679 280.393C552.86 317.241 552.999 359.409 542.769 397.641C523.041 471.369 467.825 531.026 393.561 551.127C381.913 554.28 316.795 566.762 309.874 554.958C290.556 569.528 268.683 565.668 252.782 548.101L251.056 545.985L250.282 546.218C250.02 546.824 249.83 547.414 249.652 548.049C234.552 541.281 224.523 534.274 206.568 532.286C202.451 531.83 197.166 532.148 193.347 530.614C188.161 528.53 182.366 520.889 177.609 519.454C175.32 516.231 172.869 512.565 168.278 515.725C166.737 512.87 156.271 503.88 153.043 500.459C116.928 462.19 98.1601 419.899 92.1119 367.078C90.0799 349.332 89.4463 332.132 95.469 315.101C99.2537 304.397 105.072 294.637 108.735 283.79C110.196 279.465 111.324 270.226 114.343 268.013C115.012 268.032 115.858 267.689 116.514 267.517Z"/>
	<path fill="#3D405B" transform="scale(1.6 1.6)" d="M142.581 422.19C146.473 415.146 166.061 401.57 172.976 395.958L188.242 383.557C196.811 376.579 207.68 366.696 218.991 375.323C230.409 384.032 243.03 394.988 254.108 404.245C259.763 408.97 270.555 415.415 273.633 421.927C271.379 428.994 267.545 427.192 262.605 423.567C256.072 417.859 216.102 383.207 209.67 381.038C203.203 382.812 167.794 411.483 162.513 417.042L162.42 447.763C162.42 473.094 159.689 476.455 188.318 476.54C188.582 464.763 186.441 447.587 195.809 438.749C203.746 431.263 216.459 431.925 223.848 439.909C231.844 448.549 229.706 465.283 229.452 476.508C235.311 476.242 249.129 472.371 250.743 472.634C259.136 486.422 241.236 485.584 232.376 485.538L188.97 485.554C174.784 485.559 157.835 487.178 154.242 468.884C152.999 462.554 152.66 432.037 153.351 423.752C148.915 429.128 145.294 428.437 142.581 422.19Z"/>
	<path fill="#FBCC54" transform="scale(1.6 1.6)" d="M162.513 417.042C167.794 411.483 203.203 382.812 209.67 381.038C216.102 383.207 256.072 417.859 262.605 423.567C256.898 436.273 255.281 458.11 250.743 472.634C249.129 472.371 235.311 476.242 229.452 476.508C229.706 465.283 231.844 448.549 223.848 439.909C216.459 431.925 203.746 431.263 195.809 438.749C186.441 447.587 188.582 464.763 188.318 476.54C159.689 476.455 162.42 473.094 162.42 447.763L162.513 417.042Z"/>
	<path fill="#3D405B" transform="scale(1.6 1.6)" d="M209.382 399.157C218.507 398.777 222.766 407.267 212.311 409.457C205.659 410.088 199.08 406.42 205.714 400C206.916 399.638 208.153 399.411 209.382 399.157Z"/>
	<path fill="#3D405B" transform="scale(1.6 1.6)" d="M111.221 291.682C132.706 282.666 159.428 282.779 180.842 291.585C211.037 304.002 205.623 301.012 237.282 290.521C256.785 284.058 274.444 284.828 293.424 292.896C320.774 304.523 319.595 302.099 346.933 291.877C368.885 283.668 387.057 284.285 408.984 293.351C428.541 301.438 432.817 300.481 452.505 292.797C474.825 284.085 490.16 280.933 513.016 288.68C518.458 290.524 523.387 292.535 529.056 293.679C530.803 308.489 516.865 299.096 509.899 296.933C494.109 292.029 479.032 292.521 463.631 298.256C428.83 311.216 433.973 311.962 399.278 299.165C362.003 285.417 351.188 306.321 324.267 309.126C323.798 316.943 323.957 324.799 323.957 332.627L323.979 509.1C323.987 526.91 325.114 542.555 309.874 554.958C290.556 569.528 268.683 565.668 252.782 548.101L251.056 545.985C248.853 542.528 237.271 519.992 248.254 520.007C253.08 520.013 253.949 531.267 255.503 534.953C267.865 564.28 309.549 559.77 314.454 530.708C315.835 522.52 315.184 513.529 315.182 505.23L315.166 463.728C315.157 412.255 314.702 360.737 315.257 309.269C307.567 308.45 301.359 305.793 294.358 302.751C238.438 278.456 230.989 322.315 184.814 302.531C166.012 294.474 147.804 290.82 127.75 297.011C122.861 298.52 112.894 305.811 110.503 296.983C109.974 295.03 110.193 293.41 111.221 291.682Z"/>
	<path fill="#F4F1DE" transform="scale(1.6 1.6)" d="M532.714 270.068C533.485 273.716 536.261 276.951 537.679 280.393C552.86 317.241 552.999 359.409 542.769 397.641C523.041 471.369 467.825 531.026 393.561 551.127C381.913 554.28 316.795 566.762 309.874 554.958C325.114 542.555 323.987 526.91 323.979 509.1L323.957 332.627C323.957 324.799 323.798 316.943 324.267 309.126C351.188 306.321 362.003 285.417 399.278 299.165C433.973 311.962 428.83 311.216 463.631 298.256C479.032 292.521 494.109 292.029 509.899 296.933C516.865 299.096 530.803 308.489 529.056 293.679C529.209 288.278 528.622 279.042 526.748 274.067C528.362 272.608 531.937 272.142 532.714 270.068Z"/>
	<path fill="#3D405B" transform="scale(1.6 1.6)" d="M424.792 370.118C432.94 369.693 436.804 374.207 442.673 378.981L457.53 390.993C463.192 395.557 468.822 400.186 474.577 404.632C478.693 407.812 500.729 420.047 489.992 426.45C487.227 426.711 483.573 423.091 481.482 421.406C481.297 424.735 481.505 428.137 481.516 431.475L481.548 452.434C481.545 482.15 474.134 485.017 445.258 484.977L427.344 485.007C415.389 484.831 400.545 485.957 389.032 484.23C365.005 480.626 369.479 456.727 369.455 439.047C369.447 433.118 368.818 426.53 369.733 420.71L369.271 421.482C367.422 424.529 364.254 427.529 360.747 424.946C352.806 419.098 365.45 413.294 369.163 410.266C376.685 404.132 385.087 397.394 392.39 391.15C401.707 383.183 411.892 371.428 424.792 370.118Z"/>
	<path fill="#BC6C25" transform="scale(1.6 1.6)" d="M424.002 379.425C431.728 378.47 448.738 395.445 454.598 400.287C460.98 405.561 468.238 410.702 473.751 416.837C474.005 431.503 473.063 446.353 472.682 461.044C472.241 478.033 460.324 475.409 446.931 474.808C447.576 458.185 449.983 434.478 428.524 430.843C409.118 428.803 405.216 445.269 405.236 460.73L405.272 475.218C376.661 476.424 378.411 469.625 378.409 446.062L378.43 414.104C381.957 411.173 385.932 408.729 389.522 405.852C396.376 400.359 416.609 381.69 424.002 379.425Z"/>
	<path fill="#3D405B" transform="scale(1.6 1.6)" d="M420.871 394.776C426.326 394.353 431.685 393.648 435.005 398.849C433.981 401.423 433.379 402.999 430.503 403.876C426.94 403.801 422.14 404.042 418.818 402.755C413.005 400.501 416.431 395.64 420.871 394.776Z"/>
</svg>
