<?xml version="1.0" encoding="utf-8" ?>
<svg xmlns="http://www.w3.org/2000/svg" xmlns:xlink="http://www.w3.org/1999/xlink" width="1023" height="1023">
	<path fill="#3D405B" transform="scale(1.6 1.6)" d="M318.701 68.8074C319.826 69.2866 320.958 69.7513 322.071 70.256C325.577 75.568 323.681 94.5702 323.543 101.584C352.921 101.319 384.89 108.308 411.937 119.055C484.026 147.698 539.08 208.174 565.01 280.646C560.782 288.277 556.046 284.143 550.734 280.006C544.168 273.424 513.685 270.373 504.873 270.943C498.138 271.379 497.037 277.15 492.113 268.97C490.91 265.658 471.601 270.245 471.417 270.347C474.28 279.49 464.923 278.81 458.359 281.503C427.821 294.036 444.608 290.442 414.572 280.964C352.755 261.457 347.419 296.17 325.288 296.016C319.216 295.974 305.629 285.223 298.696 282.207C289.533 278.221 280.816 280.655 281.223 269.68C267.329 269.653 253.296 268.928 239.425 269.846C238.092 280.257 226.996 278.811 217.118 282.723C212.529 284.54 206.911 288.047 202.655 289.387C196.016 291.478 179.744 283.053 173.305 280.542C143.797 269.038 123.93 267.095 93.5208 277.614L88.8432 278.768C87.3595 282.016 86.3965 285.341 84.2905 288.276C81.2708 286.885 77.2696 284.494 76.2062 281.157C74.8237 276.819 85.4861 255.373 87.7395 250.597C99.8914 224.839 115.966 202.552 135.224 181.671C142.331 173.965 143.447 168.351 152.871 174.073C161.154 160.659 210.847 128.72 226.082 126.072C225.095 123.727 225.484 122.148 226.521 119.984C243.898 108.615 293.646 102.56 313.781 101.839C314.249 93.1988 313.027 81.9195 314.162 73.8406C314.636 70.4611 315.723 70 318.701 68.8074Z"/>
	<path fill="#E07A5F" transform="scale(1.6 1.6)" d="M363.138 115.209C375.845 115.771 397.895 123.936 410.082 128.717C473.616 153.64 522.981 206.216 549.93 268.153C541.984 265.486 492.107 252.664 492.113 268.97C490.91 265.658 471.601 270.245 471.417 270.347C467.963 269.4 469.094 267.969 464.415 269.264C457.658 271.135 444.315 276.49 437.946 279.386C432.843 228.477 403.421 149.82 363.138 115.209Z"/>
	<path fill="#E07A5F" transform="scale(1.6 1.6)" d="M226.082 126.072C234.468 129.245 236.04 126.083 244.126 123.525C254.099 120.369 264.065 117.411 274.216 114.879C236.005 153.855 219.036 195.499 206.003 248.726C203.454 259.138 201.868 269.731 199.405 280.15C193.712 278.423 188.224 276.008 182.652 273.928C152.576 262.698 121.601 254.534 90.8601 268.201C99.6091 240.815 123.71 206.341 144.412 186.565C148.194 182.952 156.516 178.499 152.871 174.073C161.154 160.659 210.847 128.72 226.082 126.072Z"/>
	<path fill="#E07A5F" transform="scale(1.6 1.6)" d="M209.767 275.312C212.727 251.894 225.774 211.264 234.824 190.6C245.235 166.828 271.427 116.245 300.344 112.511C320.219 109.944 341.9 110.415 358.24 123.099C395.274 151.848 422.182 230.57 427.907 276.094C403.623 264.382 370.452 261.507 346.577 274.781C339.581 278.67 333.404 283.794 326.444 287.694C318.482 283.144 290.764 263.569 281.223 269.68C267.329 269.653 253.296 268.928 239.425 269.846C233.809 262.002 217.562 271.902 209.767 275.312Z"/>
	<path fill="#F4F1DE" transform="scale(1.6 1.6)" d="M471.417 270.347C471.601 270.245 490.91 265.658 492.113 268.97C497.037 277.15 498.138 271.379 504.873 270.943C513.685 270.373 544.168 273.424 550.734 280.006C549.72 287.068 554.938 300.82 556.433 308.378C563.044 341.786 557.897 382.074 546.397 413.571C528.291 463.159 494.651 502.667 447.861 527.424C412.497 546.135 375.881 556.51 335.729 556.569C327.953 556.58 319.143 557.316 311.662 554.752C290.452 576.956 254.523 574.702 238.847 546.561C237.434 547.395 237.934 549.124 235.8 548.86C231.372 548.315 223.332 544.672 218.943 542.872C129.594 506.229 69.5871 409.393 82.8704 312.662C83.7554 306.217 85.3553 294.379 87.5067 288.234C88.8729 284.332 93.3237 282.004 93.5208 277.614C123.93 267.095 143.797 269.038 173.305 280.542C179.744 283.053 196.016 291.478 202.655 289.387C206.911 288.047 212.529 284.54 217.118 282.723C226.996 278.811 238.092 280.257 239.425 269.846C253.296 268.928 267.329 269.653 281.223 269.68C280.816 280.655 289.533 278.221 298.696 282.207C305.629 285.223 319.216 295.974 325.288 296.016C347.419 296.17 352.755 261.457 414.572 280.964C444.608 290.442 427.821 294.036 458.359 281.503C464.923 278.81 474.28 279.49 471.417 270.347Z"/>
	<path fill="#3D405B" transform="scale(1.6 1.6)" d="M313.874 312.149C317.298 307.322 322.428 307.7 322.68 314.471C322.841 318.79 322.567 323.193 322.563 327.523L322.566 506.956C322.583 525.548 324.777 539.495 311.662 554.752C290.452 576.956 254.523 574.702 238.847 546.561C235.472 539.388 228.416 514.556 238.406 509.947C245.054 513.497 242.604 517.575 242.86 523.992C244.494 564.938 291.831 573.141 308.682 543.373C314.843 532.491 313.452 519.427 313.441 507.42L313.414 327.721C313.414 322.655 313.025 317.148 313.874 312.149Z"/>
	<path fill="#3D405B" transform="scale(1.6 1.6)" d="M434.992 331.546C438.738 331.508 441.353 335.12 444.132 337.165C453.489 344.05 476.008 351.794 486.974 347.895C490.128 346.774 493.615 342.631 497.218 343.96C503.74 346.366 502.641 355.4 502.43 360.803C501.63 381.343 492.697 431.212 480.524 448.832C472.103 461.021 450.375 478.675 437.123 484.605C432.157 485.547 427.175 480.673 423.338 478.114C409.764 469.065 397.144 459.968 389.203 445.219C382.912 433.533 359.069 350.722 374.451 344.148C379.182 342.127 392.921 357.127 421.777 340.098C426.32 337.417 430.166 333.749 434.992 331.546Z"/>
	<path fill="#93FE2E" transform="scale(1.6 1.6)" d="M435.521 343.704C438.459 344.733 443.15 348.687 446.407 350.338C460.509 357.487 478.219 360.081 493.774 356.807C492.867 380.367 487.415 403.987 479.195 426.025C469.963 450.776 464.56 453.284 443.273 469.488C441.668 470.71 438.133 474.111 436.396 474.625C420.934 465.596 406.326 455.399 397.872 439.175C386.969 418.253 379.271 379.336 378.692 355.953C398.234 363.336 419.14 354.856 435.521 343.704Z"/>
	<path fill="#3D405B" transform="scale(1.6 1.6)" d="M457.676 390.422C459.594 390.444 461.732 394.06 461.586 395.715C461.292 399.073 435.899 420.621 425.959 420.29C411.998 413.889 429.031 408.958 431.868 407.162C439.315 402.448 449.049 391.3 457.676 390.422Z"/>
</svg>
