<?xml version="1.0" encoding="utf-8" ?>
<svg xmlns="http://www.w3.org/2000/svg" xmlns:xlink="http://www.w3.org/1999/xlink" width="1024" height="1024">
	<path fill="#3D405B" transform="scale(1.6 1.6)" d="M497.439 331.443C494.184 330.89 489.701 317.029 501.319 319.191C512.245 324.482 506.314 330.262 497.439 331.443Z"/>
	<path fill="#3D405B" transform="scale(1.6 1.6)" d="M403.388 93.8754C399.376 85.4701 414.497 86.0474 417.498 85.9166C428.337 85.4439 451.057 83.4546 459.3 87.1055C468.462 91.1633 479.768 119.439 483.357 130.868C482.499 132.322 481.438 133.647 480.097 134.689C478.834 134.777 477.577 135.169 476.346 135.464C471.808 125.821 462.398 99.8683 456.009 95.0744C451.847 94.6638 447.659 94.9273 443.483 94.9443L420.019 95.1074C414.225 95.1218 409.023 95.5687 403.388 93.8754Z"/>
	<path fill="#3D405B" transform="scale(1.6 1.6)" d="M486.247 151.804C487.849 151.349 489.39 152.159 490.869 152.754C493.231 156.5 494.641 161.301 496.184 165.436C502.398 182.095 522.75 239.547 518.773 257.044C517.053 264.615 514.578 271.949 512.599 279.445C511.399 283.987 511.246 294.801 505.652 296.265C494.462 288.863 511.139 263.215 510.635 248.311C510.125 233.211 496.561 190.94 491.339 177.071C488.552 169.667 484.989 162.575 482.202 155.166C483.422 153.806 484.76 152.846 486.247 151.804Z"/>
	<path fill="#3D405B" transform="scale(1.6 1.6)" d="M178.817 488.029C176.818 488.724 174.298 489.178 172.753 487.332C170.081 484.138 157.381 426.821 155.811 419.758L125.349 278.902C123.23 269.289 119.135 258.095 120.672 248.15C121.486 242.879 125.678 220.125 133.758 221.698C134.814 222.8 136.286 223.143 136.444 224.895C137.118 232.365 128.407 244.305 129.657 256.514C130.456 264.314 133.034 272.421 134.795 280.091L145.251 326.492C156.689 379.266 166.291 432.906 181.342 484.819C180.642 485.824 179.331 487.013 178.817 488.029Z"/>
	<path fill="#3D405B" transform="scale(1.6 1.6)" d="M138.653 203.834C129.485 199.261 140.504 181.688 143.568 173.411L157.889 135.195C162.771 122.141 167.609 108.695 173.943 96.2626C180.35 83.6862 190.986 85.2965 202.946 85.3044L349.805 85.3044C366.467 85.3009 376.553 80.9867 387.203 94.995C389.282 100.684 407.162 129.511 395.881 129.09C387.458 128.777 381.406 101.346 374.991 95.2904C373.615 93.9911 370.82 94.366 369.051 94.3851C361.05 93.9443 352.901 94.4001 344.878 94.404L212.099 94.543C205.744 94.5994 191.336 93.904 185.749 95.2239C179.497 101.099 155.084 168.655 148.404 185.784C146.952 189.507 144.106 204.611 138.653 203.834Z"/>
	<path fill="#3D405B" transform="scale(1.6 1.6)" d="M487.585 370.731C496.504 374.708 490.143 384.116 488.264 391.884C477.543 436.223 466.941 481.507 450.958 524.325C434.304 568.94 434.517 561.281 388.762 561.261L247.711 561.245C235.175 561.244 221.642 561.757 209.254 561.265C192.536 560.6 188.889 540.841 184.444 528.113C182.333 522.07 174.791 509.849 182.979 507.069C192.458 508.118 193.564 540.48 204.7 550.738C213.229 553.616 238.556 552.22 248.112 552.222L329.831 552.216C335.75 552.213 342.167 552.655 347.996 551.589L365.127 551.535C371.694 538.851 380.118 516.543 384.051 502.962C386.33 495.09 388.979 481.028 392.319 474.197C396.077 466.51 400.243 471.488 401.631 477.236C400.708 480.904 399.096 484.485 398.04 488.15C391.372 511.29 384.643 530.374 375.994 552.768C384.854 552.82 393.751 552.572 402.62 552.577C430.516 552.591 429.255 556.046 439.645 529.225C452.456 496.157 461.46 462.403 470.172 428.125L482.007 381.851C482.93 378.198 484.126 372.79 487.585 370.731Z"/>
	<path fill="#BC6C25" transform="scale(1.6 1.6)" d="M403.388 93.8754C409.023 95.5687 414.225 95.1218 420.019 95.1074L443.483 94.9443C447.659 94.9273 451.847 94.6638 456.009 95.0744C462.398 99.8683 471.808 125.821 476.346 135.464C477.577 135.169 478.834 134.777 480.097 134.689C480.492 138.602 484.519 147.808 486.247 151.804C484.76 152.846 483.422 153.806 482.202 155.166C484.989 162.575 488.552 169.667 491.339 177.071C496.561 190.94 510.125 233.211 510.635 248.311C511.139 263.215 494.462 288.863 505.652 296.265C503.244 299.307 501.606 314.758 501.319 319.191C489.701 317.029 494.184 330.89 497.439 331.443L496.737 331.728C495.762 334.826 495.265 338.205 494.555 341.383L490.225 360.624C489.549 363.622 489.111 367.399 487.838 370.171L487.585 370.731C484.126 372.79 482.93 378.198 482.007 381.851L470.172 428.125C461.46 462.403 452.456 496.157 439.645 529.225C429.255 556.046 430.516 552.591 402.62 552.577C393.751 552.572 384.854 552.82 375.994 552.768C384.643 530.374 391.372 511.29 398.04 488.15C399.096 484.485 400.708 480.904 401.631 477.236C400.243 471.488 396.077 466.51 392.319 474.197C388.979 481.028 386.33 495.09 384.051 502.962C380.118 516.543 371.694 538.851 365.127 551.535L347.996 551.589C357.231 543.368 373.347 480.539 378.429 460.293L402.319 364.572C405.465 351.576 426.191 263.431 424.56 253.596C423.783 248.909 422.114 244.314 420.698 239.789L413.144 216.297C409.667 205.52 406.807 194.556 403.153 183.833C396.42 164.072 388.149 143.131 380.732 123.399C378.357 117.081 369.742 100.165 369.546 94.8175L369.051 94.3851C370.82 94.366 373.615 93.9911 374.991 95.2904C381.406 101.346 387.458 128.777 395.881 129.09C407.162 129.511 389.282 100.684 387.203 94.995C392.745 95.1224 397.909 94.656 403.388 93.8754Z"/>
	<path fill="#3D405B" transform="scale(1.6 1.6)" d="M405.488 145.71L409.168 146.033C413.624 149.076 414.608 156.415 416.579 161.152C424.971 181.312 430.709 198.744 437.846 219.139C442.738 233.117 449.42 242.521 447.961 257.643C446.588 271.864 442.947 285.888 440.051 299.856L428.868 353.202C422.831 381.933 413.891 412.128 409.485 440.364C408.665 445.617 409.658 452.527 404.092 454.996C393.967 455.621 399.521 441.287 400.757 435.567L429.981 302.233C431.503 294.764 441.59 254.797 439.303 248.72C430.509 225.355 422.911 202.245 414.348 179.064C412.16 173.139 397.432 148.203 405.488 145.71Z"/>
	<path fill="#F4F1DE" transform="scale(1.6 1.6)" d="M138.653 203.834C144.106 204.611 146.952 189.507 148.404 185.784C155.084 168.655 179.497 101.099 185.749 95.2239C191.336 93.904 205.744 94.5994 212.099 94.543L344.878 94.404C352.901 94.4001 361.05 93.9443 369.051 94.3851L369.546 94.8175C369.742 100.165 378.357 117.081 380.732 123.399C388.149 143.131 396.42 164.072 403.153 183.833C406.807 194.556 409.667 205.52 413.144 216.297L420.698 239.789C422.114 244.314 423.783 248.909 424.56 253.596C426.191 263.431 405.465 351.576 402.319 364.572L378.429 460.293C373.347 480.539 357.231 543.368 347.996 551.589C342.167 552.655 335.75 552.213 329.831 552.216L248.112 552.222C238.556 552.22 213.229 553.616 204.7 550.738C193.564 540.48 192.458 508.118 182.979 507.069C182.978 506.767 179.16 488.799 178.817 488.029C179.331 487.013 180.642 485.824 181.342 484.819C166.291 432.906 156.689 379.266 145.251 326.492L134.795 280.091C133.034 272.421 130.456 264.314 129.657 256.514C128.407 244.305 137.118 232.365 136.444 224.895C136.286 223.143 134.814 222.8 133.758 221.698L134.285 221.096C134.158 216.659 135.986 207.39 138.653 203.834Z"/>
	<path fill="#3D405B" transform="scale(1.6 1.6)" d="M279.042 161.344C296.755 160.583 296.093 177.017 296.59 189.373C297.019 200.01 297.274 210.562 297.524 221.206C308.223 220.588 335.804 218.009 345.774 219.667C360.88 222.181 361.269 244.069 347.268 248.885C336.91 252.448 309.87 251.013 298.022 251.692C299.628 283.689 300.699 315.738 302.787 347.708C303.745 362.381 309.499 384.855 293.191 391.652C284.853 393.788 276.193 388.144 274.62 379.571C273.622 374.133 273.921 368.48 273.677 362.972L269.892 290.841C269.113 278.172 268.121 265.468 268.084 252.768C257.351 252.711 224.874 256.542 216.544 251.012C207.286 244.866 207.468 229.698 218.509 225.429C231.213 220.516 253.286 223.844 267.869 221.452C267.659 211.364 266.36 199.289 265.767 188.884C265.076 176.737 264.286 164.405 279.042 161.344Z"/>
</svg>
