<?xml version="1.0" encoding="utf-8" ?>
<svg xmlns="http://www.w3.org/2000/svg" xmlns:xlink="http://www.w3.org/1999/xlink" width="1024" height="1024">
	<path fill="#3D405B" transform="scale(1.6 1.6)" d="M210.638 112.818C214.173 113.963 215.522 116.365 217.098 119.508C215.144 120.997 213.202 122.214 211.092 123.458C203.927 125.077 199.629 115.728 210.638 112.818Z"/>
	<path fill="#3D405B" transform="scale(1.6 1.6)" d="M183.554 142.932C178.116 142.643 171.644 133.732 179.102 131.624C183.75 130.311 187.161 134.296 188.07 138.442C187.465 138.849 184.094 142.265 183.554 142.932Z"/>
	<path fill="#F4F1DE" transform="scale(1.6 1.6)" d="M320.949 72.589C319.449 67.5628 320.529 52.3879 329.191 58.4078C335.831 63.0222 338.634 77.1615 338.828 85.2914C343.903 86.6179 349.215 86.5678 354.377 87.3663C407.991 95.6599 457.681 121.917 495.362 160.937C501.805 167.609 509.311 174.73 513.728 182.969C512.612 185.15 511.218 188.419 508.247 187.721C508.445 188.824 508.625 189.934 508.854 191.032C512.044 199.31 516.927 206.661 520.769 214.617C530.756 235.3 538.685 257.79 541.866 280.616C542.328 283.93 545.053 295.058 540.685 296.283C544.406 302.422 552.456 315.44 550.84 322.68C549.812 327.285 544.141 327.486 542.605 323.127C539.018 327.622 535.079 349.484 533.355 355.761C522.793 394.232 510.262 432.447 488.645 466.295C466.853 500.416 413.91 551.355 370.25 554.674C359.09 545.171 351.169 532.511 339.375 523.769C334.639 592.977 238.45 598.953 216.197 542.493C213.138 534.732 211.419 524.319 214.831 516.41L209.743 517.182C203.363 514.676 198.13 509.197 193.16 504.618C143.46 458.827 120.253 401.585 97.6581 340.532C96.2798 336.808 96.2936 329.281 93.4225 326.887C86.7113 323.32 89.7238 311.352 90.0359 305.193C92.0338 265.769 106.725 224.886 128.406 192.057C132.002 186.612 154.705 156.131 159.909 155.355C162.338 154.992 164.709 157.124 166.531 158.439C172.106 153.104 178.997 149.392 183.554 142.932C184.094 142.265 187.465 138.849 188.07 138.442C191.636 139.978 207.619 126.929 211.092 123.458C213.202 122.214 215.144 120.997 217.098 119.508C219.773 118.858 236.007 110.607 238.552 108.963C237.86 107.307 237.044 104.711 238.091 103.106C243.374 95.0073 295.146 86.6394 310.802 84.9707C313.451 81.3192 317.259 74.8743 320.949 72.589Z"/>
	<path fill="#B4B8BA" transform="scale(1.6 1.6)" d="M310.029 380.523L312.12 383.395L315.036 384.281C315.212 389.665 312.933 387.43 310 385.504C309.945 383.847 310.006 382.181 310.029 380.523Z"/>
	<path fill="#3D405B" transform="scale(1.6 1.6)" d="M93.4225 326.887C86.7113 323.32 89.7238 311.352 90.0359 305.193C92.0338 265.769 106.725 224.886 128.406 192.057C132.002 186.612 154.705 156.131 159.909 155.355C162.338 154.992 164.709 157.124 166.531 158.439C165.889 163.64 159.011 168.321 155.603 172.13C121.895 209.8 107.501 247.998 99.4797 297.9C112.446 280.673 123.911 272.923 146.373 269.764C179.786 265.066 211.233 278.084 231.638 304.6C233.771 307.372 235.634 310.345 237.765 313.115C275.244 252.459 367.481 252.315 403.029 314.411C421.915 276.403 476.149 256.798 514.554 275.844C527.664 282.346 531.11 287.554 540.685 296.283C544.406 302.422 552.456 315.44 550.84 322.68C549.812 327.285 544.141 327.486 542.605 323.127C539.292 289.579 498.782 275.472 469.291 278.642C444.793 281.276 421.603 298.018 409.981 319.677C400.382 337.568 399.491 325.963 393.652 316.114C380.839 294.499 361.743 284.511 338.502 277.789C338.206 294.36 338.394 310.96 338.393 327.535L338.413 448.349C338.416 455.086 339.043 462.698 337.659 469.293C336.555 476.587 337.142 484.478 337.179 491.854C341.419 494.118 339.067 517.477 339.375 523.769C334.639 592.977 238.45 598.953 216.197 542.493C213.138 534.732 211.419 524.319 214.831 516.41C217.931 510.149 224.063 504.93 231.466 505.833C241.125 507.012 242.583 514.608 245.666 521.871C255.446 544.913 291.904 548.482 297.976 523.494C300.514 513.05 299.778 495.478 299.778 484.483L299.769 390.744C299.766 386.058 299.556 381.226 300.08 376.566L300.134 376.099C305.106 371.087 308.286 374.576 310.029 380.523C310.006 382.181 309.945 383.847 310 385.504C309.188 410.31 309.862 435.169 309.42 459.99C315.88 460.006 322.348 459.957 328.803 460.238C329.368 438.203 328.915 416.041 328.918 393.991L328.922 364.659C328.925 359.014 329.109 353.314 328.811 347.68C330.951 327.602 328.644 297.721 329.01 276.566C322.344 276.501 315.739 276.509 309.099 277.187L309.688 348.716C309.698 351.754 310.62 357.122 308.454 359.634C306.838 361.509 303.754 362.102 301.889 360.23C299.138 357.469 300.281 350.707 300.3 347.216L300.329 278.485C253.458 290.259 244.78 325.643 239.642 327.976C232.866 331.052 229.155 318.139 226.67 314.047C198.982 268.454 121.172 262.986 100.539 315.187C98.8457 319.472 98.3753 324.635 93.8307 326.704L93.4225 326.887Z"/>
	<path fill="#F4F1DE" transform="scale(1.6 1.6)" d="M338.502 277.789C361.743 284.511 380.839 294.499 393.652 316.114C399.491 325.963 400.382 337.568 409.981 319.677C421.603 298.018 444.793 281.276 469.291 278.642C498.782 275.472 539.292 289.579 542.605 323.127C539.018 327.622 535.079 349.484 533.355 355.761C522.793 394.232 510.262 432.447 488.645 466.295C466.853 500.416 413.91 551.355 370.25 554.674C359.09 545.171 351.169 532.511 339.375 523.769C339.067 517.477 341.419 494.118 337.179 491.854C337.142 484.478 336.555 476.587 337.659 469.293C339.043 462.698 338.416 455.086 338.413 448.349L338.393 327.535C338.394 310.96 338.206 294.36 338.502 277.789Z"/>
	<path fill="#E07A5F" transform="scale(1.6 1.6)" d="M320.949 72.589C319.449 67.5628 320.529 52.3879 329.191 58.4078C335.831 63.0222 338.634 77.1615 338.828 85.2914C343.903 86.6179 349.215 86.5678 354.377 87.3663C407.991 95.6599 457.681 121.917 495.362 160.937C501.805 167.609 509.311 174.73 513.728 182.969C512.612 185.15 511.218 188.419 508.247 187.721C508.445 188.824 508.625 189.934 508.854 191.032C512.044 199.31 516.927 206.661 520.769 214.617C530.756 235.3 538.685 257.79 541.866 280.616C542.328 283.93 545.053 295.058 540.685 296.283C531.11 287.554 527.664 282.346 514.554 275.844C476.149 256.798 421.915 276.403 403.029 314.411C367.481 252.315 275.244 252.459 237.765 313.115C235.634 310.345 233.771 307.372 231.638 304.6C211.233 278.084 179.786 265.066 146.373 269.764C123.911 272.923 112.446 280.673 99.4797 297.9C107.501 247.998 121.895 209.8 155.603 172.13C159.011 168.321 165.889 163.64 166.531 158.439C172.106 153.104 178.997 149.392 183.554 142.932C184.094 142.265 187.465 138.849 188.07 138.442C191.636 139.978 207.619 126.929 211.092 123.458C213.202 122.214 215.144 120.997 217.098 119.508C219.773 118.858 236.007 110.607 238.552 108.963C237.86 107.307 237.044 104.711 238.091 103.106C243.374 95.0073 295.146 86.6394 310.802 84.9707C313.451 81.3192 317.259 74.8743 320.949 72.589Z"/>
	<path fill="#3D405B" transform="scale(1.6 1.6)" d="M413.231 201.552C415.037 201.928 417.09 202.57 418.212 204.153C421.578 208.905 427.167 258.151 426.141 265.23C425.504 265.967 424.746 266.595 424.022 267.246C421.959 268.242 419.419 268.725 417.931 266.467C416.887 264.882 413.929 227.43 413.262 222.495C412.468 216.612 410.631 210.774 410.971 204.812C411.627 203.627 412.401 202.614 413.231 201.552Z"/>
	<path fill="#3D405B" transform="scale(1.6 1.6)" d="M320.949 72.589C319.449 67.5628 320.529 52.3879 329.191 58.4078C335.831 63.0222 338.634 77.1615 338.828 85.2914C343.903 86.6179 349.215 86.5678 354.377 87.3663C407.991 95.6599 457.681 121.917 495.362 160.937C501.805 167.609 509.311 174.73 513.728 182.969C512.612 185.15 511.218 188.419 508.247 187.721C508.445 188.824 508.625 189.934 508.854 191.032C507.14 190.402 505.966 189.242 504.599 188.07C503.527 188.18 502.446 188.396 501.379 188.56C471.068 154.407 425.655 131.62 385.64 111.346C382.045 108.557 382.68 108.588 378.456 108.579L381.485 111.318C395.042 128.041 402.301 143.07 409.635 163.173C412.164 170.105 420.902 183.61 409.853 186.224C406.337 185.575 405.226 179.057 404.298 176.078C391.474 134.902 368.492 92.3884 318.815 94.0818C247.82 96.502 229.407 189.037 223.96 245.208C223.633 248.58 223.977 267.436 218.49 266.94C210.556 266.222 214.28 252.613 214.749 247.83C218.975 204.796 229.171 147.465 257.385 114.577C261.877 109.34 267.063 105.432 272.49 101.257C262.313 105.088 249.401 111.482 238.974 109.057L238.552 108.963C237.86 107.307 237.044 104.711 238.091 103.106C243.374 95.0073 295.146 86.6394 310.802 84.9707C313.451 81.3192 317.259 74.8743 320.949 72.589Z"/>
	<path fill="#F3B946" transform="scale(1.6 1.6)" d="M310.802 84.9707C313.451 81.3192 317.259 74.8743 320.949 72.589C325.61 77.1795 327.526 74.4196 330.685 84.0366C324.116 84.7778 317.407 84.7652 310.802 84.9707Z"/>
	<path fill="#FCB5AD" transform="scale(1.6 1.6)" d="M364.239 98.5109C372.497 99.2985 380.479 102.244 388.342 104.759C430.683 118.302 460.473 138.944 491.149 169.798C495.215 173.887 506.083 183.053 508.247 187.721C508.445 188.824 508.625 189.934 508.854 191.032C507.14 190.402 505.966 189.242 504.599 188.07C503.527 188.18 502.446 188.396 501.379 188.56C471.068 154.407 425.655 131.62 385.64 111.346C382.045 108.557 382.68 108.588 378.456 108.579C373.899 104.895 369.173 101.667 364.239 98.5109Z"/>
</svg>
