<?xml version="1.0" encoding="utf-8" ?>
<svg xmlns="http://www.w3.org/2000/svg" xmlns:xlink="http://www.w3.org/1999/xlink" width="1023" height="1024">
	<path fill="#3D405B" transform="scale(1.6 1.6)" d="M220.016 121.458C221.489 117.341 216.959 113.118 222.608 110.578C227.696 108.29 238.604 108.578 234.715 116.494C232.796 118.953 223.193 121.219 220.016 121.458Z"/>
	<path fill="#3D405B" transform="scale(1.6 1.6)" d="M113.854 184.478C110.373 187.84 104.318 186.697 104.047 181.443C103.449 169.867 102.777 140.063 104.13 128.802C105.467 117.667 114.852 120.722 122.363 121.188C141.344 122.365 159.536 121.937 178.509 120.357C183.608 119.932 188.808 119.097 193.913 119.109C196.771 120.968 198.118 123.22 199.44 126.263C180.03 134.753 136.182 129.427 112.82 129.659C113.437 142.184 112.816 154.771 113.061 167.309C113.168 172.746 114.472 179.287 113.854 184.478Z"/>
	<path fill="#3D405B" transform="scale(1.6 1.6)" d="M184.056 493.638C174.272 497.838 150.668 462.54 145.251 454.657C112.381 406.822 104.067 375.324 104.051 319.922L104.102 241.587C104.075 236.734 103.319 228.151 104.268 223.7C105.209 219.287 110.692 218.059 113.159 221.742C112.559 223.412 113.035 254.224 113.034 258.237L113.023 312.717C113.018 322.359 112.788 332.063 113.052 341.695C114.376 389.973 142.098 444.374 175.641 478.876C179.939 483.298 186.195 486.598 184.056 493.638Z"/>
	<path fill="#3D405B" transform="scale(1.6 1.6)" d="M240.331 114.353C245.698 105.331 269.497 96.7903 278.81 92.618C289.384 87.8805 299.624 82.6893 309.669 76.9095C322.513 69.5193 322.31 72.4421 334.101 78.9234C388.775 108.977 450.859 124.554 513.344 121.487C536.336 120.358 536.261 118.123 536.248 141.218L536.238 217.704C536.242 226.185 539.802 247.538 530.974 250.55C529.604 249.181 528.388 247.863 527.271 246.277C526.734 242.839 527.089 239.019 527.103 235.53L527.145 163.585C527.15 152.22 527.336 140.82 526.935 129.46C455.493 136.009 381.117 117.94 319.398 81.5236C303.98 91.4727 260.624 113.508 242.957 115.885C242.031 115.471 241.188 114.891 240.331 114.353Z"/>
	<path fill="#3D405B" transform="scale(1.6 1.6)" d="M529.958 289.795C535.128 289.28 536.22 291.518 536.289 296.446C536.556 315.761 537.283 341.165 534.866 359.725C529.782 398.778 508.009 440.025 483.375 470.403C447.328 514.858 394.744 547.805 339.987 563.365C320.639 568.863 323.672 570.415 304.539 564.985C273.113 556.067 246.462 544.621 218.902 526.38C211.173 521.265 205.734 521.178 205.87 512C211.082 508.668 215.986 513.898 219.966 516.797C244.194 534.446 279.804 549.472 308.39 556.962C318.662 559.653 318.728 559.97 328.775 557.127C403.508 535.98 467.015 492.617 504.091 422.488C520.759 390.962 527.157 368.678 527.158 333.875L527.125 309.872C527.101 303.448 525.021 295.173 529.717 290.055L529.958 289.795Z"/>
	<path fill="#F4F1DE" transform="scale(1.6 1.6)" d="M319.398 81.5236C381.117 117.94 455.493 136.009 526.935 129.46C527.336 140.82 527.15 152.22 527.145 163.585L527.103 235.53C527.089 239.019 526.734 242.839 527.271 246.277C528.388 247.863 529.604 249.181 530.974 250.55C529.568 251.933 529.931 254.158 529.918 256.032L529.971 277.1C529.96 279.286 529.137 289.353 529.958 289.795L529.717 290.055C525.021 295.173 527.101 303.448 527.125 309.872L527.158 333.875C527.157 368.678 520.759 390.962 504.091 422.488C467.015 492.617 403.508 535.98 328.775 557.127C318.728 559.97 318.662 559.653 308.39 556.962C279.804 549.472 244.194 534.446 219.966 516.797C215.986 513.898 211.082 508.668 205.87 512C199.998 505.481 190.685 499.972 184.056 493.638C186.195 486.598 179.939 483.298 175.641 478.876C142.098 444.374 114.376 389.973 113.052 341.695C112.788 332.063 113.018 322.359 113.023 312.717L113.034 258.237C113.035 254.224 112.559 223.412 113.159 221.742L113.382 222.067C120.161 216.113 120.787 197.103 119.896 188.838C118.414 187.111 116.285 184.594 113.854 184.478C114.472 179.287 113.168 172.746 113.061 167.309C112.816 154.771 113.437 142.184 112.82 129.659C136.182 129.427 180.03 134.753 199.44 126.263C206.712 125.747 212.622 123.638 219.426 121.628L220.016 121.458C223.193 121.219 232.796 118.953 234.715 116.494C236.842 116.392 238.589 115.514 240.331 114.353C241.188 114.891 242.031 115.471 242.957 115.885C260.624 113.508 303.98 91.4727 319.398 81.5236Z"/>
	<path fill="#3D405B" transform="scale(1.6 1.6)" d="M232.97 375.803C238.681 378.58 240.771 379.45 242.294 385.579C241.534 387.15 240.863 388.742 240.201 390.355C234.58 395.304 228.256 384.186 232.97 375.803Z"/>
	<path fill="#3D405B" transform="scale(1.6 1.6)" d="M281.743 188.255C305.95 186.725 319.575 242.077 289.283 249.31C259.862 252.891 253.722 190.48 281.743 188.255Z"/>
	<path fill="#BC6C25" transform="scale(1.6 1.6)" d="M282.425 197.232C295.939 197.514 305.12 231.633 288.171 240.171C272.279 242.292 265.193 201.933 282.425 197.232Z"/>
	<path fill="#3D405B" transform="scale(1.6 1.6)" d="M356.26 187.557C379.25 186.185 387.798 241.405 354.745 249.336C327.719 253.771 324.972 193.85 356.26 187.557Z"/>
	<path fill="#BC6C25" transform="scale(1.6 1.6)" d="M355.771 197.546C371.022 196.389 372.355 236.061 353.618 240.799C334.802 238.253 340.596 202.862 355.771 197.546Z"/>
	<path fill="#3D405B" transform="scale(1.6 1.6)" d="M409.961 233.877C445.371 231.036 433.662 294.511 401.481 298.85C370.992 299.331 371.122 237.691 409.961 233.877Z"/>
	<path fill="#BC6C25" transform="scale(1.6 1.6)" d="M408.506 242.565C433.662 240.142 418.748 286.034 401.954 289.947C383.669 291.361 383.623 248.2 408.506 242.565Z"/>
	<path fill="#3D405B" transform="scale(1.6 1.6)" d="M226.038 233.533C260.48 231.517 275.078 290.539 244.038 299.263C216.084 305.985 190.648 238.356 226.038 233.533Z"/>
	<path fill="#BC6C25" transform="scale(1.6 1.6)" d="M225.269 243.487C252.44 241.41 258.774 280.938 243.598 290.223C228.22 296.089 205.011 248.395 225.269 243.487Z"/>
	<path fill="#3D405B" transform="scale(1.6 1.6)" d="M227.377 367.534C225.417 365.852 224.792 364.014 224.605 361.484C222.523 333.403 238.802 317.175 254.508 296.509C270.833 275.028 284.279 251.575 314.527 250.002C347.542 248.285 361.285 263.003 379.325 287.016L393.674 306.319C399.432 314.165 406.874 322.992 411.065 331.801C427.721 366.819 404.296 412.742 364.995 414.268C350.842 414.817 337.838 407.563 323.702 407.816C317.13 407.934 310.494 408.408 303.994 409.401C295.799 410.652 253.076 423.41 260.093 403.236C286.709 407.782 306.149 394.314 337.782 400.521C359.511 404.784 373.855 408.401 392.285 391.873C407.599 378.138 411.28 354.595 403.265 336.012C399.64 327.606 387.587 312.854 381.864 305.153C365.76 283.482 352.932 260.765 322.581 259.361C287.161 257.722 275.227 284.572 257.037 309.27C236.938 336.559 236.807 328.721 235.305 361.563L235.278 362.108C233.387 365.254 231.352 367.667 227.377 367.534Z"/>
	<path fill="#BC6C25" transform="scale(1.6 1.6)" d="M235.278 362.108L235.305 361.563C236.807 328.721 236.938 336.559 257.037 309.27C275.227 284.572 287.161 257.722 322.581 259.361C352.932 260.765 365.76 283.482 381.864 305.153C387.587 312.854 399.64 327.606 403.265 336.012C411.28 354.595 407.599 378.138 392.285 391.873C373.855 408.401 359.511 404.784 337.782 400.521C306.149 394.314 286.709 407.782 260.093 403.236C258.81 402.329 256.854 402.221 255.462 401.328C252.58 399.478 242.468 392.303 240.201 390.355C240.863 388.742 241.534 387.15 242.294 385.579C240.771 379.45 238.681 378.58 232.97 375.803C231.496 372.946 229.264 370.144 227.377 367.534C231.352 367.667 233.387 365.254 235.278 362.108Z"/>
</svg>
