<?xml version="1.0" encoding="utf-8" ?>
<svg xmlns="http://www.w3.org/2000/svg" xmlns:xlink="http://www.w3.org/1999/xlink" width="1024" height="1023">
	<path fill="#F4F1DE" transform="scale(1.6 1.6)" d="M313.637 81.7272C439.365 78.5583 549.327 175.965 558.308 302.249C564.892 394.817 514.804 486.178 433.066 529.799C400.315 547.277 363.23 558.482 325.859 558.488C265.383 560.732 205.264 537.348 160.462 497.166C46.1803 394.669 58.5801 213.682 183.411 125.029C222.484 97.2804 266.294 84.0154 313.637 81.7272Z"/>
	<path fill="#3D405B" transform="scale(1.6 1.6)" d="M146.059 226.629C148.422 220.867 155.431 212.031 161.437 210.087L162.087 211.513C162.85 216.119 156.902 223.427 155.024 227.896C153.2 228.388 151.427 228.614 149.554 228.821C148.133 228.347 147.202 227.555 146.059 226.629Z"/>
	<path fill="#3D405B" transform="scale(1.6 1.6)" d="M318.035 315.302C326.488 314.737 323.438 325.666 323.438 331.933L323.425 367.377C323.416 370.624 323.887 374.456 321.403 376.924C313.076 377.52 315.531 367.37 315.529 361.411L315.534 341.695C315.54 335.601 313.323 318.714 318.035 315.302Z"/>
	<path fill="#3D405B" transform="scale(1.6 1.6)" d="M194.749 422.093C193.222 384.197 286.259 380.35 301.845 402.305C313.552 393.257 328.36 394.828 339.889 403.087C340.267 402.035 340.703 400.986 340.945 399.894C360.922 384.462 425.643 386.603 440.965 406.473C445.281 412.07 447.983 426.015 440.453 419.696C439.421 429.57 437.24 439.418 433.57 448.648C431.908 452.827 431.806 453.654 427.269 453.844C424.707 454.571 422.352 455.438 422.522 458.467C421.955 459.762 421.53 460.602 421.759 462.026L421.861 461.744C421.939 462.36 421.891 462.946 421.862 463.564L421.883 463.559C421.088 464.392 421.271 463.5 420.795 462.882C404.379 472.713 380.087 467.033 365.381 456.836C349.17 445.596 341.303 430.824 337.814 411.777C327.775 401.039 308.666 398.489 302.605 413.834C300.518 419.115 300.239 424.906 297.787 430.151C286.612 454.053 257.546 472.623 230.765 466.985C225.854 465.951 220.507 463.91 217.657 459.563C218.369 458.245 219.14 457.093 220.04 455.897C211.98 452.174 201.994 452.887 202.192 437.122L203.409 436.793C203.937 435.343 204.881 434.327 205.858 433.162C204.838 432.31 204.6 432.259 203.263 432.342C204.1 429.96 203.675 428.976 202.728 426.703C199.009 426.487 196.727 425.149 194.749 422.093Z"/>
	<path fill="#A8A8A7" transform="scale(1.6 1.6)" d="M205.858 433.162C207.169 433.861 208.506 434.281 209.957 434.594L210.086 434.929C208.043 435.737 205.583 436.488 203.409 436.793C203.937 435.343 204.881 434.327 205.858 433.162Z"/>
	<path fill="#3D405B" transform="scale(1.6 1.6)" d="M315.332 156.31C315.517 152.79 314.903 136.217 316.39 134.321C317.376 133.063 320.763 132.817 321.904 134.111C323.677 136.123 323.424 152.786 323.119 156.307C413.475 157.019 520.194 199.458 519.123 305.584C519.088 308.958 519.212 315.87 514.249 315.82C511.03 315.787 507.395 308.392 505.324 306.214C479.555 279.123 429.684 281.379 401.74 303.495C397.328 306.987 393.269 311.988 387.619 313.234L387.208 313.122C382.693 311.846 379.228 307.555 375.586 304.693C343.106 279.165 294.104 280.141 262.31 306.089C259.088 308.718 255.876 312.504 252.105 314.266C245.654 311.428 239.851 305.17 233.83 301.235C204.656 282.171 156.876 279.642 132.983 307.899C124.384 318.069 121.563 318.871 121.387 302.417C121.289 293.376 128.249 239.597 138.33 241.026C143.356 241.115 146.938 232.442 149.554 228.821C151.427 228.614 153.2 228.388 155.024 227.896C156.902 223.427 162.85 216.119 162.087 211.513L161.437 210.087C163.022 210.211 176.678 199.629 180.005 197.796C182.075 196.395 183.966 195.001 186.473 194.513C181.739 186.457 201.04 180.396 207.466 177.352C243.062 160.491 276.974 157.12 315.332 156.31Z"/>
	<path fill="#E07A5F" transform="scale(1.6 1.6)" d="M189.719 195.724C192.922 194.415 195.531 192.081 198.505 190.366C215.279 180.695 240.21 172.707 258.755 168.919C266.606 167.316 274.71 166.565 282.48 164.72C253.708 188.059 250.158 269.076 248.723 302.912C215.777 274.445 160.546 267.816 128.754 301.721C129.161 277.551 134.24 264.58 142.58 243.444C141.21 242.256 140.171 241.344 138.33 241.026C143.356 241.115 146.938 232.442 149.554 228.821C151.427 228.614 153.2 228.388 155.024 227.896C156.902 223.427 162.85 216.119 162.087 211.513L161.437 210.087C163.022 210.211 176.678 199.629 180.005 197.796C182.075 196.395 183.966 195.001 186.473 194.513C187.545 194.99 188.594 195.39 189.719 195.724Z"/>
	<path fill="#FEB785" transform="scale(1.6 1.6)" d="M161.437 210.087C163.022 210.211 176.678 199.629 180.005 197.796C179.622 202.059 165.62 210.491 162.087 211.513L161.437 210.087Z"/>
	<path fill="#E07A5F" transform="scale(1.6 1.6)" d="M305.267 164.202C315.346 163.883 336.733 163.114 345.884 166.238C358.699 170.612 364.172 199.703 370.089 200.803C381.984 203.015 362.493 170.772 356.935 165.135C365.609 167.406 374.742 168.658 383.528 170.581C441.786 183.332 496.24 216.023 509.018 278.616C510.725 286.979 511.306 295.214 512.343 303.65C497.002 285.977 475.789 278.861 452.749 278.647C431.314 278.918 407.224 287.241 391.657 302.193C391.504 296.29 393.314 260.776 386.1 261.047C381.038 261.237 383.573 294.528 384.333 301.787C351.055 272.127 289.124 269.347 256.307 301.215C255.752 264.326 260.803 212.583 278.703 181.43C286.473 167.908 289.021 164.882 305.267 164.202Z"/>
	<path fill="#3D405B" transform="scale(1.6 1.6)" d="M380.887 218.494C385.866 218.838 386.81 239.857 386.259 240.747C385.598 241.815 383.693 242.251 382.571 242.609C381.071 241.986 370.874 220.402 380.887 218.494Z"/>
</svg>
