<?xml version="1.0" encoding="utf-8" ?>
<svg xmlns="http://www.w3.org/2000/svg" xmlns:xlink="http://www.w3.org/1999/xlink" width="1024" height="1024">
	<path fill="#F4F1DE" transform="scale(1.6 1.6)" d="M314.07 82.0308C352.222 79.8387 395.03 90.3491 428.648 108.108C547.748 171.021 595.085 315.985 527.962 436.166C487.853 507.98 408.466 558.046 325.547 558.503C196.479 564.177 84.4452 454.723 81.4443 326.319C78.3828 195.325 183.792 85.1966 314.07 82.0308Z"/>
	<path fill="#3D405B" transform="scale(1.6 1.6)" d="M256.458 407.705C263.457 407.265 267.814 406.56 275.605 406.558L391.472 406.681L392.387 410.135C391.834 411.709 391.224 413.119 390.418 414.583C383.51 415.832 373.44 415.12 366.166 415.122L278.238 415.121C267.68 415.119 253.467 419.714 256.458 407.705Z"/>
	<path fill="#3D405B" transform="scale(1.6 1.6)" d="M455.639 321.69C487.376 310.645 544.08 387.03 492.489 411.664C485.599 414.954 483.232 414.641 482.348 405.602C483.339 405.193 484.651 405.255 485.725 405.078C513.22 400.534 506.694 362.393 492.577 346.797C482.895 355.314 435.741 343.372 455.639 321.69Z"/>
	<path fill="white" transform="scale(1.6 1.6)" d="M460.546 329.67C465.551 329.583 483.373 334.6 483.775 339.586L482.89 339.815C479.217 339.761 452.311 338.37 460.546 329.67Z"/>
	<path fill="#3D405B" transform="scale(1.6 1.6)" d="M327.543 160.045C335.118 159.426 333.931 168.381 333.485 173.56C342.985 175.535 357.468 180.008 344.431 190.936C338.973 186.558 325.839 183.35 320.87 190.3C308.857 207.104 349.786 202.731 353.857 226.439C356.017 239.015 347.891 249.61 335.419 251.701C336.118 256.912 336.313 265.338 328.957 263.719C325.202 261.264 325.316 257.557 324.998 253.433C320.919 252.704 309.52 250.554 307.873 245.926C307.06 243.639 309.294 236.893 312.183 236.821C317.063 236.7 323.201 244.867 333.103 241.549C337.692 240.011 341.27 234.085 339.422 229.332C335.118 218.263 311.437 220.235 305.82 205.276C300.348 190.705 310.132 179.052 323.396 174.005C323.106 168.357 321.82 163.187 327.543 160.045Z"/>
	<path fill="#3D405B" transform="scale(1.6 1.6)" d="M180.125 405.955C181.595 404.397 181.079 400.585 181.54 398.532C190.259 359.642 248.084 367.388 246.662 407.615C244.405 448.312 190.546 451.324 182.6 417.777C181.708 414.012 181.349 410.136 180.261 406.414L180.125 405.955Z"/>
	<path fill="#BC6C25" transform="scale(1.6 1.6)" d="M213.138 381.37C244.766 378.038 248.026 431.036 214.687 432.812C180.192 431.857 179.086 385.189 213.138 381.37Z"/>
	<path fill="#3D405B" transform="scale(1.6 1.6)" d="M399.221 401.269C405.671 370.797 446.085 361.988 462.637 388.498C465.212 392.623 468.877 401.095 468.087 406.066C467.539 408.29 467.568 410.818 467.214 413.1C461.12 452.349 399.061 450.972 399.221 401.269Z"/>
	<path fill="#B6E3FE" transform="scale(1.6 1.6)" d="M431.116 381.036C464.308 377.944 471.809 424.028 437.499 431.948C431.052 433.048 423.823 430.796 418.587 427.039C399.495 413.338 408.967 384.217 431.116 381.036Z"/>
	<path fill="#85B3FC" transform="scale(1.6 1.6)" d="M432.685 395.061C439.12 394.483 442.697 396.353 444.935 402.585C443.148 410.946 439.035 416.267 430.382 418.422C415.241 421.216 413.555 398.813 432.685 395.061Z"/>
	<path fill="#BC6C25" transform="scale(1.6 1.6)" d="M213.531 283.477C232.744 268.14 256.926 264.983 280.719 264.791C327.159 264.416 355.446 278.082 394.433 301.282C399.394 304.234 412.579 309.458 413.954 315.483C418.857 317.571 437.583 318.04 444.287 319.131C448.264 319.778 451.446 321.901 455.639 321.69C435.741 343.372 482.895 355.314 492.577 346.797C506.694 362.393 513.22 400.534 485.725 405.078C484.651 405.255 483.339 405.193 482.348 405.602C480.498 404.518 470.882 405.98 468.087 406.066C468.877 401.095 465.212 392.623 462.637 388.498C446.085 361.988 405.671 370.797 399.221 401.269C396.91 406.037 398.864 405.025 394.487 407.994C394.703 406.293 392.653 406.609 391.472 406.681L275.605 406.558C267.814 406.56 263.457 407.265 256.458 407.705C253.782 406.718 249.438 407.341 246.662 407.615C248.084 367.388 190.259 359.642 181.54 398.532C181.079 400.585 181.595 404.397 180.125 405.955C176.633 405.319 172.644 408.239 170.362 410.709C167.614 420.285 156.055 411.72 150.717 407.862C133.138 395.158 129.244 353.96 133.748 334.935C137.132 320.636 146.731 317.155 159.003 311.477C170.781 306.027 180.778 298.581 190.433 289.955C194.492 286.329 213.157 265.243 213.531 283.477Z"/>
	<path fill="#3D405B" transform="scale(1.6 1.6)" d="M298.277 334.196C302.458 333.997 306.791 334.034 310.895 334.893C311.506 335.927 311.945 337.079 312.423 338.18C310.598 343.87 307.445 342.982 302.131 342.557C300.695 342.504 282.41 343.535 288.253 336.544C290.184 334.235 295.458 334.368 298.277 334.196Z"/>
	<path fill="#3D405B" transform="scale(1.6 1.6)" d="M213.531 283.477C232.744 268.14 256.926 264.983 280.719 264.791C327.159 264.416 355.446 278.082 394.433 301.282C399.394 304.234 412.579 309.458 413.954 315.483C413.269 317.188 412.576 319.032 411.583 320.584L411.163 320.625C399.927 321.65 382.302 319.439 370.449 319.167C349.144 318.679 328.042 319.134 306.617 318.537L247.838 316.413C230.985 315.801 214.105 315.848 197.257 314.867C183.248 314.051 210.144 288.716 209.697 285.78C205.851 284.202 190.619 300.847 187.145 303.71C173.99 314.552 146.99 322.774 142.597 334.036C139.122 342.943 141.225 368.427 143.102 378.414C145.572 391.548 151.528 400.125 163.512 406.684C165.783 407.927 168.395 409.02 170.362 410.709C167.614 420.285 156.055 411.72 150.717 407.862C133.138 395.158 129.244 353.96 133.748 334.935C137.132 320.636 146.731 317.155 159.003 311.477C170.781 306.027 180.778 298.581 190.433 289.955C194.492 286.329 213.157 265.243 213.531 283.477Z"/>
	<path fill="white" transform="scale(1.6 1.6)" d="M225.922 285.165L226.008 285.78C222.779 287.254 224.007 290.073 224.661 292.966C225.895 292.709 227.022 291.7 228.312 292.214C221.707 294.731 218.705 300.194 219.415 307.282L219.153 307.277C216.7 307.218 204.671 306.711 203.463 305.445C203.417 300.281 221.296 287.61 225.922 285.165Z"/>
	<path fill="#9BFEDB" transform="scale(1.6 1.6)" d="M290.224 284.631C317.915 286.913 330.884 297.182 354.681 305.075C362.347 307.618 370.764 307.696 378.29 310.376L378.38 310.718L377.878 310.725C375.746 310.768 372.924 310.57 370.89 311.251C367.618 311.694 363.946 311.333 360.611 311.324C338.874 311.264 317.171 309.83 295.423 309.636C294.051 301.232 291.508 293.089 290.224 284.631Z"/>
	<path fill="white" transform="scale(1.6 1.6)" d="M288.334 273.58C329.263 274.663 360.931 289.036 394.057 311.362C386.368 311.702 378.591 311.26 370.89 311.251C372.924 310.57 375.746 310.768 377.878 310.725L378.38 310.718L378.29 310.376C370.764 307.696 362.347 307.618 354.681 305.075C330.884 297.182 317.915 286.913 290.224 284.631L288.334 273.58Z"/>
	<defs>
		<linearGradient id="gradient_0" gradientUnits="userSpaceOnUse" x1="257.80792" y1="313.89627" x2="250.7415" y2="276.12943">
			<stop offset="0" stop-color="#81FFDB"/>
			<stop offset="1" stop-color="#C7FFEF"/>
		</linearGradient>
	</defs>
	<path fill="url(#gradient_0)" transform="scale(1.6 1.6)" d="M225.922 285.165C238.956 276.054 264.297 272.644 280.146 272.602C282.655 284.138 285.308 297.746 286.587 309.415L232.57 308.063C234.341 302.829 235.235 293.885 228.312 292.214C227.022 291.7 225.895 292.709 224.661 292.966C224.007 290.073 222.779 287.254 226.008 285.78L225.922 285.165Z"/>
</svg>
