<?xml version="1.0" encoding="utf-8" ?>
<svg xmlns="http://www.w3.org/2000/svg" xmlns:xlink="http://www.w3.org/1999/xlink" width="1024" height="1024">
	<path fill="#F4F1DE" transform="scale(1.6 1.6)" d="M151.36 476.495C148.158 479.223 131.321 456.31 128.012 452.039C64.2436 369.734 71.6674 243.111 139.215 165.19C191.775 104.559 272.373 73.9008 352.099 84.2729C394.678 89.8124 461.579 120.14 488.589 155.252C493.288 150.631 504.726 136.75 509.576 134.165C522.379 138.484 500.101 154.921 494.462 161.516C495.37 161.748 496.004 161.545 496.876 161.231C501.683 162.091 513.087 178.5 516.08 182.803C585.54 282.657 568.798 428.84 465.98 500.085C456.67 506.536 412.755 531.999 402.993 525.783C399.485 546.453 375.54 546.467 359.689 547.609C305.781 551.494 250.39 551.313 196.663 545.514C188.547 544.638 179.638 544.301 171.789 542.028C149.697 535.633 152.129 496.713 151.36 476.495Z"/>
	<path fill="#3D405B" transform="scale(1.6 1.6)" d="M448.93 157.782C457.088 157.749 455.431 168.176 449.667 170.948C440.593 171.449 443.066 160.967 448.93 157.782Z"/>
	<path fill="#3D405B" transform="scale(1.6 1.6)" d="M509.576 134.165C522.379 138.484 500.101 154.921 494.462 161.516C486.921 166.886 478.965 181.725 469.579 186.142C456.881 181.031 482.615 161.198 488.589 155.252C493.288 150.631 504.726 136.75 509.576 134.165Z"/>
	<path fill="#3D405B" transform="scale(1.6 1.6)" d="M249.231 384.31C251.544 377.147 265.845 342.15 275.179 342.077C280.163 345.169 284.171 355.315 287.065 360.279C296.048 375.689 310.41 391.649 298.795 408.95C287 426.517 259.92 426.238 250.451 406.23C251.22 403.377 252.443 400.935 253.873 398.365C259.532 404.233 262.499 411.979 271.368 414.25C283.312 417.31 297.45 403.66 294.381 391.712C292.236 383.367 279.099 362.472 274.103 354.432C267.076 361.462 259.071 379.895 254.386 389.146C252.48 387.8 250.718 386.107 249.231 384.31Z"/>
	<path fill="#E07A5F" transform="scale(1.6 1.6)" d="M254.386 389.146C259.071 379.895 267.076 361.462 274.103 354.432C279.099 362.472 292.236 383.367 294.381 391.712C297.45 403.66 283.312 417.31 271.368 414.25C262.499 411.979 259.532 404.233 253.873 398.365C254.106 395.651 254.899 391.755 254.386 389.146Z"/>
	<path fill="#3D405B" transform="scale(1.6 1.6)" d="M417.704 197.356C415.329 193.39 416.542 189.182 416.548 184.775L416.54 161.908C416.572 143.712 417.219 130.989 401.635 118.225C397.665 114.974 385.594 110.154 396.552 105.175C405.782 108.32 415.474 120.269 419.656 128.738C427.617 144.862 424.448 172.086 424.903 190.42C441.682 202.444 463.71 212.202 482.224 224.308C487.599 221.007 498.082 207.303 500.95 214.947C503.015 220.451 488.09 229.954 483.401 231.47C484.349 254.475 486.348 275.838 486.37 299.042C486.375 303.767 486.935 310.884 486.376 315.364C485.235 316.395 484.283 317.15 482.862 317.738C478.565 316.723 479.075 314.464 478.886 310.417C477.632 283.535 478.422 258.831 476.187 231.256C469.626 225.075 451.841 216.757 443.635 212.2C434.928 207.365 426.424 202.173 417.704 197.356Z"/>
	<path fill="#3D405B" transform="scale(1.6 1.6)" d="M151.36 476.495C150.341 436.998 149.993 397.647 150.296 358.125C150.336 352.906 151.175 347.707 151.246 342.478C151.403 331.033 149.359 282.938 155.972 283.488C162.217 284.006 159.886 294.478 159.735 298.355L159.046 321.899C157.509 377.825 156.596 438.201 159.681 494.223C161.986 536.095 164.181 534.488 201.743 538.293C225.303 540.679 364.867 546.402 385.024 535.898C396.538 529.898 393.664 521.963 398.6 517.237C402.95 513.072 404.083 521.733 402.993 525.783C399.485 546.453 375.54 546.467 359.689 547.609C305.781 551.494 250.39 551.313 196.663 545.514C188.547 544.638 179.638 544.301 171.789 542.028C149.697 535.633 152.129 496.713 151.36 476.495Z"/>
	<path fill="#3D405B" transform="scale(1.6 1.6)" d="M172.16 217.244C172.816 205.634 184.79 169.039 190.198 158.71C200.561 138.919 224.571 140.558 243.795 139.68C264.782 138.721 333.273 135.409 344.39 148.25C351.219 156.138 368.574 204.331 370.548 214.929C405.057 218.934 399.148 252.082 401.195 277.842C403.2 274.085 403.911 267.296 404.725 263.017C408.912 241.02 412.561 219.18 417.704 197.356C426.424 202.173 434.928 207.365 443.635 212.2C451.841 216.757 469.626 225.075 476.187 231.256C478.422 258.831 477.632 283.535 478.886 310.417C479.075 314.464 478.565 316.723 482.862 317.738C482.128 319.358 482.571 335.164 482.355 338.48C490.026 341.508 486.34 356.277 486.335 364.692C486.299 425.146 496.478 484.328 427.334 503.125C411.604 507.401 413.017 502.179 407.296 502.891C405.56 504.642 400.383 506.524 399.011 503.35C396.273 497.019 397.913 467.66 397.466 457.942C397.185 451.858 396.44 445.775 396.297 439.688L393.979 314.691C393.698 291.818 393.89 268.517 391.05 245.792C388.607 226.232 382.056 224.422 363.2 223.623C351.493 223.127 335.592 223.75 324.632 222.432L324.111 222.368C323.883 220.448 323.742 218.519 323.583 216.593C315.409 216.255 306.597 216.791 298.454 217.618C296.489 222.063 269.279 220.052 263.806 220.124C257.495 220.206 240.351 224.225 238.976 216.461C236.32 214.289 229.393 214.584 226.542 215.89C221.605 225.426 192.862 223.993 182.585 224.525C177.73 224.777 170.794 223.785 167.889 228.621C162.697 237.263 161.852 267.582 155.281 263.935C150.93 261.519 152.801 221.612 172.16 217.244Z"/>
	<path fill="white" transform="scale(1.6 1.6)" d="M233.611 183.883C257.414 178.209 281.998 178.085 306.131 181.565C308.137 185.124 323.901 215.485 323.803 216.327L323.536 216.309L323.583 216.593C315.409 216.255 306.597 216.791 298.454 217.618C296.489 222.063 269.279 220.052 263.806 220.124C257.495 220.206 240.351 224.225 238.976 216.461C236.32 214.289 229.393 214.584 226.542 215.89C222.617 214.271 231.892 188.216 233.611 183.883Z"/>
	<path fill="#3D405B" transform="scale(1.6 1.6)" d="M238.976 216.461C242.507 210.283 253.069 212.324 259.773 212.112C272.164 211.72 284.82 210.954 297.21 211.656C298.287 213.8 298.534 215.229 298.454 217.618C296.489 222.063 269.279 220.052 263.806 220.124C257.495 220.206 240.351 224.225 238.976 216.461Z"/>
	<path fill="#E07A5F" transform="scale(1.6 1.6)" d="M268.478 147.018C281.384 146.967 328.117 146.367 338.01 152.096C344.696 155.968 359.732 204.98 362.601 215.364C352.584 215.023 342.6 215.427 332.593 214.671C326.761 206.291 314.673 177.488 311.297 174.511C306.735 170.488 279.633 170.001 272.723 170.053C264.319 170.268 238.34 172.353 231.537 175.621C223.388 179.535 218.995 206.541 216.069 215.059C204.254 216.203 192.052 217.308 180.184 217.165C181.247 204.313 193.614 164.46 202.34 155.418C211.077 146.363 255.095 147.343 268.478 147.018Z"/>
	<path fill="#E07A5F" transform="scale(1.6 1.6)" d="M417.704 197.356C426.424 202.173 434.928 207.365 443.635 212.2C451.841 216.757 469.626 225.075 476.187 231.256C478.422 258.831 477.632 283.535 478.886 310.417C479.075 314.464 478.565 316.723 482.862 317.738C482.128 319.358 482.571 335.164 482.355 338.48C475.942 340.133 478.706 358.016 478.718 363.091C478.785 391.826 481.224 441.845 467.422 467.525C456.139 488.517 428.062 494.401 406.368 500.474C403.739 488.296 405.529 464.834 405.088 451.606C437.658 453.443 451.659 455.353 452.391 416.712C452.904 389.629 452.4 362.451 452.413 335.357L452.423 308.074C452.429 302.179 452.745 295.885 451.94 290.042C450.329 278.347 432.245 276.908 433.81 283.73C434.598 287.164 441.214 288.921 443.95 290.758C445.477 313.851 444.675 337.296 444.684 360.448L444.693 393.424C444.693 404.118 446.646 433.962 437.672 441.278C429.532 447.913 414.079 444.737 404.318 443.769C403.197 431.257 403.999 416.692 403.784 403.973L401.476 307.499C401.317 297.616 401.658 287.718 401.195 277.842C403.2 274.085 403.911 267.296 404.725 263.017C408.912 241.02 412.561 219.18 417.704 197.356Z"/>
</svg>
