<?xml version="1.0" encoding="utf-8" ?>
<svg xmlns="http://www.w3.org/2000/svg" xmlns:xlink="http://www.w3.org/1999/xlink" width="1023" height="1023">
	<path fill="#F4F1DE" transform="scale(1.6 1.6)" d="M314.984 85.4735C392.639 83.5562 466.591 120.561 511.691 184.148C546.015 232.541 560.613 298.329 550.956 356.877C534.5 456.652 458.605 535.674 357.951 551.791C346.801 553.576 335.551 553.921 324.304 554.623C239.528 555.74 162.293 513.847 119.412 440.452C102.135 410.88 88.5241 366.887 86.1843 331.954C78.0609 210.677 167.276 104.777 287.261 87.6773C296.425 86.3712 305.755 86.0848 314.984 85.4735Z"/>
	<path fill="#3D405B" transform="scale(1.6 1.6)" d="M411.167 177.264C419.905 166.406 428.566 165.839 443.337 164.282C450.109 163.568 453.512 165.848 453.886 172.76C468.101 172.525 469.686 180.501 472.09 192.722C472.438 194.39 473.745 197.21 472.429 198.624C473.846 199.453 473.991 198.723 474.325 200.631C477.3 209.683 471.715 223.107 465.684 230.27C461.335 228.315 453.812 227.43 450.787 225.307C449.388 224.858 448.249 220.619 447.815 219.31C442.637 203.693 446.59 188.772 446.934 173.052C438.416 173.577 416.897 180.752 411.167 177.264Z"/>
	<path fill="#4D9AC2" transform="scale(1.6 1.6)" d="M472.09 192.722C472.438 194.39 473.745 197.21 472.429 198.624C473.846 199.453 473.991 198.723 474.325 200.631C471.189 200.403 468.149 201.161 465.034 201.333C465.114 198.439 465.229 195.549 465.377 192.657C469.751 200.205 471.356 193.524 472.09 192.722Z"/>
	<path fill="#93E2FA" transform="scale(1.6 1.6)" d="M465.034 201.333C465.009 205.467 465.091 217.297 460.991 219.838C450.528 226.324 452.475 186.908 454.258 182.416C456.494 176.783 464.664 185.891 465.377 192.657C465.229 195.549 465.114 198.439 465.034 201.333Z"/>
	<path fill="#3D405B" transform="scale(1.6 1.6)" d="M344.828 202.558C350.339 179.846 357.649 182.037 376.534 177.906C382.698 176.557 389.047 174.137 395.31 173.527C396.939 175.057 398.538 176.506 400.364 177.798C401.527 177.898 402.679 178.042 403.836 178.193C390.24 186.193 376.553 185.675 362.531 189.972C356.756 191.742 355.886 196.125 353.992 201.369C362.225 200.666 379.6 196.305 386.283 201.763C391.297 205.857 393.367 214.356 388.753 219.518C382.181 226.871 365.977 223.263 357.837 221.196C361.319 229.564 368.178 258.227 365.775 266.519C353.995 268.209 357.121 257.227 355.55 249.237C353.686 239.749 350.894 230.662 348.421 221.337C338.377 218.759 319.614 225.534 312.952 216.546C310.075 212.665 310.875 206.135 314.917 203.329C319.448 200.184 338.835 201.509 344.828 202.558Z"/>
	<path fill="#2051A1" transform="scale(1.6 1.6)" d="M335.585 207.805C339.247 207.758 342.745 206.225 346.452 206.049C346.12 205.2 345.642 204.898 344.969 204.322L345.279 204.176C347.498 205.629 347.589 207.716 349 209.695C348.254 209.746 347.486 209.841 346.741 209.835C343.933 208.285 338.811 208.443 335.585 207.805Z"/>
	<path fill="#077CD8" transform="scale(1.6 1.6)" d="M345.567 212.44C344.532 212.989 318.856 214.382 318.092 213.93C316.311 212.876 315.343 210.884 316.93 209.238C319.706 206.358 331.465 207.644 335.585 207.805C338.811 208.443 343.933 208.285 346.741 209.835C346.105 210.444 345.387 210.947 345.263 211.867L345.567 212.44Z"/>
	<path fill="white" transform="scale(1.6 1.6)" d="M349 209.695C353.3 209.365 378.258 207.601 380.312 209.07C383.968 211.687 381.574 213.904 378.251 214.258C371.776 214.949 352.716 213.54 346.553 212.594L345.567 212.44L345.263 211.867C345.387 210.947 346.105 210.444 346.741 209.835C347.486 209.841 348.254 209.746 349 209.695Z"/>
	<path fill="#3D405B" transform="scale(1.6 1.6)" d="M154.975 327.781C176.648 310.102 196.104 292.698 227.046 294.887C228.756 297.087 229.753 299.204 230.519 301.871C228.413 305.388 204.679 303.294 195.505 309.886C194.36 312.079 178.468 316.958 177.609 322.091C176.975 325.884 178.989 331.148 179.747 335.113L180.086 335.182C182.879 329.56 189.113 326.947 192.731 321.999L192.917 321.936C189.707 327.105 183.429 330.654 179.814 336.14C179.774 337.015 179.751 337.888 179.632 338.757C164.307 352.82 142.548 393.426 142.477 415.272C141.42 414.661 140.362 414.055 139.291 413.47C136.001 414.331 133.781 414.968 131.399 417.533C130.172 419.673 127.114 420.986 125.025 419.175C120.868 415.572 123.392 405.199 124.012 400.62C126.917 379.163 135.04 352.53 149.796 336.21C143.453 334.06 118.902 321.673 133.843 314.843C142.997 322.811 142.799 324.155 154.975 327.781Z"/>
	<path fill="#FCA9A2" transform="scale(1.6 1.6)" d="M131.399 417.533C130.616 375.475 153.825 324.911 195.505 309.886C194.36 312.079 178.468 316.958 177.609 322.091C176.975 325.884 178.989 331.148 179.747 335.113L180.086 335.182C182.879 329.56 189.113 326.947 192.731 321.999L192.917 321.936C189.707 327.105 183.429 330.654 179.814 336.14C179.774 337.015 179.751 337.888 179.632 338.757C164.307 352.82 142.548 393.426 142.477 415.272C141.42 414.661 140.362 414.055 139.291 413.47C136.001 414.331 133.781 414.968 131.399 417.533Z"/>
	<path fill="#3D405B" transform="scale(1.6 1.6)" d="M179.632 338.757C182.6 338.469 185.648 339.242 188.01 341.148C193.051 345.216 185.332 348.554 182.584 350.531C167.202 361.598 156.5 392.263 152.974 410.1C168.607 410.781 184.414 410.34 200.069 410.339L314.247 410.347C318.434 410.358 334.975 407.905 333.047 415.786C329.044 422.564 311.649 419.554 304.025 419.552C285.446 419.547 266.827 419.295 248.253 419.667C244.095 473.65 171.365 470.958 168.934 419.054C161.268 418.428 146.433 421.076 142.477 415.272C142.548 393.426 164.307 352.82 179.632 338.757Z"/>
	<path fill="#3D405B" transform="scale(1.6 1.6)" d="M441.964 266.82C446.859 269.886 446.951 275.542 448.158 280.777C452.09 297.831 456.766 314.253 459.962 331.536C495.201 332.064 529.223 364.001 526.476 400.368C521.619 406.601 505.188 403.718 495.536 406.178C494.759 407.374 494.144 408.519 493.606 409.84C494.471 413.244 496.511 414.409 499.169 416.444C498.612 428.358 493.859 440.559 484.919 448.683C459.519 471.767 418.612 453.697 416.735 417.384C399.014 421.39 346.303 419.947 345.585 418.016C346.146 415.74 345.919 413.23 345.839 410.908C355.164 409.648 378.146 409.736 387.475 410.888C387.357 372.477 412.14 339.491 450.489 332.036C448.75 319.987 446.144 308.096 443.389 296.246C442.305 291.585 433.934 267.178 441.964 266.82Z"/>
	<path fill="#E07A5F" transform="scale(1.6 1.6)" d="M455.645 340.443C487.272 336.447 514.653 364.572 518.605 395.06C494.182 397.054 474.604 398.003 450.134 401.833C434.682 404.92 410.984 410.188 396.412 410.928C394.771 376.435 420.542 343.887 455.645 340.443Z"/>
	<path fill="#E07A5F" transform="scale(1.6 1.6)" d="M411.167 177.264C416.897 180.752 438.416 173.577 446.934 173.052C446.59 188.772 442.637 203.693 447.815 219.31C448.249 220.619 449.388 224.858 450.787 225.307C450.427 227.005 450.241 228.653 450.096 230.379C451.667 240.458 447.417 236.816 437.081 236.551C438.026 243.798 441.217 255.165 439.046 262.069C439.336 264.595 440.166 265.213 441.964 266.82C433.934 267.178 442.305 291.585 443.389 296.246C446.144 308.096 448.75 319.987 450.489 332.036C412.14 339.491 387.357 372.477 387.475 410.888C378.146 409.736 355.164 409.648 345.839 410.908C345.919 413.23 346.146 415.74 345.585 418.016C343.373 416.327 335.998 415.846 333.047 415.786C334.975 407.905 318.434 410.358 314.247 410.347L200.069 410.339C184.414 410.34 168.607 410.781 152.974 410.1C156.5 392.263 167.202 361.598 182.584 350.531C185.332 348.554 193.051 345.216 188.01 341.148C185.648 339.242 182.6 338.469 179.632 338.757C179.751 337.888 179.774 337.015 179.814 336.14C183.429 330.654 189.707 327.105 192.917 321.936L192.731 321.999C189.113 326.947 182.879 329.56 180.086 335.182L179.747 335.113C178.989 331.148 176.975 325.884 177.609 322.091C178.468 316.958 194.36 312.079 195.505 309.886C204.679 303.294 228.413 305.388 230.519 301.871C231.072 302.005 238.265 301.513 239.444 301.432C240.983 301.104 242.629 300.964 243.269 299.297C244.394 292.283 252.67 294.615 257.977 294.651L278.597 294.709C292.059 294.694 321.053 288.96 322.311 309.736C323.117 323.041 312.799 338.938 314.012 355.925C315.864 381.86 348.963 378.045 362.289 362.058C377.627 343.658 367.16 318.145 365.189 297.027C366.241 294.765 367.529 293.6 369.451 292.11C370.002 286.623 363.784 279.824 365.775 266.519C368.178 258.227 361.319 229.564 357.837 221.196C365.977 223.263 382.181 226.871 388.753 219.518C393.367 214.356 391.297 205.857 386.283 201.763C379.6 196.305 362.225 200.666 353.992 201.369C355.886 196.125 356.756 191.742 362.531 189.972C376.553 185.675 390.24 186.193 403.836 178.193C405.659 178.594 409.344 177.721 411.167 177.264Z"/>
	<path fill="#BA2B4E" transform="scale(1.6 1.6)" d="M199.621 316.242C203.241 316.671 216.118 324.372 208.325 326.254C204.878 326.219 202.114 325.783 198.819 324.771C194.556 317.634 196.038 319.166 199.621 316.242Z"/>
	<path fill="#3D405B" transform="scale(1.6 1.6)" d="M427.363 235.08C422.99 234.511 406.286 233.859 403.715 230.188C396.412 219.76 420.756 225.381 423.647 225.828C432.454 227.191 441.441 228.244 450.096 230.379C451.667 240.458 447.417 236.816 437.081 236.551C438.026 243.798 441.217 255.165 439.046 262.069L437.968 262.428C428.848 260.878 428.575 242.235 427.363 235.08Z"/>
	<path fill="#3D405B" transform="scale(1.6 1.6)" d="M369.451 292.11C374.213 292.904 373.972 298.97 374.767 302.908C380.062 329.129 385.329 360.114 359.144 377.04C344.566 386.463 320.5 387.976 310.11 371.624C296.259 349.825 317.914 315.89 312.816 307.497C309.257 301.635 298.635 303.667 292.934 303.671L260.488 303.705C256.935 303.712 246.969 305.058 244.248 303.106C243.866 301.855 243.584 300.566 243.269 299.297C244.394 292.283 252.67 294.615 257.977 294.651L278.597 294.709C292.059 294.694 321.053 288.96 322.311 309.736C323.117 323.041 312.799 338.938 314.012 355.925C315.864 381.86 348.963 378.045 362.289 362.058C377.627 343.658 367.16 318.145 365.189 297.027C366.241 294.765 367.529 293.6 369.451 292.11Z"/>
</svg>
