<?xml version="1.0" encoding="utf-8" ?>
<svg xmlns="http://www.w3.org/2000/svg" xmlns:xlink="http://www.w3.org/1999/xlink" width="1024" height="1023">
	<path fill="#3D405B" transform="scale(1.6 1.6)" d="M492.022 414.003C499.597 419.008 480.058 442.97 476.167 447.931C463.012 464.704 443.623 481.213 423.841 489.553C422.61 488.469 421.519 487.372 420.438 486.138C421.599 480.578 430.037 478.541 434.41 475.849C451.733 465.184 471.523 446.277 481.878 428.801C484.636 424.146 487.003 416.322 492.022 414.003Z"/>
	<path fill="#3D405B" transform="scale(1.6 1.6)" d="M117.74 320.659C117.031 316.185 117.361 311.585 117.437 307.079C118.133 265.629 128.284 224.37 151.919 189.824C155.997 183.863 173.312 154.879 181.506 162.635C180.319 168.346 177.984 168.115 174.338 172.091C145.593 203.444 128.835 244.568 125.126 286.729C124.087 298.531 124.219 310.364 123.754 322.187C121.255 322.752 119.819 322.106 117.74 320.659Z"/>
	<path fill="#3D405B" transform="scale(1.6 1.6)" d="M488.377 196.246C498.059 201.447 514.106 242.719 517.127 252.757C527.973 288.797 524.28 336.698 514.619 372.732C512.517 380.571 511.852 395.153 502.829 392.323C502.54 391.701 501.859 391.055 501.418 390.515C524.464 333.685 524.67 268.503 493.582 214.961C490.516 209.681 480.501 199.418 488.377 196.246Z"/>
	<path fill="#3D405B" transform="scale(1.6 1.6)" d="M262.675 500.433C261.397 507.992 254.785 503.897 249.762 502.383C189.953 484.364 162.089 458.558 134.297 400.998C131.806 395.839 112.256 355.555 123.921 356.121C124.922 356.17 124.995 356.55 125.58 357.296C126.154 362.727 128.702 368.895 130.439 374.065C150.907 434.971 184.5 475.433 245.997 494.2C249.874 495.383 260.888 496.721 262.675 500.433Z"/>
	<path fill="#3D405B" transform="scale(1.6 1.6)" d="M291.294 104.769C289.271 92.6552 290.596 77.2352 305.132 74.8528C309.814 74.0855 330.955 73.6023 335.461 74.4038C349.475 76.8963 348.783 93.915 348.753 104.704C395.593 110.652 430.107 118.879 463.973 156.511C468.696 161.759 479.325 168.985 474.14 175.906C470.612 176.493 466.38 169.505 464.424 167.115C430.944 126.185 394.802 116.313 343.914 111.257C298.855 106.781 243.28 113.067 207.617 142.131C204.863 144.375 203.831 145.103 200.235 144.738C197.784 138.623 202.927 136.747 207.402 133.662C233.466 115.694 259.814 107.29 291.294 104.769Z"/>
	<path fill="#3D405B" transform="scale(1.6 1.6)" d="M293.463 504.338C297.085 503.122 305.807 504.03 309.926 504.05C330.486 504.153 350.893 501.942 371.139 498.413C376.849 497.418 391.424 491.323 392.138 497.67C391.813 498.831 391.496 499.978 391.263 501.161C385.243 503.694 355.655 507.563 348.412 507.881C348.867 514.045 348.749 520.23 348.762 526.406L348.757 551.987C348.739 555.662 350.219 572.024 348.79 574.195C344.507 576.896 340.851 574.82 340.898 570.095C340.817 569.167 340.702 568.294 340.501 567.384C333.431 575.912 309.893 563.923 300.095 568.156C300.791 570.37 300.544 571.223 299.715 573.387C286.504 583.134 290.891 555.197 290.892 548.512C290.894 539.129 289.186 512.535 293.463 504.338Z"/>
	<path fill="#F4F1DE" transform="scale(1.6 1.6)" d="M200.235 144.738C203.831 145.103 204.863 144.375 207.617 142.131C243.28 113.067 298.855 106.781 343.914 111.257C394.802 116.313 430.944 126.185 464.424 167.115C466.38 169.505 470.612 176.493 474.14 175.906C478.678 178.884 485.668 195.952 488.377 196.246C480.501 199.418 490.516 209.681 493.582 214.961C524.67 268.503 524.464 333.685 501.418 390.515C501.859 391.055 502.54 391.701 502.829 392.323C500.777 397.233 492.64 410.352 492.022 414.003C487.003 416.322 484.636 424.146 481.878 428.801C471.523 446.277 451.733 465.184 434.41 475.849C430.037 478.541 421.599 480.578 420.438 486.138C411.394 489.764 401.202 490.691 392.387 494.651C392.336 495.665 392.256 496.662 392.138 497.67C391.424 491.323 376.849 497.418 371.139 498.413C350.893 501.942 330.486 504.153 309.926 504.05C305.807 504.03 297.085 503.122 293.463 504.338C287.164 502.395 272.614 504.959 262.675 500.433C260.888 496.721 249.874 495.383 245.997 494.2C184.5 475.433 150.907 434.971 130.439 374.065C128.702 368.895 126.154 362.727 125.58 357.296C127.232 354.354 125.523 325.121 123.754 322.187C124.219 310.364 124.087 298.531 125.126 286.729C128.835 244.568 145.593 203.444 174.338 172.091C177.984 168.115 180.319 168.346 181.506 162.635C187.845 159.583 195.54 150.144 200.235 144.738Z"/>
	<path fill="#3D405B" transform="scale(1.6 1.6)" d="M279.659 194.511C289.401 193.895 299.769 194.559 309.51 195.227C339.528 197.285 371.92 199.276 393.19 223.898C415.729 249.99 425.864 303.396 396.604 327.961C371.234 349.26 328.758 351.151 297.263 348.567L296.218 348.48C294.931 349.059 295.159 351.4 295.214 352.658L296.622 382.492C297.513 398.823 302.355 427.777 278.376 429.289C254.246 430.81 251.816 412.325 250.779 393.255C250.055 379.938 250.124 366.675 249.706 353.351L247.716 296.156C247.122 278.531 246.168 261.757 245.076 244.123C243.069 211.706 244.157 196.366 279.659 194.511Z"/>
	<path fill="#BC6C25" transform="scale(1.6 1.6)" d="M284.565 201.402C320.125 201.686 367.346 200.767 391.144 231.452C410.895 256.918 417.782 303.578 388.986 325.483C365.224 343.559 322.37 344.931 292.863 340.871C287.184 343.148 289.409 354.746 289.55 359.391L290.443 387.582C290.714 395.311 292.939 412.144 287.559 418.589C282.272 424.92 269.33 423.663 263.744 418.578C256.18 411.692 256.665 386.007 256.346 374.392L255.108 331.034C254.548 311.159 254.294 291.279 253.345 271.41C252.62 256.237 246.8 218.115 256.869 207.536C262.95 201.146 276.455 201.572 284.565 201.402Z"/>
	<path fill="#3D405B" transform="scale(1.6 1.6)" d="M292.273 227.891C303.763 227.397 327.152 228.47 337.185 231.009C371.756 239.758 388.395 287.534 357.203 305.242C343.675 312.505 305.404 315.179 294.438 308.54C285.557 303.163 287.256 291.329 286.484 282.489C285.594 272.3 284.64 262.137 283.963 251.928C283.371 242.991 280.21 230.114 292.273 227.891Z"/>
	<path fill="#F4F1DE" transform="scale(1.6 1.6)" d="M290.578 235.039C311.894 234.434 341.982 233.599 356.922 250.182C368.558 263.098 371.185 284.363 357.299 296.55C344.882 305.842 305.41 308.968 296.247 301.758C291.883 298.323 290.859 262.609 290.438 256.354C290.139 251.9 287.77 238.545 290.578 235.039Z"/>
</svg>
