<?xml version="1.0" encoding="utf-8" ?>
<svg xmlns="http://www.w3.org/2000/svg" xmlns:xlink="http://www.w3.org/1999/xlink" width="1024" height="1024">
	<path fill="#3D405B" transform="scale(1.6 1.6)" d="M549.597 298.513C556.641 297.967 557.562 307.327 551.34 309.749C545.591 306.822 544.757 302.662 549.597 298.513Z"/>
	<path fill="#3D405B" transform="scale(1.6 1.6)" d="M89.9925 347.968C88.1583 348.478 85.0268 349.381 83.4147 347.942C80.0438 340.427 93.7128 257.507 95.7321 247.542C99.8746 227.1 103.768 197.903 126.425 189.923C132.517 187.778 166.687 182.824 174.22 182.7C175.34 184.229 176.101 185.745 176.82 187.488C174.852 192.15 166.419 191.878 162.275 192.356L144.543 194.33C134.838 195.395 126.718 196.211 119.635 203.679C109.796 214.052 111.38 225.533 106.241 237.633C101.663 247.083 90.891 330.044 92.8588 341.353C92.7285 343.331 92.6207 345.312 92.3998 347.282C91.6202 347.498 90.7388 347.669 89.9925 347.968Z"/>
	<path fill="#3D405B" transform="scale(1.6 1.6)" d="M199.78 184.598C203.231 178.395 210.871 179.828 217.053 179.309L244.571 177.054C277.598 174.319 313.855 172.314 346.732 172.88C399.688 173.793 452.478 179.596 504.913 186.778C512.95 187.879 520.882 188.493 527.925 192.958C547.603 205.434 549.628 244.005 552.197 265.129C552.698 269.247 556.242 279.525 550.87 281.662C543.012 281.025 544.889 271.754 544.145 264.914C543.362 257.706 542.338 250.539 541.298 243.364C538.983 207.886 531.245 198.213 499.112 193.828L478.815 191.196C442.353 186.761 402.608 182.732 365.842 181.312C322.095 179.623 273.645 182.15 230.319 186.117C221.773 186.899 203.59 192.266 199.78 184.598Z"/>
	<path fill="#3D405B" transform="scale(1.6 1.6)" d="M550.554 324.093C559.679 323.955 556.248 345.951 556.248 352.524C556.25 372.807 560.302 407.715 544.516 422.464C536.858 429.618 525.437 431.9 515.698 435.03C512.276 434.445 508.008 433.334 505.967 430.29C506.713 437.552 500.427 449.985 495.921 455.542C472.848 483.992 429.893 467.988 425.184 430.79C408.8 432.334 315.707 438.629 313.186 432.843C313.911 431.158 313.774 429.342 313.794 427.541C344.653 427.027 372.878 427.391 404.047 424.831C411.132 424.249 418.311 422.944 425.419 422.892C428.474 401.227 445.401 384.821 467.945 386.383C488.246 387.789 507.283 408.216 505.858 429.062C508.825 425.747 531.547 425.723 541.213 414.205C550.669 402.939 548.626 383.547 548.616 369.969C548.606 355.485 548.661 340.822 547.329 326.389C548.193 325.24 549.425 324.925 550.554 324.093Z"/>
	<path fill="#728DAD" transform="scale(1.6 1.6)" d="M464.166 414.984C473.698 415.872 474.425 427.08 465.085 430.143C453.315 431.605 456.249 419.253 464.166 414.984Z"/>
	<path fill="#BC6C25" transform="scale(1.6 1.6)" d="M199.78 184.598C203.59 192.266 221.773 186.899 230.319 186.117C273.645 182.15 322.095 179.623 365.842 181.312C402.608 182.732 442.353 186.761 478.815 191.196L499.112 193.828C531.245 198.213 538.983 207.886 541.298 243.364C519.389 227.626 505.965 222.941 479.24 222.546C477.712 215.655 471.593 217.834 466.085 217.869L204.307 218.438C193.505 218.484 182.405 217.99 171.651 218.849C171.043 220.797 170.355 222.77 170.37 224.836C149.807 219.612 127.933 226.112 112.231 239.883C110.291 239.158 108.048 238.613 106.241 237.633C111.38 225.533 109.796 214.052 119.635 203.679C126.718 196.211 134.838 195.395 144.543 194.33L162.275 192.356C166.419 191.878 174.852 192.15 176.82 187.488C184.279 185.767 192.042 187.016 199.78 184.598Z"/>
	<path fill="#F4F1DE" transform="scale(1.6 1.6)" d="M171.651 218.849C182.405 217.99 193.505 218.484 204.307 218.438L466.085 217.869C471.593 217.834 477.712 215.655 479.24 222.546C505.965 222.941 519.389 227.626 541.298 243.364C542.338 250.539 543.362 257.706 544.145 264.914C544.889 271.754 543.012 281.025 550.87 281.662C549.53 284.149 551.51 290.075 550.923 293.348C550.769 294.204 549.519 298.338 549.597 298.513C544.757 302.662 545.591 306.822 551.34 309.749C550.556 312.602 550.223 320.745 550.554 324.093C549.425 324.925 548.193 325.24 547.329 326.389C544.583 327.694 532.278 327.541 529.184 327.089C527.616 322.775 512.409 324.263 509.425 325.183C508.842 326.173 508.787 327.364 508.636 328.485C501.765 327.968 494.528 328.49 487.762 327.212C485.976 321.66 450.457 324.441 443.451 324.44L308.861 324.447C302.523 324.446 280.15 322.39 276.446 326.46C273.888 328.387 257.458 330.211 255.04 327.414L254.924 327.071C252.046 322.222 237.802 324.438 232.138 324.44C205.866 324.449 182.757 324.998 156.44 326.91C148.671 327.475 138.972 327.604 131.478 329.073C131.064 330.605 130.454 332.261 130.295 333.835C119.494 337.146 105.997 337.099 92.8588 341.353C90.891 330.044 101.663 247.083 106.241 237.633C108.048 238.613 110.291 239.158 112.231 239.883C127.933 226.112 149.807 219.612 170.37 224.836C170.355 222.77 171.043 220.797 171.651 218.849Z"/>
	<path fill="#3D405B" transform="scale(1.6 1.6)" d="M171.651 218.849C182.405 217.99 193.505 218.484 204.307 218.438L466.085 217.869C471.593 217.834 477.712 215.655 479.24 222.546C478.777 225.286 477.912 225.81 475.149 226.016C449.331 227.945 415.166 226.631 388.994 226.218L388.936 260.988C388.952 264.435 391.609 281.52 385.275 281.01C379.011 280.505 380.752 268.112 380.674 264.062C380.43 251.438 380.63 238.815 380.959 226.196C362.158 226.474 343.333 226.288 324.529 226.286L256.928 226.256C256.382 239.196 256.497 252.156 256.526 265.106C256.536 269.3 259.689 282.134 251.969 281.236C245.216 280.451 247.886 234.247 248.44 226.439C237.415 226.061 173.675 228.284 170.37 224.836C170.355 222.77 171.043 220.797 171.651 218.849Z"/>
	<path fill="#BC6C25" transform="scale(1.6 1.6)" d="M276.446 326.46C280.15 322.39 302.523 324.446 308.861 324.447L443.451 324.44C450.457 324.441 485.976 321.66 487.762 327.212C494.528 328.49 501.765 327.968 508.636 328.485C508.787 327.364 508.842 326.173 509.425 325.183C512.409 324.263 527.616 322.775 529.184 327.089C532.278 327.541 544.583 327.694 547.329 326.389C548.661 340.822 548.606 355.485 548.616 369.969C548.626 383.547 550.669 402.939 541.213 414.205C531.547 425.723 508.825 425.747 505.858 429.062C507.283 408.216 488.246 387.789 467.945 386.383C445.401 384.821 428.474 401.227 425.419 422.892C418.311 422.944 411.132 424.249 404.047 424.831C372.878 427.391 344.653 427.027 313.794 427.541C313.774 429.342 313.911 431.158 313.186 432.843C310.932 431.616 290.268 431.542 286.165 431.254C285.98 432.306 286.02 432.911 285.298 433.718C278.459 436.407 241.082 430.786 228.912 430.247C227.013 467.109 184.12 484.195 159.739 456.248C154.642 450.407 152.939 444.257 150.039 437.307C144.545 439.925 141.13 433.316 138.032 429.736L137.874 430.036C134.642 436.294 122.985 432.758 117.44 432.015C81.3893 427.187 82.1716 409.997 82.168 377.824C82.1671 369.768 81.8955 361.352 83.0656 353.367C85.1237 350.958 87.2748 349.735 90.2187 348.717L89.9925 347.968C90.7388 347.669 91.6202 347.498 92.3998 347.282C92.6207 345.312 92.7285 343.331 92.8588 341.353C105.997 337.099 119.494 337.146 130.295 333.835C130.454 332.261 131.064 330.605 131.478 329.073C138.972 327.604 148.671 327.475 156.44 326.91C182.757 324.998 205.866 324.449 232.138 324.44C237.802 324.438 252.046 322.222 254.924 327.071L255.04 327.414C257.458 330.211 273.888 328.387 276.446 326.46Z"/>
	<path fill="#3D405B" transform="scale(1.6 1.6)" d="M508.636 328.485C508.787 327.364 508.842 326.173 509.425 325.183C512.409 324.263 527.616 322.775 529.184 327.089C529.083 328.248 529.136 330.895 528.221 331.701C525.967 333.685 509.208 334.882 508.636 328.485Z"/>
	<path fill="#3D405B" transform="scale(1.6 1.6)" d="M131.478 329.073C138.972 327.604 148.671 327.475 156.44 326.91C182.757 324.998 205.866 324.449 232.138 324.44C237.802 324.438 252.046 322.222 254.924 327.071C254.701 328.839 254.467 330.71 254 332.433C221.35 333.676 190.604 332.868 157.399 335.087C150.295 335.561 135.414 338.987 130.295 333.835C130.454 332.261 131.064 330.605 131.478 329.073Z"/>
	<path fill="#3D405B" transform="scale(1.6 1.6)" d="M276.446 326.46C280.15 322.39 302.523 324.446 308.861 324.447L443.451 324.44C450.457 324.441 485.976 321.66 487.762 327.212C487.709 328.95 487.464 330.701 487.288 332.432C470.722 332.971 454.054 332.608 437.473 332.609L298.037 332.585C291.332 332.569 284.715 333.43 278.024 332.683C277.339 330.625 276.868 328.586 276.446 326.46Z"/>
	<path fill="#3D405B" transform="scale(1.6 1.6)" d="M90.2187 348.717C116.986 341.444 129.177 387.233 90.2864 388.912C90.6129 441.596 135.554 416.479 137.597 428.435L137.874 430.036C134.642 436.294 122.985 432.758 117.44 432.015C81.3893 427.187 82.1716 409.997 82.168 377.824C82.1671 369.768 81.8955 361.352 83.0656 353.367C85.1237 350.958 87.2748 349.735 90.2187 348.717Z"/>
	<path fill="#FFE901" transform="scale(1.6 1.6)" d="M96.1165 358.52C107.37 357.975 110.628 372.179 100.208 377.066C97.1372 378.004 94.4687 378.452 91.2523 378.469C90.9881 370.098 87.6048 359.873 96.1165 358.52Z"/>
	<path fill="#3D405B" transform="scale(1.6 1.6)" d="M169.11 389.884C193.306 377.547 223.344 395.762 228.266 422.17C238.447 422.787 248.573 424.131 258.746 424.833L275.763 425.85C280.388 426.169 286.105 425.006 286.165 431.254C285.98 432.306 286.02 432.911 285.298 433.718C278.459 436.407 241.082 430.786 228.912 430.247C227.013 467.109 184.12 484.195 159.739 456.248C154.642 450.407 152.939 444.257 150.039 437.307C150.901 423.775 146.921 406.817 161.906 396.497C159.016 391.674 165.828 387.982 169.11 389.884Z"/>
	<defs>
		<linearGradient id="gradient_0" gradientUnits="userSpaceOnUse" x1="163.97189" y1="390.94278" x2="169.32227" y2="400.24918">
			<stop offset="0" stop-color="#CA9B97"/>
			<stop offset="1" stop-color="#B7A6A6"/>
		</linearGradient>
	</defs>
	<path fill="url(#gradient_0)" transform="scale(1.6 1.6)" d="M161.906 396.497C159.016 391.674 165.828 387.982 169.11 389.884C169.683 392.525 170.1 395.291 171.39 397.693C170.335 399.83 168.86 401.835 166.969 403.317C166.566 402.215 166.23 401.054 165.506 400.116C164.536 398.693 163.189 397.629 161.906 396.497Z"/>
	<path fill="#728DAD" transform="scale(1.6 1.6)" d="M185.738 414.704C194.437 414.174 197.546 427.375 188.717 430.31C178.33 430.575 178.274 419.352 185.738 414.704Z"/>
</svg>
