<?xml version="1.0" encoding="utf-8" ?>
<svg xmlns="http://www.w3.org/2000/svg" xmlns:xlink="http://www.w3.org/1999/xlink" width="1024" height="1023">
	<path fill="#F4F1DE" transform="scale(1.6 1.6)" d="M307.82 84.2188C464.73 75.7551 586.24 220.135 549.918 374.173C525.595 477.324 438.234 549.808 332.578 556.209C146.341 566.462 18.5414 362.645 118.085 197.652C152.854 140.021 212.323 99.3137 278.638 87.3772C288.322 85.6341 298.047 85.1045 307.82 84.2188Z"/>
	<path fill="#3D405B" transform="scale(1.6 1.6)" d="M307.214 186.292C310.879 185.985 312.776 187.381 313.246 191.323C313.842 196.326 315.821 215.82 310.324 216.983C309.227 216.983 305.08 217.214 304.487 215.963C303.338 213.537 300.784 190.028 307.214 186.292Z"/>
	<path fill="#3D405B" transform="scale(1.6 1.6)" d="M343.16 204.049L344.356 204.02C347.326 205.551 350.161 210.092 346.659 212.691C342.644 215.672 328.355 224.655 324.479 226.518L323.169 226.408C320.528 224.859 319.8 222.056 318.854 219.334C322.645 215.645 338.179 206.279 343.16 204.049Z"/>
	<path fill="#3D405B" transform="scale(1.6 1.6)" d="M272.465 203.99C274.344 204.203 296.528 217.335 298.021 218.943C298.964 221.767 296.837 226.301 294.226 227.529C287.864 225.461 282.454 220.733 276.91 217.128C271.67 213.721 260.808 209.519 272.465 203.99Z"/>
	<path fill="#3D405B" transform="scale(1.6 1.6)" d="M468.289 289.651C474.297 286.522 487.046 293.848 492.518 296.408C508.985 304.114 518.178 310.81 526.564 327.521C535.687 345.701 548.847 389.12 524.163 401.376C517.387 404.741 490.718 410.396 486.439 408.907C483.465 407.872 483.346 404.861 483.101 402.229C489.824 395.207 520.248 402.53 527.56 383.92C530.072 377.527 530.073 365.999 527.29 359.716C520.708 356.134 515.128 355.988 509.162 350.512C496.895 339.252 474.178 320.027 488.961 304.414C484.52 302.333 468.504 296.663 466.808 294.312C466.947 292.694 467.702 291.154 468.289 289.651Z"/>
	<path fill="#EDCA01" transform="scale(1.6 1.6)" d="M496.554 309.983C508.625 311.202 518.072 330.756 522.171 340.486C523.6 343.878 527.317 349.719 521.594 348.418C513.569 344.875 496.027 324.3 492.408 316.275C493.474 313.603 494.087 311.637 496.554 309.983Z"/>
	<path fill="#3D405B" transform="scale(1.6 1.6)" d="M162.93 398.792C161.557 407.932 140.748 397.173 136.21 394.608C110.585 380.125 124.674 360.96 128.233 340.939C130.912 325.871 127.935 313.166 136.177 298.961C142.772 287.595 154.193 287.656 165.741 285.847C183.641 283.044 193.883 274.262 208.881 265.064C285.597 218.016 334.034 220.068 406.399 268.659C411.874 272.335 422.734 276.617 417.272 284.732L414.304 285.79C412.504 284.56 410.696 283.402 408.807 282.313C342.624 234.203 293.335 225.579 223.336 267.937C229.227 270.434 236.094 274.586 240.983 278.761C245.135 277.272 250.124 276.986 253.31 280.479C252.849 282.058 252.359 283.622 252.131 285.256C251.432 286.794 250.483 289.882 248.912 290.739C244.432 293.182 218.847 276.107 214.375 273.433C196.66 283.496 184.855 291.938 164.367 295.053C154.168 296.604 145.825 296.258 142.054 307.619C148.118 309.026 154.034 309.828 157.662 315.617C167.76 331.732 148.465 335.425 140.474 339.07C136.023 346.418 129.13 367.056 130.823 374.493C134.128 389.009 150.045 389.248 160.419 392.753C162.238 394.775 162.585 396.141 162.93 398.792Z"/>
	<path fill="#E07A5F" transform="scale(1.6 1.6)" d="M139.933 316.243C147.83 315.935 156.23 322.301 148.242 326.662C145.211 327.72 141.938 327.949 138.761 328.237C138.712 324.158 138.861 320.194 139.933 316.243Z"/>
	<path fill="white" transform="scale(1.6 1.6)" d="M223.336 267.937C293.335 225.579 342.624 234.203 408.807 282.313C402.807 283.121 392.23 284.015 386.392 283.035C385.498 279.464 381.898 281.405 379.05 281.451C372.783 281.551 366.481 281.393 360.21 281.394L305.133 281.407C299.754 281.408 278.291 279.441 276.907 284.598L277.48 285.812C270.803 286.85 259.196 285.582 252.131 285.256C252.359 283.622 252.849 282.058 253.31 280.479C250.124 276.986 245.135 277.272 240.983 278.761C236.094 274.586 229.227 270.434 223.336 267.937Z"/>
	<path fill="#E07A5F" transform="scale(1.6 1.6)" d="M214.375 273.433C218.847 276.107 244.432 293.182 248.912 290.739C250.483 289.882 251.432 286.794 252.131 285.256C259.196 285.582 270.803 286.85 277.48 285.812L276.907 284.598C278.291 279.441 299.754 281.408 305.133 281.407L360.21 281.394C366.481 281.393 372.783 281.551 379.05 281.451C381.898 281.405 385.498 279.464 386.392 283.035C392.23 284.015 402.807 283.121 408.807 282.313C410.696 283.402 412.504 284.56 414.304 285.79L417.272 284.732C422.093 285.089 426.688 283.252 431.475 283.161C438.328 283.032 461.947 287.574 468.289 289.651C467.702 291.154 466.947 292.694 466.808 294.312C468.504 296.663 484.52 302.333 488.961 304.414C474.178 320.027 496.895 339.252 509.162 350.512C515.128 355.988 520.708 356.134 527.29 359.716C530.073 365.999 530.072 377.527 527.56 383.92C520.248 402.53 489.824 395.207 483.101 402.229C478.118 403.402 473.098 404.268 468.096 405.332C464.726 423.825 456.278 439.499 434.363 439.669C416.644 439.806 399.15 422.941 399.022 405.077C392.258 405.2 385.18 404.753 378.917 402.038C378.035 407.07 375.28 406.951 370.752 407.124C360.578 407.511 350.279 407.186 340.093 407.186L287.993 407.076C283.565 407.022 278.249 408.676 274.789 405.118L272.668 403.636C266.557 403.958 260.323 403.078 254.313 403.56C253.94 404.422 253.877 405.141 253.817 406.061C253.126 448.932 185.404 449.169 184.966 405.355C181.304 405.328 166.987 400.41 162.93 398.792C162.585 396.141 162.238 394.775 160.419 392.753C150.045 389.248 134.128 389.009 130.823 374.493C129.13 367.056 136.023 346.418 140.474 339.07C148.465 335.425 167.76 331.732 157.662 315.617C154.034 309.828 148.118 309.026 142.054 307.619C145.825 296.258 154.168 296.604 164.367 295.053C184.855 291.938 196.66 283.496 214.375 273.433Z"/>
	<path fill="#3D405B" transform="scale(1.6 1.6)" d="M305.992 310.355C310.761 310.075 331.415 309.85 334.997 310.868C340.641 312.473 337.957 319.038 333.941 320.771C330.931 321.073 308.094 320.562 305.218 319.751C299.27 318.073 301.498 312.055 305.992 310.355Z"/>
	<path fill="#3D405B" transform="scale(1.6 1.6)" d="M278.605 397.607L279.135 397.537C285.744 396.623 293.902 397.474 300.669 397.479L350.458 397.486C353.117 397.485 375.837 397.044 376.763 397.547C377.859 398.141 378.525 400.905 378.917 402.038C378.035 407.07 375.28 406.951 370.752 407.124C360.578 407.511 350.279 407.186 340.093 407.186L287.993 407.076C283.565 407.022 278.249 408.676 274.789 405.118C274.623 401.664 275.702 399.657 278.605 397.607Z"/>
	<path fill="#3D405B" transform="scale(1.6 1.6)" d="M277.48 285.812L276.907 284.598C278.291 279.441 299.754 281.408 305.133 281.407L360.21 281.394C366.481 281.393 372.783 281.551 379.05 281.451C381.898 281.405 385.498 279.464 386.392 283.035C386.214 285.417 386.249 287.816 386.239 290.203C356.437 292.362 321.42 292.004 291.064 291.093C286.903 290.969 277.568 292.214 277.48 285.812Z"/>
	<path fill="#3D405B" transform="scale(1.6 1.6)" d="M184.966 405.355C188.259 359.38 255.546 356.255 253.817 406.061C253.126 448.932 185.404 449.169 184.966 405.355Z"/>
	<path fill="#3D405B" transform="scale(1.6 1.6)" d="M399.022 405.077C405.345 355.675 467.316 360.181 468.096 405.332C464.726 423.825 456.278 439.499 434.363 439.669C416.644 439.806 399.15 422.941 399.022 405.077Z"/>
</svg>
