<?xml version="1.0" encoding="utf-8" ?>
<svg xmlns="http://www.w3.org/2000/svg" xmlns:xlink="http://www.w3.org/1999/xlink" width="1024" height="1024">
	<path fill="#3D405B" transform="scale(1.6 1.6)" d="M78.0667 328.054C83.6935 329.364 83.7255 335.997 80.4048 339.895C73.7608 341.829 74.4215 331.117 78.0667 328.054Z"/>
	<path fill="#3D405B" transform="scale(1.6 1.6)" d="M132.705 232.97C118.813 229.329 108.859 216.743 109.836 202.191C111.574 176.32 168.253 119.624 195.591 111.014C208.226 107.034 222.097 112.597 229.573 123.365C232.944 128.221 232.02 131.378 237.735 130.383C259.307 126.63 271.37 118.881 275.798 96.5981C278.435 83.3231 278.704 80.2682 293.597 77.8373C305.892 75.8305 353.986 73.3012 361.378 83.8361C367.452 92.4934 362.054 109.521 379.379 121.821C386.491 126.87 398.014 131.532 406.835 129.872C414.896 119.773 417.099 111.587 433.158 109.772C447.956 108.1 461.232 117.735 472.244 126.489C475.507 129.083 484.078 133.531 479.472 137.922C473.832 139.433 471.51 133.338 466.953 129.355C451.606 115.944 428.092 109.229 414.623 128.622C412.391 131.835 412.471 134.45 412.784 138.167C412.358 139.552 412.122 140.747 411.029 141.769C409.868 140.292 408.546 138.892 407.308 137.477C382.654 135.727 364.761 124.667 358.763 99.7376C357.784 95.669 357.257 91.5068 356.332 87.4214C345.221 82.394 300.141 80.4919 287.024 85.7953C278.036 89.4293 289.667 124.332 244.947 135.617C236.136 137.841 234.409 138.398 226.224 141.546C226.46 139.951 227.137 138.57 227.568 137.037C230.372 127.071 216.253 118.113 208.258 116.76C197.591 114.956 187.752 121.289 179.502 127.251C162.218 139.743 100.659 191.369 119.757 216.902C125.416 224.469 137.828 226.767 140.159 229.786C138.345 233.711 138.281 238.224 137.169 242.359C131.787 262.354 118.574 278.466 97.3552 281.082C94.1102 281.482 90.3622 281.442 87.3125 282.646C80.6529 292.76 84.3388 308.053 80.2187 314.905C68.6312 316.175 79.0829 282.518 81.9396 279.089C86.0232 274.187 96.8945 275.332 102.884 273.507C119.433 268.462 131.735 249.686 132.705 232.97Z"/>
	<path fill="#BC6C25" transform="scale(1.6 1.6)" d="M140.159 229.786C137.828 226.767 125.416 224.469 119.757 216.902C100.659 191.369 162.218 139.743 179.502 127.251C187.752 121.289 197.591 114.956 208.258 116.76C216.253 118.113 230.372 127.071 227.568 137.037C227.137 138.57 226.46 139.951 226.224 141.546C214.572 144.176 218.092 148.38 211.419 153.948C207.392 157.308 201.396 158.238 196.997 161.264C189.975 166.094 190.023 173.366 180.25 175.611L179.655 175.741C167.698 187.9 158.701 199.492 149.498 213.825C146.825 217.988 143.966 227.51 140.159 229.786Z"/>
	<path fill="#3D405B" transform="scale(1.6 1.6)" d="M503.213 161.65C511.97 158.539 528.91 190.871 530.721 198.031C534.834 214.302 523.185 228.94 507.727 232.932L507.756 233.292C509.609 253.798 521.951 270.61 542.438 274.718C546.555 275.544 552.769 274.753 556.147 277.466C568.583 287.455 566.333 351.197 556.781 362.602C551.819 368.527 529.731 360.867 514.193 386.442C510.698 392.194 508.403 398.356 508.772 405.144L508.8 405.605L509.042 405.997C514.178 414.151 536.329 416.935 530.405 443.683C525.12 467.542 460.418 537.935 429.203 530.571C419.679 528.323 410.232 518.971 407.122 509.58C387.83 512.707 370.588 520.08 365.47 540.32C361.95 554.24 366.734 559.352 348.778 562.288C335.213 564.507 291.785 566.873 281.431 559.131C275.75 554.884 276.808 547.996 275.51 541.856C271.177 521.351 253.056 510.65 233.018 509.535C231.676 516.133 225.783 522.975 220.272 526.594C203.139 537.845 185.297 526.008 171.501 515.404C151.631 500.13 104.189 457.586 110.396 429.783C113.444 416.134 122.658 413.09 132.751 406.432C122.972 353.988 80.4131 373.2 77.8864 357.573C77.5527 355.509 78.556 353.599 80.2273 352.457C82.5533 353.865 84.4132 356.233 86.7635 357.403C91.1849 359.604 97.2424 359.075 102.055 360.509C127.055 367.961 131.272 384.423 139.852 404.598C145.285 409.809 149.339 416.837 153.902 422.81C169.257 442.915 185.319 461.509 206.111 476.127C218.964 485.162 227.488 486.13 232.708 501.143C254.602 505.456 275.531 516.616 281.501 539.717C283.1 545.906 281.495 552.59 288.694 555.086C303.869 560.348 341.956 559.628 356.48 552.74C357.317 549.978 357.553 546.91 358.12 544.07C363.458 517.334 381.486 507.082 407.337 502.203C409.009 500.685 408.383 500.095 408.851 498.064C410.437 489.005 439.172 471.56 447.126 464.817C471.972 443.755 482.655 425.611 501.243 400.171C507.765 379.218 518.811 365.579 540.573 360.358C552.329 357.538 553.704 360.197 556.394 346.477C559.259 331.866 560.138 294.485 552.122 282.587C520.593 277.28 508.126 269.21 500.543 234.946C500.402 233.117 500.382 231.273 500.322 229.44C503.492 224.498 526.691 225.344 525.22 203.257C524.553 193.239 513.858 177.571 506.648 169.847C504.2 167.225 498.67 165.362 503.213 161.65Z"/>
	<path fill="#BC6C25" transform="scale(1.6 1.6)" d="M139.852 404.598C145.285 409.809 149.339 416.837 153.902 422.81C169.257 442.915 185.319 461.509 206.111 476.127C218.964 485.162 227.488 486.13 232.708 501.143C223.724 497.294 227.601 527.858 202.135 524.568C180.922 521.828 112.422 460.697 116.104 432.625C117.906 418.882 130.826 415.491 140.393 408.084C140.016 406.99 139.977 405.745 139.852 404.598Z"/>
	<path fill="#BC6C25" transform="scale(1.6 1.6)" d="M501.243 400.171C501.106 410.224 506.627 413.026 514.151 417.899C543.761 437.075 504.524 474.53 489.596 489.311C479.138 499.666 450.563 524.991 435.803 524.975C413.834 524.951 413.112 500.787 408.851 498.064C410.437 489.005 439.172 471.56 447.126 464.817C471.972 443.755 482.655 425.611 501.243 400.171Z"/>
	<path fill="#F4F1DE" transform="scale(1.6 1.6)" d="M226.224 141.546C234.409 138.398 236.136 137.841 244.947 135.617C289.667 124.332 278.036 89.4293 287.024 85.7953C300.141 80.4919 345.221 82.394 356.332 87.4214C357.257 91.5068 357.784 95.669 358.763 99.7376C364.761 124.667 382.654 135.727 407.308 137.477C408.546 138.892 409.868 140.292 411.029 141.769C412.122 140.747 412.358 139.552 412.784 138.167C412.471 134.45 412.391 131.835 414.623 128.622C428.092 109.229 451.606 115.944 466.953 129.355C471.51 133.338 473.832 139.433 479.472 137.922C490.095 143.013 496.02 153.888 503.213 161.65C498.67 165.362 504.2 167.225 506.648 169.847C513.858 177.571 524.553 193.239 525.22 203.257C526.691 225.344 503.492 224.498 500.322 229.44C500.382 231.273 500.402 233.117 500.543 234.946C508.126 269.21 520.593 277.28 552.122 282.587C560.138 294.485 559.259 331.866 556.394 346.477C553.704 360.197 552.329 357.538 540.573 360.358C518.811 365.579 507.765 379.218 501.243 400.171C482.655 425.611 471.972 443.755 447.126 464.817C439.172 471.56 410.437 489.005 408.851 498.064C408.383 500.095 409.009 500.685 407.337 502.203C381.486 507.082 363.458 517.334 358.12 544.07C357.553 546.91 357.317 549.978 356.48 552.74C341.956 559.628 303.869 560.348 288.694 555.086C281.495 552.59 283.1 545.906 281.501 539.717C275.531 516.616 254.602 505.456 232.708 501.143C227.488 486.13 218.964 485.162 206.111 476.127C185.319 461.509 169.257 442.915 153.902 422.81C149.339 416.837 145.285 409.809 139.852 404.598C131.272 384.423 127.055 367.961 102.055 360.509C97.2424 359.075 91.1849 359.604 86.7635 357.403C84.4132 356.233 82.5533 353.865 80.2273 352.457L80.5452 352.367C81.1511 351.043 80.6033 349.233 80.5583 347.755C80.5143 346.309 81.6187 340.319 80.4048 339.895C83.7255 335.997 83.6935 329.364 78.0667 328.054C81.4993 325.327 79.3818 320.495 79.9697 316.643L80.2187 314.905C84.3388 308.053 80.6529 292.76 87.3125 282.646C90.3622 281.442 94.1102 281.482 97.3552 281.082C118.574 278.466 131.787 262.354 137.169 242.359C138.281 238.224 138.345 233.711 140.159 229.786C143.966 227.51 146.825 217.988 149.498 213.825C158.701 199.492 167.698 187.9 179.655 175.741L180.25 175.611C190.023 173.366 189.975 166.094 196.997 161.264C201.396 158.238 207.392 157.308 211.419 153.948C218.092 148.38 214.572 144.176 226.224 141.546Z"/>
	<path fill="#DCA891" transform="scale(1.6 1.6)" d="M496.344 230.114C497.761 230.055 499.026 230.091 500.322 229.44C500.382 231.273 500.402 233.117 500.543 234.946C499.686 233.301 497.6 231.581 496.344 230.114Z"/>
	<path fill="#6B6776" transform="scale(1.6 1.6)" d="M390.416 229.286C388.861 226.469 391.535 224.893 393.69 223.431L394.476 223.865L394.556 223.576L394.138 223.241L394.492 223.319L394.609 223.632C394.393 224.189 394.264 224.56 394.408 225.146C393.119 226.6 391.564 227.686 390.416 229.286Z"/>
	<path fill="#BC6C25" transform="scale(1.6 1.6)" d="M412.784 138.167C412.471 134.45 412.391 131.835 414.623 128.622C428.092 109.229 451.606 115.944 466.953 129.355C471.51 133.338 473.832 139.433 479.472 137.922C490.095 143.013 496.02 153.888 503.213 161.65C498.67 165.362 504.2 167.225 506.648 169.847C513.858 177.571 524.553 193.239 525.22 203.257C526.691 225.344 503.492 224.498 500.322 229.44C499.026 230.091 497.761 230.055 496.344 230.114C488.308 220.686 482.274 209.609 475.05 199.566C463.58 183.621 437.99 159.175 418.751 151.797C415.032 150.833 411.275 150.213 409.143 146.687C409.679 145.139 410.231 143.622 410.882 142.117L411.029 141.769C412.122 140.747 412.358 139.552 412.784 138.167Z"/>
	<path fill="#8D4E50" transform="scale(1.6 1.6)" d="M412.784 138.167C413.43 140.138 414.109 142.077 414.875 144.005C412.98 144.606 412.096 143.439 410.882 142.117L411.029 141.769C412.122 140.747 412.358 139.552 412.784 138.167Z"/>
	<path fill="#3D405B" transform="scale(1.6 1.6)" d="M265.674 295.199C230.517 300.226 201.097 270.263 211.878 235.651C216.553 220.643 219.511 222.997 228.331 231.649C232.532 235.771 247.515 251.091 252.074 252.581C258.367 254.638 267.086 235.959 268.262 231.503C271.321 219.915 242.859 203.704 252.539 199.657C259.026 196.945 271.81 200.449 278 203.239C301.652 213.899 312.32 245.039 301.632 268.373C306.667 273.631 312.351 278.266 317.185 283.729C327.621 275.054 343.774 265.031 355.267 258.015C360.147 255.036 367.806 253.386 368.927 246.68C369.286 244.531 363.965 234.06 378.094 241.037C383.502 238.573 386.87 233.842 390.416 229.286C391.564 227.686 393.119 226.6 394.408 225.146C397.541 221.701 413.229 210.215 417.745 208.507C422.177 210.293 430.257 216.771 432.136 221.076C433.427 224.031 420.577 249.61 417.777 253.826C414.706 258.451 394.325 267.201 388.497 272.5C386.793 274.049 361.737 322.633 360.613 325.431C365.195 331.191 367.588 342.824 378.129 343.269C377.386 342.502 376.139 341.984 375.736 340.977L375.962 340.941C387.335 350.257 389.684 349.173 391.479 362.704C392.888 362.159 394.472 361.867 395.091 360.328C397.268 360.681 424.148 386.85 427.409 390.227C453.68 417.432 422.48 451.322 395.684 432.774C390.771 429.374 364.042 404.639 361.876 400.091C361.825 399.459 361.785 399.057 361.461 398.504C356.197 401.036 349.54 390.576 346.617 387.349C340.145 380.207 327.333 366.674 319.679 361.883C307.91 374.02 294.698 385.822 283.328 397.836C284.897 423.988 258.766 442.601 238.836 427.642C233.135 430.358 228.654 435.014 222.863 437.355C216.887 435.269 208.043 427.646 204.671 422.447C206.229 416.1 210.726 411.315 214.247 405.981C206.293 394.128 203.898 381.123 214.216 369.472C224.467 357.896 229.236 359.396 241.981 358.576C247.987 354.924 252.659 348.334 257.576 343.363L286.111 315.022C278.441 309.637 272.407 301.702 265.674 295.199Z"/>
	<path fill="#F4F1DE" transform="scale(1.6 1.6)" d="M417.899 215.552C420.583 216.02 424.483 220.73 426.208 222.692C424.501 227.841 415.789 245.244 412.464 249.153C408.574 253.727 396.868 259.018 391.33 262.727C387.176 265.509 383.985 271.356 380.996 268.594C377.491 265.094 373.662 262.238 370.75 258.161C373.99 253.723 373.953 248.815 378.181 247.145C387.272 243.556 405.364 223.47 417.899 215.552Z"/>
	<path fill="#F4F1DE" transform="scale(1.6 1.6)" d="M259.57 205.574C286.456 204.803 304.442 234.561 297.587 259.045C296.829 261.755 294.334 266.47 294.783 269.213C295.37 272.8 309.152 285.606 312.521 288.035C304.717 294.701 298.067 302.665 290.541 309.645C282.964 303.556 274.084 293.07 267.983 289.01C263.027 289.607 258.042 290.393 253.048 289.843C226.253 287.693 205.969 255.866 220.035 232.109C223.739 236.304 228.052 240.187 232.087 244.072C239.508 251.218 249.536 264.108 260.552 255.409C267.43 249.977 273.971 239.465 274.849 230.652C275.803 221.084 265.133 212.29 259.57 205.574Z"/>
	<path fill="#7583B8" transform="scale(1.6 1.6)" d="M363.636 261.51C366.427 263.109 372.989 271.834 378.678 275.51C373.269 288.723 350.961 330.436 343.792 337.503C338.847 342.378 331.445 344.748 324.632 344.676C320.081 348.157 317.348 353.102 313.599 357.318C308.551 362.992 278.968 391.429 277.305 394.372C274.922 398.587 276.591 402.892 276.099 407.37C274.859 418.676 259.052 429.681 248.343 424.58C236.185 418.789 235.809 419.877 224.396 429.453C222.254 431.341 213.655 421.992 212.169 420.197C219.635 407.964 225.755 412.529 217.226 398.273C212.035 389.596 213.271 379.778 220.21 372.505C230.863 361.341 241.754 369.387 249.658 361.724C266.054 345.827 282.339 328.219 298.597 311.87C321.623 288.714 334.949 278.732 363.636 261.51Z"/>
</svg>
