<?xml version="1.0" encoding="utf-8" ?>
<svg xmlns="http://www.w3.org/2000/svg" xmlns:xlink="http://www.w3.org/1999/xlink" width="1024" height="1024">
	<path fill="#F4F1DE" transform="scale(1.6 1.6)" d="M235.303 400.035C247.908 399.714 260.547 399.898 273.156 399.897L343.646 399.918C351.576 399.901 366.588 396.179 369.914 402.64C380.495 402.184 390.981 402.557 401.563 401.771C402.84 404.547 405.514 407.494 408.041 409.183L408.381 409.414C408.449 409.46 408.519 409.504 408.588 409.549C408.602 410.992 408.581 412.445 408.674 413.886C408.853 426.369 424.392 441.439 436.378 438.463C436.95 455.39 485.119 447.359 489.13 409.256C506.446 410.667 530.587 409.414 546.221 401.516C545.82 418.891 530.189 442.713 519.434 456.06C478.225 507.205 409.136 539.171 344.472 545.753C283.728 551.936 188.921 535.09 146.878 490.555C135.812 478.833 129.069 464.085 120.227 450.81C111.574 437.819 93.9063 418.984 92.605 402.968C100.03 405.834 110.944 407.691 118.976 406.929C119.975 418.302 124.645 428.516 133.463 435.94C142.092 443.205 173.513 454.202 167.189 433.008C178.609 427.147 184.242 419.902 191.82 410.879L192.154 410.488C195.788 409.057 199.424 409.147 203.264 409.249C203.463 407.016 203.828 404.786 204.137 402.565C212.502 402.339 222.716 402.271 230.921 403.914L231.408 404.438C232.855 402.477 233.046 401.426 235.303 400.035Z"/>
	<path fill="#3D405B" transform="scale(1.6 1.6)" d="M235.303 400.035C247.908 399.714 260.547 399.898 273.156 399.897L343.646 399.918C351.576 399.901 366.588 396.179 369.914 402.64C370.065 404.342 370.522 406.773 369.632 408.297C366.25 409.435 318.84 408.745 311.826 408.744L260.649 408.736C253.354 408.735 234.176 411.842 231.408 404.438C232.855 402.477 233.046 401.426 235.303 400.035Z"/>
	<path fill="#F4F1DE" transform="scale(1.6 1.6)" d="M103.744 307.354C103.64 306.123 103.01 306.15 101.907 305.924C93.0196 297.957 92.0964 276.972 92.1141 266.148C92.2755 167.505 191.246 102.486 281.504 92.9275C304.299 90.5133 327.764 91.5289 350.663 91.5167L377.282 91.5121C407.447 91.5221 416.529 93.1087 443.366 107.84C477.456 126.554 511.376 150.839 534.076 182.923C537.357 187.56 541.519 192.611 543.127 198.134C540.789 199.892 534.219 202.902 533.14 204.684C526.908 204.115 520.646 204.233 514.395 204.229L300.577 204.223C279.305 204.223 257.856 203.612 236.611 204.634C231.421 204.884 228.691 207.502 230.538 212.444C223.88 215.106 218.729 220.736 212.966 224.863C209.081 227.25 204.53 234.173 201.191 237.855C189.602 250.636 176.859 265.765 163.378 276.375C148.805 287.843 122.028 295.275 103.744 307.354Z"/>
	<path fill="#BC6C25" transform="scale(1.6 1.6)" d="M230.538 212.444C228.691 207.502 231.421 204.884 236.611 204.634C257.856 203.612 279.305 204.223 300.577 204.223L514.395 204.229C520.646 204.233 526.908 204.115 533.14 204.684C541.915 209.123 540.227 225.753 540.799 233.879L542.939 261.698L545.127 284.609C545.615 289.437 546.337 294.353 546.288 299.207C544.91 300.477 543.862 301.351 542.011 301.798C541.724 304.787 542.164 319.618 543.222 321.936C552.38 325.156 548.237 345.956 547.307 353.714C555.417 359.641 553.474 386.655 551.828 394.138C551.134 397.294 548.754 399.689 546.221 401.516C530.587 409.414 506.446 410.667 489.13 409.256C485.119 447.359 436.95 455.39 436.378 438.463C424.392 441.439 408.853 426.369 408.674 413.886C408.581 412.445 408.602 410.992 408.588 409.549C408.519 409.504 408.449 409.46 408.381 409.414L408.041 409.183C405.514 407.494 402.84 404.547 401.563 401.771C390.981 402.557 380.495 402.184 369.914 402.64C366.588 396.179 351.576 399.901 343.646 399.918L273.156 399.897C260.547 399.898 247.908 399.714 235.303 400.035C233.046 401.426 232.855 402.477 231.408 404.438L230.921 403.914C222.716 402.271 212.502 402.339 204.137 402.565C203.828 404.786 203.463 407.016 203.264 409.249C199.424 409.147 195.788 409.057 192.154 410.488L191.82 410.879C184.242 419.902 178.609 427.147 167.189 433.008C173.513 454.202 142.092 443.205 133.463 435.94C124.645 428.516 119.975 418.302 118.976 406.929C110.944 407.691 100.03 405.834 92.605 402.968C87.4623 399.245 81.9538 395.47 80.3908 388.928C78.8877 382.636 79.5532 360.546 80.2302 353.53C81.9681 335.518 89.7316 318.972 103.744 307.354C122.028 295.275 148.805 287.843 163.378 276.375C176.859 265.765 189.602 250.636 201.191 237.855C204.53 234.173 209.081 227.25 212.966 224.863C218.729 220.736 223.88 215.106 230.538 212.444ZM212.966 224.863C209.081 227.25 204.53 234.173 201.191 237.855C189.602 250.636 176.859 265.765 163.378 276.375C148.805 287.843 122.028 295.275 103.744 307.354C89.7316 318.972 81.9681 335.518 80.2302 353.53C79.5532 360.546 78.8877 382.636 80.3908 388.928C81.9538 395.47 87.4623 399.245 92.605 402.968C100.03 405.834 110.944 407.691 118.976 406.929C119.975 418.302 124.645 428.516 133.463 435.94C142.092 443.205 173.513 454.202 167.189 433.008C178.609 427.147 184.242 419.902 191.82 410.879L192.154 410.488C195.788 409.057 199.424 409.147 203.264 409.249C203.463 407.016 203.828 404.786 204.137 402.565C203.29 349.72 125.779 345.93 118.905 398.716C83.2971 394.303 86.3862 392.113 87.8967 356.139C92.1021 354.852 96.5692 354.568 100.797 353.189C121.185 346.536 121.348 328.768 102.082 319.133C118.204 303.336 150.113 297.599 168.388 284.464C176.801 292.895 192.104 299.894 204.328 297.302C205.06 299.042 205.93 300.705 206.795 302.381C217.58 303.548 254.036 296.778 261.553 292.326C278.281 282.418 280.586 229.138 274.969 227.814C263.515 225.114 234.7 227.88 220.839 226.953C217.686 226.742 215.873 225.374 212.966 224.863Z"/>
	<path fill="#3D405B" transform="scale(1.6 1.6)" d="M256.307 307.874C259.03 307.563 270.367 307.468 272.433 308.324C277.097 310.257 277.437 316.025 272.437 317.446C266.95 317.727 258.829 318.623 254.088 315.691C253.504 314.528 253.126 313.289 252.709 312.059C253.581 309.705 253.995 308.988 256.307 307.874Z"/>
	<path fill="#3D405B" transform="scale(1.6 1.6)" d="M230.538 212.444C228.691 207.502 231.421 204.884 236.611 204.634C257.856 203.612 279.305 204.223 300.577 204.223L514.395 204.229C520.646 204.233 526.908 204.115 533.14 204.684C541.915 209.123 540.227 225.753 540.799 233.879L542.939 261.698L545.127 284.609C545.615 289.437 546.337 294.353 546.288 299.207C544.91 300.477 543.862 301.351 542.011 301.798C540.982 301.586 539.988 301.285 538.983 300.985C535.769 287.434 533.935 256.626 532.907 242.352C532.216 232.763 532.575 222.668 530.889 213.212C525.354 212.399 519.878 213.062 514.324 213.071L252.353 213.083C247.275 213.082 234.55 214.288 230.538 212.444Z"/>
	<path fill="#3D405B" transform="scale(1.6 1.6)" d="M543.222 321.936C552.38 325.156 548.237 345.956 547.307 353.714C555.417 359.641 553.474 386.655 551.828 394.138C551.134 397.294 548.754 399.689 546.221 401.516C530.587 409.414 506.446 410.667 489.13 409.256C485.119 447.359 436.95 455.39 436.378 438.463C424.392 441.439 408.853 426.369 408.674 413.886C408.581 412.445 408.602 410.992 408.588 409.549C408.519 409.504 408.449 409.46 408.381 409.414L408.041 409.183C405.514 407.494 402.84 404.547 401.563 401.771C404.48 395.511 406.331 389.128 409.951 383.062C431.361 347.186 478.848 355.897 489.535 399.022C501.567 402.281 534.686 398.938 543.709 392.348C544.358 382.078 544.636 371.347 544.24 361.07C535.69 360.606 524.609 357.708 523.141 347.854C520.719 331.588 527.596 323.882 543.222 321.936Z"/>
	<path fill="#757585" transform="scale(1.6 1.6)" d="M408.588 409.549C409.437 409.784 410.303 410.068 411.165 410.248C410.731 411.499 409.555 412.896 408.674 413.886C408.581 412.445 408.602 410.992 408.588 409.549Z"/>
	<path fill="#A320C1" transform="scale(1.6 1.6)" d="M536.637 332.517C545.068 331.732 541.311 346.452 539.84 351.317C537.903 351.357 535.931 351.421 534.051 350.902C525.028 346.237 528.464 335.487 536.637 332.517Z"/>
	<path fill="#3D405B" transform="scale(1.6 1.6)" d="M349.431 227.024C361.782 227.409 374.198 227.162 386.556 227.161L477.014 227.132C489.422 227.112 498.634 224.726 504.284 238.519C507.37 246.052 515.085 274.19 515.282 281.753C515.647 295.77 482.372 291.696 471.462 291.819C435.107 291.297 398.666 291.757 362.304 291.766L332.723 291.765C318.545 291.752 306.369 294.474 305.788 275.024C305.54 266.714 306.735 244.569 308.627 237.211C312.336 222.787 336.457 227.406 349.431 227.024Z"/>
	<path fill="white" transform="scale(1.6 1.6)" d="M481.332 236.084C485.56 235.969 489.694 235.748 493.833 236.772C497.899 241.122 506.132 274.572 506.284 281.228C499.359 284.195 486.207 282.808 478.727 282.809L339.219 282.801C335.426 282.789 331.633 282.773 327.841 282.845C309.311 283.196 313.702 277.043 314.597 261.707C316.219 233.903 311.554 236.258 339.767 236.249L439.702 236.254C453.554 236.257 467.491 236.587 481.332 236.084Z"/>
	<path fill="#3D405B" transform="scale(1.6 1.6)" d="M212.966 224.863C215.873 225.374 217.686 226.742 220.839 226.953C234.7 227.88 263.515 225.114 274.969 227.814C280.586 229.138 278.281 282.418 261.553 292.326C254.036 296.778 217.58 303.548 206.795 302.381C205.93 300.705 205.06 299.042 204.328 297.302C192.104 299.894 176.801 292.895 168.388 284.464C150.113 297.599 118.204 303.336 102.082 319.133C121.348 328.768 121.185 346.536 100.797 353.189C96.5692 354.568 92.1021 354.852 87.8967 356.139C86.3862 392.113 83.2971 394.303 118.905 398.716C125.779 345.93 203.29 349.72 204.137 402.565C203.828 404.786 203.463 407.016 203.264 409.249C199.424 409.147 195.788 409.057 192.154 410.488L191.82 410.879C184.242 419.902 178.609 427.147 167.189 433.008C173.513 454.202 142.092 443.205 133.463 435.94C124.645 428.516 119.975 418.302 118.976 406.929C110.944 407.691 100.03 405.834 92.605 402.968C87.4623 399.245 81.9538 395.47 80.3908 388.928C78.8877 382.636 79.5532 360.546 80.2302 353.53C81.9681 335.518 89.7316 318.972 103.744 307.354C122.028 295.275 148.805 287.843 163.378 276.375C176.859 265.765 189.602 250.636 201.191 237.855C204.53 234.173 209.081 227.25 212.966 224.863ZM97.1401 328.392C92.9441 334.101 90.7083 339.922 88.7275 346.662C92.1566 346.289 95.483 345.658 98.8183 344.781C113.95 339.669 109.596 333.39 97.1401 328.392Z"/>
	<path fill="white" transform="scale(1.6 1.6)" d="M215.887 236.254L249.18 236.26C255.819 236.258 262.527 236.445 269.154 236.057C266.997 282.126 265.01 289.912 216.255 292.468C210.462 292.772 205.597 289.896 204.328 297.302C192.104 299.894 176.801 292.895 168.388 284.464C185.795 268.724 199.545 250.895 215.887 236.254Z"/>
</svg>
