<?xml version="1.0" encoding="utf-8" ?>
<svg xmlns="http://www.w3.org/2000/svg" xmlns:xlink="http://www.w3.org/1999/xlink" width="1024" height="1023">
	<path fill="#F4F1DE" transform="scale(1.6 1.6)" d="M126.485 440.953C121.018 437.208 115.873 433.316 111.712 428.087C92.8556 404.39 83.4066 352.215 83.4225 320.735C83.4897 187.379 191.453 83.3677 323.136 83.421C383.523 83.4455 436.816 105.775 481.06 146.006C517.054 178.736 545.141 230.676 553.784 279.051C576.785 407.794 487.086 531.611 358.985 553.845C326.346 559.51 283.351 557.446 251.644 547.957C237.057 543.592 234.748 545.397 235.042 530.261C235.182 523.016 235.986 514.304 235.401 507.193C235.335 506.163 235.387 505.097 234.859 504.182L234.406 504.629C228.416 502.148 222.329 511.072 218.868 514.589C213.507 520.036 201.655 526.585 194.364 528.372C167.787 534.885 155.02 520.223 137.933 503.633C115.263 481.621 113.615 468.882 131.586 440.461C129.592 439.625 128.404 440.244 126.485 440.953Z"/>
	<path fill="#BDC4B3" transform="scale(1.6 1.6)" d="M234.406 504.629C232.684 502.667 235.38 501.427 235.467 499.256C235.695 493.559 233.981 496.165 238.82 491.587C238.301 493.879 236.226 506.193 235.401 507.193C235.335 506.163 235.387 505.097 234.859 504.182L234.406 504.629Z"/>
	<path fill="#BC6C25" transform="scale(1.6 1.6)" d="M337.731 137.055C332.59 131.176 340.95 126.795 344.787 123.304C365.337 104.61 361.419 101.572 381.142 118.319C392.593 128.042 416.364 140.073 395.882 152.783C372.171 162.149 351.118 185.825 340.973 209.186L340.559 210.148C338.204 212.777 335.638 213.934 332.338 214.889C325.564 211.864 301.263 187.258 298.785 181.384C300.985 172.777 312.513 155.985 320.281 151.731C326.571 147.359 331.803 141.82 337.731 137.055Z"/>
	<path fill="#3D405B" transform="scale(1.6 1.6)" d="M337.731 137.055C332.59 131.176 340.95 126.795 344.787 123.304C365.337 104.61 361.419 101.572 381.142 118.319C392.593 128.042 416.364 140.073 395.882 152.783C372.171 162.149 351.118 185.825 340.973 209.186L340.559 210.148C338.204 212.777 335.638 213.934 332.338 214.889C325.564 211.864 301.263 187.258 298.785 181.384C300.985 172.777 312.513 155.985 320.281 151.731C322.686 152.891 323.754 154.346 324.854 156.704C323.26 161.691 312.005 174.307 308.081 181.037C312.532 186.829 326.075 198.502 332.016 203.855C349.77 172.274 365.661 159.674 394.134 140.932C385.17 132.226 375.266 124.253 365.529 116.424C359.989 119.978 354.652 124.945 349.994 129.589C345.927 133.644 343.989 138.259 337.731 137.055Z"/>
	<path fill="#3D405B" transform="scale(1.6 1.6)" d="M340.559 210.148L340.973 209.186C351.118 185.825 372.171 162.149 395.882 152.783C403.034 156.569 406.961 161.604 412.709 165.176C420.692 161.775 427.599 169.805 433.205 174.409C454.09 191.558 478.434 218.989 490.52 243.842C504.693 234.242 517.8 237.559 527.286 251.505C537.916 267.133 527.658 277.701 517.131 288.317C506.63 298.905 496.67 309.871 486.779 321.024C478.635 330.205 472.022 339.797 457.576 336.281C449.874 334.407 441.852 325.929 438.085 319.26C434.158 312.305 437.153 304.915 439.909 298.196C423.208 289.128 412.799 280.582 398.358 269.543C383.963 283.074 370.631 297.625 356.816 311.739L326.183 343.1C320.765 348.59 315.176 353.897 309.867 359.496C323.421 375.541 315.001 387.211 304.845 401.207L251.922 473.573C247.757 479.237 241.877 485.357 238.82 491.587C233.981 496.165 235.695 493.559 235.467 499.256C235.38 501.427 232.684 502.667 234.406 504.629C228.416 502.148 222.329 511.072 218.868 514.589C213.507 520.036 201.655 526.585 194.364 528.372C167.787 534.885 155.02 520.223 137.933 503.633C115.263 481.621 113.615 468.882 131.586 440.461C133.994 436.607 149.303 411.736 151.895 410.92C153.209 410.506 154.835 411.244 156.043 411.681C161.503 411.062 165.832 402.153 169.605 398.519C168.937 397.1 168.624 395.648 168.277 394.13C170.681 391.561 174.671 388.536 178.361 390.273C183.455 388.151 191.505 379.421 195.066 374.923C196.611 369.22 201.228 364.366 206.857 368.83C209.712 366.544 218.366 359.03 219.779 356.132C217.526 351.637 225.11 347.751 228.695 344.691C245.049 330.726 259.182 317.683 279.487 333.591C283.596 327.793 289.001 322.672 294.017 317.676L310.132 301.504L337.876 272.688C348.033 262.119 357.858 251.472 367.626 240.536C363.227 237.002 356.083 229.851 353.921 224.654C353.745 223.421 353.605 222.413 353.014 221.305C349.8 219.788 344.192 212.935 340.559 210.148Z"/>
	<path fill="#DFAC9B" transform="scale(1.6 1.6)" d="M353.014 221.305C354.442 221.022 355.438 220.717 356.8 221.354C355.779 222.421 354.78 223.448 353.921 224.654C353.745 223.421 353.605 222.413 353.014 221.305Z"/>
	<path fill="#8CC6ED" transform="scale(1.6 1.6)" d="M373.397 246.002C379.463 251.965 385.463 257.977 392.055 263.366C389.02 266.722 385.907 269.996 382.774 273.261C378.692 268.192 368.153 260.531 361.743 259.683C365.392 255.002 370.24 250.987 373.397 246.002Z"/>
	<path fill="#F4F1DE" transform="scale(1.6 1.6)" d="M361.743 259.683C368.153 260.531 378.692 268.192 382.774 273.261L332.419 324.199C322.497 334.273 312.404 344.327 302.925 354.814C296.987 350.028 290.848 345.487 285.032 340.552C291.339 332.121 299.703 324.983 307.037 317.463L331.671 291.799C341.925 281.302 352.378 270.999 361.743 259.683Z"/>
	<path fill="#BC6C25" transform="scale(1.6 1.6)" d="M340.559 210.148L340.973 209.186C351.118 185.825 372.171 162.149 395.882 152.783C403.034 156.569 406.961 161.604 412.709 165.176C413.121 171.465 420.328 174.975 424.819 178.373C446.181 194.539 463.675 214.828 477.545 237.724C479.863 241.55 483.905 250.339 486.671 253.025C492.785 258.963 501.973 239.037 516.546 250.706C531.804 262.924 519.095 273.201 509.763 282.702C503.005 289.582 470.797 328.069 463.701 328.641C456.952 329.185 445.756 319.216 445.182 312.701C443.687 295.732 477.291 273.915 468.486 266.5C463.421 262.234 448.765 284.831 445.132 290.804C413.835 274.203 388.584 248.205 363.182 223.898C361.121 221.926 359.795 220.278 356.8 221.354C355.438 220.717 354.442 221.022 353.014 221.305C349.8 219.788 344.192 212.935 340.559 210.148Z"/>
	<path fill="#BC6C25" transform="scale(1.6 1.6)" d="M223.832 358.622C235.342 353.359 246.461 337.502 259.082 334.669C269.075 332.426 277.025 343.255 283.738 348.879C290.238 354.324 297.438 359.356 303.401 365.379C315.219 377.316 302.59 389.214 295.029 399.362C289.219 407.16 283.354 414.926 277.641 422.795L244.826 468.87C228.645 491.444 202.178 533.167 169.01 518.272C160.044 514.246 139.888 495.855 132.942 487.164C117.577 467.937 144.638 432.704 157.061 418.355C157.487 415.724 157.899 413.803 156.043 411.681C161.503 411.062 165.832 402.153 169.605 398.519C168.937 397.1 168.624 395.648 168.277 394.13C170.681 391.561 174.671 388.536 178.361 390.273C183.455 388.151 191.505 379.421 195.066 374.923C196.611 369.22 201.228 364.366 206.857 368.83C209.712 366.544 218.366 359.03 219.779 356.132C221.024 357.219 222.37 357.889 223.832 358.622Z"/>
	<path fill="#3D405B" transform="scale(1.6 1.6)" d="M168.277 394.13C170.681 391.561 174.671 388.536 178.361 390.273C179.949 395.405 179.127 398.249 173.656 399.739C172.331 399.415 170.796 399.19 169.605 398.519C168.937 397.1 168.624 395.648 168.277 394.13Z"/>
	<path fill="#3D405B" transform="scale(1.6 1.6)" d="M195.066 374.923C196.611 369.22 201.228 364.366 206.857 368.83C207.624 374.981 203.91 376.683 198.531 378.16C197.111 377.226 196.04 376.325 195.066 374.923Z"/>
	<path fill="#3D405B" transform="scale(1.6 1.6)" d="M181.578 447.604C209.258 445.752 213.013 490.222 182.74 490.351C152.436 490.188 153.055 451.972 181.578 447.604Z"/>
	<path fill="#00E181" transform="scale(1.6 1.6)" d="M181.295 455.683C195.438 453.989 202.374 477.369 182.675 482.19C165.332 483.831 163.736 459.578 181.295 455.683Z"/>
</svg>
