<?xml version="1.0" encoding="utf-8" ?>
<svg xmlns="http://www.w3.org/2000/svg" xmlns:xlink="http://www.w3.org/1999/xlink" width="1024" height="1024">
	<path fill="#F4F1DE" transform="scale(1.6 1.6)" d="M186.389 140.757C184.253 138.194 182.357 135.362 182.682 131.854C184.051 117.072 229.102 97.3844 243.433 92.4163C294.866 74.5855 342.153 80.3267 393.585 90.7292C468.904 105.963 495.247 127.61 526.189 194.446C548.374 242.366 564.427 290.822 557.755 344.837C550.822 400.977 519.837 468.998 473.898 504.794C422.176 545.096 356.626 565.898 291.224 557.676C251.221 552.647 216.427 537.884 181.759 517.9C158.739 504.631 145.929 494.887 132.729 472.04C125.92 460.256 117.981 446.812 111.83 434.948C67.3934 349.237 72.2665 279.176 114.634 196.071C120.019 185.508 125.778 167.552 139.591 176.633C146.035 176.194 181.934 209.898 189.11 215.642C197.379 208.836 206.165 201.356 213.33 193.45C209.423 181.983 198.506 166.018 191.579 155.54C187.686 149.652 183.653 148.263 186.389 140.757Z"/>
	<path fill="#E3B1A8" transform="scale(1.6 1.6)" d="M299.468 372.118C302.077 368.287 301.441 369.829 304.349 371.368L304.689 371.882C304.488 372.256 304.376 372.482 304.055 372.769C301.96 372.714 301.529 373.397 300.229 374.874C300.031 373.954 299.723 373.027 299.468 372.118Z"/>
	<path fill="#C4C4C4" transform="scale(1.6 1.6)" d="M366.649 322.036C368.382 321.03 369.378 320.125 370.337 318.352C371.698 319.754 380.362 332.399 381.136 333.813C379.345 333.618 378.152 332.427 376.264 332.563C373.477 331.676 367.891 324.697 366.649 322.036Z"/>
	<path fill="#E07A5F" transform="scale(1.6 1.6)" d="M186.389 140.757C223.531 134.757 260.57 163.013 266.195 200.21C267.412 208.264 270.105 215.906 262.907 220.95C263.043 221.587 262.972 221.703 263.461 222.174C260.036 222.834 257.278 232.309 256.346 235.164C251.836 248.978 244.697 249.316 234.598 258.028C231.707 260.522 229.961 263.648 226.554 265.64C222.881 264.611 220.934 262.96 218.308 260.266C199.665 262.278 189.771 254.908 173.863 253.559L173.798 252.304C166.604 260.315 156.396 247.513 152.279 242.219C141.418 228.253 135.414 211.387 135.108 193.726C135.005 187.776 134.325 180.697 139.591 176.633C146.035 176.194 181.934 209.898 189.11 215.642C197.379 208.836 206.165 201.356 213.33 193.45C209.423 181.983 198.506 166.018 191.579 155.54C187.686 149.652 183.653 148.263 186.389 140.757Z"/>
	<path fill="#3D405B" transform="scale(1.6 1.6)" d="M186.389 140.757C223.531 134.757 260.57 163.013 266.195 200.21C267.412 208.264 270.105 215.906 262.907 220.95C262.27 219.839 261.048 219.229 260.141 218.354L260.074 217.83C259.387 212.275 259.601 206.697 258.798 201.124C254.486 171.21 227.199 148.059 197.085 147.543C201.561 155.872 224.086 188.724 221.647 196.129C220.881 198.455 193.533 223.331 189.759 224.93C173.227 218.271 157.643 197.597 143.381 187.325C138.24 206.066 151.698 233.747 166.373 246.067C168.768 248.078 171.841 249.879 173.798 252.304C166.604 260.315 156.396 247.513 152.279 242.219C141.418 228.253 135.414 211.387 135.108 193.726C135.005 187.776 134.325 180.697 139.591 176.633C146.035 176.194 181.934 209.898 189.11 215.642C197.379 208.836 206.165 201.356 213.33 193.45C209.423 181.983 198.506 166.018 191.579 155.54C187.686 149.652 183.653 148.263 186.389 140.757Z"/>
	<path fill="#3D405B" transform="scale(1.6 1.6)" d="M345.403 248.183C317.403 179.924 385.145 109.196 451.992 137.263C455.465 138.722 459.3 141.095 457.109 145.279C451.106 156.747 429.139 171.06 419.828 182.722C420.646 191.74 422.064 201.425 424.461 210.163C433.651 211.699 442.785 213.599 451.852 215.741C462.719 207.544 483.109 182.096 493.124 178.21C503.194 188.21 502.714 214.489 500.453 227.358C491.459 278.539 438.08 305.785 389.983 290.611C386.386 294.054 368.784 310.468 368.311 313.98C369.696 315.228 369.916 316.593 370.337 318.352C369.378 320.125 368.382 321.03 366.649 322.036C367.891 324.697 373.477 331.676 376.264 332.563C378.152 332.427 379.345 333.618 381.136 333.813C384.525 337.817 393.903 345.083 392.196 350.878C392.442 355.378 408.808 373.97 412.594 375.545C420.074 375.103 421.678 379.495 419.883 385.509C424.425 390.473 430.385 396.245 433.052 402.469L434.192 401.835C440.655 402.264 453.38 420.819 458.009 426.113C469.133 438.835 486.062 452.576 485.23 470.932C484.358 490.146 466.149 507.714 446.693 506.543C430.039 505.541 420.888 493.684 410.237 482.518L329.745 399.449C321.222 390.541 312.27 381.952 304.055 372.769C304.376 372.482 304.488 372.256 304.689 371.882L304.349 371.368C301.441 369.829 302.077 368.287 299.468 372.118C297.365 373.764 297.819 374.471 297.98 376.934L299.176 378.837C303.602 388.775 305.089 399.537 301.056 409.889C298.649 416.066 292.242 430.549 283.582 426.711C282.968 427.02 282.431 426.759 282.06 426.922C280.927 427.422 272.751 441.59 265.757 445.294C265.015 445.687 264.101 445.859 263.406 446.278C263.771 455.68 254.736 460.766 248.7 466.678C242.085 473.156 235.906 480.213 228.638 485.984C201.124 507.834 161.995 498.574 147.913 466.532C134.512 436.04 149.087 413.219 169.974 393.005L188.755 374.734C209.648 354.201 228.76 324.625 262.518 338.133C267.086 332.46 272.264 327.14 277.463 322.047C262.506 307.513 236.823 275.304 219.813 269.771C208.922 266.228 184.586 271.305 172.958 257.74C173.403 256.318 173.708 255.044 173.863 253.559C189.771 254.908 199.665 262.278 218.308 260.266C220.934 262.96 222.881 264.611 226.554 265.64C229.961 263.648 231.707 260.522 234.598 258.028C244.697 249.316 251.836 248.978 256.346 235.164C257.278 232.309 260.036 222.834 263.461 222.174L264.702 221.004C265.001 221.348 265.059 221.546 265.24 221.961C273.586 241.086 291.743 251.676 303.52 266.562C307.044 269.825 310.844 272.94 314.105 276.462L314.294 276.581C324.432 270.976 335.673 255.95 345.403 248.183Z"/>
	<defs>
		<linearGradient id="gradient_0" gradientUnits="userSpaceOnUse" x1="365.23581" y1="301.77795" x2="357.09116" y2="317.35745">
			<stop offset="0" stop-color="#7A7C82"/>
			<stop offset="1" stop-color="#A8ABAA"/>
		</linearGradient>
	</defs>
	<path fill="url(#gradient_0)" transform="scale(1.6 1.6)" d="M372.738 297.032C372.554 298.818 367.911 302.33 368.036 303.059C368.41 305.252 370.95 301.566 371.257 300.9L371.709 300.656C370.923 303.914 357.687 317.83 352.748 317.733L351.883 316.672C354.975 315.611 369.492 300.291 372.738 297.032Z"/>
	<path fill="#687076" transform="scale(1.6 1.6)" d="M331.254 298.758C328.961 296.026 315.806 285.041 320.733 282.642C324.755 288.252 329.16 293.526 333.371 298.988C338.754 305.018 345.241 309.925 350.616 315.872C345.872 316.033 334.23 302.642 331.254 298.758Z"/>
	<path fill="#E07A5F" transform="scale(1.6 1.6)" d="M267.751 344.394C272.755 338.403 278.479 333.355 284.33 328.217C292.897 337.181 303.076 348.485 311.032 357.893C307.577 362.258 305.047 365.705 304.349 371.368C301.441 369.829 302.077 368.287 299.468 372.118C297.365 373.764 297.819 374.471 297.98 376.934C289.235 368.101 275.151 353.44 267.751 344.394Z"/>
	<path fill="#E07A5F" transform="scale(1.6 1.6)" d="M366.649 322.036C367.891 324.697 373.477 331.676 376.264 332.563C378.152 332.427 379.345 333.618 381.136 333.813C384.525 337.817 393.903 345.083 392.196 350.878C392.442 355.378 408.808 373.97 412.594 375.545C420.074 375.103 421.678 379.495 419.883 385.509C424.425 390.473 430.385 396.245 433.052 402.469C431.455 403.155 430.961 404.128 430.152 405.591C431.403 408.421 453.065 431.804 456.356 435.409C466.893 446.953 480.647 457.542 477.031 475.047C473.919 490.117 457.688 501.792 442.384 498.474C430.855 495.975 421.923 483.468 414.106 475.504L332.376 390.683C326.932 385.074 316.419 375.808 312.5 369.661C323.216 356.78 353.77 329.141 366.649 322.036Z"/>
	<path fill="#3D405B" transform="scale(1.6 1.6)" d="M412.594 375.545C420.074 375.103 421.678 379.495 419.883 385.509C418.075 386.345 416.383 387.049 414.449 387.541L411.827 385.552C410.995 383.265 410.598 381.245 410.558 378.829C411.038 377.362 411.35 376.5 412.594 375.545Z"/>
	<path fill="#3D405B" transform="scale(1.6 1.6)" d="M376.264 332.563C378.152 332.427 379.345 333.618 381.136 333.813C384.525 337.817 393.903 345.083 392.196 350.878C391.174 351.902 390.092 352.768 388.947 353.645C381.197 349.667 378.832 340.112 376.264 332.563Z"/>
	<path fill="#E07A5F" transform="scale(1.6 1.6)" d="M263.406 446.278C255.47 446.109 256.313 448.213 250.841 453.265C236.131 466.85 223.268 486.269 202.337 489.682C175.581 494.046 154.648 475.172 150.794 449.37C146.58 421.164 171.946 402.61 189.497 385.229L211.999 362.861C222.615 352.418 241.798 333.29 257.868 345.731C260.728 347.945 263.14 350.916 265.638 353.523C284.817 373.537 307.778 389.487 286.902 419.162C285.294 421.448 283.09 423.683 283.582 426.711C282.968 427.02 282.431 426.759 282.06 426.922C280.927 427.422 272.751 441.59 265.757 445.294C265.015 445.687 264.101 445.859 263.406 446.278Z"/>
	<path fill="#3D405B" transform="scale(1.6 1.6)" d="M172.828 436.244C178.159 436.13 180.204 445.015 183.169 448.631C186.3 452.45 192.906 455.703 185.857 459.659C179.522 459.715 164.638 441.696 172.828 436.244Z"/>
	<path fill="#F4F1DE" transform="scale(1.6 1.6)" d="M353.924 250.127C352.301 244.778 349.92 239.723 348.501 234.3C332.991 175.028 394.749 121.53 449.051 144.027L424.72 166.319C420.983 169.767 416.465 173.269 413.415 177.302C411.59 179.714 412.005 214.18 422.414 217.443C428.841 219.458 448.753 223.537 454.586 223.678C461.323 219.659 483.345 196.299 490.699 189.456C510.229 241.797 456.129 298.986 401.448 285.654C397.141 284.604 393.073 282.844 388.811 281.681C382.846 285.532 377.452 291.732 372.738 297.032C369.492 300.291 354.975 315.611 351.883 316.672L350.616 315.872C345.241 309.925 338.754 305.018 333.371 298.988C329.16 293.526 324.755 288.252 320.733 282.642C327.265 275.573 351.092 256.301 353.924 250.127Z"/>
</svg>
