<?xml version="1.0" encoding="utf-8" ?>
<svg xmlns="http://www.w3.org/2000/svg" xmlns:xlink="http://www.w3.org/1999/xlink" width="1024" height="1024">
	<path fill="#F4F1DE" transform="scale(1.6 1.6)" d="M310.778 83.6213L311.196 83.5985C438.319 77.2836 549.992 181.338 556.099 307.013C562.568 440.156 460.778 550.55 329.14 556.84C209.739 561.655 104.588 474.063 86.2493 355.904C72.7737 269.082 112.131 180.102 182.613 128.451C221.088 100.256 263.164 85.9576 310.778 83.6213Z"/>
	<path fill="#3D405B" transform="scale(1.6 1.6)" d="M447.792 381.874C458.341 382.012 455.935 393.452 456.398 400.979C458.615 437.024 464.194 465.366 416.056 467.913C408.312 468.323 400.549 468.328 392.816 468.768C386.564 469.123 371.51 474.081 367.639 466.849C367.023 460.202 368.303 451.235 373.52 446.751C376.444 450.101 377.355 454.536 378.31 458.748L398.919 457.945C412.336 457.511 434.443 459.658 443.349 446.801C454.085 431.302 441.22 397.659 447.792 381.874Z"/>
	<path fill="#E07A5F" transform="scale(1.6 1.6)" d="M318.644 155.707C326.77 159.334 372.854 198.653 381.739 206.026C386.979 210.375 392.947 214.442 397.547 219.452C397.034 206.226 398.065 192.843 397.076 179.66C393.489 179.574 387.02 180.032 384.455 177.211C382.787 175.376 383.225 170.563 385.352 169.202C388.378 167.265 447.486 166.695 459.543 167.643C460.994 168.822 462.175 169.88 462.424 171.826C463.486 180.152 453.999 178.816 448.649 178.746C449.067 207.497 448.33 236.23 449.794 264.964C455.366 270.798 462.008 275.82 468.254 280.904L489.012 298.104C492.994 301.419 506.283 308.769 499.685 315.123C496.352 318.333 458.656 314.792 452.807 314.146C452.856 322.434 456.296 340.101 449.783 345.029C448.88 345.137 448.088 345.315 447.213 345.566C447.262 349.818 446.972 380.178 447.792 381.874C441.22 397.659 454.085 431.302 443.349 446.801C434.443 459.658 412.336 457.511 398.919 457.945L378.31 458.748C377.355 454.536 376.444 450.101 373.52 446.751C368.303 451.235 367.023 460.202 367.639 466.849C362.704 472.157 327.371 470.005 319.864 469.946L319.277 470.57L319.641 471.777C317.223 473.9 311.866 471.89 310.814 468.491C299.634 468.073 288.547 467.418 277.336 467.239C277.018 476.89 262.091 472.196 253.904 471.634C242.269 470.835 206.331 470.159 197.819 462.186C195.165 459.7 188.798 454.47 193.367 451.089C191.899 445.943 191.486 439.602 188.709 435.002L188.044 434.905C186.62 434.487 185.268 433.717 183.937 433.065C180.656 417.897 180.054 383.931 180.025 366.815L180.026 336.376C180.03 329.586 180.182 322.78 179.696 316.003C171.885 315.943 142.856 318.465 139.121 317.122C136.545 316.196 136.035 311.816 137.13 309.725C138.087 307.895 198.361 254.999 204.412 252.956C206.577 253.333 208.688 253.546 210.302 255.176C213.496 253.159 224.866 244.627 225.721 240.933L225.304 240.652C218.977 237.768 220.783 231.516 226.691 236.002L228.201 237.097C230.126 237.013 244.176 225.078 244.158 221.01C243.68 219.861 243.186 218.717 242.736 217.558C245.704 212.92 254.697 206.594 259.248 202.806L297.435 171.64C303.064 167.082 311.823 157.689 318.644 155.707Z"/>
	<path fill="#3D405B" transform="scale(1.6 1.6)" d="M204.412 252.956C206.577 253.333 208.688 253.546 210.302 255.176C212.086 261.429 204.719 265.357 200.656 269.012C187.498 280.852 170.331 293.526 158.344 305.881C165.91 304.94 173.657 305.078 181.269 304.811L242.772 302.121C247.521 301.863 252.312 301.297 257.067 301.389C261.286 304.917 261.559 309.076 256.518 312.131C234.562 313.039 212.466 314.675 190.635 315.322C189.909 349.106 191.007 386.34 192.873 420.112C193.069 423.66 193.56 427.242 193.405 430.796C191.988 432.931 190.547 434.203 188.044 434.905C186.62 434.487 185.268 433.717 183.937 433.065C180.656 417.897 180.054 383.931 180.025 366.815L180.026 336.376C180.03 329.586 180.182 322.78 179.696 316.003C171.885 315.943 142.856 318.465 139.121 317.122C136.545 316.196 136.035 311.816 137.13 309.725C138.087 307.895 198.361 254.999 204.412 252.956Z"/>
	<path fill="#3D405B" transform="scale(1.6 1.6)" d="M318.644 155.707C326.77 159.334 372.854 198.653 381.739 206.026C386.979 210.375 392.947 214.442 397.547 219.452C397.034 206.226 398.065 192.843 397.076 179.66C393.489 179.574 387.02 180.032 384.455 177.211C382.787 175.376 383.225 170.563 385.352 169.202C388.378 167.265 447.486 166.695 459.543 167.643C460.994 168.822 462.175 169.88 462.424 171.826C463.486 180.152 453.999 178.816 448.649 178.746C449.067 207.497 448.33 236.23 449.794 264.964C455.366 270.798 462.008 275.82 468.254 280.904L489.012 298.104C492.994 301.419 506.283 308.769 499.685 315.123C496.352 318.333 458.656 314.792 452.807 314.146C452.856 322.434 456.296 340.101 449.783 345.029C440.318 338.142 443.107 324.764 442.686 313.777C422.167 311.791 398.454 311.211 377.856 310.925C372.641 307.664 373.556 303.248 378.24 300.148C412.418 300.761 446.546 303.24 480.71 304.319C466.975 294.675 452.459 281.456 438.789 270.556L438.626 243.814C438.926 222.227 438.575 200.622 438.733 179.032C428.399 178.784 418.055 178.982 407.717 178.822C408.028 193.061 407.386 219.897 410.083 231.666C408.238 234.101 406.272 236.314 404.236 238.582C396.598 230.452 385.059 222.46 376.284 215.479L342.878 188.41C334.685 181.852 326.237 175.56 318.205 168.812C299.041 182.748 281.397 199.459 262.669 214.132C258.492 217.404 254.53 221.472 250.058 224.284C248 223.313 246.09 222.211 244.158 221.01C243.68 219.861 243.186 218.717 242.736 217.558C245.704 212.92 254.697 206.594 259.248 202.806L297.435 171.64C303.064 167.082 311.823 157.689 318.644 155.707Z"/>
	<path fill="#3D405B" transform="scale(1.6 1.6)" d="M258.978 461.263L258.95 430.846C258.952 406.992 259.376 382.488 274.664 362.574C293.266 338.345 327.585 334.584 351.465 353.407C375.305 372.199 373.173 395 376.228 420.907C374.073 422.937 371.445 424.243 369.106 426.027C370.093 428.929 374.158 444.521 373.52 446.751C368.303 451.235 367.023 460.202 367.639 466.849C362.704 472.157 327.371 470.005 319.864 469.946L319.277 470.57L319.641 471.777C317.223 473.9 311.866 471.89 310.814 468.491C299.634 468.073 288.547 467.418 277.336 467.239C277.018 476.89 262.091 472.196 253.904 471.634C242.269 470.835 206.331 470.159 197.819 462.186C195.165 459.7 188.798 454.47 193.367 451.089C196.255 451.527 199.163 450.628 202.073 451.454C205.887 452.535 208.338 456.146 212.212 457.076C224.813 460.101 245.71 460.946 258.978 461.263Z"/>
	<path fill="#DFF13A" transform="scale(1.6 1.6)" d="M269.526 461.108C268.659 451.838 268.948 442.54 268.934 433.241C268.883 399.199 271.018 365.89 307.661 352.587L310.237 437.356C310.551 447.679 309.765 458.226 310.814 468.491C299.634 468.073 288.547 467.418 277.336 467.239C275.357 463.846 273.13 462.455 269.526 461.108Z"/>
	<path fill="#DFF13A" transform="scale(1.6 1.6)" d="M317.674 352.471C346.961 352.423 363.112 376.413 364.875 403.893C365.37 411.61 363.512 419.918 369.106 426.027C370.093 428.929 374.158 444.521 373.52 446.751C368.303 451.235 367.023 460.202 367.639 466.849C362.704 472.157 327.371 470.005 319.864 469.946C321.242 461.526 319.3 442.026 318.928 433.048C318.444 421.371 319.168 409.6 318.781 397.924C318.276 382.702 316.947 367.784 317.674 352.471Z"/>
	<path fill="#3D405B" transform="scale(1.6 1.6)" d="M328.075 417.224C335.48 417.234 337.293 426.054 331.295 429.569C324.039 430.622 322.026 419.687 328.075 417.224Z"/>
</svg>
