<?xml version="1.0" encoding="utf-8" ?>
<svg xmlns="http://www.w3.org/2000/svg" xmlns:xlink="http://www.w3.org/1999/xlink" width="1024" height="1023">
	<path fill="#3D405B" transform="scale(1.6 1.6)" d="M86.2968 263.306C84.63 263.561 81.8093 264.114 80.4638 262.857C79.4342 260.017 78.6795 248.676 80.6291 246.904C82.0933 245.574 84.7117 245.885 86.5274 245.959C87.2861 250.26 88.6567 259.506 86.2968 263.306Z"/>
	<path fill="#3D405B" transform="scale(1.6 1.6)" d="M143.659 171.536C141.881 170.536 139.856 166.09 141.969 164.983C144.6 163.605 159.317 162.63 162.092 163.547C163.211 165.078 163.5 167.317 163.422 169.167C157.105 171.256 150.202 170.853 143.659 171.536Z"/>
	<path fill="#3D405B" transform="scale(1.6 1.6)" d="M85.9571 235.159C76.1941 238.646 79.687 221.961 79.6762 215.883L79.6296 193.147C79.5482 164.712 85.8951 168.788 111.153 167.194C114.92 166.956 128.041 164.388 130.737 167.013C131.781 169.448 132.338 171.66 129.67 172.912C121.919 174.056 113.896 174.684 106.071 175.058C98.9301 175.4 88.2614 172.624 86.7512 181.852C85.4043 190.081 88.0727 232.108 85.9571 235.159Z"/>
	<path fill="#3D405B" transform="scale(1.6 1.6)" d="M174.314 168.641C170.564 157.453 191.075 160.296 199.176 159.848C226.031 158.363 254.389 156.706 281.294 156.262C366.515 154.855 451.805 159.623 536.625 167.646C560.92 169.944 560.275 171.059 560.724 192.519C561.087 209.847 560.961 227.18 560.957 244.513L560.961 328.334C560.959 348.946 561.306 369.492 559.864 390.069C559.286 398.321 553.8 440.475 549.807 447.638C544.953 456.345 532.711 454.701 524.327 455.359C509.106 456.553 488.94 458.739 473.799 458.546C480.951 467.19 494.638 480.081 500.17 488.713C497.272 492.893 495.852 493.604 491.95 489.872C482.819 481.139 472.27 465.447 462.891 458.69C426.14 460.104 389.456 463.139 352.656 463.161L312.494 463.272C299.128 463.267 283.596 463.71 270.37 463.074L176.822 458.712C167.424 467.913 154.909 485.209 145.523 492.394C142.621 491.219 139.97 489.78 141.843 486.199C143.628 482.787 163.622 462.315 167.017 458.742C157.44 458.48 98.8135 456.813 93.0865 450.567C86.2278 443.087 81.0412 394.51 80.3737 384.292C78.2019 351.044 78.8526 309.458 79.7132 275.761C81.1838 274.408 82.0314 273.806 84.032 273.646C89.2024 275.539 86.557 295.47 86.5554 301.374C86.5493 324.882 86.5839 348.327 87.2549 371.826C87.5342 381.605 87.1223 393.556 89.1075 403.152C89.9397 409.284 94.4004 444.124 99.4347 446.44C106.488 449.685 190.035 452.367 201.16 452.875L258.251 455.192C317.317 457.43 376.328 456.189 435.339 453.215L508.651 448.999C512.916 448.713 540.103 447.499 541.83 446.557C545.214 444.712 550.647 408.649 551.87 402.625C554.332 394.174 553.761 358.712 553.763 349.179L553.766 220.172C553.764 208.382 554.321 196.27 553.607 184.509C552.884 172.598 538.702 175.031 528.546 174.125L492.97 171.149C461.573 168.644 430.147 166.365 398.674 165.045L360.478 163.758C311.215 162.532 261.788 163.422 212.605 166.523L190.967 167.974C185.643 168.361 180.182 169.027 174.842 168.678L174.314 168.641Z"/>
	<path fill="#E07A5F" transform="scale(1.6 1.6)" d="M551.87 402.625C550.647 408.649 545.214 444.712 541.83 446.557C540.103 447.499 512.916 448.713 508.651 448.999L435.339 453.215C376.328 456.189 317.317 457.43 258.251 455.192L201.16 452.875C190.035 452.367 106.488 449.685 99.4347 446.44C94.4004 444.124 89.9397 409.284 89.1075 403.152C131.854 408.201 177.353 410.545 220.327 412.738C225.73 413.014 231.202 413.522 236.61 413.404C238.452 411.248 268.633 412.489 272.956 412.489L351.778 412.485C358.411 412.486 404.391 410.668 406.723 413.543C419.538 414.707 445.81 411.684 459.101 410.706C490.147 408.423 521.029 406.992 551.87 402.625Z"/>
	<path fill="#3D405B" transform="scale(1.6 1.6)" d="M334.72 432.635C353.154 432.009 351.166 442.676 338.811 443.108C321.438 443.214 319.912 433.361 334.72 432.635Z"/>
	<path fill="#3D405B" transform="scale(1.6 1.6)" d="M304.832 432.962C309.866 432.908 314.035 431.999 315.91 437.502L315.55 438.754C313.934 444.421 308.539 443.497 303.669 443.488C297.131 443.53 288.238 442.528 294.423 433.929C297.819 433.015 301.342 433.055 304.832 432.962Z"/>
	<path fill="#3D405B" transform="scale(1.6 1.6)" d="M236.61 413.404C238.452 411.248 268.633 412.489 272.956 412.489L351.778 412.485C358.411 412.486 404.391 410.668 406.723 413.543C405.407 421.785 393.306 419.179 386.165 419.486C365.243 420.383 344.256 420.015 323.312 420.016L277.796 420.008C265.166 420.002 252.316 420.21 239.741 418.912C235.761 418.502 236.224 416.773 236.61 413.404Z"/>
	<path fill="#F4F1DE" transform="scale(1.6 1.6)" d="M174.314 168.641L174.842 168.678C180.182 169.027 185.643 168.361 190.967 167.974L212.605 166.523C261.788 163.422 311.215 162.532 360.478 163.758L398.674 165.045C430.147 166.365 461.573 168.644 492.97 171.149L528.546 174.125C538.702 175.031 552.884 172.598 553.607 184.509C554.321 196.27 553.764 208.382 553.766 220.172L553.763 349.179C553.761 358.712 554.332 394.174 551.87 402.625C521.029 406.992 490.147 408.423 459.101 410.706C445.81 411.684 419.538 414.707 406.723 413.543C404.391 410.668 358.411 412.486 351.778 412.485L272.956 412.489C268.633 412.489 238.452 411.248 236.61 413.404C231.202 413.522 225.73 413.014 220.327 412.738C177.353 410.545 131.854 408.201 89.1075 403.152C87.1223 393.556 87.5342 381.605 87.2549 371.826C86.5839 348.327 86.5493 324.882 86.5554 301.374C86.557 295.47 89.2024 275.539 84.032 273.646L86.0541 272.907C86.4519 272.077 86.4771 264.24 86.2968 263.306C88.6567 259.506 87.2861 250.26 86.5274 245.959C86.6241 244.785 86.232 236.058 85.9571 235.159C88.0727 232.108 85.4043 190.081 86.7512 181.852C88.2614 172.624 98.9301 175.4 106.071 175.058C113.896 174.684 121.919 174.056 129.67 172.912C129.94 173.803 130.799 174.231 131.522 174.745C135.83 175.092 141.464 176.181 143.659 171.536C150.202 170.853 157.105 171.256 163.422 169.167C166.408 169.466 171.519 169.625 174.314 168.641Z"/>
	<path fill="#3D405B" transform="scale(1.6 1.6)" d="M409.643 250.152C423.673 280.25 418.63 317.962 399.486 344.647C347.512 417.093 236.8 386.195 223.822 301.394C211.604 221.56 306.486 163.661 373.55 209.185C379.554 213.261 384.611 218.343 390.36 222.715C392.481 224.328 391.509 225.699 390.089 227.443L389.817 227.772C394.018 231.891 404.724 243.052 404.402 249.046C405.236 249.986 408.294 249.989 409.643 250.152Z"/>
	<path fill="#E07A5F" transform="scale(1.6 1.6)" d="M288.428 273.571L288.793 273.705C289.182 274.474 288.652 307.832 288.619 311.674C272.658 309.795 255.581 307.808 240.525 301.873C237.238 300.583 234.189 298.603 231.157 296.81C230.752 293.59 230.494 290.416 230.335 287.175C248.753 279.029 268.352 274.829 288.428 273.571Z"/>
	<path fill="#E07A5F" transform="scale(1.6 1.6)" d="M352.282 273.674C367.744 273.727 397.872 280.538 410.91 286.599C410.989 290.192 410.783 293.243 409.927 296.737C407.125 298.933 404.11 300.246 400.845 301.628C384.239 307.833 369.548 309.143 352.352 312.061C352.192 299.269 352.494 286.474 352.282 273.674Z"/>
	<path fill="#E07A5F" transform="scale(1.6 1.6)" d="M294.73 273.289C311.648 272.517 329.035 272.857 345.94 273.559C346.216 286.579 346.687 299.672 345.557 312.66C331.315 313.448 308.902 313.625 295.056 312.139C293.715 301.38 294.549 284.389 294.73 273.289Z"/>
	<path fill="#E07A5F" transform="scale(1.6 1.6)" d="M295.613 318.876C312.053 319.196 328.389 319.7 344.844 319.687C342.418 337.079 340.821 352.725 334.411 369.261C333.184 372.179 331.86 374.931 330.063 377.546C324.949 379.333 315.909 379.176 310.769 377.565C301.076 364.374 296.344 335.14 295.613 318.876Z"/>
	<path fill="#E07A5F" transform="scale(1.6 1.6)" d="M408.243 306.256L408.639 306.441C408.842 311.694 403.887 322.87 401.354 327.88C388.129 354.033 366.667 368.261 339.525 377.18C339.207 377.126 339.391 377.189 339.024 376.879C346.53 358.498 350.109 338.853 351.725 319.136C369.071 317.591 392.951 313.375 408.243 306.256Z"/>
	<path fill="#E07A5F" transform="scale(1.6 1.6)" d="M231.379 304.818C252.053 312.999 266.177 317.809 289.645 318.575C289.962 338.511 295.05 358.304 301.802 376.927C265.955 368.557 239.933 340.501 231.379 304.818Z"/>
	<path fill="#E07A5F" transform="scale(1.6 1.6)" d="M311.812 201.041C317.671 200.776 323.631 200.804 329.475 201.327C338.917 221.757 344.524 243.497 344.79 266.164C339.399 265.716 333.857 265.918 328.444 265.893C317.366 265.935 306.285 265.813 295.213 266.241C295.247 251.582 302.071 211.332 311.812 201.041Z"/>
	<path fill="#E07A5F" transform="scale(1.6 1.6)" d="M301.834 202.279C302.782 203.672 297.64 216.509 296.936 219.103C292.707 234.688 290.099 250.031 289.621 266.201C271.269 267.438 246.876 271.682 230.608 279.252L230.399 278.917C235.434 241.098 265.114 210.756 301.834 202.279Z"/>
	<path fill="#E07A5F" transform="scale(1.6 1.6)" d="M337.647 202.048C354.042 204.893 376.36 216.141 386.286 228.901L389.817 227.772C394.018 231.891 404.724 243.052 404.402 249.046C403.018 251.844 409.946 273.44 410.621 279.058C392.283 271.363 371.49 268.489 351.771 267.12C350.147 245.272 346.404 222.276 337.647 202.048Z"/>
</svg>
