<?xml version="1.0" encoding="utf-8" ?>
<svg xmlns="http://www.w3.org/2000/svg" xmlns:xlink="http://www.w3.org/1999/xlink" width="1024" height="1024">
	<path fill="#F4F1DE" transform="scale(1.6 1.6)" d="M307.582 81.1236L308.723 81.0579C371.949 77.7508 434.185 99.9581 481.1 142.332C525.16 182.127 555.851 240.943 558.889 300.542C563.228 385.66 531.901 462.025 462.865 512.72C423.558 541.584 380.386 556.998 331.997 559.406L330.772 559.486C212.277 567.236 105.932 479.769 84.5706 363.558C67.13 268.68 110.336 167.929 192.808 116.861C227.205 95.5615 267.298 83.418 307.582 81.1236Z"/>
	<path fill="#C8C9C7" transform="scale(1.6 1.6)" d="M446.673 364.251C447.064 363.406 447.321 362.526 447.607 361.642C448.221 364.001 448.546 366.489 449.342 368.786C446.851 368.182 446.901 366.569 446.673 364.251Z"/>
	<defs>
		<linearGradient id="gradient_0" gradientUnits="userSpaceOnUse" x1="442.51617" y1="372.22543" x2="449.26712" y2="369.33191">
			<stop offset="0" stop-color="#95949B"/>
			<stop offset="1" stop-color="#A4AAAB"/>
		</linearGradient>
	</defs>
	<path fill="url(#gradient_0)" transform="scale(1.6 1.6)" d="M444.189 363.658C445.395 361.657 446.576 359.633 447.9 357.706C447.994 359.089 447.858 360.281 447.607 361.642C447.321 362.526 447.064 363.406 446.673 364.251C446.901 366.569 446.851 368.182 449.342 368.786C450.411 370.746 452.144 373.165 452.691 375.3L452.123 375.457C451.141 375.192 451.116 374.757 450.611 373.904C448.74 372.836 444.635 375.001 442.466 375.18C442.955 374.165 443.258 373.215 443.537 372.125C443.477 369.389 444.016 366.417 444.189 363.658Z"/>
	<path fill="#7F8791" transform="scale(1.6 1.6)" d="M444.189 363.658C445.395 361.657 446.576 359.633 447.9 357.706C447.994 359.089 447.858 360.281 447.607 361.642C447.321 362.526 447.064 363.406 446.673 364.251C445.954 366.235 445.003 370.723 443.537 372.125C443.477 369.389 444.016 366.417 444.189 363.658Z"/>
	<path fill="#3D405B" transform="scale(1.6 1.6)" d="M241.83 251.915C237.481 244.928 246.822 241.462 251.98 245.205C251.912 247.382 250.487 251.62 249.966 253.965C247.194 253.539 244.448 252.946 241.83 251.915Z"/>
	<path fill="#3D405B" transform="scale(1.6 1.6)" d="M442.466 375.18C444.635 375.001 448.74 372.836 450.611 373.904C451.116 374.757 451.141 375.192 452.123 375.457L452.691 375.3C454.882 382.968 454.124 388.375 445.374 389.058C444.603 388.557 444.205 388.302 443.753 387.467L443.886 381.828C441.787 381.281 442.077 379.715 442.173 377.896L441.96 376.319L442.659 375.833L442.466 375.18Z"/>
	<path fill="#FEC9AB" transform="scale(1.6 1.6)" d="M442.659 375.833C445.437 375.985 445.685 376.761 444.536 379.254C444.308 380.106 444.041 380.96 443.886 381.828C441.787 381.281 442.077 379.715 442.173 377.896L441.96 376.319L442.659 375.833Z"/>
	<path fill="#3D405B" transform="scale(1.6 1.6)" d="M222.714 261.238C223.282 262.067 223.871 262.731 224.588 263.434C232.02 268.803 222.721 273.49 218.593 276.908C214.049 280.671 195.537 294.416 192.749 298.071C188.266 301.872 163.35 325.48 159.203 325.357C154.601 325.221 152.083 320.663 155.459 317.364C167.697 305.405 183.731 293.146 196.98 282.18C205.399 275.213 213.469 267.07 222.714 261.238Z"/>
	<path fill="#3D405B" transform="scale(1.6 1.6)" d="M384.989 183.189C376.264 184.479 372.021 175.015 380.122 173.961C387.944 172.943 437.087 172.907 438.776 174.764C443.114 179.535 438.704 182.697 433.452 182.985L433.421 264.085C433.434 267.352 433.657 270.67 433.457 273.93C448.002 286.115 473.227 303.926 485.441 317.372C487.843 320.017 486.069 325.27 482.349 325.388C479.351 325.484 451.319 302.189 447.559 299.078C445.711 296.211 442.157 294.093 439.591 291.886L390.751 250.151C379.388 240.442 367.991 231.008 356.375 221.606C344.978 212.381 326.282 190.328 311.379 200.701C305.752 204.811 300.46 209.497 295.106 213.956L266.652 237.844C265.008 236.919 263.381 235.176 261.745 234.491C261.4 233.1 261.022 231.71 260.739 230.306C271.797 222.195 284.027 210.592 294.825 201.595C317.87 182.394 324.542 183.496 346.684 202.126L364.541 217.15C371.251 222.744 378.91 227.844 385.006 234.079C385.307 217.158 385.394 200.107 384.989 183.189Z"/>
	<path fill="#BC6C25" transform="scale(1.6 1.6)" d="M394.379 182.789C398.875 182.945 403.389 182.894 407.888 182.911C413.527 182.811 419.215 182.818 424.847 183.14C425.236 194.18 425.036 205.265 425.034 216.312L425.018 267.797C420.363 263.773 415.511 259.588 411.201 255.211C405.722 250.321 400.283 244.822 394.369 240.493C394.751 221.336 394.858 201.942 394.379 182.789Z"/>
	<path fill="#BC6C25" transform="scale(1.6 1.6)" d="M311.379 200.701C326.282 190.328 344.978 212.381 356.375 221.606C367.991 231.008 379.388 240.442 390.751 250.151L439.591 291.886C442.157 294.093 445.711 296.211 447.559 299.078C447.383 300.677 447.21 302.255 447.189 303.866C447.082 309.195 445.898 317.48 448.634 322.155C455.866 324.878 449.579 351.726 447.9 357.706C446.576 359.633 445.395 361.657 444.189 363.658C444.016 366.417 443.477 369.389 443.537 372.125C443.258 373.215 442.955 374.165 442.466 375.18L442.659 375.833L441.96 376.319L442.173 377.896C442.077 379.715 441.787 381.281 443.886 381.828L443.753 387.467C444.205 388.302 444.603 388.557 445.374 389.058C443.273 391.623 444.857 398.437 446.261 401.154L446.983 401.448C449.057 402.493 450.194 403.528 451.48 405.458C451.798 411.584 452.169 428.732 450.623 433.894C443.82 456.602 416.476 451.28 398.272 451.277L254.105 451.272C240.559 451.273 226.896 451.684 213.364 451.278C189.365 450.557 188.847 429.737 188.858 412.339L188.866 340.617C188.855 333.388 185.994 324.5 192.931 321.945C193.375 320.31 193.484 318.59 193.952 316.934C195.015 311.167 194.753 303.61 192.749 298.071C195.537 294.416 214.049 280.671 218.593 276.908C222.721 273.49 232.02 268.803 224.588 263.434L225.968 262.335C230.745 258.503 237.721 256.451 241.83 251.915C244.448 252.946 247.194 253.539 249.966 253.965C250.487 251.62 251.912 247.382 251.98 245.205L252.306 244.45C255.264 242.448 260.611 237.859 261.745 234.491C263.381 235.176 265.008 236.919 266.652 237.844L295.106 213.956C300.46 209.497 305.752 204.811 311.379 200.701Z"/>
	<path fill="#843335" transform="scale(1.6 1.6)" d="M428.807 374.281C432.976 373.426 440.48 375.06 443.537 372.125C443.258 373.215 442.955 374.165 442.466 375.18L442.659 375.833L441.96 376.319L441.671 376.343C437.989 376.28 431.246 377.705 428.807 374.281Z"/>
	<path fill="#3D405B" transform="scale(1.6 1.6)" d="M448.634 322.155C455.866 324.878 449.579 351.726 447.9 357.706C446.576 359.633 445.395 361.657 444.189 363.658C443.24 354.359 440.691 331.481 443.948 323.037C445.563 322.544 446.93 322.199 448.634 322.155Z"/>
	<path fill="#FEC9AB" transform="scale(1.6 1.6)" d="M193.952 316.934C198.313 312.502 205.307 312.226 209.718 316.978C214.38 322.001 213.468 352.675 213.465 360.546L213.453 432.949C213.47 434.929 214.926 440.468 213.224 441.73C195.019 439.616 198.437 424.214 198.434 411.071C198.433 403.796 199.079 327.834 198.007 325.079C197.304 323.272 194.588 322.597 192.931 321.945C193.375 320.31 193.484 318.59 193.952 316.934Z"/>
	<path fill="#3D405B" transform="scale(1.6 1.6)" d="M318.238 280.419C323.631 279.602 329.793 281.864 334.131 284.965C353.398 298.738 344.62 325.583 322.787 329.046C288.85 330.366 284.216 285.413 318.238 280.419Z"/>
	<path fill="white" transform="scale(1.6 1.6)" d="M317.261 289.728C339.002 288.16 341.929 315.954 322.501 320.274C301.862 322.584 296.446 294.649 317.261 289.728Z"/>
	<path fill="#3D405B" transform="scale(1.6 1.6)" d="M192.931 321.945C194.588 322.597 197.304 323.272 198.007 325.079C199.079 327.834 198.433 403.796 198.434 411.071C198.437 424.214 195.019 439.616 213.224 441.73C216.908 442.501 221.429 441.68 225.253 441.762C244.111 442.168 265.373 440.766 283.721 442.198C283.023 432.251 283.349 422.027 283.334 412.054C283.314 399.309 281.576 388.734 290.046 378.127C302.444 362.599 328.799 360.679 343.864 373.2C355.966 383.258 355.622 391.997 355.632 406.516L355.62 427.263C355.616 432.094 355.485 436.968 355.947 441.783C365.938 441.945 427.561 443.174 432.974 440.302C448.742 428.098 440.581 424.599 442.449 405.391L442.501 404.891C443.29 402.801 444.728 401.726 446.983 401.448C449.057 402.493 450.194 403.528 451.48 405.458C451.798 411.584 452.169 428.732 450.623 433.894C443.82 456.602 416.476 451.28 398.272 451.277L254.105 451.272C240.559 451.273 226.896 451.684 213.364 451.278C189.365 450.557 188.847 429.737 188.858 412.339L188.866 340.617C188.855 333.388 185.994 324.5 192.931 321.945Z"/>
	<path fill="#91B7CC" transform="scale(1.6 1.6)" d="M314.114 375.408C316.427 375.177 318.753 375.334 321.071 375.429C302.644 383.598 304.541 401.196 304.545 418.442C304.546 426.167 304.255 434.008 304.931 441.703L300.377 441.579L293.187 441.599C292.009 431.971 291.657 402.766 293.37 393.755C295.437 382.882 303.557 377.34 314.114 375.408Z"/>
</svg>
