<?xml version="1.0" encoding="utf-8" ?>
<svg xmlns="http://www.w3.org/2000/svg" xmlns:xlink="http://www.w3.org/1999/xlink" width="1024" height="1024">
	<path fill="#3D405B" transform="scale(1.6 1.6)" d="M148.709 367.515C145.65 369.503 141.049 368.096 139.506 364.806C138.02 361.637 134.58 333.06 149.379 340.612C151.483 345.652 151.948 362.641 148.709 367.515Z"/>
	<path fill="#3D405B" transform="scale(1.6 1.6)" d="M142.443 263.647C144.951 261.178 147.319 260.207 150.921 260.833C155.762 266.198 153.896 307.705 151.672 309.899C150.617 310.939 148.853 311.239 147.543 311.866C139.04 312.267 141.527 300.012 141.533 294.707C141.544 284.518 140.968 273.72 142.443 263.647Z"/>
	<path fill="#3D405B" transform="scale(1.6 1.6)" d="M488.819 261.755C491.92 260.907 493.682 261.662 496.391 263.119C498.334 275.406 496.66 299.196 496.801 312.436C496.904 322.085 501.82 329.771 491.455 332.068C489.289 331.283 486.941 330.307 485.847 328.117L485.907 281.981C485.946 275.672 483.457 266.474 488.819 261.755Z"/>
	<path fill="#3D405B" transform="scale(1.6 1.6)" d="M427.549 532.866C423.048 520.707 431.459 522.586 439.566 522.594L457.076 522.602C476.95 522.609 496.825 522.715 516.697 522.419C525.024 522.732 535.585 519.133 538.381 527.335C535.529 537.19 517.888 533.441 508.365 533.442L442.571 533.436C437.765 533.431 432.243 533.892 427.549 532.866Z"/>
	<path fill="#3D405B" transform="scale(1.6 1.6)" d="M127.826 522.551C134.572 521.973 141.622 522.752 148.43 522.551C153.033 522.839 157.742 522.641 162.358 522.629L323.549 522.648C325.876 522.655 328.489 522.878 330.781 522.547C333.437 522.727 337.156 521.826 339.373 523.746C342.879 526.782 339.272 533.393 335.084 533.593C333.35 533.676 331.527 533.454 329.778 533.445L128.192 533.427C122.785 530.459 122.705 525.632 127.826 522.551Z"/>
	<path fill="#E07A5F" transform="scale(1.6 1.6)" d="M142.994 252.617C130.737 259.122 118.613 267.131 103.954 262.853C92.3403 259.463 84.9313 246.008 88.5484 234.383C93.1407 219.623 131.609 200.102 144.741 191.928C176.461 172.183 208.4 153.019 240.95 134.663C257.017 125.603 271.219 117.219 286.912 107.28C299.277 99.448 309.974 91.8341 325.42 96.8811C347.251 104.014 377.147 122.058 397.243 133.925L521.473 209.927C534.123 217.623 557.581 228.897 551.131 247.349C549.108 253.137 544.47 257.038 539.038 259.565C517.368 269.648 505.063 251.612 486.845 244.865C485.61 247.666 484.214 252.15 481.589 253.912C468.658 253.655 437.994 243.318 423.939 238.483C396.3 228.975 371.487 212.889 347.807 196.056C338.359 189.34 318.936 172.491 306.739 172.873C294.422 173.258 245.523 207.376 231.18 215.649C213.143 226.052 195.293 235.912 176.525 244.901C160.475 252.588 164.057 252.141 147.275 253.514C145.756 253.422 144.398 253.221 142.994 252.617Z"/>
	<path fill="#3D405B" transform="scale(1.6 1.6)" d="M142.994 252.617C130.737 259.122 118.613 267.131 103.954 262.853C92.3403 259.463 84.9313 246.008 88.5484 234.383C93.1407 219.623 131.609 200.102 144.741 191.928C176.461 172.183 208.4 153.019 240.95 134.663C257.017 125.603 271.219 117.219 286.912 107.28C299.277 99.448 309.974 91.8341 325.42 96.8811C347.251 104.014 377.147 122.058 397.243 133.925L521.473 209.927C534.123 217.623 557.581 228.897 551.131 247.349C549.108 253.137 544.47 257.038 539.038 259.565C517.368 269.648 505.063 251.612 486.845 244.865C483.117 242.76 474.524 241.751 473.285 237.076C472.428 233.84 476.225 230.767 479.071 230.373C499.349 227.568 521.946 267.544 540.47 244.739C544.834 239.366 540.605 235.541 536.1 232.222C521.74 221.645 506.32 212.688 491.093 203.451L450.804 178.597C429.547 165.647 330.186 102.884 312.546 105.434C304.949 106.532 286.054 120.436 278.551 125.209C257.935 138.326 236.215 149.426 215.085 161.648C192.64 174.63 105.509 226.899 100.003 234.474C96.3195 239.541 98.4267 247.946 103.479 251.344C116.419 260.047 142.778 238.724 156.655 233.905L157.137 233.735C157.234 233.702 157.332 233.672 157.429 233.64C160.696 234.999 162.107 236.453 163.474 239.722L163.715 240.312C160.263 247.89 149.424 248.371 142.994 252.617Z"/>
	<path fill="#E07A5F" transform="scale(1.6 1.6)" d="M349.818 374.073C351.453 370.966 354.136 368.13 356.561 365.621C387.546 333.564 439.639 326.074 478.789 346.767C495.604 355.655 514.641 373.499 522.771 390.836C538.12 420.805 539.168 457.479 528.965 489.239C525.676 499.477 521.077 514.667 512.918 522.233C514.173 522.279 515.449 522.277 516.697 522.419C496.825 522.715 476.95 522.609 457.076 522.602L439.566 522.594C431.459 522.586 423.048 520.707 427.549 532.866C418.375 532.529 404.91 533.211 395.562 533.489C391.721 533.604 387.681 534.29 383.858 533.91C379.458 533.473 356.131 516.618 351.479 512.684C335.709 499.347 327.746 477.955 324.513 458.163C320.065 430.935 326.363 405.527 342.481 382.907C344.628 379.894 346.907 376.372 349.818 374.073Z"/>
	<path fill="#3D405B" transform="scale(1.6 1.6)" d="M349.818 374.073C351.453 370.966 354.136 368.13 356.561 365.621C387.546 333.564 439.639 326.074 478.789 346.767C495.604 355.655 514.641 373.499 522.771 390.836C519.517 393.585 517.507 387.054 514.898 383.705C479.11 337.765 418.074 324.599 370.064 360.229C362.618 365.755 356.211 372.443 348.964 378.176C349.396 376.777 349.779 375.553 349.818 374.073Z"/>
	<path fill="#3D405B" transform="scale(1.6 1.6)" d="M428.958 364.755C438.752 363.55 435.784 375.812 435.875 382.198L439.351 382.419C446.843 382.964 468.891 390.908 456.797 398.845C454.526 400.334 439.558 394.262 434.824 393.241C434.193 404.508 434.128 418.971 434.992 430.151C442.709 431.895 450.159 433.655 456.439 438.783C466.731 447.187 468.121 466.345 459.627 476.393C453.466 483.681 445.32 485.456 436.251 486.248C436.296 488.638 436.901 494.815 435.98 496.581C434.003 500.372 426.998 499.692 425.957 495.355C425.87 492.459 425.949 489.572 426.021 486.677C416.472 486.452 392.293 482.87 396.128 469.393C398.406 461.388 407.75 469.753 410.784 471.048C415.722 473.156 421.258 474.459 426.418 475.9C426.706 471.772 426.507 467.524 426.499 463.38L426.431 441.34C413.265 437.014 399.201 432.102 396.912 416.446C393.905 395.879 407.265 385.226 426.164 382.713C425.919 377.434 423.411 367.926 428.958 364.755Z"/>
	<path fill="#E07A5F" transform="scale(1.6 1.6)" d="M435.738 443.751C448.585 447.849 453.919 460.344 444.615 470.822C441.909 473.033 439.287 474.125 435.972 475.148C435.602 464.856 435.235 454.044 435.738 443.751Z"/>
	<path fill="#E07A5F" transform="scale(1.6 1.6)" d="M424.815 394.041C425.415 394.021 425.14 393.929 425.619 394.371C425.964 404.924 425.564 416.086 425.763 426.857C422.796 425.987 420.139 424.336 417.704 422.474C407.095 413.185 411.141 398.626 424.815 394.041Z"/>
	<path fill="#F4F1DE" transform="scale(1.6 1.6)" d="M147.275 253.514C164.057 252.141 160.475 252.588 176.525 244.901C195.293 235.912 213.143 226.052 231.18 215.649C245.523 207.376 294.422 173.258 306.739 172.873C318.936 172.491 338.359 189.34 347.807 196.056C371.487 212.889 396.3 228.975 423.939 238.483C437.994 243.318 468.658 253.655 481.589 253.912C481.628 256.401 484.911 261.824 488.819 261.755C483.457 266.474 485.946 275.672 485.907 281.981L485.847 328.117C446.392 308.868 409.05 307.472 368.447 327.209C355.419 333.542 340.295 337.293 325.865 333.36C326.138 336.536 326.261 340.025 325.698 343.176C325.55 345.379 325.377 347.584 325.262 349.788C322.431 350.277 321.051 352.344 322.14 355.099L322.769 359.605C319.403 363.564 314.603 366.045 310.61 369.293C294.586 382.326 282.531 409.613 297.438 427.346C304.308 435.519 303.389 437.303 303.351 448.777C303.219 453.682 302.337 458.655 302.445 463.534C303.892 484.466 310.978 501.201 320.841 519.406C321.564 520.414 321.593 521.2 321.633 522.39C324.642 522.387 327.795 522.19 330.781 522.547C328.489 522.878 325.876 522.655 323.549 522.648L162.358 522.629C157.742 522.641 153.033 522.839 148.43 522.551C152.226 522.14 165.427 522.169 169.276 522.493C173.754 522.39 170.575 519.811 169.246 517.799L168.987 517.398C161.517 498.259 156.664 452.202 154.05 431.542C151.405 410.637 148.775 389.226 148.714 368.114L148.709 367.515C151.948 362.641 151.483 345.652 149.379 340.612C149.224 332.267 145.544 320.371 147.543 311.866C148.853 311.239 150.617 310.939 151.672 309.899C153.896 307.705 155.762 266.198 150.921 260.833C150.962 260.263 148.004 259.615 150.824 258.825L151.057 259.523L151.43 259.651C152.111 258.71 152.346 256.403 152.94 255.125C150.713 254.363 147.528 254.312 152.941 253.948C151.063 253.852 149.113 253.966 147.275 253.514ZM320.841 519.406C315.251 522.277 316.185 522.361 321.633 522.39C321.593 521.2 321.564 520.414 320.841 519.406Z"/>
	<path fill="#E07A5F" transform="scale(1.6 1.6)" d="M297.746 445.251C298.512 447.399 300.988 449.059 303.351 448.777C303.219 453.682 302.337 458.655 302.445 463.534C299.341 459.969 297.687 449.927 297.746 445.251Z"/>
	<path fill="#B0B2A3" transform="scale(1.6 1.6)" d="M315.267 340.257C318.655 340.37 325.438 338.465 325.698 343.176C325.55 345.379 325.377 347.584 325.262 349.788C321.481 349.334 315.716 349.646 315.287 344.856C315.338 343.328 315.281 341.787 315.267 340.257Z"/>
	<path fill="#FBB216" transform="scale(1.6 1.6)" d="M297.746 445.251C297.785 443.496 292.248 438.313 290.93 436.235C273.213 408.305 279.535 375.778 307.969 358.197C312.465 355.417 316.824 353.866 322.14 355.099L322.769 359.605C319.403 363.564 314.603 366.045 310.61 369.293C294.586 382.326 282.531 409.613 297.438 427.346C304.308 435.519 303.389 437.303 303.351 448.777C300.988 449.059 298.512 447.399 297.746 445.251Z"/>
</svg>
