<?xml version="1.0" encoding="utf-8" ?>
<svg xmlns="http://www.w3.org/2000/svg" xmlns:xlink="http://www.w3.org/1999/xlink" width="1024" height="1024">
	<path fill="#F4F1DE" transform="scale(1.6 1.6)" d="M315.15 79.8495C431.658 78.1083 536.202 160.675 556.65 276.52C582.572 423.372 473.656 557.318 324.765 560.358C261.223 560.276 205.232 541.281 157.489 497.259C113.847 457.019 82.4603 393.703 79.9948 333.678C77.3244 268.664 99.0812 206.162 143.303 158.311C189.647 108.164 247.119 82.4896 315.15 79.8495Z"/>
	<path fill="#3D405B" transform="scale(1.6 1.6)" d="M415.07 301.532C418.003 306.797 418.294 310.667 414.373 315.319C413.884 310.802 414.249 305.985 415.07 301.532Z"/>
	<path fill="#3D405B" transform="scale(1.6 1.6)" d="M331.393 442.255C338.354 442.598 336.67 447.823 340.416 454.265C349.395 469.702 360.021 469.4 375.649 469.418L426.42 469.422C434.688 469.417 446.825 470.606 454.646 467.708C473.549 460.702 470.361 444.041 478.8 443.108C489.16 447.45 473.733 466.4 469.084 469.911C457.582 478.6 444.989 478.399 431.246 478.377L384.533 478.388C366.019 478.385 347.696 479.05 335.408 462.454C332.397 458.386 325.235 446.459 331.393 442.255Z"/>
	<path fill="#3D405B" transform="scale(1.6 1.6)" d="M226.705 211.641C224 205.022 230.14 204.184 235.334 199.752L253.193 184.331C278.527 162.344 281.361 169.147 304.921 191.346C310.114 196.239 316.031 200.619 320.65 206.078C320.571 199.715 320.336 186.466 321.987 180.763C325.73 167.827 351.835 168.051 354.908 181.579C357.134 191.38 355.994 224.22 355.267 234.985C360.862 240.049 418.385 287.631 418.668 291.451C418.848 293.895 415.817 296.407 413.842 297.474C410.233 295.366 404.966 287.355 400.356 283.439C377.386 263.926 354.808 245.293 332.064 225.283C319.481 214.213 306.567 203.584 294.406 192.029C288.638 186.549 281.757 176.524 272.518 180.264C266.65 182.64 244.515 201.936 238.825 207.014C234.336 211.02 233.15 214.638 226.705 211.641Z"/>
	<path fill="#BC6C25" transform="scale(1.6 1.6)" d="M336.688 179.496C352.034 177.788 347.863 186.74 347.842 197.835C347.823 208.257 348.026 218.692 347.457 229.102C346.231 227.874 344.929 226.726 343.643 225.561C338.776 221.397 334.294 216.651 329.079 212.919C328.575 201.605 323.915 180.868 336.688 179.496Z"/>
	<path fill="#3D405B" transform="scale(1.6 1.6)" d="M226.705 211.641C233.15 214.638 234.336 211.02 238.825 207.014C244.515 201.936 266.65 182.64 272.518 180.264C281.757 176.524 288.638 186.549 294.406 192.029C306.567 203.584 319.481 214.213 332.064 225.283C354.808 245.293 377.386 263.926 400.356 283.439C404.966 287.355 410.233 295.366 413.842 297.474L413.505 297.964C413.828 299.273 414.439 300.354 415.07 301.532C414.249 305.985 413.884 310.802 414.373 315.319C412.826 317.313 411.968 319.766 413.573 321.995C420.864 329.565 417.115 337.983 407.512 330.267C406.35 329.933 405.399 329.289 404.205 328.998L403.489 329.697C400.574 328.948 398.05 330.32 395.549 331.877C394.969 333.172 397.191 342.781 397.643 344.677L398.082 345.076L398.72 345.535C398.502 345.988 398.278 346.405 398.003 346.827C404.372 350.798 445.062 345.081 458.15 348.789C470.275 352.224 480.495 364.925 483.232 376.96C484.396 382.079 485.751 416.507 484.073 420.664C483.3 421.414 482.376 421.491 481.361 421.695C480.086 424.898 479.302 438.668 478.8 443.108C470.361 444.041 473.549 460.702 454.646 467.708C446.825 470.606 434.688 469.417 426.42 469.422L375.649 469.418C360.021 469.4 349.395 469.702 340.416 454.265C336.67 447.823 338.354 442.598 331.393 442.255C332.54 439.866 330.758 420.87 330.276 417.012C329.179 416.148 236.201 425.76 229.005 426.344C210.646 427.836 174.307 434.179 160.352 419.968C155.251 414.773 156.237 409.029 156.241 402.282L156.33 321.185C131.288 338.084 107.977 317.819 119.493 294.176C123.283 286.394 131.227 281.932 137.864 276.87L163.568 257.102C170.495 251.69 200.275 225.594 206.73 223.404C207.635 224.393 208.7 225.175 209.752 225.998C215.538 221.063 219.426 215.051 226.705 211.641Z"/>
	<path fill="#4F96EB" transform="scale(1.6 1.6)" d="M269.484 348.515C304.455 344.283 296.864 389.601 296.263 411.208C288.745 411.706 281.177 413.006 273.676 413.829C265.386 414.951 257.026 415.732 248.706 416.608C248.002 407.322 247.294 376.354 248.742 367.502C250.413 357.278 259.645 350.213 269.484 348.515Z"/>
	<path fill="#BC6C25" transform="scale(1.6 1.6)" d="M226.705 211.641C233.15 214.638 234.336 211.02 238.825 207.014C244.515 201.936 266.65 182.64 272.518 180.264C281.757 176.524 288.638 186.549 294.406 192.029C306.567 203.584 319.481 214.213 332.064 225.283C354.808 245.293 377.386 263.926 400.356 283.439C404.966 287.355 410.233 295.366 413.842 297.474L413.505 297.964C413.828 299.273 414.439 300.354 415.07 301.532C414.249 305.985 413.884 310.802 414.373 315.319C412.826 317.313 411.968 319.766 413.573 321.995L412.931 322.833C411.104 322.758 409.708 324.528 408.09 325.171C407.092 325.248 405.85 325.207 404.941 325.604C398.97 323.592 390.311 313.658 385.041 309.296L309.53 246.289C300.196 238.439 291.277 229.986 281.765 222.371C277.735 219.144 274.96 217.328 270.201 220.419C257.262 228.826 242.293 242.602 230.285 252.547C212.177 267.544 193.692 282.02 175.04 296.33C166.97 302.522 145.305 322.744 134.073 319.355C125.237 316.688 122.442 304.284 127.078 296.994C129.23 293.61 180.654 253.913 187.491 248.42C192.577 244.334 213.495 231.937 209.752 225.998C215.538 221.063 219.426 215.051 226.705 211.641Z"/>
	<path fill="#BC6C25" transform="scale(1.6 1.6)" d="M330.276 417.012C343.326 419.226 323.267 380.174 347.685 361.028C355.383 354.992 357.796 356.496 367.191 356.488L434.771 356.477C452.273 356.47 468.463 354.266 474.693 376.544C478.088 388.686 475.272 408.027 476.45 421.207C478.095 421.314 479.738 421.393 481.361 421.695C480.086 424.898 479.302 438.668 478.8 443.108C470.361 444.041 473.549 460.702 454.646 467.708C446.825 470.606 434.688 469.417 426.42 469.422L375.649 469.418C360.021 469.4 349.395 469.702 340.416 454.265C336.67 447.823 338.354 442.598 331.393 442.255C332.54 439.866 330.758 420.87 330.276 417.012Z"/>
	<path fill="#3D405B" transform="scale(1.6 1.6)" d="M404.287 373.498C414.081 372.513 411.341 384.382 410.612 391.454L414.778 393.727C418.167 395.586 419.733 398.186 417.609 401.758C414.831 406.428 406.507 399.031 401.537 400.6C382.834 406.505 444.734 425.048 408.328 439.229L409.435 443.995C411.292 452.152 401.756 455.328 399.255 442.06C396.853 429.318 408.026 434.826 410.909 429.399C415.148 421.422 381.051 416.056 391.052 398.094C393.55 393.608 398.277 391.789 402.92 390.458C402.234 385.978 400.334 376.934 404.287 373.498Z"/>
	<path fill="#BC6C25" transform="scale(1.6 1.6)" d="M275.047 228.309C281.13 232.45 286.742 237.503 292.385 242.229C315.596 261.665 338.051 281.938 361.544 301.057C369.098 307.205 378.063 312.417 383.043 321.025C381.97 324.608 370.64 342.033 375.136 341.095C380.158 340.047 386.402 330.076 389.01 326.121C391.06 327.985 393.977 329.621 395.549 331.877C394.969 333.172 397.191 342.781 397.643 344.677L398.082 345.076C396.245 345.699 366.74 348.861 363.773 348.753C351.998 348.324 352.86 342.865 339.29 356.806C325.652 370.817 326.512 389.62 326.677 407.707C319.581 408.826 312.261 409.621 305.091 410.058C304.231 391.171 309.273 363.153 294.881 348.513C282.799 336.222 261.109 337.43 249.167 349.311C237.964 360.457 239.726 375.927 239.734 390.454L239.692 417.286C230.26 418.021 220.794 418.45 211.353 419.069C200.088 419.807 175.081 424.016 166.572 414.849C162.841 410.829 164.46 402.361 164.569 397.411C165.169 370.003 164.258 342.558 164.72 315.138C170.795 308.853 184.799 300.024 192.373 293.928L238.382 256.621C250.325 246.811 261.888 236.493 275.047 228.309Z"/>
</svg>
