<?xml version="1.0" encoding="utf-8" ?>
<svg xmlns="http://www.w3.org/2000/svg" xmlns:xlink="http://www.w3.org/1999/xlink" width="1024" height="1023">
	<path fill="#F4F1DE" transform="scale(1.6 1.6)" d="M303.251 81.3763C368.102 78.7933 426.157 95.5774 476.551 138.161C521.805 176.403 553.537 236.752 558.452 295.89C569.762 431.94 474.266 547.926 337.575 559.324C229.791 570.08 123.766 495.777 91.8853 392.76C82.6911 363.051 79.404 332.472 81.5687 301.475C89.7646 184.113 186.239 88.849 303.251 81.3763Z"/>
	<path fill="#3D405B" transform="scale(1.6 1.6)" d="M204.268 245.49C211.513 248.772 214.12 254.61 204.135 256.444C191.121 253.332 190.349 248.604 204.268 245.49Z"/>
	<path fill="#3D405B" transform="scale(1.6 1.6)" d="M435.344 246.112C439.265 246.296 447.018 245.058 449.821 248.138C456.697 255.693 440.809 255.076 438.703 255.263C437.945 297.461 444.754 346.17 421.678 382.783C419.107 386.862 413.605 400.21 406.965 393.744C408.635 387.124 413.437 381.71 416.903 375.935C431.96 350.847 431.015 326.197 430.997 297.729L430.951 255.351C411.386 254.464 424.021 245.707 435.344 246.112Z"/>
	<path fill="#3D405B" transform="scale(1.6 1.6)" d="M204.615 325.692C210.993 326.549 210.061 332.556 210.775 337.63C216.242 376.486 240.924 407.831 277.204 423.198C281.55 425.039 286.32 427.764 290.898 428.779C294.63 429.607 346.484 429.225 349.849 428.263C354.711 426.873 364.925 419.506 368.29 419.315C369.026 425.235 379.159 414.928 384.78 415.013L386.148 418.384C381.346 425.198 361.63 431.892 353.408 435.068L353.459 461.19C361.853 461.585 368.796 458.015 368.401 468.235C362.962 470.018 354.867 468.831 349.046 468.796C349.105 477.129 348.935 484.918 344.144 492.052C337.792 501.512 333.612 499.684 323.8 501.627C323.995 504.288 325.405 509.859 323.174 511.912C316.331 518.209 315.95 504.836 316.165 501.331C296.604 499.74 290.869 487.437 290.956 469.07C287.194 468.93 275.992 469.762 273.466 467.54C265.514 460.544 284.836 461.206 286.275 461.204C286.216 452.564 286.292 443.926 286.127 435.286C281.536 432.463 275.866 430.976 270.926 428.781C232.943 411.906 205.659 375.041 202.86 333.1C202.679 330.398 202.76 327.822 204.615 325.692Z"/>
	<path fill="#E07A5F" transform="scale(1.6 1.6)" d="M293.423 436.555C307.798 438.718 330.771 436.794 346.232 437.387C346.272 444.823 346.484 452.321 346.227 459.751C328.822 460.706 311.131 460.103 293.692 460.056C293.521 452.222 293.701 444.389 293.423 436.555Z"/>
	<path fill="#3D405B" transform="scale(1.6 1.6)" d="M304.828 220.191C304.602 204.103 304.791 188.01 304.746 171.922C304.728 165.651 303.994 153.657 304.968 148.142C307.738 132.443 330.539 130.873 333.875 146.747C337.142 162.291 334.254 202.156 334.838 220.132C352.498 220.149 370.305 220.631 387.95 220.018C387.759 212.001 388.269 203.854 388.266 195.814C388.261 184.093 383.554 160.804 400.931 160.719C415.395 160.649 413.741 175.99 413.733 186.066C413.726 197.201 413.015 208.806 414.086 219.88C421.852 220.239 429.761 219.527 437.463 220.067C440.151 222.015 442.588 226.727 438.684 228.904C408.33 225.652 371.11 227.51 340.398 227.508L250.468 227.591C244.072 227.591 207.298 226.289 203.6 228.361C199.739 228.656 197.228 224.407 200.526 221.678C203.754 219.007 219.891 220.12 224.702 220.267C225.051 207.948 223.207 180.604 225.464 169.972C227.419 160.767 240.612 157.343 246.814 164.515C252.604 171.21 249.53 209.231 250.197 220.007C268.383 220.575 286.631 219.984 304.828 220.191Z"/>
	<path fill="white" transform="scale(1.6 1.6)" d="M401.768 168.8C408.876 169.933 406.355 184.526 406.356 189.662C406.358 199.721 406.393 209.783 406.257 219.841L400.517 219.94L395.909 219.905C394.792 207.056 395.615 184.739 396.356 171.858C398.049 170.15 399.423 169.379 401.768 168.8Z"/>
	<path fill="white" transform="scale(1.6 1.6)" d="M235.921 168.765C245.501 168.016 242.521 184.319 242.523 190.14C242.526 200.121 242.586 210.108 242.41 220.088L238.972 220.228L232.348 220.244C231.962 214.262 231.472 174.026 232.66 171.175C233.161 169.97 234.833 169.314 235.921 168.765Z"/>
	<path fill="white" transform="scale(1.6 1.6)" d="M318.564 142.825C328.287 142.339 327.434 152.881 327.416 159.391L327.409 175.172C327.406 189.716 328.026 205.643 327.139 220.003L321.237 220.046L312.177 220.017L311.8 165.62C311.788 155.991 308.236 147.506 318.564 142.825Z"/>
	<path fill="#E07A5F" transform="scale(1.6 1.6)" d="M203.6 228.361C207.298 226.289 244.072 227.591 250.468 227.591L340.398 227.508C371.11 227.51 408.33 225.652 438.684 228.904C438.139 229.424 436.691 231.133 436.034 231.144L435.837 230.506L435.519 230.774C435.23 235.849 435.504 241.013 435.344 246.112C424.021 245.707 411.386 254.464 430.951 255.351L430.997 297.729C431.015 326.197 431.96 350.847 416.903 375.935C413.437 381.71 408.635 387.124 406.965 393.744C401.561 401.838 394.285 411.614 384.78 415.013C379.159 414.928 369.026 425.235 368.29 419.315C364.925 419.506 354.711 426.873 349.849 428.263C346.484 429.225 294.63 429.607 290.898 428.779C286.32 427.764 281.55 425.039 277.204 423.198C240.924 407.831 216.242 376.486 210.775 337.63C210.061 332.556 210.993 326.549 204.615 325.692C204.906 320.271 204.386 314.518 204.381 309.059L204.33 265.097C204.327 262.21 204.11 259.331 204.135 256.444C214.12 254.61 211.513 248.772 204.268 245.49C205.789 243.024 203.99 231.696 203.6 228.361Z"/>
	<path fill="#3D405B" transform="scale(1.6 1.6)" d="M333.234 274.065C345.883 273.643 335.831 294.417 334.554 300.251L334.432 300.818C337.796 302.844 344.669 307.787 342.441 312.618C338.179 321.858 326.331 335.245 319.831 344.003C316.316 348.738 312.569 357.39 306.724 359.426C291.364 359.75 305.628 330.781 308.028 324.211C290.773 321.751 306.519 306.106 310.888 300.576C315.585 294.629 328.145 277.673 333.234 274.065Z"/>
</svg>
