<?xml version="1.0" encoding="utf-8" ?>
<svg xmlns="http://www.w3.org/2000/svg" xmlns:xlink="http://www.w3.org/1999/xlink" width="1023" height="1024">
	<path fill="#3D405B" transform="scale(1.6 1.6)" d="M495.819 315.645C504.2 315.431 501.683 328.012 501.561 333.462C501.461 337.897 501.45 341.126 496.171 341.176L495.832 340.976C490.835 338.077 492.02 320.62 493.088 317.866C493.574 316.613 494.694 316.192 495.819 315.645Z"/>
	<path fill="#3D405B" transform="scale(1.6 1.6)" d="M495.345 380.731C505.615 377.857 501.44 395.518 501.506 402.279C501.564 408.167 505.336 420.79 495.252 418.665C490.886 414.473 491.486 388.048 495.345 380.731Z"/>
	<path fill="#3D405B" transform="scale(1.6 1.6)" d="M494.651 459.759C496.982 459.242 500.785 459.466 501.364 462.411C502.044 465.873 501.86 493.472 501.117 496.995C500.339 498.009 499.613 499.025 498.642 499.864C496.821 499.217 494.41 498.591 493.657 496.608C491.771 491.644 491.769 466.9 494.651 459.759Z"/>
	<path fill="#3D405B" transform="scale(1.6 1.6)" d="M468.596 531.611C476.316 532.227 484.19 531.915 491.938 531.912L528.835 531.943C532.493 531.941 539.932 530.659 543.14 532.26C546.43 533.904 545.851 539.261 542.159 539.881C537.276 540.701 531.758 540.214 526.799 540.211L112.263 540.204C108.231 540.205 99.5633 541.482 96.1954 538.772C93.422 536.541 95.4017 531.957 98.693 531.77C104.831 531.42 111.279 531.906 117.446 531.906L159.773 531.913C168.75 531.913 177.769 532.132 186.732 531.597C192.808 532.369 199.073 531.983 205.187 531.925L450.081 531.914C456.184 531.915 462.525 532.232 468.596 531.611Z"/>
	<path fill="#F4F1DE" transform="scale(1.6 1.6)" d="M152.628 153.663C156.22 152.909 158.209 148.39 160.594 145.89C212.051 91.9428 282.415 69.4242 356.122 80.386C374.624 83.1375 423.802 95.5416 431.653 112.745C436.397 105.864 446.331 115.079 448.348 121.546C449.077 124.77 455.199 127.932 457.683 130.155C460.619 132.782 480.803 150.364 473.333 152.597L473.446 153.133L473.18 152.644L472.142 153.179L472.634 153.423L472.197 153.496C479.646 154.728 492.717 152.536 497.566 153.785C494.629 154.068 491.575 153.89 488.624 153.875L419.729 153.851C414.156 153.853 396.758 151.263 394.812 156.954C394.743 157.695 394.845 158.628 394.344 159.182C389.516 159.659 371.364 158.703 369.05 159.419C365.153 164.322 356.803 162.286 351.252 162.249L290.107 162.237C285.789 162.237 269.095 163.702 266.138 160.679C265.824 159.795 265.471 158.943 265.093 158.084C261.818 159.409 258.501 158.715 255.311 159.684C252.337 159.736 235.298 159.658 233.742 158.744L233.632 157.274C230.702 151.103 212.777 153.839 206.126 153.84C188.307 153.842 170.44 154.132 152.628 153.663Z"/>
	<path fill="#3D405B" transform="scale(1.6 1.6)" d="M265.093 158.084C267.534 151.109 274.948 153.833 281.215 153.845L348.819 153.847C352.793 153.845 370.901 151.595 369.05 159.419C365.153 164.322 356.803 162.286 351.252 162.249L290.107 162.237C285.789 162.237 269.095 163.702 266.138 160.679C265.824 159.795 265.471 158.943 265.093 158.084Z"/>
	<path fill="#E07A5F" transform="scale(1.6 1.6)" d="M152.628 153.663C170.44 154.132 188.307 153.842 206.126 153.84C212.777 153.839 230.702 151.103 233.632 157.274L233.742 158.744C235.298 159.658 252.337 159.736 255.311 159.684C258.501 158.715 261.818 159.409 265.093 158.084C265.471 158.943 265.824 159.795 266.138 160.679C269.095 163.702 285.789 162.237 290.107 162.237L351.252 162.249C356.803 162.286 365.153 164.322 369.05 159.419C371.364 158.703 389.516 159.659 394.344 159.182C394.845 158.628 394.743 157.695 394.812 156.954C396.758 151.263 414.156 153.853 419.729 153.851L488.624 153.875C491.575 153.89 494.629 154.068 497.566 153.785C503.797 154.873 506.542 171.665 508.196 176.987C512.137 189.671 516.368 202.487 521.702 214.658C529.795 233.125 538.065 252.504 533.098 273.62C529.566 288.631 512.104 299.612 497.118 298.259C484.754 292.013 484.954 295.38 474.516 282.904C461.384 301.768 433.118 299.052 424.389 279.999C412.592 301.201 382.729 301.892 372.898 279.883C360.769 300.823 330.071 301.491 320.611 280.281C310.644 300.802 278.576 300.639 268.15 280.737C255.116 302.974 231.674 299.517 217.086 280.677C205.04 300.344 178.981 300.615 166.745 281.398C161.269 290.294 153.646 295.209 143.831 298.303C134.355 299.428 125.593 296.146 118.439 289.982C104.2 277.714 104.972 255.207 109.268 238.474C111.921 228.139 117.554 218.8 121.563 208.955C125.205 200.011 136.099 159.901 140.176 155.594C142.981 152.633 148.912 153.852 152.628 153.663Z"/>
	<path fill="#E0B79B" transform="scale(1.6 1.6)" d="M265.093 158.084C265.471 158.943 265.824 159.795 266.138 160.679C263.181 160.476 257.771 161.203 255.311 159.684C258.501 158.715 261.818 159.409 265.093 158.084Z"/>
	<path fill="#3D405B" transform="scale(1.6 1.6)" d="M152.628 153.663C170.44 154.132 188.307 153.842 206.126 153.84C212.777 153.839 230.702 151.103 233.632 157.274C233.089 164.262 224.23 162.235 219.196 162.237L145.375 162.278C140.396 176.708 136.54 191.492 131.074 205.775C121.805 229.996 114.804 235.948 114.984 263.086C115.138 286.211 140.179 299.873 157.256 281.046C165.968 271.442 158.592 261.038 163.496 256.545C170.091 250.503 169.985 270.226 170.214 271.11C173.91 285.415 191.693 294.015 204.345 282.886C218.003 270.872 211.358 228.182 217.985 222.385C222.055 220.973 224.202 222.548 223.744 226.7C222.401 238.856 218.437 260.927 222.008 272.232C225.249 282.493 236.427 291.239 247.398 287.616C262.031 282.785 263.246 272.781 264.276 259.832L265.622 242.957C265.914 239.514 265.914 230.623 270.264 229.425C276.525 229.858 272.317 259.048 272.59 265.881C273.614 291.456 306.863 297.229 314.84 272.593C317.883 263.197 312.829 221.969 320.135 222.631C331.83 223.69 309.416 286.873 345.16 288.552C354.513 288.992 365.591 279.949 368.099 271.035C370.188 263.61 360.615 227.955 370.412 230.893C378.972 233.46 367.05 278.732 392.245 287.465C405.19 291.952 415.654 282.702 419.686 270.861C418.227 264.728 417.69 257.8 416.709 251.508C416.03 247.146 410.176 222.97 414.662 222.447C421.802 221.615 420.81 229.701 421.615 234.477C423.886 247.955 425.74 273.987 436.837 283.1C444.652 289.518 454.275 289.822 462.34 283.764C474.841 274.373 470.338 259.619 474.174 255.442C474.543 255.039 474.705 255.167 475.2 255.165C485.225 260.683 471.545 277.901 493.003 288.261C504.653 293.885 518.801 285.74 523.81 274.771C526.502 268.875 525.622 245.879 524 239.152C522.289 232.06 518.609 225.459 515.52 218.895C506.947 200.672 502.332 181.276 495.344 162.487C486.579 161.906 477.649 162.223 468.864 162.222L425.031 162.231C416.908 162.24 404.45 163.136 396.789 161.322C395.292 159.95 394.862 159.039 394.812 156.954C396.758 151.263 414.156 153.853 419.729 153.851L488.624 153.875C491.575 153.89 494.629 154.068 497.566 153.785C503.797 154.873 506.542 171.665 508.196 176.987C512.137 189.671 516.368 202.487 521.702 214.658C529.795 233.125 538.065 252.504 533.098 273.62C529.566 288.631 512.104 299.612 497.118 298.259C484.754 292.013 484.954 295.38 474.516 282.904C461.384 301.768 433.118 299.052 424.389 279.999C412.592 301.201 382.729 301.892 372.898 279.883C360.769 300.823 330.071 301.491 320.611 280.281C310.644 300.802 278.576 300.639 268.15 280.737C255.116 302.974 231.674 299.517 217.086 280.677C205.04 300.344 178.981 300.615 166.745 281.398C161.269 290.294 153.646 295.209 143.831 298.303C134.355 299.428 125.593 296.146 118.439 289.982C104.2 277.714 104.972 255.207 109.268 238.474C111.921 228.139 117.554 218.8 121.563 208.955C125.205 200.011 136.099 159.901 140.176 155.594C142.981 152.633 148.912 153.852 152.628 153.663Z"/>
	<path fill="#F4F1DE" transform="scale(1.6 1.6)" d="M372.898 279.883C382.729 301.892 412.592 301.201 424.389 279.999C433.118 299.052 461.384 301.768 474.516 282.904C484.954 295.38 484.754 292.013 497.118 298.259C496.902 306.687 497.672 306.78 495.506 315.319L495.819 315.645C494.694 316.192 493.574 316.613 493.088 317.866C492.02 320.62 490.835 338.077 495.832 340.976L496.171 341.176C496.114 341.286 494.562 373.982 495.345 380.731C491.486 388.048 490.886 414.473 495.252 418.665C495.161 419.262 495.267 419.574 495.42 420.136C498.345 430.886 494.882 448.281 494.651 459.759C491.769 466.9 491.771 491.644 493.657 496.608C494.41 498.591 496.821 499.217 498.642 499.864C496.746 518.18 485.981 517.137 470.558 525.985C468.014 527.444 465.97 529.885 463.541 531.556C465.234 531.499 466.911 531.393 468.596 531.611C462.525 532.232 456.184 531.915 450.081 531.914L205.187 531.925C199.073 531.983 192.808 532.369 186.732 531.597C188.095 531.395 189.485 531.469 190.861 531.481C189.899 530.876 172.678 530.93 169.802 530.937C160.782 517.016 146.042 525.839 141.797 501.976C136.764 498.548 138.149 466.351 139.491 463.279C140.179 461.704 141.548 461.038 143.053 460.413C144.333 459.69 143.511 422.71 142.702 419.293L141.534 419.012C136.296 415.013 138.297 380.014 139.305 377.744C140.147 375.848 141.406 375.088 143.306 374.443C144.085 371.871 144.355 340.809 141.864 339.889C136.733 337.458 138.46 316.429 138.825 310.885C140.165 309.099 140.76 308.673 142.984 308.348L142.977 308.252L142.571 308.137C142.669 307.825 142.77 307.514 142.886 307.208L143.014 306.874C142.659 305.441 141.565 304.682 140.511 303.731C141.572 302.076 142.764 300.53 143.99 298.995L143.831 298.303C153.646 295.209 161.269 290.294 166.745 281.398C178.981 300.615 205.04 300.344 217.086 280.677C231.674 299.517 255.116 302.974 268.15 280.737C278.576 300.639 310.644 300.802 320.611 280.281C330.071 301.491 360.769 300.823 372.898 279.883Z"/>
	<path fill="#3D405B" transform="scale(1.6 1.6)" d="M142.984 308.348C144.86 309.073 145.881 309.887 147.1 311.473C148.031 318.632 150.951 338.449 141.864 339.889C136.733 337.458 138.46 316.429 138.825 310.885C140.165 309.099 140.76 308.673 142.984 308.348Z"/>
	<path fill="#3D405B" transform="scale(1.6 1.6)" d="M143.053 460.413C144.669 461.023 146.336 461.706 147.027 463.439C147.863 465.533 147.8 496.891 146.929 499.009C146.065 501.11 143.857 501.794 141.797 501.976C136.764 498.548 138.149 466.351 139.491 463.279C140.179 461.704 141.548 461.038 143.053 460.413Z"/>
	<path fill="#3D405B" transform="scale(1.6 1.6)" d="M143.306 374.443C149.517 378.855 146.934 386.428 146.861 393.116C146.78 400.427 149.887 417.388 141.534 419.012C136.296 415.013 138.297 380.014 139.305 377.744C140.147 375.848 141.406 375.088 143.306 374.443Z"/>
	<path fill="#3D405B" transform="scale(1.6 1.6)" d="M260.297 474.774C265.154 474.519 270.114 474.728 274.982 474.729L350.929 474.753C356.17 474.754 375.886 474.003 379.649 475.302C383.631 476.677 382.829 482.121 379.149 483.338L310.175 483.164C294.498 483.164 278.622 483.68 262.967 483.069C253.685 482.707 256.045 476.023 260.297 474.774Z"/>
	<path fill="#3D405B" transform="scale(1.6 1.6)" d="M306.566 349.196C321.033 348.532 376.494 349.196 381.674 355.412C383.952 358.146 382.675 367.379 382.607 370.985C417.469 375.825 407.178 441.057 364.857 445.916C361.761 451.478 358.09 456.023 353.256 460.166C337.53 472.753 315.893 473.942 299.054 462.171C279.17 448.272 271.759 417.975 267.858 395.292C259.627 347.424 261.262 352.133 306.566 349.196Z"/>
	<path fill="#F4F1DE" transform="scale(1.6 1.6)" d="M382.873 379.945C396.125 381.206 396.046 396.427 394.344 406.565C392.481 417.667 386.263 425.734 377.226 432.198C374.598 433.807 371.939 435.357 369.276 436.907C377.76 417.746 379.027 399.757 382.873 379.945Z"/>
	<path fill="#E07A5F" transform="scale(1.6 1.6)" d="M304.357 357.638C325.69 356.243 354.85 357.409 375.591 359.837C374.834 365.454 374.99 371.354 374.558 377.024C372.396 405.351 365.584 442.426 340.598 458.746C327.567 466.294 310.041 461.886 299.534 451.936C277.9 431.448 273.273 389.594 272.502 360.449C283.071 358.755 293.665 358.084 304.357 357.638Z"/>
</svg>
