<?xml version="1.0" encoding="utf-8" ?>
<svg xmlns="http://www.w3.org/2000/svg" xmlns:xlink="http://www.w3.org/1999/xlink" width="1024" height="1024">
	<path fill="#3D405B" transform="scale(1.6 1.6)" d="M528.867 446.228C533.984 449.271 540.98 472.686 539.124 475.935C532.72 487.146 526.639 456.452 526.324 454.068C526.562 451.546 526.453 447.742 528.867 446.228Z"/>
	<path fill="#3D405B" transform="scale(1.6 1.6)" d="M110.396 444.705C112.266 447.54 115.989 449.7 115.236 453.586C113.334 458.054 110.361 475.9 105.781 477.503C96.9551 480.594 102.546 467.546 103.081 465.606C105.116 458.228 105.65 450.968 110.396 444.705Z"/>
	<path fill="#F4F1DE" transform="scale(1.6 1.6)" d="M108.427 206.44L108.7 205.626C111.405 197.317 123.573 184.767 129.611 178.113C166.007 138.009 212.972 108.23 265.866 95.7168C344.602 77.0895 425.371 98.7421 485.013 152.957C493.814 160.958 529.625 194.757 530.172 206.235C537.036 206.513 542.79 209.417 547.452 214.421C570.059 238.681 558.898 273.137 551.377 301.14C542.245 335.138 532.652 369.241 532.26 404.723C532.176 412.33 533.354 430.013 532.094 436.691C531.242 437.915 530.424 439.187 529.013 439.802C528.079 441.475 528.36 444.079 528.532 445.943L528.867 446.228C526.453 447.742 526.562 451.546 526.324 454.068C520.579 454.598 514.554 454.895 508.79 454.618L508.261 454.651C501.448 455.202 507.825 455.879 507.123 459.53C485.013 493.912 445.304 518.642 407.483 533.094C328.656 563.213 244.775 552.226 175.688 502.871C165.29 495.443 132.614 468.046 130.37 454.559C125.252 454.897 120.283 454.402 115.236 453.586C115.989 449.7 112.266 447.54 110.396 444.705C111.241 442.222 111.118 439.92 109.734 437.643C106.547 434.578 108.517 418.665 108.521 414.039C108.549 379.295 101.72 345.966 92.6797 312.514C85.2901 285.168 70.5095 246.725 88.1003 220.798C93.1865 213.301 99.4102 208.173 108.427 206.44Z"/>
	<path fill="#3D405B" transform="scale(1.6 1.6)" d="M287.799 455.679C294.781 455.532 301.902 455.931 308.905 455.933L337.472 455.931C341.383 455.932 349.436 455.369 352.816 456.341C356.866 457.505 355.813 462.713 352.473 464.068C335.392 463.474 318.169 463.877 301.073 463.907C297.18 463.914 281.626 466.894 284.931 458.149C285.434 456.82 286.618 456.278 287.799 455.679Z"/>
	<path fill="#3D405B" transform="scale(1.6 1.6)" d="M477.989 337.115C474.226 329.713 477.42 320.899 478.24 313.087C479.145 304.458 480.817 258.076 488.875 260.952C489.969 261.806 490.737 262.635 491.542 263.765C491.982 272.263 489.174 283.077 488.14 291.741C486.843 302.609 486.796 327.221 480.827 335.947L477.989 337.115Z"/>
	<path fill="#3D405B" transform="scale(1.6 1.6)" d="M327.102 341.336C328.697 341.199 333.42 340.395 333.779 342.662C334.741 348.737 333.473 366.687 333.467 374.009L333.465 419.96C333.47 425.514 334.847 439.453 331.931 443.538C323.172 446.027 325.71 428.081 325.711 423.499L325.697 364.791C325.696 361.07 324.499 343.691 327.102 341.336Z"/>
	<path fill="#3D405B" transform="scale(1.6 1.6)" d="M308.506 340.359C310.176 340.258 313.384 340.147 314.272 341.925C315.322 344.027 315.051 439.836 314.506 441.208C314.154 442.092 313.462 442.391 312.678 442.799C307.185 443.267 306.722 441.52 306.597 436.571C306.379 427.868 306.574 419.114 306.578 410.407L306.595 360.852C306.596 355.209 304.021 342.618 308.506 340.359Z"/>
	<path fill="#3D405B" transform="scale(1.6 1.6)" d="M437.314 319.75C443.258 319.346 446.822 323.521 442.91 327.715C439.733 331.121 432.859 329.78 428.749 329.758L342.787 329.765C340.577 329.746 338.752 329.594 336.648 328.852C336.326 326.327 336.331 324.173 336.688 321.668C343.756 320.892 350.78 321.547 357.862 321.547C379.042 321.546 399.748 322.227 420.793 322.415C430.287 322.5 429.028 322.896 437.314 319.75Z"/>
	<path fill="#3D405B" transform="scale(1.6 1.6)" d="M201.238 319.982C204.793 319.978 208.214 321.502 211.863 321.537L293.973 321.539C297.135 321.539 325.097 320.379 325.193 320.417C328.713 321.782 329.506 327.789 325.713 329.331C321.697 330.416 315.878 329.792 311.696 329.78L243.471 329.754C231.432 329.758 219.372 329.881 207.34 329.369C199.66 329.042 193.038 324.369 201.238 319.982Z"/>
	<path fill="#3D405B" transform="scale(1.6 1.6)" d="M429.347 454.736C430.025 460.851 430.116 483.447 428.716 490.054C427.946 493.686 422.158 494.605 421.323 490.61C420.755 487.897 421.521 484.626 421.537 481.844C421.718 451.165 421.693 437.923 410.471 407.811C408.301 401.987 407.648 398.946 403.279 394.476C394.423 385.416 391.035 372.867 396.869 361.018C405.904 342.672 422.526 343.35 439.393 343.377C445.828 343.388 454.235 342.13 460.185 345.072C459.557 347.121 458.825 349.181 458.603 351.322C441.781 353.76 418.149 344.708 406.257 360.789C403.139 365.004 401.013 371.009 401.755 376.252C404.714 397.162 431.571 396.375 433.494 400.931C434.215 410.768 421.009 404.12 416.837 402.399C423.585 419.724 426.581 436.604 429.347 454.736Z"/>
	<path fill="#3D405B" transform="scale(1.6 1.6)" d="M178.882 345.527C183.176 341.922 210.021 342.949 216.894 343.576C233.405 345.082 248.177 359.315 246.477 376.581C245.333 388.211 237.258 391.42 233.004 399.869C220.238 425.22 219.022 449.321 219.057 476.766C219.061 479.551 220.267 490.42 217.848 492.228C207.248 500.152 210.786 457.672 210.975 453.782C214.296 434.308 216.469 422.055 223.891 402.683C219.741 404.848 205.233 410.626 207.555 400.051C209.53 397.692 219.051 396.413 222.597 394.698C234.534 388.927 242.775 377.037 236.377 364.162C230.324 351.982 218.4 351.196 206.332 351.206L191.468 351.24C187.252 351.242 183.05 351.411 179.024 349.94C179.019 348.468 178.943 346.997 178.882 345.527Z"/>
	<path fill="#3D405B" transform="scale(1.6 1.6)" d="M315.909 203.047C315.97 201.208 313.492 177.773 321.814 187.229C325.212 191.089 323.55 198.475 323.347 203.325C338.589 207.644 337.747 224.437 323.526 230.897C351.227 234.469 376.594 271.296 358.972 274.885C359.808 277.303 360.564 279.666 360.891 282.213C371.374 279.641 369.802 291.094 369.301 297.951C375.755 298.342 414.484 297.278 415.262 300.746C417.591 311.113 394.057 307.403 387.592 307.395L269.607 307.396C261.603 307.397 226.576 311.503 226.191 302.487C225.918 296.109 265.754 298.58 271.574 298.789C270.142 291.054 265.966 280.274 276.655 278.06C274.791 249.619 291.576 237.528 317.035 229.489C301.779 223.243 303.213 210.614 315.909 203.047Z"/>
	<path fill="#FEFD4C" transform="scale(1.6 1.6)" d="M319.001 211.309C328.004 210.646 329.593 219.501 321.136 221.564C311.869 221.791 311.652 214.494 319.001 211.309Z"/>
	<path fill="#BC6C25" transform="scale(1.6 1.6)" d="M285.997 282.243C310.868 282.591 335.732 282.432 360.601 282.308C359.931 287.261 360.081 292.599 359.98 297.614C350.521 297.915 340.95 297.616 331.479 297.615L278.872 297.558C278.607 293.358 278.41 289.199 278.444 284.989C280.534 284.914 282.329 285.116 284.331 285.683L285.997 282.243Z"/>
	<path fill="#FEFD4C" transform="scale(1.6 1.6)" d="M285.997 282.243C283.908 277.389 283.981 268.67 285.703 263.656C296.541 232.106 340.852 230.992 354.867 264C356.384 267.574 357.212 271.408 358.972 274.885C359.808 277.303 360.564 279.666 360.891 282.213L360.601 282.308C335.732 282.432 310.868 282.591 285.997 282.243Z"/>
	<path fill="#BC6C25" transform="scale(1.6 1.6)" d="M530.172 206.235C537.036 206.513 542.79 209.417 547.452 214.421C570.059 238.681 558.898 273.137 551.377 301.14C542.245 335.138 532.652 369.241 532.26 404.723C532.176 412.33 533.354 430.013 532.094 436.691C531.242 437.915 530.424 439.187 529.013 439.802C528.079 441.475 528.36 444.079 528.532 445.943L528.867 446.228C526.453 447.742 526.562 451.546 526.324 454.068C520.579 454.598 514.554 454.895 508.79 454.618L508.261 454.651C503.931 453.704 498.735 454.099 494.29 454.094L448.281 454.087C442.037 454.091 435.529 453.767 429.347 454.736C426.581 436.604 423.585 419.724 416.837 402.399C421.009 404.12 434.215 410.768 433.494 400.931C431.571 396.375 404.714 397.162 401.755 376.252C401.013 371.009 403.139 365.004 406.257 360.789C418.149 344.708 441.781 353.76 458.603 351.322C458.825 349.181 459.557 347.121 460.185 345.072C462.016 346.5 463.874 346.575 466.095 346.677L466.26 346.547C467.135 345.894 468.285 345.559 469.298 345.153C472.094 344.015 474.88 342.689 477.384 341C477.67 339.708 478.015 338.446 477.989 337.115L480.827 335.947C486.796 327.221 486.843 302.609 488.14 291.741C489.174 283.077 491.982 272.263 491.542 263.765C490.737 262.635 489.969 261.806 488.875 260.952C490.799 253.975 492.216 245.889 495.83 239.577C493.975 238.744 493.407 237.601 492.488 235.898C495.391 220.327 515.516 207.335 530.172 206.235Z"/>
	<path fill="#6C6989" transform="scale(1.6 1.6)" d="M469.298 345.153C469.413 346.553 469.529 347.9 469.835 349.276C468.605 348.455 467.441 347.444 466.26 346.547C467.135 345.894 468.285 345.559 469.298 345.153Z"/>
	<path fill="#3D405B" transform="scale(1.6 1.6)" d="M477.384 341C482.081 342.497 485.945 348.797 479.928 351.687C477.8 352.709 471.007 352.83 469.835 349.276C469.529 347.9 469.413 346.553 469.298 345.153C472.094 344.015 474.88 342.689 477.384 341Z"/>
	<path fill="#3D405B" transform="scale(1.6 1.6)" d="M530.172 206.235C537.036 206.513 542.79 209.417 547.452 214.421C570.059 238.681 558.898 273.137 551.377 301.14C542.245 335.138 532.652 369.241 532.26 404.723C532.176 412.33 533.354 430.013 532.094 436.691C531.242 437.915 530.424 439.187 529.013 439.802C523.495 435.159 524.87 423.508 524.864 416.88C524.825 376.944 531.004 347.467 541.514 308.561C547.871 285.031 566.277 235.601 539.791 217.243C527.916 209.013 509.286 220.572 502.978 230.914C500.356 235.212 501.366 238.62 495.83 239.577C493.975 238.744 493.407 237.601 492.488 235.898C495.391 220.327 515.516 207.335 530.172 206.235Z"/>
	<path fill="#BC6C25" transform="scale(1.6 1.6)" d="M108.427 206.44C131.255 206.711 143.822 221.883 150.847 242.743C151.99 246.137 153.757 250.596 152.234 254.125C152.256 260.995 156.582 273 155.846 278.863L158.707 280.304C163.151 292.425 163.324 327.486 166.71 343.771C168.259 344.831 169.811 345.786 171.458 346.684C174.584 348.02 175.865 347.592 178.816 345.785L178.882 345.527C178.943 346.997 179.019 348.468 179.024 349.94C183.05 351.411 187.252 351.242 191.468 351.24L206.332 351.206C218.4 351.196 230.324 351.982 236.377 364.162C242.775 377.037 234.534 388.927 222.597 394.698C219.051 396.413 209.53 397.692 207.555 400.051C205.233 410.626 219.741 404.848 223.891 402.683C216.469 422.055 214.296 434.308 210.975 453.782C204.655 453.668 198.344 454.05 192.024 454.084L151.964 454.176C147.116 454.217 134.54 453.464 130.37 454.559C125.252 454.897 120.283 454.402 115.236 453.586C115.989 449.7 112.266 447.54 110.396 444.705C111.241 442.222 111.118 439.92 109.734 437.643C106.547 434.578 108.517 418.665 108.521 414.039C108.549 379.295 101.72 345.966 92.6797 312.514C85.2901 285.168 70.5095 246.725 88.1003 220.798C93.1865 213.301 99.4102 208.173 108.427 206.44Z"/>
	<path fill="#DFBAAA" transform="scale(1.6 1.6)" d="M171.458 346.684C174.584 348.02 175.865 347.592 178.816 345.785C179.405 354.872 175.186 347.679 171.598 348.654L171.458 346.684Z"/>
	<path fill="#3D405B" transform="scale(1.6 1.6)" d="M155.846 278.863L158.707 280.304C163.151 292.425 163.324 327.486 166.71 343.771C168.259 344.831 169.811 345.786 171.458 346.684L171.598 348.654C168.614 351.738 164.085 351.329 160.144 351.226C156.502 332.09 153.531 301.45 152.844 282.328C153.665 280.822 154.368 279.793 155.846 278.863Z"/>
	<path fill="#3D405B" transform="scale(1.6 1.6)" d="M108.427 206.44C131.255 206.711 143.822 221.883 150.847 242.743C151.99 246.137 153.757 250.596 152.234 254.125L151.807 254.287C142.827 257.616 145.267 226.851 120.876 216.117C97.17 205.684 86.6034 234.012 87.2416 253.274C87.7915 269.874 93.6433 287.872 98.0601 303.883C105.685 331.52 112.886 358.998 114.58 387.725C115.093 396.433 115.149 405.158 115.635 413.865C115.959 419.677 118.578 436.652 110.184 437.591L109.734 437.643C106.547 434.578 108.517 418.665 108.521 414.039C108.549 379.295 101.72 345.966 92.6797 312.514C85.2901 285.168 70.5095 246.725 88.1003 220.798C93.1865 213.301 99.4102 208.173 108.427 206.44Z"/>
</svg>
