<?xml version="1.0" encoding="utf-8" ?>
<svg xmlns="http://www.w3.org/2000/svg" xmlns:xlink="http://www.w3.org/1999/xlink" width="1023" height="1023">
	<path fill="#3D405B" transform="scale(1.6 1.6)" d="M121.123 447.366C118.072 448.193 114.388 447.855 112.655 444.866C110.49 441.132 102.332 416.063 114.032 419.722C117.008 422.925 123.9 443.263 121.123 447.366Z"/>
	<path fill="#3D405B" transform="scale(1.6 1.6)" d="M478.989 196.737C488.683 189.734 499.845 209.691 505.28 217.206C508.773 222.037 532.054 259.201 524.847 264.042C522.894 265.354 521.134 265.105 519.169 264.155C514.906 259.264 512.5 248.897 509.454 242.778C500.645 225.082 491.032 214.138 477.503 200.664C477.889 199.332 478.48 198.028 478.989 196.737Z"/>
	<path fill="#3D405B" transform="scale(1.6 1.6)" d="M525.95 421.255C540.617 419.404 526.88 445.017 524.587 451.135C511.23 486.765 501.206 513.641 460.829 524.814C458.248 525.528 452.424 527.492 450.013 525.454L449.575 524.41C448.843 514.69 454.08 517.26 462.613 514.066C491.674 503.187 501.388 485.872 511.727 458.195L519.375 437.528C521.215 432.401 522.659 426.203 525.682 421.655L525.95 421.255Z"/>
	<path fill="#3D405B" transform="scale(1.6 1.6)" d="M125.754 465.359C134.089 463.85 133.792 471.371 137.544 478.668C159.375 521.116 194.166 518.4 234.621 518.386L289.05 518.375C299.123 518.373 319.094 513.646 319.937 524.122C319.674 525.352 319.413 526.928 318.066 527.418C316.133 528.122 200.854 528.33 192.714 527.229C160.166 522.825 132.494 501.54 123.919 468.905C124.416 467.652 124.8 466.342 125.754 465.359Z"/>
	<path fill="#3D405B" transform="scale(1.6 1.6)" d="M296.911 69.7164C311.705 74.742 316.069 84.7856 332.66 72.9449C343.865 64.9485 347.329 73.0546 344.272 77.5295C341.858 81.0636 328.085 85.9149 323.635 86.7809C323.083 104.382 323.385 122.169 323.509 139.782C364.985 139.546 407.633 143.871 445.472 161.923C452.534 165.293 467.697 170.591 454.863 178.805C407.562 151.965 377.792 150.91 323.532 148.785C323.523 152.485 324.599 163.515 322.072 165.893C313.002 174.429 314.583 151.327 314.56 149.504C235.521 149.433 157.767 169.362 128.143 249.426C126.671 253.403 124.768 257.717 123.729 261.799C111.566 265.021 118.479 248.572 120.047 244.318C150.699 161.155 232.356 140.34 314.22 139.828C313.89 122.559 313.864 105.085 314.689 87.8311C307.27 84.9084 299.443 82.3924 292.478 78.4959L291.541 75.571C292.297 71.5742 292.774 70.6991 296.911 69.7164Z"/>
	<path fill="#F4F1DE" transform="scale(1.6 1.6)" d="M116.152 415.899C122.364 419.079 152.083 417.437 160.383 417.438L412.036 417.433C449.478 417.431 486.947 417.077 524.379 417.8L525.413 418.263L524.618 419.186L524.682 419.785C525.212 420.184 525.574 420.42 525.962 420.96L525.879 421.117L525.95 421.255L525.682 421.655C522.659 426.203 521.215 432.401 519.375 437.528L511.727 458.195C501.388 485.872 491.674 503.187 462.613 514.066C454.08 517.26 448.843 514.69 449.575 524.41C446.198 525.842 441.255 524.698 437.661 524.683L336.839 524.712C333.15 524.714 322.579 523.466 319.937 524.122C319.094 513.646 299.123 518.373 289.05 518.375L234.621 518.386C194.166 518.4 159.375 521.116 137.544 478.668C133.792 471.371 134.089 463.85 125.754 465.359C126.408 463.087 121.637 451.199 121.123 447.366C123.9 443.263 117.008 422.925 114.032 419.722C116.965 419.451 116.612 418.509 116.152 415.899Z"/>
	<path fill="#F4F1DE" transform="scale(1.6 1.6)" d="M323.532 148.785C377.792 150.91 407.562 151.965 454.863 178.805C462.913 183.39 474.786 194.643 478.989 196.737C478.48 198.028 477.889 199.332 477.503 200.664C491.032 214.138 500.645 225.082 509.454 242.778C512.5 248.897 514.906 259.264 519.169 264.155C519.623 270.732 520.947 280.129 517.727 286.064L516.956 286.359C507.217 283.901 497.438 283.016 487.408 283.487C485.529 285 484.546 285.985 484.708 288.436C465.418 289.244 445.965 288.727 426.654 288.723L407.485 288.768C404.634 288.787 401.541 289.108 398.719 288.825C397.71 285.638 395.895 285.591 392.852 285.453C385.306 285.111 325.667 284.824 322.876 285.826C321.609 286.281 320.889 287.469 320.338 288.611C314.956 290.496 282.053 289.96 275.339 289.308C275.181 288.297 275.151 287.361 274.422 286.58C272.869 285.664 238.39 281.586 238.357 289.659C236.108 291.009 183.263 287.519 175.841 290.714L174.738 287.469C171.161 286.505 167.497 286.678 163.889 285.992C149.483 283.252 141.119 279.511 125.869 285.544C125.804 283.394 124.29 281.343 124.067 279.083C123.519 273.54 124.204 267.93 123.78 262.412L123.729 261.799C124.768 257.717 126.671 253.403 128.143 249.426C157.767 169.362 235.521 149.433 314.56 149.504C314.583 151.327 313.002 174.429 322.072 165.893C324.599 163.515 323.523 152.485 323.532 148.785Z"/>
	<path fill="#BC6C25" transform="scale(1.6 1.6)" d="M125.869 285.544C141.119 279.511 149.483 283.252 163.889 285.992C167.497 286.678 171.161 286.505 174.738 287.469L175.841 290.714C183.263 287.519 236.108 291.009 238.357 289.659C238.39 281.586 272.869 285.664 274.422 286.58C275.151 287.361 275.181 288.297 275.339 289.308C282.053 289.96 314.956 290.496 320.338 288.611C320.889 287.469 321.609 286.281 322.876 285.826C325.667 284.824 385.306 285.111 392.852 285.453C395.895 285.591 397.71 285.638 398.719 288.825C401.541 289.108 404.634 288.787 407.485 288.768L426.654 288.723C445.965 288.727 465.418 289.244 484.708 288.436C484.546 285.985 485.529 285 487.408 283.487C497.438 283.016 507.217 283.901 516.956 286.359C526.583 289.856 538.753 303.983 543.063 313.095C550.937 329.741 543.216 339.444 530.61 350.242C540.623 361.992 536.872 366.897 528.292 376.003C528.894 382.397 532.405 416.327 524.379 417.8C486.947 417.077 449.478 417.431 412.036 417.433L160.383 417.438C152.083 417.437 122.364 419.079 116.152 415.899C111.358 406.476 111.921 386.702 113.961 376.198C102.726 370.729 102.727 360.435 109.666 351.26C74.6203 337.199 103.455 295.1 125.869 285.544Z"/>
	<path fill="#3D405B" transform="scale(1.6 1.6)" d="M238.357 289.659C238.39 281.586 272.869 285.664 274.422 286.58C275.151 287.361 275.181 288.297 275.339 289.308C274.315 293.479 273.656 294.243 269.31 294.491C263.751 294.809 244.767 294.818 240.615 293.834C239.783 292.563 239.22 290.79 238.357 289.659Z"/>
	<path fill="#3D405B" transform="scale(1.6 1.6)" d="M320.338 288.611C320.889 287.469 321.609 286.281 322.876 285.826C325.667 284.824 385.306 285.111 392.852 285.453C395.895 285.591 397.71 285.638 398.719 288.825C398.397 290.366 397.921 291.731 397.337 293.182C391.725 295.175 323.244 294.576 322.131 293.699C320.881 292.715 320.652 290.099 320.338 288.611Z"/>
	<path fill="#3D405B" transform="scale(1.6 1.6)" d="M125.869 285.544C141.119 279.511 149.483 283.252 163.889 285.992C167.497 286.678 171.161 286.505 174.738 287.469L175.841 290.714C173.581 301.201 166.653 296.384 159.72 294.39C134.294 287.078 110.931 299.066 104.194 325.017C101.556 335.178 104.553 341.173 115.198 342.985C120.061 341.363 123.925 337.937 128.456 335.668C165.694 317.019 179.816 358.035 217.964 344.446C224.057 342.276 234.095 336.27 238.726 335.178C242.437 334.304 245.696 338.623 243.865 341.92C239.391 349.974 210.857 356.811 199.772 359.186L200.366 359.491C200.33 361.893 201.373 362.808 203.037 364.377L204.047 365.319C201.902 366.416 200.105 367.587 198.445 369.357L197.291 369.685C215.226 370.046 224.921 382.892 238.859 382.818C256.244 382.725 270.163 370.001 287.814 368.144C300.395 366.82 310.761 374.779 322.324 374.94C332.185 375.078 343.073 368.045 354.217 367.364C370.79 366.352 380.005 374.967 394.265 375.58C404.537 376.021 416.831 369.787 433.228 370.618C428.142 369.304 435.507 359.911 436.944 357.546C431.599 357.426 403.32 351.245 401.351 345.488C401.67 332.862 415.532 342.092 421.98 343.825C457.753 353.439 469.981 309.246 523.074 344.095C539.391 333.229 540.337 320.468 527.568 305.744C517.125 293.701 501.915 293.081 487.128 292.093C486.135 290.92 485.4 289.809 484.708 288.436C484.546 285.985 485.529 285 487.408 283.487C497.438 283.016 507.217 283.901 516.956 286.359C526.583 289.856 538.753 303.983 543.063 313.095C550.937 329.741 543.216 339.444 530.61 350.242C540.623 361.992 536.872 366.897 528.292 376.003C517.688 384.864 500.939 382.712 488.088 382.732C475.75 382.751 463.345 382.924 451.027 382.156C441.621 381.569 431.837 379.851 422.442 380.266C412.372 380.712 402.14 387.009 392.494 385.625C381.682 384.073 371.507 378.282 360.648 377.469C346.628 376.42 335.693 385.736 322.93 385.893C310.665 386.045 300.161 376.25 285.734 378.442C270.219 380.799 257.723 392.159 241.567 392.367C224.663 392.585 218.004 382.589 203.645 380.585C195.98 379.516 187.756 381.139 180.072 381.77C162.708 383.198 128.634 384.794 113.961 376.198C102.726 370.729 102.727 360.435 109.666 351.26C74.6203 337.199 103.455 295.1 125.869 285.544Z"/>
	<path fill="#FCD420" transform="scale(1.6 1.6)" d="M113.896 364.68C117.087 355.893 123.641 349.399 132.005 345.267C161.021 330.932 187.405 362.01 199.772 359.186L200.366 359.491C200.33 361.893 201.373 362.808 203.037 364.377L204.047 365.319C201.902 366.416 200.105 367.587 198.445 369.357L197.291 369.685C176.325 369.841 127.915 379.65 113.896 364.68Z"/>
	<path fill="#FCD420" transform="scale(1.6 1.6)" d="M436.944 357.546C460.341 349.232 481.147 332.911 506.688 345.035C515.028 348.994 524.767 355.173 527.708 364.447C518.344 375.121 494.432 372.571 481.334 372.562C465.374 372.551 449.086 372.601 433.228 370.618C428.142 369.304 435.507 359.911 436.944 357.546Z"/>
	<path fill="#BC6C25" transform="scale(1.6 1.6)" d="M528.292 376.003C528.894 382.397 532.405 416.327 524.379 417.8C486.947 417.077 449.478 417.431 412.036 417.433L160.383 417.438C152.083 417.437 122.364 419.079 116.152 415.899C111.358 406.476 111.921 386.702 113.961 376.198C128.634 384.794 162.708 383.198 180.072 381.77C187.756 381.139 195.98 379.516 203.645 380.585C218.004 382.589 224.663 392.585 241.567 392.367C257.723 392.159 270.219 380.799 285.734 378.442C300.161 376.25 310.665 386.045 322.93 385.893C335.693 385.736 346.628 376.42 360.648 377.469C371.507 378.282 381.682 384.073 392.494 385.625C402.14 387.009 412.372 380.712 422.442 380.266C431.837 379.851 441.621 381.569 451.027 382.156C463.345 382.924 475.75 382.751 488.088 382.732C500.939 382.712 517.688 384.864 528.292 376.003Z"/>
</svg>
