<?xml version="1.0" encoding="utf-8" ?>
<svg xmlns="http://www.w3.org/2000/svg" xmlns:xlink="http://www.w3.org/1999/xlink" width="1024" height="1024">
	<path fill="#3D405B" transform="scale(1.6 1.6)" d="M540.653 319.238C553.177 315.915 547.95 342.999 546.715 344.599C545.054 346.75 541.9 346.544 539.738 345.393C535.009 340.525 536.325 323.728 540.653 319.238Z"/>
	<path fill="#3D405B" transform="scale(1.6 1.6)" d="M115.235 403.198C121.782 403.027 126.044 422.944 126.48 427.579C126.797 430.954 123.874 432.307 120.969 432.529C115.207 430.439 100.952 405.541 115.235 403.198Z"/>
	<path fill="#3D405B" transform="scale(1.6 1.6)" d="M506.11 226.232C510.234 208.178 528.665 241.35 526.818 246.682C525.922 249.266 522.252 249.969 519.928 250.539C515.635 249.939 506.487 229.722 506.11 226.232Z"/>
	<path fill="#3D405B" transform="scale(1.6 1.6)" d="M529.118 272.796C541.179 265.509 542.793 297.088 542.441 302.564C541.168 304.091 540.331 304.914 538.457 305.57C535.905 305.165 532.992 304.609 532.096 301.853C530.388 296.599 525.1 277.55 529.118 272.796Z"/>
	<path fill="#3D405B" transform="scale(1.6 1.6)" d="M336.634 112.072C322.62 94.8304 372.835 104.696 375.717 108.563C376.444 109.537 376.817 110.904 377.151 112.063C376.527 114.821 376.042 117.039 373.103 117.867C365.587 116.618 341.476 114.201 336.634 112.072Z"/>
	<path fill="#3D405B" transform="scale(1.6 1.6)" d="M166.564 167.645C161.706 169.482 156.422 164.297 159.716 159.7C163.617 154.256 193.456 129.88 199.751 129.082C203.807 128.569 204.934 134.253 205.209 137.146C203.591 138.703 201.571 139.879 199.699 141.107C191.01 145.99 174.309 159.893 166.564 167.645Z"/>
	<path fill="#3D405B" transform="scale(1.6 1.6)" d="M243.376 122.491C226.023 108.241 284.191 102.126 289.17 102.295C294.777 102.486 296.425 108.354 293.44 112.426C284.02 115.336 270.284 115.946 259.345 118.822C254.096 120.202 248.845 122.39 243.376 122.491Z"/>
	<path fill="#3D405B" transform="scale(1.6 1.6)" d="M346.263 530.965C348.536 523.886 366.048 523.645 373.319 521.88C380.332 520.178 388.05 516.672 395.052 515.821C397.723 515.497 398.778 517.411 400.698 518.762C402.64 522.787 401.911 524.877 397.827 526.621C388.683 530.523 359.092 537.225 349.646 536.497C347.552 534.872 346.284 533.678 346.263 530.965Z"/>
	<path fill="#3D405B" transform="scale(1.6 1.6)" d="M106.624 337.703C94.6601 347.823 95.4792 326.269 95.4737 320.881C95.4673 314.555 95.9023 248.041 111.526 261.888C114.556 267.821 110.585 275.193 109.571 281.306C107.25 295.286 106.108 309.377 106.676 323.543C106.848 327.828 106.382 334.412 106.624 337.703Z"/>
	<path fill="#F4F1DE" transform="scale(1.6 1.6)" d="M293.44 112.426C296.001 113.44 320.125 111.741 325.372 111.633C329.105 111.557 332.975 112.327 336.634 112.072C341.476 114.201 365.587 116.618 373.103 117.867C381.814 122.98 391.808 125.438 399.638 132.273C403.517 132.076 405.263 133.455 406.472 137.064C406.734 140.649 406.841 140.25 410.268 140.88C433.118 143.294 466.796 178.507 482.236 197.612C490.134 207.384 497.105 218.301 505.792 227.366L506.11 226.232C506.487 229.722 515.635 249.939 519.928 250.539L518.298 250.622L518.026 250.946C518.825 254.054 526.87 271.679 529.118 272.796C525.1 277.55 530.388 296.599 532.096 301.853C532.992 304.609 535.905 305.165 538.457 305.57C541.01 309.412 541.243 314.333 540.439 318.777L540.653 319.238C536.325 323.728 535.009 340.525 539.738 345.393C538.81 347.185 539.644 349.97 539.565 351.946C539.145 362.411 536.296 373.259 533.66 383.365C520.005 435.699 486.844 475.532 440.553 501.994C436.046 504.57 406.899 520.32 403.2 519.194C402.186 518.885 401.836 518.514 400.698 518.762C398.778 517.411 397.723 515.497 395.052 515.821C388.05 516.672 380.332 520.178 373.319 521.88C366.048 523.645 348.536 523.886 346.263 530.965C341.921 533.112 315.221 532.528 309.873 531.567L309.899 531.705L309.384 531.8L309.307 531.913C308.902 533.312 308.15 535.146 306.788 535.881C303.733 537.532 265.763 534.931 261.11 526.22C248.126 522.994 236.047 519.473 223.719 513.985C216.36 518.477 180.902 492.872 176.635 487.564C175.078 485.628 175.06 484.065 175.35 481.686C168.122 471.872 155.628 463.042 147.068 451.472C139.955 441.858 139.442 434.992 134.958 424.928C132.938 420.393 130.038 416.253 127.876 411.783C117.821 390.991 110.817 369.728 107.651 346.726C107.238 343.724 107.442 340.645 106.624 337.703C106.382 334.412 106.848 327.828 106.676 323.543C106.108 309.377 107.25 295.286 109.571 281.306C110.585 275.193 114.556 267.821 111.526 261.888C111.825 261.25 111.793 261.478 111.842 260.862C113.545 239.555 138.636 200.392 152.574 183.393C155.398 179.948 165.32 170.694 166.564 167.645C174.309 159.893 191.01 145.99 199.699 141.107L199.911 141.725C209.607 145.62 220.659 137.135 228.081 132.498C230.963 130.697 242.287 125.067 243.376 122.491C248.845 122.39 254.096 120.202 259.345 118.822C270.284 115.946 284.02 115.336 293.44 112.426Z"/>
	<path fill="white" transform="scale(1.6 1.6)" d="M242.666 321.675C228.805 320.547 240.633 294.695 249.228 298.01C249.862 299.625 250.553 301.17 251.333 302.719C253.665 310.225 247.648 316.726 242.666 321.675Z"/>
	<path fill="#3D405B" transform="scale(1.6 1.6)" d="M261.11 526.22C262.761 515.108 276.928 522.045 284.795 523.362C293.076 524.748 308.198 522.986 309.307 531.913C308.902 533.312 308.15 535.146 306.788 535.881C303.733 537.532 265.763 534.931 261.11 526.22Z"/>
	<path fill="#3D405B" transform="scale(1.6 1.6)" d="M175.35 481.686C177.002 480.113 179.115 478.755 181.494 478.999C181.548 479.004 222.958 505.351 223.747 506.255C225.595 508.373 224.692 511.697 223.719 513.985C216.36 518.477 180.902 492.872 176.635 487.564C175.078 485.628 175.06 484.065 175.35 481.686Z"/>
	<path fill="#3D405B" transform="scale(1.6 1.6)" d="M261.94 228.818C261.446 223.715 261.72 218.428 261.722 213.297L261.753 163.624C261.752 159.451 259.884 149.937 266.268 149.571C273.621 149.15 272.756 155.012 272.795 160.583C272.959 184.075 272.2 207.674 273.177 231.145C268.84 232.335 265.678 231.09 261.94 228.818Z"/>
	<path fill="#3D405B" transform="scale(1.6 1.6)" d="M239.72 230.269C240.278 213.122 240.262 196.072 240.258 178.908C240.256 173.125 239.621 159.308 240.569 154.326C241.848 147.612 249.547 149.581 252.181 154.105C252.254 157.123 251.906 160.183 251.877 163.212L251.865 212.507C251.85 217.266 252.223 222.79 251.258 227.447C248.122 231.35 244.22 231.443 239.72 230.269Z"/>
	<path fill="#3D405B" transform="scale(1.6 1.6)" d="M243.627 341.278C249.321 342.804 246.92 355.953 246.657 360.158L244.478 399.972C243.89 410.137 240.253 446.726 242.63 454.799C245.999 466.242 259.042 474.5 269.976 467.668C278.701 462.216 278.146 450.348 289.03 458.325C294.573 472.76 248.189 498.436 233.862 462.017C230.79 454.211 231.532 446.754 232.15 438.659C232.709 431.331 236.594 347.639 237.454 345.827C238.626 343.358 241.162 342.091 243.627 341.278Z"/>
	<path fill="#3D405B" transform="scale(1.6 1.6)" d="M251.585 276.134C246.346 274.873 241.546 273.498 237.225 270.142C212.578 251 217.12 227.47 218.476 200.363C218.727 195.344 217.544 141.556 229.338 154.324C233.786 159.139 227.876 216.412 227.724 227.049C227.732 228.027 227.494 229.78 227.963 230.595L228.263 230.576C232.04 230.358 235.939 230.231 239.72 230.269C244.22 231.443 248.122 231.35 251.258 227.447C252.056 230.663 259.419 229.266 261.94 228.818C265.678 231.09 268.84 232.335 273.177 231.145C277.215 232.117 282.539 231.65 286.609 230.907C286.441 213.991 285.552 196.919 284.774 180.005C284.568 175.516 281.793 157.787 284.94 154.67C286.565 153.061 290.098 152.883 291.85 154.427C294.261 159.737 297.577 223.3 297.126 232.622C296.201 251.732 282.763 274.722 262.121 276.318C261.597 283.159 261.282 290.468 262.494 297.246C259.335 299.744 255.079 301.295 251.333 302.719C250.553 301.17 249.862 299.625 249.228 298.01C252.15 294.169 251.883 281.04 251.585 276.134Z"/>
	<path fill="#E07A5F" transform="scale(1.6 1.6)" d="M286.609 230.907C286.736 246.569 274.733 267.374 257.065 266.54C237.979 265.64 226.733 244.112 227.724 227.049C227.732 228.027 227.494 229.78 227.963 230.595L228.263 230.576C232.04 230.358 235.939 230.231 239.72 230.269C244.22 231.443 248.122 231.35 251.258 227.447C252.056 230.663 259.419 229.266 261.94 228.818C265.678 231.09 268.84 232.335 273.177 231.145C277.215 232.117 282.539 231.65 286.609 230.907Z"/>
	<path fill="#E07A5F" transform="scale(1.6 1.6)" d="M262.494 297.246C276.921 296.606 275.707 325.158 277.117 335.767C280.667 362.479 283.776 389.514 288.81 415.962C290.81 426.467 298.803 451.223 289.03 458.325C278.146 450.348 278.701 462.216 269.976 467.668C259.042 474.5 245.999 466.242 242.63 454.799C240.253 446.726 243.89 410.137 244.478 399.972L246.657 360.158C246.92 355.953 249.321 342.804 243.627 341.278C246.054 341.483 242.477 326.431 242.666 321.675C247.648 316.726 253.665 310.225 251.333 302.719C255.079 301.295 259.335 299.744 262.494 297.246Z"/>
	<path fill="#3D405B" transform="scale(1.6 1.6)" d="M399.638 132.273C403.517 132.076 405.263 133.455 406.472 137.064C406.272 139.292 406.249 141.502 406.24 143.738C407.76 143.751 408.977 144.069 410.338 144.692C412.994 152.263 412.262 191.231 412.378 200.516C412.439 205.361 413.007 210.256 412.793 215.095L417.774 292.3C418.385 301.139 422.708 331.021 420.288 338.006C416.42 342.401 411.119 338.983 406.298 338.74L406.251 339.203C405.695 345.183 409.156 361.199 402.601 362.742C402.762 363.831 403.941 364.998 404.607 365.859C406.369 383.628 410.082 406.305 413.095 423.919C415.978 440.77 425.411 457.535 408.497 467.806L408.284 468.944C408.476 470.044 408.138 471.242 407.937 472.334C399.843 478.266 393.059 482.229 382.755 481.421C349.307 478.8 356.192 443.694 357.293 421.916C358.685 394.379 359.993 365.388 362.315 338.002C331.162 333.515 331.701 307.262 333.427 283.304C335.806 250.291 339.74 215.798 353.288 185.22C361.999 165.56 378.922 140.255 399.638 132.273Z"/>
	<path fill="#E07A5F" transform="scale(1.6 1.6)" d="M372.856 340.243C380.307 341.874 388.622 341.544 396.214 341.54C395.494 351.688 392.527 361.496 402.601 362.742C402.762 363.831 403.941 364.998 404.607 365.859C406.369 383.628 410.082 406.305 413.095 423.919C415.978 440.77 425.411 457.535 408.497 467.806L408.284 468.944C407.022 456.671 395.118 468.11 391.431 469.56C380.667 473.791 368.099 465.253 366.573 454.136C365.484 446.211 366.975 435.519 367.335 427.327C368.625 398.061 371.343 369.246 372.856 340.243Z"/>
	<path fill="#E07A5F" transform="scale(1.6 1.6)" d="M406.24 143.738C407.76 143.751 408.977 144.069 410.338 144.692C412.994 152.263 412.262 191.231 412.378 200.516C412.439 205.361 413.007 210.256 412.793 215.095L417.774 292.3C418.385 301.139 422.708 331.021 420.288 338.006C416.42 342.401 411.119 338.983 406.298 338.74C406.656 335.716 406.431 332.471 406.416 329.422L406.401 257.08C404.456 254.317 400.469 251.739 397.495 254.822C394.254 258.184 395.904 277.053 395.946 283.016L395.971 331.586L392.501 331.488C367.875 330.581 341.438 329.265 342.834 298.612C345.44 241.354 350.823 187.377 394.967 146.874C395 165.995 395.519 185.115 395.893 204.23L396.155 220.36C396.203 224.598 395.219 230.86 398.07 234.423C407.01 245.595 406.624 219.785 406.621 217.209C405.608 192.758 406.929 168.201 406.24 143.738Z"/>
	<path fill="#D4BF9B" transform="scale(1.6 1.6)" d="M406.24 143.738C407.76 143.751 408.977 144.069 410.338 144.692C412.994 152.263 412.262 191.231 412.378 200.516C412.439 205.361 413.007 210.256 412.793 215.095C409.833 207.151 413.879 175.435 411.166 169.399C410.683 168.323 408.729 167.025 407.942 165.585L407.384 165.375C405.437 167.741 406.58 177.343 406.597 180.477L406.977 211.442C406.983 212.221 407.232 217.082 406.621 217.209C405.608 192.758 406.929 168.201 406.24 143.738Z"/>
</svg>
