<?xml version="1.0" encoding="utf-8" ?>
<svg xmlns="http://www.w3.org/2000/svg" xmlns:xlink="http://www.w3.org/1999/xlink" width="1024" height="1024">
	<path fill="#F4F1DE" transform="scale(1.6 1.6)" d="M313.547 83.586C393.83 81.7484 465.643 117.463 512.968 183.265C612.898 322.212 533.383 516.637 369.578 551.993C355.751 554.978 341.667 556.201 327.578 557.155C212.894 558.413 114.961 484.662 89.2519 370.704C60.075 241.373 145.861 112.235 276.762 87.4692C288.883 85.1758 301.242 84.2002 313.547 83.586Z"/>
	<path fill="#3D405B" transform="scale(1.6 1.6)" d="M463.334 310.789C458.106 307.185 464.95 284.24 466.824 283.386C466.903 283.63 466.82 290.375 468.097 292.148L468.486 292.004L468.455 289.888L468.653 289.869C469.333 291.06 470.255 307.318 469.72 309.099C469.005 311.475 465.18 311.013 463.334 310.789Z"/>
	<path fill="#3D405B" transform="scale(1.6 1.6)" d="M454.186 345.505C455.6 346.19 457.185 346.811 457.797 348.386C459.194 351.98 448.705 390.686 446.784 396.666C443.248 407.67 438.603 421.565 428.224 427.913C460.276 450.76 426.566 498.471 394.912 475.366C381.372 465.483 378.108 444.14 389.674 431.457C381.21 432.456 372.549 432.079 364.037 432.074L282.959 432.073C272.969 432.076 262.906 432.395 252.95 431.441C257.928 436.965 261.526 443.932 261.506 451.488C261.499 454.13 262.767 453.755 264.9 453.757C273.361 453.303 282.881 453.784 291.474 453.769L308.921 453.768C311.568 453.771 319.307 452.81 321.406 454.747C323.248 456.446 323.09 460.197 320.976 461.622C318.908 463.016 265.581 462.292 260.293 462.137C253.862 471.947 249.188 480.642 235.045 481.488C208.081 483.102 194.684 450.779 211.859 431.659C196.314 425.965 187.031 410.043 187.53 393.801C188.456 392.85 189.47 392.116 190.545 391.35C199.183 392.166 193.709 412.474 208.757 421.197C216.784 425.85 238.454 423.529 247.755 423.617L387.776 423.737C394.911 423.744 415.805 424.62 421.264 422.921C443.433 416.021 445.506 348.123 454.186 345.505Z"/>
	<path fill="#3D405B" transform="scale(1.6 1.6)" d="M446.049 207.711C451.34 200.033 465.326 189.781 474.555 197.393C481.55 203.162 474.296 204.664 468.377 203.643C463.346 202.775 454.6 206.215 453.633 211.946L455.284 213.754C455.33 215.156 454.59 214.826 453.551 214.587C454.013 217.56 455.322 220.456 456.057 223.384C458.552 239.116 450.599 247.162 442.188 259.314C449.02 259.812 458.306 261.089 463.846 256.237C465.905 254.433 470.634 246.815 469.542 251.775C470.036 252.519 470.349 253.029 470.309 253.976L469.94 256.04C469.481 258.646 467.888 260.289 466 262C468.395 262.224 469.829 262.436 471.866 263.834C471.098 266.296 468.762 267.331 466.398 267.796C462.874 266.881 443.436 267.639 439.231 267.775C412.953 268.626 388.324 267.704 362.368 267.68C328.922 267.65 295.774 268.533 262.168 268.195C251.788 268.09 243.917 271.67 240.086 259.8C233.476 256.494 229.883 260.571 224.022 262.268C223.775 263.449 223.388 266.593 222.312 267.24C220.681 268.22 189.64 267.81 187.152 266.858C178.069 263.379 171.906 246.168 167.139 246.79C165.898 249.249 173.233 278.845 174.179 283.517L184.952 338.139C186.096 343.731 194.659 369.274 187.272 371.198C185.372 370.466 184.044 369.576 182.539 368.196C181.688 364.337 181.445 360.29 180.71 356.394L159.851 248.197C157.862 248.258 133.116 249.43 143.074 241.299C145.782 239.088 171.753 239.654 174.09 241.025C176.787 242.607 180.319 252.308 183.157 255.711C188.88 262.572 201.841 259.326 209.74 260.087C209.195 244.147 210.208 201.212 232.034 197.374C245.752 194.962 249.812 211.04 251.565 221.418C263.672 181.594 282.291 197.769 290.946 229.847C301.888 222.966 312.396 224.326 320.593 234.037C324.67 238.867 326.309 253.376 327.003 259.603C336.753 259.853 346.899 260.117 356.619 259.351C363.256 254.377 378.325 235.472 383.663 228.836C401.99 206.049 416.189 185.823 446.049 207.711Z"/>
	<path fill="#E07A5F" transform="scale(1.6 1.6)" d="M301.616 233.832C318.202 232.494 316.896 245.543 318.423 258.773C310.875 259.002 303.324 258.834 295.775 259.137C290.431 259.384 284.707 260.016 279.385 259.444C280.752 247.595 289.333 235.93 301.616 233.832Z"/>
	<path fill="#3D405B" transform="scale(1.6 1.6)" d="M301.129 238.163L304.895 238.458L305.904 240.014C309.524 245.505 309.327 251.97 302.267 253.372C293.901 251.819 292.79 240.176 301.129 238.163Z"/>
	<path fill="#00E744" transform="scale(1.6 1.6)" d="M269.885 205.225C274.925 205.793 283.077 227.903 284.083 232.759C279.137 242.61 272.995 246.668 272.409 259.956C270.227 259.972 268.041 260.055 265.86 260.106C261.288 260.294 256.733 260.636 252.171 260.986C251.94 242.842 249.586 244.373 257.087 228.91C260.969 220.909 262.567 210.995 269.885 205.225Z"/>
	<path fill="#00E744" transform="scale(1.6 1.6)" d="M234.121 204.318C243.611 214.35 246.129 249.561 240.086 259.8C233.476 256.494 229.883 260.571 224.022 262.268C222.402 261.183 219.762 262.423 218.634 260.481C216.75 257.24 217.201 240.266 217.594 235.85C218.64 224.102 223.699 210.627 234.121 204.318Z"/>
	<path fill="#E07A5F" transform="scale(1.6 1.6)" d="M421.433 206.984C434.547 205.59 448.043 215.282 448.17 229.044C448.279 240.974 437.231 252.039 429.522 260.017C418.076 259.559 406.609 259.695 395.156 259.724L367.209 259.729C382.182 245.281 402.694 209.472 421.433 206.984Z"/>
	<path fill="#E07A5F" transform="scale(1.6 1.6)" d="M187.272 371.198C194.659 369.274 186.096 343.731 184.952 338.139L174.179 283.517C173.233 278.845 165.898 249.249 167.139 246.79C171.906 246.168 178.069 263.379 187.152 266.858C189.64 267.81 220.681 268.22 222.312 267.24C223.388 266.593 223.775 263.449 224.022 262.268C229.883 260.571 233.476 256.494 240.086 259.8C243.917 271.67 251.788 268.09 262.168 268.195C295.774 268.533 328.922 267.65 362.368 267.68C388.324 267.704 412.953 268.626 439.231 267.775C443.436 267.639 462.874 266.881 466.398 267.796C465.608 271.35 464.723 280.287 466.824 283.386C464.95 284.24 458.106 307.185 463.334 310.789L462.701 311.155C461.018 317.761 456.764 340.535 454.186 345.505C445.506 348.123 443.433 416.021 421.264 422.921C415.805 424.62 394.911 423.744 387.776 423.737L247.755 423.617C238.454 423.529 216.784 425.85 208.757 421.197C193.709 412.474 199.183 392.166 190.545 391.35C189.527 384.865 188.101 378.091 187.722 371.556L187.272 371.198Z"/>
	<path fill="#3D405B" transform="scale(1.6 1.6)" d="M288.053 317.438C289.88 317.484 291.603 318.207 292.324 320.058C293.918 324.151 294.84 361.149 295.286 367.472C295.727 373.707 299.669 390.523 294.578 393.955C286.319 395.04 288.809 379.274 288.494 372.644L286.028 330.434C285.797 325.988 284.372 320.736 288.053 317.438Z"/>
	<path fill="#3D405B" transform="scale(1.6 1.6)" d="M339.563 318.42C341.217 318.405 342.794 318.605 343.39 320.438C344.289 323.202 341.286 379.753 340.079 389.728C339.806 391.983 339.398 393.368 337.112 394.184C335.371 394.131 333.715 394.22 332.627 392.64C331.451 379.725 334.911 354.85 335.865 341.3C336.244 335.909 334.512 321.722 339.563 318.42Z"/>
	<path fill="#3D405B" transform="scale(1.6 1.6)" d="M233.019 317.941C240.418 319.567 238.832 333.472 239.472 339.669C240.428 348.943 248.52 390.432 242.692 394.288C241.324 394.444 240.006 394.711 238.795 393.964C236.489 388.453 230.211 324.864 230.884 321.794C231.227 320.234 232.036 319.167 233.019 317.941Z"/>
	<path fill="#3D405B" transform="scale(1.6 1.6)" d="M392.729 318.455C400.401 319.356 397.271 329.004 396.746 334.293C395.419 347.659 394.523 361.079 393.268 374.456C392.797 379.476 393.513 390.991 388.591 394.068C380.033 394.219 384.308 382.693 385.154 376.369C386.369 367.288 388.21 323.253 392.729 318.455Z"/>
</svg>
