<?xml version="1.0" encoding="utf-8" ?>
<svg xmlns="http://www.w3.org/2000/svg" xmlns:xlink="http://www.w3.org/1999/xlink" width="1023" height="1023">
	<path fill="#F4F1DE" transform="scale(1.6 1.6)" d="M312.705 85.5053L314.327 85.4235C439.788 79.9866 549.875 182.62 555.185 307.726C559.684 413.748 495.182 508.917 395.358 542.808C371.1 551.043 352.649 553.937 327.578 554.943C269.184 556.939 211.179 536.679 166.829 498.517C13.0655 366.211 89.0191 117.764 285.474 87.888C294.482 86.5181 303.625 86.1496 312.705 85.5053Z"/>
	<path fill="#3D405B" transform="scale(1.6 1.6)" d="M159.318 277.453C167.334 282.663 163.795 291.552 163.8 301.082L163.807 354.389C163.806 362.304 162.878 387.507 165.022 393.8C167.142 400.025 174.656 402.227 179.661 405.445C177.384 408.711 174.323 410.217 170.299 409.608C150.952 406.679 154.911 381.557 154.916 367.749L154.917 295.121C154.92 288.127 152.674 281.731 159.318 277.453Z"/>
	<path fill="#3D405B" transform="scale(1.6 1.6)" d="M382.9 403.864C383.354 402.542 383.426 400.908 383.71 399.523C388.418 376.612 414.387 363.696 434.469 376.697C443.825 382.754 446.792 392.151 448.976 402.538C451.985 455.421 379.58 450.034 382.9 403.864Z"/>
	<path fill="#3D405B" transform="scale(1.6 1.6)" d="M205.517 214.07C212.583 197.123 230.522 184.08 248.74 182.597C255.732 182.028 297.568 188.067 284.725 200.668C284.668 204.694 285.102 209.548 285.976 213.464C292.785 213.829 300.033 214.194 306.802 213.292L307.124 212.97C310.378 209.774 312.559 212.369 316.385 212.755C358.36 216.982 354.896 236.024 355.31 270.502C375.496 266.76 398.325 260.797 416.694 273.424C429.986 282.563 440.609 308.578 451.958 322.858C454.888 326.546 458.962 328.158 462.797 330.646C474.657 338.342 482.821 348.904 485.309 362.955C487.003 372.518 489.722 394.017 483.891 402.186C478.869 409.221 462.704 414.409 456.666 406.102C454.663 404.388 452.565 404.685 450.221 403.956C450.897 402.755 450.233 402.859 448.976 402.538C446.792 392.151 443.825 382.754 434.469 376.697C414.387 363.696 388.418 376.612 383.71 399.523C383.426 400.908 383.354 402.542 382.9 403.864C379.66 404.562 373.303 404.631 370.888 406.891C367.748 400.357 363.213 399.457 356.299 399.811C354.627 375.18 357.063 350.081 355.287 325.967L355.358 320.662C355.156 317.412 352.69 316.011 349.86 314.955C351.762 311.62 349.416 300.739 351.366 297.192C349.511 296.072 347.996 294.989 346.503 293.416C346.332 281.681 346.997 269.207 347.009 257.268C347.04 226.833 340.107 222.532 311.27 222.747L219.811 222.799C202.437 222.778 175.473 218.929 167.052 235.847C163.615 242.751 163.116 251.717 165.565 258.958C163.741 260.731 161.727 262.581 159.415 263.684C157.669 262.524 156.358 261.41 155.232 259.621C152.627 220.22 170.537 213.56 205.517 214.07Z"/>
	<defs>
		<linearGradient id="gradient_0" gradientUnits="userSpaceOnUse" x1="386.9614" y1="285.12527" x2="387.53333" y2="275.14346">
			<stop offset="0" stop-color="#A5F1FC"/>
			<stop offset="1" stop-color="#DBFFFF"/>
		</linearGradient>
	</defs>
	<path fill="url(#gradient_0)" transform="scale(1.6 1.6)" d="M355.812 282.226L355.836 280.725C357.471 279.151 377.804 275.941 381.484 275.539C395.502 274.007 411.168 275.913 419.922 288.411C418.464 288.934 414.546 285.673 413.201 284.797C391.932 270.952 375.293 282.939 356.245 282.245L355.812 282.226Z"/>
	<path fill="#BC6C25" transform="scale(1.6 1.6)" d="M455.847 338.848C461.614 339.931 477.082 350.972 474.578 358.238C464.345 359.869 452.496 349.468 455.847 338.848Z"/>
	<path fill="#BC6C25" transform="scale(1.6 1.6)" d="M215.722 213.751C227.457 192.497 251.303 187.862 273.013 195.926C276.965 197.394 280.741 199.276 284.725 200.668C284.668 204.694 285.102 209.548 285.976 213.464C262.609 214.282 239.108 213.633 215.722 213.751Z"/>
	<path fill="#69E8F6" transform="scale(1.6 1.6)" d="M355.812 282.226L356.245 282.245C375.293 282.939 391.932 270.952 413.201 284.797C414.546 285.673 418.464 288.934 419.922 288.411C424.913 294.656 438.709 317.718 443.175 326.198C428.864 323.193 378.713 314.245 371.948 319.592C370.343 320.86 370.83 324.284 371.012 326.112C367.9 326.385 364.803 325.568 361.79 324.891C359.004 323.895 356.796 323.477 355.358 320.662C355.156 317.412 352.69 316.011 349.86 314.955C351.762 311.62 349.416 300.739 351.366 297.192C357.7 295.016 356.018 287.467 355.812 282.226Z"/>
	<path fill="#BC6C25" transform="scale(1.6 1.6)" d="M355.358 320.662C356.796 323.477 359.004 323.895 361.79 324.891C364.803 325.568 367.9 326.385 371.012 326.112C376.098 326.673 381.012 326.179 386.095 325.998C406.944 325.257 426.32 332.336 446.519 336.271C448.295 357.083 456.434 367.528 478.045 367.144C478.477 373.368 479.204 386.578 478.325 392.419C476.812 402.473 462.892 400.305 456.666 406.102C454.663 404.388 452.565 404.685 450.221 403.956C450.897 402.755 450.233 402.859 448.976 402.538C446.792 392.151 443.825 382.754 434.469 376.697C414.387 363.696 388.418 376.612 383.71 399.523C383.426 400.908 383.354 402.542 382.9 403.864C379.66 404.562 373.303 404.631 370.888 406.891C367.748 400.357 363.213 399.457 356.299 399.811C354.627 375.18 357.063 350.081 355.287 325.967L355.358 320.662Z"/>
	<path fill="#3D405B" transform="scale(1.6 1.6)" d="M396.153 332.836C405.871 332.305 413.454 339.55 402.403 344.537C394.633 345.037 385.35 336.334 396.153 332.836Z"/>
	<path fill="#BC6C25" transform="scale(1.6 1.6)" d="M165.565 258.958C163.116 251.717 163.615 242.751 167.052 235.847C175.473 218.929 202.437 222.778 219.811 222.799L311.27 222.747C340.107 222.532 347.04 226.833 347.009 257.268C346.997 269.207 346.332 281.681 346.503 293.416C347.996 294.989 349.511 296.072 351.366 297.192C349.416 300.739 351.762 311.62 349.86 314.955C352.69 316.011 355.156 317.412 355.358 320.662L355.287 325.967C357.063 350.081 354.627 375.18 356.299 399.811C363.213 399.457 367.748 400.357 370.888 406.891C367.381 411.677 345.648 409.643 338.863 409.642L276.847 409.646C273.084 409.634 271.048 407.257 271.068 403.62C266.858 403.765 262.516 403.964 258.369 404.733C255.363 453.329 195.382 451.147 191.791 408.226C191.501 402.831 183.569 404.232 179.661 405.445C174.656 402.227 167.142 400.025 165.022 393.8C162.878 387.507 163.806 362.304 163.807 354.389L163.8 301.082C163.795 291.552 167.334 282.663 159.318 277.453C159.318 274.647 158.694 265.575 159.415 263.684C161.727 262.581 163.741 260.731 165.565 258.958Z"/>
	<path fill="#3D405B" transform="scale(1.6 1.6)" d="M282.872 268.87C287.411 268.74 301.5 266.879 296.598 276.091C295.817 277.559 294.685 277.989 293.168 278.462C289.322 278.546 284.164 278.903 280.569 277.267C275.634 275.022 278.618 269.539 282.872 268.87Z"/>
	<path fill="#3D405B" transform="scale(1.6 1.6)" d="M223.537 268.893C233.224 268.78 237.346 266.989 236.416 278.257C234.409 278.467 232.36 278.411 230.342 278.427C227.598 278.39 220.376 278.763 218.324 277.103C214.55 274.048 216.576 269.102 223.537 268.893Z"/>
	<path fill="#3D405B" transform="scale(1.6 1.6)" d="M252.79 268.86C273.125 267.617 270.732 277.561 263.133 278.207C259.148 278.155 251.824 278.848 248.554 276.603C244.98 274.151 247.797 269.351 252.79 268.86Z"/>
	<path fill="#3D405B" transform="scale(1.6 1.6)" d="M349.86 314.955C352.69 316.011 355.156 317.412 355.358 320.662L355.287 325.967C357.063 350.081 354.627 375.18 356.299 399.811C363.213 399.457 367.748 400.357 370.888 406.891C367.381 411.677 345.648 409.643 338.863 409.642L276.847 409.646C273.084 409.634 271.048 407.257 271.068 403.62C279.682 398.418 289.06 400.672 299.077 400.678L347.056 400.69C347.461 389.251 344.345 320.204 349.86 314.955Z"/>
	<path fill="#3D405B" transform="scale(1.6 1.6)" d="M191.791 408.226C193.109 377.101 223.129 360.488 247.335 379.692C255.358 386.058 257.22 395.08 258.369 404.733C255.363 453.329 195.382 451.147 191.791 408.226Z"/>
</svg>
