<?xml version="1.0" encoding="utf-8" ?>
<svg xmlns="http://www.w3.org/2000/svg" xmlns:xlink="http://www.w3.org/1999/xlink" width="1024" height="1024">
	<path fill="#3D405B" transform="scale(1.6 1.6)" d="M95.5687 374.388C104.06 373 112.466 372.601 121.052 372.56L120.95 373.45C115.566 375.322 101.571 374.905 95.5687 374.388Z"/>
	<path fill="#3D405B" transform="scale(1.6 1.6)" d="M507.175 453.162C509.678 453.092 512.202 453.406 514.646 453.939C514.772 463.443 518.604 484.464 507.071 487.03C504.797 482.777 505.515 458.043 507.175 453.162Z"/>
	<path fill="#3D405B" transform="scale(1.6 1.6)" d="M504.356 501.744C514.411 499.691 521.663 495.222 529.251 493.425C533.335 492.458 535.569 496.826 533.313 500.14C525.334 511.854 438.223 522.487 414.263 525.949C412.011 524.939 410.033 523.794 408.681 521.632C412.448 515.791 417.105 516.531 423.351 515.97C443.667 514.144 466.758 509.769 486.706 505.71C492.452 504.541 498.839 503.7 504.356 501.744Z"/>
	<path fill="#3D405B" transform="scale(1.6 1.6)" d="M301.474 113.214C297.418 101.421 305.099 86.2416 313.707 78.3767C318.796 73.7264 321.83 77.5598 324.848 82.2253C331.432 92.4047 333.752 99.5425 331.146 111.488C324.574 126.193 309.65 128.937 301.474 113.214Z"/>
	<path fill="#E84CA1" transform="scale(1.6 1.6)" d="M317.399 86.4225C323.371 88.5864 329.909 111.434 316.202 115.412C301.003 114.549 311.452 93.0374 317.399 86.4225Z"/>
	<path fill="#3D405B" transform="scale(1.6 1.6)" d="M392.984 528.589C387.526 529.392 381.845 529.512 376.336 529.872C307.849 534.342 249.162 530.716 180.822 519.778C169.26 517.928 112.435 508.965 106.614 500.276C104.562 497.214 106.797 493.283 110.442 494.103C115.704 495.286 123.679 498.866 130.248 500.575C207.167 518.701 297.767 528.664 376.795 521.085C381.1 520.672 391.7 517.481 395.042 520.791C397.447 524.081 395.912 526.261 392.984 528.589Z"/>
	<path fill="#3D405B" transform="scale(1.6 1.6)" d="M249.199 98.0739C252.792 92.2378 256.692 84.7866 263.581 82.5915C272.997 86.2889 280.116 104.619 279.275 114.491L279.564 115.033C280.489 109.971 280.521 110.705 285.492 109.092C295.081 105.98 298.517 113.624 301.025 113.846L301.474 113.214C309.65 128.937 324.574 126.193 331.146 111.488C331.727 111.474 331.477 111.573 331.865 111.266C336.374 107.704 344.508 111.509 352.089 109.239C353.976 111.015 355.459 116.697 356.855 111.773C357.908 103.384 370.494 82.0849 377.928 84.3405C380.801 85.2122 386.039 96.2855 387.676 99.2742L388.752 99.9576L388.888 99.8542L388.449 99.7682L388.982 99.7757C391.843 93.9566 397.284 98.4197 403.697 101.162C470.99 129.938 521.159 184.53 539.42 256.246C545.99 282.052 553.264 345.156 537.526 363.977C532.377 370.135 523.198 373.202 515.556 370.346C515.82 376.756 516.855 429.448 515.025 432.818C512.677 433.029 509.598 430.361 507.469 429.411C504.542 431.739 505.943 449.339 507.175 453.162C505.515 458.043 504.797 482.777 507.071 487.03L507.026 487.307C506.112 493.362 505.446 496.105 504.356 501.744C498.839 503.7 492.452 504.541 486.706 505.71C466.758 509.769 443.667 514.144 423.351 515.97C417.105 516.531 412.448 515.791 408.681 521.632C407.408 521.326 396.032 520.562 395.042 520.791C391.7 517.481 381.1 520.672 376.795 521.085C297.767 528.664 207.167 518.701 130.248 500.575C130.777 499.803 128.756 489.974 129.227 486.04C126.708 485.03 124.531 483.883 122.311 482.325C121.59 476.86 122.083 471.129 122.094 465.612L122.114 435.244C122.119 415.37 120.981 393.299 121.662 373.767L120.95 373.45L121.052 372.56C121.575 370.738 121.308 368.087 121.346 366.157C115.251 361.758 105.15 360.423 97.8328 360.277C97.6041 354.678 96.6898 349.067 96.1686 343.484C91.4603 293.051 94.2869 256.39 118.327 209.337C130.737 185.048 146.41 163.962 166.594 145.556C177.133 135.947 236.319 91.492 249.199 98.0739Z"/>
	<path fill="#49E175" transform="scale(1.6 1.6)" d="M265.281 156.247C274.256 156.042 271.693 166.647 271.623 172.651L271.579 191.02C271.558 201.967 272.114 212.895 272.206 223.84L266.282 224.01L258.795 224.145C259.393 214.173 257.857 163.732 260.15 159.27C261.054 157.51 263.53 156.829 265.281 156.247Z"/>
	<path fill="#BC6C25" transform="scale(1.6 1.6)" d="M365.631 223.8C365.636 216.802 365.331 166.409 367.412 162.125C370.488 155.791 380.932 157.81 382.922 164.128C385.463 172.195 379.254 191.378 387.391 195.679C387.396 205.284 386.558 214.774 386.555 224.022C380.267 223.296 372.14 223.924 365.631 223.8Z"/>
	<path fill="#BC6C25" transform="scale(1.6 1.6)" d="M315.621 146.976C329.675 147.009 325.206 166.575 325.206 176.809L325.191 224.65L317.422 224.643C314.15 224.662 310.897 224.647 307.627 224.507C306.729 206.277 306.105 174.092 307.75 156.101C308.24 150.744 309.968 147.909 315.621 146.976Z"/>
	<path fill="white" transform="scale(1.6 1.6)" d="M199.758 250.374C206.933 231.801 225.076 233.766 241.305 233.76L402.747 233.76C418.007 233.754 430.955 230.496 439.916 246.269C436.348 246.877 432.149 246.455 428.516 246.449C402.881 246.406 377.467 248.163 351.874 248.725L220.265 249.663C216.762 249.658 200.967 250.713 199.758 250.374Z"/>
	<path fill="#BC6C25" transform="scale(1.6 1.6)" d="M439.916 246.269C447.187 256.824 444.992 293.348 444.557 308.328C421.543 309.535 398.604 310.014 375.555 310.017L297.977 310.021C266.816 310.019 227.979 311.724 197.171 307.764C195.878 295.165 195.502 260.55 199.758 250.374C200.967 250.713 216.762 249.658 220.265 249.663L351.874 248.725C377.467 248.163 402.881 246.406 428.516 246.449C432.149 246.455 436.348 246.877 439.916 246.269Z"/>
	<path fill="#BC6C25" transform="scale(1.6 1.6)" d="M130.024 400.584C130.018 357.712 126.198 309.12 183.431 315.051C205.076 317.294 223.298 319.085 245.553 319.087L396.102 319.085C411.656 319.084 427.025 319.119 442.494 317.076C495.052 310.135 507.665 316.445 507.572 370.56L507.458 390.463C501.256 390.218 494.823 392.122 488.806 389.947C478.477 401.802 471.825 359.496 453.202 378.604C443.465 388.596 436.118 405.733 419.935 406.327C399.204 407.088 393.795 374.036 377.352 374.019C366.27 374.007 359.441 385.543 352.755 392.717C335.935 410.765 310.109 410.889 292.441 394.102C284.427 386.488 277.818 374.013 265.338 374.344C246.648 374.839 242.542 405.155 222.191 406.034C200.177 406.986 193.157 373.362 178.804 374.045C169.7 374.478 160.236 385.284 156.844 393.357C155.374 396.853 152.376 406.973 146.387 399.867C145.545 398.651 144.624 397.504 143.705 396.346C138.729 397.049 134.597 398.514 130.024 400.584Z"/>
	<path fill="#3D405B" transform="scale(1.6 1.6)" d="M146.387 399.867C150.369 385.343 159.482 369.589 175.173 365.818C194.391 361.2 201.057 388.11 214.42 395.843C231.962 405.993 240.328 371.289 258.631 366.505C287.178 359.042 294.396 399.735 323.195 398.374C346.458 397.274 350.428 371.86 371.381 366.311C396.067 359.772 399.348 387.996 414.292 396.209C435.111 407.65 446.431 351.985 470.988 366.526C478.718 371.103 486.628 381.198 488.806 389.947C478.477 401.802 471.825 359.496 453.202 378.604C443.465 388.596 436.118 405.733 419.935 406.327C399.204 407.088 393.795 374.036 377.352 374.019C366.27 374.007 359.441 385.543 352.755 392.717C335.935 410.765 310.109 410.889 292.441 394.102C284.427 386.488 277.818 374.013 265.338 374.344C246.648 374.839 242.542 405.155 222.191 406.034C200.177 406.986 193.157 373.362 178.804 374.045C169.7 374.478 160.236 385.284 156.844 393.357C155.374 396.853 152.376 406.973 146.387 399.867Z"/>
	<path fill="#F4F1DE" transform="scale(1.6 1.6)" d="M146.387 399.867C152.376 406.973 155.374 396.853 156.844 393.357C160.236 385.284 169.7 374.478 178.804 374.045C193.157 373.362 200.177 406.986 222.191 406.034C242.542 405.155 246.648 374.839 265.338 374.344C277.818 374.013 284.427 386.488 292.441 394.102C310.109 410.889 335.935 410.765 352.755 392.717C359.441 385.543 366.27 374.007 377.352 374.019C393.795 374.036 399.204 407.088 419.935 406.327C436.118 405.733 443.465 388.596 453.202 378.604C471.825 359.496 478.477 401.802 488.806 389.947C494.823 392.122 501.256 390.218 507.458 390.463L507.557 417.167C507.559 421.128 507.941 425.509 507.469 429.411C504.542 431.739 505.943 449.339 507.175 453.162C505.515 458.043 504.797 482.777 507.071 487.03L507.026 487.307C506.112 493.362 505.446 496.105 504.356 501.744C498.839 503.7 492.452 504.541 486.706 505.71C466.758 509.769 443.667 514.144 423.351 515.97C417.105 516.531 412.448 515.791 408.681 521.632C407.408 521.326 396.032 520.562 395.042 520.791C391.7 517.481 381.1 520.672 376.795 521.085C297.767 528.664 207.167 518.701 130.248 500.575C130.777 499.803 128.756 489.974 129.227 486.04C130.878 482.063 130.059 411.259 130.024 400.584C134.597 398.514 138.729 397.049 143.705 396.346C144.624 397.504 145.545 398.651 146.387 399.867Z"/>
	<path fill="#F4F1DE" transform="scale(1.6 1.6)" d="M249.199 98.0739C252.792 92.2378 256.692 84.7866 263.581 82.5915C272.997 86.2889 280.116 104.619 279.275 114.491L279.564 115.033C280.489 109.971 280.521 110.705 285.492 109.092C295.081 105.98 298.517 113.624 301.025 113.846L301.474 113.214C309.65 128.937 324.574 126.193 331.146 111.488C331.727 111.474 331.477 111.573 331.865 111.266C336.374 107.704 344.508 111.509 352.089 109.239C353.976 111.015 355.459 116.697 356.855 111.773C357.908 103.384 370.494 82.0849 377.928 84.3405C380.801 85.2122 386.039 96.2855 387.676 99.2742L388.752 99.9576L388.888 99.8542L388.449 99.7682L388.982 99.7757C391.843 93.9566 397.284 98.4197 403.697 101.162C470.99 129.938 521.159 184.53 539.42 256.246C545.99 282.052 553.264 345.156 537.526 363.977C532.377 370.135 523.198 373.202 515.556 370.346C515.388 367.809 515.749 365.143 515.701 362.577C514.872 317.918 497.228 302.25 452.808 306.862L452.781 267.711C452.414 233.266 436.081 223.788 403.99 223.889L386.555 224.022C386.558 214.774 387.396 205.284 387.391 195.679C392.976 189.721 391.174 172.429 390.906 164.601C390.25 145.404 361.883 145.03 358.575 163.197C355.795 178.468 357.821 208.031 357.588 224.617C349.613 224.621 341.568 224.84 333.601 224.556C333.288 217.595 333.441 210.588 333.443 203.621L333.459 170.229C333.462 165.395 334.118 154.85 333.135 150.634C331.484 143.554 322.712 137.746 315.701 138.165C296.343 139.323 299.425 161.306 299.428 174.488C299.432 191.175 300.119 208.143 298.826 224.776C292.854 224.586 286.888 224.628 280.914 224.669C280.448 212.259 280.281 199.935 280.282 187.519C280.283 175.739 284.474 146.549 265.084 147.474C246.54 148.359 249.695 170.436 249.694 182.546L249.706 224.668C233.166 224.36 212.98 222.029 200.133 234.272C181.852 251.694 190.489 283.646 188.521 306.658C142.392 301.04 127.559 320.57 122.718 364.075C122.366 367.244 122.414 370.677 121.662 373.767L120.95 373.45L121.052 372.56C121.575 370.738 121.308 368.087 121.346 366.157C115.251 361.758 105.15 360.423 97.8328 360.277C97.6041 354.678 96.6898 349.067 96.1686 343.484C91.4603 293.051 94.2869 256.39 118.327 209.337C130.737 185.048 146.41 163.962 166.594 145.556C177.133 135.947 236.319 91.492 249.199 98.0739Z"/>
	<path fill="#3D405B" transform="scale(1.6 1.6)" d="M249.199 98.0739C252.792 92.2378 256.692 84.7866 263.581 82.5915C272.997 86.2889 280.116 104.619 279.275 114.491C278.534 115.918 277.866 120.385 276.882 122.615C267.229 144.497 233.273 130.024 249.199 98.0739Z"/>
	<path fill="#FAB508" transform="scale(1.6 1.6)" d="M262.406 94.5613C269.743 99.8872 275.332 119.665 262.126 123.812C246.734 122.381 257.105 101.016 262.406 94.5613Z"/>
	<path fill="#3D405B" transform="scale(1.6 1.6)" d="M356.855 111.773C357.908 103.384 370.494 82.0849 377.928 84.3405C380.801 85.2122 386.039 96.2855 387.676 99.2742C405.516 140.402 356.749 150.29 356.855 111.773Z"/>
	<path fill="#FAB508" transform="scale(1.6 1.6)" d="M375.048 97.4677C382.706 105.173 387.503 122.275 373.887 126.162C360.587 122.408 366.603 104.5 375.048 97.4677Z"/>
</svg>
